ISO-10303-21;
HEADER;
/* Generated by software containing ST-Developer
 * from STEP Tools, Inc. (www.steptools.com) 
 */

FILE_DESCRIPTION(
/* description */ (''),
/* implementation_level */ '2;1');

FILE_NAME(
/* name */ 'case v2 covers.stp',
/* time_stamp */ '2025-04-20T16:18:05-04:00',
/* author */ ('voids'),
/* organization */ (''),
/* preprocessor_version */ 'ST-DEVELOPER v20',
/* originating_system */ 'Autodesk Inventor 2024',
/* authorisation */ '');

FILE_SCHEMA (('AUTOMOTIVE_DESIGN { 1 0 10303 214 3 1 1 }'));
ENDSEC;

DATA;
#10=MECHANICAL_DESIGN_GEOMETRIC_PRESENTATION_REPRESENTATION('',(#13,#14,
#15),#1905);
#11=SHAPE_REPRESENTATION_RELATIONSHIP('SRR','None',#1916,#12);
#12=ADVANCED_BREP_SHAPE_REPRESENTATION('',(#16,#17,#18),#1904);
#13=STYLED_ITEM('',(#1925),#16);
#14=STYLED_ITEM('',(#1925),#17);
#15=STYLED_ITEM('',(#1925),#18);
#16=MANIFOLD_SOLID_BREP('Solid7',#1115);
#17=MANIFOLD_SOLID_BREP('Solid8',#1116);
#18=MANIFOLD_SOLID_BREP('Solid9',#1117);
#19=FACE_BOUND('',#132,.T.);
#20=FACE_BOUND('',#133,.T.);
#21=FACE_BOUND('',#139,.T.);
#22=FACE_BOUND('',#140,.T.);
#23=FACE_BOUND('',#148,.T.);
#24=FACE_BOUND('',#149,.T.);
#25=FACE_BOUND('',#155,.T.);
#26=FACE_BOUND('',#156,.T.);
#27=FACE_BOUND('',#185,.T.);
#28=FACE_BOUND('',#186,.T.);
#29=FACE_BOUND('',#187,.T.);
#30=FACE_BOUND('',#188,.T.);
#31=FACE_BOUND('',#189,.T.);
#32=FACE_BOUND('',#196,.T.);
#33=FACE_BOUND('',#197,.T.);
#34=FACE_BOUND('',#198,.T.);
#35=FACE_BOUND('',#199,.T.);
#36=FACE_BOUND('',#200,.T.);
#37=PLANE('',#1142);
#38=PLANE('',#1152);
#39=PLANE('',#1153);
#40=PLANE('',#1160);
#41=PLANE('',#1161);
#42=PLANE('',#1162);
#43=PLANE('',#1166);
#44=PLANE('',#1176);
#45=PLANE('',#1177);
#46=PLANE('',#1184);
#47=PLANE('',#1185);
#48=PLANE('',#1186);
#49=PLANE('',#1190);
#50=PLANE('',#1194);
#51=PLANE('',#1198);
#52=PLANE('',#1202);
#53=PLANE('',#1206);
#54=PLANE('',#1210);
#55=PLANE('',#1214);
#56=PLANE('',#1218);
#57=PLANE('',#1222);
#58=PLANE('',#1226);
#59=PLANE('',#1230);
#60=PLANE('',#1237);
#61=PLANE('',#1241);
#62=PLANE('',#1242);
#63=PLANE('',#1249);
#64=PLANE('',#1250);
#65=PLANE('',#1251);
#66=PLANE('',#1252);
#67=FACE_OUTER_BOUND('',#125,.T.);
#68=FACE_OUTER_BOUND('',#126,.T.);
#69=FACE_OUTER_BOUND('',#127,.T.);
#70=FACE_OUTER_BOUND('',#128,.T.);
#71=FACE_OUTER_BOUND('',#129,.T.);
#72=FACE_OUTER_BOUND('',#130,.T.);
#73=FACE_OUTER_BOUND('',#131,.T.);
#74=FACE_OUTER_BOUND('',#134,.T.);
#75=FACE_OUTER_BOUND('',#135,.T.);
#76=FACE_OUTER_BOUND('',#136,.T.);
#77=FACE_OUTER_BOUND('',#137,.T.);
#78=FACE_OUTER_BOUND('',#138,.T.);
#79=FACE_OUTER_BOUND('',#141,.T.);
#80=FACE_OUTER_BOUND('',#142,.T.);
#81=FACE_OUTER_BOUND('',#143,.T.);
#82=FACE_OUTER_BOUND('',#144,.T.);
#83=FACE_OUTER_BOUND('',#145,.T.);
#84=FACE_OUTER_BOUND('',#146,.T.);
#85=FACE_OUTER_BOUND('',#147,.T.);
#86=FACE_OUTER_BOUND('',#150,.T.);
#87=FACE_OUTER_BOUND('',#151,.T.);
#88=FACE_OUTER_BOUND('',#152,.T.);
#89=FACE_OUTER_BOUND('',#153,.T.);
#90=FACE_OUTER_BOUND('',#154,.T.);
#91=FACE_OUTER_BOUND('',#157,.T.);
#92=FACE_OUTER_BOUND('',#158,.T.);
#93=FACE_OUTER_BOUND('',#159,.T.);
#94=FACE_OUTER_BOUND('',#160,.T.);
#95=FACE_OUTER_BOUND('',#161,.T.);
#96=FACE_OUTER_BOUND('',#162,.T.);
#97=FACE_OUTER_BOUND('',#163,.T.);
#98=FACE_OUTER_BOUND('',#164,.T.);
#99=FACE_OUTER_BOUND('',#165,.T.);
#100=FACE_OUTER_BOUND('',#166,.T.);
#101=FACE_OUTER_BOUND('',#167,.T.);
#102=FACE_OUTER_BOUND('',#168,.T.);
#103=FACE_OUTER_BOUND('',#169,.T.);
#104=FACE_OUTER_BOUND('',#170,.T.);
#105=FACE_OUTER_BOUND('',#171,.T.);
#106=FACE_OUTER_BOUND('',#172,.T.);
#107=FACE_OUTER_BOUND('',#173,.T.);
#108=FACE_OUTER_BOUND('',#174,.T.);
#109=FACE_OUTER_BOUND('',#175,.T.);
#110=FACE_OUTER_BOUND('',#176,.T.);
#111=FACE_OUTER_BOUND('',#177,.T.);
#112=FACE_OUTER_BOUND('',#178,.T.);
#113=FACE_OUTER_BOUND('',#179,.T.);
#114=FACE_OUTER_BOUND('',#180,.T.);
#115=FACE_OUTER_BOUND('',#181,.T.);
#116=FACE_OUTER_BOUND('',#182,.T.);
#117=FACE_OUTER_BOUND('',#183,.T.);
#118=FACE_OUTER_BOUND('',#184,.T.);
#119=FACE_OUTER_BOUND('',#190,.T.);
#120=FACE_OUTER_BOUND('',#191,.T.);
#121=FACE_OUTER_BOUND('',#192,.T.);
#122=FACE_OUTER_BOUND('',#193,.T.);
#123=FACE_OUTER_BOUND('',#194,.T.);
#124=FACE_OUTER_BOUND('',#195,.T.);
#125=EDGE_LOOP('',(#717,#718,#719,#720));
#126=EDGE_LOOP('',(#721,#722,#723,#724));
#127=EDGE_LOOP('',(#725,#726,#727,#728));
#128=EDGE_LOOP('',(#729,#730,#731,#732));
#129=EDGE_LOOP('',(#733,#734,#735,#736));
#130=EDGE_LOOP('',(#737,#738,#739,#740));
#131=EDGE_LOOP('',(#741,#742,#743,#744,#745,#746,#747,#748));
#132=EDGE_LOOP('',(#749));
#133=EDGE_LOOP('',(#750));
#134=EDGE_LOOP('',(#751,#752,#753,#754));
#135=EDGE_LOOP('',(#755,#756,#757,#758));
#136=EDGE_LOOP('',(#759,#760,#761,#762));
#137=EDGE_LOOP('',(#763,#764,#765,#766));
#138=EDGE_LOOP('',(#767,#768,#769,#770,#771,#772,#773,#774));
#139=EDGE_LOOP('',(#775));
#140=EDGE_LOOP('',(#776));
#141=EDGE_LOOP('',(#777,#778,#779,#780));
#142=EDGE_LOOP('',(#781,#782,#783,#784));
#143=EDGE_LOOP('',(#785,#786,#787,#788));
#144=EDGE_LOOP('',(#789,#790,#791,#792));
#145=EDGE_LOOP('',(#793,#794,#795,#796));
#146=EDGE_LOOP('',(#797,#798,#799,#800));
#147=EDGE_LOOP('',(#801,#802,#803,#804,#805,#806,#807,#808));
#148=EDGE_LOOP('',(#809));
#149=EDGE_LOOP('',(#810));
#150=EDGE_LOOP('',(#811,#812,#813,#814));
#151=EDGE_LOOP('',(#815,#816,#817,#818));
#152=EDGE_LOOP('',(#819,#820,#821,#822));
#153=EDGE_LOOP('',(#823,#824,#825,#826));
#154=EDGE_LOOP('',(#827,#828,#829,#830,#831,#832,#833,#834));
#155=EDGE_LOOP('',(#835));
#156=EDGE_LOOP('',(#836));
#157=EDGE_LOOP('',(#837,#838,#839,#840));
#158=EDGE_LOOP('',(#841,#842,#843,#844));
#159=EDGE_LOOP('',(#845,#846,#847,#848));
#160=EDGE_LOOP('',(#849,#850,#851,#852));
#161=EDGE_LOOP('',(#853,#854,#855,#856));
#162=EDGE_LOOP('',(#857,#858,#859,#860));
#163=EDGE_LOOP('',(#861,#862,#863,#864));
#164=EDGE_LOOP('',(#865,#866,#867,#868));
#165=EDGE_LOOP('',(#869,#870,#871,#872));
#166=EDGE_LOOP('',(#873,#874,#875,#876));
#167=EDGE_LOOP('',(#877,#878,#879,#880));
#168=EDGE_LOOP('',(#881,#882,#883,#884));
#169=EDGE_LOOP('',(#885,#886,#887,#888));
#170=EDGE_LOOP('',(#889,#890,#891,#892));
#171=EDGE_LOOP('',(#893,#894,#895,#896));
#172=EDGE_LOOP('',(#897,#898,#899,#900));
#173=EDGE_LOOP('',(#901,#902,#903,#904));
#174=EDGE_LOOP('',(#905,#906,#907,#908));
#175=EDGE_LOOP('',(#909,#910,#911,#912));
#176=EDGE_LOOP('',(#913,#914,#915,#916));
#177=EDGE_LOOP('',(#917,#918,#919,#920));
#178=EDGE_LOOP('',(#921,#922,#923,#924));
#179=EDGE_LOOP('',(#925,#926,#927,#928));
#180=EDGE_LOOP('',(#929,#930,#931,#932));
#181=EDGE_LOOP('',(#933,#934,#935,#936));
#182=EDGE_LOOP('',(#937,#938,#939,#940));
#183=EDGE_LOOP('',(#941,#942,#943,#944));
#184=EDGE_LOOP('',(#945,#946,#947,#948,#949,#950,#951,#952));
#185=EDGE_LOOP('',(#953,#954,#955,#956,#957,#958,#959,#960));
#186=EDGE_LOOP('',(#961,#962,#963,#964,#965,#966,#967,#968));
#187=EDGE_LOOP('',(#969));
#188=EDGE_LOOP('',(#970));
#189=EDGE_LOOP('',(#971,#972,#973,#974,#975,#976));
#190=EDGE_LOOP('',(#977,#978,#979,#980));
#191=EDGE_LOOP('',(#981,#982,#983,#984));
#192=EDGE_LOOP('',(#985,#986,#987,#988));
#193=EDGE_LOOP('',(#989,#990,#991,#992));
#194=EDGE_LOOP('',(#993,#994,#995,#996));
#195=EDGE_LOOP('',(#997,#998,#999,#1000,#1001,#1002,#1003,#1004));
#196=EDGE_LOOP('',(#1005,#1006,#1007,#1008,#1009,#1010,#1011,#1012));
#197=EDGE_LOOP('',(#1013,#1014,#1015,#1016,#1017,#1018,#1019,#1020));
#198=EDGE_LOOP('',(#1021,#1022,#1023,#1024,#1025,#1026));
#199=EDGE_LOOP('',(#1027));
#200=EDGE_LOOP('',(#1028));
#201=LINE('',#1589,#301);
#202=LINE('',#1592,#302);
#203=LINE('',#1595,#303);
#204=LINE('',#1597,#304);
#205=LINE('',#1598,#305);
#206=LINE('',#1604,#306);
#207=LINE('',#1609,#307);
#208=LINE('',#1616,#308);
#209=LINE('',#1619,#309);
#210=LINE('',#1622,#310);
#211=LINE('',#1624,#311);
#212=LINE('',#1625,#312);
#213=LINE('',#1627,#313);
#214=LINE('',#1629,#314);
#215=LINE('',#1635,#315);
#216=LINE('',#1640,#316);
#217=LINE('',#1642,#317);
#218=LINE('',#1644,#318);
#219=LINE('',#1651,#319);
#220=LINE('',#1654,#320);
#221=LINE('',#1657,#321);
#222=LINE('',#1659,#322);
#223=LINE('',#1660,#323);
#224=LINE('',#1665,#324);
#225=LINE('',#1671,#325);
#226=LINE('',#1678,#326);
#227=LINE('',#1681,#327);
#228=LINE('',#1684,#328);
#229=LINE('',#1686,#329);
#230=LINE('',#1687,#330);
#231=LINE('',#1689,#331);
#232=LINE('',#1691,#332);
#233=LINE('',#1698,#333);
#234=LINE('',#1701,#334);
#235=LINE('',#1704,#335);
#236=LINE('',#1706,#336);
#237=LINE('',#1713,#337);
#238=LINE('',#1716,#338);
#239=LINE('',#1719,#339);
#240=LINE('',#1721,#340);
#241=LINE('',#1722,#341);
#242=LINE('',#1728,#342);
#243=LINE('',#1731,#343);
#244=LINE('',#1733,#344);
#245=LINE('',#1734,#345);
#246=LINE('',#1740,#346);
#247=LINE('',#1743,#347);
#248=LINE('',#1745,#348);
#249=LINE('',#1746,#349);
#250=LINE('',#1751,#350);
#251=LINE('',#1754,#351);
#252=LINE('',#1755,#352);
#253=LINE('',#1761,#353);
#254=LINE('',#1764,#354);
#255=LINE('',#1767,#355);
#256=LINE('',#1769,#356);
#257=LINE('',#1770,#357);
#258=LINE('',#1775,#358);
#259=LINE('',#1779,#359);
#260=LINE('',#1781,#360);
#261=LINE('',#1782,#361);
#262=LINE('',#1787,#362);
#263=LINE('',#1791,#363);
#264=LINE('',#1793,#364);
#265=LINE('',#1794,#365);
#266=LINE('',#1799,#366);
#267=LINE('',#1802,#367);
#268=LINE('',#1803,#368);
#269=LINE('',#1809,#369);
#270=LINE('',#1812,#370);
#271=LINE('',#1815,#371);
#272=LINE('',#1817,#372);
#273=LINE('',#1818,#373);
#274=LINE('',#1824,#374);
#275=LINE('',#1827,#375);
#276=LINE('',#1829,#376);
#277=LINE('',#1830,#377);
#278=LINE('',#1836,#378);
#279=LINE('',#1839,#379);
#280=LINE('',#1842,#380);
#281=LINE('',#1844,#381);
#282=LINE('',#1845,#382);
#283=LINE('',#1850,#383);
#284=LINE('',#1856,#384);
#285=LINE('',#1860,#385);
#286=LINE('',#1862,#386);
#287=LINE('',#1863,#387);
#288=LINE('',#1869,#388);
#289=LINE('',#1872,#389);
#290=LINE('',#1875,#390);
#291=LINE('',#1877,#391);
#292=LINE('',#1878,#392);
#293=LINE('',#1881,#393);
#294=LINE('',#1883,#394);
#295=LINE('',#1886,#395);
#296=LINE('',#1890,#396);
#297=LINE('',#1893,#397);
#298=LINE('',#1896,#398);
#299=LINE('',#1898,#399);
#300=LINE('',#1900,#400);
#301=VECTOR('',#1259,0.393700787401575);
#302=VECTOR('',#1262,0.393700787401575);
#303=VECTOR('',#1265,0.393700787401575);
#304=VECTOR('',#1266,0.393700787401575);
#305=VECTOR('',#1267,0.393700787401575);
#306=VECTOR('',#1274,0.393700787401575);
#307=VECTOR('',#1279,0.0625);
#308=VECTOR('',#1286,0.393700787401575);
#309=VECTOR('',#1289,0.393700787401575);
#310=VECTOR('',#1292,0.393700787401575);
#311=VECTOR('',#1293,0.393700787401575);
#312=VECTOR('',#1294,0.393700787401575);
#313=VECTOR('',#1297,0.393700787401575);
#314=VECTOR('',#1298,0.393700787401575);
#315=VECTOR('',#1305,0.393700787401575);
#316=VECTOR('',#1312,0.0625);
#317=VECTOR('',#1315,0.393700787401575);
#318=VECTOR('',#1318,0.393700787401575);
#319=VECTOR('',#1325,0.393700787401575);
#320=VECTOR('',#1328,0.393700787401575);
#321=VECTOR('',#1331,0.393700787401575);
#322=VECTOR('',#1332,0.393700787401575);
#323=VECTOR('',#1333,0.393700787401575);
#324=VECTOR('',#1338,0.393700787401575);
#325=VECTOR('',#1345,0.0625);
#326=VECTOR('',#1352,0.393700787401575);
#327=VECTOR('',#1355,0.393700787401575);
#328=VECTOR('',#1358,0.393700787401575);
#329=VECTOR('',#1359,0.393700787401575);
#330=VECTOR('',#1360,0.393700787401575);
#331=VECTOR('',#1363,0.393700787401575);
#332=VECTOR('',#1364,0.393700787401575);
#333=VECTOR('',#1373,0.393700787401575);
#334=VECTOR('',#1376,0.0625);
#335=VECTOR('',#1381,0.393700787401575);
#336=VECTOR('',#1384,0.393700787401575);
#337=VECTOR('',#1391,0.393700787401575);
#338=VECTOR('',#1394,0.393700787401575);
#339=VECTOR('',#1397,0.393700787401575);
#340=VECTOR('',#1398,0.393700787401575);
#341=VECTOR('',#1399,0.393700787401575);
#342=VECTOR('',#1404,0.393700787401575);
#343=VECTOR('',#1407,0.393700787401575);
#344=VECTOR('',#1410,0.393700787401575);
#345=VECTOR('',#1411,0.393700787401575);
#346=VECTOR('',#1416,0.393700787401575);
#347=VECTOR('',#1419,0.393700787401575);
#348=VECTOR('',#1422,0.393700787401575);
#349=VECTOR('',#1423,0.393700787401575);
#350=VECTOR('',#1428,0.393700787401575);
#351=VECTOR('',#1433,0.393700787401575);
#352=VECTOR('',#1434,0.393700787401575);
#353=VECTOR('',#1439,0.393700787401575);
#354=VECTOR('',#1442,0.393700787401575);
#355=VECTOR('',#1445,0.393700787401575);
#356=VECTOR('',#1446,0.393700787401575);
#357=VECTOR('',#1447,0.393700787401575);
#358=VECTOR('',#1452,0.393700787401575);
#359=VECTOR('',#1457,0.393700787401575);
#360=VECTOR('',#1458,0.393700787401575);
#361=VECTOR('',#1459,0.393700787401575);
#362=VECTOR('',#1464,0.393700787401575);
#363=VECTOR('',#1469,0.393700787401575);
#364=VECTOR('',#1470,0.393700787401575);
#365=VECTOR('',#1471,0.393700787401575);
#366=VECTOR('',#1476,0.393700787401575);
#367=VECTOR('',#1481,0.393700787401575);
#368=VECTOR('',#1482,0.393700787401575);
#369=VECTOR('',#1487,0.393700787401575);
#370=VECTOR('',#1490,0.393700787401575);
#371=VECTOR('',#1493,0.393700787401575);
#372=VECTOR('',#1494,0.393700787401575);
#373=VECTOR('',#1495,0.393700787401575);
#374=VECTOR('',#1500,0.393700787401575);
#375=VECTOR('',#1503,0.393700787401575);
#376=VECTOR('',#1506,0.393700787401575);
#377=VECTOR('',#1507,0.393700787401575);
#378=VECTOR('',#1512,0.393700787401575);
#379=VECTOR('',#1515,0.393700787401575);
#380=VECTOR('',#1518,0.393700787401575);
#381=VECTOR('',#1519,0.393700787401575);
#382=VECTOR('',#1520,0.393700787401575);
#383=VECTOR('',#1525,0.393700787401575);
#384=VECTOR('',#1532,0.0625);
#385=VECTOR('',#1537,0.393700787401575);
#386=VECTOR('',#1538,0.393700787401575);
#387=VECTOR('',#1539,0.393700787401575);
#388=VECTOR('',#1544,0.393700787401575);
#389=VECTOR('',#1547,0.393700787401575);
#390=VECTOR('',#1550,0.393700787401575);
#391=VECTOR('',#1551,0.393700787401575);
#392=VECTOR('',#1552,0.393700787401575);
#393=VECTOR('',#1555,0.393700787401575);
#394=VECTOR('',#1558,0.393700787401575);
#395=VECTOR('',#1561,0.393700787401575);
#396=VECTOR('',#1566,0.393700787401575);
#397=VECTOR('',#1569,0.0625);
#398=VECTOR('',#1574,0.393700787401575);
#399=VECTOR('',#1577,0.393700787401575);
#400=VECTOR('',#1580,0.393700787401575);
#401=CIRCLE('',#1140,0.05);
#402=CIRCLE('',#1141,0.05);
#403=CIRCLE('',#1144,0.05);
#404=CIRCLE('',#1145,0.05);
#405=CIRCLE('',#1147,0.0625);
#406=CIRCLE('',#1148,0.0625);
#407=CIRCLE('',#1150,0.05);
#408=CIRCLE('',#1151,0.05);
#409=CIRCLE('',#1154,0.05);
#410=CIRCLE('',#1155,0.0625);
#411=CIRCLE('',#1157,0.05);
#412=CIRCLE('',#1159,0.0625);
#413=CIRCLE('',#1164,0.05);
#414=CIRCLE('',#1165,0.05);
#415=CIRCLE('',#1168,0.05);
#416=CIRCLE('',#1169,0.05);
#417=CIRCLE('',#1171,0.0625);
#418=CIRCLE('',#1172,0.0625);
#419=CIRCLE('',#1174,0.05);
#420=CIRCLE('',#1175,0.05);
#421=CIRCLE('',#1178,0.05);
#422=CIRCLE('',#1179,0.0625);
#423=CIRCLE('',#1181,0.05);
#424=CIRCLE('',#1183,0.0625);
#425=CIRCLE('',#1188,0.03);
#426=CIRCLE('',#1189,0.03);
#427=CIRCLE('',#1192,0.03);
#428=CIRCLE('',#1193,0.03);
#429=CIRCLE('',#1196,0.03);
#430=CIRCLE('',#1197,0.03);
#431=CIRCLE('',#1200,0.03);
#432=CIRCLE('',#1201,0.03);
#433=CIRCLE('',#1204,0.03);
#434=CIRCLE('',#1205,0.03);
#435=CIRCLE('',#1208,0.03);
#436=CIRCLE('',#1209,0.03);
#437=CIRCLE('',#1212,0.03);
#438=CIRCLE('',#1213,0.03);
#439=CIRCLE('',#1216,0.03);
#440=CIRCLE('',#1217,0.03);
#441=CIRCLE('',#1220,0.03);
#442=CIRCLE('',#1221,0.03);
#443=CIRCLE('',#1224,0.03);
#444=CIRCLE('',#1225,0.03);
#445=CIRCLE('',#1228,0.05);
#446=CIRCLE('',#1229,0.05);
#447=CIRCLE('',#1232,0.05);
#448=CIRCLE('',#1233,0.05);
#449=CIRCLE('',#1235,0.0625);
#450=CIRCLE('',#1236,0.0625);
#451=CIRCLE('',#1239,0.05);
#452=CIRCLE('',#1240,0.05);
#453=CIRCLE('',#1243,0.05);
#454=CIRCLE('',#1244,0.0625);
#455=CIRCLE('',#1246,0.05);
#456=CIRCLE('',#1248,0.0625);
#457=VERTEX_POINT('',#1585);
#458=VERTEX_POINT('',#1586);
#459=VERTEX_POINT('',#1588);
#460=VERTEX_POINT('',#1590);
#461=VERTEX_POINT('',#1594);
#462=VERTEX_POINT('',#1596);
#463=VERTEX_POINT('',#1600);
#464=VERTEX_POINT('',#1602);
#465=VERTEX_POINT('',#1606);
#466=VERTEX_POINT('',#1608);
#467=VERTEX_POINT('',#1612);
#468=VERTEX_POINT('',#1613);
#469=VERTEX_POINT('',#1615);
#470=VERTEX_POINT('',#1617);
#471=VERTEX_POINT('',#1621);
#472=VERTEX_POINT('',#1623);
#473=VERTEX_POINT('',#1628);
#474=VERTEX_POINT('',#1631);
#475=VERTEX_POINT('',#1634);
#476=VERTEX_POINT('',#1638);
#477=VERTEX_POINT('',#1647);
#478=VERTEX_POINT('',#1648);
#479=VERTEX_POINT('',#1650);
#480=VERTEX_POINT('',#1652);
#481=VERTEX_POINT('',#1656);
#482=VERTEX_POINT('',#1658);
#483=VERTEX_POINT('',#1662);
#484=VERTEX_POINT('',#1664);
#485=VERTEX_POINT('',#1668);
#486=VERTEX_POINT('',#1670);
#487=VERTEX_POINT('',#1674);
#488=VERTEX_POINT('',#1675);
#489=VERTEX_POINT('',#1677);
#490=VERTEX_POINT('',#1679);
#491=VERTEX_POINT('',#1683);
#492=VERTEX_POINT('',#1685);
#493=VERTEX_POINT('',#1690);
#494=VERTEX_POINT('',#1693);
#495=VERTEX_POINT('',#1696);
#496=VERTEX_POINT('',#1700);
#497=VERTEX_POINT('',#1709);
#498=VERTEX_POINT('',#1710);
#499=VERTEX_POINT('',#1712);
#500=VERTEX_POINT('',#1714);
#501=VERTEX_POINT('',#1718);
#502=VERTEX_POINT('',#1720);
#503=VERTEX_POINT('',#1724);
#504=VERTEX_POINT('',#1725);
#505=VERTEX_POINT('',#1727);
#506=VERTEX_POINT('',#1729);
#507=VERTEX_POINT('',#1736);
#508=VERTEX_POINT('',#1737);
#509=VERTEX_POINT('',#1739);
#510=VERTEX_POINT('',#1741);
#511=VERTEX_POINT('',#1748);
#512=VERTEX_POINT('',#1750);
#513=VERTEX_POINT('',#1757);
#514=VERTEX_POINT('',#1758);
#515=VERTEX_POINT('',#1760);
#516=VERTEX_POINT('',#1762);
#517=VERTEX_POINT('',#1766);
#518=VERTEX_POINT('',#1768);
#519=VERTEX_POINT('',#1772);
#520=VERTEX_POINT('',#1774);
#521=VERTEX_POINT('',#1778);
#522=VERTEX_POINT('',#1780);
#523=VERTEX_POINT('',#1784);
#524=VERTEX_POINT('',#1786);
#525=VERTEX_POINT('',#1790);
#526=VERTEX_POINT('',#1792);
#527=VERTEX_POINT('',#1796);
#528=VERTEX_POINT('',#1798);
#529=VERTEX_POINT('',#1805);
#530=VERTEX_POINT('',#1806);
#531=VERTEX_POINT('',#1808);
#532=VERTEX_POINT('',#1810);
#533=VERTEX_POINT('',#1814);
#534=VERTEX_POINT('',#1816);
#535=VERTEX_POINT('',#1820);
#536=VERTEX_POINT('',#1821);
#537=VERTEX_POINT('',#1823);
#538=VERTEX_POINT('',#1825);
#539=VERTEX_POINT('',#1832);
#540=VERTEX_POINT('',#1833);
#541=VERTEX_POINT('',#1835);
#542=VERTEX_POINT('',#1837);
#543=VERTEX_POINT('',#1841);
#544=VERTEX_POINT('',#1843);
#545=VERTEX_POINT('',#1847);
#546=VERTEX_POINT('',#1849);
#547=VERTEX_POINT('',#1853);
#548=VERTEX_POINT('',#1855);
#549=VERTEX_POINT('',#1859);
#550=VERTEX_POINT('',#1861);
#551=VERTEX_POINT('',#1865);
#552=VERTEX_POINT('',#1866);
#553=VERTEX_POINT('',#1868);
#554=VERTEX_POINT('',#1870);
#555=VERTEX_POINT('',#1874);
#556=VERTEX_POINT('',#1876);
#557=VERTEX_POINT('',#1880);
#558=VERTEX_POINT('',#1884);
#559=VERTEX_POINT('',#1888);
#560=VERTEX_POINT('',#1892);
#561=EDGE_CURVE('',#457,#458,#401,.T.);
#562=EDGE_CURVE('',#459,#457,#201,.T.);
#563=EDGE_CURVE('',#460,#459,#402,.T.);
#564=EDGE_CURVE('',#458,#460,#202,.T.);
#565=EDGE_CURVE('',#461,#460,#203,.T.);
#566=EDGE_CURVE('',#461,#462,#204,.T.);
#567=EDGE_CURVE('',#462,#458,#205,.T.);
#568=EDGE_CURVE('',#462,#463,#403,.T.);
#569=EDGE_CURVE('',#464,#461,#404,.T.);
#570=EDGE_CURVE('',#463,#464,#206,.T.);
#571=EDGE_CURVE('',#465,#465,#405,.T.);
#572=EDGE_CURVE('',#465,#466,#207,.T.);
#573=EDGE_CURVE('',#466,#466,#406,.T.);
#574=EDGE_CURVE('',#467,#468,#407,.T.);
#575=EDGE_CURVE('',#468,#469,#208,.T.);
#576=EDGE_CURVE('',#469,#470,#408,.T.);
#577=EDGE_CURVE('',#470,#467,#209,.T.);
#578=EDGE_CURVE('',#471,#468,#210,.T.);
#579=EDGE_CURVE('',#472,#471,#211,.T.);
#580=EDGE_CURVE('',#472,#469,#212,.T.);
#581=EDGE_CURVE('',#467,#457,#213,.T.);
#582=EDGE_CURVE('',#473,#463,#214,.T.);
#583=EDGE_CURVE('',#471,#473,#409,.T.);
#584=EDGE_CURVE('',#474,#474,#410,.T.);
#585=EDGE_CURVE('',#473,#475,#215,.T.);
#586=EDGE_CURVE('',#475,#472,#411,.T.);
#587=EDGE_CURVE('',#476,#476,#412,.T.);
#588=EDGE_CURVE('',#476,#474,#216,.T.);
#589=EDGE_CURVE('',#475,#464,#217,.T.);
#590=EDGE_CURVE('',#470,#459,#218,.T.);
#591=EDGE_CURVE('',#477,#478,#413,.T.);
#592=EDGE_CURVE('',#479,#477,#219,.T.);
#593=EDGE_CURVE('',#480,#479,#414,.T.);
#594=EDGE_CURVE('',#478,#480,#220,.T.);
#595=EDGE_CURVE('',#477,#481,#221,.T.);
#596=EDGE_CURVE('',#481,#482,#222,.T.);
#597=EDGE_CURVE('',#479,#482,#223,.T.);
#598=EDGE_CURVE('',#483,#481,#415,.T.);
#599=EDGE_CURVE('',#484,#483,#224,.T.);
#600=EDGE_CURVE('',#482,#484,#416,.T.);
#601=EDGE_CURVE('',#485,#485,#417,.T.);
#602=EDGE_CURVE('',#485,#486,#225,.T.);
#603=EDGE_CURVE('',#486,#486,#418,.T.);
#604=EDGE_CURVE('',#487,#488,#419,.T.);
#605=EDGE_CURVE('',#488,#489,#226,.T.);
#606=EDGE_CURVE('',#489,#490,#420,.T.);
#607=EDGE_CURVE('',#490,#487,#227,.T.);
#608=EDGE_CURVE('',#490,#491,#228,.T.);
#609=EDGE_CURVE('',#492,#491,#229,.T.);
#610=EDGE_CURVE('',#487,#492,#230,.T.);
#611=EDGE_CURVE('',#489,#480,#231,.T.);
#612=EDGE_CURVE('',#493,#484,#232,.T.);
#613=EDGE_CURVE('',#491,#493,#421,.T.);
#614=EDGE_CURVE('',#494,#494,#422,.T.);
#615=EDGE_CURVE('',#495,#492,#423,.T.);
#616=EDGE_CURVE('',#493,#495,#233,.T.);
#617=EDGE_CURVE('',#494,#496,#234,.T.);
#618=EDGE_CURVE('',#496,#496,#424,.T.);
#619=EDGE_CURVE('',#488,#478,#235,.T.);
#620=EDGE_CURVE('',#495,#483,#236,.T.);
#621=EDGE_CURVE('',#497,#498,#425,.T.);
#622=EDGE_CURVE('',#498,#499,#237,.T.);
#623=EDGE_CURVE('',#499,#500,#426,.T.);
#624=EDGE_CURVE('',#500,#497,#238,.T.);
#625=EDGE_CURVE('',#501,#498,#239,.T.);
#626=EDGE_CURVE('',#502,#501,#240,.T.);
#627=EDGE_CURVE('',#499,#502,#241,.T.);
#628=EDGE_CURVE('',#503,#504,#427,.T.);
#629=EDGE_CURVE('',#504,#505,#242,.T.);
#630=EDGE_CURVE('',#505,#506,#428,.T.);
#631=EDGE_CURVE('',#506,#503,#243,.T.);
#632=EDGE_CURVE('',#505,#500,#244,.T.);
#633=EDGE_CURVE('',#497,#504,#245,.T.);
#634=EDGE_CURVE('',#507,#508,#429,.T.);
#635=EDGE_CURVE('',#508,#509,#246,.T.);
#636=EDGE_CURVE('',#509,#510,#430,.T.);
#637=EDGE_CURVE('',#510,#507,#247,.T.);
#638=EDGE_CURVE('',#509,#506,#248,.T.);
#639=EDGE_CURVE('',#503,#508,#249,.T.);
#640=EDGE_CURVE('',#501,#511,#431,.T.);
#641=EDGE_CURVE('',#511,#512,#250,.T.);
#642=EDGE_CURVE('',#512,#502,#432,.T.);
#643=EDGE_CURVE('',#512,#510,#251,.T.);
#644=EDGE_CURVE('',#507,#511,#252,.T.);
#645=EDGE_CURVE('',#513,#514,#433,.T.);
#646=EDGE_CURVE('',#514,#515,#253,.T.);
#647=EDGE_CURVE('',#515,#516,#434,.T.);
#648=EDGE_CURVE('',#516,#513,#254,.T.);
#649=EDGE_CURVE('',#517,#514,#255,.T.);
#650=EDGE_CURVE('',#518,#517,#256,.T.);
#651=EDGE_CURVE('',#515,#518,#257,.T.);
#652=EDGE_CURVE('',#517,#519,#435,.T.);
#653=EDGE_CURVE('',#519,#520,#258,.T.);
#654=EDGE_CURVE('',#520,#518,#436,.T.);
#655=EDGE_CURVE('',#521,#519,#259,.T.);
#656=EDGE_CURVE('',#522,#521,#260,.T.);
#657=EDGE_CURVE('',#520,#522,#261,.T.);
#658=EDGE_CURVE('',#521,#523,#437,.T.);
#659=EDGE_CURVE('',#523,#524,#262,.T.);
#660=EDGE_CURVE('',#524,#522,#438,.T.);
#661=EDGE_CURVE('',#525,#523,#263,.T.);
#662=EDGE_CURVE('',#526,#525,#264,.T.);
#663=EDGE_CURVE('',#524,#526,#265,.T.);
#664=EDGE_CURVE('',#525,#527,#439,.T.);
#665=EDGE_CURVE('',#527,#528,#266,.T.);
#666=EDGE_CURVE('',#528,#526,#440,.T.);
#667=EDGE_CURVE('',#528,#516,#267,.T.);
#668=EDGE_CURVE('',#513,#527,#268,.T.);
#669=EDGE_CURVE('',#529,#530,#441,.T.);
#670=EDGE_CURVE('',#530,#531,#269,.T.);
#671=EDGE_CURVE('',#531,#532,#442,.T.);
#672=EDGE_CURVE('',#532,#529,#270,.T.);
#673=EDGE_CURVE('',#530,#533,#271,.T.);
#674=EDGE_CURVE('',#533,#534,#272,.T.);
#675=EDGE_CURVE('',#531,#534,#273,.T.);
#676=EDGE_CURVE('',#535,#536,#443,.T.);
#677=EDGE_CURVE('',#536,#537,#274,.T.);
#678=EDGE_CURVE('',#537,#538,#444,.T.);
#679=EDGE_CURVE('',#538,#535,#275,.T.);
#680=EDGE_CURVE('',#532,#537,#276,.T.);
#681=EDGE_CURVE('',#529,#536,#277,.T.);
#682=EDGE_CURVE('',#539,#540,#445,.T.);
#683=EDGE_CURVE('',#541,#539,#278,.T.);
#684=EDGE_CURVE('',#542,#541,#446,.T.);
#685=EDGE_CURVE('',#540,#542,#279,.T.);
#686=EDGE_CURVE('',#539,#543,#280,.T.);
#687=EDGE_CURVE('',#543,#544,#281,.T.);
#688=EDGE_CURVE('',#541,#544,#282,.T.);
#689=EDGE_CURVE('',#545,#543,#447,.T.);
#690=EDGE_CURVE('',#546,#545,#283,.T.);
#691=EDGE_CURVE('',#544,#546,#448,.T.);
#692=EDGE_CURVE('',#547,#547,#449,.T.);
#693=EDGE_CURVE('',#547,#548,#284,.T.);
#694=EDGE_CURVE('',#548,#548,#450,.T.);
#695=EDGE_CURVE('',#538,#549,#285,.T.);
#696=EDGE_CURVE('',#550,#549,#286,.T.);
#697=EDGE_CURVE('',#535,#550,#287,.T.);
#698=EDGE_CURVE('',#551,#552,#451,.T.);
#699=EDGE_CURVE('',#552,#553,#288,.T.);
#700=EDGE_CURVE('',#553,#554,#452,.T.);
#701=EDGE_CURVE('',#554,#551,#289,.T.);
#702=EDGE_CURVE('',#554,#555,#290,.T.);
#703=EDGE_CURVE('',#556,#555,#291,.T.);
#704=EDGE_CURVE('',#551,#556,#292,.T.);
#705=EDGE_CURVE('',#557,#546,#293,.T.);
#706=EDGE_CURVE('',#555,#557,#453,.T.);
#707=EDGE_CURVE('',#553,#542,#294,.T.);
#708=EDGE_CURVE('',#558,#558,#454,.T.);
#709=EDGE_CURVE('',#533,#550,#295,.T.);
#710=EDGE_CURVE('',#559,#556,#455,.T.);
#711=EDGE_CURVE('',#557,#559,#296,.T.);
#712=EDGE_CURVE('',#558,#560,#297,.T.);
#713=EDGE_CURVE('',#560,#560,#456,.T.);
#714=EDGE_CURVE('',#559,#545,#298,.T.);
#715=EDGE_CURVE('',#552,#540,#299,.T.);
#716=EDGE_CURVE('',#534,#549,#300,.T.);
#717=ORIENTED_EDGE('',*,*,#561,.F.);
#718=ORIENTED_EDGE('',*,*,#562,.F.);
#719=ORIENTED_EDGE('',*,*,#563,.F.);
#720=ORIENTED_EDGE('',*,*,#564,.F.);
#721=ORIENTED_EDGE('',*,*,#564,.T.);
#722=ORIENTED_EDGE('',*,*,#565,.F.);
#723=ORIENTED_EDGE('',*,*,#566,.T.);
#724=ORIENTED_EDGE('',*,*,#567,.T.);
#725=ORIENTED_EDGE('',*,*,#568,.F.);
#726=ORIENTED_EDGE('',*,*,#566,.F.);
#727=ORIENTED_EDGE('',*,*,#569,.F.);
#728=ORIENTED_EDGE('',*,*,#570,.F.);
#729=ORIENTED_EDGE('',*,*,#571,.T.);
#730=ORIENTED_EDGE('',*,*,#572,.T.);
#731=ORIENTED_EDGE('',*,*,#573,.T.);
#732=ORIENTED_EDGE('',*,*,#572,.F.);
#733=ORIENTED_EDGE('',*,*,#574,.T.);
#734=ORIENTED_EDGE('',*,*,#575,.T.);
#735=ORIENTED_EDGE('',*,*,#576,.T.);
#736=ORIENTED_EDGE('',*,*,#577,.T.);
#737=ORIENTED_EDGE('',*,*,#575,.F.);
#738=ORIENTED_EDGE('',*,*,#578,.F.);
#739=ORIENTED_EDGE('',*,*,#579,.F.);
#740=ORIENTED_EDGE('',*,*,#580,.T.);
#741=ORIENTED_EDGE('',*,*,#574,.F.);
#742=ORIENTED_EDGE('',*,*,#581,.T.);
#743=ORIENTED_EDGE('',*,*,#561,.T.);
#744=ORIENTED_EDGE('',*,*,#567,.F.);
#745=ORIENTED_EDGE('',*,*,#568,.T.);
#746=ORIENTED_EDGE('',*,*,#582,.F.);
#747=ORIENTED_EDGE('',*,*,#583,.F.);
#748=ORIENTED_EDGE('',*,*,#578,.T.);
#749=ORIENTED_EDGE('',*,*,#573,.F.);
#750=ORIENTED_EDGE('',*,*,#584,.T.);
#751=ORIENTED_EDGE('',*,*,#583,.T.);
#752=ORIENTED_EDGE('',*,*,#585,.T.);
#753=ORIENTED_EDGE('',*,*,#586,.T.);
#754=ORIENTED_EDGE('',*,*,#579,.T.);
#755=ORIENTED_EDGE('',*,*,#587,.F.);
#756=ORIENTED_EDGE('',*,*,#588,.T.);
#757=ORIENTED_EDGE('',*,*,#584,.F.);
#758=ORIENTED_EDGE('',*,*,#588,.F.);
#759=ORIENTED_EDGE('',*,*,#585,.F.);
#760=ORIENTED_EDGE('',*,*,#582,.T.);
#761=ORIENTED_EDGE('',*,*,#570,.T.);
#762=ORIENTED_EDGE('',*,*,#589,.F.);
#763=ORIENTED_EDGE('',*,*,#577,.F.);
#764=ORIENTED_EDGE('',*,*,#590,.T.);
#765=ORIENTED_EDGE('',*,*,#562,.T.);
#766=ORIENTED_EDGE('',*,*,#581,.F.);
#767=ORIENTED_EDGE('',*,*,#576,.F.);
#768=ORIENTED_EDGE('',*,*,#580,.F.);
#769=ORIENTED_EDGE('',*,*,#586,.F.);
#770=ORIENTED_EDGE('',*,*,#589,.T.);
#771=ORIENTED_EDGE('',*,*,#569,.T.);
#772=ORIENTED_EDGE('',*,*,#565,.T.);
#773=ORIENTED_EDGE('',*,*,#563,.T.);
#774=ORIENTED_EDGE('',*,*,#590,.F.);
#775=ORIENTED_EDGE('',*,*,#571,.F.);
#776=ORIENTED_EDGE('',*,*,#587,.T.);
#777=ORIENTED_EDGE('',*,*,#591,.F.);
#778=ORIENTED_EDGE('',*,*,#592,.F.);
#779=ORIENTED_EDGE('',*,*,#593,.F.);
#780=ORIENTED_EDGE('',*,*,#594,.F.);
#781=ORIENTED_EDGE('',*,*,#592,.T.);
#782=ORIENTED_EDGE('',*,*,#595,.T.);
#783=ORIENTED_EDGE('',*,*,#596,.T.);
#784=ORIENTED_EDGE('',*,*,#597,.F.);
#785=ORIENTED_EDGE('',*,*,#598,.F.);
#786=ORIENTED_EDGE('',*,*,#599,.F.);
#787=ORIENTED_EDGE('',*,*,#600,.F.);
#788=ORIENTED_EDGE('',*,*,#596,.F.);
#789=ORIENTED_EDGE('',*,*,#601,.T.);
#790=ORIENTED_EDGE('',*,*,#602,.T.);
#791=ORIENTED_EDGE('',*,*,#603,.T.);
#792=ORIENTED_EDGE('',*,*,#602,.F.);
#793=ORIENTED_EDGE('',*,*,#604,.T.);
#794=ORIENTED_EDGE('',*,*,#605,.T.);
#795=ORIENTED_EDGE('',*,*,#606,.T.);
#796=ORIENTED_EDGE('',*,*,#607,.T.);
#797=ORIENTED_EDGE('',*,*,#607,.F.);
#798=ORIENTED_EDGE('',*,*,#608,.T.);
#799=ORIENTED_EDGE('',*,*,#609,.F.);
#800=ORIENTED_EDGE('',*,*,#610,.F.);
#801=ORIENTED_EDGE('',*,*,#606,.F.);
#802=ORIENTED_EDGE('',*,*,#611,.T.);
#803=ORIENTED_EDGE('',*,*,#593,.T.);
#804=ORIENTED_EDGE('',*,*,#597,.T.);
#805=ORIENTED_EDGE('',*,*,#600,.T.);
#806=ORIENTED_EDGE('',*,*,#612,.F.);
#807=ORIENTED_EDGE('',*,*,#613,.F.);
#808=ORIENTED_EDGE('',*,*,#608,.F.);
#809=ORIENTED_EDGE('',*,*,#601,.F.);
#810=ORIENTED_EDGE('',*,*,#614,.T.);
#811=ORIENTED_EDGE('',*,*,#615,.T.);
#812=ORIENTED_EDGE('',*,*,#609,.T.);
#813=ORIENTED_EDGE('',*,*,#613,.T.);
#814=ORIENTED_EDGE('',*,*,#616,.T.);
#815=ORIENTED_EDGE('',*,*,#614,.F.);
#816=ORIENTED_EDGE('',*,*,#617,.T.);
#817=ORIENTED_EDGE('',*,*,#618,.F.);
#818=ORIENTED_EDGE('',*,*,#617,.F.);
#819=ORIENTED_EDGE('',*,*,#605,.F.);
#820=ORIENTED_EDGE('',*,*,#619,.T.);
#821=ORIENTED_EDGE('',*,*,#594,.T.);
#822=ORIENTED_EDGE('',*,*,#611,.F.);
#823=ORIENTED_EDGE('',*,*,#616,.F.);
#824=ORIENTED_EDGE('',*,*,#612,.T.);
#825=ORIENTED_EDGE('',*,*,#599,.T.);
#826=ORIENTED_EDGE('',*,*,#620,.F.);
#827=ORIENTED_EDGE('',*,*,#604,.F.);
#828=ORIENTED_EDGE('',*,*,#610,.T.);
#829=ORIENTED_EDGE('',*,*,#615,.F.);
#830=ORIENTED_EDGE('',*,*,#620,.T.);
#831=ORIENTED_EDGE('',*,*,#598,.T.);
#832=ORIENTED_EDGE('',*,*,#595,.F.);
#833=ORIENTED_EDGE('',*,*,#591,.T.);
#834=ORIENTED_EDGE('',*,*,#619,.F.);
#835=ORIENTED_EDGE('',*,*,#603,.F.);
#836=ORIENTED_EDGE('',*,*,#618,.T.);
#837=ORIENTED_EDGE('',*,*,#621,.T.);
#838=ORIENTED_EDGE('',*,*,#622,.T.);
#839=ORIENTED_EDGE('',*,*,#623,.T.);
#840=ORIENTED_EDGE('',*,*,#624,.T.);
#841=ORIENTED_EDGE('',*,*,#622,.F.);
#842=ORIENTED_EDGE('',*,*,#625,.F.);
#843=ORIENTED_EDGE('',*,*,#626,.F.);
#844=ORIENTED_EDGE('',*,*,#627,.F.);
#845=ORIENTED_EDGE('',*,*,#628,.T.);
#846=ORIENTED_EDGE('',*,*,#629,.T.);
#847=ORIENTED_EDGE('',*,*,#630,.T.);
#848=ORIENTED_EDGE('',*,*,#631,.T.);
#849=ORIENTED_EDGE('',*,*,#624,.F.);
#850=ORIENTED_EDGE('',*,*,#632,.F.);
#851=ORIENTED_EDGE('',*,*,#629,.F.);
#852=ORIENTED_EDGE('',*,*,#633,.F.);
#853=ORIENTED_EDGE('',*,*,#634,.T.);
#854=ORIENTED_EDGE('',*,*,#635,.T.);
#855=ORIENTED_EDGE('',*,*,#636,.T.);
#856=ORIENTED_EDGE('',*,*,#637,.T.);
#857=ORIENTED_EDGE('',*,*,#631,.F.);
#858=ORIENTED_EDGE('',*,*,#638,.F.);
#859=ORIENTED_EDGE('',*,*,#635,.F.);
#860=ORIENTED_EDGE('',*,*,#639,.F.);
#861=ORIENTED_EDGE('',*,*,#640,.T.);
#862=ORIENTED_EDGE('',*,*,#641,.T.);
#863=ORIENTED_EDGE('',*,*,#642,.T.);
#864=ORIENTED_EDGE('',*,*,#626,.T.);
#865=ORIENTED_EDGE('',*,*,#637,.F.);
#866=ORIENTED_EDGE('',*,*,#643,.F.);
#867=ORIENTED_EDGE('',*,*,#641,.F.);
#868=ORIENTED_EDGE('',*,*,#644,.F.);
#869=ORIENTED_EDGE('',*,*,#645,.T.);
#870=ORIENTED_EDGE('',*,*,#646,.T.);
#871=ORIENTED_EDGE('',*,*,#647,.T.);
#872=ORIENTED_EDGE('',*,*,#648,.T.);
#873=ORIENTED_EDGE('',*,*,#646,.F.);
#874=ORIENTED_EDGE('',*,*,#649,.F.);
#875=ORIENTED_EDGE('',*,*,#650,.F.);
#876=ORIENTED_EDGE('',*,*,#651,.F.);
#877=ORIENTED_EDGE('',*,*,#652,.T.);
#878=ORIENTED_EDGE('',*,*,#653,.T.);
#879=ORIENTED_EDGE('',*,*,#654,.T.);
#880=ORIENTED_EDGE('',*,*,#650,.T.);
#881=ORIENTED_EDGE('',*,*,#653,.F.);
#882=ORIENTED_EDGE('',*,*,#655,.F.);
#883=ORIENTED_EDGE('',*,*,#656,.F.);
#884=ORIENTED_EDGE('',*,*,#657,.F.);
#885=ORIENTED_EDGE('',*,*,#658,.T.);
#886=ORIENTED_EDGE('',*,*,#659,.T.);
#887=ORIENTED_EDGE('',*,*,#660,.T.);
#888=ORIENTED_EDGE('',*,*,#656,.T.);
#889=ORIENTED_EDGE('',*,*,#659,.F.);
#890=ORIENTED_EDGE('',*,*,#661,.F.);
#891=ORIENTED_EDGE('',*,*,#662,.F.);
#892=ORIENTED_EDGE('',*,*,#663,.F.);
#893=ORIENTED_EDGE('',*,*,#664,.T.);
#894=ORIENTED_EDGE('',*,*,#665,.T.);
#895=ORIENTED_EDGE('',*,*,#666,.T.);
#896=ORIENTED_EDGE('',*,*,#662,.T.);
#897=ORIENTED_EDGE('',*,*,#648,.F.);
#898=ORIENTED_EDGE('',*,*,#667,.F.);
#899=ORIENTED_EDGE('',*,*,#665,.F.);
#900=ORIENTED_EDGE('',*,*,#668,.F.);
#901=ORIENTED_EDGE('',*,*,#669,.T.);
#902=ORIENTED_EDGE('',*,*,#670,.T.);
#903=ORIENTED_EDGE('',*,*,#671,.T.);
#904=ORIENTED_EDGE('',*,*,#672,.T.);
#905=ORIENTED_EDGE('',*,*,#670,.F.);
#906=ORIENTED_EDGE('',*,*,#673,.T.);
#907=ORIENTED_EDGE('',*,*,#674,.T.);
#908=ORIENTED_EDGE('',*,*,#675,.F.);
#909=ORIENTED_EDGE('',*,*,#676,.T.);
#910=ORIENTED_EDGE('',*,*,#677,.T.);
#911=ORIENTED_EDGE('',*,*,#678,.T.);
#912=ORIENTED_EDGE('',*,*,#679,.T.);
#913=ORIENTED_EDGE('',*,*,#672,.F.);
#914=ORIENTED_EDGE('',*,*,#680,.T.);
#915=ORIENTED_EDGE('',*,*,#677,.F.);
#916=ORIENTED_EDGE('',*,*,#681,.F.);
#917=ORIENTED_EDGE('',*,*,#682,.F.);
#918=ORIENTED_EDGE('',*,*,#683,.F.);
#919=ORIENTED_EDGE('',*,*,#684,.F.);
#920=ORIENTED_EDGE('',*,*,#685,.F.);
#921=ORIENTED_EDGE('',*,*,#683,.T.);
#922=ORIENTED_EDGE('',*,*,#686,.T.);
#923=ORIENTED_EDGE('',*,*,#687,.T.);
#924=ORIENTED_EDGE('',*,*,#688,.F.);
#925=ORIENTED_EDGE('',*,*,#689,.F.);
#926=ORIENTED_EDGE('',*,*,#690,.F.);
#927=ORIENTED_EDGE('',*,*,#691,.F.);
#928=ORIENTED_EDGE('',*,*,#687,.F.);
#929=ORIENTED_EDGE('',*,*,#692,.T.);
#930=ORIENTED_EDGE('',*,*,#693,.T.);
#931=ORIENTED_EDGE('',*,*,#694,.T.);
#932=ORIENTED_EDGE('',*,*,#693,.F.);
#933=ORIENTED_EDGE('',*,*,#679,.F.);
#934=ORIENTED_EDGE('',*,*,#695,.T.);
#935=ORIENTED_EDGE('',*,*,#696,.F.);
#936=ORIENTED_EDGE('',*,*,#697,.F.);
#937=ORIENTED_EDGE('',*,*,#698,.T.);
#938=ORIENTED_EDGE('',*,*,#699,.T.);
#939=ORIENTED_EDGE('',*,*,#700,.T.);
#940=ORIENTED_EDGE('',*,*,#701,.T.);
#941=ORIENTED_EDGE('',*,*,#701,.F.);
#942=ORIENTED_EDGE('',*,*,#702,.T.);
#943=ORIENTED_EDGE('',*,*,#703,.F.);
#944=ORIENTED_EDGE('',*,*,#704,.F.);
#945=ORIENTED_EDGE('',*,*,#705,.F.);
#946=ORIENTED_EDGE('',*,*,#706,.F.);
#947=ORIENTED_EDGE('',*,*,#702,.F.);
#948=ORIENTED_EDGE('',*,*,#700,.F.);
#949=ORIENTED_EDGE('',*,*,#707,.T.);
#950=ORIENTED_EDGE('',*,*,#684,.T.);
#951=ORIENTED_EDGE('',*,*,#688,.T.);
#952=ORIENTED_EDGE('',*,*,#691,.T.);
#953=ORIENTED_EDGE('',*,*,#667,.T.);
#954=ORIENTED_EDGE('',*,*,#647,.F.);
#955=ORIENTED_EDGE('',*,*,#651,.T.);
#956=ORIENTED_EDGE('',*,*,#654,.F.);
#957=ORIENTED_EDGE('',*,*,#657,.T.);
#958=ORIENTED_EDGE('',*,*,#660,.F.);
#959=ORIENTED_EDGE('',*,*,#663,.T.);
#960=ORIENTED_EDGE('',*,*,#666,.F.);
#961=ORIENTED_EDGE('',*,*,#632,.T.);
#962=ORIENTED_EDGE('',*,*,#623,.F.);
#963=ORIENTED_EDGE('',*,*,#627,.T.);
#964=ORIENTED_EDGE('',*,*,#642,.F.);
#965=ORIENTED_EDGE('',*,*,#643,.T.);
#966=ORIENTED_EDGE('',*,*,#636,.F.);
#967=ORIENTED_EDGE('',*,*,#638,.T.);
#968=ORIENTED_EDGE('',*,*,#630,.F.);
#969=ORIENTED_EDGE('',*,*,#692,.F.);
#970=ORIENTED_EDGE('',*,*,#708,.T.);
#971=ORIENTED_EDGE('',*,*,#681,.T.);
#972=ORIENTED_EDGE('',*,*,#676,.F.);
#973=ORIENTED_EDGE('',*,*,#697,.T.);
#974=ORIENTED_EDGE('',*,*,#709,.F.);
#975=ORIENTED_EDGE('',*,*,#673,.F.);
#976=ORIENTED_EDGE('',*,*,#669,.F.);
#977=ORIENTED_EDGE('',*,*,#710,.T.);
#978=ORIENTED_EDGE('',*,*,#703,.T.);
#979=ORIENTED_EDGE('',*,*,#706,.T.);
#980=ORIENTED_EDGE('',*,*,#711,.T.);
#981=ORIENTED_EDGE('',*,*,#708,.F.);
#982=ORIENTED_EDGE('',*,*,#712,.T.);
#983=ORIENTED_EDGE('',*,*,#713,.F.);
#984=ORIENTED_EDGE('',*,*,#712,.F.);
#985=ORIENTED_EDGE('',*,*,#711,.F.);
#986=ORIENTED_EDGE('',*,*,#705,.T.);
#987=ORIENTED_EDGE('',*,*,#690,.T.);
#988=ORIENTED_EDGE('',*,*,#714,.F.);
#989=ORIENTED_EDGE('',*,*,#699,.F.);
#990=ORIENTED_EDGE('',*,*,#715,.T.);
#991=ORIENTED_EDGE('',*,*,#685,.T.);
#992=ORIENTED_EDGE('',*,*,#707,.F.);
#993=ORIENTED_EDGE('',*,*,#709,.T.);
#994=ORIENTED_EDGE('',*,*,#696,.T.);
#995=ORIENTED_EDGE('',*,*,#716,.F.);
#996=ORIENTED_EDGE('',*,*,#674,.F.);
#997=ORIENTED_EDGE('',*,*,#714,.T.);
#998=ORIENTED_EDGE('',*,*,#689,.T.);
#999=ORIENTED_EDGE('',*,*,#686,.F.);
#1000=ORIENTED_EDGE('',*,*,#682,.T.);
#1001=ORIENTED_EDGE('',*,*,#715,.F.);
#1002=ORIENTED_EDGE('',*,*,#698,.F.);
#1003=ORIENTED_EDGE('',*,*,#704,.T.);
#1004=ORIENTED_EDGE('',*,*,#710,.F.);
#1005=ORIENTED_EDGE('',*,*,#668,.T.);
#1006=ORIENTED_EDGE('',*,*,#664,.F.);
#1007=ORIENTED_EDGE('',*,*,#661,.T.);
#1008=ORIENTED_EDGE('',*,*,#658,.F.);
#1009=ORIENTED_EDGE('',*,*,#655,.T.);
#1010=ORIENTED_EDGE('',*,*,#652,.F.);
#1011=ORIENTED_EDGE('',*,*,#649,.T.);
#1012=ORIENTED_EDGE('',*,*,#645,.F.);
#1013=ORIENTED_EDGE('',*,*,#633,.T.);
#1014=ORIENTED_EDGE('',*,*,#628,.F.);
#1015=ORIENTED_EDGE('',*,*,#639,.T.);
#1016=ORIENTED_EDGE('',*,*,#634,.F.);
#1017=ORIENTED_EDGE('',*,*,#644,.T.);
#1018=ORIENTED_EDGE('',*,*,#640,.F.);
#1019=ORIENTED_EDGE('',*,*,#625,.T.);
#1020=ORIENTED_EDGE('',*,*,#621,.F.);
#1021=ORIENTED_EDGE('',*,*,#675,.T.);
#1022=ORIENTED_EDGE('',*,*,#716,.T.);
#1023=ORIENTED_EDGE('',*,*,#695,.F.);
#1024=ORIENTED_EDGE('',*,*,#678,.F.);
#1025=ORIENTED_EDGE('',*,*,#680,.F.);
#1026=ORIENTED_EDGE('',*,*,#671,.F.);
#1027=ORIENTED_EDGE('',*,*,#694,.F.);
#1028=ORIENTED_EDGE('',*,*,#713,.T.);
#1029=CYLINDRICAL_SURFACE('',#1139,0.05);
#1030=CYLINDRICAL_SURFACE('',#1143,0.05);
#1031=CYLINDRICAL_SURFACE('',#1146,0.0625);
#1032=CYLINDRICAL_SURFACE('',#1149,0.05);
#1033=CYLINDRICAL_SURFACE('',#1156,0.05);
#1034=CYLINDRICAL_SURFACE('',#1158,0.0625);
#1035=CYLINDRICAL_SURFACE('',#1163,0.05);
#1036=CYLINDRICAL_SURFACE('',#1167,0.05);
#1037=CYLINDRICAL_SURFACE('',#1170,0.0625);
#1038=CYLINDRICAL_SURFACE('',#1173,0.05);
#1039=CYLINDRICAL_SURFACE('',#1180,0.05);
#1040=CYLINDRICAL_SURFACE('',#1182,0.0625);
#1041=CYLINDRICAL_SURFACE('',#1187,0.03);
#1042=CYLINDRICAL_SURFACE('',#1191,0.03);
#1043=CYLINDRICAL_SURFACE('',#1195,0.03);
#1044=CYLINDRICAL_SURFACE('',#1199,0.03);
#1045=CYLINDRICAL_SURFACE('',#1203,0.03);
#1046=CYLINDRICAL_SURFACE('',#1207,0.03);
#1047=CYLINDRICAL_SURFACE('',#1211,0.03);
#1048=CYLINDRICAL_SURFACE('',#1215,0.03);
#1049=CYLINDRICAL_SURFACE('',#1219,0.03);
#1050=CYLINDRICAL_SURFACE('',#1223,0.03);
#1051=CYLINDRICAL_SURFACE('',#1227,0.05);
#1052=CYLINDRICAL_SURFACE('',#1231,0.05);
#1053=CYLINDRICAL_SURFACE('',#1234,0.0625);
#1054=CYLINDRICAL_SURFACE('',#1238,0.05);
#1055=CYLINDRICAL_SURFACE('',#1245,0.05);
#1056=CYLINDRICAL_SURFACE('',#1247,0.0625);
#1057=ADVANCED_FACE('',(#67),#1029,.T.);
#1058=ADVANCED_FACE('',(#68),#37,.F.);
#1059=ADVANCED_FACE('',(#69),#1030,.T.);
#1060=ADVANCED_FACE('',(#70),#1031,.F.);
#1061=ADVANCED_FACE('',(#71),#1032,.T.);
#1062=ADVANCED_FACE('',(#72),#38,.T.);
#1063=ADVANCED_FACE('',(#73,#19,#20),#39,.T.);
#1064=ADVANCED_FACE('',(#74),#1033,.T.);
#1065=ADVANCED_FACE('',(#75),#1034,.F.);
#1066=ADVANCED_FACE('',(#76),#40,.T.);
#1067=ADVANCED_FACE('',(#77),#41,.T.);
#1068=ADVANCED_FACE('',(#78,#21,#22),#42,.F.);
#1069=ADVANCED_FACE('',(#79),#1035,.T.);
#1070=ADVANCED_FACE('',(#80),#43,.F.);
#1071=ADVANCED_FACE('',(#81),#1036,.T.);
#1072=ADVANCED_FACE('',(#82),#1037,.F.);
#1073=ADVANCED_FACE('',(#83),#1038,.T.);
#1074=ADVANCED_FACE('',(#84),#44,.T.);
#1075=ADVANCED_FACE('',(#85,#23,#24),#45,.F.);
#1076=ADVANCED_FACE('',(#86),#1039,.T.);
#1077=ADVANCED_FACE('',(#87),#1040,.F.);
#1078=ADVANCED_FACE('',(#88),#46,.T.);
#1079=ADVANCED_FACE('',(#89),#47,.T.);
#1080=ADVANCED_FACE('',(#90,#25,#26),#48,.T.);
#1081=ADVANCED_FACE('',(#91),#1041,.F.);
#1082=ADVANCED_FACE('',(#92),#49,.F.);
#1083=ADVANCED_FACE('',(#93),#1042,.F.);
#1084=ADVANCED_FACE('',(#94),#50,.F.);
#1085=ADVANCED_FACE('',(#95),#1043,.F.);
#1086=ADVANCED_FACE('',(#96),#51,.F.);
#1087=ADVANCED_FACE('',(#97),#1044,.F.);
#1088=ADVANCED_FACE('',(#98),#52,.F.);
#1089=ADVANCED_FACE('',(#99),#1045,.F.);
#1090=ADVANCED_FACE('',(#100),#53,.F.);
#1091=ADVANCED_FACE('',(#101),#1046,.F.);
#1092=ADVANCED_FACE('',(#102),#54,.F.);
#1093=ADVANCED_FACE('',(#103),#1047,.F.);
#1094=ADVANCED_FACE('',(#104),#55,.F.);
#1095=ADVANCED_FACE('',(#105),#1048,.F.);
#1096=ADVANCED_FACE('',(#106),#56,.F.);
#1097=ADVANCED_FACE('',(#107),#1049,.F.);
#1098=ADVANCED_FACE('',(#108),#57,.T.);
#1099=ADVANCED_FACE('',(#109),#1050,.F.);
#1100=ADVANCED_FACE('',(#110),#58,.T.);
#1101=ADVANCED_FACE('',(#111),#1051,.T.);
#1102=ADVANCED_FACE('',(#112),#59,.F.);
#1103=ADVANCED_FACE('',(#113),#1052,.T.);
#1104=ADVANCED_FACE('',(#114),#1053,.F.);
#1105=ADVANCED_FACE('',(#115),#60,.F.);
#1106=ADVANCED_FACE('',(#116),#1054,.T.);
#1107=ADVANCED_FACE('',(#117),#61,.T.);
#1108=ADVANCED_FACE('',(#118,#27,#28,#29,#30,#31),#62,.F.);
#1109=ADVANCED_FACE('',(#119),#1055,.T.);
#1110=ADVANCED_FACE('',(#120),#1056,.F.);
#1111=ADVANCED_FACE('',(#121),#63,.T.);
#1112=ADVANCED_FACE('',(#122),#64,.T.);
#1113=ADVANCED_FACE('',(#123),#65,.T.);
#1114=ADVANCED_FACE('',(#124,#32,#33,#34,#35,#36),#66,.T.);
#1115=CLOSED_SHELL('',(#1057,#1058,#1059,#1060,#1061,#1062,#1063,#1064,
#1065,#1066,#1067,#1068));
#1116=CLOSED_SHELL('',(#1069,#1070,#1071,#1072,#1073,#1074,#1075,#1076,
#1077,#1078,#1079,#1080));
#1117=CLOSED_SHELL('',(#1081,#1082,#1083,#1084,#1085,#1086,#1087,#1088,
#1089,#1090,#1091,#1092,#1093,#1094,#1095,#1096,#1097,#1098,#1099,#1100,
#1101,#1102,#1103,#1104,#1105,#1106,#1107,#1108,#1109,#1110,#1111,#1112,
#1113,#1114));
#1118=DERIVED_UNIT_ELEMENT(#1120,1.);
#1119=DERIVED_UNIT_ELEMENT(#1910,-3.);
#1120=(
CONVERSION_BASED_UNIT('gram',#1122)
MASS_UNIT()
NAMED_UNIT(#1907)
);
#1121=(
MASS_UNIT()
NAMED_UNIT(*)
SI_UNIT(.KILO.,.GRAM.)
);
#1122=MASS_MEASURE_WITH_UNIT(MASS_MEASURE(0.001),#1121);
#1123=DERIVED_UNIT((#1118,#1119));
#1124=MEASURE_REPRESENTATION_ITEM('density measure',
POSITIVE_RATIO_MEASURE(1.),#1123);
#1125=PROPERTY_DEFINITION_REPRESENTATION(#1130,#1127);
#1126=PROPERTY_DEFINITION_REPRESENTATION(#1131,#1128);
#1127=REPRESENTATION('material name',(#1129),#1904);
#1128=REPRESENTATION('density',(#1124),#1904);
#1129=DESCRIPTIVE_REPRESENTATION_ITEM('Generic','Generic');
#1130=PROPERTY_DEFINITION('material property','material name',#1918);
#1131=PROPERTY_DEFINITION('material property','density of part',#1918);
#1132=DATE_TIME_ROLE('creation_date');
#1133=APPLIED_DATE_AND_TIME_ASSIGNMENT(#1134,#1132,(#1918));
#1134=DATE_AND_TIME(#1135,#1136);
#1135=CALENDAR_DATE(2025,19,4);
#1136=LOCAL_TIME(0,0,0.,#1137);
#1137=COORDINATED_UNIVERSAL_TIME_OFFSET(0,0,.BEHIND.);
#1138=AXIS2_PLACEMENT_3D('',#1583,#1253,#1254);
#1139=AXIS2_PLACEMENT_3D('',#1584,#1255,#1256);
#1140=AXIS2_PLACEMENT_3D('',#1587,#1257,#1258);
#1141=AXIS2_PLACEMENT_3D('',#1591,#1260,#1261);
#1142=AXIS2_PLACEMENT_3D('',#1593,#1263,#1264);
#1143=AXIS2_PLACEMENT_3D('',#1599,#1268,#1269);
#1144=AXIS2_PLACEMENT_3D('',#1601,#1270,#1271);
#1145=AXIS2_PLACEMENT_3D('',#1603,#1272,#1273);
#1146=AXIS2_PLACEMENT_3D('',#1605,#1275,#1276);
#1147=AXIS2_PLACEMENT_3D('',#1607,#1277,#1278);
#1148=AXIS2_PLACEMENT_3D('',#1610,#1280,#1281);
#1149=AXIS2_PLACEMENT_3D('',#1611,#1282,#1283);
#1150=AXIS2_PLACEMENT_3D('',#1614,#1284,#1285);
#1151=AXIS2_PLACEMENT_3D('',#1618,#1287,#1288);
#1152=AXIS2_PLACEMENT_3D('',#1620,#1290,#1291);
#1153=AXIS2_PLACEMENT_3D('',#1626,#1295,#1296);
#1154=AXIS2_PLACEMENT_3D('',#1630,#1299,#1300);
#1155=AXIS2_PLACEMENT_3D('',#1632,#1301,#1302);
#1156=AXIS2_PLACEMENT_3D('',#1633,#1303,#1304);
#1157=AXIS2_PLACEMENT_3D('',#1636,#1306,#1307);
#1158=AXIS2_PLACEMENT_3D('',#1637,#1308,#1309);
#1159=AXIS2_PLACEMENT_3D('',#1639,#1310,#1311);
#1160=AXIS2_PLACEMENT_3D('',#1641,#1313,#1314);
#1161=AXIS2_PLACEMENT_3D('',#1643,#1316,#1317);
#1162=AXIS2_PLACEMENT_3D('',#1645,#1319,#1320);
#1163=AXIS2_PLACEMENT_3D('',#1646,#1321,#1322);
#1164=AXIS2_PLACEMENT_3D('',#1649,#1323,#1324);
#1165=AXIS2_PLACEMENT_3D('',#1653,#1326,#1327);
#1166=AXIS2_PLACEMENT_3D('',#1655,#1329,#1330);
#1167=AXIS2_PLACEMENT_3D('',#1661,#1334,#1335);
#1168=AXIS2_PLACEMENT_3D('',#1663,#1336,#1337);
#1169=AXIS2_PLACEMENT_3D('',#1666,#1339,#1340);
#1170=AXIS2_PLACEMENT_3D('',#1667,#1341,#1342);
#1171=AXIS2_PLACEMENT_3D('',#1669,#1343,#1344);
#1172=AXIS2_PLACEMENT_3D('',#1672,#1346,#1347);
#1173=AXIS2_PLACEMENT_3D('',#1673,#1348,#1349);
#1174=AXIS2_PLACEMENT_3D('',#1676,#1350,#1351);
#1175=AXIS2_PLACEMENT_3D('',#1680,#1353,#1354);
#1176=AXIS2_PLACEMENT_3D('',#1682,#1356,#1357);
#1177=AXIS2_PLACEMENT_3D('',#1688,#1361,#1362);
#1178=AXIS2_PLACEMENT_3D('',#1692,#1365,#1366);
#1179=AXIS2_PLACEMENT_3D('',#1694,#1367,#1368);
#1180=AXIS2_PLACEMENT_3D('',#1695,#1369,#1370);
#1181=AXIS2_PLACEMENT_3D('',#1697,#1371,#1372);
#1182=AXIS2_PLACEMENT_3D('',#1699,#1374,#1375);
#1183=AXIS2_PLACEMENT_3D('',#1702,#1377,#1378);
#1184=AXIS2_PLACEMENT_3D('',#1703,#1379,#1380);
#1185=AXIS2_PLACEMENT_3D('',#1705,#1382,#1383);
#1186=AXIS2_PLACEMENT_3D('',#1707,#1385,#1386);
#1187=AXIS2_PLACEMENT_3D('',#1708,#1387,#1388);
#1188=AXIS2_PLACEMENT_3D('',#1711,#1389,#1390);
#1189=AXIS2_PLACEMENT_3D('',#1715,#1392,#1393);
#1190=AXIS2_PLACEMENT_3D('',#1717,#1395,#1396);
#1191=AXIS2_PLACEMENT_3D('',#1723,#1400,#1401);
#1192=AXIS2_PLACEMENT_3D('',#1726,#1402,#1403);
#1193=AXIS2_PLACEMENT_3D('',#1730,#1405,#1406);
#1194=AXIS2_PLACEMENT_3D('',#1732,#1408,#1409);
#1195=AXIS2_PLACEMENT_3D('',#1735,#1412,#1413);
#1196=AXIS2_PLACEMENT_3D('',#1738,#1414,#1415);
#1197=AXIS2_PLACEMENT_3D('',#1742,#1417,#1418);
#1198=AXIS2_PLACEMENT_3D('',#1744,#1420,#1421);
#1199=AXIS2_PLACEMENT_3D('',#1747,#1424,#1425);
#1200=AXIS2_PLACEMENT_3D('',#1749,#1426,#1427);
#1201=AXIS2_PLACEMENT_3D('',#1752,#1429,#1430);
#1202=AXIS2_PLACEMENT_3D('',#1753,#1431,#1432);
#1203=AXIS2_PLACEMENT_3D('',#1756,#1435,#1436);
#1204=AXIS2_PLACEMENT_3D('',#1759,#1437,#1438);
#1205=AXIS2_PLACEMENT_3D('',#1763,#1440,#1441);
#1206=AXIS2_PLACEMENT_3D('',#1765,#1443,#1444);
#1207=AXIS2_PLACEMENT_3D('',#1771,#1448,#1449);
#1208=AXIS2_PLACEMENT_3D('',#1773,#1450,#1451);
#1209=AXIS2_PLACEMENT_3D('',#1776,#1453,#1454);
#1210=AXIS2_PLACEMENT_3D('',#1777,#1455,#1456);
#1211=AXIS2_PLACEMENT_3D('',#1783,#1460,#1461);
#1212=AXIS2_PLACEMENT_3D('',#1785,#1462,#1463);
#1213=AXIS2_PLACEMENT_3D('',#1788,#1465,#1466);
#1214=AXIS2_PLACEMENT_3D('',#1789,#1467,#1468);
#1215=AXIS2_PLACEMENT_3D('',#1795,#1472,#1473);
#1216=AXIS2_PLACEMENT_3D('',#1797,#1474,#1475);
#1217=AXIS2_PLACEMENT_3D('',#1800,#1477,#1478);
#1218=AXIS2_PLACEMENT_3D('',#1801,#1479,#1480);
#1219=AXIS2_PLACEMENT_3D('',#1804,#1483,#1484);
#1220=AXIS2_PLACEMENT_3D('',#1807,#1485,#1486);
#1221=AXIS2_PLACEMENT_3D('',#1811,#1488,#1489);
#1222=AXIS2_PLACEMENT_3D('',#1813,#1491,#1492);
#1223=AXIS2_PLACEMENT_3D('',#1819,#1496,#1497);
#1224=AXIS2_PLACEMENT_3D('',#1822,#1498,#1499);
#1225=AXIS2_PLACEMENT_3D('',#1826,#1501,#1502);
#1226=AXIS2_PLACEMENT_3D('',#1828,#1504,#1505);
#1227=AXIS2_PLACEMENT_3D('',#1831,#1508,#1509);
#1228=AXIS2_PLACEMENT_3D('',#1834,#1510,#1511);
#1229=AXIS2_PLACEMENT_3D('',#1838,#1513,#1514);
#1230=AXIS2_PLACEMENT_3D('',#1840,#1516,#1517);
#1231=AXIS2_PLACEMENT_3D('',#1846,#1521,#1522);
#1232=AXIS2_PLACEMENT_3D('',#1848,#1523,#1524);
#1233=AXIS2_PLACEMENT_3D('',#1851,#1526,#1527);
#1234=AXIS2_PLACEMENT_3D('',#1852,#1528,#1529);
#1235=AXIS2_PLACEMENT_3D('',#1854,#1530,#1531);
#1236=AXIS2_PLACEMENT_3D('',#1857,#1533,#1534);
#1237=AXIS2_PLACEMENT_3D('',#1858,#1535,#1536);
#1238=AXIS2_PLACEMENT_3D('',#1864,#1540,#1541);
#1239=AXIS2_PLACEMENT_3D('',#1867,#1542,#1543);
#1240=AXIS2_PLACEMENT_3D('',#1871,#1545,#1546);
#1241=AXIS2_PLACEMENT_3D('',#1873,#1548,#1549);
#1242=AXIS2_PLACEMENT_3D('',#1879,#1553,#1554);
#1243=AXIS2_PLACEMENT_3D('',#1882,#1556,#1557);
#1244=AXIS2_PLACEMENT_3D('',#1885,#1559,#1560);
#1245=AXIS2_PLACEMENT_3D('',#1887,#1562,#1563);
#1246=AXIS2_PLACEMENT_3D('',#1889,#1564,#1565);
#1247=AXIS2_PLACEMENT_3D('',#1891,#1567,#1568);
#1248=AXIS2_PLACEMENT_3D('',#1894,#1570,#1571);
#1249=AXIS2_PLACEMENT_3D('',#1895,#1572,#1573);
#1250=AXIS2_PLACEMENT_3D('',#1897,#1575,#1576);
#1251=AXIS2_PLACEMENT_3D('',#1899,#1578,#1579);
#1252=AXIS2_PLACEMENT_3D('',#1901,#1581,#1582);
#1253=DIRECTION('axis',(0.,0.,1.));
#1254=DIRECTION('refdir',(1.,0.,0.));
#1255=DIRECTION('center_axis',(0.,0.,1.));
#1256=DIRECTION('ref_axis',(0.707106781186567,0.707106781186528,0.));
#1257=DIRECTION('center_axis',(0.,0.,-1.));
#1258=DIRECTION('ref_axis',(0.707106781186567,0.707106781186528,0.));
#1259=DIRECTION('',(0.,0.,-1.));
#1260=DIRECTION('center_axis',(0.,0.,1.));
#1261=DIRECTION('ref_axis',(0.707106781186567,0.707106781186528,0.));
#1262=DIRECTION('',(0.,0.,1.));
#1263=DIRECTION('center_axis',(-1.,0.,0.));
#1264=DIRECTION('ref_axis',(0.,1.,0.));
#1265=DIRECTION('',(0.,1.,0.));
#1266=DIRECTION('',(0.,0.,-1.));
#1267=DIRECTION('',(0.,1.,0.));
#1268=DIRECTION('center_axis',(0.,0.,1.));
#1269=DIRECTION('ref_axis',(0.707106781186538,-0.707106781186557,0.));
#1270=DIRECTION('center_axis',(0.,0.,-1.));
#1271=DIRECTION('ref_axis',(0.707106781186538,-0.707106781186557,0.));
#1272=DIRECTION('center_axis',(0.,0.,1.));
#1273=DIRECTION('ref_axis',(0.707106781186538,-0.707106781186557,0.));
#1274=DIRECTION('',(0.,0.,1.));
#1275=DIRECTION('center_axis',(0.,0.,1.));
#1276=DIRECTION('ref_axis',(1.,0.,0.));
#1277=DIRECTION('center_axis',(0.,0.,1.));
#1278=DIRECTION('ref_axis',(1.,0.,0.));
#1279=DIRECTION('',(0.,0.,-1.));
#1280=DIRECTION('center_axis',(0.,0.,-1.));
#1281=DIRECTION('ref_axis',(1.,0.,0.));
#1282=DIRECTION('center_axis',(0.,0.,-1.));
#1283=DIRECTION('ref_axis',(-0.707106781186567,0.707106781186528,0.));
#1284=DIRECTION('center_axis',(0.,0.,1.));
#1285=DIRECTION('ref_axis',(-0.707106781186567,0.707106781186528,0.));
#1286=DIRECTION('',(0.,0.,1.));
#1287=DIRECTION('center_axis',(0.,0.,-1.));
#1288=DIRECTION('ref_axis',(-0.707106781186567,0.707106781186528,0.));
#1289=DIRECTION('',(0.,0.,-1.));
#1290=DIRECTION('center_axis',(-1.,0.,0.));
#1291=DIRECTION('ref_axis',(0.,1.,0.));
#1292=DIRECTION('',(0.,1.,0.));
#1293=DIRECTION('',(0.,0.,-1.));
#1294=DIRECTION('',(0.,1.,0.));
#1295=DIRECTION('center_axis',(0.,0.,-1.));
#1296=DIRECTION('ref_axis',(-1.,0.,0.));
#1297=DIRECTION('',(1.,-1.84729288623154E-16,0.));
#1298=DIRECTION('',(1.,2.54002771856837E-16,0.));
#1299=DIRECTION('center_axis',(0.,0.,1.));
#1300=DIRECTION('ref_axis',(-0.707106781186538,-0.707106781186557,0.));
#1301=DIRECTION('center_axis',(0.,0.,1.));
#1302=DIRECTION('ref_axis',(-1.,0.,0.));
#1303=DIRECTION('center_axis',(0.,0.,-1.));
#1304=DIRECTION('ref_axis',(-0.707106781186538,-0.707106781186557,0.));
#1305=DIRECTION('',(0.,0.,1.));
#1306=DIRECTION('center_axis',(0.,0.,-1.));
#1307=DIRECTION('ref_axis',(-0.707106781186538,-0.707106781186557,0.));
#1308=DIRECTION('center_axis',(0.,0.,-1.));
#1309=DIRECTION('ref_axis',(-1.,0.,0.));
#1310=DIRECTION('center_axis',(0.,0.,-1.));
#1311=DIRECTION('ref_axis',(-1.,0.,0.));
#1312=DIRECTION('',(0.,0.,-1.));
#1313=DIRECTION('center_axis',(-2.54002771856837E-16,-1.,0.));
#1314=DIRECTION('ref_axis',(-1.,2.54002771856837E-16,0.));
#1315=DIRECTION('',(1.,2.54002771856837E-16,0.));
#1316=DIRECTION('center_axis',(1.84729288623154E-16,1.,0.));
#1317=DIRECTION('ref_axis',(1.,-1.84729288623154E-16,0.));
#1318=DIRECTION('',(1.,-1.84729288623154E-16,0.));
#1319=DIRECTION('center_axis',(0.,0.,-1.));
#1320=DIRECTION('ref_axis',(-1.,0.,0.));
#1321=DIRECTION('center_axis',(0.,0.,1.));
#1322=DIRECTION('ref_axis',(0.707106781186557,-0.707106781186538,0.));
#1323=DIRECTION('center_axis',(0.,0.,-1.));
#1324=DIRECTION('ref_axis',(0.707106781186557,-0.707106781186538,0.));
#1325=DIRECTION('',(0.,0.,-1.));
#1326=DIRECTION('center_axis',(0.,0.,1.));
#1327=DIRECTION('ref_axis',(0.707106781186557,-0.707106781186538,0.));
#1328=DIRECTION('',(0.,0.,1.));
#1329=DIRECTION('center_axis',(-1.,0.,0.));
#1330=DIRECTION('ref_axis',(0.,1.,0.));
#1331=DIRECTION('',(0.,1.,0.));
#1332=DIRECTION('',(0.,0.,1.));
#1333=DIRECTION('',(0.,1.,0.));
#1334=DIRECTION('center_axis',(0.,0.,1.));
#1335=DIRECTION('ref_axis',(0.707106781186548,0.707106781186548,0.));
#1336=DIRECTION('center_axis',(0.,0.,-1.));
#1337=DIRECTION('ref_axis',(0.707106781186548,0.707106781186548,0.));
#1338=DIRECTION('',(0.,0.,-1.));
#1339=DIRECTION('center_axis',(0.,0.,1.));
#1340=DIRECTION('ref_axis',(0.707106781186548,0.707106781186548,0.));
#1341=DIRECTION('center_axis',(0.,0.,1.));
#1342=DIRECTION('ref_axis',(1.,0.,0.));
#1343=DIRECTION('center_axis',(0.,0.,1.));
#1344=DIRECTION('ref_axis',(1.,0.,0.));
#1345=DIRECTION('',(0.,0.,-1.));
#1346=DIRECTION('center_axis',(0.,0.,-1.));
#1347=DIRECTION('ref_axis',(1.,0.,0.));
#1348=DIRECTION('center_axis',(0.,0.,-1.));
#1349=DIRECTION('ref_axis',(-0.707106781186557,-0.707106781186538,0.));
#1350=DIRECTION('center_axis',(0.,0.,1.));
#1351=DIRECTION('ref_axis',(-0.707106781186557,-0.707106781186538,0.));
#1352=DIRECTION('',(0.,0.,1.));
#1353=DIRECTION('center_axis',(0.,0.,-1.));
#1354=DIRECTION('ref_axis',(-0.707106781186557,-0.707106781186538,0.));
#1355=DIRECTION('',(0.,0.,-1.));
#1356=DIRECTION('center_axis',(-1.,0.,0.));
#1357=DIRECTION('ref_axis',(0.,1.,0.));
#1358=DIRECTION('',(0.,1.,0.));
#1359=DIRECTION('',(0.,0.,1.));
#1360=DIRECTION('',(0.,1.,0.));
#1361=DIRECTION('center_axis',(0.,0.,-1.));
#1362=DIRECTION('ref_axis',(-1.,0.,0.));
#1363=DIRECTION('',(1.,-1.84729288623154E-16,0.));
#1364=DIRECTION('',(1.,0.,0.));
#1365=DIRECTION('center_axis',(0.,0.,-1.));
#1366=DIRECTION('ref_axis',(-0.707106781186548,0.707106781186548,0.));
#1367=DIRECTION('center_axis',(0.,0.,-1.));
#1368=DIRECTION('ref_axis',(-1.,0.,0.));
#1369=DIRECTION('center_axis',(0.,0.,-1.));
#1370=DIRECTION('ref_axis',(-0.707106781186548,0.707106781186548,0.));
#1371=DIRECTION('center_axis',(0.,0.,1.));
#1372=DIRECTION('ref_axis',(-0.707106781186548,0.707106781186548,0.));
#1373=DIRECTION('',(0.,0.,-1.));
#1374=DIRECTION('center_axis',(0.,0.,-1.));
#1375=DIRECTION('ref_axis',(-1.,0.,0.));
#1376=DIRECTION('',(0.,0.,-1.));
#1377=DIRECTION('center_axis',(0.,0.,1.));
#1378=DIRECTION('ref_axis',(-1.,0.,0.));
#1379=DIRECTION('center_axis',(1.84729288623154E-16,-1.,0.));
#1380=DIRECTION('ref_axis',(-1.,-1.84729288623154E-16,0.));
#1381=DIRECTION('',(1.,-1.84729288623154E-16,0.));
#1382=DIRECTION('center_axis',(0.,1.,0.));
#1383=DIRECTION('ref_axis',(1.,0.,0.));
#1384=DIRECTION('',(1.,0.,0.));
#1385=DIRECTION('center_axis',(0.,0.,-1.));
#1386=DIRECTION('ref_axis',(-1.,0.,0.));
#1387=DIRECTION('center_axis',(0.,0.,1.));
#1388=DIRECTION('ref_axis',(-0.707106781186548,-0.707106781186548,0.));
#1389=DIRECTION('center_axis',(0.,0.,-1.));
#1390=DIRECTION('ref_axis',(-0.707106781186548,-0.707106781186548,0.));
#1391=DIRECTION('',(0.,0.,1.));
#1392=DIRECTION('center_axis',(0.,0.,1.));
#1393=DIRECTION('ref_axis',(-0.707106781186548,-0.707106781186548,0.));
#1394=DIRECTION('',(0.,0.,-1.));
#1395=DIRECTION('center_axis',(-1.,0.,0.));
#1396=DIRECTION('ref_axis',(0.,-1.,0.));
#1397=DIRECTION('',(0.,-1.,0.));
#1398=DIRECTION('',(0.,0.,-1.));
#1399=DIRECTION('',(0.,1.,0.));
#1400=DIRECTION('center_axis',(0.,0.,1.));
#1401=DIRECTION('ref_axis',(0.707106781186548,-0.707106781186548,0.));
#1402=DIRECTION('center_axis',(0.,0.,-1.));
#1403=DIRECTION('ref_axis',(0.707106781186548,-0.707106781186548,0.));
#1404=DIRECTION('',(0.,0.,1.));
#1405=DIRECTION('center_axis',(0.,0.,1.));
#1406=DIRECTION('ref_axis',(0.707106781186548,-0.707106781186548,0.));
#1407=DIRECTION('',(0.,0.,-1.));
#1408=DIRECTION('center_axis',(0.,-1.,0.));
#1409=DIRECTION('ref_axis',(1.,0.,0.));
#1410=DIRECTION('',(-1.,0.,0.));
#1411=DIRECTION('',(1.,0.,0.));
#1412=DIRECTION('center_axis',(0.,0.,1.));
#1413=DIRECTION('ref_axis',(0.707106781186548,0.707106781186548,0.));
#1414=DIRECTION('center_axis',(0.,0.,-1.));
#1415=DIRECTION('ref_axis',(0.707106781186548,0.707106781186548,0.));
#1416=DIRECTION('',(0.,0.,1.));
#1417=DIRECTION('center_axis',(0.,0.,1.));
#1418=DIRECTION('ref_axis',(0.707106781186548,0.707106781186548,0.));
#1419=DIRECTION('',(0.,0.,-1.));
#1420=DIRECTION('center_axis',(1.,1.3987061727561E-15,0.));
#1421=DIRECTION('ref_axis',(-1.3987061727561E-15,1.,0.));
#1422=DIRECTION('',(1.3987061727561E-15,-1.,0.));
#1423=DIRECTION('',(-1.3987061727561E-15,1.,0.));
#1424=DIRECTION('center_axis',(0.,0.,1.));
#1425=DIRECTION('ref_axis',(-0.707106781186548,0.707106781186548,0.));
#1426=DIRECTION('center_axis',(0.,0.,-1.));
#1427=DIRECTION('ref_axis',(-0.707106781186548,0.707106781186548,0.));
#1428=DIRECTION('',(0.,0.,1.));
#1429=DIRECTION('center_axis',(0.,0.,1.));
#1430=DIRECTION('ref_axis',(-0.707106781186548,0.707106781186548,0.));
#1431=DIRECTION('center_axis',(0.,1.,0.));
#1432=DIRECTION('ref_axis',(-1.,0.,0.));
#1433=DIRECTION('',(1.,0.,0.));
#1434=DIRECTION('',(-1.,0.,0.));
#1435=DIRECTION('center_axis',(0.,0.,1.));
#1436=DIRECTION('ref_axis',(0.707106781186548,-0.707106781186548,0.));
#1437=DIRECTION('center_axis',(0.,0.,-1.));
#1438=DIRECTION('ref_axis',(0.707106781186548,-0.707106781186548,0.));
#1439=DIRECTION('',(0.,0.,1.));
#1440=DIRECTION('center_axis',(0.,0.,1.));
#1441=DIRECTION('ref_axis',(0.707106781186548,-0.707106781186548,0.));
#1442=DIRECTION('',(0.,0.,-1.));
#1443=DIRECTION('center_axis',(0.,-1.,0.));
#1444=DIRECTION('ref_axis',(1.,0.,0.));
#1445=DIRECTION('',(1.,0.,0.));
#1446=DIRECTION('',(0.,0.,-1.));
#1447=DIRECTION('',(-1.,0.,0.));
#1448=DIRECTION('center_axis',(0.,0.,1.));
#1449=DIRECTION('ref_axis',(-0.707106781186548,-0.707106781186548,0.));
#1450=DIRECTION('center_axis',(0.,0.,-1.));
#1451=DIRECTION('ref_axis',(-0.707106781186548,-0.707106781186548,0.));
#1452=DIRECTION('',(0.,0.,1.));
#1453=DIRECTION('center_axis',(0.,0.,1.));
#1454=DIRECTION('ref_axis',(-0.707106781186548,-0.707106781186548,0.));
#1455=DIRECTION('center_axis',(-1.,1.3987061727561E-15,0.));
#1456=DIRECTION('ref_axis',(-1.3987061727561E-15,-1.,0.));
#1457=DIRECTION('',(-1.3987061727561E-15,-1.,0.));
#1458=DIRECTION('',(0.,0.,-1.));
#1459=DIRECTION('',(1.3987061727561E-15,1.,0.));
#1460=DIRECTION('center_axis',(0.,0.,1.));
#1461=DIRECTION('ref_axis',(-0.707106781186548,0.707106781186548,0.));
#1462=DIRECTION('center_axis',(0.,0.,-1.));
#1463=DIRECTION('ref_axis',(-0.707106781186548,0.707106781186548,0.));
#1464=DIRECTION('',(0.,0.,1.));
#1465=DIRECTION('center_axis',(0.,0.,1.));
#1466=DIRECTION('ref_axis',(-0.707106781186548,0.707106781186548,0.));
#1467=DIRECTION('center_axis',(0.,1.,0.));
#1468=DIRECTION('ref_axis',(-1.,0.,0.));
#1469=DIRECTION('',(-1.,0.,0.));
#1470=DIRECTION('',(0.,0.,-1.));
#1471=DIRECTION('',(1.,0.,0.));
#1472=DIRECTION('center_axis',(0.,0.,1.));
#1473=DIRECTION('ref_axis',(0.707106781186548,0.707106781186548,0.));
#1474=DIRECTION('center_axis',(0.,0.,-1.));
#1475=DIRECTION('ref_axis',(0.707106781186548,0.707106781186548,0.));
#1476=DIRECTION('',(0.,0.,1.));
#1477=DIRECTION('center_axis',(0.,0.,1.));
#1478=DIRECTION('ref_axis',(0.707106781186548,0.707106781186548,0.));
#1479=DIRECTION('center_axis',(1.,0.,0.));
#1480=DIRECTION('ref_axis',(0.,1.,0.));
#1481=DIRECTION('',(0.,-1.,0.));
#1482=DIRECTION('',(0.,1.,0.));
#1483=DIRECTION('center_axis',(0.,0.,-1.));
#1484=DIRECTION('ref_axis',(-0.707106781186548,0.707106781186548,0.));
#1485=DIRECTION('center_axis',(0.,0.,1.));
#1486=DIRECTION('ref_axis',(-0.707106781186548,0.707106781186548,0.));
#1487=DIRECTION('',(0.,0.,-1.));
#1488=DIRECTION('center_axis',(0.,0.,-1.));
#1489=DIRECTION('ref_axis',(-0.707106781186548,0.707106781186548,0.));
#1490=DIRECTION('',(0.,0.,1.));
#1491=DIRECTION('center_axis',(1.,-1.71410070190696E-16,0.));
#1492=DIRECTION('ref_axis',(-1.71410070190696E-16,-1.,0.));
#1493=DIRECTION('',(-1.71410070190696E-16,-1.,0.));
#1494=DIRECTION('',(0.,0.,-1.));
#1495=DIRECTION('',(-1.71410070190696E-16,-1.,0.));
#1496=DIRECTION('center_axis',(0.,0.,-1.));
#1497=DIRECTION('ref_axis',(0.707106781186548,0.707106781186548,0.));
#1498=DIRECTION('center_axis',(0.,0.,1.));
#1499=DIRECTION('ref_axis',(0.707106781186548,0.707106781186548,0.));
#1500=DIRECTION('',(0.,0.,-1.));
#1501=DIRECTION('center_axis',(0.,0.,-1.));
#1502=DIRECTION('ref_axis',(0.707106781186548,0.707106781186548,0.));
#1503=DIRECTION('',(0.,0.,1.));
#1504=DIRECTION('center_axis',(-6.66050558455287E-16,-1.,0.));
#1505=DIRECTION('ref_axis',(-1.,6.66050558455287E-16,0.));
#1506=DIRECTION('',(1.,6.66050558455287E-16,0.));
#1507=DIRECTION('',(1.,6.66050558455287E-16,0.));
#1508=DIRECTION('center_axis',(0.,0.,1.));
#1509=DIRECTION('ref_axis',(0.707106781186557,-0.707106781186538,0.));
#1510=DIRECTION('center_axis',(0.,0.,-1.));
#1511=DIRECTION('ref_axis',(0.707106781186557,-0.707106781186538,0.));
#1512=DIRECTION('',(0.,0.,-1.));
#1513=DIRECTION('center_axis',(0.,0.,1.));
#1514=DIRECTION('ref_axis',(0.707106781186557,-0.707106781186538,0.));
#1515=DIRECTION('',(0.,0.,1.));
#1516=DIRECTION('center_axis',(-1.,0.,0.));
#1517=DIRECTION('ref_axis',(0.,1.,0.));
#1518=DIRECTION('',(0.,1.,0.));
#1519=DIRECTION('',(0.,0.,1.));
#1520=DIRECTION('',(0.,1.,0.));
#1521=DIRECTION('center_axis',(0.,0.,1.));
#1522=DIRECTION('ref_axis',(0.707106781186557,0.707106781186538,0.));
#1523=DIRECTION('center_axis',(0.,0.,-1.));
#1524=DIRECTION('ref_axis',(0.707106781186557,0.707106781186538,0.));
#1525=DIRECTION('',(0.,0.,-1.));
#1526=DIRECTION('center_axis',(0.,0.,1.));
#1527=DIRECTION('ref_axis',(0.707106781186557,0.707106781186538,0.));
#1528=DIRECTION('center_axis',(0.,0.,1.));
#1529=DIRECTION('ref_axis',(1.,0.,0.));
#1530=DIRECTION('center_axis',(0.,0.,1.));
#1531=DIRECTION('ref_axis',(1.,0.,0.));
#1532=DIRECTION('',(0.,0.,-1.));
#1533=DIRECTION('center_axis',(0.,0.,-1.));
#1534=DIRECTION('ref_axis',(1.,0.,0.));
#1535=DIRECTION('center_axis',(1.,1.71410070190696E-16,0.));
#1536=DIRECTION('ref_axis',(1.71410070190696E-16,-1.,0.));
#1537=DIRECTION('',(1.71410070190696E-16,-1.,0.));
#1538=DIRECTION('',(0.,0.,-1.));
#1539=DIRECTION('',(1.71410070190696E-16,-1.,0.));
#1540=DIRECTION('center_axis',(0.,0.,-1.));
#1541=DIRECTION('ref_axis',(-0.707106781186557,-0.707106781186538,0.));
#1542=DIRECTION('center_axis',(0.,0.,1.));
#1543=DIRECTION('ref_axis',(-0.707106781186557,-0.707106781186538,0.));
#1544=DIRECTION('',(0.,0.,1.));
#1545=DIRECTION('center_axis',(0.,0.,-1.));
#1546=DIRECTION('ref_axis',(-0.707106781186557,-0.707106781186538,0.));
#1547=DIRECTION('',(0.,0.,-1.));
#1548=DIRECTION('center_axis',(-1.,0.,0.));
#1549=DIRECTION('ref_axis',(0.,1.,0.));
#1550=DIRECTION('',(0.,1.,0.));
#1551=DIRECTION('',(0.,0.,1.));
#1552=DIRECTION('',(0.,1.,0.));
#1553=DIRECTION('center_axis',(0.,0.,-1.));
#1554=DIRECTION('ref_axis',(-1.,0.,0.));
#1555=DIRECTION('',(1.,0.,0.));
#1556=DIRECTION('center_axis',(0.,0.,-1.));
#1557=DIRECTION('ref_axis',(-0.707106781186557,0.707106781186538,0.));
#1558=DIRECTION('',(1.,0.,0.));
#1559=DIRECTION('center_axis',(0.,0.,-1.));
#1560=DIRECTION('ref_axis',(-1.,0.,0.));
#1561=DIRECTION('',(1.,7.99260670146344E-15,0.));
#1562=DIRECTION('center_axis',(0.,0.,-1.));
#1563=DIRECTION('ref_axis',(-0.707106781186557,0.707106781186538,0.));
#1564=DIRECTION('center_axis',(0.,0.,1.));
#1565=DIRECTION('ref_axis',(-0.707106781186557,0.707106781186538,0.));
#1566=DIRECTION('',(0.,0.,-1.));
#1567=DIRECTION('center_axis',(0.,0.,-1.));
#1568=DIRECTION('ref_axis',(-1.,0.,0.));
#1569=DIRECTION('',(0.,0.,-1.));
#1570=DIRECTION('center_axis',(0.,0.,1.));
#1571=DIRECTION('ref_axis',(-1.,0.,0.));
#1572=DIRECTION('center_axis',(0.,1.,0.));
#1573=DIRECTION('ref_axis',(1.,0.,0.));
#1574=DIRECTION('',(1.,0.,0.));
#1575=DIRECTION('center_axis',(0.,-1.,0.));
#1576=DIRECTION('ref_axis',(-1.,0.,0.));
#1577=DIRECTION('',(1.,0.,0.));
#1578=DIRECTION('center_axis',(-7.99260670146344E-15,1.,0.));
#1579=DIRECTION('ref_axis',(1.,7.99260670146344E-15,0.));
#1580=DIRECTION('',(1.,7.99260670146344E-15,0.));
#1581=DIRECTION('center_axis',(0.,0.,-1.));
#1582=DIRECTION('ref_axis',(-1.,0.,0.));
#1583=CARTESIAN_POINT('',(0.,0.,0.));
#1584=CARTESIAN_POINT('Origin',(8.61062992125984,-9.35352107570628,-4.1));
#1585=CARTESIAN_POINT('',(8.61062992125984,-9.30352107570629,-4.18));
#1586=CARTESIAN_POINT('',(8.66062992125984,-9.35352107570628,-4.18));
#1587=CARTESIAN_POINT('Origin',(8.61062992125984,-9.35352107570628,-4.18));
#1588=CARTESIAN_POINT('',(8.61062992125984,-9.30352107570629,-4.1));
#1589=CARTESIAN_POINT('',(8.61062992125984,-9.30352107570629,-4.1));
#1590=CARTESIAN_POINT('',(8.66062992125984,-9.35352107570628,-4.1));
#1591=CARTESIAN_POINT('Origin',(8.61062992125984,-9.35352107570628,-4.1));
#1592=CARTESIAN_POINT('',(8.66062992125984,-9.35352107570628,-4.1));
#1593=CARTESIAN_POINT('Origin',(8.66062992125984,-10.5531496062992,-4.1));
#1594=CARTESIAN_POINT('',(8.66062992125984,-10.5031496062992,-4.1));
#1595=CARTESIAN_POINT('',(8.66062992125984,-10.5531496062992,-4.1));
#1596=CARTESIAN_POINT('',(8.66062992125984,-10.5031496062992,-4.18));
#1597=CARTESIAN_POINT('',(8.66062992125984,-10.5031496062992,-4.1));
#1598=CARTESIAN_POINT('',(8.66062992125984,-10.5531496062992,-4.18));
#1599=CARTESIAN_POINT('Origin',(8.61062992125984,-10.5031496062992,-4.1));
#1600=CARTESIAN_POINT('',(8.61062992125984,-10.5531496062992,-4.18));
#1601=CARTESIAN_POINT('Origin',(8.61062992125984,-10.5031496062992,-4.18));
#1602=CARTESIAN_POINT('',(8.61062992125984,-10.5531496062992,-4.1));
#1603=CARTESIAN_POINT('Origin',(8.61062992125984,-10.5031496062992,-4.1));
#1604=CARTESIAN_POINT('',(8.61062992125984,-10.5531496062992,-4.1));
#1605=CARTESIAN_POINT('Origin',(8.56062992125984,-9.92833534100275,-8.81244556788172));
#1606=CARTESIAN_POINT('',(8.49812992125984,-9.92833534100275,-4.1));
#1607=CARTESIAN_POINT('Origin',(8.56062992125984,-9.92833534100275,-4.1));
#1608=CARTESIAN_POINT('',(8.49812992125984,-9.92833534100275,-4.18));
#1609=CARTESIAN_POINT('',(8.49812992125984,-9.92833534100275,-8.81244556788172));
#1610=CARTESIAN_POINT('Origin',(8.56062992125984,-9.92833534100275,-4.18));
#1611=CARTESIAN_POINT('Origin',(4.9248031496063,-9.35352107570628,-4.1));
#1612=CARTESIAN_POINT('',(4.9248031496063,-9.30352107570629,-4.18));
#1613=CARTESIAN_POINT('',(4.8748031496063,-9.35352107570628,-4.18));
#1614=CARTESIAN_POINT('Origin',(4.9248031496063,-9.35352107570628,-4.18));
#1615=CARTESIAN_POINT('',(4.8748031496063,-9.35352107570628,-4.1));
#1616=CARTESIAN_POINT('',(4.8748031496063,-9.35352107570628,-4.1));
#1617=CARTESIAN_POINT('',(4.9248031496063,-9.30352107570629,-4.1));
#1618=CARTESIAN_POINT('Origin',(4.9248031496063,-9.35352107570628,-4.1));
#1619=CARTESIAN_POINT('',(4.9248031496063,-9.30352107570629,-4.1));
#1620=CARTESIAN_POINT('Origin',(4.8748031496063,-10.5531496062992,-4.1));
#1621=CARTESIAN_POINT('',(4.8748031496063,-10.5031496062992,-4.18));
#1622=CARTESIAN_POINT('',(4.8748031496063,-10.5531496062992,-4.18));
#1623=CARTESIAN_POINT('',(4.8748031496063,-10.5031496062992,-4.1));
#1624=CARTESIAN_POINT('',(4.8748031496063,-10.5031496062992,-4.1));
#1625=CARTESIAN_POINT('',(4.8748031496063,-10.5531496062992,-4.1));
#1626=CARTESIAN_POINT('Origin',(5.82125984251968,-9.92833534100275,-4.18));
#1627=CARTESIAN_POINT('',(4.8748031496063,-9.30352107570629,-4.18));
#1628=CARTESIAN_POINT('',(4.9248031496063,-10.5531496062992,-4.18));
#1629=CARTESIAN_POINT('',(6.76771653543307,-10.5531496062992,-4.18));
#1630=CARTESIAN_POINT('Origin',(4.9248031496063,-10.5031496062992,-4.18));
#1631=CARTESIAN_POINT('',(5.0373031496063,-9.92833534100275,-4.18));
#1632=CARTESIAN_POINT('Origin',(4.9748031496063,-9.92833534100275,-4.18));
#1633=CARTESIAN_POINT('Origin',(4.9248031496063,-10.5031496062992,-4.1));
#1634=CARTESIAN_POINT('',(4.9248031496063,-10.5531496062992,-4.1));
#1635=CARTESIAN_POINT('',(4.9248031496063,-10.5531496062992,-4.1));
#1636=CARTESIAN_POINT('Origin',(4.9248031496063,-10.5031496062992,-4.1));
#1637=CARTESIAN_POINT('Origin',(4.9748031496063,-9.92833534100275,-8.81244556788172));
#1638=CARTESIAN_POINT('',(5.0373031496063,-9.92833534100275,-4.1));
#1639=CARTESIAN_POINT('Origin',(4.9748031496063,-9.92833534100275,-4.1));
#1640=CARTESIAN_POINT('',(5.0373031496063,-9.92833534100275,-8.81244556788172));
#1641=CARTESIAN_POINT('Origin',(6.76771653543307,-10.5531496062992,-4.1));
#1642=CARTESIAN_POINT('',(6.76771653543307,-10.5531496062992,-4.1));
#1643=CARTESIAN_POINT('Origin',(4.8748031496063,-9.30352107570629,-4.1));
#1644=CARTESIAN_POINT('',(4.8748031496063,-9.30352107570629,-4.1));
#1645=CARTESIAN_POINT('Origin',(5.82125984251968,-9.92833534100275,-4.1));
#1646=CARTESIAN_POINT('Origin',(8.61062992125984,-9.24352107570629,-4.1));
#1647=CARTESIAN_POINT('',(8.66062992125984,-9.24352107570629,-4.18));
#1648=CARTESIAN_POINT('',(8.61062992125984,-9.29352107570629,-4.18));
#1649=CARTESIAN_POINT('Origin',(8.61062992125984,-9.24352107570629,-4.18));
#1650=CARTESIAN_POINT('',(8.66062992125984,-9.24352107570629,-4.1));
#1651=CARTESIAN_POINT('',(8.66062992125984,-9.24352107570629,-4.1));
#1652=CARTESIAN_POINT('',(8.61062992125984,-9.29352107570629,-4.1));
#1653=CARTESIAN_POINT('Origin',(8.61062992125984,-9.24352107570629,-4.1));
#1654=CARTESIAN_POINT('',(8.61062992125984,-9.29352107570629,-4.1));
#1655=CARTESIAN_POINT('Origin',(8.66062992125984,-9.29352107570629,-4.1));
#1656=CARTESIAN_POINT('',(8.66062992125984,-7.50352107570628,-4.18));
#1657=CARTESIAN_POINT('',(8.66062992125984,-10.5531496062992,-4.18));
#1658=CARTESIAN_POINT('',(8.66062992125984,-7.50352107570628,-4.1));
#1659=CARTESIAN_POINT('',(8.66062992125984,-7.50352107570628,-4.1));
#1660=CARTESIAN_POINT('',(8.66062992125984,-10.5531496062992,-4.1));
#1661=CARTESIAN_POINT('Origin',(8.61062992125984,-7.50352107570628,-4.1));
#1662=CARTESIAN_POINT('',(8.61062992125984,-7.45352107570628,-4.18));
#1663=CARTESIAN_POINT('Origin',(8.61062992125984,-7.50352107570628,-4.18));
#1664=CARTESIAN_POINT('',(8.61062992125984,-7.45352107570628,-4.1));
#1665=CARTESIAN_POINT('',(8.61062992125984,-7.45352107570628,-4.1));
#1666=CARTESIAN_POINT('Origin',(8.61062992125984,-7.50352107570628,-4.1));
#1667=CARTESIAN_POINT('Origin',(8.56062992125984,-8.37352107570629,-8.81244556788172));
#1668=CARTESIAN_POINT('',(8.49812992125984,-8.37352107570629,-4.1));
#1669=CARTESIAN_POINT('Origin',(8.56062992125984,-8.37352107570629,-4.1));
#1670=CARTESIAN_POINT('',(8.49812992125984,-8.37352107570629,-4.18));
#1671=CARTESIAN_POINT('',(8.49812992125984,-8.37352107570629,-8.81244556788172));
#1672=CARTESIAN_POINT('Origin',(8.56062992125984,-8.37352107570629,-4.18));
#1673=CARTESIAN_POINT('Origin',(4.9248031496063,-9.24352107570629,-4.1));
#1674=CARTESIAN_POINT('',(4.8748031496063,-9.24352107570629,-4.18));
#1675=CARTESIAN_POINT('',(4.9248031496063,-9.29352107570629,-4.18));
#1676=CARTESIAN_POINT('Origin',(4.9248031496063,-9.24352107570629,-4.18));
#1677=CARTESIAN_POINT('',(4.9248031496063,-9.29352107570629,-4.1));
#1678=CARTESIAN_POINT('',(4.9248031496063,-9.29352107570629,-4.1));
#1679=CARTESIAN_POINT('',(4.8748031496063,-9.24352107570629,-4.1));
#1680=CARTESIAN_POINT('Origin',(4.9248031496063,-9.24352107570629,-4.1));
#1681=CARTESIAN_POINT('',(4.8748031496063,-9.24352107570629,-4.1));
#1682=CARTESIAN_POINT('Origin',(4.8748031496063,-9.29352107570629,-4.1));
#1683=CARTESIAN_POINT('',(4.8748031496063,-7.50352107570628,-4.1));
#1684=CARTESIAN_POINT('',(4.8748031496063,-10.5531496062992,-4.1));
#1685=CARTESIAN_POINT('',(4.8748031496063,-7.50352107570628,-4.18));
#1686=CARTESIAN_POINT('',(4.8748031496063,-7.50352107570628,-4.1));
#1687=CARTESIAN_POINT('',(4.8748031496063,-10.5531496062992,-4.18));
#1688=CARTESIAN_POINT('Origin',(5.82125984251968,-8.37352107570629,-4.1));
#1689=CARTESIAN_POINT('',(6.76771653543307,-9.29352107570629,-4.1));
#1690=CARTESIAN_POINT('',(4.9248031496063,-7.45352107570628,-4.1));
#1691=CARTESIAN_POINT('',(4.8748031496063,-7.45352107570628,-4.1));
#1692=CARTESIAN_POINT('Origin',(4.9248031496063,-7.50352107570628,-4.1));
#1693=CARTESIAN_POINT('',(5.0373031496063,-8.37352107570629,-4.1));
#1694=CARTESIAN_POINT('Origin',(4.9748031496063,-8.37352107570629,-4.1));
#1695=CARTESIAN_POINT('Origin',(4.9248031496063,-7.50352107570628,-4.1));
#1696=CARTESIAN_POINT('',(4.9248031496063,-7.45352107570628,-4.18));
#1697=CARTESIAN_POINT('Origin',(4.9248031496063,-7.50352107570628,-4.18));
#1698=CARTESIAN_POINT('',(4.9248031496063,-7.45352107570628,-4.1));
#1699=CARTESIAN_POINT('Origin',(4.9748031496063,-8.37352107570629,-8.81244556788172));
#1700=CARTESIAN_POINT('',(5.0373031496063,-8.37352107570629,-4.18));
#1701=CARTESIAN_POINT('',(5.0373031496063,-8.37352107570629,-8.81244556788172));
#1702=CARTESIAN_POINT('Origin',(4.9748031496063,-8.37352107570629,-4.18));
#1703=CARTESIAN_POINT('Origin',(6.76771653543307,-9.29352107570629,-4.1));
#1704=CARTESIAN_POINT('',(6.76771653543307,-9.29352107570629,-4.18));
#1705=CARTESIAN_POINT('Origin',(4.8748031496063,-7.45352107570628,-4.1));
#1706=CARTESIAN_POINT('',(4.8748031496063,-7.45352107570628,-4.18));
#1707=CARTESIAN_POINT('Origin',(5.82125984251968,-8.37352107570629,-4.18));
#1708=CARTESIAN_POINT('Origin',(5.29771653543307,-7.26537656208899,-4.18));
#1709=CARTESIAN_POINT('',(5.29771653543307,-7.29537656208899,-4.18));
#1710=CARTESIAN_POINT('',(5.26771653543307,-7.26537656208899,-4.18));
#1711=CARTESIAN_POINT('Origin',(5.29771653543307,-7.26537656208899,-4.18));
#1712=CARTESIAN_POINT('',(5.26771653543307,-7.26537656208899,-4.1));
#1713=CARTESIAN_POINT('',(5.26771653543307,-7.26537656208899,-4.18));
#1714=CARTESIAN_POINT('',(5.29771653543307,-7.29537656208899,-4.1));
#1715=CARTESIAN_POINT('Origin',(5.29771653543307,-7.26537656208899,-4.1));
#1716=CARTESIAN_POINT('',(5.29771653543307,-7.29537656208899,-4.18));
#1717=CARTESIAN_POINT('Origin',(5.26771653543307,-7.04537656208899,-4.18));
#1718=CARTESIAN_POINT('',(5.26771653543307,-7.07537656208898,-4.18));
#1719=CARTESIAN_POINT('',(5.26771653543307,-6.78694881889763,-4.18));
#1720=CARTESIAN_POINT('',(5.26771653543307,-7.07537656208898,-4.1));
#1721=CARTESIAN_POINT('',(5.26771653543307,-7.07537656208898,-4.18));
#1722=CARTESIAN_POINT('',(5.26771653543307,-6.78694881889763,-4.1));
#1723=CARTESIAN_POINT('Origin',(5.65771653543307,-7.26537656208899,-4.18));
#1724=CARTESIAN_POINT('',(5.68771653543307,-7.26537656208899,-4.18));
#1725=CARTESIAN_POINT('',(5.65771653543307,-7.29537656208899,-4.18));
#1726=CARTESIAN_POINT('Origin',(5.65771653543307,-7.26537656208899,-4.18));
#1727=CARTESIAN_POINT('',(5.65771653543307,-7.29537656208899,-4.1));
#1728=CARTESIAN_POINT('',(5.65771653543307,-7.29537656208899,-4.18));
#1729=CARTESIAN_POINT('',(5.68771653543307,-7.26537656208899,-4.1));
#1730=CARTESIAN_POINT('Origin',(5.65771653543307,-7.26537656208899,-4.1));
#1731=CARTESIAN_POINT('',(5.68771653543307,-7.26537656208899,-4.18));
#1732=CARTESIAN_POINT('Origin',(5.26771653543307,-7.29537656208899,-4.18));
#1733=CARTESIAN_POINT('',(5.54448818897638,-7.29537656208899,-4.1));
#1734=CARTESIAN_POINT('',(5.54448818897638,-7.29537656208899,-4.18));
#1735=CARTESIAN_POINT('Origin',(5.65771653543307,-7.07537656208898,-4.18));
#1736=CARTESIAN_POINT('',(5.65771653543307,-7.04537656208898,-4.18));
#1737=CARTESIAN_POINT('',(5.68771653543307,-7.07537656208898,-4.18));
#1738=CARTESIAN_POINT('Origin',(5.65771653543307,-7.07537656208898,-4.18));
#1739=CARTESIAN_POINT('',(5.68771653543307,-7.07537656208898,-4.1));
#1740=CARTESIAN_POINT('',(5.68771653543307,-7.07537656208898,-4.18));
#1741=CARTESIAN_POINT('',(5.65771653543307,-7.04537656208898,-4.1));
#1742=CARTESIAN_POINT('Origin',(5.65771653543307,-7.07537656208898,-4.1));
#1743=CARTESIAN_POINT('',(5.65771653543307,-7.04537656208899,-4.18));
#1744=CARTESIAN_POINT('Origin',(5.68771653543307,-7.29537656208899,-4.18));
#1745=CARTESIAN_POINT('',(5.68771653543307,-6.91194881889763,-4.1));
#1746=CARTESIAN_POINT('',(5.68771653543307,-6.91194881889763,-4.18));
#1747=CARTESIAN_POINT('Origin',(5.29771653543307,-7.07537656208898,-4.18));
#1748=CARTESIAN_POINT('',(5.29771653543307,-7.04537656208898,-4.18));
#1749=CARTESIAN_POINT('Origin',(5.29771653543307,-7.07537656208898,-4.18));
#1750=CARTESIAN_POINT('',(5.29771653543307,-7.04537656208898,-4.1));
#1751=CARTESIAN_POINT('',(5.29771653543307,-7.04537656208899,-4.18));
#1752=CARTESIAN_POINT('Origin',(5.29771653543307,-7.07537656208898,-4.1));
#1753=CARTESIAN_POINT('Origin',(5.68771653543307,-7.04537656208899,-4.18));
#1754=CARTESIAN_POINT('',(5.75448818897638,-7.04537656208898,-4.1));
#1755=CARTESIAN_POINT('',(5.75448818897638,-7.04537656208898,-4.18));
#1756=CARTESIAN_POINT('Origin',(8.23771653543307,-7.26537656208899,-4.18));
#1757=CARTESIAN_POINT('',(8.26771653543307,-7.26537656208899,-4.18));
#1758=CARTESIAN_POINT('',(8.23771653543307,-7.29537656208899,-4.18));
#1759=CARTESIAN_POINT('Origin',(8.23771653543307,-7.26537656208899,-4.18));
#1760=CARTESIAN_POINT('',(8.23771653543307,-7.29537656208899,-4.1));
#1761=CARTESIAN_POINT('',(8.23771653543307,-7.29537656208899,-4.18));
#1762=CARTESIAN_POINT('',(8.26771653543307,-7.26537656208899,-4.1));
#1763=CARTESIAN_POINT('Origin',(8.23771653543307,-7.26537656208899,-4.1));
#1764=CARTESIAN_POINT('',(8.26771653543307,-7.26537656208899,-4.18));
#1765=CARTESIAN_POINT('Origin',(7.84771653543307,-7.29537656208899,-4.18));
#1766=CARTESIAN_POINT('',(7.87771653543307,-7.29537656208899,-4.18));
#1767=CARTESIAN_POINT('',(6.83448818897638,-7.29537656208899,-4.18));
#1768=CARTESIAN_POINT('',(7.87771653543307,-7.29537656208899,-4.1));
#1769=CARTESIAN_POINT('',(7.87771653543307,-7.29537656208899,-4.18));
#1770=CARTESIAN_POINT('',(6.83448818897638,-7.29537656208899,-4.1));
#1771=CARTESIAN_POINT('Origin',(7.87771653543307,-7.26537656208899,-4.18));
#1772=CARTESIAN_POINT('',(7.84771653543307,-7.26537656208899,-4.18));
#1773=CARTESIAN_POINT('Origin',(7.87771653543307,-7.26537656208899,-4.18));
#1774=CARTESIAN_POINT('',(7.84771653543307,-7.26537656208899,-4.1));
#1775=CARTESIAN_POINT('',(7.84771653543307,-7.26537656208899,-4.18));
#1776=CARTESIAN_POINT('Origin',(7.87771653543307,-7.26537656208899,-4.1));
#1777=CARTESIAN_POINT('Origin',(7.84771653543307,-7.04537656208899,-4.18));
#1778=CARTESIAN_POINT('',(7.84771653543307,-7.07537656208898,-4.18));
#1779=CARTESIAN_POINT('',(7.84771653543307,-6.78694881889764,-4.18));
#1780=CARTESIAN_POINT('',(7.84771653543307,-7.07537656208898,-4.1));
#1781=CARTESIAN_POINT('',(7.84771653543307,-7.07537656208898,-4.18));
#1782=CARTESIAN_POINT('',(7.84771653543307,-6.78694881889764,-4.1));
#1783=CARTESIAN_POINT('Origin',(7.87771653543307,-7.07537656208898,-4.18));
#1784=CARTESIAN_POINT('',(7.87771653543307,-7.04537656208898,-4.18));
#1785=CARTESIAN_POINT('Origin',(7.87771653543307,-7.07537656208898,-4.18));
#1786=CARTESIAN_POINT('',(7.87771653543307,-7.04537656208898,-4.1));
#1787=CARTESIAN_POINT('',(7.87771653543307,-7.04537656208899,-4.18));
#1788=CARTESIAN_POINT('Origin',(7.87771653543307,-7.07537656208898,-4.1));
#1789=CARTESIAN_POINT('Origin',(8.26771653543307,-7.04537656208899,-4.18));
#1790=CARTESIAN_POINT('',(8.23771653543307,-7.04537656208898,-4.18));
#1791=CARTESIAN_POINT('',(7.04448818897638,-7.04537656208898,-4.18));
#1792=CARTESIAN_POINT('',(8.23771653543307,-7.04537656208898,-4.1));
#1793=CARTESIAN_POINT('',(8.23771653543307,-7.04537656208899,-4.18));
#1794=CARTESIAN_POINT('',(7.04448818897638,-7.04537656208898,-4.1));
#1795=CARTESIAN_POINT('Origin',(8.23771653543307,-7.07537656208898,-4.18));
#1796=CARTESIAN_POINT('',(8.26771653543307,-7.07537656208898,-4.18));
#1797=CARTESIAN_POINT('Origin',(8.23771653543307,-7.07537656208898,-4.18));
#1798=CARTESIAN_POINT('',(8.26771653543307,-7.07537656208898,-4.1));
#1799=CARTESIAN_POINT('',(8.26771653543307,-7.07537656208898,-4.18));
#1800=CARTESIAN_POINT('Origin',(8.23771653543307,-7.07537656208898,-4.1));
#1801=CARTESIAN_POINT('Origin',(8.26771653543307,-7.29537656208899,-4.18));
#1802=CARTESIAN_POINT('',(8.26771653543307,-6.91194881889763,-4.1));
#1803=CARTESIAN_POINT('',(8.26771653543307,-6.91194881889763,-4.18));
#1804=CARTESIAN_POINT('Origin',(5.74771653543307,-6.79537656208898,-4.1));
#1805=CARTESIAN_POINT('',(5.74771653543307,-6.76537656208898,-4.1));
#1806=CARTESIAN_POINT('',(5.71771653543307,-6.79537656208898,-4.1));
#1807=CARTESIAN_POINT('Origin',(5.74771653543307,-6.79537656208898,-4.1));
#1808=CARTESIAN_POINT('',(5.71771653543307,-6.79537656208898,-4.18));
#1809=CARTESIAN_POINT('',(5.71771653543307,-6.79537656208898,-4.1));
#1810=CARTESIAN_POINT('',(5.74771653543307,-6.76537656208898,-4.18));
#1811=CARTESIAN_POINT('Origin',(5.74771653543307,-6.79537656208898,-4.18));
#1812=CARTESIAN_POINT('',(5.74771653543307,-6.76537656208898,-4.1));
#1813=CARTESIAN_POINT('Origin',(5.71771653543307,-6.76537656208897,-4.1));
#1814=CARTESIAN_POINT('',(5.71771653543307,-7.27537656208898,-4.1));
#1815=CARTESIAN_POINT('',(5.71771653543307,-6.76537656208897,-4.1));
#1816=CARTESIAN_POINT('',(5.71771653543307,-7.27537656208898,-4.18));
#1817=CARTESIAN_POINT('',(5.71771653543307,-7.27537656208898,-4.1));
#1818=CARTESIAN_POINT('',(5.71771653543307,-6.76537656208897,-4.18));
#1819=CARTESIAN_POINT('Origin',(7.78771653543307,-6.79537656208898,-4.1));
#1820=CARTESIAN_POINT('',(7.81771653543307,-6.79537656208898,-4.1));
#1821=CARTESIAN_POINT('',(7.78771653543307,-6.76537656208898,-4.1));
#1822=CARTESIAN_POINT('Origin',(7.78771653543307,-6.79537656208898,-4.1));
#1823=CARTESIAN_POINT('',(7.78771653543307,-6.76537656208898,-4.18));
#1824=CARTESIAN_POINT('',(7.78771653543307,-6.76537656208898,-4.1));
#1825=CARTESIAN_POINT('',(7.81771653543307,-6.79537656208898,-4.18));
#1826=CARTESIAN_POINT('Origin',(7.78771653543307,-6.79537656208898,-4.18));
#1827=CARTESIAN_POINT('',(7.81771653543307,-6.79537656208898,-4.1));
#1828=CARTESIAN_POINT('Origin',(6.76771653543307,-6.76537656208898,-4.1));
#1829=CARTESIAN_POINT('',(6.76771653543307,-6.76537656208898,-4.18));
#1830=CARTESIAN_POINT('',(6.76771653543307,-6.76537656208898,-4.1));
#1831=CARTESIAN_POINT('Origin',(8.61062992125984,-7.39352107570629,-4.1));
#1832=CARTESIAN_POINT('',(8.66062992125984,-7.39352107570629,-4.18));
#1833=CARTESIAN_POINT('',(8.61062992125984,-7.44352107570629,-4.18));
#1834=CARTESIAN_POINT('Origin',(8.61062992125984,-7.39352107570629,-4.18));
#1835=CARTESIAN_POINT('',(8.66062992125984,-7.39352107570629,-4.1));
#1836=CARTESIAN_POINT('',(8.66062992125984,-7.39352107570629,-4.1));
#1837=CARTESIAN_POINT('',(8.61062992125984,-7.44352107570629,-4.1));
#1838=CARTESIAN_POINT('Origin',(8.61062992125984,-7.39352107570629,-4.1));
#1839=CARTESIAN_POINT('',(8.61062992125984,-7.44352107570629,-4.1));
#1840=CARTESIAN_POINT('Origin',(8.66062992125984,-7.44352107570629,-4.1));
#1841=CARTESIAN_POINT('',(8.66062992125984,-5.66352107570628,-4.18));
#1842=CARTESIAN_POINT('',(8.66062992125984,-10.5531496062992,-4.18));
#1843=CARTESIAN_POINT('',(8.66062992125984,-5.66352107570628,-4.1));
#1844=CARTESIAN_POINT('',(8.66062992125984,-5.66352107570628,-4.1));
#1845=CARTESIAN_POINT('',(8.66062992125984,-10.5531496062992,-4.1));
#1846=CARTESIAN_POINT('Origin',(8.61062992125984,-5.66352107570628,-4.1));
#1847=CARTESIAN_POINT('',(8.61062992125984,-5.61352107570628,-4.18));
#1848=CARTESIAN_POINT('Origin',(8.61062992125984,-5.66352107570628,-4.18));
#1849=CARTESIAN_POINT('',(8.61062992125984,-5.61352107570628,-4.1));
#1850=CARTESIAN_POINT('',(8.61062992125984,-5.61352107570628,-4.1));
#1851=CARTESIAN_POINT('Origin',(8.61062992125984,-5.66352107570628,-4.1));
#1852=CARTESIAN_POINT('Origin',(8.56062992125984,-6.52852107570629,-8.81244556788172));
#1853=CARTESIAN_POINT('',(8.49812992125984,-6.52852107570629,-4.1));
#1854=CARTESIAN_POINT('Origin',(8.56062992125984,-6.52852107570629,-4.1));
#1855=CARTESIAN_POINT('',(8.49812992125984,-6.52852107570629,-4.18));
#1856=CARTESIAN_POINT('',(8.49812992125984,-6.52852107570629,-8.81244556788172));
#1857=CARTESIAN_POINT('Origin',(8.56062992125984,-6.52852107570629,-4.18));
#1858=CARTESIAN_POINT('Origin',(7.81771653543307,-6.76537656208897,-4.1));
#1859=CARTESIAN_POINT('',(7.81771653543307,-7.27537656208898,-4.18));
#1860=CARTESIAN_POINT('',(7.81771653543307,-6.76537656208897,-4.18));
#1861=CARTESIAN_POINT('',(7.81771653543307,-7.27537656208898,-4.1));
#1862=CARTESIAN_POINT('',(7.81771653543307,-7.27537656208898,-4.1));
#1863=CARTESIAN_POINT('',(7.81771653543307,-6.76537656208897,-4.1));
#1864=CARTESIAN_POINT('Origin',(4.9248031496063,-7.39352107570629,-4.1));
#1865=CARTESIAN_POINT('',(4.8748031496063,-7.39352107570629,-4.18));
#1866=CARTESIAN_POINT('',(4.9248031496063,-7.44352107570629,-4.18));
#1867=CARTESIAN_POINT('Origin',(4.9248031496063,-7.39352107570629,-4.18));
#1868=CARTESIAN_POINT('',(4.9248031496063,-7.44352107570629,-4.1));
#1869=CARTESIAN_POINT('',(4.9248031496063,-7.44352107570629,-4.1));
#1870=CARTESIAN_POINT('',(4.8748031496063,-7.39352107570629,-4.1));
#1871=CARTESIAN_POINT('Origin',(4.9248031496063,-7.39352107570629,-4.1));
#1872=CARTESIAN_POINT('',(4.8748031496063,-7.39352107570629,-4.1));
#1873=CARTESIAN_POINT('Origin',(4.8748031496063,-7.44352107570629,-4.1));
#1874=CARTESIAN_POINT('',(4.8748031496063,-5.66352107570628,-4.1));
#1875=CARTESIAN_POINT('',(4.8748031496063,-10.5531496062992,-4.1));
#1876=CARTESIAN_POINT('',(4.8748031496063,-5.66352107570628,-4.18));
#1877=CARTESIAN_POINT('',(4.8748031496063,-5.66352107570628,-4.1));
#1878=CARTESIAN_POINT('',(4.8748031496063,-10.5531496062992,-4.18));
#1879=CARTESIAN_POINT('Origin',(5.82125984251968,-6.52852107570629,-4.1));
#1880=CARTESIAN_POINT('',(4.9248031496063,-5.61352107570628,-4.1));
#1881=CARTESIAN_POINT('',(4.8748031496063,-5.61352107570628,-4.1));
#1882=CARTESIAN_POINT('Origin',(4.9248031496063,-5.66352107570628,-4.1));
#1883=CARTESIAN_POINT('',(6.76771653543307,-7.44352107570629,-4.1));
#1884=CARTESIAN_POINT('',(5.0373031496063,-6.52852107570629,-4.1));
#1885=CARTESIAN_POINT('Origin',(4.9748031496063,-6.52852107570629,-4.1));
#1886=CARTESIAN_POINT('',(5.71771653543307,-7.27537656208898,-4.1));
#1887=CARTESIAN_POINT('Origin',(4.9248031496063,-5.66352107570628,-4.1));
#1888=CARTESIAN_POINT('',(4.9248031496063,-5.61352107570628,-4.18));
#1889=CARTESIAN_POINT('Origin',(4.9248031496063,-5.66352107570628,-4.18));
#1890=CARTESIAN_POINT('',(4.9248031496063,-5.61352107570628,-4.1));
#1891=CARTESIAN_POINT('Origin',(4.9748031496063,-6.52852107570629,-8.81244556788172));
#1892=CARTESIAN_POINT('',(5.0373031496063,-6.52852107570629,-4.18));
#1893=CARTESIAN_POINT('',(5.0373031496063,-6.52852107570629,-8.81244556788172));
#1894=CARTESIAN_POINT('Origin',(4.9748031496063,-6.52852107570629,-4.18));
#1895=CARTESIAN_POINT('Origin',(4.8748031496063,-5.61352107570628,-4.1));
#1896=CARTESIAN_POINT('',(4.8748031496063,-5.61352107570628,-4.18));
#1897=CARTESIAN_POINT('Origin',(6.76771653543307,-7.44352107570629,-4.1));
#1898=CARTESIAN_POINT('',(6.76771653543307,-7.44352107570629,-4.18));
#1899=CARTESIAN_POINT('Origin',(5.71771653543307,-7.27537656208898,-4.1));
#1900=CARTESIAN_POINT('',(5.71771653543307,-7.27537656208898,-4.18));
#1901=CARTESIAN_POINT('Origin',(5.82125984251968,-6.52852107570629,-4.18));
#1902=UNCERTAINTY_MEASURE_WITH_UNIT(LENGTH_MEASURE(0.000393700787401575),
#1908,'DISTANCE_ACCURACY_VALUE',
'Maximum model space distance between geometric entities at asserted c
onnectivities');
#1903=UNCERTAINTY_MEASURE_WITH_UNIT(LENGTH_MEASURE(0.000393700787401575),
#1908,'DISTANCE_ACCURACY_VALUE',
'Maximum model space distance between geometric entities at asserted c
onnectivities');
#1904=(
GEOMETRIC_REPRESENTATION_CONTEXT(3)
GLOBAL_UNCERTAINTY_ASSIGNED_CONTEXT((#1902))
GLOBAL_UNIT_ASSIGNED_CONTEXT((#1908,#1912,#1913))
REPRESENTATION_CONTEXT('','3D')
);
#1905=(
GEOMETRIC_REPRESENTATION_CONTEXT(3)
GLOBAL_UNCERTAINTY_ASSIGNED_CONTEXT((#1903))
GLOBAL_UNIT_ASSIGNED_CONTEXT((#1908,#1912,#1913))
REPRESENTATION_CONTEXT('','3D')
);
#1906=DIMENSIONAL_EXPONENTS(1.,0.,0.,0.,0.,0.,0.);
#1907=DIMENSIONAL_EXPONENTS(0.,1.,0.,0.,0.,0.,0.);
#1908=(
CONVERSION_BASED_UNIT('inch',#1911)
LENGTH_UNIT()
NAMED_UNIT(#1906)
);
#1909=(
LENGTH_UNIT()
NAMED_UNIT(*)
SI_UNIT(.MILLI.,.METRE.)
);
#1910=(
LENGTH_UNIT()
NAMED_UNIT(*)
SI_UNIT(.CENTI.,.METRE.)
);
#1911=LENGTH_MEASURE_WITH_UNIT(LENGTH_MEASURE(25.4),#1909);
#1912=(
NAMED_UNIT(*)
PLANE_ANGLE_UNIT()
SI_UNIT($,.RADIAN.)
);
#1913=(
NAMED_UNIT(*)
SI_UNIT($,.STERADIAN.)
SOLID_ANGLE_UNIT()
);
#1914=SHAPE_DEFINITION_REPRESENTATION(#1915,#1916);
#1915=PRODUCT_DEFINITION_SHAPE('',$,#1918);
#1916=SHAPE_REPRESENTATION('',(#1138),#1904);
#1917=PRODUCT_DEFINITION_CONTEXT('part definition',#1922,'design');
#1918=PRODUCT_DEFINITION('case v2','case v2',#1919,#1917);
#1919=PRODUCT_DEFINITION_FORMATION('',$,#1924);
#1920=PRODUCT_RELATED_PRODUCT_CATEGORY('case v2','case v2',(#1924));
#1921=APPLICATION_PROTOCOL_DEFINITION('international standard',
'automotive_design',2009,#1922);
#1922=APPLICATION_CONTEXT(
'Core Data for Automotive Mechanical Design Process');
#1923=PRODUCT_CONTEXT('part definition',#1922,'mechanical');
#1924=PRODUCT('case v2','case v2',$,(#1923));
#1925=PRESENTATION_STYLE_ASSIGNMENT((#1927));
#1926=PRESENTATION_STYLE_ASSIGNMENT((#1928));
#1927=SURFACE_STYLE_USAGE(.BOTH.,#1933);
#1928=SURFACE_STYLE_USAGE(.BOTH.,#1934);
#1929=SURFACE_STYLE_RENDERING_WITH_PROPERTIES($,#1941,(#1931));
#1930=SURFACE_STYLE_RENDERING_WITH_PROPERTIES($,#1942,(#1932));
#1931=SURFACE_STYLE_TRANSPARENT(0.);
#1932=SURFACE_STYLE_TRANSPARENT(0.);
#1933=SURFACE_SIDE_STYLE('',(#1935,#1929));
#1934=SURFACE_SIDE_STYLE('',(#1936,#1930));
#1935=SURFACE_STYLE_FILL_AREA(#1937);
#1936=SURFACE_STYLE_FILL_AREA(#1938);
#1937=FILL_AREA_STYLE('',(#1939));
#1938=FILL_AREA_STYLE('',(#1940));
#1939=FILL_AREA_STYLE_COLOUR('',#1941);
#1940=FILL_AREA_STYLE_COLOUR('',#1942);
#1941=COLOUR_RGB('',0.749019607843137,0.749019607843137,0.749019607843137);
#1942=COLOUR_RGB('',0.313725490196078,0.486274509803922,0.411764705882353);
ENDSEC;
END-ISO-10303-21;
