M48
; DRILL file {KiCad 8.0.1} date 2025-01-31T20:46:38-0500
; FORMAT={-:-/ absolute / inch / decimal}
; #@! TF.CreationDate,2025-01-31T20:46:38-05:00
; #@! TF.GenerationSoftware,Kicad,Pcbnew,8.0.1
; #@! TF.FileFunction,Plated,1,2,PTH
FMAT,2
INCH
; #@! TA.AperFunction,Plated,PTH,ViaDrill
T1C0.0118
; #@! TA.AperFunction,Plated,PTH,ComponentDrill
T2C0.0350
; #@! TA.AperFunction,Plated,PTH,ComponentDrill
T3C0.0354
; #@! TA.AperFunction,Plated,PTH,ComponentDrill
T4C0.0394
; #@! TA.AperFunction,Plated,PTH,ComponentDrill
T5C0.0430
; #@! TA.AperFunction,Plated,PTH,ComponentDrill
T6C0.1260
%
G90
G05
T1
X4.0039Y-4.4094
X4.4879Y-4.4452
X4.5Y-4.5315
X4.5213Y-4.4747
X4.533Y-3.1724
X4.5553Y-3.1501
X4.6552Y-3.309
X4.6553Y-2.2913
X4.6781Y-3.2874
X4.6982Y-3.6522
X4.7008Y-2.7246
X4.7205Y-3.6299
X4.7254Y-2.7047
X4.7454Y-3.038
X4.7677Y-3.0157
X4.7891Y-3.5137
X4.812Y-3.4921
X4.8386Y-3.5591
X4.8612Y-3.5368
X5.0866Y-4.5177
X5.1148Y-4.5
X5.813Y-2.2925
X5.8898Y-3.0906
X5.9724Y-4.4449
X5.9947Y-4.4203
X5.9961Y-3.0709
X6.0471Y-4.3898
X6.0648Y-4.3637
X6.1496Y-2.9961
X6.1969Y-4.5354
X6.2283Y-4.2402
X6.2283Y-4.2717
X6.2283Y-4.3031
X6.2283Y-4.3346
X6.3356Y-4.2323
X6.5039Y-3.1732
X6.5208Y-3.2846
X6.7559Y-4.189
X6.8663Y-2.3187
X6.9843Y-3.3228
X6.9921Y-3.1772
X7.022Y-3.2018
X7.1161Y-3.3474
T2
X6.4476Y-3.073
X6.4476Y-3.173
X6.4476Y-3.273
X6.4476Y-3.373
X6.4476Y-3.7665
X6.4476Y-3.8665
X6.4476Y-3.9665
X6.4476Y-4.0665
X6.5476Y-3.123
X6.5476Y-3.223
X6.5476Y-3.323
X6.5476Y-3.423
X6.5476Y-3.8165
X6.5476Y-3.9165
X6.5476Y-4.0165
X6.5476Y-4.1165
X6.7076Y-3.073
X6.7076Y-3.173
X6.7076Y-3.273
X6.7076Y-3.373
X6.7076Y-3.7665
X6.7076Y-3.8665
X6.7076Y-3.9665
X6.7076Y-4.0665
X6.8076Y-3.123
X6.8076Y-3.223
X6.8076Y-3.323
X6.8076Y-3.423
X6.8076Y-3.8165
X6.8076Y-3.9165
X6.8076Y-4.0165
X6.8076Y-4.1165
T3
X4.9736Y-2.4173
X4.9736Y-2.6173
X5.076Y-2.4173
X5.076Y-2.6173
X5.126Y-2.5173
X5.1783Y-2.4173
X5.1783Y-2.6173
X5.2283Y-2.5173
X5.2807Y-2.4173
X5.2807Y-2.6173
X5.3307Y-2.5173
X5.3831Y-2.4173
X5.3831Y-2.6173
X5.4331Y-2.5173
X5.4854Y-2.4173
X5.4854Y-2.6173
X5.5354Y-2.5173
X5.5878Y-2.4173
X5.5878Y-2.6173
X5.6378Y-2.5173
X5.6902Y-2.4173
X5.6902Y-2.6173
X5.7402Y-2.5173
X5.7925Y-2.4173
X5.7925Y-2.6173
X5.8425Y-2.5173
X5.8949Y-2.4173
X5.8949Y-2.6173
X5.9449Y-2.5173
X5.9972Y-2.4173
X5.9972Y-2.6173
X6.0472Y-2.5173
X6.0996Y-2.4173
X6.0996Y-2.6173
X6.1496Y-2.5173
X6.202Y-2.4173
X6.202Y-2.6173
X6.252Y-2.5173
X6.3043Y-2.4173
X6.3043Y-2.6173
X6.3543Y-2.5173
X6.4067Y-2.4173
X6.4067Y-2.6173
X6.4567Y-2.5173
X6.5091Y-2.4173
X6.5091Y-2.6173
X6.6114Y-2.4173
X6.6114Y-2.6173
X6.7138Y-2.4173
X6.7138Y-2.6173
T4
X4.974Y-3.2819
X4.974Y-3.3819
X4.9741Y-3.282
X4.9741Y-3.382
X5.074Y-3.2819
X5.074Y-3.3819
X5.0741Y-3.282
X5.0741Y-3.382
X5.174Y-3.2819
X5.174Y-3.3819
X5.1741Y-3.282
X5.1741Y-3.382
X5.274Y-3.2819
X5.274Y-3.3819
X5.2741Y-3.282
X5.2741Y-3.382
X5.374Y-3.2819
X5.374Y-3.3819
X5.3741Y-3.282
X5.3741Y-3.382
X5.474Y-3.2819
X5.474Y-3.3819
X5.4741Y-3.282
X5.4741Y-3.382
X5.574Y-3.2819
X5.574Y-3.3819
X5.5741Y-3.282
X5.5741Y-3.382
X5.674Y-3.2819
X5.674Y-3.3819
X5.6741Y-3.282
X5.6741Y-3.382
X5.774Y-3.2819
X5.774Y-3.3819
X5.7741Y-3.282
X5.7741Y-3.382
X5.874Y-3.2819
X5.874Y-3.3819
X5.8741Y-3.282
X5.8741Y-3.382
X5.974Y-3.2819
X5.974Y-3.3819
X5.9741Y-3.282
X5.9741Y-3.382
X6.074Y-3.2819
X6.074Y-3.3819
X6.0741Y-3.282
X6.0741Y-3.382
T5
X4.185Y-2.9567
X4.185Y-3.0469
X4.185Y-3.137
X4.185Y-3.2272
X4.185Y-3.3173
X4.185Y-3.4075
X4.185Y-3.4976
X4.185Y-3.5878
X4.185Y-3.678
X4.185Y-3.7681
X4.185Y-3.8583
X4.185Y-3.9484
X4.185Y-4.0386
X4.185Y-4.1287
X4.285Y-2.9116
X4.285Y-3.0018
X4.285Y-3.0919
X4.285Y-3.1821
X4.285Y-3.2722
X4.285Y-3.3624
X4.285Y-3.4526
X4.285Y-3.5427
X4.285Y-3.6329
X4.285Y-3.723
X4.285Y-3.8132
X4.285Y-3.9033
X4.285Y-3.9935
X4.285Y-4.0837
X4.285Y-4.1738
X4.385Y-2.8665
X4.385Y-2.9567
X4.385Y-3.0469
X4.385Y-3.137
X4.385Y-3.2272
X4.385Y-3.3173
X4.385Y-3.4075
X4.385Y-3.4976
X4.385Y-3.5878
X4.385Y-3.678
X4.385Y-3.7681
X4.385Y-3.8583
X4.385Y-3.9484
X4.385Y-4.0386
X4.385Y-4.1287
T6
X4.285Y-2.5917
X4.285Y-4.4437
M30
