%TF.GenerationSoftware,KiCad,Pcbnew,8.0.1*%
%TF.CreationDate,2025-01-31T20:46:34-05:00*%
%TF.ProjectId,fanuc rj3ib encoder breakout,66616e75-6320-4726-9a33-696220656e63,rev?*%
%TF.SameCoordinates,Original*%
%TF.FileFunction,Copper,L2,Bot*%
%TF.FilePolarity,Positive*%
%FSLAX46Y46*%
G04 Gerber Fmt 4.6, Leading zero omitted, Abs format (unit mm)*
G04 Created by KiCad (PCBNEW 8.0.1) date 2025-01-31 20:46:34*
%MOMM*%
%LPD*%
G01*
G04 APERTURE LIST*
%TA.AperFunction,ComponentPad*%
%ADD10R,1.500000X1.500000*%
%TD*%
%TA.AperFunction,ComponentPad*%
%ADD11C,1.500000*%
%TD*%
%TA.AperFunction,ComponentPad*%
%ADD12C,3.200400*%
%TD*%
%TA.AperFunction,ComponentPad*%
%ADD13C,1.600200*%
%TD*%
%TA.AperFunction,ComponentPad*%
%ADD14R,1.700000X1.700000*%
%TD*%
%TA.AperFunction,ComponentPad*%
%ADD15O,1.700000X1.700000*%
%TD*%
%TA.AperFunction,ViaPad*%
%ADD16C,0.600000*%
%TD*%
%TA.AperFunction,Conductor*%
%ADD17C,0.250000*%
%TD*%
%TA.AperFunction,Conductor*%
%ADD18C,2.000000*%
%TD*%
G04 APERTURE END LIST*
D10*
%TO.P,J3,1*%
%TO.N,ENCPOWER1*%
X172914000Y-104560000D03*
D11*
%TO.P,J3,2*%
%TO.N,GND*%
X170374000Y-103290000D03*
%TO.P,J3,3*%
%TO.N,ENC7TX{slash}RX+*%
X172914000Y-102020000D03*
%TO.P,J3,4*%
%TO.N,ENC7RX+*%
X170374000Y-100750000D03*
%TO.P,J3,5*%
%TO.N,ENC7RX-*%
X172914000Y-99480000D03*
%TO.P,J3,6*%
%TO.N,ENC7TX{slash}RX-*%
X170374000Y-98210000D03*
%TO.P,J3,7*%
%TO.N,ENCPOWER1*%
X172914000Y-96940000D03*
%TO.P,J3,8*%
%TO.N,GND*%
X170374000Y-95670000D03*
D10*
%TO.P,J3,9*%
%TO.N,ENCPOWER1*%
X163770000Y-95670000D03*
D11*
%TO.P,J3,10*%
%TO.N,GND*%
X166310000Y-96940000D03*
%TO.P,J3,11*%
%TO.N,ENC8TX{slash}RX+*%
X163770000Y-98210000D03*
%TO.P,J3,12*%
%TO.N,ENC8RX+*%
X166310000Y-99480000D03*
%TO.P,J3,13*%
%TO.N,ENC8RX-*%
X163770000Y-100750000D03*
%TO.P,J3,14*%
%TO.N,ENC8TX{slash}RX-*%
X166310000Y-102020000D03*
%TO.P,J3,15*%
%TO.N,ENCPOWER1*%
X163770000Y-103290000D03*
%TO.P,J3,16*%
%TO.N,GND*%
X166310000Y-104560000D03*
%TD*%
%TO.P,J1,1,Pin_1*%
%TO.N,ENC1TX{slash}RX+*%
X126330000Y-61400000D03*
%TO.P,J1,2,Pin_2*%
%TO.N,ENC1TX{slash}RX-*%
X128930000Y-61400000D03*
%TO.P,J1,3,Pin_3*%
%TO.N,ENC2TX{slash}RX+*%
X131530000Y-61400000D03*
%TO.P,J1,4,Pin_4*%
%TO.N,ENC2TX{slash}RX-*%
X134130000Y-61400000D03*
%TO.P,J1,5,Pin_5*%
%TO.N,ENC3TX{slash}RX+*%
X136730000Y-61400000D03*
%TO.P,J1,6,Pin_6*%
%TO.N,ENC3TX{slash}RX-*%
X139330000Y-61400000D03*
%TO.P,J1,7,Pin_7*%
%TO.N,ENC4TX{slash}RX+*%
X141930000Y-61400000D03*
%TO.P,J1,8,Pin_8*%
%TO.N,ENC4TX{slash}RX-*%
X144530000Y-61400000D03*
%TO.P,J1,9,Pin_9*%
%TO.N,ENC5TX{slash}RX+*%
X147130000Y-61400000D03*
%TO.P,J1,10,Pin_10*%
%TO.N,ENC5TX{slash}RX-*%
X149730000Y-61400000D03*
%TO.P,J1,11,Pin_11*%
%TO.N,ENC6TX{slash}RX+*%
X152330000Y-61400000D03*
%TO.P,J1,12,Pin_12*%
%TO.N,ENC6TX{slash}RX-*%
X154930000Y-61400000D03*
%TO.P,J1,13,Pin_13*%
%TO.N,ENCPOWER2*%
X157530000Y-61400000D03*
%TO.P,J1,14,Pin_14*%
X160130000Y-61400000D03*
%TO.P,J1,15,Pin_15*%
X162730000Y-61400000D03*
%TO.P,J1,16,Pin_16*%
X165330000Y-61400000D03*
%TO.P,J1,17,Pin_17*%
X167930000Y-61400000D03*
%TO.P,J1,18,Pin_18*%
X170530000Y-61400000D03*
%TO.P,J1,19,Pin_19*%
%TO.N,RDI1*%
X130200000Y-63940000D03*
%TO.P,J1,20,Pin_20*%
%TO.N,RDI2*%
X132800000Y-63940000D03*
%TO.P,J1,21,Pin_21*%
%TO.N,RDI3*%
X135400000Y-63940000D03*
%TO.P,J1,22,Pin_22*%
%TO.N,RDI4*%
X138000000Y-63940000D03*
%TO.P,J1,23,Pin_23*%
%TO.N,RDI5*%
X140600000Y-63940000D03*
%TO.P,J1,24,Pin_24*%
%TO.N,RDI6*%
X143200000Y-63940000D03*
%TO.P,J1,25,Pin_25*%
%TO.N,RDI7*%
X145800000Y-63940000D03*
%TO.P,J1,26,Pin_26*%
%TO.N,RDI8*%
X148400000Y-63940000D03*
%TO.P,J1,27,Pin_27*%
%TO.N,RDI9(PPABN)*%
X151000000Y-63940000D03*
%TO.P,J1,28,Pin_28*%
%TO.N,HBK*%
X153600000Y-63940000D03*
%TO.P,J1,29,Pin_29*%
%TO.N,ROT*%
X156200000Y-63940000D03*
%TO.P,J1,30,Pin_30*%
%TO.N,ENCPOWER1*%
X158800000Y-63940000D03*
%TO.P,J1,31,Pin_31*%
%TO.N,S2+*%
X161400000Y-63940000D03*
%TO.P,J1,32,Pin_32*%
%TO.N,S2-*%
X164000000Y-63940000D03*
%TO.P,J1,33,Pin_33*%
%TO.N,RDO1*%
X126330000Y-66480000D03*
%TO.P,J1,34,Pin_34*%
%TO.N,RDO2*%
X128930000Y-66480000D03*
%TO.P,J1,35,Pin_35*%
%TO.N,RDO3*%
X131530000Y-66480000D03*
%TO.P,J1,36,Pin_36*%
%TO.N,RDO4*%
X134130000Y-66480000D03*
%TO.P,J1,37,Pin_37*%
%TO.N,RDO5*%
X136730000Y-66480000D03*
%TO.P,J1,38,Pin_38*%
%TO.N,RDO6*%
X139330000Y-66480000D03*
%TO.P,J1,39,Pin_39*%
%TO.N,RDO7*%
X141930000Y-66480000D03*
%TO.P,J1,40,Pin_40*%
%TO.N,RDO8*%
X144530000Y-66480000D03*
%TO.P,J1,41,Pin_41*%
%TO.N,ENCPOWER1*%
X147130000Y-66480000D03*
%TO.P,J1,42,Pin_42*%
X149730000Y-66480000D03*
%TO.P,J1,43,Pin_43*%
%TO.N,GND*%
X152330000Y-66480000D03*
%TO.P,J1,44,Pin_44*%
X154930000Y-66480000D03*
%TO.P,J1,45,Pin_45*%
X157530000Y-66480000D03*
%TO.P,J1,46,Pin_46*%
X160130000Y-66480000D03*
%TO.P,J1,47,Pin_47*%
X162730000Y-66480000D03*
%TO.P,J1,48,Pin_48*%
X165330000Y-66480000D03*
%TO.P,J1,49,Pin_49*%
X167930000Y-66480000D03*
%TO.P,J1,50,Pin_50*%
X170530000Y-66480000D03*
%TD*%
D12*
%TO.P,J2,0*%
%TO.N,N/C*%
X108840000Y-112870399D03*
X108840000Y-65829599D03*
D13*
%TO.P,J2,1,1*%
%TO.N,ENCPOWER2*%
X111380000Y-104869998D03*
%TO.P,J2,2,2*%
%TO.N,ENC1TX{slash}RX-*%
X111380000Y-102579998D03*
%TO.P,J2,3,3*%
%TO.N,ENC1TX{slash}RX+*%
X111380000Y-100290000D03*
%TO.P,J2,4,4*%
%TO.N,ENC1RX-*%
X111380000Y-98000000D03*
%TO.P,J2,5,5*%
%TO.N,ENC1RX+*%
X111380000Y-95709999D03*
%TO.P,J2,6,6*%
%TO.N,ENC2TX{slash}RX-*%
X111380000Y-93419999D03*
%TO.P,J2,7,7*%
%TO.N,ENC2TX{slash}RX+*%
X111380000Y-91130001D03*
%TO.P,J2,8,8*%
%TO.N,ENC2RX-*%
X111380000Y-88840000D03*
%TO.P,J2,9,9*%
%TO.N,ENC2RX+*%
X111380000Y-86550000D03*
%TO.P,J2,10,10*%
%TO.N,ENC3TX{slash}RX-*%
X111380000Y-84259999D03*
%TO.P,J2,11,11*%
%TO.N,ENC3TX{slash}RX+*%
X111380000Y-81969999D03*
%TO.P,J2,12,12*%
%TO.N,ENC3RX-*%
X111380000Y-79680001D03*
%TO.P,J2,13,13*%
%TO.N,ENC3RX+*%
X111380000Y-77390000D03*
%TO.P,J2,14,14*%
%TO.N,ENC4TX{slash}RX-*%
X111380000Y-75100000D03*
%TO.P,J2,15,15*%
%TO.N,ENC4TX{slash}RX+*%
X111380000Y-72809999D03*
%TO.P,J2,16,16*%
%TO.N,GND*%
X108840000Y-106015000D03*
%TO.P,J2,17,17*%
%TO.N,ENC4RX-*%
X108840000Y-103724999D03*
%TO.P,J2,18,18*%
%TO.N,ENC4RX+*%
X108840000Y-101434999D03*
%TO.P,J2,19,19*%
%TO.N,ENC5TX{slash}RX-*%
X108840000Y-99144998D03*
%TO.P,J2,20,20*%
%TO.N,ENC5TX{slash}RX+*%
X108840000Y-96854998D03*
%TO.P,J2,21,21*%
%TO.N,ENC5RX-*%
X108840000Y-94565000D03*
%TO.P,J2,22,22*%
%TO.N,ENC5RX+*%
X108840000Y-92275000D03*
%TO.P,J2,23,23*%
%TO.N,ENC6TX{slash}RX-*%
X108840000Y-89984999D03*
%TO.P,J2,24,24*%
%TO.N,ENC6TX{slash}RX+*%
X108840000Y-87694999D03*
%TO.P,J2,25,25*%
%TO.N,ENC6RX-*%
X108840000Y-85405001D03*
%TO.P,J2,26,26*%
%TO.N,ENC6RX+*%
X108840000Y-83115000D03*
%TO.P,J2,27,27*%
%TO.N,ENC7TX{slash}RX-*%
X108840000Y-80825000D03*
%TO.P,J2,28,28*%
%TO.N,ENC7TX{slash}RX+*%
X108840000Y-78534999D03*
%TO.P,J2,29,29*%
%TO.N,ENC7RX-*%
X108840000Y-76244999D03*
%TO.P,J2,30,30*%
%TO.N,ENC7RX+*%
X108840000Y-73955001D03*
%TO.P,J2,31,31*%
%TO.N,ENC8TX{slash}RX-*%
X106300000Y-104869998D03*
%TO.P,J2,32,32*%
%TO.N,ENC8TX{slash}RX+*%
X106300000Y-102579998D03*
%TO.P,J2,33,33*%
%TO.N,ENC8RX-*%
X106300000Y-100290000D03*
%TO.P,J2,34,34*%
%TO.N,ENC8RX+*%
X106300000Y-98000000D03*
%TO.P,J2,35,35*%
%TO.N,ENC9TX{slash}RX-*%
X106300000Y-95709999D03*
%TO.P,J2,36,36*%
%TO.N,ENC9TX{slash}RX+*%
X106300000Y-93419999D03*
%TO.P,J2,37,37*%
%TO.N,ENC9RX-*%
X106300000Y-91130001D03*
%TO.P,J2,38,38*%
%TO.N,ENC9RX+*%
X106300000Y-88840000D03*
%TO.P,J2,39,39*%
%TO.N,ENC10TX{slash}RX-*%
X106300000Y-86550000D03*
%TO.P,J2,40,40*%
%TO.N,ENC10TX{slash}RX+*%
X106300000Y-84259999D03*
%TO.P,J2,41,41*%
%TO.N,ENC10RX-*%
X106300000Y-81969999D03*
%TO.P,J2,42,42*%
%TO.N,ENC10RX+*%
X106300000Y-79680001D03*
%TO.P,J2,43,43*%
%TO.N,ENCPOWER1*%
X106300000Y-77390000D03*
%TO.P,J2,44,44*%
%TO.N,GND*%
X106300000Y-75100000D03*
%TD*%
D10*
%TO.P,J4,1*%
%TO.N,ENCPOWER1*%
X172914000Y-86945000D03*
D11*
%TO.P,J4,2*%
%TO.N,GND*%
X170374000Y-85675000D03*
%TO.P,J4,3*%
%TO.N,ENC9TX{slash}RX+*%
X172914000Y-84405000D03*
%TO.P,J4,4*%
%TO.N,ENC9RX+*%
X170374000Y-83135000D03*
%TO.P,J4,5*%
%TO.N,ENC9RX-*%
X172914000Y-81865000D03*
%TO.P,J4,6*%
%TO.N,ENC9TX{slash}RX-*%
X170374000Y-80595000D03*
%TO.P,J4,7*%
%TO.N,ENCPOWER1*%
X172914000Y-79325000D03*
%TO.P,J4,8*%
%TO.N,GND*%
X170374000Y-78055000D03*
D10*
%TO.P,J4,9*%
%TO.N,ENCPOWER1*%
X163770000Y-78055000D03*
D11*
%TO.P,J4,10*%
%TO.N,GND*%
X166310000Y-79325000D03*
%TO.P,J4,11*%
%TO.N,ENC10TX{slash}RX+*%
X163770000Y-80595000D03*
%TO.P,J4,12*%
%TO.N,ENC10RX+*%
X166310000Y-81865000D03*
%TO.P,J4,13*%
%TO.N,ENC10RX-*%
X163770000Y-83135000D03*
%TO.P,J4,14*%
%TO.N,ENC10TX{slash}RX-*%
X166310000Y-84405000D03*
%TO.P,J4,15*%
%TO.N,ENCPOWER1*%
X163770000Y-85675000D03*
%TO.P,J4,16*%
%TO.N,GND*%
X166310000Y-86945000D03*
%TD*%
D14*
%TO.P,J5,1,Pin_1*%
%TO.N,RDI1*%
X126341697Y-85903144D03*
D15*
%TO.P,J5,2,Pin_2*%
%TO.N,RDO1*%
X126341697Y-83363144D03*
%TO.P,J5,3,Pin_3*%
%TO.N,RDI2*%
X128881697Y-85903144D03*
%TO.P,J5,4,Pin_4*%
%TO.N,RDO2*%
X128881697Y-83363144D03*
%TO.P,J5,5,Pin_5*%
%TO.N,RDI3*%
X131421697Y-85903144D03*
%TO.P,J5,6,Pin_6*%
%TO.N,RDO3*%
X131421697Y-83363144D03*
%TO.P,J5,7,Pin_7*%
%TO.N,RDI4*%
X133961697Y-85903144D03*
%TO.P,J5,8,Pin_8*%
%TO.N,RDO4*%
X133961697Y-83363144D03*
%TO.P,J5,9,Pin_9*%
%TO.N,RDI5*%
X136501697Y-85903144D03*
%TO.P,J5,10,Pin_10*%
%TO.N,RDO5*%
X136501697Y-83363144D03*
%TO.P,J5,11,Pin_11*%
%TO.N,RDI6*%
X139041697Y-85903144D03*
%TO.P,J5,12,Pin_12*%
%TO.N,RDO6*%
X139041697Y-83363144D03*
%TO.P,J5,13,Pin_13*%
%TO.N,RDI7*%
X141581697Y-85903144D03*
%TO.P,J5,14,Pin_14*%
%TO.N,RDO7*%
X141581697Y-83363144D03*
%TO.P,J5,15,Pin_15*%
%TO.N,RDI8*%
X144121697Y-85903144D03*
%TO.P,J5,16,Pin_16*%
%TO.N,RDO8*%
X144121697Y-83363144D03*
%TO.P,J5,17,Pin_17*%
%TO.N,RDI9(PPABN)*%
X146661697Y-85903144D03*
%TO.P,J5,18,Pin_18*%
%TO.N,S2+*%
X146661697Y-83363144D03*
%TO.P,J5,19,Pin_19*%
%TO.N,HBK*%
X149201697Y-85903144D03*
%TO.P,J5,20,Pin_20*%
%TO.N,S2-*%
X149201697Y-83363144D03*
%TO.P,J5,21,Pin_21*%
%TO.N,ROT*%
X151741697Y-85903144D03*
%TO.P,J5,22,Pin_22*%
%TO.N,unconnected-(J5-Pin_22-Pad22)*%
X151741697Y-83363144D03*
%TO.P,J5,23,Pin_23*%
%TO.N,GND*%
X154281697Y-85903144D03*
%TO.P,J5,24,Pin_24*%
%TO.N,ENCPOWER1*%
X154281697Y-83363144D03*
%TD*%
D14*
%TO.P,J5,1,Pin_1*%
%TO.N,RDI1*%
X126340000Y-85900000D03*
D15*
%TO.P,J5,2,Pin_2*%
%TO.N,RDO1*%
X126340000Y-83360000D03*
%TO.P,J5,3,Pin_3*%
%TO.N,RDI2*%
X128880000Y-85900000D03*
%TO.P,J5,4,Pin_4*%
%TO.N,RDO2*%
X128880000Y-83360000D03*
%TO.P,J5,5,Pin_5*%
%TO.N,RDI3*%
X131420000Y-85900000D03*
%TO.P,J5,6,Pin_6*%
%TO.N,RDO3*%
X131420000Y-83360000D03*
%TO.P,J5,7,Pin_7*%
%TO.N,RDI4*%
X133960000Y-85900000D03*
%TO.P,J5,8,Pin_8*%
%TO.N,RDO4*%
X133960000Y-83360000D03*
%TO.P,J5,9,Pin_9*%
%TO.N,RDI5*%
X136500000Y-85900000D03*
%TO.P,J5,10,Pin_10*%
%TO.N,RDO5*%
X136500000Y-83360000D03*
%TO.P,J5,11,Pin_11*%
%TO.N,RDI6*%
X139040000Y-85900000D03*
%TO.P,J5,12,Pin_12*%
%TO.N,RDO6*%
X139040000Y-83360000D03*
%TO.P,J5,13,Pin_13*%
%TO.N,RDI7*%
X141580000Y-85900000D03*
%TO.P,J5,14,Pin_14*%
%TO.N,RDO7*%
X141580000Y-83360000D03*
%TO.P,J5,15,Pin_15*%
%TO.N,RDI8*%
X144120000Y-85900000D03*
%TO.P,J5,16,Pin_16*%
%TO.N,RDO8*%
X144120000Y-83360000D03*
%TO.P,J5,17,Pin_17*%
%TO.N,RDI9(PPABN)*%
X146660000Y-85900000D03*
%TO.P,J5,18,Pin_18*%
%TO.N,S2+*%
X146660000Y-83360000D03*
%TO.P,J5,19,Pin_19*%
%TO.N,HBK*%
X149200000Y-85900000D03*
%TO.P,J5,20,Pin_20*%
%TO.N,S2-*%
X149200000Y-83360000D03*
%TO.P,J5,21,Pin_21*%
%TO.N,ROT*%
X151740000Y-85900000D03*
%TO.P,J5,22,Pin_22*%
%TO.N,unconnected-(J5-Pin_22-Pad22)*%
X151740000Y-83360000D03*
%TO.P,J5,23,Pin_23*%
%TO.N,GND*%
X154280000Y-85900000D03*
%TO.P,J5,24,Pin_24*%
%TO.N,ENCPOWER1*%
X154280000Y-83360000D03*
%TD*%
D16*
%TO.N,ENC8RX+*%
X158200000Y-110100000D03*
%TO.N,ENCPOWER2*%
X174405135Y-58893865D03*
%TO.N,ENC6TX{slash}RX-*%
X147650940Y-58230659D03*
X118244209Y-58199114D03*
X118242438Y-84048293D03*
%TO.N,ENC8TX{slash}RX+*%
X160925000Y-107500000D03*
X158200000Y-108499994D03*
%TO.N,ENC2TX{slash}RX+*%
X122225000Y-88700000D03*
%TO.N,ENC3TX{slash}RX-*%
X120534313Y-77165687D03*
%TO.N,ENC10TX{slash}RX-*%
X165629442Y-83429442D03*
X165200000Y-80600000D03*
%TO.N,ENC8RX-*%
X158200000Y-109299997D03*
%TO.N,ENC1TX{slash}RX-*%
X122900000Y-90400000D03*
%TO.N,ENC7TX{slash}RX+*%
X152265687Y-112275000D03*
%TO.N,GND*%
X101700000Y-112000000D03*
%TO.N,ENC9RX+*%
X113991942Y-112908058D03*
X177600000Y-80700000D03*
%TO.N,ENC1TX{slash}RX+*%
X123475000Y-89834313D03*
%TO.N,ENC7RX+*%
X115704029Y-80012087D03*
X154044745Y-110837821D03*
%TO.N,ENC7RX-*%
X115138342Y-80577774D03*
X153595832Y-111500000D03*
%TO.N,ENC8TX{slash}RX-*%
X158200000Y-107700000D03*
%TO.N,ENC9TX{slash}RX+*%
X177400000Y-84400000D03*
X129200000Y-114750000D03*
%TO.N,ENC2TX{slash}RX-*%
X121642438Y-89248294D03*
%TO.N,ENC5TX{slash}RX-*%
X119334313Y-92765687D03*
%TO.N,ENC5TX{slash}RX+*%
X119900000Y-92200000D03*
%TO.N,ENC9TX{slash}RX-*%
X129915544Y-114300000D03*
X180750000Y-85025000D03*
%TO.N,ENC7TX{slash}RX-*%
X151700000Y-112900000D03*
X171600000Y-106400000D03*
%TO.N,ENC4TX{slash}RX-*%
X119400000Y-69203870D03*
%TO.N,ENC9RX-*%
X178358949Y-81325000D03*
X114841942Y-113658058D03*
%TO.N,ENC4TX{slash}RX+*%
X120025000Y-68700000D03*
%TO.N,ENC10TX{slash}RX+*%
X114300000Y-115100000D03*
X157400000Y-115200000D03*
%TO.N,ENC3TX{slash}RX+*%
X121100000Y-76600000D03*
%TO.N,ENC6TX{slash}RX+*%
X118825000Y-83500000D03*
%TO.N,HBK*%
X152300000Y-78000000D03*
%TO.N,ROT*%
X156200000Y-76100000D03*
%TO.N,RDI9(PPABN)*%
X149600000Y-78500000D03*
%TD*%
D17*
%TO.N,ENC9TX{slash}RX-*%
X170374000Y-80344720D02*
X170374000Y-80595000D01*
X176167833Y-78250000D02*
X172468720Y-78250000D01*
X179100000Y-83375000D02*
X179100000Y-81182167D01*
X180750000Y-85025000D02*
X179100000Y-83375000D01*
X179100000Y-81182167D02*
X176167833Y-78250000D01*
X172468720Y-78250000D02*
X170374000Y-80344720D01*
%TO.N,ENC8RX+*%
X103825000Y-105408832D02*
X106811367Y-108395199D01*
X103825000Y-102200000D02*
X103825000Y-105408832D01*
X110200000Y-108395199D02*
X110695199Y-107900000D01*
X124399428Y-107900000D02*
X131424428Y-114925000D01*
X106811367Y-108395199D02*
X110200000Y-108395199D01*
X106300000Y-98000000D02*
X103825000Y-100475000D01*
X153375000Y-114925000D02*
X158200000Y-110100000D01*
X110695199Y-107900000D02*
X114900000Y-107900000D01*
X131424428Y-114925000D02*
X133400000Y-114925000D01*
X133400000Y-114925000D02*
X153375000Y-114925000D01*
X114900000Y-107900000D02*
X124399428Y-107900000D01*
X103825000Y-100475000D02*
X103825000Y-102200000D01*
%TO.N,ENC10RX-*%
X105700000Y-114863604D02*
X106661396Y-115825000D01*
X106300000Y-81969999D02*
X104646398Y-81969999D01*
X100675000Y-108438604D02*
X105700000Y-113463604D01*
X106661396Y-115825000D02*
X157966116Y-115825000D01*
X104646398Y-81969999D02*
X100675000Y-85941397D01*
X162695000Y-87633884D02*
X162695000Y-84210000D01*
X159850000Y-113941116D02*
X159850000Y-90478884D01*
X162695000Y-84210000D02*
X163770000Y-83135000D01*
X100675000Y-85941397D02*
X100675000Y-108438604D01*
X157966116Y-115825000D02*
X159850000Y-113941116D01*
X159850000Y-90478884D02*
X162695000Y-87633884D01*
X105700000Y-113463604D02*
X105700000Y-114863604D01*
D18*
%TO.N,ENCPOWER2*%
X174405135Y-58893865D02*
X174482595Y-58893865D01*
X174405135Y-58893865D02*
X171899000Y-61400000D01*
X157530000Y-61400000D02*
X170530000Y-61400000D01*
X171899000Y-61400000D02*
X170530000Y-61400000D01*
D17*
%TO.N,ENC6TX{slash}RX-*%
X149295281Y-59875000D02*
X147650940Y-58230659D01*
X116450000Y-59993323D02*
X118244209Y-58199114D01*
X153405000Y-59875000D02*
X150100000Y-59875000D01*
X118242438Y-84048293D02*
X118200000Y-84005855D01*
X118400000Y-70996942D02*
X116450000Y-69046942D01*
X118200000Y-83241116D02*
X118400000Y-83041116D01*
X118200000Y-84005855D02*
X118200000Y-83241116D01*
X116450000Y-69046942D02*
X116450000Y-59993323D01*
X154930000Y-61400000D02*
X153405000Y-59875000D01*
X150100000Y-59875000D02*
X149295281Y-59875000D01*
X118400000Y-83041116D02*
X118400000Y-70996942D01*
%TO.N,ENC8TX{slash}RX+*%
X105174900Y-105336030D02*
X105174900Y-103705098D01*
X152591113Y-114025000D02*
X132100000Y-114025000D01*
X158116119Y-108499994D02*
X152591113Y-114025000D01*
X125075000Y-107000000D02*
X110322407Y-107000000D01*
X161000000Y-100980000D02*
X163770000Y-98210000D01*
X132100000Y-114025000D02*
X125075000Y-107000000D01*
X158200000Y-108499994D02*
X158116119Y-108499994D01*
X105174900Y-103705098D02*
X106300000Y-102579998D01*
X160925000Y-107500000D02*
X161000000Y-107425000D01*
X109922407Y-107400000D02*
X107238870Y-107400000D01*
X161000000Y-107425000D02*
X161000000Y-100980000D01*
X110322407Y-107000000D02*
X109922407Y-107400000D01*
X107238870Y-107400000D02*
X105174900Y-105336030D01*
%TO.N,ENC2TX{slash}RX+*%
X124750000Y-60823324D02*
X124750000Y-64413604D01*
X122175000Y-88650000D02*
X122225000Y-88700000D01*
X124750000Y-64413604D02*
X122175000Y-66988604D01*
X131530000Y-61400000D02*
X130005000Y-59875000D01*
X122175000Y-66988604D02*
X122175000Y-88650000D01*
X125698324Y-59875000D02*
X124750000Y-60823324D01*
X130005000Y-59875000D02*
X125698324Y-59875000D01*
%TO.N,ENC3TX{slash}RX-*%
X120475000Y-76341116D02*
X120475000Y-77106374D01*
X136455000Y-58525000D02*
X125139136Y-58525000D01*
X123400000Y-63854416D02*
X120650000Y-66604416D01*
X125139136Y-58525000D02*
X123400000Y-60264136D01*
X139330000Y-61400000D02*
X136455000Y-58525000D01*
X123400000Y-60264136D02*
X123400000Y-63854416D01*
X120650000Y-66604416D02*
X120650000Y-76166116D01*
X120650000Y-76166116D02*
X120475000Y-76341116D01*
X120475000Y-77106374D02*
X120534313Y-77165687D01*
%TO.N,ENC10TX{slash}RX-*%
X158900000Y-84828604D02*
X158900000Y-113618324D01*
X158900000Y-113618324D02*
X158009162Y-114509162D01*
X166310000Y-84405000D02*
X166310000Y-84110000D01*
X101575000Y-91275000D02*
X106300000Y-86550000D01*
X162264302Y-80535698D02*
X162264302Y-81464302D01*
X158009162Y-114509162D02*
X157206954Y-114509162D01*
X101575000Y-106340812D02*
X101575000Y-91275000D01*
X157206954Y-114509162D02*
X156341116Y-115375000D01*
X165200000Y-80504720D02*
X164215280Y-79520000D01*
X166310000Y-84110000D02*
X165629442Y-83429442D01*
X156341116Y-115375000D02*
X115575000Y-115375000D01*
X110845199Y-110645199D02*
X105879387Y-110645199D01*
X165200000Y-80600000D02*
X165200000Y-80504720D01*
X163280000Y-79520000D02*
X162264302Y-80535698D01*
X105879387Y-110645199D02*
X101575000Y-106340812D01*
X162264302Y-81464302D02*
X158900000Y-84828604D01*
X166310000Y-84405000D02*
X166310000Y-84760000D01*
X164215280Y-79520000D02*
X163280000Y-79520000D01*
X115575000Y-115375000D02*
X110845199Y-110645199D01*
%TO.N,ENC8RX-*%
X124585824Y-107450000D02*
X131610824Y-114475000D01*
X110508803Y-107450000D02*
X124585824Y-107450000D01*
X110013604Y-107945199D02*
X110508803Y-107450000D01*
X104275000Y-105222436D02*
X106997763Y-107945199D01*
X106300000Y-100290000D02*
X104646396Y-100290000D01*
X106997763Y-107945199D02*
X110013604Y-107945199D01*
X131610824Y-114475000D02*
X153188604Y-114475000D01*
X104275000Y-100661396D02*
X104275000Y-105222436D01*
X104646396Y-100290000D02*
X104275000Y-100661396D01*
X157575000Y-110088604D02*
X157575000Y-109841116D01*
X157575000Y-109841116D02*
X158116119Y-109299997D01*
X158116119Y-109299997D02*
X158200000Y-109299997D01*
X153188604Y-114475000D02*
X157575000Y-110088604D01*
%TO.N,ENC1TX{slash}RX-*%
X122850000Y-90350000D02*
X122850000Y-66950000D01*
X122850000Y-66950000D02*
X125200000Y-64600000D01*
X125884720Y-60325000D02*
X127855000Y-60325000D01*
X125200000Y-64600000D02*
X125200000Y-61009720D01*
X127855000Y-60325000D02*
X128930000Y-61400000D01*
X125200000Y-61009720D02*
X125884720Y-60325000D01*
X122900000Y-90400000D02*
X122850000Y-90350000D01*
%TO.N,ENC7TX{slash}RX+*%
X132786396Y-112450000D02*
X116200000Y-95863604D01*
X116200000Y-95863604D02*
X116200000Y-83700000D01*
X116200000Y-83700000D02*
X113305101Y-80805101D01*
X151441116Y-112275000D02*
X151266116Y-112450000D01*
X110913968Y-80805101D02*
X108840000Y-78731133D01*
X113305101Y-80805101D02*
X110913968Y-80805101D01*
X108840000Y-78731133D02*
X108840000Y-78534999D01*
X151266116Y-112450000D02*
X132786396Y-112450000D01*
X152265687Y-112275000D02*
X151441116Y-112275000D01*
D18*
%TO.N,GND*%
X161000000Y-76925000D02*
X162625000Y-75300000D01*
X168300000Y-86900000D02*
X168300000Y-95800000D01*
X166310000Y-96940000D02*
X168140000Y-96940000D01*
X154280000Y-85900000D02*
X154639138Y-85900000D01*
X166527717Y-104560000D02*
X166310000Y-104560000D01*
X166310000Y-79325000D02*
X168225000Y-79325000D01*
X168430000Y-95670000D02*
X168300000Y-95800000D01*
X101700000Y-112000000D02*
X100100000Y-112000000D01*
X170374000Y-85675000D02*
X168325000Y-85675000D01*
X168355000Y-78055000D02*
X168300000Y-78000000D01*
X168255000Y-86945000D02*
X168300000Y-86900000D01*
X173600000Y-66500000D02*
X173600000Y-70000000D01*
X168300000Y-102787717D02*
X166527717Y-104560000D01*
X176262000Y-66500000D02*
X173600000Y-66500000D01*
X152330000Y-66480000D02*
X173580000Y-66480000D01*
X100100000Y-112000000D02*
X98900000Y-110800000D01*
X112500000Y-54500000D02*
X173800000Y-54500000D01*
X168300000Y-95800000D02*
X168300000Y-97100000D01*
X173800000Y-54500000D02*
X179578000Y-60278000D01*
X168325000Y-85675000D02*
X168300000Y-85700000D01*
X179578000Y-60278000D02*
X179578000Y-63184000D01*
X170374000Y-95670000D02*
X168430000Y-95670000D01*
X179578000Y-63184000D02*
X176262000Y-66500000D01*
X161000000Y-79539138D02*
X161000000Y-76925000D01*
X168300000Y-97100000D02*
X168300000Y-102787717D01*
X173600000Y-70000000D02*
X168300000Y-75300000D01*
X173580000Y-66480000D02*
X173600000Y-66500000D01*
X168225000Y-79325000D02*
X168300000Y-79400000D01*
X106300000Y-75100000D02*
X104300000Y-73100000D01*
X98900000Y-110800000D02*
X98900000Y-78500000D01*
X168300000Y-75300000D02*
X168300000Y-78000000D01*
X162625000Y-75300000D02*
X168300000Y-75300000D01*
X168140000Y-96940000D02*
X168300000Y-97100000D01*
X104300000Y-73100000D02*
X104300000Y-62700000D01*
X168300000Y-85700000D02*
X168300000Y-86900000D01*
X170374000Y-103290000D02*
X168802283Y-103290000D01*
X98900000Y-78500000D02*
X104300000Y-73100000D01*
X168802283Y-103290000D02*
X168300000Y-102787717D01*
X168300000Y-79400000D02*
X168300000Y-85700000D01*
X168300000Y-78000000D02*
X168300000Y-79400000D01*
X166310000Y-86945000D02*
X168255000Y-86945000D01*
X104300000Y-62700000D02*
X112500000Y-54500000D01*
X154639138Y-85900000D02*
X161000000Y-79539138D01*
X170374000Y-78055000D02*
X168355000Y-78055000D01*
D17*
%TO.N,ENC9RX+*%
X177600000Y-80700000D02*
X172558720Y-80700000D01*
X106065783Y-110195199D02*
X111279083Y-110195199D01*
X172558720Y-80700000D02*
X170374000Y-82884720D01*
X106300000Y-88840000D02*
X102025000Y-93115000D01*
X170374000Y-82884720D02*
X170374000Y-83135000D01*
X102025000Y-93115000D02*
X102025000Y-106154416D01*
X102025000Y-106154416D02*
X106065783Y-110195199D01*
X111279083Y-110195199D02*
X113991942Y-112908058D01*
%TO.N,ENC1TX{slash}RX+*%
X126330000Y-64570000D02*
X126330000Y-61400000D01*
X123300000Y-67600000D02*
X126330000Y-64570000D01*
X123300000Y-89659313D02*
X123300000Y-67600000D01*
X123475000Y-89834313D02*
X123300000Y-89659313D01*
%TO.N,ENC7RX+*%
X115704029Y-80012087D02*
X117450000Y-81758058D01*
X117450000Y-81758058D02*
X117450000Y-95613604D01*
X153362179Y-110837821D02*
X154044745Y-110837821D01*
X153000000Y-111200000D02*
X153362179Y-110837821D01*
X133186396Y-111350000D02*
X151670407Y-111350000D01*
X151670407Y-111350000D02*
X151820407Y-111200000D01*
X151820407Y-111200000D02*
X153000000Y-111200000D01*
X117450000Y-95613604D02*
X133186396Y-111350000D01*
%TO.N,ENC7RX-*%
X153445832Y-111650000D02*
X153595832Y-111500000D01*
X117000000Y-81944454D02*
X117000000Y-95800000D01*
X133000000Y-111800000D02*
X151856803Y-111800000D01*
X115393626Y-80833058D02*
X115888604Y-80833058D01*
X151856803Y-111800000D02*
X152006803Y-111650000D01*
X115138342Y-80577774D02*
X115393626Y-80833058D01*
X152006803Y-111650000D02*
X153445832Y-111650000D01*
X117000000Y-95800000D02*
X133000000Y-111800000D01*
X115888604Y-80833058D02*
X117000000Y-81944454D01*
%TO.N,ENC8TX{slash}RX-*%
X109286130Y-104869998D02*
X110966132Y-106550000D01*
X110966132Y-106550000D02*
X125261396Y-106550000D01*
X106300000Y-104869998D02*
X109286130Y-104869998D01*
X157575000Y-108241110D02*
X158116110Y-107700000D01*
X152404717Y-113575000D02*
X157575000Y-108404717D01*
X157575000Y-108404717D02*
X157575000Y-108241110D01*
X158116110Y-107700000D02*
X158200000Y-107700000D01*
X125261396Y-106550000D02*
X132286396Y-113575000D01*
X132286396Y-113575000D02*
X152404717Y-113575000D01*
%TO.N,ENC9TX{slash}RX+*%
X111899363Y-109295199D02*
X112394562Y-108800000D01*
X108700000Y-109295199D02*
X111899363Y-109295199D01*
X106438575Y-109295199D02*
X108700000Y-109295199D01*
X102925000Y-105781624D02*
X105721688Y-108578312D01*
X102925000Y-104200000D02*
X102925000Y-105781624D01*
X105721688Y-108578312D02*
X106438575Y-109295199D01*
X177400000Y-84400000D02*
X177395000Y-84405000D01*
X177395000Y-84405000D02*
X172914000Y-84405000D01*
X122900000Y-108800000D02*
X128850000Y-114750000D01*
X102925000Y-96794999D02*
X102925000Y-104200000D01*
X112394562Y-108800000D02*
X122900000Y-108800000D01*
X128850000Y-114750000D02*
X129200000Y-114750000D01*
X106300000Y-93419999D02*
X102925000Y-96794999D01*
%TO.N,ENC2TX{slash}RX-*%
X121642438Y-89248294D02*
X121600000Y-89205856D01*
X132155000Y-59425000D02*
X134130000Y-61400000D01*
X121725000Y-66802208D02*
X124300000Y-64227208D01*
X124300000Y-60636928D02*
X125511928Y-59425000D01*
X125511928Y-59425000D02*
X132155000Y-59425000D01*
X121725000Y-88316116D02*
X121725000Y-66802208D01*
X121600000Y-89205856D02*
X121600000Y-88441116D01*
X121600000Y-88441116D02*
X121725000Y-88316116D01*
X124300000Y-64227208D02*
X124300000Y-60636928D01*
%TO.N,ENC5TX{slash}RX-*%
X124393552Y-56725000D02*
X144625000Y-56725000D01*
X122068552Y-59050000D02*
X124393552Y-56725000D01*
X117350000Y-68674150D02*
X117350000Y-60613604D01*
X149300000Y-61400000D02*
X149730000Y-61400000D01*
X119450000Y-91766116D02*
X119450000Y-70774150D01*
X119275000Y-92706374D02*
X119275000Y-91941116D01*
X144625000Y-56725000D02*
X149300000Y-61400000D01*
X119275000Y-91941116D02*
X119450000Y-91766116D01*
X118913604Y-59050000D02*
X122068552Y-59050000D01*
X119450000Y-70774150D02*
X117350000Y-68674150D01*
X117350000Y-60613604D02*
X118913604Y-59050000D01*
X119334313Y-92765687D02*
X119275000Y-92706374D01*
%TO.N,ENC5TX{slash}RX+*%
X117800000Y-60800000D02*
X119100000Y-59500000D01*
X119900000Y-92200000D02*
X119900000Y-70587754D01*
X124579948Y-57175000D02*
X142905000Y-57175000D01*
X117800000Y-68487754D02*
X117800000Y-60800000D01*
X119100000Y-59500000D02*
X122254948Y-59500000D01*
X122254948Y-59500000D02*
X124579948Y-57175000D01*
X119900000Y-70587754D02*
X117800000Y-68487754D01*
X142905000Y-57175000D02*
X147130000Y-61400000D01*
%TO.N,ENC9TX{slash}RX-*%
X103375000Y-96981395D02*
X104646396Y-95709999D01*
X123086396Y-108350000D02*
X111895199Y-108350000D01*
X111400000Y-108845199D02*
X106624971Y-108845199D01*
X103375000Y-105595228D02*
X103375000Y-96981395D01*
X128818198Y-114081802D02*
X123086396Y-108350000D01*
X111895199Y-108350000D02*
X111400000Y-108845199D01*
X129697346Y-114081802D02*
X128818198Y-114081802D01*
X104646396Y-95709999D02*
X106300000Y-95709999D01*
X106624971Y-108845199D02*
X103375000Y-105595228D01*
X129915544Y-114300000D02*
X129697346Y-114081802D01*
%TO.N,ENC7TX{slash}RX-*%
X108840000Y-81021131D02*
X110918869Y-83100000D01*
X115731802Y-83868198D02*
X115731802Y-96031802D01*
X171600000Y-106400000D02*
X171699000Y-106301000D01*
X132300000Y-112600000D02*
X132600000Y-112900000D01*
X110918869Y-83100000D02*
X114963604Y-83100000D01*
X114963604Y-83100000D02*
X115731802Y-83868198D01*
X171699000Y-106301000D02*
X171699000Y-99535000D01*
X171699000Y-99535000D02*
X170374000Y-98210000D01*
X108840000Y-80825000D02*
X108840000Y-81021131D01*
X132600000Y-112900000D02*
X151700000Y-112900000D01*
X115731802Y-96031802D02*
X132300000Y-112600000D01*
%TO.N,ENC4TX{slash}RX-*%
X140755000Y-57625000D02*
X144530000Y-61400000D01*
X124766344Y-57625000D02*
X140755000Y-57625000D01*
X122500000Y-63481624D02*
X122500000Y-59891344D01*
X119400000Y-68441116D02*
X119575000Y-68266116D01*
X119575000Y-66406624D02*
X122500000Y-63481624D01*
X119575000Y-68266116D02*
X119575000Y-66406624D01*
X119400000Y-69203870D02*
X119400000Y-68441116D01*
X122500000Y-59891344D02*
X124766344Y-57625000D01*
%TO.N,ENC9RX-*%
X104646395Y-91130001D02*
X106300000Y-91130001D01*
X111465479Y-109745199D02*
X106252179Y-109745199D01*
X173454000Y-81325000D02*
X178358949Y-81325000D01*
X114841942Y-112874174D02*
X114107628Y-112139860D01*
X102475000Y-105968020D02*
X102475000Y-93301396D01*
X113860140Y-112139860D02*
X111465479Y-109745199D01*
X172914000Y-81865000D02*
X173454000Y-81325000D01*
X114107628Y-112139860D02*
X113860140Y-112139860D01*
X102475000Y-93301396D02*
X104646395Y-91130001D01*
X114841942Y-113658058D02*
X114841942Y-112874174D01*
X106252179Y-109745199D02*
X102475000Y-105968020D01*
%TO.N,ENC4TX{slash}RX+*%
X141930000Y-61400000D02*
X138605000Y-58075000D01*
X122950000Y-60077740D02*
X122950000Y-63668020D01*
X138605000Y-58075000D02*
X124952740Y-58075000D01*
X120025000Y-66593020D02*
X120025000Y-68700000D01*
X124952740Y-58075000D02*
X122950000Y-60077740D01*
X122950000Y-63668020D02*
X120025000Y-66593020D01*
%TO.N,ENC10TX{slash}RX+*%
X101125000Y-108252208D02*
X106500000Y-113627208D01*
X107300000Y-115100000D02*
X114300000Y-115100000D01*
X106500000Y-113627208D02*
X106500000Y-114300000D01*
X159400000Y-113754720D02*
X159400000Y-84965000D01*
X106300000Y-84259999D02*
X101125000Y-89434999D01*
X101125000Y-89434999D02*
X101125000Y-108252208D01*
X157954720Y-115200000D02*
X159400000Y-113754720D01*
X106500000Y-114300000D02*
X107300000Y-115100000D01*
X106300000Y-84259999D02*
X105940001Y-84259999D01*
X157400000Y-115200000D02*
X157954720Y-115200000D01*
X159400000Y-84965000D02*
X163770000Y-80595000D01*
%TO.N,ENC3TX{slash}RX+*%
X125325532Y-58975000D02*
X123850000Y-60450532D01*
X123850000Y-63500000D02*
X123850000Y-64040812D01*
X127800000Y-58975000D02*
X125325532Y-58975000D01*
X121695406Y-66195406D02*
X121100000Y-66790812D01*
X121100000Y-66790812D02*
X121100000Y-76600000D01*
X123850000Y-60450532D02*
X123850000Y-63500000D01*
X123850000Y-64040812D02*
X121695406Y-66195406D01*
X134305000Y-58975000D02*
X127800000Y-58975000D01*
X136730000Y-61400000D02*
X134305000Y-58975000D01*
%TO.N,ENC10RX+*%
X160300000Y-114375000D02*
X160300000Y-90665280D01*
X166310000Y-82115280D02*
X166310000Y-81865000D01*
X164845000Y-83330000D02*
X166310000Y-81865000D01*
X100225000Y-108625000D02*
X105200000Y-113600000D01*
X164845000Y-86120280D02*
X164845000Y-83330000D01*
X160300000Y-90665280D02*
X164845000Y-86120280D01*
X105200000Y-115000000D02*
X106475000Y-116275000D01*
X106475000Y-116275000D02*
X158400000Y-116275000D01*
X105200000Y-113600000D02*
X105200000Y-115000000D01*
X158400000Y-116275000D02*
X160300000Y-114375000D01*
X100225000Y-85755001D02*
X100225000Y-108625000D01*
X106300000Y-79680001D02*
X100225000Y-85755001D01*
%TO.N,ENC6TX{slash}RX+*%
X151250280Y-61400000D02*
X152330000Y-61400000D01*
X118850000Y-83475000D02*
X118850000Y-70810546D01*
X148861396Y-60325000D02*
X150175280Y-60325000D01*
X118825000Y-83500000D02*
X118850000Y-83475000D01*
X144811396Y-56275000D02*
X148861396Y-60325000D01*
X116900000Y-60427208D02*
X121052208Y-56275000D01*
X150175280Y-60325000D02*
X151250280Y-61400000D01*
X116900000Y-68860546D02*
X116900000Y-60427208D01*
X118850000Y-70810546D02*
X116900000Y-68860546D01*
X121052208Y-56275000D02*
X144811396Y-56275000D01*
%TO.N,HBK*%
X152300000Y-78000000D02*
X150375000Y-79925000D01*
X150375000Y-84725000D02*
X149200000Y-85900000D01*
X150375000Y-79925000D02*
X150375000Y-84725000D01*
%TO.N,ROT*%
X156200000Y-76100000D02*
X156200000Y-79600000D01*
X152915000Y-82885000D02*
X152915000Y-84725000D01*
X152915000Y-84725000D02*
X151740000Y-85900000D01*
X156200000Y-79600000D02*
X152915000Y-82885000D01*
%TO.N,RDI9(PPABN)*%
X148025000Y-84535000D02*
X146660000Y-85900000D01*
X149600000Y-78500000D02*
X148025000Y-80075000D01*
X148025000Y-80075000D02*
X148025000Y-84535000D01*
%TD*%
M02*
