%TF.GenerationSoftware,KiCad,Pcbnew,8.0.1*%
%TF.CreationDate,2025-01-31T20:46:35-05:00*%
%TF.ProjectId,fanuc rj3ib encoder breakout,66616e75-6320-4726-9a33-696220656e63,rev?*%
%TF.SameCoordinates,Original*%
%TF.FileFunction,Legend,Top*%
%TF.FilePolarity,Positive*%
%FSLAX46Y46*%
G04 Gerber Fmt 4.6, Leading zero omitted, Abs format (unit mm)*
G04 Created by KiCad (PCBNEW 8.0.1) date 2025-01-31 20:46:35*
%MOMM*%
%LPD*%
G01*
G04 APERTURE LIST*
%ADD10C,0.300000*%
%ADD11C,0.150000*%
%ADD12C,0.100000*%
%ADD13C,0.200000*%
%ADD14C,0.006250*%
%ADD15C,0.152400*%
%ADD16C,0.120000*%
G04 APERTURE END LIST*
D10*
X125983082Y-111229400D02*
X126197368Y-111300828D01*
X126197368Y-111300828D02*
X126554510Y-111300828D01*
X126554510Y-111300828D02*
X126697368Y-111229400D01*
X126697368Y-111229400D02*
X126768796Y-111157971D01*
X126768796Y-111157971D02*
X126840225Y-111015114D01*
X126840225Y-111015114D02*
X126840225Y-110872257D01*
X126840225Y-110872257D02*
X126768796Y-110729400D01*
X126768796Y-110729400D02*
X126697368Y-110657971D01*
X126697368Y-110657971D02*
X126554510Y-110586542D01*
X126554510Y-110586542D02*
X126268796Y-110515114D01*
X126268796Y-110515114D02*
X126125939Y-110443685D01*
X126125939Y-110443685D02*
X126054510Y-110372257D01*
X126054510Y-110372257D02*
X125983082Y-110229400D01*
X125983082Y-110229400D02*
X125983082Y-110086542D01*
X125983082Y-110086542D02*
X126054510Y-109943685D01*
X126054510Y-109943685D02*
X126125939Y-109872257D01*
X126125939Y-109872257D02*
X126268796Y-109800828D01*
X126268796Y-109800828D02*
X126625939Y-109800828D01*
X126625939Y-109800828D02*
X126840225Y-109872257D01*
X127483081Y-110515114D02*
X127983081Y-110515114D01*
X128197367Y-111300828D02*
X127483081Y-111300828D01*
X127483081Y-111300828D02*
X127483081Y-109800828D01*
X127483081Y-109800828D02*
X128197367Y-109800828D01*
X128625939Y-109800828D02*
X129483082Y-109800828D01*
X129054510Y-111300828D02*
X129054510Y-109800828D01*
X131125938Y-110515114D02*
X131625938Y-110515114D01*
X131840224Y-111300828D02*
X131125938Y-111300828D01*
X131125938Y-111300828D02*
X131125938Y-109800828D01*
X131125938Y-109800828D02*
X131840224Y-109800828D01*
X132483081Y-111300828D02*
X132483081Y-109800828D01*
X132483081Y-109800828D02*
X133340224Y-111300828D01*
X133340224Y-111300828D02*
X133340224Y-109800828D01*
X134911653Y-111157971D02*
X134840225Y-111229400D01*
X134840225Y-111229400D02*
X134625939Y-111300828D01*
X134625939Y-111300828D02*
X134483082Y-111300828D01*
X134483082Y-111300828D02*
X134268796Y-111229400D01*
X134268796Y-111229400D02*
X134125939Y-111086542D01*
X134125939Y-111086542D02*
X134054510Y-110943685D01*
X134054510Y-110943685D02*
X133983082Y-110657971D01*
X133983082Y-110657971D02*
X133983082Y-110443685D01*
X133983082Y-110443685D02*
X134054510Y-110157971D01*
X134054510Y-110157971D02*
X134125939Y-110015114D01*
X134125939Y-110015114D02*
X134268796Y-109872257D01*
X134268796Y-109872257D02*
X134483082Y-109800828D01*
X134483082Y-109800828D02*
X134625939Y-109800828D01*
X134625939Y-109800828D02*
X134840225Y-109872257D01*
X134840225Y-109872257D02*
X134911653Y-109943685D01*
X135554510Y-111300828D02*
X135554510Y-109800828D01*
X135554510Y-109800828D02*
X136125939Y-109800828D01*
X136125939Y-109800828D02*
X136268796Y-109872257D01*
X136268796Y-109872257D02*
X136340225Y-109943685D01*
X136340225Y-109943685D02*
X136411653Y-110086542D01*
X136411653Y-110086542D02*
X136411653Y-110300828D01*
X136411653Y-110300828D02*
X136340225Y-110443685D01*
X136340225Y-110443685D02*
X136268796Y-110515114D01*
X136268796Y-110515114D02*
X136125939Y-110586542D01*
X136125939Y-110586542D02*
X135554510Y-110586542D01*
X137340225Y-109800828D02*
X137625939Y-109800828D01*
X137625939Y-109800828D02*
X137768796Y-109872257D01*
X137768796Y-109872257D02*
X137911653Y-110015114D01*
X137911653Y-110015114D02*
X137983082Y-110300828D01*
X137983082Y-110300828D02*
X137983082Y-110800828D01*
X137983082Y-110800828D02*
X137911653Y-111086542D01*
X137911653Y-111086542D02*
X137768796Y-111229400D01*
X137768796Y-111229400D02*
X137625939Y-111300828D01*
X137625939Y-111300828D02*
X137340225Y-111300828D01*
X137340225Y-111300828D02*
X137197368Y-111229400D01*
X137197368Y-111229400D02*
X137054510Y-111086542D01*
X137054510Y-111086542D02*
X136983082Y-110800828D01*
X136983082Y-110800828D02*
X136983082Y-110300828D01*
X136983082Y-110300828D02*
X137054510Y-110015114D01*
X137054510Y-110015114D02*
X137197368Y-109872257D01*
X137197368Y-109872257D02*
X137340225Y-109800828D01*
X138483082Y-109800828D02*
X138840225Y-111300828D01*
X138840225Y-111300828D02*
X139125939Y-110229400D01*
X139125939Y-110229400D02*
X139411654Y-111300828D01*
X139411654Y-111300828D02*
X139768797Y-109800828D01*
X140340225Y-110515114D02*
X140840225Y-110515114D01*
X141054511Y-111300828D02*
X140340225Y-111300828D01*
X140340225Y-111300828D02*
X140340225Y-109800828D01*
X140340225Y-109800828D02*
X141054511Y-109800828D01*
X142554511Y-111300828D02*
X142054511Y-110586542D01*
X141697368Y-111300828D02*
X141697368Y-109800828D01*
X141697368Y-109800828D02*
X142268797Y-109800828D01*
X142268797Y-109800828D02*
X142411654Y-109872257D01*
X142411654Y-109872257D02*
X142483083Y-109943685D01*
X142483083Y-109943685D02*
X142554511Y-110086542D01*
X142554511Y-110086542D02*
X142554511Y-110300828D01*
X142554511Y-110300828D02*
X142483083Y-110443685D01*
X142483083Y-110443685D02*
X142411654Y-110515114D01*
X142411654Y-110515114D02*
X142268797Y-110586542D01*
X142268797Y-110586542D02*
X141697368Y-110586542D01*
X144768797Y-109800828D02*
X144768797Y-110872257D01*
X144768797Y-110872257D02*
X144697368Y-111086542D01*
X144697368Y-111086542D02*
X144554511Y-111229400D01*
X144554511Y-111229400D02*
X144340225Y-111300828D01*
X144340225Y-111300828D02*
X144197368Y-111300828D01*
X145483082Y-109800828D02*
X145483082Y-111015114D01*
X145483082Y-111015114D02*
X145554511Y-111157971D01*
X145554511Y-111157971D02*
X145625940Y-111229400D01*
X145625940Y-111229400D02*
X145768797Y-111300828D01*
X145768797Y-111300828D02*
X146054511Y-111300828D01*
X146054511Y-111300828D02*
X146197368Y-111229400D01*
X146197368Y-111229400D02*
X146268797Y-111157971D01*
X146268797Y-111157971D02*
X146340225Y-111015114D01*
X146340225Y-111015114D02*
X146340225Y-109800828D01*
X147054511Y-111300828D02*
X147054511Y-109800828D01*
X147054511Y-109800828D02*
X147554511Y-110872257D01*
X147554511Y-110872257D02*
X148054511Y-109800828D01*
X148054511Y-109800828D02*
X148054511Y-111300828D01*
X148768797Y-111300828D02*
X148768797Y-109800828D01*
X148768797Y-109800828D02*
X149340226Y-109800828D01*
X149340226Y-109800828D02*
X149483083Y-109872257D01*
X149483083Y-109872257D02*
X149554512Y-109943685D01*
X149554512Y-109943685D02*
X149625940Y-110086542D01*
X149625940Y-110086542D02*
X149625940Y-110300828D01*
X149625940Y-110300828D02*
X149554512Y-110443685D01*
X149554512Y-110443685D02*
X149483083Y-110515114D01*
X149483083Y-110515114D02*
X149340226Y-110586542D01*
X149340226Y-110586542D02*
X148768797Y-110586542D01*
X150268797Y-110515114D02*
X150768797Y-110515114D01*
X150983083Y-111300828D02*
X150268797Y-111300828D01*
X150268797Y-111300828D02*
X150268797Y-109800828D01*
X150268797Y-109800828D02*
X150983083Y-109800828D01*
X152483083Y-111300828D02*
X151983083Y-110586542D01*
X151625940Y-111300828D02*
X151625940Y-109800828D01*
X151625940Y-109800828D02*
X152197369Y-109800828D01*
X152197369Y-109800828D02*
X152340226Y-109872257D01*
X152340226Y-109872257D02*
X152411655Y-109943685D01*
X152411655Y-109943685D02*
X152483083Y-110086542D01*
X152483083Y-110086542D02*
X152483083Y-110300828D01*
X152483083Y-110300828D02*
X152411655Y-110443685D01*
X152411655Y-110443685D02*
X152340226Y-110515114D01*
X152340226Y-110515114D02*
X152197369Y-110586542D01*
X152197369Y-110586542D02*
X151625940Y-110586542D01*
X153054512Y-111229400D02*
X153268798Y-111300828D01*
X153268798Y-111300828D02*
X153625940Y-111300828D01*
X153625940Y-111300828D02*
X153768798Y-111229400D01*
X153768798Y-111229400D02*
X153840226Y-111157971D01*
X153840226Y-111157971D02*
X153911655Y-111015114D01*
X153911655Y-111015114D02*
X153911655Y-110872257D01*
X153911655Y-110872257D02*
X153840226Y-110729400D01*
X153840226Y-110729400D02*
X153768798Y-110657971D01*
X153768798Y-110657971D02*
X153625940Y-110586542D01*
X153625940Y-110586542D02*
X153340226Y-110515114D01*
X153340226Y-110515114D02*
X153197369Y-110443685D01*
X153197369Y-110443685D02*
X153125940Y-110372257D01*
X153125940Y-110372257D02*
X153054512Y-110229400D01*
X153054512Y-110229400D02*
X153054512Y-110086542D01*
X153054512Y-110086542D02*
X153125940Y-109943685D01*
X153125940Y-109943685D02*
X153197369Y-109872257D01*
X153197369Y-109872257D02*
X153340226Y-109800828D01*
X153340226Y-109800828D02*
X153697369Y-109800828D01*
X153697369Y-109800828D02*
X153911655Y-109872257D01*
X154554511Y-111157971D02*
X154625940Y-111229400D01*
X154625940Y-111229400D02*
X154554511Y-111300828D01*
X154554511Y-111300828D02*
X154483083Y-111229400D01*
X154483083Y-111229400D02*
X154554511Y-111157971D01*
X154554511Y-111157971D02*
X154554511Y-111300828D01*
X154554511Y-110729400D02*
X154483083Y-109872257D01*
X154483083Y-109872257D02*
X154554511Y-109800828D01*
X154554511Y-109800828D02*
X154625940Y-109872257D01*
X154625940Y-109872257D02*
X154554511Y-110729400D01*
X154554511Y-110729400D02*
X154554511Y-109800828D01*
X155268797Y-111157971D02*
X155340226Y-111229400D01*
X155340226Y-111229400D02*
X155268797Y-111300828D01*
X155268797Y-111300828D02*
X155197369Y-111229400D01*
X155197369Y-111229400D02*
X155268797Y-111157971D01*
X155268797Y-111157971D02*
X155268797Y-111300828D01*
X155268797Y-110729400D02*
X155197369Y-109872257D01*
X155197369Y-109872257D02*
X155268797Y-109800828D01*
X155268797Y-109800828D02*
X155340226Y-109872257D01*
X155340226Y-109872257D02*
X155268797Y-110729400D01*
X155268797Y-110729400D02*
X155268797Y-109800828D01*
D11*
X131586779Y-112486065D02*
X131920112Y-112486065D01*
X132062969Y-113009875D02*
X131586779Y-113009875D01*
X131586779Y-113009875D02*
X131586779Y-112009875D01*
X131586779Y-112009875D02*
X132062969Y-112009875D01*
X132491541Y-113009875D02*
X132491541Y-112009875D01*
X132491541Y-112009875D02*
X133062969Y-113009875D01*
X133062969Y-113009875D02*
X133062969Y-112009875D01*
X134110588Y-112914636D02*
X134062969Y-112962256D01*
X134062969Y-112962256D02*
X133920112Y-113009875D01*
X133920112Y-113009875D02*
X133824874Y-113009875D01*
X133824874Y-113009875D02*
X133682017Y-112962256D01*
X133682017Y-112962256D02*
X133586779Y-112867017D01*
X133586779Y-112867017D02*
X133539160Y-112771779D01*
X133539160Y-112771779D02*
X133491541Y-112581303D01*
X133491541Y-112581303D02*
X133491541Y-112438446D01*
X133491541Y-112438446D02*
X133539160Y-112247970D01*
X133539160Y-112247970D02*
X133586779Y-112152732D01*
X133586779Y-112152732D02*
X133682017Y-112057494D01*
X133682017Y-112057494D02*
X133824874Y-112009875D01*
X133824874Y-112009875D02*
X133920112Y-112009875D01*
X133920112Y-112009875D02*
X134062969Y-112057494D01*
X134062969Y-112057494D02*
X134110588Y-112105113D01*
X134539160Y-113009875D02*
X134539160Y-112009875D01*
X134539160Y-112009875D02*
X134920112Y-112009875D01*
X134920112Y-112009875D02*
X135015350Y-112057494D01*
X135015350Y-112057494D02*
X135062969Y-112105113D01*
X135062969Y-112105113D02*
X135110588Y-112200351D01*
X135110588Y-112200351D02*
X135110588Y-112343208D01*
X135110588Y-112343208D02*
X135062969Y-112438446D01*
X135062969Y-112438446D02*
X135015350Y-112486065D01*
X135015350Y-112486065D02*
X134920112Y-112533684D01*
X134920112Y-112533684D02*
X134539160Y-112533684D01*
X135729636Y-112009875D02*
X135920112Y-112009875D01*
X135920112Y-112009875D02*
X136015350Y-112057494D01*
X136015350Y-112057494D02*
X136110588Y-112152732D01*
X136110588Y-112152732D02*
X136158207Y-112343208D01*
X136158207Y-112343208D02*
X136158207Y-112676541D01*
X136158207Y-112676541D02*
X136110588Y-112867017D01*
X136110588Y-112867017D02*
X136015350Y-112962256D01*
X136015350Y-112962256D02*
X135920112Y-113009875D01*
X135920112Y-113009875D02*
X135729636Y-113009875D01*
X135729636Y-113009875D02*
X135634398Y-112962256D01*
X135634398Y-112962256D02*
X135539160Y-112867017D01*
X135539160Y-112867017D02*
X135491541Y-112676541D01*
X135491541Y-112676541D02*
X135491541Y-112343208D01*
X135491541Y-112343208D02*
X135539160Y-112152732D01*
X135539160Y-112152732D02*
X135634398Y-112057494D01*
X135634398Y-112057494D02*
X135729636Y-112009875D01*
X136491541Y-112009875D02*
X136729636Y-113009875D01*
X136729636Y-113009875D02*
X136920112Y-112295589D01*
X136920112Y-112295589D02*
X137110588Y-113009875D01*
X137110588Y-113009875D02*
X137348684Y-112009875D01*
X137729636Y-112486065D02*
X138062969Y-112486065D01*
X138205826Y-113009875D02*
X137729636Y-113009875D01*
X137729636Y-113009875D02*
X137729636Y-112009875D01*
X137729636Y-112009875D02*
X138205826Y-112009875D01*
X139205826Y-113009875D02*
X138872493Y-112533684D01*
X138634398Y-113009875D02*
X138634398Y-112009875D01*
X138634398Y-112009875D02*
X139015350Y-112009875D01*
X139015350Y-112009875D02*
X139110588Y-112057494D01*
X139110588Y-112057494D02*
X139158207Y-112105113D01*
X139158207Y-112105113D02*
X139205826Y-112200351D01*
X139205826Y-112200351D02*
X139205826Y-112343208D01*
X139205826Y-112343208D02*
X139158207Y-112438446D01*
X139158207Y-112438446D02*
X139110588Y-112486065D01*
X139110588Y-112486065D02*
X139015350Y-112533684D01*
X139015350Y-112533684D02*
X138634398Y-112533684D01*
X140158207Y-113009875D02*
X139586779Y-113009875D01*
X139872493Y-113009875D02*
X139872493Y-112009875D01*
X139872493Y-112009875D02*
X139777255Y-112152732D01*
X139777255Y-112152732D02*
X139682017Y-112247970D01*
X139682017Y-112247970D02*
X139586779Y-112295589D01*
X141301065Y-112962256D02*
X141443922Y-113009875D01*
X141443922Y-113009875D02*
X141682017Y-113009875D01*
X141682017Y-113009875D02*
X141777255Y-112962256D01*
X141777255Y-112962256D02*
X141824874Y-112914636D01*
X141824874Y-112914636D02*
X141872493Y-112819398D01*
X141872493Y-112819398D02*
X141872493Y-112724160D01*
X141872493Y-112724160D02*
X141824874Y-112628922D01*
X141824874Y-112628922D02*
X141777255Y-112581303D01*
X141777255Y-112581303D02*
X141682017Y-112533684D01*
X141682017Y-112533684D02*
X141491541Y-112486065D01*
X141491541Y-112486065D02*
X141396303Y-112438446D01*
X141396303Y-112438446D02*
X141348684Y-112390827D01*
X141348684Y-112390827D02*
X141301065Y-112295589D01*
X141301065Y-112295589D02*
X141301065Y-112200351D01*
X141301065Y-112200351D02*
X141348684Y-112105113D01*
X141348684Y-112105113D02*
X141396303Y-112057494D01*
X141396303Y-112057494D02*
X141491541Y-112009875D01*
X141491541Y-112009875D02*
X141729636Y-112009875D01*
X141729636Y-112009875D02*
X141872493Y-112057494D01*
X142301065Y-112486065D02*
X142634398Y-112486065D01*
X142777255Y-113009875D02*
X142301065Y-113009875D01*
X142301065Y-113009875D02*
X142301065Y-112009875D01*
X142301065Y-112009875D02*
X142777255Y-112009875D01*
X143062970Y-112009875D02*
X143634398Y-112009875D01*
X143348684Y-113009875D02*
X143348684Y-112009875D01*
X144586780Y-112009875D02*
X145158208Y-112009875D01*
X144872494Y-113009875D02*
X144872494Y-112009875D01*
X145682018Y-112009875D02*
X145872494Y-112009875D01*
X145872494Y-112009875D02*
X145967732Y-112057494D01*
X145967732Y-112057494D02*
X146062970Y-112152732D01*
X146062970Y-112152732D02*
X146110589Y-112343208D01*
X146110589Y-112343208D02*
X146110589Y-112676541D01*
X146110589Y-112676541D02*
X146062970Y-112867017D01*
X146062970Y-112867017D02*
X145967732Y-112962256D01*
X145967732Y-112962256D02*
X145872494Y-113009875D01*
X145872494Y-113009875D02*
X145682018Y-113009875D01*
X145682018Y-113009875D02*
X145586780Y-112962256D01*
X145586780Y-112962256D02*
X145491542Y-112867017D01*
X145491542Y-112867017D02*
X145443923Y-112676541D01*
X145443923Y-112676541D02*
X145443923Y-112343208D01*
X145443923Y-112343208D02*
X145491542Y-112152732D01*
X145491542Y-112152732D02*
X145586780Y-112057494D01*
X145586780Y-112057494D02*
X145682018Y-112009875D01*
X147253447Y-112105113D02*
X147301066Y-112057494D01*
X147301066Y-112057494D02*
X147396304Y-112009875D01*
X147396304Y-112009875D02*
X147634399Y-112009875D01*
X147634399Y-112009875D02*
X147729637Y-112057494D01*
X147729637Y-112057494D02*
X147777256Y-112105113D01*
X147777256Y-112105113D02*
X147824875Y-112200351D01*
X147824875Y-112200351D02*
X147824875Y-112295589D01*
X147824875Y-112295589D02*
X147777256Y-112438446D01*
X147777256Y-112438446D02*
X147205828Y-113009875D01*
X147205828Y-113009875D02*
X147824875Y-113009875D01*
X148682018Y-112343208D02*
X148682018Y-113009875D01*
X148443923Y-111962256D02*
X148205828Y-112676541D01*
X148205828Y-112676541D02*
X148824875Y-112676541D01*
X149062971Y-112009875D02*
X149396304Y-113009875D01*
X149396304Y-113009875D02*
X149729637Y-112009875D01*
X131586779Y-114096009D02*
X131920112Y-114096009D01*
X132062969Y-114619819D02*
X131586779Y-114619819D01*
X131586779Y-114619819D02*
X131586779Y-113619819D01*
X131586779Y-113619819D02*
X132062969Y-113619819D01*
X132491541Y-114619819D02*
X132491541Y-113619819D01*
X132491541Y-113619819D02*
X133062969Y-114619819D01*
X133062969Y-114619819D02*
X133062969Y-113619819D01*
X134110588Y-114524580D02*
X134062969Y-114572200D01*
X134062969Y-114572200D02*
X133920112Y-114619819D01*
X133920112Y-114619819D02*
X133824874Y-114619819D01*
X133824874Y-114619819D02*
X133682017Y-114572200D01*
X133682017Y-114572200D02*
X133586779Y-114476961D01*
X133586779Y-114476961D02*
X133539160Y-114381723D01*
X133539160Y-114381723D02*
X133491541Y-114191247D01*
X133491541Y-114191247D02*
X133491541Y-114048390D01*
X133491541Y-114048390D02*
X133539160Y-113857914D01*
X133539160Y-113857914D02*
X133586779Y-113762676D01*
X133586779Y-113762676D02*
X133682017Y-113667438D01*
X133682017Y-113667438D02*
X133824874Y-113619819D01*
X133824874Y-113619819D02*
X133920112Y-113619819D01*
X133920112Y-113619819D02*
X134062969Y-113667438D01*
X134062969Y-113667438D02*
X134110588Y-113715057D01*
X134539160Y-114619819D02*
X134539160Y-113619819D01*
X134539160Y-113619819D02*
X134920112Y-113619819D01*
X134920112Y-113619819D02*
X135015350Y-113667438D01*
X135015350Y-113667438D02*
X135062969Y-113715057D01*
X135062969Y-113715057D02*
X135110588Y-113810295D01*
X135110588Y-113810295D02*
X135110588Y-113953152D01*
X135110588Y-113953152D02*
X135062969Y-114048390D01*
X135062969Y-114048390D02*
X135015350Y-114096009D01*
X135015350Y-114096009D02*
X134920112Y-114143628D01*
X134920112Y-114143628D02*
X134539160Y-114143628D01*
X135729636Y-113619819D02*
X135920112Y-113619819D01*
X135920112Y-113619819D02*
X136015350Y-113667438D01*
X136015350Y-113667438D02*
X136110588Y-113762676D01*
X136110588Y-113762676D02*
X136158207Y-113953152D01*
X136158207Y-113953152D02*
X136158207Y-114286485D01*
X136158207Y-114286485D02*
X136110588Y-114476961D01*
X136110588Y-114476961D02*
X136015350Y-114572200D01*
X136015350Y-114572200D02*
X135920112Y-114619819D01*
X135920112Y-114619819D02*
X135729636Y-114619819D01*
X135729636Y-114619819D02*
X135634398Y-114572200D01*
X135634398Y-114572200D02*
X135539160Y-114476961D01*
X135539160Y-114476961D02*
X135491541Y-114286485D01*
X135491541Y-114286485D02*
X135491541Y-113953152D01*
X135491541Y-113953152D02*
X135539160Y-113762676D01*
X135539160Y-113762676D02*
X135634398Y-113667438D01*
X135634398Y-113667438D02*
X135729636Y-113619819D01*
X136491541Y-113619819D02*
X136729636Y-114619819D01*
X136729636Y-114619819D02*
X136920112Y-113905533D01*
X136920112Y-113905533D02*
X137110588Y-114619819D01*
X137110588Y-114619819D02*
X137348684Y-113619819D01*
X137729636Y-114096009D02*
X138062969Y-114096009D01*
X138205826Y-114619819D02*
X137729636Y-114619819D01*
X137729636Y-114619819D02*
X137729636Y-113619819D01*
X137729636Y-113619819D02*
X138205826Y-113619819D01*
X139205826Y-114619819D02*
X138872493Y-114143628D01*
X138634398Y-114619819D02*
X138634398Y-113619819D01*
X138634398Y-113619819D02*
X139015350Y-113619819D01*
X139015350Y-113619819D02*
X139110588Y-113667438D01*
X139110588Y-113667438D02*
X139158207Y-113715057D01*
X139158207Y-113715057D02*
X139205826Y-113810295D01*
X139205826Y-113810295D02*
X139205826Y-113953152D01*
X139205826Y-113953152D02*
X139158207Y-114048390D01*
X139158207Y-114048390D02*
X139110588Y-114096009D01*
X139110588Y-114096009D02*
X139015350Y-114143628D01*
X139015350Y-114143628D02*
X138634398Y-114143628D01*
X139586779Y-113715057D02*
X139634398Y-113667438D01*
X139634398Y-113667438D02*
X139729636Y-113619819D01*
X139729636Y-113619819D02*
X139967731Y-113619819D01*
X139967731Y-113619819D02*
X140062969Y-113667438D01*
X140062969Y-113667438D02*
X140110588Y-113715057D01*
X140110588Y-113715057D02*
X140158207Y-113810295D01*
X140158207Y-113810295D02*
X140158207Y-113905533D01*
X140158207Y-113905533D02*
X140110588Y-114048390D01*
X140110588Y-114048390D02*
X139539160Y-114619819D01*
X139539160Y-114619819D02*
X140158207Y-114619819D01*
X141301065Y-114572200D02*
X141443922Y-114619819D01*
X141443922Y-114619819D02*
X141682017Y-114619819D01*
X141682017Y-114619819D02*
X141777255Y-114572200D01*
X141777255Y-114572200D02*
X141824874Y-114524580D01*
X141824874Y-114524580D02*
X141872493Y-114429342D01*
X141872493Y-114429342D02*
X141872493Y-114334104D01*
X141872493Y-114334104D02*
X141824874Y-114238866D01*
X141824874Y-114238866D02*
X141777255Y-114191247D01*
X141777255Y-114191247D02*
X141682017Y-114143628D01*
X141682017Y-114143628D02*
X141491541Y-114096009D01*
X141491541Y-114096009D02*
X141396303Y-114048390D01*
X141396303Y-114048390D02*
X141348684Y-114000771D01*
X141348684Y-114000771D02*
X141301065Y-113905533D01*
X141301065Y-113905533D02*
X141301065Y-113810295D01*
X141301065Y-113810295D02*
X141348684Y-113715057D01*
X141348684Y-113715057D02*
X141396303Y-113667438D01*
X141396303Y-113667438D02*
X141491541Y-113619819D01*
X141491541Y-113619819D02*
X141729636Y-113619819D01*
X141729636Y-113619819D02*
X141872493Y-113667438D01*
X142301065Y-114096009D02*
X142634398Y-114096009D01*
X142777255Y-114619819D02*
X142301065Y-114619819D01*
X142301065Y-114619819D02*
X142301065Y-113619819D01*
X142301065Y-113619819D02*
X142777255Y-113619819D01*
X143062970Y-113619819D02*
X143634398Y-113619819D01*
X143348684Y-114619819D02*
X143348684Y-113619819D01*
X144586780Y-113619819D02*
X145158208Y-113619819D01*
X144872494Y-114619819D02*
X144872494Y-113619819D01*
X145682018Y-113619819D02*
X145872494Y-113619819D01*
X145872494Y-113619819D02*
X145967732Y-113667438D01*
X145967732Y-113667438D02*
X146062970Y-113762676D01*
X146062970Y-113762676D02*
X146110589Y-113953152D01*
X146110589Y-113953152D02*
X146110589Y-114286485D01*
X146110589Y-114286485D02*
X146062970Y-114476961D01*
X146062970Y-114476961D02*
X145967732Y-114572200D01*
X145967732Y-114572200D02*
X145872494Y-114619819D01*
X145872494Y-114619819D02*
X145682018Y-114619819D01*
X145682018Y-114619819D02*
X145586780Y-114572200D01*
X145586780Y-114572200D02*
X145491542Y-114476961D01*
X145491542Y-114476961D02*
X145443923Y-114286485D01*
X145443923Y-114286485D02*
X145443923Y-113953152D01*
X145443923Y-113953152D02*
X145491542Y-113762676D01*
X145491542Y-113762676D02*
X145586780Y-113667438D01*
X145586780Y-113667438D02*
X145682018Y-113619819D01*
X147777256Y-113619819D02*
X147301066Y-113619819D01*
X147301066Y-113619819D02*
X147253447Y-114096009D01*
X147253447Y-114096009D02*
X147301066Y-114048390D01*
X147301066Y-114048390D02*
X147396304Y-114000771D01*
X147396304Y-114000771D02*
X147634399Y-114000771D01*
X147634399Y-114000771D02*
X147729637Y-114048390D01*
X147729637Y-114048390D02*
X147777256Y-114096009D01*
X147777256Y-114096009D02*
X147824875Y-114191247D01*
X147824875Y-114191247D02*
X147824875Y-114429342D01*
X147824875Y-114429342D02*
X147777256Y-114524580D01*
X147777256Y-114524580D02*
X147729637Y-114572200D01*
X147729637Y-114572200D02*
X147634399Y-114619819D01*
X147634399Y-114619819D02*
X147396304Y-114619819D01*
X147396304Y-114619819D02*
X147301066Y-114572200D01*
X147301066Y-114572200D02*
X147253447Y-114524580D01*
X148110590Y-113619819D02*
X148443923Y-114619819D01*
X148443923Y-114619819D02*
X148777256Y-113619819D01*
D10*
X142312525Y-80056490D02*
X141598239Y-80556490D01*
X142312525Y-80913633D02*
X140812525Y-80913633D01*
X140812525Y-80913633D02*
X140812525Y-80342204D01*
X140812525Y-80342204D02*
X140883954Y-80199347D01*
X140883954Y-80199347D02*
X140955382Y-80127918D01*
X140955382Y-80127918D02*
X141098239Y-80056490D01*
X141098239Y-80056490D02*
X141312525Y-80056490D01*
X141312525Y-80056490D02*
X141455382Y-80127918D01*
X141455382Y-80127918D02*
X141526811Y-80199347D01*
X141526811Y-80199347D02*
X141598239Y-80342204D01*
X141598239Y-80342204D02*
X141598239Y-80913633D01*
X142312525Y-79413633D02*
X140812525Y-79413633D01*
X140812525Y-79413633D02*
X140812525Y-79056490D01*
X140812525Y-79056490D02*
X140883954Y-78842204D01*
X140883954Y-78842204D02*
X141026811Y-78699347D01*
X141026811Y-78699347D02*
X141169668Y-78627918D01*
X141169668Y-78627918D02*
X141455382Y-78556490D01*
X141455382Y-78556490D02*
X141669668Y-78556490D01*
X141669668Y-78556490D02*
X141955382Y-78627918D01*
X141955382Y-78627918D02*
X142098239Y-78699347D01*
X142098239Y-78699347D02*
X142241097Y-78842204D01*
X142241097Y-78842204D02*
X142312525Y-79056490D01*
X142312525Y-79056490D02*
X142312525Y-79413633D01*
X140812525Y-77627918D02*
X140812525Y-77342204D01*
X140812525Y-77342204D02*
X140883954Y-77199347D01*
X140883954Y-77199347D02*
X141026811Y-77056490D01*
X141026811Y-77056490D02*
X141312525Y-76985061D01*
X141312525Y-76985061D02*
X141812525Y-76985061D01*
X141812525Y-76985061D02*
X142098239Y-77056490D01*
X142098239Y-77056490D02*
X142241097Y-77199347D01*
X142241097Y-77199347D02*
X142312525Y-77342204D01*
X142312525Y-77342204D02*
X142312525Y-77627918D01*
X142312525Y-77627918D02*
X142241097Y-77770776D01*
X142241097Y-77770776D02*
X142098239Y-77913633D01*
X142098239Y-77913633D02*
X141812525Y-77985061D01*
X141812525Y-77985061D02*
X141312525Y-77985061D01*
X141312525Y-77985061D02*
X141026811Y-77913633D01*
X141026811Y-77913633D02*
X140883954Y-77770776D01*
X140883954Y-77770776D02*
X140812525Y-77627918D01*
X140812525Y-76485061D02*
X140812525Y-75485061D01*
X140812525Y-75485061D02*
X142312525Y-76127918D01*
X127072525Y-91867490D02*
X126358239Y-92367490D01*
X127072525Y-92724633D02*
X125572525Y-92724633D01*
X125572525Y-92724633D02*
X125572525Y-92153204D01*
X125572525Y-92153204D02*
X125643954Y-92010347D01*
X125643954Y-92010347D02*
X125715382Y-91938918D01*
X125715382Y-91938918D02*
X125858239Y-91867490D01*
X125858239Y-91867490D02*
X126072525Y-91867490D01*
X126072525Y-91867490D02*
X126215382Y-91938918D01*
X126215382Y-91938918D02*
X126286811Y-92010347D01*
X126286811Y-92010347D02*
X126358239Y-92153204D01*
X126358239Y-92153204D02*
X126358239Y-92724633D01*
X127072525Y-91224633D02*
X125572525Y-91224633D01*
X125572525Y-91224633D02*
X125572525Y-90867490D01*
X125572525Y-90867490D02*
X125643954Y-90653204D01*
X125643954Y-90653204D02*
X125786811Y-90510347D01*
X125786811Y-90510347D02*
X125929668Y-90438918D01*
X125929668Y-90438918D02*
X126215382Y-90367490D01*
X126215382Y-90367490D02*
X126429668Y-90367490D01*
X126429668Y-90367490D02*
X126715382Y-90438918D01*
X126715382Y-90438918D02*
X126858239Y-90510347D01*
X126858239Y-90510347D02*
X127001097Y-90653204D01*
X127001097Y-90653204D02*
X127072525Y-90867490D01*
X127072525Y-90867490D02*
X127072525Y-91224633D01*
X127072525Y-89724633D02*
X125572525Y-89724633D01*
X127072525Y-88224632D02*
X127072525Y-89081775D01*
X127072525Y-88653204D02*
X125572525Y-88653204D01*
X125572525Y-88653204D02*
X125786811Y-88796061D01*
X125786811Y-88796061D02*
X125929668Y-88938918D01*
X125929668Y-88938918D02*
X126001097Y-89081775D01*
X147321097Y-80096061D02*
X147392525Y-79881776D01*
X147392525Y-79881776D02*
X147392525Y-79524633D01*
X147392525Y-79524633D02*
X147321097Y-79381776D01*
X147321097Y-79381776D02*
X147249668Y-79310347D01*
X147249668Y-79310347D02*
X147106811Y-79238918D01*
X147106811Y-79238918D02*
X146963954Y-79238918D01*
X146963954Y-79238918D02*
X146821097Y-79310347D01*
X146821097Y-79310347D02*
X146749668Y-79381776D01*
X146749668Y-79381776D02*
X146678239Y-79524633D01*
X146678239Y-79524633D02*
X146606811Y-79810347D01*
X146606811Y-79810347D02*
X146535382Y-79953204D01*
X146535382Y-79953204D02*
X146463954Y-80024633D01*
X146463954Y-80024633D02*
X146321097Y-80096061D01*
X146321097Y-80096061D02*
X146178239Y-80096061D01*
X146178239Y-80096061D02*
X146035382Y-80024633D01*
X146035382Y-80024633D02*
X145963954Y-79953204D01*
X145963954Y-79953204D02*
X145892525Y-79810347D01*
X145892525Y-79810347D02*
X145892525Y-79453204D01*
X145892525Y-79453204D02*
X145963954Y-79238918D01*
X146035382Y-78667490D02*
X145963954Y-78596062D01*
X145963954Y-78596062D02*
X145892525Y-78453205D01*
X145892525Y-78453205D02*
X145892525Y-78096062D01*
X145892525Y-78096062D02*
X145963954Y-77953205D01*
X145963954Y-77953205D02*
X146035382Y-77881776D01*
X146035382Y-77881776D02*
X146178239Y-77810347D01*
X146178239Y-77810347D02*
X146321097Y-77810347D01*
X146321097Y-77810347D02*
X146535382Y-77881776D01*
X146535382Y-77881776D02*
X147392525Y-78738919D01*
X147392525Y-78738919D02*
X147392525Y-77810347D01*
X146821097Y-77167491D02*
X146821097Y-76024634D01*
X147392525Y-76596062D02*
X146249668Y-76596062D01*
X152472525Y-79389633D02*
X150972525Y-79389633D01*
X150972525Y-79389633D02*
X152472525Y-78532490D01*
X152472525Y-78532490D02*
X150972525Y-78532490D01*
X152329668Y-76961061D02*
X152401097Y-77032489D01*
X152401097Y-77032489D02*
X152472525Y-77246775D01*
X152472525Y-77246775D02*
X152472525Y-77389632D01*
X152472525Y-77389632D02*
X152401097Y-77603918D01*
X152401097Y-77603918D02*
X152258239Y-77746775D01*
X152258239Y-77746775D02*
X152115382Y-77818204D01*
X152115382Y-77818204D02*
X151829668Y-77889632D01*
X151829668Y-77889632D02*
X151615382Y-77889632D01*
X151615382Y-77889632D02*
X151329668Y-77818204D01*
X151329668Y-77818204D02*
X151186811Y-77746775D01*
X151186811Y-77746775D02*
X151043954Y-77603918D01*
X151043954Y-77603918D02*
X150972525Y-77389632D01*
X150972525Y-77389632D02*
X150972525Y-77246775D01*
X150972525Y-77246775D02*
X151043954Y-77032489D01*
X151043954Y-77032489D02*
X151115382Y-76961061D01*
X134692525Y-91867490D02*
X133978239Y-92367490D01*
X134692525Y-92724633D02*
X133192525Y-92724633D01*
X133192525Y-92724633D02*
X133192525Y-92153204D01*
X133192525Y-92153204D02*
X133263954Y-92010347D01*
X133263954Y-92010347D02*
X133335382Y-91938918D01*
X133335382Y-91938918D02*
X133478239Y-91867490D01*
X133478239Y-91867490D02*
X133692525Y-91867490D01*
X133692525Y-91867490D02*
X133835382Y-91938918D01*
X133835382Y-91938918D02*
X133906811Y-92010347D01*
X133906811Y-92010347D02*
X133978239Y-92153204D01*
X133978239Y-92153204D02*
X133978239Y-92724633D01*
X134692525Y-91224633D02*
X133192525Y-91224633D01*
X133192525Y-91224633D02*
X133192525Y-90867490D01*
X133192525Y-90867490D02*
X133263954Y-90653204D01*
X133263954Y-90653204D02*
X133406811Y-90510347D01*
X133406811Y-90510347D02*
X133549668Y-90438918D01*
X133549668Y-90438918D02*
X133835382Y-90367490D01*
X133835382Y-90367490D02*
X134049668Y-90367490D01*
X134049668Y-90367490D02*
X134335382Y-90438918D01*
X134335382Y-90438918D02*
X134478239Y-90510347D01*
X134478239Y-90510347D02*
X134621097Y-90653204D01*
X134621097Y-90653204D02*
X134692525Y-90867490D01*
X134692525Y-90867490D02*
X134692525Y-91224633D01*
X134692525Y-89724633D02*
X133192525Y-89724633D01*
X133692525Y-88367490D02*
X134692525Y-88367490D01*
X133121097Y-88724632D02*
X134192525Y-89081775D01*
X134192525Y-89081775D02*
X134192525Y-88153204D01*
X122652285Y-99358131D02*
X121985618Y-99358131D01*
X121985618Y-100405750D02*
X121985618Y-98405750D01*
X121985618Y-98405750D02*
X122937999Y-98405750D01*
X123604666Y-99834321D02*
X124557047Y-99834321D01*
X123414190Y-100405750D02*
X124080856Y-98405750D01*
X124080856Y-98405750D02*
X124747523Y-100405750D01*
X125414190Y-100405750D02*
X125414190Y-98405750D01*
X125414190Y-98405750D02*
X126557047Y-100405750D01*
X126557047Y-100405750D02*
X126557047Y-98405750D01*
X127509428Y-98405750D02*
X127509428Y-100024797D01*
X127509428Y-100024797D02*
X127604666Y-100215273D01*
X127604666Y-100215273D02*
X127699904Y-100310512D01*
X127699904Y-100310512D02*
X127890380Y-100405750D01*
X127890380Y-100405750D02*
X128271333Y-100405750D01*
X128271333Y-100405750D02*
X128461809Y-100310512D01*
X128461809Y-100310512D02*
X128557047Y-100215273D01*
X128557047Y-100215273D02*
X128652285Y-100024797D01*
X128652285Y-100024797D02*
X128652285Y-98405750D01*
X130747523Y-100215273D02*
X130652285Y-100310512D01*
X130652285Y-100310512D02*
X130366571Y-100405750D01*
X130366571Y-100405750D02*
X130176095Y-100405750D01*
X130176095Y-100405750D02*
X129890380Y-100310512D01*
X129890380Y-100310512D02*
X129699904Y-100120035D01*
X129699904Y-100120035D02*
X129604666Y-99929559D01*
X129604666Y-99929559D02*
X129509428Y-99548607D01*
X129509428Y-99548607D02*
X129509428Y-99262892D01*
X129509428Y-99262892D02*
X129604666Y-98881940D01*
X129604666Y-98881940D02*
X129699904Y-98691464D01*
X129699904Y-98691464D02*
X129890380Y-98500988D01*
X129890380Y-98500988D02*
X130176095Y-98405750D01*
X130176095Y-98405750D02*
X130366571Y-98405750D01*
X130366571Y-98405750D02*
X130652285Y-98500988D01*
X130652285Y-98500988D02*
X130747523Y-98596226D01*
X134271333Y-100405750D02*
X133604666Y-99453369D01*
X133128476Y-100405750D02*
X133128476Y-98405750D01*
X133128476Y-98405750D02*
X133890381Y-98405750D01*
X133890381Y-98405750D02*
X134080857Y-98500988D01*
X134080857Y-98500988D02*
X134176095Y-98596226D01*
X134176095Y-98596226D02*
X134271333Y-98786702D01*
X134271333Y-98786702D02*
X134271333Y-99072416D01*
X134271333Y-99072416D02*
X134176095Y-99262892D01*
X134176095Y-99262892D02*
X134080857Y-99358131D01*
X134080857Y-99358131D02*
X133890381Y-99453369D01*
X133890381Y-99453369D02*
X133128476Y-99453369D01*
X135699905Y-98405750D02*
X135699905Y-99834321D01*
X135699905Y-99834321D02*
X135604666Y-100120035D01*
X135604666Y-100120035D02*
X135414190Y-100310512D01*
X135414190Y-100310512D02*
X135128476Y-100405750D01*
X135128476Y-100405750D02*
X134938000Y-100405750D01*
X136461810Y-98405750D02*
X137699905Y-98405750D01*
X137699905Y-98405750D02*
X137033238Y-99167654D01*
X137033238Y-99167654D02*
X137318953Y-99167654D01*
X137318953Y-99167654D02*
X137509429Y-99262892D01*
X137509429Y-99262892D02*
X137604667Y-99358131D01*
X137604667Y-99358131D02*
X137699905Y-99548607D01*
X137699905Y-99548607D02*
X137699905Y-100024797D01*
X137699905Y-100024797D02*
X137604667Y-100215273D01*
X137604667Y-100215273D02*
X137509429Y-100310512D01*
X137509429Y-100310512D02*
X137318953Y-100405750D01*
X137318953Y-100405750D02*
X136747524Y-100405750D01*
X136747524Y-100405750D02*
X136557048Y-100310512D01*
X136557048Y-100310512D02*
X136461810Y-100215273D01*
X138557048Y-100405750D02*
X138557048Y-99072416D01*
X138557048Y-98405750D02*
X138461810Y-98500988D01*
X138461810Y-98500988D02*
X138557048Y-98596226D01*
X138557048Y-98596226D02*
X138652286Y-98500988D01*
X138652286Y-98500988D02*
X138557048Y-98405750D01*
X138557048Y-98405750D02*
X138557048Y-98596226D01*
X140176096Y-99358131D02*
X140461810Y-99453369D01*
X140461810Y-99453369D02*
X140557048Y-99548607D01*
X140557048Y-99548607D02*
X140652286Y-99739083D01*
X140652286Y-99739083D02*
X140652286Y-100024797D01*
X140652286Y-100024797D02*
X140557048Y-100215273D01*
X140557048Y-100215273D02*
X140461810Y-100310512D01*
X140461810Y-100310512D02*
X140271334Y-100405750D01*
X140271334Y-100405750D02*
X139509429Y-100405750D01*
X139509429Y-100405750D02*
X139509429Y-98405750D01*
X139509429Y-98405750D02*
X140176096Y-98405750D01*
X140176096Y-98405750D02*
X140366572Y-98500988D01*
X140366572Y-98500988D02*
X140461810Y-98596226D01*
X140461810Y-98596226D02*
X140557048Y-98786702D01*
X140557048Y-98786702D02*
X140557048Y-98977178D01*
X140557048Y-98977178D02*
X140461810Y-99167654D01*
X140461810Y-99167654D02*
X140366572Y-99262892D01*
X140366572Y-99262892D02*
X140176096Y-99358131D01*
X140176096Y-99358131D02*
X139509429Y-99358131D01*
X143033239Y-99358131D02*
X143699906Y-99358131D01*
X143985620Y-100405750D02*
X143033239Y-100405750D01*
X143033239Y-100405750D02*
X143033239Y-98405750D01*
X143033239Y-98405750D02*
X143985620Y-98405750D01*
X144842763Y-100405750D02*
X144842763Y-98405750D01*
X144842763Y-98405750D02*
X145985620Y-100405750D01*
X145985620Y-100405750D02*
X145985620Y-98405750D01*
X148080858Y-100215273D02*
X147985620Y-100310512D01*
X147985620Y-100310512D02*
X147699906Y-100405750D01*
X147699906Y-100405750D02*
X147509430Y-100405750D01*
X147509430Y-100405750D02*
X147223715Y-100310512D01*
X147223715Y-100310512D02*
X147033239Y-100120035D01*
X147033239Y-100120035D02*
X146938001Y-99929559D01*
X146938001Y-99929559D02*
X146842763Y-99548607D01*
X146842763Y-99548607D02*
X146842763Y-99262892D01*
X146842763Y-99262892D02*
X146938001Y-98881940D01*
X146938001Y-98881940D02*
X147033239Y-98691464D01*
X147033239Y-98691464D02*
X147223715Y-98500988D01*
X147223715Y-98500988D02*
X147509430Y-98405750D01*
X147509430Y-98405750D02*
X147699906Y-98405750D01*
X147699906Y-98405750D02*
X147985620Y-98500988D01*
X147985620Y-98500988D02*
X148080858Y-98596226D01*
X149318953Y-98405750D02*
X149699906Y-98405750D01*
X149699906Y-98405750D02*
X149890382Y-98500988D01*
X149890382Y-98500988D02*
X150080858Y-98691464D01*
X150080858Y-98691464D02*
X150176096Y-99072416D01*
X150176096Y-99072416D02*
X150176096Y-99739083D01*
X150176096Y-99739083D02*
X150080858Y-100120035D01*
X150080858Y-100120035D02*
X149890382Y-100310512D01*
X149890382Y-100310512D02*
X149699906Y-100405750D01*
X149699906Y-100405750D02*
X149318953Y-100405750D01*
X149318953Y-100405750D02*
X149128477Y-100310512D01*
X149128477Y-100310512D02*
X148938001Y-100120035D01*
X148938001Y-100120035D02*
X148842763Y-99739083D01*
X148842763Y-99739083D02*
X148842763Y-99072416D01*
X148842763Y-99072416D02*
X148938001Y-98691464D01*
X148938001Y-98691464D02*
X149128477Y-98500988D01*
X149128477Y-98500988D02*
X149318953Y-98405750D01*
X151033239Y-100405750D02*
X151033239Y-98405750D01*
X151033239Y-98405750D02*
X151509429Y-98405750D01*
X151509429Y-98405750D02*
X151795144Y-98500988D01*
X151795144Y-98500988D02*
X151985620Y-98691464D01*
X151985620Y-98691464D02*
X152080858Y-98881940D01*
X152080858Y-98881940D02*
X152176096Y-99262892D01*
X152176096Y-99262892D02*
X152176096Y-99548607D01*
X152176096Y-99548607D02*
X152080858Y-99929559D01*
X152080858Y-99929559D02*
X151985620Y-100120035D01*
X151985620Y-100120035D02*
X151795144Y-100310512D01*
X151795144Y-100310512D02*
X151509429Y-100405750D01*
X151509429Y-100405750D02*
X151033239Y-100405750D01*
X153033239Y-99358131D02*
X153699906Y-99358131D01*
X153985620Y-100405750D02*
X153033239Y-100405750D01*
X153033239Y-100405750D02*
X153033239Y-98405750D01*
X153033239Y-98405750D02*
X153985620Y-98405750D01*
X155985620Y-100405750D02*
X155318953Y-99453369D01*
X154842763Y-100405750D02*
X154842763Y-98405750D01*
X154842763Y-98405750D02*
X155604668Y-98405750D01*
X155604668Y-98405750D02*
X155795144Y-98500988D01*
X155795144Y-98500988D02*
X155890382Y-98596226D01*
X155890382Y-98596226D02*
X155985620Y-98786702D01*
X155985620Y-98786702D02*
X155985620Y-99072416D01*
X155985620Y-99072416D02*
X155890382Y-99262892D01*
X155890382Y-99262892D02*
X155795144Y-99358131D01*
X155795144Y-99358131D02*
X155604668Y-99453369D01*
X155604668Y-99453369D02*
X154842763Y-99453369D01*
X127271332Y-103054209D02*
X128223713Y-103054209D01*
X127080856Y-103625638D02*
X127747522Y-101625638D01*
X127747522Y-101625638D02*
X128414189Y-103625638D01*
X129080856Y-103625638D02*
X129080856Y-101625638D01*
X129080856Y-101625638D02*
X129557046Y-101625638D01*
X129557046Y-101625638D02*
X129842761Y-101720876D01*
X129842761Y-101720876D02*
X130033237Y-101911352D01*
X130033237Y-101911352D02*
X130128475Y-102101828D01*
X130128475Y-102101828D02*
X130223713Y-102482780D01*
X130223713Y-102482780D02*
X130223713Y-102768495D01*
X130223713Y-102768495D02*
X130128475Y-103149447D01*
X130128475Y-103149447D02*
X130033237Y-103339923D01*
X130033237Y-103339923D02*
X129842761Y-103530400D01*
X129842761Y-103530400D02*
X129557046Y-103625638D01*
X129557046Y-103625638D02*
X129080856Y-103625638D01*
X130985618Y-103054209D02*
X131937999Y-103054209D01*
X130795142Y-103625638D02*
X131461808Y-101625638D01*
X131461808Y-101625638D02*
X132128475Y-103625638D01*
X132795142Y-103625638D02*
X132795142Y-101625638D01*
X132795142Y-101625638D02*
X133557047Y-101625638D01*
X133557047Y-101625638D02*
X133747523Y-101720876D01*
X133747523Y-101720876D02*
X133842761Y-101816114D01*
X133842761Y-101816114D02*
X133937999Y-102006590D01*
X133937999Y-102006590D02*
X133937999Y-102292304D01*
X133937999Y-102292304D02*
X133842761Y-102482780D01*
X133842761Y-102482780D02*
X133747523Y-102578019D01*
X133747523Y-102578019D02*
X133557047Y-102673257D01*
X133557047Y-102673257D02*
X132795142Y-102673257D01*
X134509428Y-101625638D02*
X135652285Y-101625638D01*
X135080856Y-103625638D02*
X135080856Y-101625638D01*
X136318952Y-102578019D02*
X136985619Y-102578019D01*
X137271333Y-103625638D02*
X136318952Y-103625638D01*
X136318952Y-103625638D02*
X136318952Y-101625638D01*
X136318952Y-101625638D02*
X137271333Y-101625638D01*
X139271333Y-103625638D02*
X138604666Y-102673257D01*
X138128476Y-103625638D02*
X138128476Y-101625638D01*
X138128476Y-101625638D02*
X138890381Y-101625638D01*
X138890381Y-101625638D02*
X139080857Y-101720876D01*
X139080857Y-101720876D02*
X139176095Y-101816114D01*
X139176095Y-101816114D02*
X139271333Y-102006590D01*
X139271333Y-102006590D02*
X139271333Y-102292304D01*
X139271333Y-102292304D02*
X139176095Y-102482780D01*
X139176095Y-102482780D02*
X139080857Y-102578019D01*
X139080857Y-102578019D02*
X138890381Y-102673257D01*
X138890381Y-102673257D02*
X138128476Y-102673257D01*
X142318953Y-102578019D02*
X142604667Y-102673257D01*
X142604667Y-102673257D02*
X142699905Y-102768495D01*
X142699905Y-102768495D02*
X142795143Y-102958971D01*
X142795143Y-102958971D02*
X142795143Y-103244685D01*
X142795143Y-103244685D02*
X142699905Y-103435161D01*
X142699905Y-103435161D02*
X142604667Y-103530400D01*
X142604667Y-103530400D02*
X142414191Y-103625638D01*
X142414191Y-103625638D02*
X141652286Y-103625638D01*
X141652286Y-103625638D02*
X141652286Y-101625638D01*
X141652286Y-101625638D02*
X142318953Y-101625638D01*
X142318953Y-101625638D02*
X142509429Y-101720876D01*
X142509429Y-101720876D02*
X142604667Y-101816114D01*
X142604667Y-101816114D02*
X142699905Y-102006590D01*
X142699905Y-102006590D02*
X142699905Y-102197066D01*
X142699905Y-102197066D02*
X142604667Y-102387542D01*
X142604667Y-102387542D02*
X142509429Y-102482780D01*
X142509429Y-102482780D02*
X142318953Y-102578019D01*
X142318953Y-102578019D02*
X141652286Y-102578019D01*
X144033238Y-101625638D02*
X144414191Y-101625638D01*
X144414191Y-101625638D02*
X144604667Y-101720876D01*
X144604667Y-101720876D02*
X144795143Y-101911352D01*
X144795143Y-101911352D02*
X144890381Y-102292304D01*
X144890381Y-102292304D02*
X144890381Y-102958971D01*
X144890381Y-102958971D02*
X144795143Y-103339923D01*
X144795143Y-103339923D02*
X144604667Y-103530400D01*
X144604667Y-103530400D02*
X144414191Y-103625638D01*
X144414191Y-103625638D02*
X144033238Y-103625638D01*
X144033238Y-103625638D02*
X143842762Y-103530400D01*
X143842762Y-103530400D02*
X143652286Y-103339923D01*
X143652286Y-103339923D02*
X143557048Y-102958971D01*
X143557048Y-102958971D02*
X143557048Y-102292304D01*
X143557048Y-102292304D02*
X143652286Y-101911352D01*
X143652286Y-101911352D02*
X143842762Y-101720876D01*
X143842762Y-101720876D02*
X144033238Y-101625638D01*
X145652286Y-103054209D02*
X146604667Y-103054209D01*
X145461810Y-103625638D02*
X146128476Y-101625638D01*
X146128476Y-101625638D02*
X146795143Y-103625638D01*
X148604667Y-103625638D02*
X147938000Y-102673257D01*
X147461810Y-103625638D02*
X147461810Y-101625638D01*
X147461810Y-101625638D02*
X148223715Y-101625638D01*
X148223715Y-101625638D02*
X148414191Y-101720876D01*
X148414191Y-101720876D02*
X148509429Y-101816114D01*
X148509429Y-101816114D02*
X148604667Y-102006590D01*
X148604667Y-102006590D02*
X148604667Y-102292304D01*
X148604667Y-102292304D02*
X148509429Y-102482780D01*
X148509429Y-102482780D02*
X148414191Y-102578019D01*
X148414191Y-102578019D02*
X148223715Y-102673257D01*
X148223715Y-102673257D02*
X147461810Y-102673257D01*
X149461810Y-103625638D02*
X149461810Y-101625638D01*
X149461810Y-101625638D02*
X149938000Y-101625638D01*
X149938000Y-101625638D02*
X150223715Y-101720876D01*
X150223715Y-101720876D02*
X150414191Y-101911352D01*
X150414191Y-101911352D02*
X150509429Y-102101828D01*
X150509429Y-102101828D02*
X150604667Y-102482780D01*
X150604667Y-102482780D02*
X150604667Y-102768495D01*
X150604667Y-102768495D02*
X150509429Y-103149447D01*
X150509429Y-103149447D02*
X150414191Y-103339923D01*
X150414191Y-103339923D02*
X150223715Y-103530400D01*
X150223715Y-103530400D02*
X149938000Y-103625638D01*
X149938000Y-103625638D02*
X149461810Y-103625638D01*
X132152525Y-80056490D02*
X131438239Y-80556490D01*
X132152525Y-80913633D02*
X130652525Y-80913633D01*
X130652525Y-80913633D02*
X130652525Y-80342204D01*
X130652525Y-80342204D02*
X130723954Y-80199347D01*
X130723954Y-80199347D02*
X130795382Y-80127918D01*
X130795382Y-80127918D02*
X130938239Y-80056490D01*
X130938239Y-80056490D02*
X131152525Y-80056490D01*
X131152525Y-80056490D02*
X131295382Y-80127918D01*
X131295382Y-80127918D02*
X131366811Y-80199347D01*
X131366811Y-80199347D02*
X131438239Y-80342204D01*
X131438239Y-80342204D02*
X131438239Y-80913633D01*
X132152525Y-79413633D02*
X130652525Y-79413633D01*
X130652525Y-79413633D02*
X130652525Y-79056490D01*
X130652525Y-79056490D02*
X130723954Y-78842204D01*
X130723954Y-78842204D02*
X130866811Y-78699347D01*
X130866811Y-78699347D02*
X131009668Y-78627918D01*
X131009668Y-78627918D02*
X131295382Y-78556490D01*
X131295382Y-78556490D02*
X131509668Y-78556490D01*
X131509668Y-78556490D02*
X131795382Y-78627918D01*
X131795382Y-78627918D02*
X131938239Y-78699347D01*
X131938239Y-78699347D02*
X132081097Y-78842204D01*
X132081097Y-78842204D02*
X132152525Y-79056490D01*
X132152525Y-79056490D02*
X132152525Y-79413633D01*
X130652525Y-77627918D02*
X130652525Y-77342204D01*
X130652525Y-77342204D02*
X130723954Y-77199347D01*
X130723954Y-77199347D02*
X130866811Y-77056490D01*
X130866811Y-77056490D02*
X131152525Y-76985061D01*
X131152525Y-76985061D02*
X131652525Y-76985061D01*
X131652525Y-76985061D02*
X131938239Y-77056490D01*
X131938239Y-77056490D02*
X132081097Y-77199347D01*
X132081097Y-77199347D02*
X132152525Y-77342204D01*
X132152525Y-77342204D02*
X132152525Y-77627918D01*
X132152525Y-77627918D02*
X132081097Y-77770776D01*
X132081097Y-77770776D02*
X131938239Y-77913633D01*
X131938239Y-77913633D02*
X131652525Y-77985061D01*
X131652525Y-77985061D02*
X131152525Y-77985061D01*
X131152525Y-77985061D02*
X130866811Y-77913633D01*
X130866811Y-77913633D02*
X130723954Y-77770776D01*
X130723954Y-77770776D02*
X130652525Y-77627918D01*
X130652525Y-76485061D02*
X130652525Y-75556489D01*
X130652525Y-75556489D02*
X131223954Y-76056489D01*
X131223954Y-76056489D02*
X131223954Y-75842204D01*
X131223954Y-75842204D02*
X131295382Y-75699347D01*
X131295382Y-75699347D02*
X131366811Y-75627918D01*
X131366811Y-75627918D02*
X131509668Y-75556489D01*
X131509668Y-75556489D02*
X131866811Y-75556489D01*
X131866811Y-75556489D02*
X132009668Y-75627918D01*
X132009668Y-75627918D02*
X132081097Y-75699347D01*
X132081097Y-75699347D02*
X132152525Y-75842204D01*
X132152525Y-75842204D02*
X132152525Y-76270775D01*
X132152525Y-76270775D02*
X132081097Y-76413632D01*
X132081097Y-76413632D02*
X132009668Y-76485061D01*
X139772525Y-80056490D02*
X139058239Y-80556490D01*
X139772525Y-80913633D02*
X138272525Y-80913633D01*
X138272525Y-80913633D02*
X138272525Y-80342204D01*
X138272525Y-80342204D02*
X138343954Y-80199347D01*
X138343954Y-80199347D02*
X138415382Y-80127918D01*
X138415382Y-80127918D02*
X138558239Y-80056490D01*
X138558239Y-80056490D02*
X138772525Y-80056490D01*
X138772525Y-80056490D02*
X138915382Y-80127918D01*
X138915382Y-80127918D02*
X138986811Y-80199347D01*
X138986811Y-80199347D02*
X139058239Y-80342204D01*
X139058239Y-80342204D02*
X139058239Y-80913633D01*
X139772525Y-79413633D02*
X138272525Y-79413633D01*
X138272525Y-79413633D02*
X138272525Y-79056490D01*
X138272525Y-79056490D02*
X138343954Y-78842204D01*
X138343954Y-78842204D02*
X138486811Y-78699347D01*
X138486811Y-78699347D02*
X138629668Y-78627918D01*
X138629668Y-78627918D02*
X138915382Y-78556490D01*
X138915382Y-78556490D02*
X139129668Y-78556490D01*
X139129668Y-78556490D02*
X139415382Y-78627918D01*
X139415382Y-78627918D02*
X139558239Y-78699347D01*
X139558239Y-78699347D02*
X139701097Y-78842204D01*
X139701097Y-78842204D02*
X139772525Y-79056490D01*
X139772525Y-79056490D02*
X139772525Y-79413633D01*
X138272525Y-77627918D02*
X138272525Y-77342204D01*
X138272525Y-77342204D02*
X138343954Y-77199347D01*
X138343954Y-77199347D02*
X138486811Y-77056490D01*
X138486811Y-77056490D02*
X138772525Y-76985061D01*
X138772525Y-76985061D02*
X139272525Y-76985061D01*
X139272525Y-76985061D02*
X139558239Y-77056490D01*
X139558239Y-77056490D02*
X139701097Y-77199347D01*
X139701097Y-77199347D02*
X139772525Y-77342204D01*
X139772525Y-77342204D02*
X139772525Y-77627918D01*
X139772525Y-77627918D02*
X139701097Y-77770776D01*
X139701097Y-77770776D02*
X139558239Y-77913633D01*
X139558239Y-77913633D02*
X139272525Y-77985061D01*
X139272525Y-77985061D02*
X138772525Y-77985061D01*
X138772525Y-77985061D02*
X138486811Y-77913633D01*
X138486811Y-77913633D02*
X138343954Y-77770776D01*
X138343954Y-77770776D02*
X138272525Y-77627918D01*
X138272525Y-75699347D02*
X138272525Y-75985061D01*
X138272525Y-75985061D02*
X138343954Y-76127918D01*
X138343954Y-76127918D02*
X138415382Y-76199347D01*
X138415382Y-76199347D02*
X138629668Y-76342204D01*
X138629668Y-76342204D02*
X138915382Y-76413632D01*
X138915382Y-76413632D02*
X139486811Y-76413632D01*
X139486811Y-76413632D02*
X139629668Y-76342204D01*
X139629668Y-76342204D02*
X139701097Y-76270775D01*
X139701097Y-76270775D02*
X139772525Y-76127918D01*
X139772525Y-76127918D02*
X139772525Y-75842204D01*
X139772525Y-75842204D02*
X139701097Y-75699347D01*
X139701097Y-75699347D02*
X139629668Y-75627918D01*
X139629668Y-75627918D02*
X139486811Y-75556489D01*
X139486811Y-75556489D02*
X139129668Y-75556489D01*
X139129668Y-75556489D02*
X138986811Y-75627918D01*
X138986811Y-75627918D02*
X138915382Y-75699347D01*
X138915382Y-75699347D02*
X138843954Y-75842204D01*
X138843954Y-75842204D02*
X138843954Y-76127918D01*
X138843954Y-76127918D02*
X138915382Y-76270775D01*
X138915382Y-76270775D02*
X138986811Y-76342204D01*
X138986811Y-76342204D02*
X139129668Y-76413632D01*
X129612525Y-91867490D02*
X128898239Y-92367490D01*
X129612525Y-92724633D02*
X128112525Y-92724633D01*
X128112525Y-92724633D02*
X128112525Y-92153204D01*
X128112525Y-92153204D02*
X128183954Y-92010347D01*
X128183954Y-92010347D02*
X128255382Y-91938918D01*
X128255382Y-91938918D02*
X128398239Y-91867490D01*
X128398239Y-91867490D02*
X128612525Y-91867490D01*
X128612525Y-91867490D02*
X128755382Y-91938918D01*
X128755382Y-91938918D02*
X128826811Y-92010347D01*
X128826811Y-92010347D02*
X128898239Y-92153204D01*
X128898239Y-92153204D02*
X128898239Y-92724633D01*
X129612525Y-91224633D02*
X128112525Y-91224633D01*
X128112525Y-91224633D02*
X128112525Y-90867490D01*
X128112525Y-90867490D02*
X128183954Y-90653204D01*
X128183954Y-90653204D02*
X128326811Y-90510347D01*
X128326811Y-90510347D02*
X128469668Y-90438918D01*
X128469668Y-90438918D02*
X128755382Y-90367490D01*
X128755382Y-90367490D02*
X128969668Y-90367490D01*
X128969668Y-90367490D02*
X129255382Y-90438918D01*
X129255382Y-90438918D02*
X129398239Y-90510347D01*
X129398239Y-90510347D02*
X129541097Y-90653204D01*
X129541097Y-90653204D02*
X129612525Y-90867490D01*
X129612525Y-90867490D02*
X129612525Y-91224633D01*
X129612525Y-89724633D02*
X128112525Y-89724633D01*
X128255382Y-89081775D02*
X128183954Y-89010347D01*
X128183954Y-89010347D02*
X128112525Y-88867490D01*
X128112525Y-88867490D02*
X128112525Y-88510347D01*
X128112525Y-88510347D02*
X128183954Y-88367490D01*
X128183954Y-88367490D02*
X128255382Y-88296061D01*
X128255382Y-88296061D02*
X128398239Y-88224632D01*
X128398239Y-88224632D02*
X128541097Y-88224632D01*
X128541097Y-88224632D02*
X128755382Y-88296061D01*
X128755382Y-88296061D02*
X129612525Y-89153204D01*
X129612525Y-89153204D02*
X129612525Y-88224632D01*
X132152525Y-91867490D02*
X131438239Y-92367490D01*
X132152525Y-92724633D02*
X130652525Y-92724633D01*
X130652525Y-92724633D02*
X130652525Y-92153204D01*
X130652525Y-92153204D02*
X130723954Y-92010347D01*
X130723954Y-92010347D02*
X130795382Y-91938918D01*
X130795382Y-91938918D02*
X130938239Y-91867490D01*
X130938239Y-91867490D02*
X131152525Y-91867490D01*
X131152525Y-91867490D02*
X131295382Y-91938918D01*
X131295382Y-91938918D02*
X131366811Y-92010347D01*
X131366811Y-92010347D02*
X131438239Y-92153204D01*
X131438239Y-92153204D02*
X131438239Y-92724633D01*
X132152525Y-91224633D02*
X130652525Y-91224633D01*
X130652525Y-91224633D02*
X130652525Y-90867490D01*
X130652525Y-90867490D02*
X130723954Y-90653204D01*
X130723954Y-90653204D02*
X130866811Y-90510347D01*
X130866811Y-90510347D02*
X131009668Y-90438918D01*
X131009668Y-90438918D02*
X131295382Y-90367490D01*
X131295382Y-90367490D02*
X131509668Y-90367490D01*
X131509668Y-90367490D02*
X131795382Y-90438918D01*
X131795382Y-90438918D02*
X131938239Y-90510347D01*
X131938239Y-90510347D02*
X132081097Y-90653204D01*
X132081097Y-90653204D02*
X132152525Y-90867490D01*
X132152525Y-90867490D02*
X132152525Y-91224633D01*
X132152525Y-89724633D02*
X130652525Y-89724633D01*
X130652525Y-89153204D02*
X130652525Y-88224632D01*
X130652525Y-88224632D02*
X131223954Y-88724632D01*
X131223954Y-88724632D02*
X131223954Y-88510347D01*
X131223954Y-88510347D02*
X131295382Y-88367490D01*
X131295382Y-88367490D02*
X131366811Y-88296061D01*
X131366811Y-88296061D02*
X131509668Y-88224632D01*
X131509668Y-88224632D02*
X131866811Y-88224632D01*
X131866811Y-88224632D02*
X132009668Y-88296061D01*
X132009668Y-88296061D02*
X132081097Y-88367490D01*
X132081097Y-88367490D02*
X132152525Y-88510347D01*
X132152525Y-88510347D02*
X132152525Y-88938918D01*
X132152525Y-88938918D02*
X132081097Y-89081775D01*
X132081097Y-89081775D02*
X132009668Y-89153204D01*
X147392525Y-91867490D02*
X146678239Y-92367490D01*
X147392525Y-92724633D02*
X145892525Y-92724633D01*
X145892525Y-92724633D02*
X145892525Y-92153204D01*
X145892525Y-92153204D02*
X145963954Y-92010347D01*
X145963954Y-92010347D02*
X146035382Y-91938918D01*
X146035382Y-91938918D02*
X146178239Y-91867490D01*
X146178239Y-91867490D02*
X146392525Y-91867490D01*
X146392525Y-91867490D02*
X146535382Y-91938918D01*
X146535382Y-91938918D02*
X146606811Y-92010347D01*
X146606811Y-92010347D02*
X146678239Y-92153204D01*
X146678239Y-92153204D02*
X146678239Y-92724633D01*
X147392525Y-91224633D02*
X145892525Y-91224633D01*
X145892525Y-91224633D02*
X145892525Y-90867490D01*
X145892525Y-90867490D02*
X145963954Y-90653204D01*
X145963954Y-90653204D02*
X146106811Y-90510347D01*
X146106811Y-90510347D02*
X146249668Y-90438918D01*
X146249668Y-90438918D02*
X146535382Y-90367490D01*
X146535382Y-90367490D02*
X146749668Y-90367490D01*
X146749668Y-90367490D02*
X147035382Y-90438918D01*
X147035382Y-90438918D02*
X147178239Y-90510347D01*
X147178239Y-90510347D02*
X147321097Y-90653204D01*
X147321097Y-90653204D02*
X147392525Y-90867490D01*
X147392525Y-90867490D02*
X147392525Y-91224633D01*
X147392525Y-89724633D02*
X145892525Y-89724633D01*
X147392525Y-88938918D02*
X147392525Y-88653204D01*
X147392525Y-88653204D02*
X147321097Y-88510347D01*
X147321097Y-88510347D02*
X147249668Y-88438918D01*
X147249668Y-88438918D02*
X147035382Y-88296061D01*
X147035382Y-88296061D02*
X146749668Y-88224632D01*
X146749668Y-88224632D02*
X146178239Y-88224632D01*
X146178239Y-88224632D02*
X146035382Y-88296061D01*
X146035382Y-88296061D02*
X145963954Y-88367490D01*
X145963954Y-88367490D02*
X145892525Y-88510347D01*
X145892525Y-88510347D02*
X145892525Y-88796061D01*
X145892525Y-88796061D02*
X145963954Y-88938918D01*
X145963954Y-88938918D02*
X146035382Y-89010347D01*
X146035382Y-89010347D02*
X146178239Y-89081775D01*
X146178239Y-89081775D02*
X146535382Y-89081775D01*
X146535382Y-89081775D02*
X146678239Y-89010347D01*
X146678239Y-89010347D02*
X146749668Y-88938918D01*
X146749668Y-88938918D02*
X146821097Y-88796061D01*
X146821097Y-88796061D02*
X146821097Y-88510347D01*
X146821097Y-88510347D02*
X146749668Y-88367490D01*
X146749668Y-88367490D02*
X146678239Y-88296061D01*
X146678239Y-88296061D02*
X146535382Y-88224632D01*
X142312525Y-91867490D02*
X141598239Y-92367490D01*
X142312525Y-92724633D02*
X140812525Y-92724633D01*
X140812525Y-92724633D02*
X140812525Y-92153204D01*
X140812525Y-92153204D02*
X140883954Y-92010347D01*
X140883954Y-92010347D02*
X140955382Y-91938918D01*
X140955382Y-91938918D02*
X141098239Y-91867490D01*
X141098239Y-91867490D02*
X141312525Y-91867490D01*
X141312525Y-91867490D02*
X141455382Y-91938918D01*
X141455382Y-91938918D02*
X141526811Y-92010347D01*
X141526811Y-92010347D02*
X141598239Y-92153204D01*
X141598239Y-92153204D02*
X141598239Y-92724633D01*
X142312525Y-91224633D02*
X140812525Y-91224633D01*
X140812525Y-91224633D02*
X140812525Y-90867490D01*
X140812525Y-90867490D02*
X140883954Y-90653204D01*
X140883954Y-90653204D02*
X141026811Y-90510347D01*
X141026811Y-90510347D02*
X141169668Y-90438918D01*
X141169668Y-90438918D02*
X141455382Y-90367490D01*
X141455382Y-90367490D02*
X141669668Y-90367490D01*
X141669668Y-90367490D02*
X141955382Y-90438918D01*
X141955382Y-90438918D02*
X142098239Y-90510347D01*
X142098239Y-90510347D02*
X142241097Y-90653204D01*
X142241097Y-90653204D02*
X142312525Y-90867490D01*
X142312525Y-90867490D02*
X142312525Y-91224633D01*
X142312525Y-89724633D02*
X140812525Y-89724633D01*
X140812525Y-89153204D02*
X140812525Y-88153204D01*
X140812525Y-88153204D02*
X142312525Y-88796061D01*
X144852525Y-91867490D02*
X144138239Y-92367490D01*
X144852525Y-92724633D02*
X143352525Y-92724633D01*
X143352525Y-92724633D02*
X143352525Y-92153204D01*
X143352525Y-92153204D02*
X143423954Y-92010347D01*
X143423954Y-92010347D02*
X143495382Y-91938918D01*
X143495382Y-91938918D02*
X143638239Y-91867490D01*
X143638239Y-91867490D02*
X143852525Y-91867490D01*
X143852525Y-91867490D02*
X143995382Y-91938918D01*
X143995382Y-91938918D02*
X144066811Y-92010347D01*
X144066811Y-92010347D02*
X144138239Y-92153204D01*
X144138239Y-92153204D02*
X144138239Y-92724633D01*
X144852525Y-91224633D02*
X143352525Y-91224633D01*
X143352525Y-91224633D02*
X143352525Y-90867490D01*
X143352525Y-90867490D02*
X143423954Y-90653204D01*
X143423954Y-90653204D02*
X143566811Y-90510347D01*
X143566811Y-90510347D02*
X143709668Y-90438918D01*
X143709668Y-90438918D02*
X143995382Y-90367490D01*
X143995382Y-90367490D02*
X144209668Y-90367490D01*
X144209668Y-90367490D02*
X144495382Y-90438918D01*
X144495382Y-90438918D02*
X144638239Y-90510347D01*
X144638239Y-90510347D02*
X144781097Y-90653204D01*
X144781097Y-90653204D02*
X144852525Y-90867490D01*
X144852525Y-90867490D02*
X144852525Y-91224633D01*
X144852525Y-89724633D02*
X143352525Y-89724633D01*
X143995382Y-88796061D02*
X143923954Y-88938918D01*
X143923954Y-88938918D02*
X143852525Y-89010347D01*
X143852525Y-89010347D02*
X143709668Y-89081775D01*
X143709668Y-89081775D02*
X143638239Y-89081775D01*
X143638239Y-89081775D02*
X143495382Y-89010347D01*
X143495382Y-89010347D02*
X143423954Y-88938918D01*
X143423954Y-88938918D02*
X143352525Y-88796061D01*
X143352525Y-88796061D02*
X143352525Y-88510347D01*
X143352525Y-88510347D02*
X143423954Y-88367490D01*
X143423954Y-88367490D02*
X143495382Y-88296061D01*
X143495382Y-88296061D02*
X143638239Y-88224632D01*
X143638239Y-88224632D02*
X143709668Y-88224632D01*
X143709668Y-88224632D02*
X143852525Y-88296061D01*
X143852525Y-88296061D02*
X143923954Y-88367490D01*
X143923954Y-88367490D02*
X143995382Y-88510347D01*
X143995382Y-88510347D02*
X143995382Y-88796061D01*
X143995382Y-88796061D02*
X144066811Y-88938918D01*
X144066811Y-88938918D02*
X144138239Y-89010347D01*
X144138239Y-89010347D02*
X144281097Y-89081775D01*
X144281097Y-89081775D02*
X144566811Y-89081775D01*
X144566811Y-89081775D02*
X144709668Y-89010347D01*
X144709668Y-89010347D02*
X144781097Y-88938918D01*
X144781097Y-88938918D02*
X144852525Y-88796061D01*
X144852525Y-88796061D02*
X144852525Y-88510347D01*
X144852525Y-88510347D02*
X144781097Y-88367490D01*
X144781097Y-88367490D02*
X144709668Y-88296061D01*
X144709668Y-88296061D02*
X144566811Y-88224632D01*
X144566811Y-88224632D02*
X144281097Y-88224632D01*
X144281097Y-88224632D02*
X144138239Y-88296061D01*
X144138239Y-88296061D02*
X144066811Y-88367490D01*
X144066811Y-88367490D02*
X143995382Y-88510347D01*
X152472525Y-91359490D02*
X151758239Y-91859490D01*
X152472525Y-92216633D02*
X150972525Y-92216633D01*
X150972525Y-92216633D02*
X150972525Y-91645204D01*
X150972525Y-91645204D02*
X151043954Y-91502347D01*
X151043954Y-91502347D02*
X151115382Y-91430918D01*
X151115382Y-91430918D02*
X151258239Y-91359490D01*
X151258239Y-91359490D02*
X151472525Y-91359490D01*
X151472525Y-91359490D02*
X151615382Y-91430918D01*
X151615382Y-91430918D02*
X151686811Y-91502347D01*
X151686811Y-91502347D02*
X151758239Y-91645204D01*
X151758239Y-91645204D02*
X151758239Y-92216633D01*
X150972525Y-90430918D02*
X150972525Y-90145204D01*
X150972525Y-90145204D02*
X151043954Y-90002347D01*
X151043954Y-90002347D02*
X151186811Y-89859490D01*
X151186811Y-89859490D02*
X151472525Y-89788061D01*
X151472525Y-89788061D02*
X151972525Y-89788061D01*
X151972525Y-89788061D02*
X152258239Y-89859490D01*
X152258239Y-89859490D02*
X152401097Y-90002347D01*
X152401097Y-90002347D02*
X152472525Y-90145204D01*
X152472525Y-90145204D02*
X152472525Y-90430918D01*
X152472525Y-90430918D02*
X152401097Y-90573776D01*
X152401097Y-90573776D02*
X152258239Y-90716633D01*
X152258239Y-90716633D02*
X151972525Y-90788061D01*
X151972525Y-90788061D02*
X151472525Y-90788061D01*
X151472525Y-90788061D02*
X151186811Y-90716633D01*
X151186811Y-90716633D02*
X151043954Y-90573776D01*
X151043954Y-90573776D02*
X150972525Y-90430918D01*
X150972525Y-89359489D02*
X150972525Y-88502347D01*
X152472525Y-88930918D02*
X150972525Y-88930918D01*
X153583954Y-91557918D02*
X153512525Y-91700776D01*
X153512525Y-91700776D02*
X153512525Y-91915061D01*
X153512525Y-91915061D02*
X153583954Y-92129347D01*
X153583954Y-92129347D02*
X153726811Y-92272204D01*
X153726811Y-92272204D02*
X153869668Y-92343633D01*
X153869668Y-92343633D02*
X154155382Y-92415061D01*
X154155382Y-92415061D02*
X154369668Y-92415061D01*
X154369668Y-92415061D02*
X154655382Y-92343633D01*
X154655382Y-92343633D02*
X154798239Y-92272204D01*
X154798239Y-92272204D02*
X154941097Y-92129347D01*
X154941097Y-92129347D02*
X155012525Y-91915061D01*
X155012525Y-91915061D02*
X155012525Y-91772204D01*
X155012525Y-91772204D02*
X154941097Y-91557918D01*
X154941097Y-91557918D02*
X154869668Y-91486490D01*
X154869668Y-91486490D02*
X154369668Y-91486490D01*
X154369668Y-91486490D02*
X154369668Y-91772204D01*
X155012525Y-90843633D02*
X153512525Y-90843633D01*
X153512525Y-90843633D02*
X155012525Y-89986490D01*
X155012525Y-89986490D02*
X153512525Y-89986490D01*
X155012525Y-89272204D02*
X153512525Y-89272204D01*
X153512525Y-89272204D02*
X153512525Y-88915061D01*
X153512525Y-88915061D02*
X153583954Y-88700775D01*
X153583954Y-88700775D02*
X153726811Y-88557918D01*
X153726811Y-88557918D02*
X153869668Y-88486489D01*
X153869668Y-88486489D02*
X154155382Y-88415061D01*
X154155382Y-88415061D02*
X154369668Y-88415061D01*
X154369668Y-88415061D02*
X154655382Y-88486489D01*
X154655382Y-88486489D02*
X154798239Y-88557918D01*
X154798239Y-88557918D02*
X154941097Y-88700775D01*
X154941097Y-88700775D02*
X155012525Y-88915061D01*
X155012525Y-88915061D02*
X155012525Y-89272204D01*
X149932525Y-92343633D02*
X148432525Y-92343633D01*
X149146811Y-92343633D02*
X149146811Y-91486490D01*
X149932525Y-91486490D02*
X148432525Y-91486490D01*
X149146811Y-90272204D02*
X149218239Y-90057918D01*
X149218239Y-90057918D02*
X149289668Y-89986489D01*
X149289668Y-89986489D02*
X149432525Y-89915061D01*
X149432525Y-89915061D02*
X149646811Y-89915061D01*
X149646811Y-89915061D02*
X149789668Y-89986489D01*
X149789668Y-89986489D02*
X149861097Y-90057918D01*
X149861097Y-90057918D02*
X149932525Y-90200775D01*
X149932525Y-90200775D02*
X149932525Y-90772204D01*
X149932525Y-90772204D02*
X148432525Y-90772204D01*
X148432525Y-90772204D02*
X148432525Y-90272204D01*
X148432525Y-90272204D02*
X148503954Y-90129347D01*
X148503954Y-90129347D02*
X148575382Y-90057918D01*
X148575382Y-90057918D02*
X148718239Y-89986489D01*
X148718239Y-89986489D02*
X148861097Y-89986489D01*
X148861097Y-89986489D02*
X149003954Y-90057918D01*
X149003954Y-90057918D02*
X149075382Y-90129347D01*
X149075382Y-90129347D02*
X149146811Y-90272204D01*
X149146811Y-90272204D02*
X149146811Y-90772204D01*
X149932525Y-89272204D02*
X148432525Y-89272204D01*
X149932525Y-88415061D02*
X149075382Y-89057918D01*
X148432525Y-88415061D02*
X149289668Y-89272204D01*
X137232525Y-80056490D02*
X136518239Y-80556490D01*
X137232525Y-80913633D02*
X135732525Y-80913633D01*
X135732525Y-80913633D02*
X135732525Y-80342204D01*
X135732525Y-80342204D02*
X135803954Y-80199347D01*
X135803954Y-80199347D02*
X135875382Y-80127918D01*
X135875382Y-80127918D02*
X136018239Y-80056490D01*
X136018239Y-80056490D02*
X136232525Y-80056490D01*
X136232525Y-80056490D02*
X136375382Y-80127918D01*
X136375382Y-80127918D02*
X136446811Y-80199347D01*
X136446811Y-80199347D02*
X136518239Y-80342204D01*
X136518239Y-80342204D02*
X136518239Y-80913633D01*
X137232525Y-79413633D02*
X135732525Y-79413633D01*
X135732525Y-79413633D02*
X135732525Y-79056490D01*
X135732525Y-79056490D02*
X135803954Y-78842204D01*
X135803954Y-78842204D02*
X135946811Y-78699347D01*
X135946811Y-78699347D02*
X136089668Y-78627918D01*
X136089668Y-78627918D02*
X136375382Y-78556490D01*
X136375382Y-78556490D02*
X136589668Y-78556490D01*
X136589668Y-78556490D02*
X136875382Y-78627918D01*
X136875382Y-78627918D02*
X137018239Y-78699347D01*
X137018239Y-78699347D02*
X137161097Y-78842204D01*
X137161097Y-78842204D02*
X137232525Y-79056490D01*
X137232525Y-79056490D02*
X137232525Y-79413633D01*
X135732525Y-77627918D02*
X135732525Y-77342204D01*
X135732525Y-77342204D02*
X135803954Y-77199347D01*
X135803954Y-77199347D02*
X135946811Y-77056490D01*
X135946811Y-77056490D02*
X136232525Y-76985061D01*
X136232525Y-76985061D02*
X136732525Y-76985061D01*
X136732525Y-76985061D02*
X137018239Y-77056490D01*
X137018239Y-77056490D02*
X137161097Y-77199347D01*
X137161097Y-77199347D02*
X137232525Y-77342204D01*
X137232525Y-77342204D02*
X137232525Y-77627918D01*
X137232525Y-77627918D02*
X137161097Y-77770776D01*
X137161097Y-77770776D02*
X137018239Y-77913633D01*
X137018239Y-77913633D02*
X136732525Y-77985061D01*
X136732525Y-77985061D02*
X136232525Y-77985061D01*
X136232525Y-77985061D02*
X135946811Y-77913633D01*
X135946811Y-77913633D02*
X135803954Y-77770776D01*
X135803954Y-77770776D02*
X135732525Y-77627918D01*
X135732525Y-75627918D02*
X135732525Y-76342204D01*
X135732525Y-76342204D02*
X136446811Y-76413632D01*
X136446811Y-76413632D02*
X136375382Y-76342204D01*
X136375382Y-76342204D02*
X136303954Y-76199347D01*
X136303954Y-76199347D02*
X136303954Y-75842204D01*
X136303954Y-75842204D02*
X136375382Y-75699347D01*
X136375382Y-75699347D02*
X136446811Y-75627918D01*
X136446811Y-75627918D02*
X136589668Y-75556489D01*
X136589668Y-75556489D02*
X136946811Y-75556489D01*
X136946811Y-75556489D02*
X137089668Y-75627918D01*
X137089668Y-75627918D02*
X137161097Y-75699347D01*
X137161097Y-75699347D02*
X137232525Y-75842204D01*
X137232525Y-75842204D02*
X137232525Y-76199347D01*
X137232525Y-76199347D02*
X137161097Y-76342204D01*
X137161097Y-76342204D02*
X137089668Y-76413632D01*
X134692525Y-80056490D02*
X133978239Y-80556490D01*
X134692525Y-80913633D02*
X133192525Y-80913633D01*
X133192525Y-80913633D02*
X133192525Y-80342204D01*
X133192525Y-80342204D02*
X133263954Y-80199347D01*
X133263954Y-80199347D02*
X133335382Y-80127918D01*
X133335382Y-80127918D02*
X133478239Y-80056490D01*
X133478239Y-80056490D02*
X133692525Y-80056490D01*
X133692525Y-80056490D02*
X133835382Y-80127918D01*
X133835382Y-80127918D02*
X133906811Y-80199347D01*
X133906811Y-80199347D02*
X133978239Y-80342204D01*
X133978239Y-80342204D02*
X133978239Y-80913633D01*
X134692525Y-79413633D02*
X133192525Y-79413633D01*
X133192525Y-79413633D02*
X133192525Y-79056490D01*
X133192525Y-79056490D02*
X133263954Y-78842204D01*
X133263954Y-78842204D02*
X133406811Y-78699347D01*
X133406811Y-78699347D02*
X133549668Y-78627918D01*
X133549668Y-78627918D02*
X133835382Y-78556490D01*
X133835382Y-78556490D02*
X134049668Y-78556490D01*
X134049668Y-78556490D02*
X134335382Y-78627918D01*
X134335382Y-78627918D02*
X134478239Y-78699347D01*
X134478239Y-78699347D02*
X134621097Y-78842204D01*
X134621097Y-78842204D02*
X134692525Y-79056490D01*
X134692525Y-79056490D02*
X134692525Y-79413633D01*
X133192525Y-77627918D02*
X133192525Y-77342204D01*
X133192525Y-77342204D02*
X133263954Y-77199347D01*
X133263954Y-77199347D02*
X133406811Y-77056490D01*
X133406811Y-77056490D02*
X133692525Y-76985061D01*
X133692525Y-76985061D02*
X134192525Y-76985061D01*
X134192525Y-76985061D02*
X134478239Y-77056490D01*
X134478239Y-77056490D02*
X134621097Y-77199347D01*
X134621097Y-77199347D02*
X134692525Y-77342204D01*
X134692525Y-77342204D02*
X134692525Y-77627918D01*
X134692525Y-77627918D02*
X134621097Y-77770776D01*
X134621097Y-77770776D02*
X134478239Y-77913633D01*
X134478239Y-77913633D02*
X134192525Y-77985061D01*
X134192525Y-77985061D02*
X133692525Y-77985061D01*
X133692525Y-77985061D02*
X133406811Y-77913633D01*
X133406811Y-77913633D02*
X133263954Y-77770776D01*
X133263954Y-77770776D02*
X133192525Y-77627918D01*
X133692525Y-75699347D02*
X134692525Y-75699347D01*
X133121097Y-76056489D02*
X134192525Y-76413632D01*
X134192525Y-76413632D02*
X134192525Y-75485061D01*
X137232525Y-91867490D02*
X136518239Y-92367490D01*
X137232525Y-92724633D02*
X135732525Y-92724633D01*
X135732525Y-92724633D02*
X135732525Y-92153204D01*
X135732525Y-92153204D02*
X135803954Y-92010347D01*
X135803954Y-92010347D02*
X135875382Y-91938918D01*
X135875382Y-91938918D02*
X136018239Y-91867490D01*
X136018239Y-91867490D02*
X136232525Y-91867490D01*
X136232525Y-91867490D02*
X136375382Y-91938918D01*
X136375382Y-91938918D02*
X136446811Y-92010347D01*
X136446811Y-92010347D02*
X136518239Y-92153204D01*
X136518239Y-92153204D02*
X136518239Y-92724633D01*
X137232525Y-91224633D02*
X135732525Y-91224633D01*
X135732525Y-91224633D02*
X135732525Y-90867490D01*
X135732525Y-90867490D02*
X135803954Y-90653204D01*
X135803954Y-90653204D02*
X135946811Y-90510347D01*
X135946811Y-90510347D02*
X136089668Y-90438918D01*
X136089668Y-90438918D02*
X136375382Y-90367490D01*
X136375382Y-90367490D02*
X136589668Y-90367490D01*
X136589668Y-90367490D02*
X136875382Y-90438918D01*
X136875382Y-90438918D02*
X137018239Y-90510347D01*
X137018239Y-90510347D02*
X137161097Y-90653204D01*
X137161097Y-90653204D02*
X137232525Y-90867490D01*
X137232525Y-90867490D02*
X137232525Y-91224633D01*
X137232525Y-89724633D02*
X135732525Y-89724633D01*
X135732525Y-88296061D02*
X135732525Y-89010347D01*
X135732525Y-89010347D02*
X136446811Y-89081775D01*
X136446811Y-89081775D02*
X136375382Y-89010347D01*
X136375382Y-89010347D02*
X136303954Y-88867490D01*
X136303954Y-88867490D02*
X136303954Y-88510347D01*
X136303954Y-88510347D02*
X136375382Y-88367490D01*
X136375382Y-88367490D02*
X136446811Y-88296061D01*
X136446811Y-88296061D02*
X136589668Y-88224632D01*
X136589668Y-88224632D02*
X136946811Y-88224632D01*
X136946811Y-88224632D02*
X137089668Y-88296061D01*
X137089668Y-88296061D02*
X137161097Y-88367490D01*
X137161097Y-88367490D02*
X137232525Y-88510347D01*
X137232525Y-88510347D02*
X137232525Y-88867490D01*
X137232525Y-88867490D02*
X137161097Y-89010347D01*
X137161097Y-89010347D02*
X137089668Y-89081775D01*
X154441097Y-80913633D02*
X154441097Y-79770776D01*
X155012525Y-80342204D02*
X153869668Y-80342204D01*
X153655382Y-79127918D02*
X153583954Y-79056490D01*
X153583954Y-79056490D02*
X153512525Y-78913633D01*
X153512525Y-78913633D02*
X153512525Y-78556490D01*
X153512525Y-78556490D02*
X153583954Y-78413633D01*
X153583954Y-78413633D02*
X153655382Y-78342204D01*
X153655382Y-78342204D02*
X153798239Y-78270775D01*
X153798239Y-78270775D02*
X153941097Y-78270775D01*
X153941097Y-78270775D02*
X154155382Y-78342204D01*
X154155382Y-78342204D02*
X155012525Y-79199347D01*
X155012525Y-79199347D02*
X155012525Y-78270775D01*
X154012525Y-76985062D02*
X155012525Y-76985062D01*
X153441097Y-77342204D02*
X154512525Y-77699347D01*
X154512525Y-77699347D02*
X154512525Y-76770776D01*
X153512525Y-76413633D02*
X155012525Y-75913633D01*
X155012525Y-75913633D02*
X153512525Y-75413633D01*
X127072525Y-80056490D02*
X126358239Y-80556490D01*
X127072525Y-80913633D02*
X125572525Y-80913633D01*
X125572525Y-80913633D02*
X125572525Y-80342204D01*
X125572525Y-80342204D02*
X125643954Y-80199347D01*
X125643954Y-80199347D02*
X125715382Y-80127918D01*
X125715382Y-80127918D02*
X125858239Y-80056490D01*
X125858239Y-80056490D02*
X126072525Y-80056490D01*
X126072525Y-80056490D02*
X126215382Y-80127918D01*
X126215382Y-80127918D02*
X126286811Y-80199347D01*
X126286811Y-80199347D02*
X126358239Y-80342204D01*
X126358239Y-80342204D02*
X126358239Y-80913633D01*
X127072525Y-79413633D02*
X125572525Y-79413633D01*
X125572525Y-79413633D02*
X125572525Y-79056490D01*
X125572525Y-79056490D02*
X125643954Y-78842204D01*
X125643954Y-78842204D02*
X125786811Y-78699347D01*
X125786811Y-78699347D02*
X125929668Y-78627918D01*
X125929668Y-78627918D02*
X126215382Y-78556490D01*
X126215382Y-78556490D02*
X126429668Y-78556490D01*
X126429668Y-78556490D02*
X126715382Y-78627918D01*
X126715382Y-78627918D02*
X126858239Y-78699347D01*
X126858239Y-78699347D02*
X127001097Y-78842204D01*
X127001097Y-78842204D02*
X127072525Y-79056490D01*
X127072525Y-79056490D02*
X127072525Y-79413633D01*
X125572525Y-77627918D02*
X125572525Y-77342204D01*
X125572525Y-77342204D02*
X125643954Y-77199347D01*
X125643954Y-77199347D02*
X125786811Y-77056490D01*
X125786811Y-77056490D02*
X126072525Y-76985061D01*
X126072525Y-76985061D02*
X126572525Y-76985061D01*
X126572525Y-76985061D02*
X126858239Y-77056490D01*
X126858239Y-77056490D02*
X127001097Y-77199347D01*
X127001097Y-77199347D02*
X127072525Y-77342204D01*
X127072525Y-77342204D02*
X127072525Y-77627918D01*
X127072525Y-77627918D02*
X127001097Y-77770776D01*
X127001097Y-77770776D02*
X126858239Y-77913633D01*
X126858239Y-77913633D02*
X126572525Y-77985061D01*
X126572525Y-77985061D02*
X126072525Y-77985061D01*
X126072525Y-77985061D02*
X125786811Y-77913633D01*
X125786811Y-77913633D02*
X125643954Y-77770776D01*
X125643954Y-77770776D02*
X125572525Y-77627918D01*
X127072525Y-75556489D02*
X127072525Y-76413632D01*
X127072525Y-75985061D02*
X125572525Y-75985061D01*
X125572525Y-75985061D02*
X125786811Y-76127918D01*
X125786811Y-76127918D02*
X125929668Y-76270775D01*
X125929668Y-76270775D02*
X126001097Y-76413632D01*
X139772525Y-91867490D02*
X139058239Y-92367490D01*
X139772525Y-92724633D02*
X138272525Y-92724633D01*
X138272525Y-92724633D02*
X138272525Y-92153204D01*
X138272525Y-92153204D02*
X138343954Y-92010347D01*
X138343954Y-92010347D02*
X138415382Y-91938918D01*
X138415382Y-91938918D02*
X138558239Y-91867490D01*
X138558239Y-91867490D02*
X138772525Y-91867490D01*
X138772525Y-91867490D02*
X138915382Y-91938918D01*
X138915382Y-91938918D02*
X138986811Y-92010347D01*
X138986811Y-92010347D02*
X139058239Y-92153204D01*
X139058239Y-92153204D02*
X139058239Y-92724633D01*
X139772525Y-91224633D02*
X138272525Y-91224633D01*
X138272525Y-91224633D02*
X138272525Y-90867490D01*
X138272525Y-90867490D02*
X138343954Y-90653204D01*
X138343954Y-90653204D02*
X138486811Y-90510347D01*
X138486811Y-90510347D02*
X138629668Y-90438918D01*
X138629668Y-90438918D02*
X138915382Y-90367490D01*
X138915382Y-90367490D02*
X139129668Y-90367490D01*
X139129668Y-90367490D02*
X139415382Y-90438918D01*
X139415382Y-90438918D02*
X139558239Y-90510347D01*
X139558239Y-90510347D02*
X139701097Y-90653204D01*
X139701097Y-90653204D02*
X139772525Y-90867490D01*
X139772525Y-90867490D02*
X139772525Y-91224633D01*
X139772525Y-89724633D02*
X138272525Y-89724633D01*
X138272525Y-88367490D02*
X138272525Y-88653204D01*
X138272525Y-88653204D02*
X138343954Y-88796061D01*
X138343954Y-88796061D02*
X138415382Y-88867490D01*
X138415382Y-88867490D02*
X138629668Y-89010347D01*
X138629668Y-89010347D02*
X138915382Y-89081775D01*
X138915382Y-89081775D02*
X139486811Y-89081775D01*
X139486811Y-89081775D02*
X139629668Y-89010347D01*
X139629668Y-89010347D02*
X139701097Y-88938918D01*
X139701097Y-88938918D02*
X139772525Y-88796061D01*
X139772525Y-88796061D02*
X139772525Y-88510347D01*
X139772525Y-88510347D02*
X139701097Y-88367490D01*
X139701097Y-88367490D02*
X139629668Y-88296061D01*
X139629668Y-88296061D02*
X139486811Y-88224632D01*
X139486811Y-88224632D02*
X139129668Y-88224632D01*
X139129668Y-88224632D02*
X138986811Y-88296061D01*
X138986811Y-88296061D02*
X138915382Y-88367490D01*
X138915382Y-88367490D02*
X138843954Y-88510347D01*
X138843954Y-88510347D02*
X138843954Y-88796061D01*
X138843954Y-88796061D02*
X138915382Y-88938918D01*
X138915382Y-88938918D02*
X138986811Y-89010347D01*
X138986811Y-89010347D02*
X139129668Y-89081775D01*
X149861097Y-80096061D02*
X149932525Y-79881776D01*
X149932525Y-79881776D02*
X149932525Y-79524633D01*
X149932525Y-79524633D02*
X149861097Y-79381776D01*
X149861097Y-79381776D02*
X149789668Y-79310347D01*
X149789668Y-79310347D02*
X149646811Y-79238918D01*
X149646811Y-79238918D02*
X149503954Y-79238918D01*
X149503954Y-79238918D02*
X149361097Y-79310347D01*
X149361097Y-79310347D02*
X149289668Y-79381776D01*
X149289668Y-79381776D02*
X149218239Y-79524633D01*
X149218239Y-79524633D02*
X149146811Y-79810347D01*
X149146811Y-79810347D02*
X149075382Y-79953204D01*
X149075382Y-79953204D02*
X149003954Y-80024633D01*
X149003954Y-80024633D02*
X148861097Y-80096061D01*
X148861097Y-80096061D02*
X148718239Y-80096061D01*
X148718239Y-80096061D02*
X148575382Y-80024633D01*
X148575382Y-80024633D02*
X148503954Y-79953204D01*
X148503954Y-79953204D02*
X148432525Y-79810347D01*
X148432525Y-79810347D02*
X148432525Y-79453204D01*
X148432525Y-79453204D02*
X148503954Y-79238918D01*
X148575382Y-78667490D02*
X148503954Y-78596062D01*
X148503954Y-78596062D02*
X148432525Y-78453205D01*
X148432525Y-78453205D02*
X148432525Y-78096062D01*
X148432525Y-78096062D02*
X148503954Y-77953205D01*
X148503954Y-77953205D02*
X148575382Y-77881776D01*
X148575382Y-77881776D02*
X148718239Y-77810347D01*
X148718239Y-77810347D02*
X148861097Y-77810347D01*
X148861097Y-77810347D02*
X149075382Y-77881776D01*
X149075382Y-77881776D02*
X149932525Y-78738919D01*
X149932525Y-78738919D02*
X149932525Y-77810347D01*
X149361097Y-77167491D02*
X149361097Y-76024634D01*
D12*
X183375312Y-72872419D02*
X183041979Y-72396228D01*
X182803884Y-72872419D02*
X182803884Y-71872419D01*
X182803884Y-71872419D02*
X183184836Y-71872419D01*
X183184836Y-71872419D02*
X183280074Y-71920038D01*
X183280074Y-71920038D02*
X183327693Y-71967657D01*
X183327693Y-71967657D02*
X183375312Y-72062895D01*
X183375312Y-72062895D02*
X183375312Y-72205752D01*
X183375312Y-72205752D02*
X183327693Y-72300990D01*
X183327693Y-72300990D02*
X183280074Y-72348609D01*
X183280074Y-72348609D02*
X183184836Y-72396228D01*
X183184836Y-72396228D02*
X182803884Y-72396228D01*
X183803884Y-72348609D02*
X184137217Y-72348609D01*
X184280074Y-72872419D02*
X183803884Y-72872419D01*
X183803884Y-72872419D02*
X183803884Y-71872419D01*
X183803884Y-71872419D02*
X184280074Y-71872419D01*
X184565789Y-71872419D02*
X184899122Y-72872419D01*
X184899122Y-72872419D02*
X185232455Y-71872419D01*
X186089598Y-72872419D02*
X185518170Y-72872419D01*
X185803884Y-72872419D02*
X185803884Y-71872419D01*
X185803884Y-71872419D02*
X185708646Y-72015276D01*
X185708646Y-72015276D02*
X185613408Y-72110514D01*
X185613408Y-72110514D02*
X185518170Y-72158133D01*
X186518170Y-72777180D02*
X186565789Y-72824800D01*
X186565789Y-72824800D02*
X186518170Y-72872419D01*
X186518170Y-72872419D02*
X186470551Y-72824800D01*
X186470551Y-72824800D02*
X186518170Y-72777180D01*
X186518170Y-72777180D02*
X186518170Y-72872419D01*
X187184836Y-71872419D02*
X187280074Y-71872419D01*
X187280074Y-71872419D02*
X187375312Y-71920038D01*
X187375312Y-71920038D02*
X187422931Y-71967657D01*
X187422931Y-71967657D02*
X187470550Y-72062895D01*
X187470550Y-72062895D02*
X187518169Y-72253371D01*
X187518169Y-72253371D02*
X187518169Y-72491466D01*
X187518169Y-72491466D02*
X187470550Y-72681942D01*
X187470550Y-72681942D02*
X187422931Y-72777180D01*
X187422931Y-72777180D02*
X187375312Y-72824800D01*
X187375312Y-72824800D02*
X187280074Y-72872419D01*
X187280074Y-72872419D02*
X187184836Y-72872419D01*
X187184836Y-72872419D02*
X187089598Y-72824800D01*
X187089598Y-72824800D02*
X187041979Y-72777180D01*
X187041979Y-72777180D02*
X186994360Y-72681942D01*
X186994360Y-72681942D02*
X186946741Y-72491466D01*
X186946741Y-72491466D02*
X186946741Y-72253371D01*
X186946741Y-72253371D02*
X186994360Y-72062895D01*
X186994360Y-72062895D02*
X187041979Y-71967657D01*
X187041979Y-71967657D02*
X187089598Y-71920038D01*
X187089598Y-71920038D02*
X187184836Y-71872419D01*
D10*
X144852525Y-80056490D02*
X144138239Y-80556490D01*
X144852525Y-80913633D02*
X143352525Y-80913633D01*
X143352525Y-80913633D02*
X143352525Y-80342204D01*
X143352525Y-80342204D02*
X143423954Y-80199347D01*
X143423954Y-80199347D02*
X143495382Y-80127918D01*
X143495382Y-80127918D02*
X143638239Y-80056490D01*
X143638239Y-80056490D02*
X143852525Y-80056490D01*
X143852525Y-80056490D02*
X143995382Y-80127918D01*
X143995382Y-80127918D02*
X144066811Y-80199347D01*
X144066811Y-80199347D02*
X144138239Y-80342204D01*
X144138239Y-80342204D02*
X144138239Y-80913633D01*
X144852525Y-79413633D02*
X143352525Y-79413633D01*
X143352525Y-79413633D02*
X143352525Y-79056490D01*
X143352525Y-79056490D02*
X143423954Y-78842204D01*
X143423954Y-78842204D02*
X143566811Y-78699347D01*
X143566811Y-78699347D02*
X143709668Y-78627918D01*
X143709668Y-78627918D02*
X143995382Y-78556490D01*
X143995382Y-78556490D02*
X144209668Y-78556490D01*
X144209668Y-78556490D02*
X144495382Y-78627918D01*
X144495382Y-78627918D02*
X144638239Y-78699347D01*
X144638239Y-78699347D02*
X144781097Y-78842204D01*
X144781097Y-78842204D02*
X144852525Y-79056490D01*
X144852525Y-79056490D02*
X144852525Y-79413633D01*
X143352525Y-77627918D02*
X143352525Y-77342204D01*
X143352525Y-77342204D02*
X143423954Y-77199347D01*
X143423954Y-77199347D02*
X143566811Y-77056490D01*
X143566811Y-77056490D02*
X143852525Y-76985061D01*
X143852525Y-76985061D02*
X144352525Y-76985061D01*
X144352525Y-76985061D02*
X144638239Y-77056490D01*
X144638239Y-77056490D02*
X144781097Y-77199347D01*
X144781097Y-77199347D02*
X144852525Y-77342204D01*
X144852525Y-77342204D02*
X144852525Y-77627918D01*
X144852525Y-77627918D02*
X144781097Y-77770776D01*
X144781097Y-77770776D02*
X144638239Y-77913633D01*
X144638239Y-77913633D02*
X144352525Y-77985061D01*
X144352525Y-77985061D02*
X143852525Y-77985061D01*
X143852525Y-77985061D02*
X143566811Y-77913633D01*
X143566811Y-77913633D02*
X143423954Y-77770776D01*
X143423954Y-77770776D02*
X143352525Y-77627918D01*
X143995382Y-76127918D02*
X143923954Y-76270775D01*
X143923954Y-76270775D02*
X143852525Y-76342204D01*
X143852525Y-76342204D02*
X143709668Y-76413632D01*
X143709668Y-76413632D02*
X143638239Y-76413632D01*
X143638239Y-76413632D02*
X143495382Y-76342204D01*
X143495382Y-76342204D02*
X143423954Y-76270775D01*
X143423954Y-76270775D02*
X143352525Y-76127918D01*
X143352525Y-76127918D02*
X143352525Y-75842204D01*
X143352525Y-75842204D02*
X143423954Y-75699347D01*
X143423954Y-75699347D02*
X143495382Y-75627918D01*
X143495382Y-75627918D02*
X143638239Y-75556489D01*
X143638239Y-75556489D02*
X143709668Y-75556489D01*
X143709668Y-75556489D02*
X143852525Y-75627918D01*
X143852525Y-75627918D02*
X143923954Y-75699347D01*
X143923954Y-75699347D02*
X143995382Y-75842204D01*
X143995382Y-75842204D02*
X143995382Y-76127918D01*
X143995382Y-76127918D02*
X144066811Y-76270775D01*
X144066811Y-76270775D02*
X144138239Y-76342204D01*
X144138239Y-76342204D02*
X144281097Y-76413632D01*
X144281097Y-76413632D02*
X144566811Y-76413632D01*
X144566811Y-76413632D02*
X144709668Y-76342204D01*
X144709668Y-76342204D02*
X144781097Y-76270775D01*
X144781097Y-76270775D02*
X144852525Y-76127918D01*
X144852525Y-76127918D02*
X144852525Y-75842204D01*
X144852525Y-75842204D02*
X144781097Y-75699347D01*
X144781097Y-75699347D02*
X144709668Y-75627918D01*
X144709668Y-75627918D02*
X144566811Y-75556489D01*
X144566811Y-75556489D02*
X144281097Y-75556489D01*
X144281097Y-75556489D02*
X144138239Y-75627918D01*
X144138239Y-75627918D02*
X144066811Y-75699347D01*
X144066811Y-75699347D02*
X143995382Y-75842204D01*
X121501019Y-92163441D02*
X121501019Y-91496774D01*
X122548638Y-91211060D02*
X122548638Y-92163441D01*
X122548638Y-92163441D02*
X120548638Y-92163441D01*
X120548638Y-92163441D02*
X120548638Y-91211060D01*
X121501019Y-90353917D02*
X121501019Y-89687250D01*
X122548638Y-89401536D02*
X122548638Y-90353917D01*
X122548638Y-90353917D02*
X120548638Y-90353917D01*
X120548638Y-90353917D02*
X120548638Y-89401536D01*
X122453400Y-87115821D02*
X122548638Y-86830107D01*
X122548638Y-86830107D02*
X122548638Y-86353916D01*
X122548638Y-86353916D02*
X122453400Y-86163440D01*
X122453400Y-86163440D02*
X122358161Y-86068202D01*
X122358161Y-86068202D02*
X122167685Y-85972964D01*
X122167685Y-85972964D02*
X121977209Y-85972964D01*
X121977209Y-85972964D02*
X121786733Y-86068202D01*
X121786733Y-86068202D02*
X121691495Y-86163440D01*
X121691495Y-86163440D02*
X121596257Y-86353916D01*
X121596257Y-86353916D02*
X121501019Y-86734869D01*
X121501019Y-86734869D02*
X121405780Y-86925345D01*
X121405780Y-86925345D02*
X121310542Y-87020583D01*
X121310542Y-87020583D02*
X121120066Y-87115821D01*
X121120066Y-87115821D02*
X120929590Y-87115821D01*
X120929590Y-87115821D02*
X120739114Y-87020583D01*
X120739114Y-87020583D02*
X120643876Y-86925345D01*
X120643876Y-86925345D02*
X120548638Y-86734869D01*
X120548638Y-86734869D02*
X120548638Y-86258678D01*
X120548638Y-86258678D02*
X120643876Y-85972964D01*
X122548638Y-85115821D02*
X120548638Y-85115821D01*
X120643876Y-83115821D02*
X120548638Y-83306297D01*
X120548638Y-83306297D02*
X120548638Y-83592011D01*
X120548638Y-83592011D02*
X120643876Y-83877726D01*
X120643876Y-83877726D02*
X120834352Y-84068202D01*
X120834352Y-84068202D02*
X121024828Y-84163440D01*
X121024828Y-84163440D02*
X121405780Y-84258678D01*
X121405780Y-84258678D02*
X121691495Y-84258678D01*
X121691495Y-84258678D02*
X122072447Y-84163440D01*
X122072447Y-84163440D02*
X122262923Y-84068202D01*
X122262923Y-84068202D02*
X122453400Y-83877726D01*
X122453400Y-83877726D02*
X122548638Y-83592011D01*
X122548638Y-83592011D02*
X122548638Y-83401535D01*
X122548638Y-83401535D02*
X122453400Y-83115821D01*
X122453400Y-83115821D02*
X122358161Y-83020583D01*
X122358161Y-83020583D02*
X121691495Y-83020583D01*
X121691495Y-83020583D02*
X121691495Y-83401535D01*
X122548638Y-82163440D02*
X120548638Y-82163440D01*
X120548638Y-82163440D02*
X122548638Y-81020583D01*
X122548638Y-81020583D02*
X120548638Y-81020583D01*
X121977209Y-80163440D02*
X121977209Y-79211059D01*
X122548638Y-80353916D02*
X120548638Y-79687250D01*
X120548638Y-79687250D02*
X122548638Y-79020583D01*
X122548638Y-77401535D02*
X122548638Y-78353916D01*
X122548638Y-78353916D02*
X120548638Y-78353916D01*
X122453400Y-76830106D02*
X122548638Y-76544392D01*
X122548638Y-76544392D02*
X122548638Y-76068201D01*
X122548638Y-76068201D02*
X122453400Y-75877725D01*
X122453400Y-75877725D02*
X122358161Y-75782487D01*
X122358161Y-75782487D02*
X122167685Y-75687249D01*
X122167685Y-75687249D02*
X121977209Y-75687249D01*
X121977209Y-75687249D02*
X121786733Y-75782487D01*
X121786733Y-75782487D02*
X121691495Y-75877725D01*
X121691495Y-75877725D02*
X121596257Y-76068201D01*
X121596257Y-76068201D02*
X121501019Y-76449154D01*
X121501019Y-76449154D02*
X121405780Y-76639630D01*
X121405780Y-76639630D02*
X121310542Y-76734868D01*
X121310542Y-76734868D02*
X121120066Y-76830106D01*
X121120066Y-76830106D02*
X120929590Y-76830106D01*
X120929590Y-76830106D02*
X120739114Y-76734868D01*
X120739114Y-76734868D02*
X120643876Y-76639630D01*
X120643876Y-76639630D02*
X120548638Y-76449154D01*
X120548638Y-76449154D02*
X120548638Y-75972963D01*
X120548638Y-75972963D02*
X120643876Y-75687249D01*
X129612525Y-80056490D02*
X128898239Y-80556490D01*
X129612525Y-80913633D02*
X128112525Y-80913633D01*
X128112525Y-80913633D02*
X128112525Y-80342204D01*
X128112525Y-80342204D02*
X128183954Y-80199347D01*
X128183954Y-80199347D02*
X128255382Y-80127918D01*
X128255382Y-80127918D02*
X128398239Y-80056490D01*
X128398239Y-80056490D02*
X128612525Y-80056490D01*
X128612525Y-80056490D02*
X128755382Y-80127918D01*
X128755382Y-80127918D02*
X128826811Y-80199347D01*
X128826811Y-80199347D02*
X128898239Y-80342204D01*
X128898239Y-80342204D02*
X128898239Y-80913633D01*
X129612525Y-79413633D02*
X128112525Y-79413633D01*
X128112525Y-79413633D02*
X128112525Y-79056490D01*
X128112525Y-79056490D02*
X128183954Y-78842204D01*
X128183954Y-78842204D02*
X128326811Y-78699347D01*
X128326811Y-78699347D02*
X128469668Y-78627918D01*
X128469668Y-78627918D02*
X128755382Y-78556490D01*
X128755382Y-78556490D02*
X128969668Y-78556490D01*
X128969668Y-78556490D02*
X129255382Y-78627918D01*
X129255382Y-78627918D02*
X129398239Y-78699347D01*
X129398239Y-78699347D02*
X129541097Y-78842204D01*
X129541097Y-78842204D02*
X129612525Y-79056490D01*
X129612525Y-79056490D02*
X129612525Y-79413633D01*
X128112525Y-77627918D02*
X128112525Y-77342204D01*
X128112525Y-77342204D02*
X128183954Y-77199347D01*
X128183954Y-77199347D02*
X128326811Y-77056490D01*
X128326811Y-77056490D02*
X128612525Y-76985061D01*
X128612525Y-76985061D02*
X129112525Y-76985061D01*
X129112525Y-76985061D02*
X129398239Y-77056490D01*
X129398239Y-77056490D02*
X129541097Y-77199347D01*
X129541097Y-77199347D02*
X129612525Y-77342204D01*
X129612525Y-77342204D02*
X129612525Y-77627918D01*
X129612525Y-77627918D02*
X129541097Y-77770776D01*
X129541097Y-77770776D02*
X129398239Y-77913633D01*
X129398239Y-77913633D02*
X129112525Y-77985061D01*
X129112525Y-77985061D02*
X128612525Y-77985061D01*
X128612525Y-77985061D02*
X128326811Y-77913633D01*
X128326811Y-77913633D02*
X128183954Y-77770776D01*
X128183954Y-77770776D02*
X128112525Y-77627918D01*
X128255382Y-76413632D02*
X128183954Y-76342204D01*
X128183954Y-76342204D02*
X128112525Y-76199347D01*
X128112525Y-76199347D02*
X128112525Y-75842204D01*
X128112525Y-75842204D02*
X128183954Y-75699347D01*
X128183954Y-75699347D02*
X128255382Y-75627918D01*
X128255382Y-75627918D02*
X128398239Y-75556489D01*
X128398239Y-75556489D02*
X128541097Y-75556489D01*
X128541097Y-75556489D02*
X128755382Y-75627918D01*
X128755382Y-75627918D02*
X129612525Y-76485061D01*
X129612525Y-76485061D02*
X129612525Y-75556489D01*
%TO.C,J3*%
D11*
X161103000Y-108624000D02*
X189297000Y-108624000D01*
X189297000Y-91606000D01*
X161103000Y-91606000D01*
X161103000Y-108624000D01*
%TO.C,J1*%
D12*
X113300000Y-29640000D02*
X183500000Y-29640000D01*
X183500000Y-57840000D01*
X113300000Y-57840000D01*
X113300000Y-29640000D01*
X115500000Y-57840000D02*
X181300000Y-57840000D01*
X181300000Y-71240000D01*
X115500000Y-71240000D01*
X115500000Y-57840000D01*
D13*
%TO.C,REF\u002A\u002A*%
X186689975Y-69250000D02*
G75*
G02*
X183642025Y-69250000I-1523975J0D01*
G01*
X183642025Y-69250000D02*
G75*
G02*
X186689975Y-69250000I1523975J0D01*
G01*
D14*
X184436906Y-70033879D02*
X184109740Y-70033879D01*
X184109740Y-68489754D01*
X184436906Y-68489754D01*
X184436906Y-70033879D01*
G36*
X184436906Y-70033879D02*
G01*
X184109740Y-70033879D01*
X184109740Y-68489754D01*
X184436906Y-68489754D01*
X184436906Y-70033879D01*
G37*
X185094956Y-68750000D02*
X184534808Y-68750000D01*
X184534808Y-68489754D01*
X185082564Y-68489754D01*
X185094956Y-68750000D01*
G36*
X185094956Y-68750000D02*
G01*
X184534808Y-68750000D01*
X184534808Y-68489754D01*
X185082564Y-68489754D01*
X185094956Y-68750000D01*
G37*
X184974748Y-69380786D02*
X184534808Y-69380786D01*
X184534808Y-69141608D01*
X184974748Y-69141608D01*
X184974748Y-69380786D01*
G36*
X184974748Y-69380786D02*
G01*
X184534808Y-69380786D01*
X184534808Y-69141608D01*
X184974748Y-69141608D01*
X184974748Y-69380786D01*
G37*
X185082564Y-70033879D02*
X184534808Y-70033879D01*
X184534808Y-69772394D01*
X185094956Y-69772394D01*
X185082564Y-70033879D01*
G36*
X185082564Y-70033879D02*
G01*
X184534808Y-70033879D01*
X184534808Y-69772394D01*
X185094956Y-69772394D01*
X185082564Y-70033879D01*
G37*
X185759203Y-68750000D02*
X185689804Y-68750000D01*
X185680234Y-68750281D01*
X185671262Y-68751100D01*
X185662868Y-68752421D01*
X185655034Y-68754207D01*
X185647740Y-68756424D01*
X185640967Y-68759035D01*
X185634695Y-68762005D01*
X185628906Y-68765298D01*
X185623579Y-68768877D01*
X185614237Y-68776753D01*
X185606516Y-68785345D01*
X185600260Y-68794368D01*
X185595316Y-68803535D01*
X185591529Y-68812558D01*
X185588745Y-68821150D01*
X185586810Y-68829026D01*
X185585569Y-68835898D01*
X185584672Y-68843696D01*
X185584467Y-68847902D01*
X185584467Y-69674492D01*
X185584769Y-69683386D01*
X185585649Y-69691725D01*
X185587070Y-69699526D01*
X185588993Y-69706807D01*
X185591378Y-69713586D01*
X185594188Y-69719881D01*
X185597383Y-69725710D01*
X185600925Y-69731091D01*
X185604777Y-69736042D01*
X185613250Y-69744724D01*
X185622496Y-69751901D01*
X185632204Y-69757715D01*
X185642066Y-69762310D01*
X185651774Y-69765829D01*
X185661020Y-69768417D01*
X185669493Y-69770215D01*
X185676887Y-69771369D01*
X185685277Y-69772202D01*
X185689804Y-69772394D01*
X185759203Y-69772394D01*
X185759203Y-70033879D01*
X185630319Y-70033879D01*
X185596429Y-70032912D01*
X185564658Y-70030093D01*
X185534935Y-70025546D01*
X185507193Y-70019395D01*
X185481364Y-70011762D01*
X185457378Y-70002771D01*
X185435169Y-69992546D01*
X185414667Y-69981210D01*
X185395804Y-69968886D01*
X185378512Y-69955698D01*
X185362723Y-69941770D01*
X185348369Y-69927224D01*
X185335380Y-69912185D01*
X185323689Y-69896775D01*
X185313227Y-69881119D01*
X185303927Y-69865339D01*
X185295719Y-69849558D01*
X185288536Y-69833902D01*
X185282309Y-69818492D01*
X185276970Y-69803453D01*
X185272451Y-69788907D01*
X185268683Y-69774979D01*
X185265598Y-69761791D01*
X185263128Y-69749467D01*
X185261204Y-69738131D01*
X185259758Y-69727906D01*
X185258722Y-69718915D01*
X185258028Y-69711282D01*
X185257391Y-69700584D01*
X185257300Y-69696799D01*
X185257300Y-68826834D01*
X185258370Y-68796211D01*
X185261489Y-68767500D01*
X185266520Y-68740641D01*
X185273328Y-68715572D01*
X185281774Y-68692231D01*
X185291724Y-68670556D01*
X185303039Y-68650487D01*
X185315584Y-68631960D01*
X185329221Y-68614915D01*
X185343815Y-68599289D01*
X185359229Y-68585021D01*
X185375325Y-68572049D01*
X185391968Y-68560312D01*
X185409021Y-68549747D01*
X185426347Y-68540294D01*
X185443809Y-68531889D01*
X185461271Y-68524473D01*
X185478597Y-68517982D01*
X185495650Y-68512355D01*
X185512293Y-68507530D01*
X185528389Y-68503446D01*
X185543803Y-68500041D01*
X185558397Y-68497254D01*
X185572034Y-68495021D01*
X185584579Y-68493283D01*
X185595894Y-68491976D01*
X185605844Y-68491040D01*
X185614290Y-68490413D01*
X185621098Y-68490032D01*
X185629248Y-68489765D01*
X185630319Y-68489754D01*
X185759203Y-68489754D01*
X185759203Y-68750000D01*
G36*
X185759203Y-68750000D02*
G01*
X185689804Y-68750000D01*
X185680234Y-68750281D01*
X185671262Y-68751100D01*
X185662868Y-68752421D01*
X185655034Y-68754207D01*
X185647740Y-68756424D01*
X185640967Y-68759035D01*
X185634695Y-68762005D01*
X185628906Y-68765298D01*
X185623579Y-68768877D01*
X185614237Y-68776753D01*
X185606516Y-68785345D01*
X185600260Y-68794368D01*
X185595316Y-68803535D01*
X185591529Y-68812558D01*
X185588745Y-68821150D01*
X185586810Y-68829026D01*
X185585569Y-68835898D01*
X185584672Y-68843696D01*
X185584467Y-68847902D01*
X185584467Y-69674492D01*
X185584769Y-69683386D01*
X185585649Y-69691725D01*
X185587070Y-69699526D01*
X185588993Y-69706807D01*
X185591378Y-69713586D01*
X185594188Y-69719881D01*
X185597383Y-69725710D01*
X185600925Y-69731091D01*
X185604777Y-69736042D01*
X185613250Y-69744724D01*
X185622496Y-69751901D01*
X185632204Y-69757715D01*
X185642066Y-69762310D01*
X185651774Y-69765829D01*
X185661020Y-69768417D01*
X185669493Y-69770215D01*
X185676887Y-69771369D01*
X185685277Y-69772202D01*
X185689804Y-69772394D01*
X185759203Y-69772394D01*
X185759203Y-70033879D01*
X185630319Y-70033879D01*
X185596429Y-70032912D01*
X185564658Y-70030093D01*
X185534935Y-70025546D01*
X185507193Y-70019395D01*
X185481364Y-70011762D01*
X185457378Y-70002771D01*
X185435169Y-69992546D01*
X185414667Y-69981210D01*
X185395804Y-69968886D01*
X185378512Y-69955698D01*
X185362723Y-69941770D01*
X185348369Y-69927224D01*
X185335380Y-69912185D01*
X185323689Y-69896775D01*
X185313227Y-69881119D01*
X185303927Y-69865339D01*
X185295719Y-69849558D01*
X185288536Y-69833902D01*
X185282309Y-69818492D01*
X185276970Y-69803453D01*
X185272451Y-69788907D01*
X185268683Y-69774979D01*
X185265598Y-69761791D01*
X185263128Y-69749467D01*
X185261204Y-69738131D01*
X185259758Y-69727906D01*
X185258722Y-69718915D01*
X185258028Y-69711282D01*
X185257391Y-69700584D01*
X185257300Y-69696799D01*
X185257300Y-68826834D01*
X185258370Y-68796211D01*
X185261489Y-68767500D01*
X185266520Y-68740641D01*
X185273328Y-68715572D01*
X185281774Y-68692231D01*
X185291724Y-68670556D01*
X185303039Y-68650487D01*
X185315584Y-68631960D01*
X185329221Y-68614915D01*
X185343815Y-68599289D01*
X185359229Y-68585021D01*
X185375325Y-68572049D01*
X185391968Y-68560312D01*
X185409021Y-68549747D01*
X185426347Y-68540294D01*
X185443809Y-68531889D01*
X185461271Y-68524473D01*
X185478597Y-68517982D01*
X185495650Y-68512355D01*
X185512293Y-68507530D01*
X185528389Y-68503446D01*
X185543803Y-68500041D01*
X185558397Y-68497254D01*
X185572034Y-68495021D01*
X185584579Y-68493283D01*
X185595894Y-68491976D01*
X185605844Y-68491040D01*
X185614290Y-68490413D01*
X185621098Y-68490032D01*
X185629248Y-68489765D01*
X185630319Y-68489754D01*
X185759203Y-68489754D01*
X185759203Y-68750000D01*
G37*
X186022356Y-68490721D02*
X186054127Y-68493540D01*
X186083850Y-68498087D01*
X186111592Y-68504238D01*
X186137421Y-68511871D01*
X186161407Y-68520862D01*
X186183616Y-68531087D01*
X186204118Y-68542423D01*
X186222981Y-68554747D01*
X186240273Y-68567935D01*
X186256062Y-68581863D01*
X186270416Y-68596409D01*
X186283405Y-68611448D01*
X186295096Y-68626858D01*
X186305558Y-68642514D01*
X186314858Y-68658294D01*
X186323066Y-68674075D01*
X186330249Y-68689731D01*
X186336476Y-68705141D01*
X186341815Y-68720180D01*
X186346334Y-68734726D01*
X186350102Y-68748654D01*
X186353187Y-68761842D01*
X186355657Y-68774166D01*
X186357581Y-68785502D01*
X186359027Y-68795727D01*
X186360063Y-68804718D01*
X186360757Y-68812351D01*
X186361394Y-68823049D01*
X186361486Y-68826834D01*
X186361486Y-69696799D01*
X186360415Y-69727422D01*
X186357296Y-69756133D01*
X186352265Y-69782992D01*
X186345457Y-69808061D01*
X186337011Y-69831402D01*
X186327061Y-69853077D01*
X186315746Y-69873146D01*
X186303201Y-69891673D01*
X186289564Y-69908718D01*
X186274970Y-69924344D01*
X186259556Y-69938612D01*
X186243460Y-69951584D01*
X186226817Y-69963321D01*
X186209764Y-69973886D01*
X186192438Y-69983339D01*
X186174976Y-69991744D01*
X186157514Y-69999160D01*
X186140188Y-70005651D01*
X186123135Y-70011278D01*
X186106492Y-70016103D01*
X186090396Y-70020187D01*
X186074982Y-70023592D01*
X186060388Y-70026379D01*
X186046751Y-70028612D01*
X186034206Y-70030350D01*
X186022891Y-70031657D01*
X186012941Y-70032593D01*
X186004495Y-70033220D01*
X185997687Y-70033601D01*
X185989537Y-70033868D01*
X185988467Y-70033879D01*
X185855866Y-70033879D01*
X185855866Y-69772394D01*
X185928983Y-69772394D01*
X185938552Y-69772113D01*
X185947524Y-69771294D01*
X185955918Y-69769973D01*
X185963752Y-69768187D01*
X185971046Y-69765970D01*
X185977819Y-69763359D01*
X185984091Y-69760389D01*
X185989880Y-69757096D01*
X185995207Y-69753517D01*
X186004549Y-69745641D01*
X186012270Y-69737049D01*
X186018526Y-69728026D01*
X186023470Y-69718859D01*
X186027257Y-69709836D01*
X186030041Y-69701244D01*
X186031976Y-69693368D01*
X186033217Y-69686496D01*
X186034114Y-69678698D01*
X186034320Y-69674492D01*
X186034320Y-68847902D01*
X186034017Y-68839008D01*
X186033137Y-68830669D01*
X186031716Y-68822868D01*
X186029793Y-68815587D01*
X186027408Y-68808808D01*
X186024598Y-68802513D01*
X186021403Y-68796684D01*
X186017861Y-68791303D01*
X186014009Y-68786352D01*
X186005536Y-68777670D01*
X185996290Y-68770493D01*
X185986582Y-68764679D01*
X185976720Y-68760084D01*
X185967012Y-68756565D01*
X185957766Y-68753977D01*
X185949293Y-68752179D01*
X185941899Y-68751025D01*
X185933509Y-68750192D01*
X185928983Y-68750000D01*
X185855866Y-68750000D01*
X185855866Y-68489754D01*
X185988467Y-68489754D01*
X186022356Y-68490721D01*
G36*
X186022356Y-68490721D02*
G01*
X186054127Y-68493540D01*
X186083850Y-68498087D01*
X186111592Y-68504238D01*
X186137421Y-68511871D01*
X186161407Y-68520862D01*
X186183616Y-68531087D01*
X186204118Y-68542423D01*
X186222981Y-68554747D01*
X186240273Y-68567935D01*
X186256062Y-68581863D01*
X186270416Y-68596409D01*
X186283405Y-68611448D01*
X186295096Y-68626858D01*
X186305558Y-68642514D01*
X186314858Y-68658294D01*
X186323066Y-68674075D01*
X186330249Y-68689731D01*
X186336476Y-68705141D01*
X186341815Y-68720180D01*
X186346334Y-68734726D01*
X186350102Y-68748654D01*
X186353187Y-68761842D01*
X186355657Y-68774166D01*
X186357581Y-68785502D01*
X186359027Y-68795727D01*
X186360063Y-68804718D01*
X186360757Y-68812351D01*
X186361394Y-68823049D01*
X186361486Y-68826834D01*
X186361486Y-69696799D01*
X186360415Y-69727422D01*
X186357296Y-69756133D01*
X186352265Y-69782992D01*
X186345457Y-69808061D01*
X186337011Y-69831402D01*
X186327061Y-69853077D01*
X186315746Y-69873146D01*
X186303201Y-69891673D01*
X186289564Y-69908718D01*
X186274970Y-69924344D01*
X186259556Y-69938612D01*
X186243460Y-69951584D01*
X186226817Y-69963321D01*
X186209764Y-69973886D01*
X186192438Y-69983339D01*
X186174976Y-69991744D01*
X186157514Y-69999160D01*
X186140188Y-70005651D01*
X186123135Y-70011278D01*
X186106492Y-70016103D01*
X186090396Y-70020187D01*
X186074982Y-70023592D01*
X186060388Y-70026379D01*
X186046751Y-70028612D01*
X186034206Y-70030350D01*
X186022891Y-70031657D01*
X186012941Y-70032593D01*
X186004495Y-70033220D01*
X185997687Y-70033601D01*
X185989537Y-70033868D01*
X185988467Y-70033879D01*
X185855866Y-70033879D01*
X185855866Y-69772394D01*
X185928983Y-69772394D01*
X185938552Y-69772113D01*
X185947524Y-69771294D01*
X185955918Y-69769973D01*
X185963752Y-69768187D01*
X185971046Y-69765970D01*
X185977819Y-69763359D01*
X185984091Y-69760389D01*
X185989880Y-69757096D01*
X185995207Y-69753517D01*
X186004549Y-69745641D01*
X186012270Y-69737049D01*
X186018526Y-69728026D01*
X186023470Y-69718859D01*
X186027257Y-69709836D01*
X186030041Y-69701244D01*
X186031976Y-69693368D01*
X186033217Y-69686496D01*
X186034114Y-69678698D01*
X186034320Y-69674492D01*
X186034320Y-68847902D01*
X186034017Y-68839008D01*
X186033137Y-68830669D01*
X186031716Y-68822868D01*
X186029793Y-68815587D01*
X186027408Y-68808808D01*
X186024598Y-68802513D01*
X186021403Y-68796684D01*
X186017861Y-68791303D01*
X186014009Y-68786352D01*
X186005536Y-68777670D01*
X185996290Y-68770493D01*
X185986582Y-68764679D01*
X185976720Y-68760084D01*
X185967012Y-68756565D01*
X185957766Y-68753977D01*
X185949293Y-68752179D01*
X185941899Y-68751025D01*
X185933509Y-68750192D01*
X185928983Y-68750000D01*
X185855866Y-68750000D01*
X185855866Y-68489754D01*
X185988467Y-68489754D01*
X186022356Y-68490721D01*
G37*
D15*
%TO.C,J2*%
X91288600Y-64102399D02*
X97283000Y-64102399D01*
X91288600Y-67556799D02*
X91288600Y-64102399D01*
X91288600Y-70033299D02*
X91288600Y-108666699D01*
X91288600Y-108666699D02*
X97537000Y-108666699D01*
X91288600Y-111143199D02*
X97283000Y-111143199D01*
X91288600Y-114597599D02*
X91288600Y-111143199D01*
X97283000Y-62705399D02*
X97283000Y-115994599D01*
X97283000Y-67556799D02*
X91288600Y-67556799D01*
X97283000Y-114597599D02*
X91288600Y-114597599D01*
X97283000Y-115994599D02*
X113640600Y-115994599D01*
X97537000Y-70033299D02*
X91288600Y-70033299D01*
X97537000Y-108666699D02*
X97537000Y-70033299D01*
X113640600Y-62705399D02*
X97283000Y-62705399D01*
X113640600Y-115994599D02*
X113640600Y-62705399D01*
%TO.C,J4*%
D11*
X161103000Y-91009000D02*
X189297000Y-91009000D01*
X189297000Y-73991000D01*
X161103000Y-73991000D01*
X161103000Y-91009000D01*
D16*
%TO.C,J5*%
X125011697Y-82033144D02*
X155611697Y-82033144D01*
X125011697Y-84633144D02*
X125011697Y-82033144D01*
X125011697Y-87233144D02*
X125011697Y-85903144D01*
X126341697Y-87233144D02*
X125011697Y-87233144D01*
X127611697Y-84633144D02*
X125011697Y-84633144D01*
X127611697Y-87233144D02*
X127611697Y-84633144D01*
X127611697Y-87233144D02*
X155611697Y-87233144D01*
X155611697Y-87233144D02*
X155611697Y-82033144D01*
X125010000Y-82030000D02*
X155610000Y-82030000D01*
X125010000Y-84630000D02*
X125010000Y-82030000D01*
X125010000Y-87230000D02*
X125010000Y-85900000D01*
X126340000Y-87230000D02*
X125010000Y-87230000D01*
X127610000Y-84630000D02*
X125010000Y-84630000D01*
X127610000Y-87230000D02*
X127610000Y-84630000D01*
X127610000Y-87230000D02*
X155610000Y-87230000D01*
X155610000Y-87230000D02*
X155610000Y-82030000D01*
%TD*%
M02*
