%TF.GenerationSoftware,KiCad,Pcbnew,8.0.1*%
%TF.CreationDate,2025-01-31T20:46:34-05:00*%
%TF.ProjectId,fanuc rj3ib encoder breakout,66616e75-6320-4726-9a33-696220656e63,rev?*%
%TF.SameCoordinates,Original*%
%TF.FileFunction,Copper,L1,Top*%
%TF.FilePolarity,Positive*%
%FSLAX46Y46*%
G04 Gerber Fmt 4.6, Leading zero omitted, Abs format (unit mm)*
G04 Created by KiCad (PCBNEW 8.0.1) date 2025-01-31 20:46:34*
%MOMM*%
%LPD*%
G01*
G04 APERTURE LIST*
%TA.AperFunction,ComponentPad*%
%ADD10R,1.500000X1.500000*%
%TD*%
%TA.AperFunction,ComponentPad*%
%ADD11C,1.500000*%
%TD*%
%TA.AperFunction,ComponentPad*%
%ADD12C,3.200400*%
%TD*%
%TA.AperFunction,ComponentPad*%
%ADD13C,1.600200*%
%TD*%
%TA.AperFunction,ComponentPad*%
%ADD14R,1.700000X1.700000*%
%TD*%
%TA.AperFunction,ComponentPad*%
%ADD15O,1.700000X1.700000*%
%TD*%
%TA.AperFunction,ViaPad*%
%ADD16C,0.600000*%
%TD*%
%TA.AperFunction,Conductor*%
%ADD17C,0.250000*%
%TD*%
%TA.AperFunction,Conductor*%
%ADD18C,2.000000*%
%TD*%
%TA.AperFunction,Conductor*%
%ADD19C,0.500000*%
%TD*%
G04 APERTURE END LIST*
D10*
%TO.P,J3,1*%
%TO.N,ENCPOWER1*%
X172914000Y-104560000D03*
D11*
%TO.P,J3,2*%
%TO.N,GND*%
X170374000Y-103290000D03*
%TO.P,J3,3*%
%TO.N,ENC7TX{slash}RX+*%
X172914000Y-102020000D03*
%TO.P,J3,4*%
%TO.N,ENC7RX+*%
X170374000Y-100750000D03*
%TO.P,J3,5*%
%TO.N,ENC7RX-*%
X172914000Y-99480000D03*
%TO.P,J3,6*%
%TO.N,ENC7TX{slash}RX-*%
X170374000Y-98210000D03*
%TO.P,J3,7*%
%TO.N,ENCPOWER1*%
X172914000Y-96940000D03*
%TO.P,J3,8*%
%TO.N,GND*%
X170374000Y-95670000D03*
D10*
%TO.P,J3,9*%
%TO.N,ENCPOWER1*%
X163770000Y-95670000D03*
D11*
%TO.P,J3,10*%
%TO.N,GND*%
X166310000Y-96940000D03*
%TO.P,J3,11*%
%TO.N,ENC8TX{slash}RX+*%
X163770000Y-98210000D03*
%TO.P,J3,12*%
%TO.N,ENC8RX+*%
X166310000Y-99480000D03*
%TO.P,J3,13*%
%TO.N,ENC8RX-*%
X163770000Y-100750000D03*
%TO.P,J3,14*%
%TO.N,ENC8TX{slash}RX-*%
X166310000Y-102020000D03*
%TO.P,J3,15*%
%TO.N,ENCPOWER1*%
X163770000Y-103290000D03*
%TO.P,J3,16*%
%TO.N,GND*%
X166310000Y-104560000D03*
%TD*%
%TO.P,J1,1,Pin_1*%
%TO.N,ENC1TX{slash}RX+*%
X126330000Y-61400000D03*
%TO.P,J1,2,Pin_2*%
%TO.N,ENC1TX{slash}RX-*%
X128930000Y-61400000D03*
%TO.P,J1,3,Pin_3*%
%TO.N,ENC2TX{slash}RX+*%
X131530000Y-61400000D03*
%TO.P,J1,4,Pin_4*%
%TO.N,ENC2TX{slash}RX-*%
X134130000Y-61400000D03*
%TO.P,J1,5,Pin_5*%
%TO.N,ENC3TX{slash}RX+*%
X136730000Y-61400000D03*
%TO.P,J1,6,Pin_6*%
%TO.N,ENC3TX{slash}RX-*%
X139330000Y-61400000D03*
%TO.P,J1,7,Pin_7*%
%TO.N,ENC4TX{slash}RX+*%
X141930000Y-61400000D03*
%TO.P,J1,8,Pin_8*%
%TO.N,ENC4TX{slash}RX-*%
X144530000Y-61400000D03*
%TO.P,J1,9,Pin_9*%
%TO.N,ENC5TX{slash}RX+*%
X147130000Y-61400000D03*
%TO.P,J1,10,Pin_10*%
%TO.N,ENC5TX{slash}RX-*%
X149730000Y-61400000D03*
%TO.P,J1,11,Pin_11*%
%TO.N,ENC6TX{slash}RX+*%
X152330000Y-61400000D03*
%TO.P,J1,12,Pin_12*%
%TO.N,ENC6TX{slash}RX-*%
X154930000Y-61400000D03*
%TO.P,J1,13,Pin_13*%
%TO.N,ENCPOWER2*%
X157530000Y-61400000D03*
%TO.P,J1,14,Pin_14*%
X160130000Y-61400000D03*
%TO.P,J1,15,Pin_15*%
X162730000Y-61400000D03*
%TO.P,J1,16,Pin_16*%
X165330000Y-61400000D03*
%TO.P,J1,17,Pin_17*%
X167930000Y-61400000D03*
%TO.P,J1,18,Pin_18*%
X170530000Y-61400000D03*
%TO.P,J1,19,Pin_19*%
%TO.N,RDI1*%
X130200000Y-63940000D03*
%TO.P,J1,20,Pin_20*%
%TO.N,RDI2*%
X132800000Y-63940000D03*
%TO.P,J1,21,Pin_21*%
%TO.N,RDI3*%
X135400000Y-63940000D03*
%TO.P,J1,22,Pin_22*%
%TO.N,RDI4*%
X138000000Y-63940000D03*
%TO.P,J1,23,Pin_23*%
%TO.N,RDI5*%
X140600000Y-63940000D03*
%TO.P,J1,24,Pin_24*%
%TO.N,RDI6*%
X143200000Y-63940000D03*
%TO.P,J1,25,Pin_25*%
%TO.N,RDI7*%
X145800000Y-63940000D03*
%TO.P,J1,26,Pin_26*%
%TO.N,RDI8*%
X148400000Y-63940000D03*
%TO.P,J1,27,Pin_27*%
%TO.N,RDI9(PPABN)*%
X151000000Y-63940000D03*
%TO.P,J1,28,Pin_28*%
%TO.N,HBK*%
X153600000Y-63940000D03*
%TO.P,J1,29,Pin_29*%
%TO.N,ROT*%
X156200000Y-63940000D03*
%TO.P,J1,30,Pin_30*%
%TO.N,ENCPOWER1*%
X158800000Y-63940000D03*
%TO.P,J1,31,Pin_31*%
%TO.N,S2+*%
X161400000Y-63940000D03*
%TO.P,J1,32,Pin_32*%
%TO.N,S2-*%
X164000000Y-63940000D03*
%TO.P,J1,33,Pin_33*%
%TO.N,RDO1*%
X126330000Y-66480000D03*
%TO.P,J1,34,Pin_34*%
%TO.N,RDO2*%
X128930000Y-66480000D03*
%TO.P,J1,35,Pin_35*%
%TO.N,RDO3*%
X131530000Y-66480000D03*
%TO.P,J1,36,Pin_36*%
%TO.N,RDO4*%
X134130000Y-66480000D03*
%TO.P,J1,37,Pin_37*%
%TO.N,RDO5*%
X136730000Y-66480000D03*
%TO.P,J1,38,Pin_38*%
%TO.N,RDO6*%
X139330000Y-66480000D03*
%TO.P,J1,39,Pin_39*%
%TO.N,RDO7*%
X141930000Y-66480000D03*
%TO.P,J1,40,Pin_40*%
%TO.N,RDO8*%
X144530000Y-66480000D03*
%TO.P,J1,41,Pin_41*%
%TO.N,ENCPOWER1*%
X147130000Y-66480000D03*
%TO.P,J1,42,Pin_42*%
X149730000Y-66480000D03*
%TO.P,J1,43,Pin_43*%
%TO.N,GND*%
X152330000Y-66480000D03*
%TO.P,J1,44,Pin_44*%
X154930000Y-66480000D03*
%TO.P,J1,45,Pin_45*%
X157530000Y-66480000D03*
%TO.P,J1,46,Pin_46*%
X160130000Y-66480000D03*
%TO.P,J1,47,Pin_47*%
X162730000Y-66480000D03*
%TO.P,J1,48,Pin_48*%
X165330000Y-66480000D03*
%TO.P,J1,49,Pin_49*%
X167930000Y-66480000D03*
%TO.P,J1,50,Pin_50*%
X170530000Y-66480000D03*
%TD*%
D12*
%TO.P,J2,0*%
%TO.N,N/C*%
X108840000Y-112870399D03*
X108840000Y-65829599D03*
D13*
%TO.P,J2,1,1*%
%TO.N,ENCPOWER2*%
X111380000Y-104869998D03*
%TO.P,J2,2,2*%
%TO.N,ENC1TX{slash}RX-*%
X111380000Y-102579998D03*
%TO.P,J2,3,3*%
%TO.N,ENC1TX{slash}RX+*%
X111380000Y-100290000D03*
%TO.P,J2,4,4*%
%TO.N,ENC1RX-*%
X111380000Y-98000000D03*
%TO.P,J2,5,5*%
%TO.N,ENC1RX+*%
X111380000Y-95709999D03*
%TO.P,J2,6,6*%
%TO.N,ENC2TX{slash}RX-*%
X111380000Y-93419999D03*
%TO.P,J2,7,7*%
%TO.N,ENC2TX{slash}RX+*%
X111380000Y-91130001D03*
%TO.P,J2,8,8*%
%TO.N,ENC2RX-*%
X111380000Y-88840000D03*
%TO.P,J2,9,9*%
%TO.N,ENC2RX+*%
X111380000Y-86550000D03*
%TO.P,J2,10,10*%
%TO.N,ENC3TX{slash}RX-*%
X111380000Y-84259999D03*
%TO.P,J2,11,11*%
%TO.N,ENC3TX{slash}RX+*%
X111380000Y-81969999D03*
%TO.P,J2,12,12*%
%TO.N,ENC3RX-*%
X111380000Y-79680001D03*
%TO.P,J2,13,13*%
%TO.N,ENC3RX+*%
X111380000Y-77390000D03*
%TO.P,J2,14,14*%
%TO.N,ENC4TX{slash}RX-*%
X111380000Y-75100000D03*
%TO.P,J2,15,15*%
%TO.N,ENC4TX{slash}RX+*%
X111380000Y-72809999D03*
%TO.P,J2,16,16*%
%TO.N,GND*%
X108840000Y-106015000D03*
%TO.P,J2,17,17*%
%TO.N,ENC4RX-*%
X108840000Y-103724999D03*
%TO.P,J2,18,18*%
%TO.N,ENC4RX+*%
X108840000Y-101434999D03*
%TO.P,J2,19,19*%
%TO.N,ENC5TX{slash}RX-*%
X108840000Y-99144998D03*
%TO.P,J2,20,20*%
%TO.N,ENC5TX{slash}RX+*%
X108840000Y-96854998D03*
%TO.P,J2,21,21*%
%TO.N,ENC5RX-*%
X108840000Y-94565000D03*
%TO.P,J2,22,22*%
%TO.N,ENC5RX+*%
X108840000Y-92275000D03*
%TO.P,J2,23,23*%
%TO.N,ENC6TX{slash}RX-*%
X108840000Y-89984999D03*
%TO.P,J2,24,24*%
%TO.N,ENC6TX{slash}RX+*%
X108840000Y-87694999D03*
%TO.P,J2,25,25*%
%TO.N,ENC6RX-*%
X108840000Y-85405001D03*
%TO.P,J2,26,26*%
%TO.N,ENC6RX+*%
X108840000Y-83115000D03*
%TO.P,J2,27,27*%
%TO.N,ENC7TX{slash}RX-*%
X108840000Y-80825000D03*
%TO.P,J2,28,28*%
%TO.N,ENC7TX{slash}RX+*%
X108840000Y-78534999D03*
%TO.P,J2,29,29*%
%TO.N,ENC7RX-*%
X108840000Y-76244999D03*
%TO.P,J2,30,30*%
%TO.N,ENC7RX+*%
X108840000Y-73955001D03*
%TO.P,J2,31,31*%
%TO.N,ENC8TX{slash}RX-*%
X106300000Y-104869998D03*
%TO.P,J2,32,32*%
%TO.N,ENC8TX{slash}RX+*%
X106300000Y-102579998D03*
%TO.P,J2,33,33*%
%TO.N,ENC8RX-*%
X106300000Y-100290000D03*
%TO.P,J2,34,34*%
%TO.N,ENC8RX+*%
X106300000Y-98000000D03*
%TO.P,J2,35,35*%
%TO.N,ENC9TX{slash}RX-*%
X106300000Y-95709999D03*
%TO.P,J2,36,36*%
%TO.N,ENC9TX{slash}RX+*%
X106300000Y-93419999D03*
%TO.P,J2,37,37*%
%TO.N,ENC9RX-*%
X106300000Y-91130001D03*
%TO.P,J2,38,38*%
%TO.N,ENC9RX+*%
X106300000Y-88840000D03*
%TO.P,J2,39,39*%
%TO.N,ENC10TX{slash}RX-*%
X106300000Y-86550000D03*
%TO.P,J2,40,40*%
%TO.N,ENC10TX{slash}RX+*%
X106300000Y-84259999D03*
%TO.P,J2,41,41*%
%TO.N,ENC10RX-*%
X106300000Y-81969999D03*
%TO.P,J2,42,42*%
%TO.N,ENC10RX+*%
X106300000Y-79680001D03*
%TO.P,J2,43,43*%
%TO.N,ENCPOWER1*%
X106300000Y-77390000D03*
%TO.P,J2,44,44*%
%TO.N,GND*%
X106300000Y-75100000D03*
%TD*%
D10*
%TO.P,J4,1*%
%TO.N,ENCPOWER1*%
X172914000Y-86945000D03*
D11*
%TO.P,J4,2*%
%TO.N,GND*%
X170374000Y-85675000D03*
%TO.P,J4,3*%
%TO.N,ENC9TX{slash}RX+*%
X172914000Y-84405000D03*
%TO.P,J4,4*%
%TO.N,ENC9RX+*%
X170374000Y-83135000D03*
%TO.P,J4,5*%
%TO.N,ENC9RX-*%
X172914000Y-81865000D03*
%TO.P,J4,6*%
%TO.N,ENC9TX{slash}RX-*%
X170374000Y-80595000D03*
%TO.P,J4,7*%
%TO.N,ENCPOWER1*%
X172914000Y-79325000D03*
%TO.P,J4,8*%
%TO.N,GND*%
X170374000Y-78055000D03*
D10*
%TO.P,J4,9*%
%TO.N,ENCPOWER1*%
X163770000Y-78055000D03*
D11*
%TO.P,J4,10*%
%TO.N,GND*%
X166310000Y-79325000D03*
%TO.P,J4,11*%
%TO.N,ENC10TX{slash}RX+*%
X163770000Y-80595000D03*
%TO.P,J4,12*%
%TO.N,ENC10RX+*%
X166310000Y-81865000D03*
%TO.P,J4,13*%
%TO.N,ENC10RX-*%
X163770000Y-83135000D03*
%TO.P,J4,14*%
%TO.N,ENC10TX{slash}RX-*%
X166310000Y-84405000D03*
%TO.P,J4,15*%
%TO.N,ENCPOWER1*%
X163770000Y-85675000D03*
%TO.P,J4,16*%
%TO.N,GND*%
X166310000Y-86945000D03*
%TD*%
D14*
%TO.P,J5,1,Pin_1*%
%TO.N,RDI1*%
X126341697Y-85903144D03*
D15*
%TO.P,J5,2,Pin_2*%
%TO.N,RDO1*%
X126341697Y-83363144D03*
%TO.P,J5,3,Pin_3*%
%TO.N,RDI2*%
X128881697Y-85903144D03*
%TO.P,J5,4,Pin_4*%
%TO.N,RDO2*%
X128881697Y-83363144D03*
%TO.P,J5,5,Pin_5*%
%TO.N,RDI3*%
X131421697Y-85903144D03*
%TO.P,J5,6,Pin_6*%
%TO.N,RDO3*%
X131421697Y-83363144D03*
%TO.P,J5,7,Pin_7*%
%TO.N,RDI4*%
X133961697Y-85903144D03*
%TO.P,J5,8,Pin_8*%
%TO.N,RDO4*%
X133961697Y-83363144D03*
%TO.P,J5,9,Pin_9*%
%TO.N,RDI5*%
X136501697Y-85903144D03*
%TO.P,J5,10,Pin_10*%
%TO.N,RDO5*%
X136501697Y-83363144D03*
%TO.P,J5,11,Pin_11*%
%TO.N,RDI6*%
X139041697Y-85903144D03*
%TO.P,J5,12,Pin_12*%
%TO.N,RDO6*%
X139041697Y-83363144D03*
%TO.P,J5,13,Pin_13*%
%TO.N,RDI7*%
X141581697Y-85903144D03*
%TO.P,J5,14,Pin_14*%
%TO.N,RDO7*%
X141581697Y-83363144D03*
%TO.P,J5,15,Pin_15*%
%TO.N,RDI8*%
X144121697Y-85903144D03*
%TO.P,J5,16,Pin_16*%
%TO.N,RDO8*%
X144121697Y-83363144D03*
%TO.P,J5,17,Pin_17*%
%TO.N,RDI9(PPABN)*%
X146661697Y-85903144D03*
%TO.P,J5,18,Pin_18*%
%TO.N,S2+*%
X146661697Y-83363144D03*
%TO.P,J5,19,Pin_19*%
%TO.N,HBK*%
X149201697Y-85903144D03*
%TO.P,J5,20,Pin_20*%
%TO.N,S2-*%
X149201697Y-83363144D03*
%TO.P,J5,21,Pin_21*%
%TO.N,ROT*%
X151741697Y-85903144D03*
%TO.P,J5,22,Pin_22*%
%TO.N,unconnected-(J5-Pin_22-Pad22)*%
X151741697Y-83363144D03*
%TO.P,J5,23,Pin_23*%
%TO.N,GND*%
X154281697Y-85903144D03*
%TO.P,J5,24,Pin_24*%
%TO.N,ENCPOWER1*%
X154281697Y-83363144D03*
%TD*%
D14*
%TO.P,J5,1,Pin_1*%
%TO.N,RDI1*%
X126340000Y-85900000D03*
D15*
%TO.P,J5,2,Pin_2*%
%TO.N,RDO1*%
X126340000Y-83360000D03*
%TO.P,J5,3,Pin_3*%
%TO.N,RDI2*%
X128880000Y-85900000D03*
%TO.P,J5,4,Pin_4*%
%TO.N,RDO2*%
X128880000Y-83360000D03*
%TO.P,J5,5,Pin_5*%
%TO.N,RDI3*%
X131420000Y-85900000D03*
%TO.P,J5,6,Pin_6*%
%TO.N,RDO3*%
X131420000Y-83360000D03*
%TO.P,J5,7,Pin_7*%
%TO.N,RDI4*%
X133960000Y-85900000D03*
%TO.P,J5,8,Pin_8*%
%TO.N,RDO4*%
X133960000Y-83360000D03*
%TO.P,J5,9,Pin_9*%
%TO.N,RDI5*%
X136500000Y-85900000D03*
%TO.P,J5,10,Pin_10*%
%TO.N,RDO5*%
X136500000Y-83360000D03*
%TO.P,J5,11,Pin_11*%
%TO.N,RDI6*%
X139040000Y-85900000D03*
%TO.P,J5,12,Pin_12*%
%TO.N,RDO6*%
X139040000Y-83360000D03*
%TO.P,J5,13,Pin_13*%
%TO.N,RDI7*%
X141580000Y-85900000D03*
%TO.P,J5,14,Pin_14*%
%TO.N,RDO7*%
X141580000Y-83360000D03*
%TO.P,J5,15,Pin_15*%
%TO.N,RDI8*%
X144120000Y-85900000D03*
%TO.P,J5,16,Pin_16*%
%TO.N,RDO8*%
X144120000Y-83360000D03*
%TO.P,J5,17,Pin_17*%
%TO.N,RDI9(PPABN)*%
X146660000Y-85900000D03*
%TO.P,J5,18,Pin_18*%
%TO.N,S2+*%
X146660000Y-83360000D03*
%TO.P,J5,19,Pin_19*%
%TO.N,HBK*%
X149200000Y-85900000D03*
%TO.P,J5,20,Pin_20*%
%TO.N,S2-*%
X149200000Y-83360000D03*
%TO.P,J5,21,Pin_21*%
%TO.N,ROT*%
X151740000Y-85900000D03*
%TO.P,J5,22,Pin_22*%
%TO.N,unconnected-(J5-Pin_22-Pad22)*%
X151740000Y-83360000D03*
%TO.P,J5,23,Pin_23*%
%TO.N,GND*%
X154280000Y-85900000D03*
%TO.P,J5,24,Pin_24*%
%TO.N,ENCPOWER1*%
X154280000Y-83360000D03*
%TD*%
D16*
%TO.N,ENC8RX+*%
X158200000Y-110100000D03*
%TO.N,ENCPOWER2*%
X174405135Y-58893865D03*
%TO.N,ENC6TX{slash}RX-*%
X147650940Y-58230659D03*
X118244209Y-58199114D03*
X118242438Y-84048293D03*
%TO.N,ENC8TX{slash}RX+*%
X160925000Y-107500000D03*
X158200000Y-108499994D03*
%TO.N,ENC2TX{slash}RX+*%
X122225000Y-88700000D03*
%TO.N,ENC3TX{slash}RX-*%
X120534313Y-77165687D03*
%TO.N,ENC10TX{slash}RX-*%
X165629442Y-83429442D03*
X165200000Y-80600000D03*
%TO.N,ENC8RX-*%
X158200000Y-109299997D03*
%TO.N,ENC1TX{slash}RX-*%
X122900000Y-90400000D03*
%TO.N,ENC7TX{slash}RX+*%
X152265687Y-112275000D03*
%TO.N,GND*%
X101700000Y-112000000D03*
%TO.N,ENC9RX+*%
X113991942Y-112908058D03*
X177600000Y-80700000D03*
%TO.N,ENC1TX{slash}RX+*%
X123475000Y-89834313D03*
%TO.N,ENC7RX+*%
X115704029Y-80012087D03*
X154044745Y-110837821D03*
%TO.N,ENC7RX-*%
X115138342Y-80577774D03*
X153595832Y-111500000D03*
%TO.N,ENC8TX{slash}RX-*%
X158200000Y-107700000D03*
%TO.N,ENC9TX{slash}RX+*%
X177400000Y-84400000D03*
X129200000Y-114750000D03*
%TO.N,ENC2TX{slash}RX-*%
X121642438Y-89248294D03*
%TO.N,ENC5TX{slash}RX-*%
X119334313Y-92765687D03*
%TO.N,ENC5TX{slash}RX+*%
X119900000Y-92200000D03*
%TO.N,ENC9TX{slash}RX-*%
X129915544Y-114300000D03*
X180750000Y-85025000D03*
%TO.N,ENC7TX{slash}RX-*%
X151700000Y-112900000D03*
X171600000Y-106400000D03*
%TO.N,ENC4TX{slash}RX-*%
X119400000Y-69203870D03*
%TO.N,ENC9RX-*%
X178358949Y-81325000D03*
X114841942Y-113658058D03*
%TO.N,ENC4TX{slash}RX+*%
X120025000Y-68700000D03*
%TO.N,ENC10TX{slash}RX+*%
X114300000Y-115100000D03*
X157400000Y-115200000D03*
%TO.N,ENC3TX{slash}RX+*%
X121100000Y-76600000D03*
%TO.N,ENC6TX{slash}RX+*%
X118825000Y-83500000D03*
%TO.N,HBK*%
X152300000Y-78000000D03*
%TO.N,ROT*%
X156200000Y-76100000D03*
%TO.N,RDI9(PPABN)*%
X149600000Y-78500000D03*
%TD*%
D17*
%TO.N,ENC9TX{slash}RX-*%
X130090544Y-114475000D02*
X129915544Y-114300000D01*
X155890812Y-113225000D02*
X154640812Y-114475000D01*
X185415812Y-85025000D02*
X186150000Y-85759188D01*
X178265812Y-113225000D02*
X155890812Y-113225000D01*
X186150000Y-85759188D02*
X186150000Y-105340812D01*
X180750000Y-85025000D02*
X185415812Y-85025000D01*
X154640812Y-114475000D02*
X130090544Y-114475000D01*
X186150000Y-105340812D02*
X178265812Y-113225000D01*
%TO.N,ENC8RX+*%
X168200000Y-105000000D02*
X168200000Y-100900000D01*
X158200000Y-110100000D02*
X163100000Y-110100000D01*
X166780000Y-99480000D02*
X166310000Y-99480000D01*
X163100000Y-110100000D02*
X168200000Y-105000000D01*
X168200000Y-100900000D02*
X166780000Y-99480000D01*
D18*
%TO.N,ENCPOWER2*%
X98900000Y-68273984D02*
X98900000Y-112500000D01*
X100600000Y-114200000D02*
X103766270Y-114200000D01*
X174405135Y-58893865D02*
X170011270Y-54500000D01*
X105739800Y-112226470D02*
X105739800Y-111586254D01*
X98900000Y-112500000D02*
X100600000Y-114200000D01*
X107555855Y-109770199D02*
X108196071Y-109770199D01*
X111380000Y-106586270D02*
X111380000Y-104869998D01*
X103766270Y-114200000D02*
X105739800Y-112226470D01*
X105739800Y-111586254D02*
X107555855Y-109770199D01*
X108196071Y-109770199D02*
X111380000Y-106586270D01*
X170011270Y-54500000D02*
X112673984Y-54500000D01*
X112673984Y-54500000D02*
X98900000Y-68273984D01*
D17*
%TO.N,ENC6TX{slash}RX-*%
X147650940Y-58230659D02*
X118275754Y-58230659D01*
X112051397Y-89984999D02*
X117988103Y-84048293D01*
X117988103Y-84048293D02*
X118242438Y-84048293D01*
X108840000Y-89984999D02*
X112051397Y-89984999D01*
X118275754Y-58230659D02*
X118244209Y-58199114D01*
%TO.N,ENC8TX{slash}RX+*%
X160925000Y-107500000D02*
X159925006Y-108499994D01*
X159925006Y-108499994D02*
X158200000Y-108499994D01*
%TO.N,ENC2TX{slash}RX+*%
X121925000Y-88400000D02*
X122225000Y-88700000D01*
X118876847Y-91130001D02*
X121606848Y-88400000D01*
X111380000Y-91130001D02*
X118876847Y-91130001D01*
X121606848Y-88400000D02*
X121925000Y-88400000D01*
%TO.N,ENC3TX{slash}RX-*%
X111380000Y-84259999D02*
X112976397Y-84259999D01*
X120070709Y-77165687D02*
X120534313Y-77165687D01*
X112976397Y-84259999D02*
X120070709Y-77165687D01*
%TO.N,ENC10TX{slash}RX-*%
X165629442Y-83429442D02*
X165200000Y-83000000D01*
X165200000Y-83000000D02*
X165200000Y-80600000D01*
%TO.N,ENC8RX-*%
X167750000Y-101650000D02*
X166850000Y-100750000D01*
X162913604Y-109650000D02*
X167750000Y-104813604D01*
X166850000Y-100750000D02*
X163770000Y-100750000D01*
X158200000Y-109299997D02*
X158283881Y-109299997D01*
X158283881Y-109299997D02*
X158633884Y-109650000D01*
X158633884Y-109650000D02*
X162913604Y-109650000D01*
X167750000Y-104813604D02*
X167750000Y-101650000D01*
%TO.N,ENC1TX{slash}RX-*%
X111456398Y-102579998D02*
X122900000Y-91136396D01*
X111380000Y-102579998D02*
X111456398Y-102579998D01*
X122900000Y-91136396D02*
X122900000Y-90400000D01*
%TO.N,ENC7TX{slash}RX+*%
X152440687Y-112450000D02*
X155113604Y-112450000D01*
X171500000Y-103434000D02*
X172914000Y-102020000D01*
X155413604Y-112150000D02*
X165213604Y-112150000D01*
X171500000Y-105616116D02*
X171500000Y-103434000D01*
X152265687Y-112275000D02*
X152440687Y-112450000D01*
X170975000Y-106388604D02*
X170975000Y-106141116D01*
X170975000Y-106141116D02*
X171500000Y-105616116D01*
X155113604Y-112450000D02*
X155413604Y-112150000D01*
X165213604Y-112150000D02*
X170975000Y-106388604D01*
D18*
%TO.N,GND*%
X107455000Y-107400000D02*
X108840000Y-106015000D01*
X101700000Y-112000000D02*
X102000000Y-112000000D01*
X102000000Y-112000000D02*
X106600000Y-107400000D01*
X106600000Y-107400000D02*
X107455000Y-107400000D01*
D17*
%TO.N,ENC9RX+*%
X178775000Y-114575000D02*
X178800000Y-114600000D01*
X113991942Y-113691942D02*
X116125000Y-115825000D01*
X113991942Y-112908058D02*
X113991942Y-113691942D01*
X187500000Y-105900000D02*
X187500000Y-85200000D01*
X156450000Y-114575000D02*
X178775000Y-114575000D01*
X178800000Y-114600000D02*
X187500000Y-105900000D01*
X116125000Y-115825000D02*
X116600000Y-115825000D01*
X116600000Y-115825000D02*
X155200000Y-115825000D01*
X155200000Y-115825000D02*
X156450000Y-114575000D01*
X187500000Y-85200000D02*
X183000000Y-80700000D01*
X183000000Y-80700000D02*
X177600000Y-80700000D01*
%TO.N,ENC1TX{slash}RX+*%
X122641116Y-89775000D02*
X123415687Y-89775000D01*
X122200000Y-91200000D02*
X122200000Y-90216116D01*
X111380000Y-100290000D02*
X113110000Y-100290000D01*
X122200000Y-90216116D02*
X122641116Y-89775000D01*
X123415687Y-89775000D02*
X123475000Y-89834313D01*
X113110000Y-100290000D02*
X122200000Y-91200000D01*
%TO.N,ENC7RX+*%
X110913968Y-76225100D02*
X108840000Y-74151132D01*
X154044745Y-110837821D02*
X154206924Y-111000000D01*
X115704029Y-80012087D02*
X115593219Y-80012087D01*
X111806232Y-76225100D02*
X110913968Y-76225100D01*
X108840000Y-74151132D02*
X108840000Y-73955001D01*
X115593219Y-80012087D02*
X111806232Y-76225100D01*
X163200000Y-111000000D02*
X168750000Y-105450000D01*
X154206924Y-111000000D02*
X163200000Y-111000000D01*
X168750000Y-105450000D02*
X168750000Y-102374000D01*
X168750000Y-102374000D02*
X170374000Y-100750000D01*
%TO.N,ENC7RX-*%
X115138342Y-80577774D02*
X114883058Y-80322490D01*
X172914000Y-99786000D02*
X172914000Y-99480000D01*
X169200000Y-105636396D02*
X169200000Y-102700000D01*
X114883058Y-80322490D02*
X114883058Y-80283058D01*
X169200000Y-102700000D02*
X170000000Y-101900000D01*
X108840000Y-76441132D02*
X108840000Y-76244999D01*
X153595832Y-111500000D02*
X163336396Y-111500000D01*
X170000000Y-101900000D02*
X170800000Y-101900000D01*
X114883058Y-80283058D02*
X113115100Y-78515100D01*
X113115100Y-78515100D02*
X110913968Y-78515100D01*
X163336396Y-111500000D02*
X169200000Y-105636396D01*
X170800000Y-101900000D02*
X172914000Y-99786000D01*
X110913968Y-78515100D02*
X108840000Y-76441132D01*
%TO.N,ENC8TX{slash}RX-*%
X162125000Y-106875000D02*
X166310000Y-102690000D01*
X166310000Y-102690000D02*
X166310000Y-102020000D01*
X158200000Y-107700000D02*
X159025000Y-106875000D01*
X159025000Y-106875000D02*
X162125000Y-106875000D01*
%TO.N,ENC9TX{slash}RX+*%
X129200000Y-114750000D02*
X129375000Y-114925000D01*
X186600000Y-96900000D02*
X186600000Y-85572792D01*
X178452208Y-113675000D02*
X180013604Y-112113604D01*
X185427208Y-84400000D02*
X177400000Y-84400000D01*
X186063604Y-85036396D02*
X185427208Y-84400000D01*
X154827208Y-114925000D02*
X156077208Y-113675000D01*
X129375000Y-114925000D02*
X154600000Y-114925000D01*
X156077208Y-113675000D02*
X157800000Y-113675000D01*
X186600000Y-105527208D02*
X186600000Y-96900000D01*
X180013604Y-112113604D02*
X186600000Y-105527208D01*
X186600000Y-85572792D02*
X186063604Y-85036396D01*
X154600000Y-114925000D02*
X154827208Y-114925000D01*
X157800000Y-113675000D02*
X178452208Y-113675000D01*
%TO.N,ENC2TX{slash}RX-*%
X113219998Y-91580001D02*
X119063243Y-91580001D01*
X111380000Y-93419999D02*
X113219998Y-91580001D01*
X119063243Y-91580001D02*
X121394950Y-89248294D01*
X121394950Y-89248294D02*
X121642438Y-89248294D01*
%TO.N,ENC5TX{slash}RX-*%
X118205445Y-92765687D02*
X119334313Y-92765687D01*
X108840000Y-99144998D02*
X111826134Y-99144998D01*
X111826134Y-99144998D02*
X118205445Y-92765687D01*
%TO.N,ENC5TX{slash}RX+*%
X108840000Y-96854998D02*
X113479738Y-96854998D01*
X119840687Y-92140687D02*
X119900000Y-92200000D01*
X113479738Y-96854998D02*
X118194049Y-92140687D01*
X118194049Y-92140687D02*
X119840687Y-92140687D01*
D18*
%TO.N,ENCPOWER1*%
X161555000Y-78055000D02*
X161500000Y-78000000D01*
X161500000Y-95900000D02*
X161500000Y-102080660D01*
X172914000Y-86945000D02*
X174955000Y-86945000D01*
X173600000Y-61200000D02*
X173600000Y-75000000D01*
X172914000Y-79325000D02*
X175225000Y-79325000D01*
X161500000Y-78000000D02*
X161500000Y-83100000D01*
X113585254Y-56700000D02*
X169100000Y-56700000D01*
D19*
X147130000Y-63097057D02*
X148400000Y-61827057D01*
D18*
X173600000Y-75000000D02*
X173950000Y-75350000D01*
X175225000Y-79325000D02*
X175500000Y-79600000D01*
X104299900Y-65985354D02*
X113585254Y-56700000D01*
X163770000Y-95670000D02*
X161730000Y-95670000D01*
D19*
X150930000Y-61897057D02*
X150930000Y-57330000D01*
X149730000Y-63097057D02*
X150930000Y-61897057D01*
D18*
X161730000Y-95670000D02*
X161500000Y-95900000D01*
X173950000Y-75350000D02*
X162150000Y-75350000D01*
X104299900Y-77099900D02*
X104299900Y-65985354D01*
X163770000Y-85675000D02*
X161775000Y-85675000D01*
X104590000Y-77390000D02*
X104299900Y-77099900D01*
X175460000Y-96940000D02*
X175500000Y-96900000D01*
X161240000Y-83360000D02*
X161500000Y-83100000D01*
X173950000Y-75350000D02*
X175500000Y-76900000D01*
X161500000Y-76000000D02*
X161500000Y-78000000D01*
X175500000Y-86400000D02*
X175500000Y-96900000D01*
X162150000Y-75350000D02*
X161500000Y-76000000D01*
X163770000Y-78055000D02*
X161555000Y-78055000D01*
X175500000Y-79600000D02*
X175500000Y-86400000D01*
X175500000Y-103034660D02*
X173974660Y-104560000D01*
X173974660Y-104560000D02*
X172914000Y-104560000D01*
X175500000Y-96900000D02*
X175500000Y-103034660D01*
X174955000Y-86945000D02*
X175500000Y-86400000D01*
X161500000Y-85400000D02*
X161500000Y-95900000D01*
X175500000Y-76900000D02*
X175500000Y-79600000D01*
D19*
X149730000Y-66480000D02*
X149730000Y-63097057D01*
D18*
X161775000Y-85675000D02*
X161500000Y-85400000D01*
D19*
X148400000Y-61827057D02*
X148400000Y-57200000D01*
D18*
X172914000Y-96940000D02*
X175460000Y-96940000D01*
X154280000Y-83360000D02*
X161240000Y-83360000D01*
X162709340Y-103290000D02*
X163770000Y-103290000D01*
D19*
X150930000Y-57330000D02*
X150800000Y-57200000D01*
D18*
X106300000Y-77390000D02*
X104590000Y-77390000D01*
X161500000Y-102080660D02*
X162709340Y-103290000D01*
X161500000Y-83100000D02*
X161500000Y-85400000D01*
D19*
X158800000Y-63940000D02*
X158800000Y-57200000D01*
D18*
X169100000Y-56700000D02*
X173600000Y-61200000D01*
D19*
X147130000Y-66480000D02*
X147130000Y-63097057D01*
D17*
%TO.N,ENC7TX{slash}RX-*%
X165400000Y-112600000D02*
X171600000Y-106400000D01*
X155600000Y-112600000D02*
X165400000Y-112600000D01*
X151700000Y-112900000D02*
X155300000Y-112900000D01*
X155300000Y-112900000D02*
X155600000Y-112600000D01*
%TO.N,ENC4TX{slash}RX-*%
X111380000Y-75100000D02*
X112936396Y-75100000D01*
X118832526Y-69203870D02*
X119400000Y-69203870D01*
X112936396Y-75100000D02*
X118832526Y-69203870D01*
%TO.N,ENC9RX-*%
X156000000Y-114388604D02*
X155013604Y-115375000D01*
X187050000Y-85386396D02*
X187050000Y-105713604D01*
X183581802Y-81918198D02*
X187050000Y-85386396D01*
X114841942Y-113905546D02*
X114841942Y-113658058D01*
X187050000Y-105713604D02*
X178638604Y-114125000D01*
X125400000Y-115375000D02*
X116311396Y-115375000D01*
X177200000Y-114125000D02*
X156263604Y-114125000D01*
X155013604Y-115375000D02*
X125400000Y-115375000D01*
X178638604Y-114125000D02*
X177200000Y-114125000D01*
X178358949Y-81325000D02*
X182988604Y-81325000D01*
X182988604Y-81325000D02*
X183581802Y-81918198D01*
X116311396Y-115375000D02*
X115318198Y-114381802D01*
X156263604Y-114125000D02*
X156000000Y-114388604D01*
X115318198Y-114381802D02*
X114841942Y-113905546D01*
%TO.N,ENC4TX{slash}RX+*%
X114590001Y-72809999D02*
X118821130Y-68578870D01*
X118821130Y-68578870D02*
X119903870Y-68578870D01*
X119903870Y-68578870D02*
X120025000Y-68700000D01*
X111380000Y-72809999D02*
X114590001Y-72809999D01*
%TO.N,ENC10TX{slash}RX+*%
X156325000Y-116275000D02*
X157400000Y-115200000D01*
X156300000Y-116275000D02*
X156325000Y-116275000D01*
X115475000Y-116275000D02*
X156300000Y-116275000D01*
X114300000Y-115100000D02*
X115475000Y-116275000D01*
%TO.N,ENC3TX{slash}RX+*%
X111380000Y-81969999D02*
X114630001Y-81969999D01*
X114630001Y-81969999D02*
X120059313Y-76540687D01*
X121040687Y-76540687D02*
X121100000Y-76600000D01*
X120059313Y-76540687D02*
X121040687Y-76540687D01*
%TO.N,ENC6TX{slash}RX+*%
X108840000Y-87694999D02*
X113705001Y-87694999D01*
X117976707Y-83423293D02*
X118748293Y-83423293D01*
X118748293Y-83423293D02*
X118825000Y-83500000D01*
X113705001Y-87694999D02*
X117976707Y-83423293D01*
%TO.N,RDI2*%
X132260000Y-63940000D02*
X132800000Y-63940000D01*
X130055000Y-84725000D02*
X130055000Y-66145000D01*
X128880000Y-85900000D02*
X130055000Y-84725000D01*
X130055000Y-66145000D02*
X132260000Y-63940000D01*
%TO.N,S2-*%
X162262082Y-68468198D02*
X161668198Y-68468198D01*
X164000000Y-66730280D02*
X162262082Y-68468198D01*
X149200000Y-81456396D02*
X149200000Y-83360000D01*
X164000000Y-63940000D02*
X164000000Y-66730280D01*
X157650000Y-72486396D02*
X157650000Y-76986396D01*
X161668198Y-68468198D02*
X157650000Y-72486396D01*
X150306396Y-80350000D02*
X149200000Y-81456396D01*
X157650000Y-76986396D02*
X154286396Y-80350000D01*
X154286396Y-80350000D02*
X150306396Y-80350000D01*
%TO.N,RDI6*%
X140405000Y-84535000D02*
X140405000Y-66484720D01*
X142949720Y-63940000D02*
X143200000Y-63940000D01*
X139040000Y-85900000D02*
X140405000Y-84535000D01*
X140405000Y-66484720D02*
X142949720Y-63940000D01*
%TO.N,S2+*%
X154100000Y-79900000D02*
X150120000Y-79900000D01*
X157200000Y-76800000D02*
X154100000Y-79900000D01*
X161400000Y-63940000D02*
X161400000Y-68100000D01*
X161400000Y-68100000D02*
X157200000Y-72300000D01*
X150120000Y-79900000D02*
X146660000Y-83360000D01*
X157200000Y-72300000D02*
X157200000Y-76800000D01*
D19*
%TO.N,RDO1*%
X126330000Y-83350000D02*
X126340000Y-83360000D01*
X126330000Y-66480000D02*
X126330000Y-83350000D01*
%TO.N,RDO4*%
X134130000Y-66480000D02*
X134130000Y-83190000D01*
X134130000Y-83190000D02*
X133960000Y-83360000D01*
%TO.N,RDO3*%
X131530000Y-66480000D02*
X131530000Y-83250000D01*
X131530000Y-83250000D02*
X131420000Y-83360000D01*
D17*
%TO.N,RDI3*%
X131420000Y-85900000D02*
X132785000Y-84535000D01*
X132785000Y-84535000D02*
X132785000Y-66304720D01*
X135149720Y-63940000D02*
X135400000Y-63940000D01*
X132785000Y-66304720D02*
X135149720Y-63940000D01*
%TO.N,RDI8*%
X145295000Y-70105000D02*
X148400000Y-67000000D01*
X144120000Y-85900000D02*
X145295000Y-84725000D01*
X148400000Y-67000000D02*
X148400000Y-63940000D01*
X145295000Y-84725000D02*
X145295000Y-70105000D01*
D19*
%TO.N,RDO8*%
X144530000Y-66480000D02*
X144530000Y-82950000D01*
X144530000Y-82950000D02*
X144120000Y-83360000D01*
D17*
%TO.N,RDI1*%
X129139340Y-63940000D02*
X130200000Y-63940000D01*
X127515000Y-65564340D02*
X129139340Y-63940000D01*
X126340000Y-85900000D02*
X127515000Y-84725000D01*
X127515000Y-84725000D02*
X127515000Y-65564340D01*
%TO.N,RDI7*%
X142945000Y-84535000D02*
X142945000Y-66985280D01*
X144739340Y-63940000D02*
X145800000Y-63940000D01*
X141580000Y-85900000D02*
X142945000Y-84535000D01*
X143400000Y-65279340D02*
X144739340Y-63940000D01*
X143400000Y-66530280D02*
X143400000Y-65279340D01*
X142945000Y-66985280D02*
X143400000Y-66530280D01*
%TO.N,HBK*%
X152300000Y-78000000D02*
X153600000Y-76700000D01*
X153600000Y-76700000D02*
X153600000Y-63940000D01*
%TO.N,RDI5*%
X138255000Y-65945000D02*
X140260000Y-63940000D01*
X138255000Y-66925280D02*
X138255000Y-65945000D01*
X137675000Y-84725000D02*
X137675000Y-67505280D01*
X137675000Y-67505280D02*
X138255000Y-66925280D01*
X140260000Y-63940000D02*
X140600000Y-63940000D01*
X136500000Y-85900000D02*
X137675000Y-84725000D01*
D19*
%TO.N,RDO5*%
X136730000Y-83130000D02*
X136500000Y-83360000D01*
X136730000Y-66480000D02*
X136730000Y-83130000D01*
D17*
%TO.N,ROT*%
X156200000Y-76100000D02*
X156200000Y-63940000D01*
%TO.N,RDI9(PPABN)*%
X151000000Y-77100000D02*
X151000000Y-63940000D01*
X149600000Y-78500000D02*
X151000000Y-77100000D01*
%TO.N,RDI4*%
X137260000Y-63940000D02*
X138000000Y-63940000D01*
X133960000Y-85900000D02*
X135205000Y-84655000D01*
X135205000Y-65995000D02*
X137260000Y-63940000D01*
X135205000Y-84655000D02*
X135205000Y-65995000D01*
D19*
%TO.N,RDO7*%
X141930000Y-66480000D02*
X141930000Y-83010000D01*
X141930000Y-83010000D02*
X141580000Y-83360000D01*
%TO.N,RDO2*%
X128930000Y-83310000D02*
X128880000Y-83360000D01*
X128930000Y-66480000D02*
X128930000Y-83310000D01*
%TO.N,RDO6*%
X139330000Y-66480000D02*
X139330000Y-83070000D01*
X139330000Y-83070000D02*
X139040000Y-83360000D01*
%TD*%
M02*
