%TF.GenerationSoftware,KiCad,Pcbnew,8.0.1*%
%TF.CreationDate,2025-01-31T20:46:35-05:00*%
%TF.ProjectId,fanuc rj3ib encoder breakout,66616e75-6320-4726-9a33-696220656e63,rev?*%
%TF.SameCoordinates,Original*%
%TF.FileFunction,Soldermask,Bot*%
%TF.FilePolarity,Negative*%
%FSLAX46Y46*%
G04 Gerber Fmt 4.6, Leading zero omitted, Abs format (unit mm)*
G04 Created by KiCad (PCBNEW 8.0.1) date 2025-01-31 20:46:35*
%MOMM*%
%LPD*%
G01*
G04 APERTURE LIST*
%ADD10C,3.200000*%
%ADD11R,1.500000X1.500000*%
%ADD12C,1.500000*%
%ADD13C,2.800000*%
%ADD14C,3.200400*%
%ADD15C,1.600200*%
%ADD16R,1.700000X1.700000*%
%ADD17O,1.700000X1.700000*%
G04 APERTURE END LIST*
D10*
%TO.C,H2*%
X185200000Y-113000000D03*
%TD*%
%TO.C,J3*%
X179264000Y-105830000D03*
X179264000Y-94400000D03*
D11*
X172914000Y-104560000D03*
D12*
X170374000Y-103290000D03*
X172914000Y-102020000D03*
X170374000Y-100750000D03*
X172914000Y-99480000D03*
X170374000Y-98210000D03*
X172914000Y-96940000D03*
X170374000Y-95670000D03*
D11*
X163770000Y-95670000D03*
D12*
X166310000Y-96940000D03*
X163770000Y-98210000D03*
X166310000Y-99480000D03*
X163770000Y-100750000D03*
X166310000Y-102020000D03*
X163770000Y-103290000D03*
X166310000Y-104560000D03*
%TD*%
D10*
%TO.C,H3*%
X185200000Y-61700000D03*
%TD*%
D13*
%TO.C,J1*%
X120200000Y-61900000D03*
X176600000Y-61900000D03*
D12*
X126330000Y-61400000D03*
X128930000Y-61400000D03*
X131530000Y-61400000D03*
X134130000Y-61400000D03*
X136730000Y-61400000D03*
X139330000Y-61400000D03*
X141930000Y-61400000D03*
X144530000Y-61400000D03*
X147130000Y-61400000D03*
X149730000Y-61400000D03*
X152330000Y-61400000D03*
X154930000Y-61400000D03*
X157530000Y-61400000D03*
X160130000Y-61400000D03*
X162730000Y-61400000D03*
X165330000Y-61400000D03*
X167930000Y-61400000D03*
X170530000Y-61400000D03*
X130200000Y-63940000D03*
X132800000Y-63940000D03*
X135400000Y-63940000D03*
X138000000Y-63940000D03*
X140600000Y-63940000D03*
X143200000Y-63940000D03*
X145800000Y-63940000D03*
X148400000Y-63940000D03*
X151000000Y-63940000D03*
X153600000Y-63940000D03*
X156200000Y-63940000D03*
X158800000Y-63940000D03*
X161400000Y-63940000D03*
X164000000Y-63940000D03*
X126330000Y-66480000D03*
X128930000Y-66480000D03*
X131530000Y-66480000D03*
X134130000Y-66480000D03*
X136730000Y-66480000D03*
X139330000Y-66480000D03*
X141930000Y-66480000D03*
X144530000Y-66480000D03*
X147130000Y-66480000D03*
X149730000Y-66480000D03*
X152330000Y-66480000D03*
X154930000Y-66480000D03*
X157530000Y-66480000D03*
X160130000Y-66480000D03*
X162730000Y-66480000D03*
X165330000Y-66480000D03*
X167930000Y-66480000D03*
X170530000Y-66480000D03*
%TD*%
D10*
%TO.C,H1*%
X102200000Y-57600000D03*
%TD*%
D14*
%TO.C,J2*%
X108840000Y-112870399D03*
X108840000Y-65829599D03*
D15*
X111380000Y-104869998D03*
X111380000Y-102579998D03*
X111380000Y-100290000D03*
X111380000Y-98000000D03*
X111380000Y-95709999D03*
X111380000Y-93419999D03*
X111380000Y-91130001D03*
X111380000Y-88840000D03*
X111380000Y-86550000D03*
X111380000Y-84259999D03*
X111380000Y-81969999D03*
X111380000Y-79680001D03*
X111380000Y-77390000D03*
X111380000Y-75100000D03*
X111380000Y-72809999D03*
X108840000Y-106015000D03*
X108840000Y-103724999D03*
X108840000Y-101434999D03*
X108840000Y-99144998D03*
X108840000Y-96854998D03*
X108840000Y-94565000D03*
X108840000Y-92275000D03*
X108840000Y-89984999D03*
X108840000Y-87694999D03*
X108840000Y-85405001D03*
X108840000Y-83115000D03*
X108840000Y-80825000D03*
X108840000Y-78534999D03*
X108840000Y-76244999D03*
X108840000Y-73955001D03*
X106300000Y-104869998D03*
X106300000Y-102579998D03*
X106300000Y-100290000D03*
X106300000Y-98000000D03*
X106300000Y-95709999D03*
X106300000Y-93419999D03*
X106300000Y-91130001D03*
X106300000Y-88840000D03*
X106300000Y-86550000D03*
X106300000Y-84259999D03*
X106300000Y-81969999D03*
X106300000Y-79680001D03*
X106300000Y-77390000D03*
X106300000Y-75100000D03*
%TD*%
D10*
%TO.C,H4*%
X119400000Y-112100000D03*
%TD*%
%TO.C,J4*%
X179264000Y-88215000D03*
X179264000Y-76785000D03*
D11*
X172914000Y-86945000D03*
D12*
X170374000Y-85675000D03*
X172914000Y-84405000D03*
X170374000Y-83135000D03*
X172914000Y-81865000D03*
X170374000Y-80595000D03*
X172914000Y-79325000D03*
X170374000Y-78055000D03*
D11*
X163770000Y-78055000D03*
D12*
X166310000Y-79325000D03*
X163770000Y-80595000D03*
X166310000Y-81865000D03*
X163770000Y-83135000D03*
X166310000Y-84405000D03*
X163770000Y-85675000D03*
X166310000Y-86945000D03*
%TD*%
D16*
%TO.C,J5*%
X126341697Y-85903144D03*
D17*
X126341697Y-83363144D03*
X128881697Y-85903144D03*
X128881697Y-83363144D03*
X131421697Y-85903144D03*
X131421697Y-83363144D03*
X133961697Y-85903144D03*
X133961697Y-83363144D03*
X136501697Y-85903144D03*
X136501697Y-83363144D03*
X139041697Y-85903144D03*
X139041697Y-83363144D03*
X141581697Y-85903144D03*
X141581697Y-83363144D03*
X144121697Y-85903144D03*
X144121697Y-83363144D03*
X146661697Y-85903144D03*
X146661697Y-83363144D03*
X149201697Y-85903144D03*
X149201697Y-83363144D03*
X151741697Y-85903144D03*
X151741697Y-83363144D03*
X154281697Y-85903144D03*
X154281697Y-83363144D03*
%TD*%
D16*
%TO.C,J5*%
X126340000Y-85900000D03*
D17*
X126340000Y-83360000D03*
X128880000Y-85900000D03*
X128880000Y-83360000D03*
X131420000Y-85900000D03*
X131420000Y-83360000D03*
X133960000Y-85900000D03*
X133960000Y-83360000D03*
X136500000Y-85900000D03*
X136500000Y-83360000D03*
X139040000Y-85900000D03*
X139040000Y-83360000D03*
X141580000Y-85900000D03*
X141580000Y-83360000D03*
X144120000Y-85900000D03*
X144120000Y-83360000D03*
X146660000Y-85900000D03*
X146660000Y-83360000D03*
X149200000Y-85900000D03*
X149200000Y-83360000D03*
X151740000Y-85900000D03*
X151740000Y-83360000D03*
X154280000Y-85900000D03*
X154280000Y-83360000D03*
%TD*%
M02*
