%TF.GenerationSoftware,KiCad,Pcbnew,7.0.7*%
%TF.CreationDate,2023-10-22T19:03:09-04:00*%
%TF.ProjectId,Motion controller MiYR interface,4d6f7469-6f6e-4206-936f-6e74726f6c6c,rev?*%
%TF.SameCoordinates,Original*%
%TF.FileFunction,Legend,Top*%
%TF.FilePolarity,Positive*%
%FSLAX46Y46*%
G04 Gerber Fmt 4.6, Leading zero omitted, Abs format (unit mm)*
G04 Created by KiCad (PCBNEW 7.0.7) date 2023-10-22 19:03:09*
%MOMM*%
%LPD*%
G01*
G04 APERTURE LIST*
%ADD10C,0.150000*%
%ADD11C,0.800000*%
%ADD12C,0.100000*%
%ADD13C,0.120000*%
%ADD14C,0.152400*%
%ADD15C,0.010000*%
G04 APERTURE END LIST*
D10*
X194397980Y-63500001D02*
X194159885Y-63500001D01*
X194255123Y-63261906D02*
X194159885Y-63500001D01*
X194159885Y-63500001D02*
X194255123Y-63738096D01*
X193969409Y-63357144D02*
X194159885Y-63500001D01*
X194159885Y-63500001D02*
X193969409Y-63642858D01*
X194397980Y-63500001D02*
X194159885Y-63500001D01*
X194255123Y-63261906D02*
X194159885Y-63500001D01*
X194159885Y-63500001D02*
X194255123Y-63738096D01*
X193969409Y-63357144D02*
X194159885Y-63500001D01*
X194159885Y-63500001D02*
X193969409Y-63642858D01*
X193307619Y-67532094D02*
X194117142Y-67532094D01*
X194117142Y-67532094D02*
X194212380Y-67484475D01*
X194212380Y-67484475D02*
X194260000Y-67436856D01*
X194260000Y-67436856D02*
X194307619Y-67341618D01*
X194307619Y-67341618D02*
X194307619Y-67151142D01*
X194307619Y-67151142D02*
X194260000Y-67055904D01*
X194260000Y-67055904D02*
X194212380Y-67008285D01*
X194212380Y-67008285D02*
X194117142Y-66960666D01*
X194117142Y-66960666D02*
X193307619Y-66960666D01*
X193402857Y-66532094D02*
X193355238Y-66484475D01*
X193355238Y-66484475D02*
X193307619Y-66389237D01*
X193307619Y-66389237D02*
X193307619Y-66151142D01*
X193307619Y-66151142D02*
X193355238Y-66055904D01*
X193355238Y-66055904D02*
X193402857Y-66008285D01*
X193402857Y-66008285D02*
X193498095Y-65960666D01*
X193498095Y-65960666D02*
X193593333Y-65960666D01*
X193593333Y-65960666D02*
X193736190Y-66008285D01*
X193736190Y-66008285D02*
X194307619Y-66579713D01*
X194307619Y-66579713D02*
X194307619Y-65960666D01*
X193307619Y-65055904D02*
X193307619Y-65532094D01*
X193307619Y-65532094D02*
X193783809Y-65579713D01*
X193783809Y-65579713D02*
X193736190Y-65532094D01*
X193736190Y-65532094D02*
X193688571Y-65436856D01*
X193688571Y-65436856D02*
X193688571Y-65198761D01*
X193688571Y-65198761D02*
X193736190Y-65103523D01*
X193736190Y-65103523D02*
X193783809Y-65055904D01*
X193783809Y-65055904D02*
X193879047Y-65008285D01*
X193879047Y-65008285D02*
X194117142Y-65008285D01*
X194117142Y-65008285D02*
X194212380Y-65055904D01*
X194212380Y-65055904D02*
X194260000Y-65103523D01*
X194260000Y-65103523D02*
X194307619Y-65198761D01*
X194307619Y-65198761D02*
X194307619Y-65436856D01*
X194307619Y-65436856D02*
X194260000Y-65532094D01*
X194260000Y-65532094D02*
X194212380Y-65579713D01*
X146996751Y-63259619D02*
X146996751Y-63497714D01*
X146758656Y-63402476D02*
X146996751Y-63497714D01*
X146996751Y-63497714D02*
X147234846Y-63402476D01*
X146853894Y-63688190D02*
X146996751Y-63497714D01*
X146996751Y-63497714D02*
X147139608Y-63688190D01*
X146996750Y-64349980D02*
X146996750Y-64111885D01*
X147234845Y-64207123D02*
X146996750Y-64111885D01*
X146996750Y-64111885D02*
X146758655Y-64207123D01*
X147139607Y-63921409D02*
X146996750Y-64111885D01*
X146996750Y-64111885D02*
X146853893Y-63921409D01*
X155360019Y-68764750D02*
X155598114Y-68764750D01*
X155502876Y-69002845D02*
X155598114Y-68764750D01*
X155598114Y-68764750D02*
X155502876Y-68526655D01*
X155788590Y-68907607D02*
X155598114Y-68764750D01*
X155598114Y-68764750D02*
X155788590Y-68621893D01*
X155360019Y-68764750D02*
X155598114Y-68764750D01*
X155502876Y-69002845D02*
X155598114Y-68764750D01*
X155598114Y-68764750D02*
X155502876Y-68526655D01*
X155788590Y-68907607D02*
X155598114Y-68764750D01*
X155598114Y-68764750D02*
X155788590Y-68621893D01*
D11*
%TO.C,REF\u002A\u002A*%
X147429074Y-237250433D02*
G75*
G03*
X147429074Y-237250433I-7019357J0D01*
G01*
D12*
X136883731Y-240865176D02*
X135365680Y-240865176D01*
X135365680Y-233700433D01*
X136883731Y-233700433D01*
X136883731Y-240865176D01*
G36*
X136883731Y-240865176D02*
G01*
X135365680Y-240865176D01*
X135365680Y-233700433D01*
X136883731Y-233700433D01*
X136883731Y-240865176D01*
G37*
X139937085Y-234907974D02*
X137337996Y-234907974D01*
X137337996Y-233700433D01*
X139879583Y-233700433D01*
X139937085Y-234907974D01*
G36*
X139937085Y-234907974D02*
G01*
X137337996Y-234907974D01*
X137337996Y-233700433D01*
X139879583Y-233700433D01*
X139937085Y-234907974D01*
G37*
X139879583Y-240865176D02*
X137337996Y-240865176D01*
X137337996Y-239651885D01*
X139937085Y-239651885D01*
X139879583Y-240865176D01*
G36*
X139879583Y-240865176D02*
G01*
X137337996Y-240865176D01*
X137337996Y-239651885D01*
X139937085Y-239651885D01*
X139879583Y-240865176D01*
G37*
X139379316Y-237834823D02*
X137337996Y-237834823D01*
X137337996Y-236725036D01*
X139379316Y-236725036D01*
X139379316Y-237834823D01*
G36*
X139379316Y-237834823D02*
G01*
X137337996Y-237834823D01*
X137337996Y-236725036D01*
X139379316Y-236725036D01*
X139379316Y-237834823D01*
G37*
X143019189Y-234907974D02*
X142697178Y-234907974D01*
X142652773Y-234909278D01*
X142611142Y-234913076D01*
X142572197Y-234919204D01*
X142535847Y-234927494D01*
X142502002Y-234937780D01*
X142470574Y-234949897D01*
X142441473Y-234963676D01*
X142414610Y-234978954D01*
X142389894Y-234995562D01*
X142346548Y-235032105D01*
X142310720Y-235071975D01*
X142281694Y-235113842D01*
X142258753Y-235156373D01*
X142241182Y-235198240D01*
X142228265Y-235238110D01*
X142219285Y-235274653D01*
X142213528Y-235306539D01*
X142209366Y-235342721D01*
X142208412Y-235362240D01*
X142208412Y-239197620D01*
X142209814Y-239238890D01*
X142213901Y-239277582D01*
X142220493Y-239313778D01*
X142229413Y-239347562D01*
X142240481Y-239379018D01*
X142253517Y-239408227D01*
X142268344Y-239435274D01*
X142284781Y-239460241D01*
X142302651Y-239483213D01*
X142341969Y-239523499D01*
X142384867Y-239556798D01*
X142429913Y-239583775D01*
X142475676Y-239605097D01*
X142520722Y-239621427D01*
X142563620Y-239633433D01*
X142602938Y-239641778D01*
X142637245Y-239647129D01*
X142676176Y-239650997D01*
X142697178Y-239651885D01*
X143019189Y-239651885D01*
X143019189Y-240865176D01*
X142421169Y-240865176D01*
X142263923Y-240860689D01*
X142116502Y-240847610D01*
X141978589Y-240826513D01*
X141849866Y-240797970D01*
X141730018Y-240762554D01*
X141618726Y-240720837D01*
X141515674Y-240673392D01*
X141420545Y-240620792D01*
X141333022Y-240563610D01*
X141252788Y-240502419D01*
X141179526Y-240437791D01*
X141112920Y-240370299D01*
X141052653Y-240300516D01*
X140998406Y-240229015D01*
X140949865Y-240156369D01*
X140906711Y-240083149D01*
X140868627Y-240009929D01*
X140835298Y-239937283D01*
X140806405Y-239865782D01*
X140781633Y-239795999D01*
X140760663Y-239728507D01*
X140743180Y-239663879D01*
X140728865Y-239602688D01*
X140717403Y-239545506D01*
X140708477Y-239492906D01*
X140701769Y-239445461D01*
X140696962Y-239403744D01*
X140693740Y-239368328D01*
X140690782Y-239318688D01*
X140690360Y-239301123D01*
X140690360Y-235264486D01*
X140695325Y-235122391D01*
X140709797Y-234989173D01*
X140733144Y-234864548D01*
X140764730Y-234748227D01*
X140803923Y-234639925D01*
X140850087Y-234539355D01*
X140902591Y-234446232D01*
X140960798Y-234360268D01*
X141024077Y-234281178D01*
X141091792Y-234208674D01*
X141163311Y-234142471D01*
X141237998Y-234082282D01*
X141315221Y-234027821D01*
X141394346Y-233978801D01*
X141474738Y-233934936D01*
X141555764Y-233895940D01*
X141636790Y-233861526D01*
X141717182Y-233831408D01*
X141796307Y-233805299D01*
X141873530Y-233782913D01*
X141948217Y-233763964D01*
X142019736Y-233748165D01*
X142087451Y-233735229D01*
X142150730Y-233724872D01*
X142208937Y-233716805D01*
X142261441Y-233710743D01*
X142307605Y-233706400D01*
X142346798Y-233703488D01*
X142378384Y-233701722D01*
X142416203Y-233700481D01*
X142421169Y-233700433D01*
X143019189Y-233700433D01*
X143019189Y-234907974D01*
G36*
X143019189Y-234907974D02*
G01*
X142697178Y-234907974D01*
X142652773Y-234909278D01*
X142611142Y-234913076D01*
X142572197Y-234919204D01*
X142535847Y-234927494D01*
X142502002Y-234937780D01*
X142470574Y-234949897D01*
X142441473Y-234963676D01*
X142414610Y-234978954D01*
X142389894Y-234995562D01*
X142346548Y-235032105D01*
X142310720Y-235071975D01*
X142281694Y-235113842D01*
X142258753Y-235156373D01*
X142241182Y-235198240D01*
X142228265Y-235238110D01*
X142219285Y-235274653D01*
X142213528Y-235306539D01*
X142209366Y-235342721D01*
X142208412Y-235362240D01*
X142208412Y-239197620D01*
X142209814Y-239238890D01*
X142213901Y-239277582D01*
X142220493Y-239313778D01*
X142229413Y-239347562D01*
X142240481Y-239379018D01*
X142253517Y-239408227D01*
X142268344Y-239435274D01*
X142284781Y-239460241D01*
X142302651Y-239483213D01*
X142341969Y-239523499D01*
X142384867Y-239556798D01*
X142429913Y-239583775D01*
X142475676Y-239605097D01*
X142520722Y-239621427D01*
X142563620Y-239633433D01*
X142602938Y-239641778D01*
X142637245Y-239647129D01*
X142676176Y-239650997D01*
X142697178Y-239651885D01*
X143019189Y-239651885D01*
X143019189Y-240865176D01*
X142421169Y-240865176D01*
X142263923Y-240860689D01*
X142116502Y-240847610D01*
X141978589Y-240826513D01*
X141849866Y-240797970D01*
X141730018Y-240762554D01*
X141618726Y-240720837D01*
X141515674Y-240673392D01*
X141420545Y-240620792D01*
X141333022Y-240563610D01*
X141252788Y-240502419D01*
X141179526Y-240437791D01*
X141112920Y-240370299D01*
X141052653Y-240300516D01*
X140998406Y-240229015D01*
X140949865Y-240156369D01*
X140906711Y-240083149D01*
X140868627Y-240009929D01*
X140835298Y-239937283D01*
X140806405Y-239865782D01*
X140781633Y-239795999D01*
X140760663Y-239728507D01*
X140743180Y-239663879D01*
X140728865Y-239602688D01*
X140717403Y-239545506D01*
X140708477Y-239492906D01*
X140701769Y-239445461D01*
X140696962Y-239403744D01*
X140693740Y-239368328D01*
X140690782Y-239318688D01*
X140690360Y-239301123D01*
X140690360Y-235264486D01*
X140695325Y-235122391D01*
X140709797Y-234989173D01*
X140733144Y-234864548D01*
X140764730Y-234748227D01*
X140803923Y-234639925D01*
X140850087Y-234539355D01*
X140902591Y-234446232D01*
X140960798Y-234360268D01*
X141024077Y-234281178D01*
X141091792Y-234208674D01*
X141163311Y-234142471D01*
X141237998Y-234082282D01*
X141315221Y-234027821D01*
X141394346Y-233978801D01*
X141474738Y-233934936D01*
X141555764Y-233895940D01*
X141636790Y-233861526D01*
X141717182Y-233831408D01*
X141796307Y-233805299D01*
X141873530Y-233782913D01*
X141948217Y-233763964D01*
X142019736Y-233748165D01*
X142087451Y-233735229D01*
X142150730Y-233724872D01*
X142208937Y-233716805D01*
X142261441Y-233710743D01*
X142307605Y-233706400D01*
X142346798Y-233703488D01*
X142378384Y-233701722D01*
X142416203Y-233700481D01*
X142421169Y-233700433D01*
X143019189Y-233700433D01*
X143019189Y-234907974D01*
G37*
X144240220Y-233704920D02*
X144387641Y-233717999D01*
X144525554Y-233739096D01*
X144654277Y-233767639D01*
X144774125Y-233803055D01*
X144885417Y-233844772D01*
X144988469Y-233892217D01*
X145083598Y-233944817D01*
X145171121Y-234001999D01*
X145251355Y-234063190D01*
X145324617Y-234127818D01*
X145391223Y-234195310D01*
X145451490Y-234265093D01*
X145505737Y-234336594D01*
X145554278Y-234409240D01*
X145597432Y-234482460D01*
X145635516Y-234555680D01*
X145668845Y-234628326D01*
X145697738Y-234699827D01*
X145722510Y-234769610D01*
X145743480Y-234837102D01*
X145760963Y-234901730D01*
X145775278Y-234962921D01*
X145786740Y-235020103D01*
X145795666Y-235072703D01*
X145802374Y-235120148D01*
X145807181Y-235161865D01*
X145810403Y-235197281D01*
X145813361Y-235246921D01*
X145813784Y-235264486D01*
X145813784Y-239301123D01*
X145808818Y-239443218D01*
X145794346Y-239576436D01*
X145770999Y-239701061D01*
X145739413Y-239817382D01*
X145700220Y-239925684D01*
X145654056Y-240026254D01*
X145601552Y-240119377D01*
X145543345Y-240205341D01*
X145480066Y-240284431D01*
X145412351Y-240356935D01*
X145340832Y-240423138D01*
X145266145Y-240483327D01*
X145188922Y-240537788D01*
X145109797Y-240586808D01*
X145029405Y-240630673D01*
X144948379Y-240669669D01*
X144867353Y-240704083D01*
X144786961Y-240734201D01*
X144707836Y-240760310D01*
X144630613Y-240782696D01*
X144555926Y-240801645D01*
X144484407Y-240817444D01*
X144416692Y-240830380D01*
X144353413Y-240840737D01*
X144295206Y-240848804D01*
X144242702Y-240854866D01*
X144196538Y-240859209D01*
X144157345Y-240862121D01*
X144125759Y-240863887D01*
X144087940Y-240865128D01*
X144082975Y-240865176D01*
X143467704Y-240865176D01*
X143467704Y-239651885D01*
X143806966Y-239651885D01*
X143851370Y-239650581D01*
X143893001Y-239646783D01*
X143931946Y-239640655D01*
X143968296Y-239632365D01*
X144002141Y-239622079D01*
X144033569Y-239609963D01*
X144062670Y-239596183D01*
X144089533Y-239580906D01*
X144114249Y-239564298D01*
X144157595Y-239527755D01*
X144193423Y-239487884D01*
X144222449Y-239446018D01*
X144245390Y-239403486D01*
X144262961Y-239361620D01*
X144275878Y-239321749D01*
X144284858Y-239285206D01*
X144290615Y-239253321D01*
X144294777Y-239217139D01*
X144295732Y-239197620D01*
X144295732Y-235362240D01*
X144294329Y-235320970D01*
X144290242Y-235282278D01*
X144283650Y-235246082D01*
X144274730Y-235212297D01*
X144263662Y-235180842D01*
X144250626Y-235151632D01*
X144235799Y-235124585D01*
X144219362Y-235099618D01*
X144201492Y-235076647D01*
X144162174Y-235036361D01*
X144119276Y-235003061D01*
X144074230Y-234976084D01*
X144028467Y-234954762D01*
X143983421Y-234938432D01*
X143940523Y-234926426D01*
X143901205Y-234918081D01*
X143866898Y-234912730D01*
X143827967Y-234908862D01*
X143806966Y-234907974D01*
X143467704Y-234907974D01*
X143467704Y-233700433D01*
X144082975Y-233700433D01*
X144240220Y-233704920D01*
G36*
X144240220Y-233704920D02*
G01*
X144387641Y-233717999D01*
X144525554Y-233739096D01*
X144654277Y-233767639D01*
X144774125Y-233803055D01*
X144885417Y-233844772D01*
X144988469Y-233892217D01*
X145083598Y-233944817D01*
X145171121Y-234001999D01*
X145251355Y-234063190D01*
X145324617Y-234127818D01*
X145391223Y-234195310D01*
X145451490Y-234265093D01*
X145505737Y-234336594D01*
X145554278Y-234409240D01*
X145597432Y-234482460D01*
X145635516Y-234555680D01*
X145668845Y-234628326D01*
X145697738Y-234699827D01*
X145722510Y-234769610D01*
X145743480Y-234837102D01*
X145760963Y-234901730D01*
X145775278Y-234962921D01*
X145786740Y-235020103D01*
X145795666Y-235072703D01*
X145802374Y-235120148D01*
X145807181Y-235161865D01*
X145810403Y-235197281D01*
X145813361Y-235246921D01*
X145813784Y-235264486D01*
X145813784Y-239301123D01*
X145808818Y-239443218D01*
X145794346Y-239576436D01*
X145770999Y-239701061D01*
X145739413Y-239817382D01*
X145700220Y-239925684D01*
X145654056Y-240026254D01*
X145601552Y-240119377D01*
X145543345Y-240205341D01*
X145480066Y-240284431D01*
X145412351Y-240356935D01*
X145340832Y-240423138D01*
X145266145Y-240483327D01*
X145188922Y-240537788D01*
X145109797Y-240586808D01*
X145029405Y-240630673D01*
X144948379Y-240669669D01*
X144867353Y-240704083D01*
X144786961Y-240734201D01*
X144707836Y-240760310D01*
X144630613Y-240782696D01*
X144555926Y-240801645D01*
X144484407Y-240817444D01*
X144416692Y-240830380D01*
X144353413Y-240840737D01*
X144295206Y-240848804D01*
X144242702Y-240854866D01*
X144196538Y-240859209D01*
X144157345Y-240862121D01*
X144125759Y-240863887D01*
X144087940Y-240865128D01*
X144082975Y-240865176D01*
X143467704Y-240865176D01*
X143467704Y-239651885D01*
X143806966Y-239651885D01*
X143851370Y-239650581D01*
X143893001Y-239646783D01*
X143931946Y-239640655D01*
X143968296Y-239632365D01*
X144002141Y-239622079D01*
X144033569Y-239609963D01*
X144062670Y-239596183D01*
X144089533Y-239580906D01*
X144114249Y-239564298D01*
X144157595Y-239527755D01*
X144193423Y-239487884D01*
X144222449Y-239446018D01*
X144245390Y-239403486D01*
X144262961Y-239361620D01*
X144275878Y-239321749D01*
X144284858Y-239285206D01*
X144290615Y-239253321D01*
X144294777Y-239217139D01*
X144295732Y-239197620D01*
X144295732Y-235362240D01*
X144294329Y-235320970D01*
X144290242Y-235282278D01*
X144283650Y-235246082D01*
X144274730Y-235212297D01*
X144263662Y-235180842D01*
X144250626Y-235151632D01*
X144235799Y-235124585D01*
X144219362Y-235099618D01*
X144201492Y-235076647D01*
X144162174Y-235036361D01*
X144119276Y-235003061D01*
X144074230Y-234976084D01*
X144028467Y-234954762D01*
X143983421Y-234938432D01*
X143940523Y-234926426D01*
X143901205Y-234918081D01*
X143866898Y-234912730D01*
X143827967Y-234908862D01*
X143806966Y-234907974D01*
X143467704Y-234907974D01*
X143467704Y-233700433D01*
X144082975Y-233700433D01*
X144240220Y-233704920D01*
G37*
D13*
%TO.C,C4*%
X139903252Y-66696000D02*
X138480748Y-66696000D01*
X139903252Y-64876000D02*
X138480748Y-64876000D01*
D14*
%TO.C,U25*%
X187617100Y-64357852D02*
X187617100Y-68599652D01*
X192874900Y-68599652D02*
X192874900Y-64357852D01*
D13*
%TO.C,L2*%
X170952000Y-75039000D02*
X165852000Y-75039000D01*
X170952000Y-69839000D02*
X165852000Y-69839000D01*
%TO.C,R6*%
X169401258Y-64325500D02*
X168926742Y-64325500D01*
X169401258Y-63280500D02*
X168926742Y-63280500D01*
%TO.C,CN1*%
X199545000Y-127060000D02*
X199545000Y-126995000D01*
X199545000Y-76205000D02*
X199545000Y-76140000D01*
X196015000Y-127060000D02*
X199545000Y-127060000D01*
X196015000Y-127060000D02*
X196015000Y-126995000D01*
X196015000Y-76205000D02*
X196015000Y-76140000D01*
X196015000Y-76140000D02*
X199545000Y-76140000D01*
X194690000Y-126995000D02*
X196015000Y-126995000D01*
%TO.C,C12*%
X163689420Y-84580000D02*
X163970580Y-84580000D01*
X163689420Y-85600000D02*
X163970580Y-85600000D01*
%TO.C,C3*%
X163943420Y-97788000D02*
X164224580Y-97788000D01*
X163943420Y-98808000D02*
X164224580Y-98808000D01*
%TO.C,C28*%
X189941252Y-75078000D02*
X188518748Y-75078000D01*
X189941252Y-73258000D02*
X188518748Y-73258000D01*
%TO.C,C16*%
X155958000Y-63613420D02*
X155958000Y-63894580D01*
X154938000Y-63613420D02*
X154938000Y-63894580D01*
%TO.C,C5*%
X138316580Y-61216000D02*
X138035420Y-61216000D01*
X138316580Y-60196000D02*
X138035420Y-60196000D01*
%TO.C,C32*%
X175620000Y-68021252D02*
X175620000Y-66598748D01*
X177440000Y-68021252D02*
X177440000Y-66598748D01*
%TO.C,C11*%
X144983252Y-70760000D02*
X143560748Y-70760000D01*
X144983252Y-68940000D02*
X143560748Y-68940000D01*
%TO.C,C19*%
X171956000Y-71055580D02*
X171956000Y-70774420D01*
X172976000Y-71055580D02*
X172976000Y-70774420D01*
%TO.C,U24*%
X173010000Y-66950500D02*
X173010000Y-65150500D01*
X173010000Y-66950500D02*
X173010000Y-67750500D01*
X169890000Y-66950500D02*
X169890000Y-66150500D01*
X169890000Y-66950500D02*
X169890000Y-67750500D01*
%TO.C,C8*%
X148222580Y-66042000D02*
X147941420Y-66042000D01*
X148222580Y-65022000D02*
X147941420Y-65022000D01*
%TO.C,R3*%
X141492500Y-68596742D02*
X141492500Y-69071258D01*
X140447500Y-68596742D02*
X140447500Y-69071258D01*
%TO.C,C13*%
X163689420Y-237996000D02*
X163970580Y-237996000D01*
X163689420Y-239016000D02*
X163970580Y-239016000D01*
%TO.C,C9*%
X138936000Y-72276580D02*
X138936000Y-71995420D01*
X139956000Y-72276580D02*
X139956000Y-71995420D01*
%TO.C,R2*%
X141492500Y-71898742D02*
X141492500Y-72373258D01*
X140447500Y-71898742D02*
X140447500Y-72373258D01*
%TO.C,C22*%
X167238000Y-67816252D02*
X167238000Y-66393748D01*
X169058000Y-67816252D02*
X169058000Y-66393748D01*
%TO.C,R1*%
X138413258Y-59450500D02*
X137938742Y-59450500D01*
X138413258Y-58405500D02*
X137938742Y-58405500D01*
%TO.C,C25*%
X191719252Y-61546752D02*
X190296748Y-61546752D01*
X191719252Y-59726752D02*
X190296748Y-59726752D01*
%TO.C,C27*%
X191629420Y-71372000D02*
X191910580Y-71372000D01*
X191629420Y-72392000D02*
X191910580Y-72392000D01*
%TO.C,R8*%
X177021258Y-64530500D02*
X176546742Y-64530500D01*
X177021258Y-63485500D02*
X176546742Y-63485500D01*
%TO.C,D1*%
X206396000Y-64010000D02*
X206126000Y-64010000D01*
X206126000Y-64010000D02*
X206126000Y-61180000D01*
X199766000Y-64010000D02*
X199766000Y-62910000D01*
X199496000Y-64010000D02*
X199766000Y-64010000D01*
X206396000Y-70430000D02*
X206396000Y-64010000D01*
X199496000Y-70430000D02*
X199496000Y-64010000D01*
%TO.C,C7*%
X149608000Y-58279420D02*
X149608000Y-58560580D01*
X148588000Y-58279420D02*
X148588000Y-58560580D01*
%TO.C,R4*%
X160798742Y-60183500D02*
X161273258Y-60183500D01*
X160798742Y-61228500D02*
X161273258Y-61228500D01*
%TO.C,C20*%
X165721420Y-61769000D02*
X166002580Y-61769000D01*
X165721420Y-62789000D02*
X166002580Y-62789000D01*
%TO.C,U1*%
X144018000Y-64988000D02*
X142218000Y-64988000D01*
X144018000Y-64988000D02*
X144818000Y-64988000D01*
X144018000Y-68108000D02*
X143218000Y-68108000D01*
X144018000Y-68108000D02*
X144818000Y-68108000D01*
%TO.C,C21*%
X164698000Y-67816252D02*
X164698000Y-66393748D01*
X166518000Y-67816252D02*
X166518000Y-66393748D01*
%TO.C,R15*%
X186958500Y-69543494D02*
X186958500Y-70018010D01*
X185913500Y-69543494D02*
X185913500Y-70018010D01*
%TO.C,C30*%
X182878000Y-71260580D02*
X182878000Y-70979420D01*
X183898000Y-71260580D02*
X183898000Y-70979420D01*
%TO.C,C2*%
X191622000Y-56845252D02*
X191622000Y-55422748D01*
X193442000Y-56845252D02*
X193442000Y-55422748D01*
%TO.C,R9*%
X180069258Y-64530500D02*
X179594742Y-64530500D01*
X180069258Y-63485500D02*
X179594742Y-63485500D01*
%TO.C,C26*%
X186819000Y-63359420D02*
X186819000Y-63640580D01*
X185799000Y-63359420D02*
X185799000Y-63640580D01*
%TO.C,C10*%
X144983252Y-73300000D02*
X143560748Y-73300000D01*
X144983252Y-71480000D02*
X143560748Y-71480000D01*
%TO.C,R7*%
X185786500Y-66785258D02*
X185786500Y-66310742D01*
X186831500Y-66785258D02*
X186831500Y-66310742D01*
%TO.C,F1*%
X209444000Y-65945936D02*
X209444000Y-67150064D01*
X207624000Y-65945936D02*
X207624000Y-67150064D01*
%TO.C,C6*%
X148588000Y-61608580D02*
X148588000Y-61327420D01*
X149608000Y-61608580D02*
X149608000Y-61327420D01*
%TO.C,CN2*%
X146545000Y-127060000D02*
X146545000Y-126995000D01*
X146545000Y-76205000D02*
X146545000Y-76140000D01*
X143015000Y-127060000D02*
X146545000Y-127060000D01*
X143015000Y-127060000D02*
X143015000Y-126995000D01*
X143015000Y-76205000D02*
X143015000Y-76140000D01*
X143015000Y-76140000D02*
X146545000Y-76140000D01*
X141690000Y-126995000D02*
X143015000Y-126995000D01*
%TO.C,C31*%
X176643420Y-61974000D02*
X176924580Y-61974000D01*
X176643420Y-62994000D02*
X176924580Y-62994000D01*
%TO.C,REF\u002A\u002A*%
D15*
X205335690Y-241940018D02*
X205370585Y-241955269D01*
X205453877Y-242021235D01*
X205525103Y-242116618D01*
X205569153Y-242218406D01*
X205576322Y-242268587D01*
X205552285Y-242338647D01*
X205499561Y-242375717D01*
X205443031Y-242398164D01*
X205417146Y-242402300D01*
X205404542Y-242372283D01*
X205379654Y-242306961D01*
X205368735Y-242277445D01*
X205307508Y-242175348D01*
X205218861Y-242124423D01*
X205105193Y-242125989D01*
X205096774Y-242127994D01*
X205036088Y-242156767D01*
X204991474Y-242212859D01*
X204961002Y-242303163D01*
X204942744Y-242434571D01*
X204934771Y-242613974D01*
X204934023Y-242709433D01*
X204933652Y-242859913D01*
X204931223Y-242962495D01*
X204924760Y-243027672D01*
X204912288Y-243065938D01*
X204891833Y-243087785D01*
X204861419Y-243103707D01*
X204859661Y-243104509D01*
X204801091Y-243129272D01*
X204772075Y-243138391D01*
X204767616Y-243110822D01*
X204763799Y-243034620D01*
X204760899Y-242919541D01*
X204759191Y-242775341D01*
X204758851Y-242669814D01*
X204760588Y-242465613D01*
X204767382Y-242310697D01*
X204781607Y-242196024D01*
X204805638Y-242112551D01*
X204841848Y-242051236D01*
X204892612Y-242003034D01*
X204942739Y-241969393D01*
X205063275Y-241924619D01*
X205203557Y-241914521D01*
X205335690Y-241940018D01*
G36*
X205335690Y-241940018D02*
G01*
X205370585Y-241955269D01*
X205453877Y-242021235D01*
X205525103Y-242116618D01*
X205569153Y-242218406D01*
X205576322Y-242268587D01*
X205552285Y-242338647D01*
X205499561Y-242375717D01*
X205443031Y-242398164D01*
X205417146Y-242402300D01*
X205404542Y-242372283D01*
X205379654Y-242306961D01*
X205368735Y-242277445D01*
X205307508Y-242175348D01*
X205218861Y-242124423D01*
X205105193Y-242125989D01*
X205096774Y-242127994D01*
X205036088Y-242156767D01*
X204991474Y-242212859D01*
X204961002Y-242303163D01*
X204942744Y-242434571D01*
X204934771Y-242613974D01*
X204934023Y-242709433D01*
X204933652Y-242859913D01*
X204931223Y-242962495D01*
X204924760Y-243027672D01*
X204912288Y-243065938D01*
X204891833Y-243087785D01*
X204861419Y-243103707D01*
X204859661Y-243104509D01*
X204801091Y-243129272D01*
X204772075Y-243138391D01*
X204767616Y-243110822D01*
X204763799Y-243034620D01*
X204760899Y-242919541D01*
X204759191Y-242775341D01*
X204758851Y-242669814D01*
X204760588Y-242465613D01*
X204767382Y-242310697D01*
X204781607Y-242196024D01*
X204805638Y-242112551D01*
X204841848Y-242051236D01*
X204892612Y-242003034D01*
X204942739Y-241969393D01*
X205063275Y-241924619D01*
X205203557Y-241914521D01*
X205335690Y-241940018D01*
G37*
X197417429Y-241877719D02*
X197511123Y-241931914D01*
X197576264Y-241985707D01*
X197623907Y-242042066D01*
X197656728Y-242110987D01*
X197677406Y-242202468D01*
X197688620Y-242326506D01*
X197693049Y-242493098D01*
X197693563Y-242612851D01*
X197693563Y-243053659D01*
X197569483Y-243109283D01*
X197445402Y-243164907D01*
X197430805Y-242682095D01*
X197424773Y-242501779D01*
X197418445Y-242370901D01*
X197410606Y-242280511D01*
X197400037Y-242221664D01*
X197385523Y-242185413D01*
X197365848Y-242162810D01*
X197359535Y-242157917D01*
X197263888Y-242119706D01*
X197167207Y-242134827D01*
X197109655Y-242174943D01*
X197086245Y-242203370D01*
X197070039Y-242240672D01*
X197059741Y-242297223D01*
X197054049Y-242383394D01*
X197051664Y-242509558D01*
X197051264Y-242641042D01*
X197051186Y-242805999D01*
X197048361Y-242922761D01*
X197038907Y-243001510D01*
X197018940Y-243052431D01*
X196984576Y-243085706D01*
X196931932Y-243111520D01*
X196861617Y-243138344D01*
X196784820Y-243167542D01*
X196793962Y-242649346D01*
X196797643Y-242462539D01*
X196801950Y-242324490D01*
X196808123Y-242225568D01*
X196817402Y-242156145D01*
X196831027Y-242106590D01*
X196850239Y-242067273D01*
X196873402Y-242032584D01*
X196985152Y-241921770D01*
X197121513Y-241857689D01*
X197269825Y-241842339D01*
X197417429Y-241877719D01*
G36*
X197417429Y-241877719D02*
G01*
X197511123Y-241931914D01*
X197576264Y-241985707D01*
X197623907Y-242042066D01*
X197656728Y-242110987D01*
X197677406Y-242202468D01*
X197688620Y-242326506D01*
X197693049Y-242493098D01*
X197693563Y-242612851D01*
X197693563Y-243053659D01*
X197569483Y-243109283D01*
X197445402Y-243164907D01*
X197430805Y-242682095D01*
X197424773Y-242501779D01*
X197418445Y-242370901D01*
X197410606Y-242280511D01*
X197400037Y-242221664D01*
X197385523Y-242185413D01*
X197365848Y-242162810D01*
X197359535Y-242157917D01*
X197263888Y-242119706D01*
X197167207Y-242134827D01*
X197109655Y-242174943D01*
X197086245Y-242203370D01*
X197070039Y-242240672D01*
X197059741Y-242297223D01*
X197054049Y-242383394D01*
X197051664Y-242509558D01*
X197051264Y-242641042D01*
X197051186Y-242805999D01*
X197048361Y-242922761D01*
X197038907Y-243001510D01*
X197018940Y-243052431D01*
X196984576Y-243085706D01*
X196931932Y-243111520D01*
X196861617Y-243138344D01*
X196784820Y-243167542D01*
X196793962Y-242649346D01*
X196797643Y-242462539D01*
X196801950Y-242324490D01*
X196808123Y-242225568D01*
X196817402Y-242156145D01*
X196831027Y-242106590D01*
X196850239Y-242067273D01*
X196873402Y-242032584D01*
X196985152Y-241921770D01*
X197121513Y-241857689D01*
X197269825Y-241842339D01*
X197417429Y-241877719D01*
G37*
X201065943Y-241921920D02*
X201198565Y-241970859D01*
X201306010Y-242057419D01*
X201348032Y-242118352D01*
X201393843Y-242230161D01*
X201392891Y-242311006D01*
X201344808Y-242365378D01*
X201327017Y-242374624D01*
X201250204Y-242403450D01*
X201210976Y-242396065D01*
X201197689Y-242347658D01*
X201197012Y-242320920D01*
X201172686Y-242222548D01*
X201109281Y-242153734D01*
X201021154Y-242120498D01*
X200922663Y-242128861D01*
X200842602Y-242172296D01*
X200815561Y-242197072D01*
X200796394Y-242227129D01*
X200783446Y-242272565D01*
X200775064Y-242343476D01*
X200769593Y-242449960D01*
X200765378Y-242602112D01*
X200764287Y-242650287D01*
X200760307Y-242815095D01*
X200755781Y-242931088D01*
X200748995Y-243007833D01*
X200738231Y-243054893D01*
X200721773Y-243081835D01*
X200697906Y-243098223D01*
X200682626Y-243105463D01*
X200617733Y-243130220D01*
X200579534Y-243138391D01*
X200566912Y-243111103D01*
X200559208Y-243028603D01*
X200556380Y-242889941D01*
X200558386Y-242694162D01*
X200559011Y-242663965D01*
X200563421Y-242485349D01*
X200568635Y-242354923D01*
X200576055Y-242262492D01*
X200587082Y-242197858D01*
X200603117Y-242150825D01*
X200625561Y-242111196D01*
X200637302Y-242094215D01*
X200704619Y-242019080D01*
X200779910Y-241960638D01*
X200789128Y-241955536D01*
X200924133Y-241915260D01*
X201065943Y-241921920D01*
G36*
X201065943Y-241921920D02*
G01*
X201198565Y-241970859D01*
X201306010Y-242057419D01*
X201348032Y-242118352D01*
X201393843Y-242230161D01*
X201392891Y-242311006D01*
X201344808Y-242365378D01*
X201327017Y-242374624D01*
X201250204Y-242403450D01*
X201210976Y-242396065D01*
X201197689Y-242347658D01*
X201197012Y-242320920D01*
X201172686Y-242222548D01*
X201109281Y-242153734D01*
X201021154Y-242120498D01*
X200922663Y-242128861D01*
X200842602Y-242172296D01*
X200815561Y-242197072D01*
X200796394Y-242227129D01*
X200783446Y-242272565D01*
X200775064Y-242343476D01*
X200769593Y-242449960D01*
X200765378Y-242602112D01*
X200764287Y-242650287D01*
X200760307Y-242815095D01*
X200755781Y-242931088D01*
X200748995Y-243007833D01*
X200738231Y-243054893D01*
X200721773Y-243081835D01*
X200697906Y-243098223D01*
X200682626Y-243105463D01*
X200617733Y-243130220D01*
X200579534Y-243138391D01*
X200566912Y-243111103D01*
X200559208Y-243028603D01*
X200556380Y-242889941D01*
X200558386Y-242694162D01*
X200559011Y-242663965D01*
X200563421Y-242485349D01*
X200568635Y-242354923D01*
X200576055Y-242262492D01*
X200587082Y-242197858D01*
X200603117Y-242150825D01*
X200625561Y-242111196D01*
X200637302Y-242094215D01*
X200704619Y-242019080D01*
X200779910Y-241960638D01*
X200789128Y-241955536D01*
X200924133Y-241915260D01*
X201065943Y-241921920D01*
G37*
X203580124Y-241939840D02*
X203584579Y-242016653D01*
X203588071Y-242133391D01*
X203590315Y-242280821D01*
X203591035Y-242435455D01*
X203591035Y-242958727D01*
X203498645Y-243051117D01*
X203434978Y-243108047D01*
X203379089Y-243131107D01*
X203302702Y-243129647D01*
X203272380Y-243125934D01*
X203177610Y-243115126D01*
X203099222Y-243108933D01*
X203080115Y-243108361D01*
X203015699Y-243112102D01*
X202923571Y-243121494D01*
X202887850Y-243125934D01*
X202800114Y-243132801D01*
X202741153Y-243117885D01*
X202682690Y-243071835D01*
X202661585Y-243051117D01*
X202569195Y-242958727D01*
X202569195Y-241979947D01*
X202643558Y-241946066D01*
X202707590Y-241920970D01*
X202745052Y-241912184D01*
X202754657Y-241939950D01*
X202763635Y-242017530D01*
X202771386Y-242136348D01*
X202777314Y-242287828D01*
X202780173Y-242415805D01*
X202788161Y-242919425D01*
X202857848Y-242929278D01*
X202921229Y-242922389D01*
X202952286Y-242900083D01*
X202960967Y-242858379D01*
X202968378Y-242769544D01*
X202973931Y-242644834D01*
X202977036Y-242495507D01*
X202977484Y-242418661D01*
X202977931Y-241976287D01*
X203069874Y-241944235D01*
X203134949Y-241922443D01*
X203170347Y-241912281D01*
X203171368Y-241912184D01*
X203174920Y-241939809D01*
X203178823Y-242016411D01*
X203182751Y-242132579D01*
X203186376Y-242278904D01*
X203188908Y-242415805D01*
X203196897Y-242919425D01*
X203372069Y-242919425D01*
X203380107Y-242459965D01*
X203388146Y-242000505D01*
X203473543Y-241956344D01*
X203536593Y-241926019D01*
X203573910Y-241912258D01*
X203574987Y-241912184D01*
X203580124Y-241939840D01*
G36*
X203580124Y-241939840D02*
G01*
X203584579Y-242016653D01*
X203588071Y-242133391D01*
X203590315Y-242280821D01*
X203591035Y-242435455D01*
X203591035Y-242958727D01*
X203498645Y-243051117D01*
X203434978Y-243108047D01*
X203379089Y-243131107D01*
X203302702Y-243129647D01*
X203272380Y-243125934D01*
X203177610Y-243115126D01*
X203099222Y-243108933D01*
X203080115Y-243108361D01*
X203015699Y-243112102D01*
X202923571Y-243121494D01*
X202887850Y-243125934D01*
X202800114Y-243132801D01*
X202741153Y-243117885D01*
X202682690Y-243071835D01*
X202661585Y-243051117D01*
X202569195Y-242958727D01*
X202569195Y-241979947D01*
X202643558Y-241946066D01*
X202707590Y-241920970D01*
X202745052Y-241912184D01*
X202754657Y-241939950D01*
X202763635Y-242017530D01*
X202771386Y-242136348D01*
X202777314Y-242287828D01*
X202780173Y-242415805D01*
X202788161Y-242919425D01*
X202857848Y-242929278D01*
X202921229Y-242922389D01*
X202952286Y-242900083D01*
X202960967Y-242858379D01*
X202968378Y-242769544D01*
X202973931Y-242644834D01*
X202977036Y-242495507D01*
X202977484Y-242418661D01*
X202977931Y-241976287D01*
X203069874Y-241944235D01*
X203134949Y-241922443D01*
X203170347Y-241912281D01*
X203171368Y-241912184D01*
X203174920Y-241939809D01*
X203178823Y-242016411D01*
X203182751Y-242132579D01*
X203186376Y-242278904D01*
X203188908Y-242415805D01*
X203196897Y-242919425D01*
X203372069Y-242919425D01*
X203380107Y-242459965D01*
X203388146Y-242000505D01*
X203473543Y-241956344D01*
X203536593Y-241926019D01*
X203573910Y-241912258D01*
X203574987Y-241912184D01*
X203580124Y-241939840D01*
G37*
X198744598Y-241723857D02*
X198753154Y-241843188D01*
X198762981Y-241913506D01*
X198776599Y-241944179D01*
X198796527Y-241944571D01*
X198802989Y-241940910D01*
X198888940Y-241914398D01*
X199000745Y-241915946D01*
X199114414Y-241943199D01*
X199185510Y-241978455D01*
X199258405Y-242034778D01*
X199311693Y-242098519D01*
X199348275Y-242179510D01*
X199371050Y-242287586D01*
X199382919Y-242432580D01*
X199386782Y-242624326D01*
X199386851Y-242661109D01*
X199386897Y-243074288D01*
X199294954Y-243106339D01*
X199229652Y-243128144D01*
X199193824Y-243138297D01*
X199192770Y-243138391D01*
X199189242Y-243110860D01*
X199186239Y-243034923D01*
X199183990Y-242920565D01*
X199182724Y-242777769D01*
X199182529Y-242690951D01*
X199182123Y-242519773D01*
X199180032Y-242397088D01*
X199174947Y-242313000D01*
X199165560Y-242257614D01*
X199150561Y-242221032D01*
X199128642Y-242193359D01*
X199114957Y-242180032D01*
X199020949Y-242126328D01*
X198918364Y-242122307D01*
X198825290Y-242167725D01*
X198808078Y-242184123D01*
X198782832Y-242214957D01*
X198765320Y-242251531D01*
X198754142Y-242304415D01*
X198747896Y-242384177D01*
X198745182Y-242501385D01*
X198744598Y-242662991D01*
X198744598Y-243074288D01*
X198652655Y-243106339D01*
X198587353Y-243128144D01*
X198551525Y-243138297D01*
X198550471Y-243138391D01*
X198547775Y-243110448D01*
X198545345Y-243031630D01*
X198543278Y-242909453D01*
X198541671Y-242751432D01*
X198540623Y-242565083D01*
X198540231Y-242357920D01*
X198540230Y-242348706D01*
X198540230Y-241559020D01*
X198635115Y-241518997D01*
X198730000Y-241478973D01*
X198744598Y-241723857D01*
G36*
X198744598Y-241723857D02*
G01*
X198753154Y-241843188D01*
X198762981Y-241913506D01*
X198776599Y-241944179D01*
X198796527Y-241944571D01*
X198802989Y-241940910D01*
X198888940Y-241914398D01*
X199000745Y-241915946D01*
X199114414Y-241943199D01*
X199185510Y-241978455D01*
X199258405Y-242034778D01*
X199311693Y-242098519D01*
X199348275Y-242179510D01*
X199371050Y-242287586D01*
X199382919Y-242432580D01*
X199386782Y-242624326D01*
X199386851Y-242661109D01*
X199386897Y-243074288D01*
X199294954Y-243106339D01*
X199229652Y-243128144D01*
X199193824Y-243138297D01*
X199192770Y-243138391D01*
X199189242Y-243110860D01*
X199186239Y-243034923D01*
X199183990Y-242920565D01*
X199182724Y-242777769D01*
X199182529Y-242690951D01*
X199182123Y-242519773D01*
X199180032Y-242397088D01*
X199174947Y-242313000D01*
X199165560Y-242257614D01*
X199150561Y-242221032D01*
X199128642Y-242193359D01*
X199114957Y-242180032D01*
X199020949Y-242126328D01*
X198918364Y-242122307D01*
X198825290Y-242167725D01*
X198808078Y-242184123D01*
X198782832Y-242214957D01*
X198765320Y-242251531D01*
X198754142Y-242304415D01*
X198747896Y-242384177D01*
X198745182Y-242501385D01*
X198744598Y-242662991D01*
X198744598Y-243074288D01*
X198652655Y-243106339D01*
X198587353Y-243128144D01*
X198551525Y-243138297D01*
X198550471Y-243138391D01*
X198547775Y-243110448D01*
X198545345Y-243031630D01*
X198543278Y-242909453D01*
X198541671Y-242751432D01*
X198540623Y-242565083D01*
X198540231Y-242357920D01*
X198540230Y-242348706D01*
X198540230Y-241559020D01*
X198635115Y-241518997D01*
X198730000Y-241478973D01*
X198744598Y-241723857D01*
G37*
X194048221Y-241866015D02*
X194185061Y-241937968D01*
X194286051Y-242053766D01*
X194321925Y-242128213D01*
X194349839Y-242239992D01*
X194364129Y-242381227D01*
X194365484Y-242535371D01*
X194354595Y-242685879D01*
X194332153Y-242816205D01*
X194298850Y-242909803D01*
X194288615Y-242925922D01*
X194167382Y-243046249D01*
X194023387Y-243118317D01*
X193867139Y-243139408D01*
X193709148Y-243106802D01*
X193665180Y-243087253D01*
X193579556Y-243027012D01*
X193504408Y-242947135D01*
X193497306Y-242937004D01*
X193468439Y-242888181D01*
X193449357Y-242835990D01*
X193438084Y-242767285D01*
X193432645Y-242668918D01*
X193431062Y-242527744D01*
X193431035Y-242496092D01*
X193431107Y-242486019D01*
X193722989Y-242486019D01*
X193724687Y-242619256D01*
X193731372Y-242707674D01*
X193745425Y-242764785D01*
X193769229Y-242804102D01*
X193781379Y-242817241D01*
X193851236Y-242867172D01*
X193919059Y-242864895D01*
X193987635Y-242821584D01*
X194028535Y-242775346D01*
X194052758Y-242707857D01*
X194066361Y-242601433D01*
X194067294Y-242589020D01*
X194069616Y-242396147D01*
X194045350Y-242252900D01*
X193994824Y-242160160D01*
X193918368Y-242118807D01*
X193891076Y-242116552D01*
X193819411Y-242127893D01*
X193770390Y-242167184D01*
X193740418Y-242242326D01*
X193725899Y-242361222D01*
X193722989Y-242486019D01*
X193431107Y-242486019D01*
X193432122Y-242345659D01*
X193436688Y-242240549D01*
X193446688Y-242167714D01*
X193464079Y-242114108D01*
X193490816Y-242066681D01*
X193496724Y-242057864D01*
X193596032Y-241939007D01*
X193704242Y-241870008D01*
X193835981Y-241842619D01*
X193880717Y-241841281D01*
X194048221Y-241866015D01*
G36*
X194048221Y-241866015D02*
G01*
X194185061Y-241937968D01*
X194286051Y-242053766D01*
X194321925Y-242128213D01*
X194349839Y-242239992D01*
X194364129Y-242381227D01*
X194365484Y-242535371D01*
X194354595Y-242685879D01*
X194332153Y-242816205D01*
X194298850Y-242909803D01*
X194288615Y-242925922D01*
X194167382Y-243046249D01*
X194023387Y-243118317D01*
X193867139Y-243139408D01*
X193709148Y-243106802D01*
X193665180Y-243087253D01*
X193579556Y-243027012D01*
X193504408Y-242947135D01*
X193497306Y-242937004D01*
X193468439Y-242888181D01*
X193449357Y-242835990D01*
X193438084Y-242767285D01*
X193432645Y-242668918D01*
X193431062Y-242527744D01*
X193431035Y-242496092D01*
X193431107Y-242486019D01*
X193722989Y-242486019D01*
X193724687Y-242619256D01*
X193731372Y-242707674D01*
X193745425Y-242764785D01*
X193769229Y-242804102D01*
X193781379Y-242817241D01*
X193851236Y-242867172D01*
X193919059Y-242864895D01*
X193987635Y-242821584D01*
X194028535Y-242775346D01*
X194052758Y-242707857D01*
X194066361Y-242601433D01*
X194067294Y-242589020D01*
X194069616Y-242396147D01*
X194045350Y-242252900D01*
X193994824Y-242160160D01*
X193918368Y-242118807D01*
X193891076Y-242116552D01*
X193819411Y-242127893D01*
X193770390Y-242167184D01*
X193740418Y-242242326D01*
X193725899Y-242361222D01*
X193722989Y-242486019D01*
X193431107Y-242486019D01*
X193432122Y-242345659D01*
X193436688Y-242240549D01*
X193446688Y-242167714D01*
X193464079Y-242114108D01*
X193490816Y-242066681D01*
X193496724Y-242057864D01*
X193596032Y-241939007D01*
X193704242Y-241870008D01*
X193835981Y-241842619D01*
X193880717Y-241841281D01*
X194048221Y-241866015D01*
G37*
X206343439Y-241956540D02*
X206458950Y-242032034D01*
X206514664Y-242099617D01*
X206558804Y-242222255D01*
X206562309Y-242319298D01*
X206554368Y-242449056D01*
X206255115Y-242580039D01*
X206109611Y-242646958D01*
X206014537Y-242700790D01*
X205965101Y-242747416D01*
X205956511Y-242792720D01*
X205983972Y-242842582D01*
X206014253Y-242875632D01*
X206102363Y-242928633D01*
X206198196Y-242932347D01*
X206286212Y-242891041D01*
X206350869Y-242808983D01*
X206362433Y-242780008D01*
X206417825Y-242689509D01*
X206481553Y-242650940D01*
X206568966Y-242617946D01*
X206568966Y-242743034D01*
X206561238Y-242828156D01*
X206530966Y-242899938D01*
X206467518Y-242982356D01*
X206458088Y-242993066D01*
X206387513Y-243066391D01*
X206326847Y-243105742D01*
X206250950Y-243123845D01*
X206188030Y-243129774D01*
X206075487Y-243131251D01*
X205995370Y-243112535D01*
X205945390Y-243084747D01*
X205866838Y-243023641D01*
X205812463Y-242957554D01*
X205778052Y-242874441D01*
X205759388Y-242762254D01*
X205752256Y-242608946D01*
X205751687Y-242531136D01*
X205753622Y-242437853D01*
X205929899Y-242437853D01*
X205931944Y-242487896D01*
X205937039Y-242496092D01*
X205970666Y-242484958D01*
X206043030Y-242455493D01*
X206139747Y-242413601D01*
X206159973Y-242404597D01*
X206282203Y-242342442D01*
X206349547Y-242287815D01*
X206364348Y-242236649D01*
X206328947Y-242184876D01*
X206299711Y-242162000D01*
X206194216Y-242116250D01*
X206095476Y-242123808D01*
X206012812Y-242179651D01*
X205955548Y-242278753D01*
X205937188Y-242357414D01*
X205929899Y-242437853D01*
X205753622Y-242437853D01*
X205755459Y-242349351D01*
X205769359Y-242214853D01*
X205796894Y-242116916D01*
X205841572Y-242044811D01*
X205906901Y-241987813D01*
X205935383Y-241969393D01*
X206064763Y-241921422D01*
X206206412Y-241918403D01*
X206343439Y-241956540D01*
G36*
X206343439Y-241956540D02*
G01*
X206458950Y-242032034D01*
X206514664Y-242099617D01*
X206558804Y-242222255D01*
X206562309Y-242319298D01*
X206554368Y-242449056D01*
X206255115Y-242580039D01*
X206109611Y-242646958D01*
X206014537Y-242700790D01*
X205965101Y-242747416D01*
X205956511Y-242792720D01*
X205983972Y-242842582D01*
X206014253Y-242875632D01*
X206102363Y-242928633D01*
X206198196Y-242932347D01*
X206286212Y-242891041D01*
X206350869Y-242808983D01*
X206362433Y-242780008D01*
X206417825Y-242689509D01*
X206481553Y-242650940D01*
X206568966Y-242617946D01*
X206568966Y-242743034D01*
X206561238Y-242828156D01*
X206530966Y-242899938D01*
X206467518Y-242982356D01*
X206458088Y-242993066D01*
X206387513Y-243066391D01*
X206326847Y-243105742D01*
X206250950Y-243123845D01*
X206188030Y-243129774D01*
X206075487Y-243131251D01*
X205995370Y-243112535D01*
X205945390Y-243084747D01*
X205866838Y-243023641D01*
X205812463Y-242957554D01*
X205778052Y-242874441D01*
X205759388Y-242762254D01*
X205752256Y-242608946D01*
X205751687Y-242531136D01*
X205753622Y-242437853D01*
X205929899Y-242437853D01*
X205931944Y-242487896D01*
X205937039Y-242496092D01*
X205970666Y-242484958D01*
X206043030Y-242455493D01*
X206139747Y-242413601D01*
X206159973Y-242404597D01*
X206282203Y-242342442D01*
X206349547Y-242287815D01*
X206364348Y-242236649D01*
X206328947Y-242184876D01*
X206299711Y-242162000D01*
X206194216Y-242116250D01*
X206095476Y-242123808D01*
X206012812Y-242179651D01*
X205955548Y-242278753D01*
X205937188Y-242357414D01*
X205929899Y-242437853D01*
X205753622Y-242437853D01*
X205755459Y-242349351D01*
X205769359Y-242214853D01*
X205796894Y-242116916D01*
X205841572Y-242044811D01*
X205906901Y-241987813D01*
X205935383Y-241969393D01*
X206064763Y-241921422D01*
X206206412Y-241918403D01*
X206343439Y-241956540D01*
G37*
X202393914Y-242154455D02*
X202393543Y-242372661D01*
X202392108Y-242540519D01*
X202389002Y-242666070D01*
X202383622Y-242757355D01*
X202375362Y-242822415D01*
X202363616Y-242869291D01*
X202347781Y-242906024D01*
X202335790Y-242926991D01*
X202236490Y-243040694D01*
X202110588Y-243111965D01*
X201971291Y-243137538D01*
X201831805Y-243114150D01*
X201748743Y-243072119D01*
X201661545Y-242999411D01*
X201602117Y-242910612D01*
X201566261Y-242794320D01*
X201549781Y-242639135D01*
X201547447Y-242525287D01*
X201547761Y-242517106D01*
X201751724Y-242517106D01*
X201752970Y-242647657D01*
X201758678Y-242734080D01*
X201771804Y-242790618D01*
X201795306Y-242831514D01*
X201823386Y-242862362D01*
X201917688Y-242921905D01*
X202018940Y-242926992D01*
X202114636Y-242877279D01*
X202122084Y-242870543D01*
X202153874Y-242835502D01*
X202173808Y-242793811D01*
X202184600Y-242731762D01*
X202188965Y-242635644D01*
X202189655Y-242529379D01*
X202188159Y-242395880D01*
X202181964Y-242306822D01*
X202168514Y-242248293D01*
X202145251Y-242206382D01*
X202126175Y-242184123D01*
X202037563Y-242127985D01*
X201935508Y-242121235D01*
X201838095Y-242164114D01*
X201819296Y-242180032D01*
X201787293Y-242215382D01*
X201767318Y-242257502D01*
X201756593Y-242320251D01*
X201752339Y-242417487D01*
X201751724Y-242517106D01*
X201547761Y-242517106D01*
X201554504Y-242341947D01*
X201578472Y-242204195D01*
X201623548Y-242100632D01*
X201693928Y-242019856D01*
X201748743Y-241978455D01*
X201848376Y-241933728D01*
X201963855Y-241912967D01*
X202071199Y-241918525D01*
X202131264Y-241940943D01*
X202154835Y-241947323D01*
X202170477Y-241923535D01*
X202181395Y-241859788D01*
X202189655Y-241762687D01*
X202198699Y-241654541D01*
X202211261Y-241589475D01*
X202234119Y-241552268D01*
X202274051Y-241527699D01*
X202299138Y-241516819D01*
X202394023Y-241477072D01*
X202393914Y-242154455D01*
G36*
X202393914Y-242154455D02*
G01*
X202393543Y-242372661D01*
X202392108Y-242540519D01*
X202389002Y-242666070D01*
X202383622Y-242757355D01*
X202375362Y-242822415D01*
X202363616Y-242869291D01*
X202347781Y-242906024D01*
X202335790Y-242926991D01*
X202236490Y-243040694D01*
X202110588Y-243111965D01*
X201971291Y-243137538D01*
X201831805Y-243114150D01*
X201748743Y-243072119D01*
X201661545Y-242999411D01*
X201602117Y-242910612D01*
X201566261Y-242794320D01*
X201549781Y-242639135D01*
X201547447Y-242525287D01*
X201547761Y-242517106D01*
X201751724Y-242517106D01*
X201752970Y-242647657D01*
X201758678Y-242734080D01*
X201771804Y-242790618D01*
X201795306Y-242831514D01*
X201823386Y-242862362D01*
X201917688Y-242921905D01*
X202018940Y-242926992D01*
X202114636Y-242877279D01*
X202122084Y-242870543D01*
X202153874Y-242835502D01*
X202173808Y-242793811D01*
X202184600Y-242731762D01*
X202188965Y-242635644D01*
X202189655Y-242529379D01*
X202188159Y-242395880D01*
X202181964Y-242306822D01*
X202168514Y-242248293D01*
X202145251Y-242206382D01*
X202126175Y-242184123D01*
X202037563Y-242127985D01*
X201935508Y-242121235D01*
X201838095Y-242164114D01*
X201819296Y-242180032D01*
X201787293Y-242215382D01*
X201767318Y-242257502D01*
X201756593Y-242320251D01*
X201752339Y-242417487D01*
X201751724Y-242517106D01*
X201547761Y-242517106D01*
X201554504Y-242341947D01*
X201578472Y-242204195D01*
X201623548Y-242100632D01*
X201693928Y-242019856D01*
X201748743Y-241978455D01*
X201848376Y-241933728D01*
X201963855Y-241912967D01*
X202071199Y-241918525D01*
X202131264Y-241940943D01*
X202154835Y-241947323D01*
X202170477Y-241923535D01*
X202181395Y-241859788D01*
X202189655Y-241762687D01*
X202198699Y-241654541D01*
X202211261Y-241589475D01*
X202234119Y-241552268D01*
X202274051Y-241527699D01*
X202299138Y-241516819D01*
X202394023Y-241477072D01*
X202393914Y-242154455D01*
G37*
X196315552Y-241884676D02*
X196430658Y-241962111D01*
X196519611Y-242073949D01*
X196572749Y-242216265D01*
X196583497Y-242321015D01*
X196582276Y-242364726D01*
X196572056Y-242398194D01*
X196543961Y-242428179D01*
X196489116Y-242461440D01*
X196398645Y-242504738D01*
X196263672Y-242564833D01*
X196262989Y-242565134D01*
X196138751Y-242622037D01*
X196036873Y-242672565D01*
X195967767Y-242711280D01*
X195941846Y-242732740D01*
X195941839Y-242732913D01*
X195964685Y-242779644D01*
X196018109Y-242831154D01*
X196079442Y-242868261D01*
X196110515Y-242875632D01*
X196195289Y-242850138D01*
X196268293Y-242786291D01*
X196303913Y-242716094D01*
X196338180Y-242664343D01*
X196405303Y-242605409D01*
X196484208Y-242554496D01*
X196553821Y-242526809D01*
X196568377Y-242525287D01*
X196584763Y-242550321D01*
X196585750Y-242614311D01*
X196573708Y-242700593D01*
X196551007Y-242792501D01*
X196520014Y-242873369D01*
X196518448Y-242876509D01*
X196425181Y-243006734D01*
X196304304Y-243095311D01*
X196167027Y-243138786D01*
X196024560Y-243133706D01*
X195888112Y-243076616D01*
X195882045Y-243072602D01*
X195774710Y-242975326D01*
X195704132Y-242848409D01*
X195665074Y-242681526D01*
X195659832Y-242634639D01*
X195650548Y-242413329D01*
X195661678Y-242310124D01*
X195941839Y-242310124D01*
X195945479Y-242374503D01*
X195965389Y-242393291D01*
X196015026Y-242379235D01*
X196093267Y-242346009D01*
X196180726Y-242304359D01*
X196182899Y-242303256D01*
X196257030Y-242264265D01*
X196286781Y-242238244D01*
X196279445Y-242210965D01*
X196248553Y-242175121D01*
X196169960Y-242123251D01*
X196085323Y-242119439D01*
X196009403Y-242157189D01*
X195956965Y-242230001D01*
X195941839Y-242310124D01*
X195661678Y-242310124D01*
X195669644Y-242236261D01*
X195718634Y-242095829D01*
X195786836Y-241997447D01*
X195909935Y-241898030D01*
X196045528Y-241848711D01*
X196183955Y-241845568D01*
X196315552Y-241884676D01*
G36*
X196315552Y-241884676D02*
G01*
X196430658Y-241962111D01*
X196519611Y-242073949D01*
X196572749Y-242216265D01*
X196583497Y-242321015D01*
X196582276Y-242364726D01*
X196572056Y-242398194D01*
X196543961Y-242428179D01*
X196489116Y-242461440D01*
X196398645Y-242504738D01*
X196263672Y-242564833D01*
X196262989Y-242565134D01*
X196138751Y-242622037D01*
X196036873Y-242672565D01*
X195967767Y-242711280D01*
X195941846Y-242732740D01*
X195941839Y-242732913D01*
X195964685Y-242779644D01*
X196018109Y-242831154D01*
X196079442Y-242868261D01*
X196110515Y-242875632D01*
X196195289Y-242850138D01*
X196268293Y-242786291D01*
X196303913Y-242716094D01*
X196338180Y-242664343D01*
X196405303Y-242605409D01*
X196484208Y-242554496D01*
X196553821Y-242526809D01*
X196568377Y-242525287D01*
X196584763Y-242550321D01*
X196585750Y-242614311D01*
X196573708Y-242700593D01*
X196551007Y-242792501D01*
X196520014Y-242873369D01*
X196518448Y-242876509D01*
X196425181Y-243006734D01*
X196304304Y-243095311D01*
X196167027Y-243138786D01*
X196024560Y-243133706D01*
X195888112Y-243076616D01*
X195882045Y-243072602D01*
X195774710Y-242975326D01*
X195704132Y-242848409D01*
X195665074Y-242681526D01*
X195659832Y-242634639D01*
X195650548Y-242413329D01*
X195661678Y-242310124D01*
X195941839Y-242310124D01*
X195945479Y-242374503D01*
X195965389Y-242393291D01*
X196015026Y-242379235D01*
X196093267Y-242346009D01*
X196180726Y-242304359D01*
X196182899Y-242303256D01*
X196257030Y-242264265D01*
X196286781Y-242238244D01*
X196279445Y-242210965D01*
X196248553Y-242175121D01*
X196169960Y-242123251D01*
X196085323Y-242119439D01*
X196009403Y-242157189D01*
X195956965Y-242230001D01*
X195941839Y-242310124D01*
X195661678Y-242310124D01*
X195669644Y-242236261D01*
X195718634Y-242095829D01*
X195786836Y-241997447D01*
X195909935Y-241898030D01*
X196045528Y-241848711D01*
X196183955Y-241845568D01*
X196315552Y-241884676D01*
G37*
X200079944Y-241924360D02*
X200194343Y-241966842D01*
X200195652Y-241967658D01*
X200266403Y-242019730D01*
X200318636Y-242080584D01*
X200355371Y-242159887D01*
X200379634Y-242267309D01*
X200394445Y-242412517D01*
X200402829Y-242605179D01*
X200403564Y-242632628D01*
X200414120Y-243046521D01*
X200325291Y-243092456D01*
X200261018Y-243123498D01*
X200222210Y-243138206D01*
X200220415Y-243138391D01*
X200213700Y-243111250D01*
X200208365Y-243038041D01*
X200205083Y-242931081D01*
X200204368Y-242844469D01*
X200204351Y-242704162D01*
X200197937Y-242616051D01*
X200175580Y-242574025D01*
X200127732Y-242571975D01*
X200044849Y-242603790D01*
X199919713Y-242662272D01*
X199827697Y-242710845D01*
X199780371Y-242752986D01*
X199766458Y-242798916D01*
X199766437Y-242801189D01*
X199789395Y-242880311D01*
X199857370Y-242923055D01*
X199961398Y-242929246D01*
X200036330Y-242928172D01*
X200075839Y-242949753D01*
X200100478Y-243001591D01*
X200114659Y-243067632D01*
X200094223Y-243105104D01*
X200086528Y-243110467D01*
X200014083Y-243132006D01*
X199912633Y-243135055D01*
X199808157Y-243120778D01*
X199734125Y-243094688D01*
X199631772Y-243007785D01*
X199573591Y-242886816D01*
X199562069Y-242792308D01*
X199570862Y-242707062D01*
X199602680Y-242637476D01*
X199665684Y-242575672D01*
X199768031Y-242513772D01*
X199917882Y-242443897D01*
X199927012Y-242439948D01*
X200061997Y-242377588D01*
X200145294Y-242326446D01*
X200180997Y-242280488D01*
X200173203Y-242233683D01*
X200126007Y-242179998D01*
X200111894Y-242167644D01*
X200017359Y-242119741D01*
X199919406Y-242121758D01*
X199834097Y-242168724D01*
X199777496Y-242255669D01*
X199772237Y-242272734D01*
X199721023Y-242355504D01*
X199656037Y-242395372D01*
X199562069Y-242434882D01*
X199562069Y-242332658D01*
X199590653Y-242184072D01*
X199675495Y-242047784D01*
X199719645Y-242002191D01*
X199820005Y-241943674D01*
X199947635Y-241917184D01*
X200079944Y-241924360D01*
G36*
X200079944Y-241924360D02*
G01*
X200194343Y-241966842D01*
X200195652Y-241967658D01*
X200266403Y-242019730D01*
X200318636Y-242080584D01*
X200355371Y-242159887D01*
X200379634Y-242267309D01*
X200394445Y-242412517D01*
X200402829Y-242605179D01*
X200403564Y-242632628D01*
X200414120Y-243046521D01*
X200325291Y-243092456D01*
X200261018Y-243123498D01*
X200222210Y-243138206D01*
X200220415Y-243138391D01*
X200213700Y-243111250D01*
X200208365Y-243038041D01*
X200205083Y-242931081D01*
X200204368Y-242844469D01*
X200204351Y-242704162D01*
X200197937Y-242616051D01*
X200175580Y-242574025D01*
X200127732Y-242571975D01*
X200044849Y-242603790D01*
X199919713Y-242662272D01*
X199827697Y-242710845D01*
X199780371Y-242752986D01*
X199766458Y-242798916D01*
X199766437Y-242801189D01*
X199789395Y-242880311D01*
X199857370Y-242923055D01*
X199961398Y-242929246D01*
X200036330Y-242928172D01*
X200075839Y-242949753D01*
X200100478Y-243001591D01*
X200114659Y-243067632D01*
X200094223Y-243105104D01*
X200086528Y-243110467D01*
X200014083Y-243132006D01*
X199912633Y-243135055D01*
X199808157Y-243120778D01*
X199734125Y-243094688D01*
X199631772Y-243007785D01*
X199573591Y-242886816D01*
X199562069Y-242792308D01*
X199570862Y-242707062D01*
X199602680Y-242637476D01*
X199665684Y-242575672D01*
X199768031Y-242513772D01*
X199917882Y-242443897D01*
X199927012Y-242439948D01*
X200061997Y-242377588D01*
X200145294Y-242326446D01*
X200180997Y-242280488D01*
X200173203Y-242233683D01*
X200126007Y-242179998D01*
X200111894Y-242167644D01*
X200017359Y-242119741D01*
X199919406Y-242121758D01*
X199834097Y-242168724D01*
X199777496Y-242255669D01*
X199772237Y-242272734D01*
X199721023Y-242355504D01*
X199656037Y-242395372D01*
X199562069Y-242434882D01*
X199562069Y-242332658D01*
X199590653Y-242184072D01*
X199675495Y-242047784D01*
X199719645Y-242002191D01*
X199820005Y-241943674D01*
X199947635Y-241917184D01*
X200079944Y-241924360D01*
G37*
X195171900Y-241861903D02*
X195283450Y-241917522D01*
X195381908Y-242019931D01*
X195409023Y-242057864D01*
X195438562Y-242107500D01*
X195457728Y-242161412D01*
X195468693Y-242233364D01*
X195473629Y-242337122D01*
X195474713Y-242474101D01*
X195469818Y-242661815D01*
X195452804Y-242802758D01*
X195420177Y-242907908D01*
X195368442Y-242988243D01*
X195294104Y-243054741D01*
X195288642Y-243058678D01*
X195215380Y-243098953D01*
X195127160Y-243118880D01*
X195014962Y-243123793D01*
X194832567Y-243123793D01*
X194832491Y-243300857D01*
X194830793Y-243399470D01*
X194820450Y-243457314D01*
X194793422Y-243492006D01*
X194741668Y-243521164D01*
X194729239Y-243527121D01*
X194671077Y-243555039D01*
X194626044Y-243572672D01*
X194592559Y-243574194D01*
X194569038Y-243553781D01*
X194553900Y-243505607D01*
X194545563Y-243423846D01*
X194542444Y-243302672D01*
X194542960Y-243136260D01*
X194545529Y-242918785D01*
X194546332Y-242853736D01*
X194549222Y-242629502D01*
X194551812Y-242482821D01*
X194832414Y-242482821D01*
X194833991Y-242607326D01*
X194841000Y-242688787D01*
X194856858Y-242742515D01*
X194884981Y-242783823D01*
X194904075Y-242803971D01*
X194982135Y-242862921D01*
X195051247Y-242867720D01*
X195122560Y-242819038D01*
X195124368Y-242817241D01*
X195153383Y-242779618D01*
X195171033Y-242728484D01*
X195179936Y-242649738D01*
X195182709Y-242529276D01*
X195182759Y-242502588D01*
X195176058Y-242336583D01*
X195154248Y-242221505D01*
X195114765Y-242151254D01*
X195055044Y-242119729D01*
X195020528Y-242116552D01*
X194938611Y-242131460D01*
X194882421Y-242180548D01*
X194848598Y-242270362D01*
X194833780Y-242407445D01*
X194832414Y-242482821D01*
X194551812Y-242482821D01*
X194552287Y-242455952D01*
X194556247Y-242325382D01*
X194561826Y-242230087D01*
X194569746Y-242162364D01*
X194580731Y-242114507D01*
X194595501Y-242078813D01*
X194614782Y-242047578D01*
X194623049Y-242035824D01*
X194732712Y-241924797D01*
X194871365Y-241861847D01*
X195031754Y-241844297D01*
X195171900Y-241861903D01*
G36*
X195171900Y-241861903D02*
G01*
X195283450Y-241917522D01*
X195381908Y-242019931D01*
X195409023Y-242057864D01*
X195438562Y-242107500D01*
X195457728Y-242161412D01*
X195468693Y-242233364D01*
X195473629Y-242337122D01*
X195474713Y-242474101D01*
X195469818Y-242661815D01*
X195452804Y-242802758D01*
X195420177Y-242907908D01*
X195368442Y-242988243D01*
X195294104Y-243054741D01*
X195288642Y-243058678D01*
X195215380Y-243098953D01*
X195127160Y-243118880D01*
X195014962Y-243123793D01*
X194832567Y-243123793D01*
X194832491Y-243300857D01*
X194830793Y-243399470D01*
X194820450Y-243457314D01*
X194793422Y-243492006D01*
X194741668Y-243521164D01*
X194729239Y-243527121D01*
X194671077Y-243555039D01*
X194626044Y-243572672D01*
X194592559Y-243574194D01*
X194569038Y-243553781D01*
X194553900Y-243505607D01*
X194545563Y-243423846D01*
X194542444Y-243302672D01*
X194542960Y-243136260D01*
X194545529Y-242918785D01*
X194546332Y-242853736D01*
X194549222Y-242629502D01*
X194551812Y-242482821D01*
X194832414Y-242482821D01*
X194833991Y-242607326D01*
X194841000Y-242688787D01*
X194856858Y-242742515D01*
X194884981Y-242783823D01*
X194904075Y-242803971D01*
X194982135Y-242862921D01*
X195051247Y-242867720D01*
X195122560Y-242819038D01*
X195124368Y-242817241D01*
X195153383Y-242779618D01*
X195171033Y-242728484D01*
X195179936Y-242649738D01*
X195182709Y-242529276D01*
X195182759Y-242502588D01*
X195176058Y-242336583D01*
X195154248Y-242221505D01*
X195114765Y-242151254D01*
X195055044Y-242119729D01*
X195020528Y-242116552D01*
X194938611Y-242131460D01*
X194882421Y-242180548D01*
X194848598Y-242270362D01*
X194833780Y-242407445D01*
X194832414Y-242482821D01*
X194551812Y-242482821D01*
X194552287Y-242455952D01*
X194556247Y-242325382D01*
X194561826Y-242230087D01*
X194569746Y-242162364D01*
X194580731Y-242114507D01*
X194595501Y-242078813D01*
X194614782Y-242047578D01*
X194623049Y-242035824D01*
X194732712Y-241924797D01*
X194871365Y-241861847D01*
X195031754Y-241844297D01*
X195171900Y-241861903D01*
G37*
X204314406Y-241935156D02*
X204398469Y-241973393D01*
X204464450Y-242019726D01*
X204512794Y-242071532D01*
X204546172Y-242138363D01*
X204567253Y-242229769D01*
X204578707Y-242355301D01*
X204583203Y-242524508D01*
X204583678Y-242635933D01*
X204583678Y-243070627D01*
X204509316Y-243104509D01*
X204450746Y-243129272D01*
X204421730Y-243138391D01*
X204416179Y-243111257D01*
X204411775Y-243038094D01*
X204409078Y-242931263D01*
X204408506Y-242846437D01*
X204406046Y-242723887D01*
X204399412Y-242626668D01*
X204389726Y-242567134D01*
X204382032Y-242554483D01*
X204330311Y-242567402D01*
X204249117Y-242600539D01*
X204155102Y-242645461D01*
X204064917Y-242693735D01*
X203995215Y-242736928D01*
X203962648Y-242766608D01*
X203962519Y-242766929D01*
X203965320Y-242821857D01*
X203990439Y-242874292D01*
X204034541Y-242916881D01*
X204098909Y-242931126D01*
X204153921Y-242929466D01*
X204231835Y-242928245D01*
X204272732Y-242946498D01*
X204297295Y-242994726D01*
X204300392Y-243003820D01*
X204311040Y-243072598D01*
X204282565Y-243114360D01*
X204208344Y-243134263D01*
X204128168Y-243137944D01*
X203983890Y-243110658D01*
X203909203Y-243071690D01*
X203816963Y-242980148D01*
X203768043Y-242867782D01*
X203763654Y-242749051D01*
X203805001Y-242638411D01*
X203867197Y-242569080D01*
X203929294Y-242530265D01*
X204026895Y-242481125D01*
X204140632Y-242431292D01*
X204159590Y-242423677D01*
X204284521Y-242368545D01*
X204356539Y-242319954D01*
X204379700Y-242271647D01*
X204358064Y-242217370D01*
X204320920Y-242174943D01*
X204233127Y-242122702D01*
X204136530Y-242118784D01*
X204047944Y-242159041D01*
X203984186Y-242239326D01*
X203975817Y-242260040D01*
X203927096Y-242336225D01*
X203855965Y-242392785D01*
X203766207Y-242439201D01*
X203766207Y-242307584D01*
X203771490Y-242227168D01*
X203794142Y-242163786D01*
X203844367Y-242096163D01*
X203892582Y-242044076D01*
X203967554Y-241970322D01*
X204025806Y-241930702D01*
X204088372Y-241914810D01*
X204159193Y-241912184D01*
X204314406Y-241935156D01*
G36*
X204314406Y-241935156D02*
G01*
X204398469Y-241973393D01*
X204464450Y-242019726D01*
X204512794Y-242071532D01*
X204546172Y-242138363D01*
X204567253Y-242229769D01*
X204578707Y-242355301D01*
X204583203Y-242524508D01*
X204583678Y-242635933D01*
X204583678Y-243070627D01*
X204509316Y-243104509D01*
X204450746Y-243129272D01*
X204421730Y-243138391D01*
X204416179Y-243111257D01*
X204411775Y-243038094D01*
X204409078Y-242931263D01*
X204408506Y-242846437D01*
X204406046Y-242723887D01*
X204399412Y-242626668D01*
X204389726Y-242567134D01*
X204382032Y-242554483D01*
X204330311Y-242567402D01*
X204249117Y-242600539D01*
X204155102Y-242645461D01*
X204064917Y-242693735D01*
X203995215Y-242736928D01*
X203962648Y-242766608D01*
X203962519Y-242766929D01*
X203965320Y-242821857D01*
X203990439Y-242874292D01*
X204034541Y-242916881D01*
X204098909Y-242931126D01*
X204153921Y-242929466D01*
X204231835Y-242928245D01*
X204272732Y-242946498D01*
X204297295Y-242994726D01*
X204300392Y-243003820D01*
X204311040Y-243072598D01*
X204282565Y-243114360D01*
X204208344Y-243134263D01*
X204128168Y-243137944D01*
X203983890Y-243110658D01*
X203909203Y-243071690D01*
X203816963Y-242980148D01*
X203768043Y-242867782D01*
X203763654Y-242749051D01*
X203805001Y-242638411D01*
X203867197Y-242569080D01*
X203929294Y-242530265D01*
X204026895Y-242481125D01*
X204140632Y-242431292D01*
X204159590Y-242423677D01*
X204284521Y-242368545D01*
X204356539Y-242319954D01*
X204379700Y-242271647D01*
X204358064Y-242217370D01*
X204320920Y-242174943D01*
X204233127Y-242122702D01*
X204136530Y-242118784D01*
X204047944Y-242159041D01*
X203984186Y-242239326D01*
X203975817Y-242260040D01*
X203927096Y-242336225D01*
X203855965Y-242392785D01*
X203766207Y-242439201D01*
X203766207Y-242307584D01*
X203771490Y-242227168D01*
X203794142Y-242163786D01*
X203844367Y-242096163D01*
X203892582Y-242044076D01*
X203967554Y-241970322D01*
X204025806Y-241930702D01*
X204088372Y-241914810D01*
X204159193Y-241912184D01*
X204314406Y-241935156D01*
G37*
X200209014Y-232452998D02*
X200367006Y-232453863D01*
X200481347Y-232456205D01*
X200559407Y-232460762D01*
X200608554Y-232468270D01*
X200636159Y-232479466D01*
X200649592Y-232495088D01*
X200656221Y-232515873D01*
X200656865Y-232518563D01*
X200666935Y-232567113D01*
X200685575Y-232662905D01*
X200710845Y-232795743D01*
X200740807Y-232955431D01*
X200773522Y-233131774D01*
X200774664Y-233137967D01*
X200807433Y-233310782D01*
X200838093Y-233463469D01*
X200864664Y-233586871D01*
X200885167Y-233671831D01*
X200897626Y-233709190D01*
X200898220Y-233709852D01*
X200934919Y-233728095D01*
X201010586Y-233758497D01*
X201108878Y-233794493D01*
X201109425Y-233794685D01*
X201233233Y-233841222D01*
X201379196Y-233900504D01*
X201516781Y-233960109D01*
X201523293Y-233963056D01*
X201747390Y-234064765D01*
X202243619Y-233725897D01*
X202395846Y-233622592D01*
X202533741Y-233530237D01*
X202649315Y-233454084D01*
X202734579Y-233399385D01*
X202781544Y-233371393D01*
X202786004Y-233369317D01*
X202820134Y-233378560D01*
X202883881Y-233423156D01*
X202979731Y-233505209D01*
X203110169Y-233626821D01*
X203243328Y-233756205D01*
X203371694Y-233883702D01*
X203486581Y-234000046D01*
X203581073Y-234098052D01*
X203648253Y-234170536D01*
X203681206Y-234210313D01*
X203682432Y-234212361D01*
X203686074Y-234239656D01*
X203672350Y-234284234D01*
X203637869Y-234352112D01*
X203579239Y-234449311D01*
X203493070Y-234581851D01*
X203378200Y-234752476D01*
X203276254Y-234902655D01*
X203185123Y-235037350D01*
X203110073Y-235148740D01*
X203056369Y-235229005D01*
X203029280Y-235270325D01*
X203027574Y-235273130D01*
X203030882Y-235312721D01*
X203055953Y-235389669D01*
X203097798Y-235489432D01*
X203112712Y-235521291D01*
X203177786Y-235663226D01*
X203247212Y-235824273D01*
X203303609Y-235963621D01*
X203344247Y-236067044D01*
X203376526Y-236145642D01*
X203395178Y-236186720D01*
X203397497Y-236189885D01*
X203431803Y-236195128D01*
X203512669Y-236209494D01*
X203629343Y-236230937D01*
X203771075Y-236257413D01*
X203927110Y-236286877D01*
X204086698Y-236317283D01*
X204239085Y-236346588D01*
X204373521Y-236372745D01*
X204479252Y-236393710D01*
X204545526Y-236407439D01*
X204561782Y-236411320D01*
X204578573Y-236420900D01*
X204591249Y-236442536D01*
X204600378Y-236483531D01*
X204606531Y-236551189D01*
X204610280Y-236652812D01*
X204612192Y-236795703D01*
X204612840Y-236987165D01*
X204612874Y-237065645D01*
X204612874Y-237703906D01*
X204459598Y-237734160D01*
X204374322Y-237750564D01*
X204247070Y-237774509D01*
X204093315Y-237803107D01*
X203928534Y-237833467D01*
X203882989Y-237841806D01*
X203730932Y-237871370D01*
X203598468Y-237900442D01*
X203496714Y-237926329D01*
X203436788Y-237946337D01*
X203426805Y-237952301D01*
X203402293Y-237994534D01*
X203367148Y-238076370D01*
X203328173Y-238181683D01*
X203320442Y-238204368D01*
X203269360Y-238345018D01*
X203205954Y-238503714D01*
X203143904Y-238646225D01*
X203143598Y-238646886D01*
X203040267Y-238870440D01*
X203719961Y-239870232D01*
X203283621Y-240307300D01*
X203151649Y-240437381D01*
X203031279Y-240552048D01*
X202929273Y-240645181D01*
X202852391Y-240710658D01*
X202807393Y-240742357D01*
X202800938Y-240744368D01*
X202763040Y-240728529D01*
X202685708Y-240684496D01*
X202577389Y-240617490D01*
X202446532Y-240532734D01*
X202305052Y-240437816D01*
X202161461Y-240340998D01*
X202033435Y-240256751D01*
X201929105Y-240190258D01*
X201856600Y-240146702D01*
X201824158Y-240131264D01*
X201784576Y-240144328D01*
X201709519Y-240178750D01*
X201614468Y-240227380D01*
X201604392Y-240232785D01*
X201476391Y-240296980D01*
X201388618Y-240328463D01*
X201334028Y-240328798D01*
X201305575Y-240299548D01*
X201305410Y-240299138D01*
X201291188Y-240264498D01*
X201257269Y-240182269D01*
X201206284Y-240058814D01*
X201140862Y-239900498D01*
X201063634Y-239713686D01*
X200977229Y-239504742D01*
X200893551Y-239302446D01*
X200801588Y-239079200D01*
X200717150Y-238872392D01*
X200642769Y-238688362D01*
X200580974Y-238533451D01*
X200534297Y-238413996D01*
X200505268Y-238336339D01*
X200496322Y-238307356D01*
X200518756Y-238274110D01*
X200577439Y-238221123D01*
X200655689Y-238162704D01*
X200878534Y-237977952D01*
X201052718Y-237766182D01*
X201176154Y-237531856D01*
X201246754Y-237279434D01*
X201262431Y-237013377D01*
X201251036Y-236890575D01*
X201188950Y-236635793D01*
X201082023Y-236410801D01*
X200936889Y-236217817D01*
X200760178Y-236059061D01*
X200558522Y-235936750D01*
X200338554Y-235853105D01*
X200106906Y-235810344D01*
X199870209Y-235810687D01*
X199635095Y-235856352D01*
X199408196Y-235949559D01*
X199196144Y-236092527D01*
X199107636Y-236173383D01*
X198937889Y-236381007D01*
X198819699Y-236607895D01*
X198752278Y-236847433D01*
X198734840Y-237093007D01*
X198766598Y-237338003D01*
X198846765Y-237575808D01*
X198974555Y-237799807D01*
X199149180Y-238003387D01*
X199344312Y-238162704D01*
X199425591Y-238223602D01*
X199483009Y-238276015D01*
X199503678Y-238307406D01*
X199492856Y-238341639D01*
X199462077Y-238423419D01*
X199413874Y-238546407D01*
X199350778Y-238704263D01*
X199275322Y-238890649D01*
X199190038Y-239099226D01*
X199106219Y-239302496D01*
X199013745Y-239525933D01*
X198928089Y-239732984D01*
X198851882Y-239917286D01*
X198787753Y-240072475D01*
X198738332Y-240192188D01*
X198706248Y-240270061D01*
X198694359Y-240299138D01*
X198666274Y-240328677D01*
X198611949Y-240328591D01*
X198524395Y-240297326D01*
X198396619Y-240233329D01*
X198395608Y-240232785D01*
X198299402Y-240183121D01*
X198221631Y-240146945D01*
X198177777Y-240131408D01*
X198175842Y-240131264D01*
X198142829Y-240147024D01*
X198069946Y-240190850D01*
X197965322Y-240257557D01*
X197837090Y-240341964D01*
X197694948Y-240437816D01*
X197550233Y-240534867D01*
X197419804Y-240619270D01*
X197312110Y-240685801D01*
X197235598Y-240729238D01*
X197199062Y-240744368D01*
X197165418Y-240724482D01*
X197097776Y-240668903D01*
X197002893Y-240583754D01*
X196887530Y-240475153D01*
X196758445Y-240349221D01*
X196716229Y-240307149D01*
X196279739Y-239869931D01*
X196611977Y-239382340D01*
X196712946Y-239232605D01*
X196801562Y-239098220D01*
X196872854Y-238986969D01*
X196921850Y-238906639D01*
X196943578Y-238865014D01*
X196944215Y-238862053D01*
X196932760Y-238822818D01*
X196901949Y-238743895D01*
X196857116Y-238638509D01*
X196825647Y-238567954D01*
X196766808Y-238432876D01*
X196711396Y-238296409D01*
X196668436Y-238181103D01*
X196656766Y-238145977D01*
X196623611Y-238052174D01*
X196591201Y-237979694D01*
X196573399Y-237952301D01*
X196534114Y-237935536D01*
X196448374Y-237911770D01*
X196327303Y-237883697D01*
X196182027Y-237854009D01*
X196117012Y-237841806D01*
X195951913Y-237811468D01*
X195793552Y-237782093D01*
X195657404Y-237756569D01*
X195558943Y-237737785D01*
X195540402Y-237734160D01*
X195387127Y-237703906D01*
X195387127Y-237065645D01*
X195387471Y-236855770D01*
X195388884Y-236696980D01*
X195391936Y-236581973D01*
X195397197Y-236503446D01*
X195405237Y-236454096D01*
X195416627Y-236426619D01*
X195431937Y-236413713D01*
X195438218Y-236411320D01*
X195476104Y-236402833D01*
X195559805Y-236385900D01*
X195678567Y-236362566D01*
X195821639Y-236334875D01*
X195978268Y-236304873D01*
X196137703Y-236274604D01*
X196289191Y-236246115D01*
X196421981Y-236221449D01*
X196525319Y-236202651D01*
X196588455Y-236191767D01*
X196602503Y-236189885D01*
X196615230Y-236164704D01*
X196643400Y-236097622D01*
X196681748Y-236001333D01*
X196696391Y-235963621D01*
X196755452Y-235817921D01*
X196825000Y-235656951D01*
X196887288Y-235521291D01*
X196933121Y-235417561D01*
X196963613Y-235332326D01*
X196973792Y-235280126D01*
X196972169Y-235273130D01*
X196950657Y-235240102D01*
X196901535Y-235166643D01*
X196830077Y-235060577D01*
X196741555Y-234929726D01*
X196641241Y-234781912D01*
X196621406Y-234752734D01*
X196505012Y-234579863D01*
X196419452Y-234448226D01*
X196361316Y-234351761D01*
X196327192Y-234284408D01*
X196313669Y-234240106D01*
X196317336Y-234212794D01*
X196317430Y-234212620D01*
X196346293Y-234176746D01*
X196410133Y-234107391D01*
X196502031Y-234011745D01*
X196615067Y-233896999D01*
X196742321Y-233770341D01*
X196756672Y-233756205D01*
X196917043Y-233600903D01*
X197040805Y-233486870D01*
X197130445Y-233412002D01*
X197188448Y-233374196D01*
X197213996Y-233369317D01*
X197251282Y-233390603D01*
X197328657Y-233439773D01*
X197438133Y-233511575D01*
X197571720Y-233600755D01*
X197721430Y-233702063D01*
X197756382Y-233725897D01*
X198252610Y-234064765D01*
X198476707Y-233963056D01*
X198612989Y-233903783D01*
X198759276Y-233844170D01*
X198885035Y-233796640D01*
X198890575Y-233794685D01*
X198988943Y-233758677D01*
X199064771Y-233728229D01*
X199101718Y-233709905D01*
X199101780Y-233709852D01*
X199113504Y-233676729D01*
X199133432Y-233595267D01*
X199159587Y-233474625D01*
X199189990Y-233323959D01*
X199222663Y-233152428D01*
X199225336Y-233137967D01*
X199258110Y-232961235D01*
X199288198Y-232800810D01*
X199313661Y-232666888D01*
X199332559Y-232569663D01*
X199342953Y-232519332D01*
X199343135Y-232518563D01*
X199349461Y-232497153D01*
X199361761Y-232480988D01*
X199387406Y-232469331D01*
X199433765Y-232461445D01*
X199508208Y-232456593D01*
X199618105Y-232454039D01*
X199770825Y-232453045D01*
X199973738Y-232452874D01*
X200000000Y-232452874D01*
X200209014Y-232452998D01*
G36*
X200209014Y-232452998D02*
G01*
X200367006Y-232453863D01*
X200481347Y-232456205D01*
X200559407Y-232460762D01*
X200608554Y-232468270D01*
X200636159Y-232479466D01*
X200649592Y-232495088D01*
X200656221Y-232515873D01*
X200656865Y-232518563D01*
X200666935Y-232567113D01*
X200685575Y-232662905D01*
X200710845Y-232795743D01*
X200740807Y-232955431D01*
X200773522Y-233131774D01*
X200774664Y-233137967D01*
X200807433Y-233310782D01*
X200838093Y-233463469D01*
X200864664Y-233586871D01*
X200885167Y-233671831D01*
X200897626Y-233709190D01*
X200898220Y-233709852D01*
X200934919Y-233728095D01*
X201010586Y-233758497D01*
X201108878Y-233794493D01*
X201109425Y-233794685D01*
X201233233Y-233841222D01*
X201379196Y-233900504D01*
X201516781Y-233960109D01*
X201523293Y-233963056D01*
X201747390Y-234064765D01*
X202243619Y-233725897D01*
X202395846Y-233622592D01*
X202533741Y-233530237D01*
X202649315Y-233454084D01*
X202734579Y-233399385D01*
X202781544Y-233371393D01*
X202786004Y-233369317D01*
X202820134Y-233378560D01*
X202883881Y-233423156D01*
X202979731Y-233505209D01*
X203110169Y-233626821D01*
X203243328Y-233756205D01*
X203371694Y-233883702D01*
X203486581Y-234000046D01*
X203581073Y-234098052D01*
X203648253Y-234170536D01*
X203681206Y-234210313D01*
X203682432Y-234212361D01*
X203686074Y-234239656D01*
X203672350Y-234284234D01*
X203637869Y-234352112D01*
X203579239Y-234449311D01*
X203493070Y-234581851D01*
X203378200Y-234752476D01*
X203276254Y-234902655D01*
X203185123Y-235037350D01*
X203110073Y-235148740D01*
X203056369Y-235229005D01*
X203029280Y-235270325D01*
X203027574Y-235273130D01*
X203030882Y-235312721D01*
X203055953Y-235389669D01*
X203097798Y-235489432D01*
X203112712Y-235521291D01*
X203177786Y-235663226D01*
X203247212Y-235824273D01*
X203303609Y-235963621D01*
X203344247Y-236067044D01*
X203376526Y-236145642D01*
X203395178Y-236186720D01*
X203397497Y-236189885D01*
X203431803Y-236195128D01*
X203512669Y-236209494D01*
X203629343Y-236230937D01*
X203771075Y-236257413D01*
X203927110Y-236286877D01*
X204086698Y-236317283D01*
X204239085Y-236346588D01*
X204373521Y-236372745D01*
X204479252Y-236393710D01*
X204545526Y-236407439D01*
X204561782Y-236411320D01*
X204578573Y-236420900D01*
X204591249Y-236442536D01*
X204600378Y-236483531D01*
X204606531Y-236551189D01*
X204610280Y-236652812D01*
X204612192Y-236795703D01*
X204612840Y-236987165D01*
X204612874Y-237065645D01*
X204612874Y-237703906D01*
X204459598Y-237734160D01*
X204374322Y-237750564D01*
X204247070Y-237774509D01*
X204093315Y-237803107D01*
X203928534Y-237833467D01*
X203882989Y-237841806D01*
X203730932Y-237871370D01*
X203598468Y-237900442D01*
X203496714Y-237926329D01*
X203436788Y-237946337D01*
X203426805Y-237952301D01*
X203402293Y-237994534D01*
X203367148Y-238076370D01*
X203328173Y-238181683D01*
X203320442Y-238204368D01*
X203269360Y-238345018D01*
X203205954Y-238503714D01*
X203143904Y-238646225D01*
X203143598Y-238646886D01*
X203040267Y-238870440D01*
X203719961Y-239870232D01*
X203283621Y-240307300D01*
X203151649Y-240437381D01*
X203031279Y-240552048D01*
X202929273Y-240645181D01*
X202852391Y-240710658D01*
X202807393Y-240742357D01*
X202800938Y-240744368D01*
X202763040Y-240728529D01*
X202685708Y-240684496D01*
X202577389Y-240617490D01*
X202446532Y-240532734D01*
X202305052Y-240437816D01*
X202161461Y-240340998D01*
X202033435Y-240256751D01*
X201929105Y-240190258D01*
X201856600Y-240146702D01*
X201824158Y-240131264D01*
X201784576Y-240144328D01*
X201709519Y-240178750D01*
X201614468Y-240227380D01*
X201604392Y-240232785D01*
X201476391Y-240296980D01*
X201388618Y-240328463D01*
X201334028Y-240328798D01*
X201305575Y-240299548D01*
X201305410Y-240299138D01*
X201291188Y-240264498D01*
X201257269Y-240182269D01*
X201206284Y-240058814D01*
X201140862Y-239900498D01*
X201063634Y-239713686D01*
X200977229Y-239504742D01*
X200893551Y-239302446D01*
X200801588Y-239079200D01*
X200717150Y-238872392D01*
X200642769Y-238688362D01*
X200580974Y-238533451D01*
X200534297Y-238413996D01*
X200505268Y-238336339D01*
X200496322Y-238307356D01*
X200518756Y-238274110D01*
X200577439Y-238221123D01*
X200655689Y-238162704D01*
X200878534Y-237977952D01*
X201052718Y-237766182D01*
X201176154Y-237531856D01*
X201246754Y-237279434D01*
X201262431Y-237013377D01*
X201251036Y-236890575D01*
X201188950Y-236635793D01*
X201082023Y-236410801D01*
X200936889Y-236217817D01*
X200760178Y-236059061D01*
X200558522Y-235936750D01*
X200338554Y-235853105D01*
X200106906Y-235810344D01*
X199870209Y-235810687D01*
X199635095Y-235856352D01*
X199408196Y-235949559D01*
X199196144Y-236092527D01*
X199107636Y-236173383D01*
X198937889Y-236381007D01*
X198819699Y-236607895D01*
X198752278Y-236847433D01*
X198734840Y-237093007D01*
X198766598Y-237338003D01*
X198846765Y-237575808D01*
X198974555Y-237799807D01*
X199149180Y-238003387D01*
X199344312Y-238162704D01*
X199425591Y-238223602D01*
X199483009Y-238276015D01*
X199503678Y-238307406D01*
X199492856Y-238341639D01*
X199462077Y-238423419D01*
X199413874Y-238546407D01*
X199350778Y-238704263D01*
X199275322Y-238890649D01*
X199190038Y-239099226D01*
X199106219Y-239302496D01*
X199013745Y-239525933D01*
X198928089Y-239732984D01*
X198851882Y-239917286D01*
X198787753Y-240072475D01*
X198738332Y-240192188D01*
X198706248Y-240270061D01*
X198694359Y-240299138D01*
X198666274Y-240328677D01*
X198611949Y-240328591D01*
X198524395Y-240297326D01*
X198396619Y-240233329D01*
X198395608Y-240232785D01*
X198299402Y-240183121D01*
X198221631Y-240146945D01*
X198177777Y-240131408D01*
X198175842Y-240131264D01*
X198142829Y-240147024D01*
X198069946Y-240190850D01*
X197965322Y-240257557D01*
X197837090Y-240341964D01*
X197694948Y-240437816D01*
X197550233Y-240534867D01*
X197419804Y-240619270D01*
X197312110Y-240685801D01*
X197235598Y-240729238D01*
X197199062Y-240744368D01*
X197165418Y-240724482D01*
X197097776Y-240668903D01*
X197002893Y-240583754D01*
X196887530Y-240475153D01*
X196758445Y-240349221D01*
X196716229Y-240307149D01*
X196279739Y-239869931D01*
X196611977Y-239382340D01*
X196712946Y-239232605D01*
X196801562Y-239098220D01*
X196872854Y-238986969D01*
X196921850Y-238906639D01*
X196943578Y-238865014D01*
X196944215Y-238862053D01*
X196932760Y-238822818D01*
X196901949Y-238743895D01*
X196857116Y-238638509D01*
X196825647Y-238567954D01*
X196766808Y-238432876D01*
X196711396Y-238296409D01*
X196668436Y-238181103D01*
X196656766Y-238145977D01*
X196623611Y-238052174D01*
X196591201Y-237979694D01*
X196573399Y-237952301D01*
X196534114Y-237935536D01*
X196448374Y-237911770D01*
X196327303Y-237883697D01*
X196182027Y-237854009D01*
X196117012Y-237841806D01*
X195951913Y-237811468D01*
X195793552Y-237782093D01*
X195657404Y-237756569D01*
X195558943Y-237737785D01*
X195540402Y-237734160D01*
X195387127Y-237703906D01*
X195387127Y-237065645D01*
X195387471Y-236855770D01*
X195388884Y-236696980D01*
X195391936Y-236581973D01*
X195397197Y-236503446D01*
X195405237Y-236454096D01*
X195416627Y-236426619D01*
X195431937Y-236413713D01*
X195438218Y-236411320D01*
X195476104Y-236402833D01*
X195559805Y-236385900D01*
X195678567Y-236362566D01*
X195821639Y-236334875D01*
X195978268Y-236304873D01*
X196137703Y-236274604D01*
X196289191Y-236246115D01*
X196421981Y-236221449D01*
X196525319Y-236202651D01*
X196588455Y-236191767D01*
X196602503Y-236189885D01*
X196615230Y-236164704D01*
X196643400Y-236097622D01*
X196681748Y-236001333D01*
X196696391Y-235963621D01*
X196755452Y-235817921D01*
X196825000Y-235656951D01*
X196887288Y-235521291D01*
X196933121Y-235417561D01*
X196963613Y-235332326D01*
X196973792Y-235280126D01*
X196972169Y-235273130D01*
X196950657Y-235240102D01*
X196901535Y-235166643D01*
X196830077Y-235060577D01*
X196741555Y-234929726D01*
X196641241Y-234781912D01*
X196621406Y-234752734D01*
X196505012Y-234579863D01*
X196419452Y-234448226D01*
X196361316Y-234351761D01*
X196327192Y-234284408D01*
X196313669Y-234240106D01*
X196317336Y-234212794D01*
X196317430Y-234212620D01*
X196346293Y-234176746D01*
X196410133Y-234107391D01*
X196502031Y-234011745D01*
X196615067Y-233896999D01*
X196742321Y-233770341D01*
X196756672Y-233756205D01*
X196917043Y-233600903D01*
X197040805Y-233486870D01*
X197130445Y-233412002D01*
X197188448Y-233374196D01*
X197213996Y-233369317D01*
X197251282Y-233390603D01*
X197328657Y-233439773D01*
X197438133Y-233511575D01*
X197571720Y-233600755D01*
X197721430Y-233702063D01*
X197756382Y-233725897D01*
X198252610Y-234064765D01*
X198476707Y-233963056D01*
X198612989Y-233903783D01*
X198759276Y-233844170D01*
X198885035Y-233796640D01*
X198890575Y-233794685D01*
X198988943Y-233758677D01*
X199064771Y-233728229D01*
X199101718Y-233709905D01*
X199101780Y-233709852D01*
X199113504Y-233676729D01*
X199133432Y-233595267D01*
X199159587Y-233474625D01*
X199189990Y-233323959D01*
X199222663Y-233152428D01*
X199225336Y-233137967D01*
X199258110Y-232961235D01*
X199288198Y-232800810D01*
X199313661Y-232666888D01*
X199332559Y-232569663D01*
X199342953Y-232519332D01*
X199343135Y-232518563D01*
X199349461Y-232497153D01*
X199361761Y-232480988D01*
X199387406Y-232469331D01*
X199433765Y-232461445D01*
X199508208Y-232456593D01*
X199618105Y-232454039D01*
X199770825Y-232453045D01*
X199973738Y-232452874D01*
X200000000Y-232452874D01*
X200209014Y-232452998D01*
G37*
D13*
%TO.C,C35*%
X163689420Y-226312000D02*
X163970580Y-226312000D01*
X163689420Y-227332000D02*
X163970580Y-227332000D01*
%TO.C,C18*%
X171302000Y-62736252D02*
X171302000Y-61313748D01*
X173122000Y-62736252D02*
X173122000Y-61313748D01*
%TO.C,C33*%
X178160000Y-68021252D02*
X178160000Y-66598748D01*
X179980000Y-68021252D02*
X179980000Y-66598748D01*
D14*
%TO.C,U2*%
X146138900Y-57569100D02*
X141897100Y-57569100D01*
X141897100Y-62826900D02*
X146138900Y-62826900D01*
D13*
%TO.C,L3*%
X181874000Y-75244000D02*
X176774000Y-75244000D01*
X181874000Y-70044000D02*
X176774000Y-70044000D01*
%TO.C,C17*%
X163689420Y-191006000D02*
X163970580Y-191006000D01*
X163689420Y-192026000D02*
X163970580Y-192026000D01*
%TO.C,U26*%
X183932000Y-67056000D02*
X183932000Y-65256000D01*
X183932000Y-67056000D02*
X183932000Y-67856000D01*
X180812000Y-67056000D02*
X180812000Y-66256000D01*
X180812000Y-67056000D02*
X180812000Y-67856000D01*
%TO.C,C14*%
X157784748Y-70464000D02*
X159207252Y-70464000D01*
X157784748Y-72284000D02*
X159207252Y-72284000D01*
%TO.C,C34*%
X163689420Y-179322000D02*
X163970580Y-179322000D01*
X163689420Y-180342000D02*
X163970580Y-180342000D01*
%TO.C,C1*%
X194670000Y-56845252D02*
X194670000Y-55422748D01*
X196490000Y-56845252D02*
X196490000Y-55422748D01*
D14*
%TO.C,U23*%
X162140900Y-67906900D02*
X162140900Y-63665100D01*
X156883100Y-63665100D02*
X156883100Y-67906900D01*
D13*
%TO.C,C24*%
X163689420Y-132332000D02*
X163970580Y-132332000D01*
X163689420Y-133352000D02*
X163970580Y-133352000D01*
%TO.C,R5*%
X166099258Y-64325500D02*
X165624742Y-64325500D01*
X166099258Y-63280500D02*
X165624742Y-63280500D01*
%TO.C,C29*%
X181970000Y-62941252D02*
X181970000Y-61518748D01*
X183790000Y-62941252D02*
X183790000Y-61518748D01*
%TO.C,C23*%
X163689420Y-144016000D02*
X163970580Y-144016000D01*
X163689420Y-145036000D02*
X163970580Y-145036000D01*
%TO.C,L1*%
X152206000Y-67046000D02*
X152206000Y-72146000D01*
X147006000Y-67046000D02*
X147006000Y-72146000D01*
%TO.C,C15*%
X162308000Y-70979420D02*
X162308000Y-71260580D01*
X161288000Y-70979420D02*
X161288000Y-71260580D01*
%TD*%
M02*
