%TF.GenerationSoftware,KiCad,Pcbnew,7.0.7*%
%TF.CreationDate,2023-10-22T19:03:09-04:00*%
%TF.ProjectId,Motion controller MiYR interface,4d6f7469-6f6e-4206-936f-6e74726f6c6c,rev?*%
%TF.SameCoordinates,Original*%
%TF.FileFunction,Paste,Bot*%
%TF.FilePolarity,Positive*%
%FSLAX46Y46*%
G04 Gerber Fmt 4.6, Leading zero omitted, Abs format (unit mm)*
G04 Created by KiCad (PCBNEW 7.0.7) date 2023-10-22 19:03:09*
%MOMM*%
%LPD*%
G01*
G04 APERTURE LIST*
%ADD10R,0.600000X0.420000*%
%ADD11O,0.600000X0.420000*%
%ADD12R,0.500000X2.000000*%
%ADD13R,3.000000X5.200000*%
%ADD14R,3.000000X5.000000*%
G04 APERTURE END LIST*
D10*
%TO.C,U15*%
X172838001Y-177398001D03*
D11*
X172838001Y-178048000D03*
X172838001Y-178697999D03*
X170937999Y-178697999D03*
X170937999Y-178048000D03*
X170937999Y-177398001D03*
%TD*%
D10*
%TO.C,U32*%
X164710001Y-239628001D03*
D11*
X164710001Y-240278000D03*
X164710001Y-240927999D03*
X162809999Y-240927999D03*
X162809999Y-240278000D03*
X162809999Y-239628001D03*
%TD*%
D12*
%TO.C,J1*%
X187894000Y-88050000D03*
X186894000Y-88050000D03*
X185894000Y-88050000D03*
X184894000Y-88050000D03*
X183894000Y-88050000D03*
X182894000Y-88050000D03*
X181894000Y-88050000D03*
X180894000Y-88050000D03*
X179894000Y-88050000D03*
X178894000Y-88050000D03*
X177894000Y-88050000D03*
X174894000Y-88050000D03*
X173894000Y-88050000D03*
X172894000Y-88050000D03*
X171894000Y-88050000D03*
X170894000Y-88050000D03*
X169894000Y-88050000D03*
X168894000Y-88050000D03*
X167894000Y-88050000D03*
X166894000Y-88050000D03*
X165894000Y-88050000D03*
X164894000Y-88050000D03*
X163894000Y-88050000D03*
X162894000Y-88050000D03*
X161894000Y-88050000D03*
X160894000Y-88050000D03*
X159894000Y-88050000D03*
X158894000Y-88050000D03*
X157894000Y-88050000D03*
X156894000Y-88050000D03*
X155894000Y-88050000D03*
X154894000Y-88050000D03*
X187894000Y-95250000D03*
X186894000Y-95250000D03*
X185894000Y-95250000D03*
X184894000Y-95250000D03*
X183894000Y-95250000D03*
X182894000Y-95250000D03*
X181894000Y-95250000D03*
X180894000Y-95250000D03*
X179894000Y-95250000D03*
X178894000Y-95250000D03*
X177894000Y-95250000D03*
X174894000Y-95250000D03*
X173894000Y-95250000D03*
X172894000Y-95250000D03*
X171894000Y-95250000D03*
X170894000Y-95250000D03*
X169894000Y-95250000D03*
X168894000Y-95250000D03*
X167894000Y-95250000D03*
X166894000Y-95250000D03*
X165894000Y-95250000D03*
X164894000Y-95250000D03*
X163894000Y-95250000D03*
X162894000Y-95250000D03*
X161894000Y-95250000D03*
X160894000Y-95250000D03*
X159894000Y-95250000D03*
X158894000Y-95250000D03*
X157894000Y-95250000D03*
X156894000Y-95250000D03*
X155894000Y-95250000D03*
X154894000Y-95250000D03*
D13*
X190894000Y-91650000D03*
D14*
X151894000Y-91650000D03*
%TD*%
D12*
%TO.C,J4*%
X187894000Y-229050000D03*
X186894000Y-229050000D03*
X185894000Y-229050000D03*
X184894000Y-229050000D03*
X183894000Y-229050000D03*
X182894000Y-229050000D03*
X181894000Y-229050000D03*
X180894000Y-229050000D03*
X179894000Y-229050000D03*
X178894000Y-229050000D03*
X177894000Y-229050000D03*
X174894000Y-229050000D03*
X173894000Y-229050000D03*
X172894000Y-229050000D03*
X171894000Y-229050000D03*
X170894000Y-229050000D03*
X169894000Y-229050000D03*
X168894000Y-229050000D03*
X167894000Y-229050000D03*
X166894000Y-229050000D03*
X165894000Y-229050000D03*
X164894000Y-229050000D03*
X163894000Y-229050000D03*
X162894000Y-229050000D03*
X161894000Y-229050000D03*
X160894000Y-229050000D03*
X159894000Y-229050000D03*
X158894000Y-229050000D03*
X157894000Y-229050000D03*
X156894000Y-229050000D03*
X155894000Y-229050000D03*
X154894000Y-229050000D03*
X187894000Y-236250000D03*
X186894000Y-236250000D03*
X185894000Y-236250000D03*
X184894000Y-236250000D03*
X183894000Y-236250000D03*
X182894000Y-236250000D03*
X181894000Y-236250000D03*
X180894000Y-236250000D03*
X179894000Y-236250000D03*
X178894000Y-236250000D03*
X177894000Y-236250000D03*
X174894000Y-236250000D03*
X173894000Y-236250000D03*
X172894000Y-236250000D03*
X171894000Y-236250000D03*
X170894000Y-236250000D03*
X169894000Y-236250000D03*
X168894000Y-236250000D03*
X167894000Y-236250000D03*
X166894000Y-236250000D03*
X165894000Y-236250000D03*
X164894000Y-236250000D03*
X163894000Y-236250000D03*
X162894000Y-236250000D03*
X161894000Y-236250000D03*
X160894000Y-236250000D03*
X159894000Y-236250000D03*
X158894000Y-236250000D03*
X157894000Y-236250000D03*
X156894000Y-236250000D03*
X155894000Y-236250000D03*
X154894000Y-236250000D03*
D13*
X190894000Y-232650000D03*
D14*
X151894000Y-232650000D03*
%TD*%
D10*
%TO.C,U5*%
X156836001Y-83418001D03*
D11*
X156836001Y-84068000D03*
X156836001Y-84717999D03*
X154935999Y-84717999D03*
X154935999Y-84068000D03*
X154935999Y-83418001D03*
%TD*%
D10*
%TO.C,U9*%
X172838001Y-130408001D03*
D11*
X172838001Y-131058000D03*
X172838001Y-131707999D03*
X170937999Y-131707999D03*
X170937999Y-131058000D03*
X170937999Y-130408001D03*
%TD*%
D10*
%TO.C,U11*%
X156836001Y-130408001D03*
D11*
X156836001Y-131058000D03*
X156836001Y-131707999D03*
X154935999Y-131707999D03*
X154935999Y-131058000D03*
X154935999Y-130408001D03*
%TD*%
D10*
%TO.C,U7*%
X164867006Y-98658001D03*
D11*
X164867006Y-99308000D03*
X164867006Y-99957999D03*
X162967004Y-99957999D03*
X162967004Y-99308000D03*
X162967004Y-98658001D03*
%TD*%
D10*
%TO.C,U31*%
X172838001Y-239628001D03*
D11*
X172838001Y-240278000D03*
X172838001Y-240927999D03*
X170937999Y-240927999D03*
X170937999Y-240278000D03*
X170937999Y-239628001D03*
%TD*%
D12*
%TO.C,J3*%
X187894000Y-182050000D03*
X186894000Y-182050000D03*
X185894000Y-182050000D03*
X184894000Y-182050000D03*
X183894000Y-182050000D03*
X182894000Y-182050000D03*
X181894000Y-182050000D03*
X180894000Y-182050000D03*
X179894000Y-182050000D03*
X178894000Y-182050000D03*
X177894000Y-182050000D03*
X174894000Y-182050000D03*
X173894000Y-182050000D03*
X172894000Y-182050000D03*
X171894000Y-182050000D03*
X170894000Y-182050000D03*
X169894000Y-182050000D03*
X168894000Y-182050000D03*
X167894000Y-182050000D03*
X166894000Y-182050000D03*
X165894000Y-182050000D03*
X164894000Y-182050000D03*
X163894000Y-182050000D03*
X162894000Y-182050000D03*
X161894000Y-182050000D03*
X160894000Y-182050000D03*
X159894000Y-182050000D03*
X158894000Y-182050000D03*
X157894000Y-182050000D03*
X156894000Y-182050000D03*
X155894000Y-182050000D03*
X154894000Y-182050000D03*
X187894000Y-189250000D03*
X186894000Y-189250000D03*
X185894000Y-189250000D03*
X184894000Y-189250000D03*
X183894000Y-189250000D03*
X182894000Y-189250000D03*
X181894000Y-189250000D03*
X180894000Y-189250000D03*
X179894000Y-189250000D03*
X178894000Y-189250000D03*
X177894000Y-189250000D03*
X174894000Y-189250000D03*
X173894000Y-189250000D03*
X172894000Y-189250000D03*
X171894000Y-189250000D03*
X170894000Y-189250000D03*
X169894000Y-189250000D03*
X168894000Y-189250000D03*
X167894000Y-189250000D03*
X166894000Y-189250000D03*
X165894000Y-189250000D03*
X164894000Y-189250000D03*
X163894000Y-189250000D03*
X162894000Y-189250000D03*
X161894000Y-189250000D03*
X160894000Y-189250000D03*
X159894000Y-189250000D03*
X158894000Y-189250000D03*
X157894000Y-189250000D03*
X156894000Y-189250000D03*
X155894000Y-189250000D03*
X154894000Y-189250000D03*
D13*
X190894000Y-185650000D03*
D14*
X151894000Y-185650000D03*
%TD*%
D10*
%TO.C,U14*%
X156836001Y-145648001D03*
D11*
X156836001Y-146298000D03*
X156836001Y-146947999D03*
X154935999Y-146947999D03*
X154935999Y-146298000D03*
X154935999Y-145648001D03*
%TD*%
D10*
%TO.C,U13*%
X164710001Y-145648001D03*
D11*
X164710001Y-146298000D03*
X164710001Y-146947999D03*
X162809999Y-146947999D03*
X162809999Y-146298000D03*
X162809999Y-145648001D03*
%TD*%
D10*
%TO.C,U21*%
X172838001Y-224388001D03*
D11*
X172838001Y-225038000D03*
X172838001Y-225687999D03*
X170937999Y-225687999D03*
X170937999Y-225038000D03*
X170937999Y-224388001D03*
%TD*%
D10*
%TO.C,U20*%
X156836001Y-192638001D03*
D11*
X156836001Y-193288000D03*
X156836001Y-193937999D03*
X154935999Y-193937999D03*
X154935999Y-193288000D03*
X154935999Y-192638001D03*
%TD*%
D10*
%TO.C,U22*%
X164710001Y-224388001D03*
D11*
X164710001Y-225038000D03*
X164710001Y-225687999D03*
X162809999Y-225687999D03*
X162809999Y-225038000D03*
X162809999Y-224388001D03*
%TD*%
D10*
%TO.C,U16*%
X164710001Y-177398001D03*
D11*
X164710001Y-178048000D03*
X164710001Y-178697999D03*
X162809999Y-178697999D03*
X162809999Y-178048000D03*
X162809999Y-177398001D03*
%TD*%
D10*
%TO.C,U12*%
X172838001Y-145648001D03*
D11*
X172838001Y-146298000D03*
X172838001Y-146947999D03*
X170937999Y-146947999D03*
X170937999Y-146298000D03*
X170937999Y-145648001D03*
%TD*%
D10*
%TO.C,U17*%
X156836001Y-177398001D03*
D11*
X156836001Y-178048000D03*
X156836001Y-178697999D03*
X154935999Y-178697999D03*
X154935999Y-178048000D03*
X154935999Y-177398001D03*
%TD*%
D10*
%TO.C,U30*%
X156836001Y-224388001D03*
D11*
X156836001Y-225038000D03*
X156836001Y-225687999D03*
X154935999Y-225687999D03*
X154935999Y-225038000D03*
X154935999Y-224388001D03*
%TD*%
D10*
%TO.C,U6*%
X172904000Y-98658001D03*
D11*
X172904000Y-99308000D03*
X172904000Y-99957999D03*
X171003998Y-99957999D03*
X171003998Y-99308000D03*
X171003998Y-98658001D03*
%TD*%
D10*
%TO.C,U8*%
X156836001Y-98658001D03*
D11*
X156836001Y-99308000D03*
X156836001Y-99957999D03*
X154935999Y-99957999D03*
X154935999Y-99308000D03*
X154935999Y-98658001D03*
%TD*%
D10*
%TO.C,U3*%
X172838001Y-83418001D03*
D11*
X172838001Y-84068000D03*
X172838001Y-84717999D03*
X170937999Y-84717999D03*
X170937999Y-84068000D03*
X170937999Y-83418001D03*
%TD*%
D12*
%TO.C,J2*%
X187894000Y-135050000D03*
X186894000Y-135050000D03*
X185894000Y-135050000D03*
X184894000Y-135050000D03*
X183894000Y-135050000D03*
X182894000Y-135050000D03*
X181894000Y-135050000D03*
X180894000Y-135050000D03*
X179894000Y-135050000D03*
X178894000Y-135050000D03*
X177894000Y-135050000D03*
X174894000Y-135050000D03*
X173894000Y-135050000D03*
X172894000Y-135050000D03*
X171894000Y-135050000D03*
X170894000Y-135050000D03*
X169894000Y-135050000D03*
X168894000Y-135050000D03*
X167894000Y-135050000D03*
X166894000Y-135050000D03*
X165894000Y-135050000D03*
X164894000Y-135050000D03*
X163894000Y-135050000D03*
X162894000Y-135050000D03*
X161894000Y-135050000D03*
X160894000Y-135050000D03*
X159894000Y-135050000D03*
X158894000Y-135050000D03*
X157894000Y-135050000D03*
X156894000Y-135050000D03*
X155894000Y-135050000D03*
X154894000Y-135050000D03*
X187894000Y-142250000D03*
X186894000Y-142250000D03*
X185894000Y-142250000D03*
X184894000Y-142250000D03*
X183894000Y-142250000D03*
X182894000Y-142250000D03*
X181894000Y-142250000D03*
X180894000Y-142250000D03*
X179894000Y-142250000D03*
X178894000Y-142250000D03*
X177894000Y-142250000D03*
X174894000Y-142250000D03*
X173894000Y-142250000D03*
X172894000Y-142250000D03*
X171894000Y-142250000D03*
X170894000Y-142250000D03*
X169894000Y-142250000D03*
X168894000Y-142250000D03*
X167894000Y-142250000D03*
X166894000Y-142250000D03*
X165894000Y-142250000D03*
X164894000Y-142250000D03*
X163894000Y-142250000D03*
X162894000Y-142250000D03*
X161894000Y-142250000D03*
X160894000Y-142250000D03*
X159894000Y-142250000D03*
X158894000Y-142250000D03*
X157894000Y-142250000D03*
X156894000Y-142250000D03*
X155894000Y-142250000D03*
X154894000Y-142250000D03*
D13*
X190894000Y-138650000D03*
D14*
X151894000Y-138650000D03*
%TD*%
D10*
%TO.C,U18*%
X172838001Y-192638001D03*
D11*
X172838001Y-193288000D03*
X172838001Y-193937999D03*
X170937999Y-193937999D03*
X170937999Y-193288000D03*
X170937999Y-192638001D03*
%TD*%
D10*
%TO.C,U4*%
X164710001Y-83418001D03*
D11*
X164710001Y-84068000D03*
X164710001Y-84717999D03*
X162809999Y-84717999D03*
X162809999Y-84068000D03*
X162809999Y-83418001D03*
%TD*%
D10*
%TO.C,U33*%
X156836001Y-239628001D03*
D11*
X156836001Y-240278000D03*
X156836001Y-240927999D03*
X154935999Y-240927999D03*
X154935999Y-240278000D03*
X154935999Y-239628001D03*
%TD*%
D10*
%TO.C,U10*%
X164710001Y-130408001D03*
D11*
X164710001Y-131058000D03*
X164710001Y-131707999D03*
X162809999Y-131707999D03*
X162809999Y-131058000D03*
X162809999Y-130408001D03*
%TD*%
D10*
%TO.C,U19*%
X164710001Y-192638001D03*
D11*
X164710001Y-193288000D03*
X164710001Y-193937999D03*
X162809999Y-193937999D03*
X162809999Y-193288000D03*
X162809999Y-192638001D03*
%TD*%
M02*
