M48
; DRILL file {KiCad 7.0.7} date Sun Oct 22 19:03:12 2023
; FORMAT={-:-/ absolute / inch / decimal}
; #@! TF.CreationDate,2023-10-22T19:03:12-04:00
; #@! TF.GenerationSoftware,Kicad,Pcbnew,7.0.7
; #@! TF.FileFunction,Plated,1,4,PTH
FMAT,2
INCH
; #@! TA.AperFunction,Plated,PTH,ViaDrill
T1C0.0157
; #@! TA.AperFunction,Plated,PTH,ComponentDrill
T2C0.0591
; #@! TA.AperFunction,Plated,PTH,ComponentDrill
T3C0.1260
%
G90
G05
T1
X5.41Y-2.43
X5.42Y-2.52
X5.42Y-2.66
X5.51Y-2.67
X5.52Y-3.47
X5.54Y-4.81
X5.54Y-4.85
X5.5425Y-4.23
X5.5425Y-4.48
X5.5425Y-4.92
X5.5455Y-3.9455
X5.55Y-3.03
X5.55Y-3.22
X5.55Y-3.43
X5.64Y-2.29
X5.67Y-2.74
X5.67Y-2.78
X5.67Y-2.82
X5.67Y-2.86
X5.68Y-2.29
X5.68Y-2.34
X5.689Y-4.32
X5.69Y-3.07
X5.69Y-3.38
X5.69Y-3.5351
X5.69Y-4.03
X5.69Y-4.07
X5.69Y-4.13
X5.69Y-4.18
X5.69Y-3.577
X5.6925Y-3.6935
X5.6925Y-3.8316
X5.6925Y-4.431
X5.696Y-3.903
X5.6967Y-3.9423
X5.7Y-3.43
X5.7Y-3.48
X5.7Y-4.281
X5.7012Y-3.7878
X5.7045Y-3.6545
X5.7059Y-4.381
X5.71Y-2.48
X5.71Y-2.69
X5.72Y-2.29
X5.72Y-2.34
X5.75Y-2.48
X5.79Y-2.48
X5.83Y-2.48
X5.83Y-2.87
X5.8437Y-3.8526
X5.85Y-3.27
X5.85Y-3.52
X5.85Y-3.58
X5.85Y-3.67
X5.85Y-3.78
X5.85Y-3.97
X5.85Y-4.02
X5.85Y-4.08
X5.85Y-4.22
X5.85Y-4.27
X5.85Y-4.53
X5.85Y-4.88
X5.86Y-3.01
X5.86Y-3.71
X5.86Y-3.89
X5.86Y-4.415
X5.86Y-4.465
X5.87Y-2.87
X5.87Y-4.325
X5.88Y-4.18
X5.8893Y-3.9782
X5.89Y-3.59
X5.9Y-4.0525
X5.91Y-2.87
X5.91Y-4.365
X5.92Y-2.33
X5.92Y-2.38
X5.95Y-2.87
X6.06Y-3.36
X6.06Y-3.87
X6.07Y-5.23
X6.07Y-5.69
X6.07Y-7.08
X6.07Y-7.55
X6.07Y-8.93
X6.07Y-9.39
X6.13Y-2.4
X6.1373Y-3.5277
X6.1373Y-5.3777
X6.1373Y-3.6847
X6.1373Y-5.5347
X6.1376Y-9.08
X6.1376Y-9.237
X6.1377Y-7.229
X6.1377Y-7.386
X6.17Y-2.4
X6.17Y-2.54
X6.17Y-2.62
X6.17Y-2.66
X6.17Y-2.7
X6.17Y-2.74
X6.2022Y-7.5289
X6.2045Y-5.2434
X6.2045Y-5.6766
X6.2045Y-8.9434
X6.2045Y-9.3666
X6.21Y-2.4
X6.21Y-3.36
X6.21Y-3.8657
X6.21Y-4.82
X6.21Y-4.94
X6.21Y-7.09
X6.216Y-3.5277
X6.216Y-5.3777
X6.2161Y-3.6847
X6.2161Y-5.5347
X6.2163Y-9.08
X6.2164Y-9.237
X6.2164Y-7.229
X6.2165Y-7.386
X6.25Y-2.4
X6.26Y-4.82
X6.26Y-4.94
X6.29Y-2.64
X6.2947Y-3.5277
X6.2947Y-5.3777
X6.2948Y-3.6847
X6.2948Y-5.5347
X6.295Y-9.08
X6.2951Y-9.237
X6.2951Y-7.229
X6.2952Y-7.386
X6.3Y-2.75
X6.31Y-4.82
X6.31Y-4.94
X6.33Y-2.59
X6.33Y-2.64
X6.36Y-4.82
X6.36Y-4.94
X6.37Y-2.34
X6.37Y-2.59
X6.37Y-2.64
X6.3735Y-3.5287
X6.3735Y-5.3787
X6.3736Y-3.6858
X6.3736Y-5.5358
X6.3738Y-9.0811
X6.3739Y-9.2381
X6.3739Y-7.2301
X6.374Y-7.3871
X6.3747Y-3.3443
X6.3752Y-7.5138
X6.38Y-5.67
X6.38Y-7.1
X6.38Y-9.37
X6.382Y-3.875
X6.3846Y-5.2423
X6.3846Y-8.9423
X6.41Y-4.82
X6.41Y-4.94
X6.4523Y-3.5287
X6.4523Y-5.3787
X6.4523Y-3.6858
X6.4523Y-5.5358
X6.4526Y-9.0811
X6.4526Y-9.2381
X6.4527Y-7.2301
X6.4527Y-7.3871
X6.46Y-4.82
X6.46Y-4.94
X6.51Y-2.63
X6.51Y-4.82
X6.5194Y-7.0983
X6.5194Y-9.3666
X6.52Y-3.34
X6.52Y-5.24
X6.52Y-5.67
X6.52Y-7.52
X6.52Y-8.94
X6.53Y-3.88
X6.531Y-3.5287
X6.531Y-5.3787
X6.5311Y-3.6858
X6.5311Y-5.5358
X6.5313Y-9.0811
X6.5314Y-9.2381
X6.5314Y-7.2301
X6.5315Y-7.3871
X6.55Y-2.63
X6.56Y-4.82
X6.59Y-2.63
X6.6097Y-3.5291
X6.6097Y-5.3791
X6.6098Y-3.6862
X6.6098Y-5.5362
X6.61Y-9.0815
X6.6101Y-9.2385
X6.6101Y-7.2305
X6.6102Y-7.3875
X6.63Y-2.63
X6.67Y-2.47
X6.68Y-2.67
X6.6885Y-3.5291
X6.6885Y-5.3791
X6.6885Y-3.6862
X6.6885Y-5.5362
X6.6888Y-9.0815
X6.6888Y-9.2385
X6.6889Y-7.2305
X6.6889Y-7.3875
X6.6917Y-3.8683
X6.6933Y-5.6744
X6.695Y-5.254
X6.6958Y-3.3446
X6.7Y-8.94
X6.7Y-9.37
X6.7006Y-7.0933
X6.7006Y-7.5167
X6.71Y-2.38
X6.75Y-2.45
X6.7672Y-3.5291
X6.7672Y-5.3791
X6.7673Y-3.6862
X6.7673Y-5.5362
X6.7675Y-9.0815
X6.7676Y-9.2385
X6.7676Y-7.2305
X6.7677Y-7.3875
X6.81Y-2.45
X6.8344Y-5.6667
X6.8344Y-7.5167
X6.8355Y-7.0945
X6.8367Y-5.2456
X6.8367Y-8.9456
X6.84Y-3.3488
X6.84Y-9.37
X6.8451Y-3.8712
X6.8459Y-3.5289
X6.8459Y-5.3789
X6.8459Y-3.686
X6.8459Y-5.536
X6.8462Y-9.0813
X6.8462Y-9.2383
X6.8463Y-7.2303
X6.8463Y-7.3873
X6.85Y-2.38
X6.94Y-2.64
X6.98Y-2.64
X7.0Y-9.0837
X7.0034Y-3.5322
X7.004Y-3.6857
X7.0042Y-9.2373
X7.0044Y-5.3817
X7.0044Y-7.2317
X7.005Y-5.5353
X7.005Y-7.3853
X7.02Y-2.64
X7.0425Y-3.5325
X7.0427Y-9.0841
X7.0432Y-3.6861
X7.0433Y-9.2377
X7.0435Y-5.382
X7.0435Y-7.232
X7.0441Y-5.5356
X7.0441Y-7.3856
X7.06Y-2.64
X7.082Y-3.5296
X7.082Y-5.3796
X7.0821Y-3.6866
X7.0821Y-5.5366
X7.0823Y-9.0819
X7.0824Y-9.2389
X7.0824Y-7.2309
X7.0825Y-7.388
X7.1Y-2.48
X7.11Y-2.68
X7.1209Y-8.9523
X7.1219Y-5.25
X7.1219Y-7.1032
X7.1221Y-3.4033
X7.1222Y-7.5152
X7.1225Y-5.6651
X7.1227Y-9.3663
X7.1232Y-3.8155
X7.14Y-2.39
X7.1602Y-3.5298
X7.1602Y-5.3798
X7.1602Y-3.6868
X7.1602Y-5.5368
X7.1605Y-9.0821
X7.1605Y-9.2392
X7.1606Y-7.2311
X7.1606Y-7.3882
X7.17Y-2.46
X7.2Y-3.53
X7.2Y-5.38
X7.2001Y-3.687
X7.2001Y-5.537
X7.2003Y-9.0823
X7.2004Y-9.2394
X7.2004Y-7.2314
X7.2005Y-7.3884
X7.23Y-2.46
X7.26Y-2.39
X7.2785Y-3.6853
X7.2787Y-9.2368
X7.279Y-3.5305
X7.2792Y-9.082
X7.2795Y-5.5348
X7.2795Y-7.3848
X7.28Y-5.38
X7.28Y-7.23
X7.3184Y-3.6855
X7.3185Y-9.2371
X7.3189Y-3.5307
X7.319Y-9.0822
X7.3193Y-5.535
X7.3193Y-7.385
X7.3198Y-5.3802
X7.3198Y-7.2302
X7.34Y-2.82
X7.34Y-2.92
X7.3567Y-3.6855
X7.3568Y-9.2371
X7.3572Y-3.5307
X7.3573Y-9.0822
X7.3576Y-5.535
X7.3576Y-7.385
X7.3581Y-5.3802
X7.3581Y-7.2302
X7.39Y-2.86
X7.3965Y-3.6857
X7.3966Y-9.2373
X7.397Y-3.5309
X7.3971Y-9.0824
X7.3975Y-5.5353
X7.3975Y-7.3853
X7.398Y-5.3804
X7.398Y-7.2304
X7.45Y-2.45
X7.45Y-2.57
X7.45Y-2.61
X7.52Y-2.27
X7.55Y-2.11
X7.59Y-2.11
X7.6118Y-4.4993
X7.6194Y-3.319
X7.62Y-3.5273
X7.63Y-2.83
X7.63Y-3.22
X7.63Y-3.2625
X7.6361Y-4.0771
X7.639Y-4.12
X7.639Y-4.36
X7.64Y-2.11
X7.64Y-3.3525
X7.64Y-3.49
X7.64Y-3.95
X7.64Y-3.99
X7.64Y-4.2
X7.64Y-4.2425
X7.64Y-4.45
X7.64Y-4.92
X7.64Y-4.98
X7.6475Y-3.5845
X7.6475Y-3.63
X7.69Y-2.11
X7.73Y-2.11
X7.7788Y-4.7837
X7.78Y-4.14
X7.78Y-4.31
X7.78Y-4.54
X7.78Y-4.58
X7.78Y-4.68
X7.78Y-4.72
X7.7807Y-3.3725
X7.7807Y-3.7871
X7.7807Y-3.8523
X7.79Y-3.22
X7.79Y-3.28
X7.79Y-3.45
X7.79Y-3.49
X7.79Y-3.58
X7.79Y-3.63
X7.79Y-3.7275
X7.79Y-3.99
X7.79Y-4.04
X7.79Y-4.26
X7.79Y-4.35
X7.79Y-4.39
X7.79Y-4.5
X7.79Y-4.83
X7.7945Y-3.8991
X7.93Y-3.38
X7.93Y-3.42
X7.93Y-3.78
X7.93Y-4.08
X7.93Y-4.13
X7.93Y-4.27
X7.93Y-4.33
X7.93Y-4.52
X7.93Y-4.58
X7.9318Y-3.7307
X7.94Y-3.32
X7.94Y-3.67
X7.94Y-3.93
X7.94Y-4.17
X7.94Y-4.42
X7.9475Y-4.63
X7.95Y-2.39
X7.95Y-2.43
X7.95Y-2.47
X7.99Y-2.37
X7.99Y-2.41
X7.99Y-2.45
X7.99Y-2.49
X8.0075Y-4.92
X8.0075Y-4.98
X8.03Y-2.39
X8.03Y-2.43
X8.03Y-2.47
T2
X7.9231Y-2.3
X8.12Y-2.3
T3
X5.2165Y-2.1654
X5.2165Y-3.5827
X5.2165Y-6.1811
X5.2165Y-7.9134
X5.2165Y-9.6457
X8.3071Y-2.9134
X8.3071Y-4.5276
X8.3071Y-6.1811
X8.3071Y-7.9134
X8.3071Y-9.6457
T0
M30
