%TF.GenerationSoftware,KiCad,Pcbnew,7.0.7*%
%TF.CreationDate,2023-10-22T19:03:09-04:00*%
%TF.ProjectId,Motion controller MiYR interface,4d6f7469-6f6e-4206-936f-6e74726f6c6c,rev?*%
%TF.SameCoordinates,Original*%
%TF.FileFunction,Copper,L1,Top*%
%TF.FilePolarity,Positive*%
%FSLAX46Y46*%
G04 Gerber Fmt 4.6, Leading zero omitted, Abs format (unit mm)*
G04 Created by KiCad (PCBNEW 7.0.7) date 2023-10-22 19:03:09*
%MOMM*%
%LPD*%
G01*
G04 APERTURE LIST*
G04 Aperture macros list*
%AMRoundRect*
0 Rectangle with rounded corners*
0 $1 Rounding radius*
0 $2 $3 $4 $5 $6 $7 $8 $9 X,Y pos of 4 corners*
0 Add a 4 corners polygon primitive as box body*
4,1,4,$2,$3,$4,$5,$6,$7,$8,$9,$2,$3,0*
0 Add four circle primitives for the rounded corners*
1,1,$1+$1,$2,$3*
1,1,$1+$1,$4,$5*
1,1,$1+$1,$6,$7*
1,1,$1+$1,$8,$9*
0 Add four rect primitives between the rounded corners*
20,1,$1+$1,$2,$3,$4,$5,0*
20,1,$1+$1,$4,$5,$6,$7,0*
20,1,$1+$1,$6,$7,$8,$9,0*
20,1,$1+$1,$8,$9,$2,$3,0*%
G04 Aperture macros list end*
%TA.AperFunction,ComponentPad*%
%ADD10C,3.600000*%
%TD*%
%TA.AperFunction,ConnectorPad*%
%ADD11C,5.500000*%
%TD*%
%TA.AperFunction,SMDPad,CuDef*%
%ADD12RoundRect,0.250000X0.325000X0.650000X-0.325000X0.650000X-0.325000X-0.650000X0.325000X-0.650000X0*%
%TD*%
%TA.AperFunction,SMDPad,CuDef*%
%ADD13R,0.558800X1.461700*%
%TD*%
%TA.AperFunction,SMDPad,CuDef*%
%ADD14R,1.500000X4.200000*%
%TD*%
%TA.AperFunction,SMDPad,CuDef*%
%ADD15RoundRect,0.200000X0.200000X0.275000X-0.200000X0.275000X-0.200000X-0.275000X0.200000X-0.275000X0*%
%TD*%
%TA.AperFunction,SMDPad,CuDef*%
%ADD16R,2.400000X0.740000*%
%TD*%
%TA.AperFunction,SMDPad,CuDef*%
%ADD17RoundRect,0.225000X-0.225000X-0.250000X0.225000X-0.250000X0.225000X0.250000X-0.225000X0.250000X0*%
%TD*%
%TA.AperFunction,SMDPad,CuDef*%
%ADD18RoundRect,0.225000X-0.250000X0.225000X-0.250000X-0.225000X0.250000X-0.225000X0.250000X0.225000X0*%
%TD*%
%TA.AperFunction,SMDPad,CuDef*%
%ADD19RoundRect,0.225000X0.225000X0.250000X-0.225000X0.250000X-0.225000X-0.250000X0.225000X-0.250000X0*%
%TD*%
%TA.AperFunction,SMDPad,CuDef*%
%ADD20RoundRect,0.250000X0.650000X-0.325000X0.650000X0.325000X-0.650000X0.325000X-0.650000X-0.325000X0*%
%TD*%
%TA.AperFunction,SMDPad,CuDef*%
%ADD21RoundRect,0.225000X0.250000X-0.225000X0.250000X0.225000X-0.250000X0.225000X-0.250000X-0.225000X0*%
%TD*%
%TA.AperFunction,SMDPad,CuDef*%
%ADD22RoundRect,0.150000X-0.150000X0.512500X-0.150000X-0.512500X0.150000X-0.512500X0.150000X0.512500X0*%
%TD*%
%TA.AperFunction,SMDPad,CuDef*%
%ADD23RoundRect,0.200000X-0.275000X0.200000X-0.275000X-0.200000X0.275000X-0.200000X0.275000X0.200000X0*%
%TD*%
%TA.AperFunction,SMDPad,CuDef*%
%ADD24RoundRect,0.250000X-1.125000X1.275000X-1.125000X-1.275000X1.125000X-1.275000X1.125000X1.275000X0*%
%TD*%
%TA.AperFunction,SMDPad,CuDef*%
%ADD25RoundRect,0.249997X-2.650003X2.950003X-2.650003X-2.950003X2.650003X-2.950003X2.650003X2.950003X0*%
%TD*%
%TA.AperFunction,SMDPad,CuDef*%
%ADD26RoundRect,0.250000X-0.350000X0.850000X-0.350000X-0.850000X0.350000X-0.850000X0.350000X0.850000X0*%
%TD*%
%TA.AperFunction,SMDPad,CuDef*%
%ADD27RoundRect,0.200000X-0.200000X-0.275000X0.200000X-0.275000X0.200000X0.275000X-0.200000X0.275000X0*%
%TD*%
%TA.AperFunction,SMDPad,CuDef*%
%ADD28RoundRect,0.150000X-0.512500X-0.150000X0.512500X-0.150000X0.512500X0.150000X-0.512500X0.150000X0*%
%TD*%
%TA.AperFunction,SMDPad,CuDef*%
%ADD29RoundRect,0.200000X0.275000X-0.200000X0.275000X0.200000X-0.275000X0.200000X-0.275000X-0.200000X0*%
%TD*%
%TA.AperFunction,SMDPad,CuDef*%
%ADD30RoundRect,0.250000X-0.625000X0.375000X-0.625000X-0.375000X0.625000X-0.375000X0.625000X0.375000X0*%
%TD*%
%TA.AperFunction,SMDPad,CuDef*%
%ADD31R,1.461700X0.558800*%
%TD*%
%TA.AperFunction,SMDPad,CuDef*%
%ADD32RoundRect,0.250000X-0.325000X-0.650000X0.325000X-0.650000X0.325000X0.650000X-0.325000X0.650000X0*%
%TD*%
%TA.AperFunction,SMDPad,CuDef*%
%ADD33R,4.200000X1.500000*%
%TD*%
%TA.AperFunction,ComponentPad*%
%ADD34R,3.000000X3.000000*%
%TD*%
%TA.AperFunction,ComponentPad*%
%ADD35C,3.000000*%
%TD*%
%TA.AperFunction,ViaPad*%
%ADD36C,0.800000*%
%TD*%
%TA.AperFunction,Conductor*%
%ADD37C,0.400000*%
%TD*%
%TA.AperFunction,Conductor*%
%ADD38C,1.000000*%
%TD*%
%TA.AperFunction,Conductor*%
%ADD39C,0.200000*%
%TD*%
%TA.AperFunction,Conductor*%
%ADD40C,2.000000*%
%TD*%
G04 APERTURE END LIST*
D10*
%TO.P,REF\u002A\u002A,1*%
%TO.N,N/C*%
X211000000Y-115000000D03*
D11*
X211000000Y-115000000D03*
%TD*%
D10*
%TO.P,REF\u002A\u002A,1*%
%TO.N,N/C*%
X132500000Y-55000000D03*
D11*
X132500000Y-55000000D03*
%TD*%
D10*
%TO.P,REF\u002A\u002A,1*%
%TO.N,N/C*%
X211000000Y-74000000D03*
D11*
X211000000Y-74000000D03*
%TD*%
D10*
%TO.P,REF\u002A\u002A,1*%
%TO.N,N/C*%
X132500000Y-91000000D03*
D11*
X132500000Y-91000000D03*
%TD*%
D10*
%TO.P,REF\u002A\u002A,1*%
%TO.N,N/C*%
X211000000Y-201000000D03*
D11*
X211000000Y-201000000D03*
%TD*%
D10*
%TO.P,REF\u002A\u002A,1*%
%TO.N,N/C*%
X132500000Y-201000000D03*
D11*
X132500000Y-201000000D03*
%TD*%
D10*
%TO.P,REF\u002A\u002A,1*%
%TO.N,N/C*%
X211000000Y-157000000D03*
D11*
X211000000Y-157000000D03*
%TD*%
D10*
%TO.P,REF\u002A\u002A,1*%
%TO.N,N/C*%
X132500000Y-157000000D03*
D11*
X132500000Y-157000000D03*
%TD*%
D10*
%TO.P,REF\u002A\u002A,1*%
%TO.N,N/C*%
X211000000Y-245000000D03*
D11*
X211000000Y-245000000D03*
%TD*%
%TO.P,REF\u002A\u002A,1*%
%TO.N,N/C*%
X132500000Y-245000000D03*
D10*
X132500000Y-245000000D03*
%TD*%
D12*
%TO.P,C4,1*%
%TO.N,Net-(U1-EN)*%
X140667000Y-65786000D03*
%TO.P,C4,2*%
%TO.N,GND*%
X137717000Y-65786000D03*
%TD*%
D13*
%TO.P,U25,1,IN*%
%TO.N,+24V*%
X192151000Y-63754000D03*
%TO.P,U25,2,IN*%
X190881000Y-63754000D03*
%TO.P,U25,3,GND*%
%TO.N,GND*%
X189611000Y-63754000D03*
%TO.P,U25,4,SS*%
%TO.N,Net-(U25-SS)*%
X188341000Y-63754000D03*
%TO.P,U25,5,EN*%
%TO.N,+24V*%
X188341000Y-69203504D03*
%TO.P,U25,6,SET*%
%TO.N,Net-(U25-SET)*%
X189611000Y-69203504D03*
%TO.P,U25,7,OUT*%
%TO.N,SLOT A 24V*%
X190881000Y-69203504D03*
%TO.P,U25,8,OUT*%
X192151000Y-69203504D03*
%TD*%
D14*
%TO.P,L2,1,1*%
%TO.N,Net-(U24-SW)*%
X170202000Y-72439000D03*
%TO.P,L2,2,2*%
%TO.N,+5VP*%
X166602000Y-72439000D03*
%TD*%
D15*
%TO.P,R6,1*%
%TO.N,GND*%
X169989000Y-63803000D03*
%TO.P,R6,2*%
%TO.N,Net-(U24-FB)*%
X168339000Y-63803000D03*
%TD*%
D16*
%TO.P,CN1,1,Pin_1*%
%TO.N,+5V*%
X195830000Y-126365000D03*
%TO.P,CN1,2,Pin_2*%
%TO.N,GND*%
X199730000Y-126365000D03*
%TO.P,CN1,3,Pin_3*%
%TO.N,+3.3V*%
X195830000Y-125095000D03*
%TO.P,CN1,4,Pin_4*%
%TO.N,GND*%
X199730000Y-125095000D03*
%TO.P,CN1,5,Pin_5*%
%TO.N,unconnected-(CN1-Pin_5-Pad5)*%
X195830000Y-123825000D03*
%TO.P,CN1,6,Pin_6*%
%TO.N,unconnected-(CN1-Pin_6-Pad6)*%
X199730000Y-123825000D03*
%TO.P,CN1,7,Pin_7*%
%TO.N,SLOTD5P*%
X195830000Y-122555000D03*
%TO.P,CN1,8,Pin_8*%
%TO.N,unconnected-(CN1-Pin_8-Pad8)*%
X199730000Y-122555000D03*
%TO.P,CN1,9,Pin_9*%
%TO.N,SLOTD5N*%
X195830000Y-121285000D03*
%TO.P,CN1,10,Pin_10*%
%TO.N,unconnected-(CN1-Pin_10-Pad10)*%
X199730000Y-121285000D03*
%TO.P,CN1,11,Pin_11*%
%TO.N,SLOTD4P*%
X195830000Y-120015000D03*
%TO.P,CN1,12,Pin_12*%
%TO.N,unconnected-(CN1-Pin_12-Pad12)*%
X199730000Y-120015000D03*
%TO.P,CN1,13,Pin_13*%
%TO.N,SLOTD4N*%
X195830000Y-118745000D03*
%TO.P,CN1,14,Pin_14*%
%TO.N,unconnected-(CN1-Pin_14-Pad14)*%
X199730000Y-118745000D03*
%TO.P,CN1,15,Pin_15*%
%TO.N,unconnected-(CN1-Pin_15-Pad15)*%
X195830000Y-117475000D03*
%TO.P,CN1,16,Pin_16*%
%TO.N,SLOTD2P*%
X199730000Y-117475000D03*
%TO.P,CN1,17,Pin_17*%
%TO.N,SLOTD3P*%
X195830000Y-116205000D03*
%TO.P,CN1,18,Pin_18*%
%TO.N,SLOTD2N*%
X199730000Y-116205000D03*
%TO.P,CN1,19,Pin_19*%
%TO.N,SLOTD3N*%
X195830000Y-114935000D03*
%TO.P,CN1,20,Pin_20*%
%TO.N,SLOTB10P*%
X199730000Y-114935000D03*
%TO.P,CN1,21,Pin_21*%
%TO.N,SLOTB9P*%
X195830000Y-113665000D03*
%TO.P,CN1,22,Pin_22*%
%TO.N,SLOTB10N*%
X199730000Y-113665000D03*
%TO.P,CN1,23,Pin_23*%
%TO.N,SLOTB9N*%
X195830000Y-112395000D03*
%TO.P,CN1,24,Pin_24*%
%TO.N,GND*%
X199730000Y-112395000D03*
%TO.P,CN1,25,Pin_25*%
X195830000Y-111125000D03*
%TO.P,CN1,26,Pin_26*%
%TO.N,SLOTB8P*%
X199730000Y-111125000D03*
%TO.P,CN1,27,Pin_27*%
%TO.N,SLOTB7P*%
X195830000Y-109855000D03*
%TO.P,CN1,28,Pin_28*%
%TO.N,SLOTB8N*%
X199730000Y-109855000D03*
%TO.P,CN1,29,Pin_29*%
%TO.N,SLOTB7N*%
X195830000Y-108585000D03*
%TO.P,CN1,30,Pin_30*%
%TO.N,SLOTB6P*%
X199730000Y-108585000D03*
%TO.P,CN1,31,Pin_31*%
%TO.N,SLOTB1P*%
X195830000Y-107315000D03*
%TO.P,CN1,32,Pin_32*%
%TO.N,SLOTB6N*%
X199730000Y-107315000D03*
%TO.P,CN1,33,Pin_33*%
%TO.N,SLOTB1N*%
X195830000Y-106045000D03*
%TO.P,CN1,34,Pin_34*%
%TO.N,GND*%
X199730000Y-106045000D03*
%TO.P,CN1,35,Pin_35*%
X195830000Y-104775000D03*
%TO.P,CN1,36,Pin_36*%
%TO.N,SLOTB2P*%
X199730000Y-104775000D03*
%TO.P,CN1,37,Pin_37*%
%TO.N,SLOTB3P*%
X195830000Y-103505000D03*
%TO.P,CN1,38,Pin_38*%
%TO.N,SLOTB2N*%
X199730000Y-103505000D03*
%TO.P,CN1,39,Pin_39*%
%TO.N,SLOTB3N*%
X195830000Y-102235000D03*
%TO.P,CN1,40,Pin_40*%
%TO.N,SLOTB4P*%
X199730000Y-102235000D03*
%TO.P,CN1,41,Pin_41*%
%TO.N,SLOTB5P*%
X195830000Y-100965000D03*
%TO.P,CN1,42,Pin_42*%
%TO.N,SLOTB4N*%
X199730000Y-100965000D03*
%TO.P,CN1,43,Pin_43*%
%TO.N,SLOTB5N*%
X195830000Y-99695000D03*
%TO.P,CN1,44,Pin_44*%
%TO.N,GND*%
X199730000Y-99695000D03*
%TO.P,CN1,45,Pin_45*%
%TO.N,SLOTD1P*%
X195830000Y-98425000D03*
%TO.P,CN1,46,Pin_46*%
%TO.N,unconnected-(CN1-Pin_46-Pad46)*%
X199730000Y-98425000D03*
%TO.P,CN1,47,Pin_47*%
%TO.N,SLOTD1N*%
X195830000Y-97155000D03*
%TO.P,CN1,48,Pin_48*%
%TO.N,unconnected-(CN1-Pin_48-Pad48)*%
X199730000Y-97155000D03*
%TO.P,CN1,49,Pin_49*%
%TO.N,unconnected-(CN1-Pin_49-Pad49)*%
X195830000Y-95885000D03*
%TO.P,CN1,50,Pin_50*%
%TO.N,SLOTA9P*%
X199730000Y-95885000D03*
%TO.P,CN1,51,Pin_51*%
%TO.N,SLOTA10P*%
X195830000Y-94615000D03*
%TO.P,CN1,52,Pin_52*%
%TO.N,SLOTA9N*%
X199730000Y-94615000D03*
%TO.P,CN1,53,Pin_53*%
%TO.N,SLOTA10N*%
X195830000Y-93345000D03*
%TO.P,CN1,54,Pin_54*%
%TO.N,GND*%
X199730000Y-93345000D03*
%TO.P,CN1,55,Pin_55*%
%TO.N,SLOTA7P*%
X195830000Y-92075000D03*
%TO.P,CN1,56,Pin_56*%
%TO.N,SLOTA8P*%
X199730000Y-92075000D03*
%TO.P,CN1,57,Pin_57*%
%TO.N,SLOTA7N*%
X195830000Y-90805000D03*
%TO.P,CN1,58,Pin_58*%
%TO.N,SLOTA8N*%
X199730000Y-90805000D03*
%TO.P,CN1,59,Pin_59*%
%TO.N,SLOTA6P*%
X195830000Y-89535000D03*
%TO.P,CN1,60,Pin_60*%
%TO.N,SLOTA1P*%
X199730000Y-89535000D03*
%TO.P,CN1,61,Pin_61*%
%TO.N,SLOTA6N*%
X195830000Y-88265000D03*
%TO.P,CN1,62,Pin_62*%
%TO.N,SLOTA1N*%
X199730000Y-88265000D03*
%TO.P,CN1,63,Pin_63*%
%TO.N,SLOTA3P*%
X195830000Y-86995000D03*
%TO.P,CN1,64,Pin_64*%
%TO.N,SLOTA2P*%
X199730000Y-86995000D03*
%TO.P,CN1,65,Pin_65*%
%TO.N,SLOTA3N*%
X195830000Y-85725000D03*
%TO.P,CN1,66,Pin_66*%
%TO.N,SLOTA2N*%
X199730000Y-85725000D03*
%TO.P,CN1,67,Pin_67*%
%TO.N,GND*%
X195830000Y-84455000D03*
%TO.P,CN1,68,Pin_68*%
X199730000Y-84455000D03*
%TO.P,CN1,69,Pin_69*%
%TO.N,SLOTA4N*%
X195830000Y-83185000D03*
%TO.P,CN1,70,Pin_70*%
%TO.N,SLOTA4P*%
X199730000Y-83185000D03*
%TO.P,CN1,71,Pin_71*%
%TO.N,SLOTA5P*%
X195830000Y-81915000D03*
%TO.P,CN1,72,Pin_72*%
%TO.N,SLOTA5N*%
X199730000Y-81915000D03*
%TO.P,CN1,73,Pin_73*%
%TO.N,unconnected-(CN1-Pin_73-Pad73)*%
X195830000Y-80645000D03*
%TO.P,CN1,74,Pin_74*%
%TO.N,unconnected-(CN1-Pin_74-Pad74)*%
X199730000Y-80645000D03*
%TO.P,CN1,75,Pin_75*%
%TO.N,unconnected-(CN1-Pin_75-Pad75)*%
X195830000Y-79375000D03*
%TO.P,CN1,76,Pin_76*%
%TO.N,unconnected-(CN1-Pin_76-Pad76)*%
X199730000Y-79375000D03*
%TO.P,CN1,77,Pin_77*%
%TO.N,unconnected-(CN1-Pin_77-Pad77)*%
X195830000Y-78105000D03*
%TO.P,CN1,78,Pin_78*%
%TO.N,unconnected-(CN1-Pin_78-Pad78)*%
X199730000Y-78105000D03*
%TO.P,CN1,79,Pin_79*%
%TO.N,unconnected-(CN1-Pin_79-Pad79)*%
X195830000Y-76835000D03*
%TO.P,CN1,80,Pin_80*%
%TO.N,unconnected-(CN1-Pin_80-Pad80)*%
X199730000Y-76835000D03*
%TD*%
D17*
%TO.P,C12,1*%
%TO.N,+3.3V*%
X163055000Y-85090000D03*
%TO.P,C12,2*%
%TO.N,GND*%
X164605000Y-85090000D03*
%TD*%
%TO.P,C3,1*%
%TO.N,+3.3V*%
X163309000Y-98298000D03*
%TO.P,C3,2*%
%TO.N,GND*%
X164859000Y-98298000D03*
%TD*%
D12*
%TO.P,C28,1*%
%TO.N,SLOT A 24V*%
X190705000Y-74168000D03*
%TO.P,C28,2*%
%TO.N,GND*%
X187755000Y-74168000D03*
%TD*%
D18*
%TO.P,C16,1*%
%TO.N,Net-(U24-EN)*%
X155448000Y-62979000D03*
%TO.P,C16,2*%
%TO.N,GND*%
X155448000Y-64529000D03*
%TD*%
D19*
%TO.P,C5,1*%
%TO.N,Net-(U1-EN)*%
X138951000Y-60706000D03*
%TO.P,C5,2*%
%TO.N,GND*%
X137401000Y-60706000D03*
%TD*%
D20*
%TO.P,C32,1*%
%TO.N,+3.3VP*%
X176530000Y-68785000D03*
%TO.P,C32,2*%
%TO.N,GND*%
X176530000Y-65835000D03*
%TD*%
D12*
%TO.P,C11,1*%
%TO.N,+5V*%
X145747000Y-69850000D03*
%TO.P,C11,2*%
%TO.N,GND*%
X142797000Y-69850000D03*
%TD*%
D21*
%TO.P,C19,1*%
%TO.N,Net-(U24-SW)*%
X172466000Y-71690000D03*
%TO.P,C19,2*%
%TO.N,Net-(U24-BST)*%
X172466000Y-70140000D03*
%TD*%
D22*
%TO.P,U24,1,FB*%
%TO.N,Net-(U24-FB)*%
X172400000Y-65813000D03*
%TO.P,U24,2,EN*%
%TO.N,Net-(U24-EN)*%
X171450000Y-65813000D03*
%TO.P,U24,3,IN*%
X170500000Y-65813000D03*
%TO.P,U24,4,GND*%
%TO.N,GND*%
X170500000Y-68088000D03*
%TO.P,U24,5,SW*%
%TO.N,Net-(U24-SW)*%
X171450000Y-68088000D03*
%TO.P,U24,6,BST*%
%TO.N,Net-(U24-BST)*%
X172400000Y-68088000D03*
%TD*%
D19*
%TO.P,C8,1*%
%TO.N,Net-(U1-SW)*%
X148857000Y-65532000D03*
%TO.P,C8,2*%
%TO.N,Net-(U1-BST)*%
X147307000Y-65532000D03*
%TD*%
D23*
%TO.P,R3,1*%
%TO.N,GND*%
X140970000Y-68009000D03*
%TO.P,R3,2*%
%TO.N,Net-(U1-FB)*%
X140970000Y-69659000D03*
%TD*%
D17*
%TO.P,C13,1*%
%TO.N,+3.3V*%
X163055000Y-238506000D03*
%TO.P,C13,2*%
%TO.N,GND*%
X164605000Y-238506000D03*
%TD*%
D21*
%TO.P,C9,1*%
%TO.N,+5V*%
X139446000Y-72911000D03*
%TO.P,C9,2*%
%TO.N,Net-(U1-FB)*%
X139446000Y-71361000D03*
%TD*%
D23*
%TO.P,R2,1*%
%TO.N,Net-(U1-FB)*%
X140970000Y-71311000D03*
%TO.P,R2,2*%
%TO.N,+5V*%
X140970000Y-72961000D03*
%TD*%
D20*
%TO.P,C22,1*%
%TO.N,+5VP*%
X168148000Y-68580000D03*
%TO.P,C22,2*%
%TO.N,GND*%
X168148000Y-65630000D03*
%TD*%
D15*
%TO.P,R1,1*%
%TO.N,Net-(U2-SET)*%
X139001000Y-58928000D03*
%TO.P,R1,2*%
%TO.N,GND*%
X137351000Y-58928000D03*
%TD*%
D12*
%TO.P,C25,1*%
%TO.N,+24V*%
X192483000Y-60636752D03*
%TO.P,C25,2*%
%TO.N,GND*%
X189533000Y-60636752D03*
%TD*%
D17*
%TO.P,C27,1*%
%TO.N,SLOT A 24V*%
X190995000Y-71882000D03*
%TO.P,C27,2*%
%TO.N,GND*%
X192545000Y-71882000D03*
%TD*%
D15*
%TO.P,R8,1*%
%TO.N,Net-(U26-FB)*%
X177609000Y-64008000D03*
%TO.P,R8,2*%
%TO.N,+3.3VP*%
X175959000Y-64008000D03*
%TD*%
D24*
%TO.P,D1,1,K*%
%TO.N,+24V*%
X204471000Y-66905000D03*
X201421000Y-66905000D03*
D25*
X202946000Y-68580000D03*
D24*
X204471000Y-70255000D03*
X201421000Y-70255000D03*
D26*
%TO.P,D1,2,A*%
%TO.N,GND*%
X205226000Y-62280000D03*
X200666000Y-62280000D03*
%TD*%
D18*
%TO.P,C7,1*%
%TO.N,Net-(U2-SS)*%
X149098000Y-57645000D03*
%TO.P,C7,2*%
%TO.N,GND*%
X149098000Y-59195000D03*
%TD*%
D27*
%TO.P,R4,1*%
%TO.N,Net-(U23-SET)*%
X160211000Y-60706000D03*
%TO.P,R4,2*%
%TO.N,GND*%
X161861000Y-60706000D03*
%TD*%
D17*
%TO.P,C20,1*%
%TO.N,+5VP*%
X165087000Y-62279000D03*
%TO.P,C20,2*%
%TO.N,Net-(U24-FB)*%
X166637000Y-62279000D03*
%TD*%
D28*
%TO.P,U1,1,FB*%
%TO.N,Net-(U1-FB)*%
X142880500Y-65598000D03*
%TO.P,U1,2,EN*%
%TO.N,Net-(U1-EN)*%
X142880500Y-66548000D03*
%TO.P,U1,3,IN*%
X142880500Y-67498000D03*
%TO.P,U1,4,GND*%
%TO.N,GND*%
X145155500Y-67498000D03*
%TO.P,U1,5,SW*%
%TO.N,Net-(U1-SW)*%
X145155500Y-66548000D03*
%TO.P,U1,6,BST*%
%TO.N,Net-(U1-BST)*%
X145155500Y-65598000D03*
%TD*%
D20*
%TO.P,C21,1*%
%TO.N,+5VP*%
X165608000Y-68580000D03*
%TO.P,C21,2*%
%TO.N,GND*%
X165608000Y-65630000D03*
%TD*%
D23*
%TO.P,R15,1*%
%TO.N,Net-(U25-SET)*%
X186436000Y-68955752D03*
%TO.P,R15,2*%
%TO.N,GND*%
X186436000Y-70605752D03*
%TD*%
D21*
%TO.P,C30,1*%
%TO.N,Net-(U26-SW)*%
X183388000Y-71895000D03*
%TO.P,C30,2*%
%TO.N,Net-(U26-BST)*%
X183388000Y-70345000D03*
%TD*%
D20*
%TO.P,C2,1*%
%TO.N,+24V*%
X192532000Y-57609000D03*
%TO.P,C2,2*%
%TO.N,GND*%
X192532000Y-54659000D03*
%TD*%
D15*
%TO.P,R9,1*%
%TO.N,GND*%
X180657000Y-64008000D03*
%TO.P,R9,2*%
%TO.N,Net-(U26-FB)*%
X179007000Y-64008000D03*
%TD*%
D18*
%TO.P,C26,1*%
%TO.N,Net-(U25-SS)*%
X186309000Y-62725000D03*
%TO.P,C26,2*%
%TO.N,GND*%
X186309000Y-64275000D03*
%TD*%
D12*
%TO.P,C10,1*%
%TO.N,+5V*%
X145747000Y-72390000D03*
%TO.P,C10,2*%
%TO.N,GND*%
X142797000Y-72390000D03*
%TD*%
D29*
%TO.P,R7,1*%
%TO.N,Net-(U25-SET)*%
X186309000Y-67373000D03*
%TO.P,R7,2*%
%TO.N,GND*%
X186309000Y-65723000D03*
%TD*%
D30*
%TO.P,F1,1*%
%TO.N,Net-(J5-Pin_1)*%
X208534000Y-65148000D03*
%TO.P,F1,2*%
%TO.N,+24V*%
X208534000Y-67948000D03*
%TD*%
D21*
%TO.P,C6,1*%
%TO.N,+24V*%
X149098000Y-62243000D03*
%TO.P,C6,2*%
%TO.N,GND*%
X149098000Y-60693000D03*
%TD*%
D16*
%TO.P,CN2,1,Pin_1*%
%TO.N,+5V*%
X142830000Y-126365000D03*
%TO.P,CN2,2,Pin_2*%
%TO.N,GND*%
X146730000Y-126365000D03*
%TO.P,CN2,3,Pin_3*%
%TO.N,+3.3V*%
X142830000Y-125095000D03*
%TO.P,CN2,4,Pin_4*%
%TO.N,GND*%
X146730000Y-125095000D03*
%TO.P,CN2,5,Pin_5*%
%TO.N,unconnected-(CN2-Pin_5-Pad5)*%
X142830000Y-123825000D03*
%TO.P,CN2,6,Pin_6*%
%TO.N,unconnected-(CN2-Pin_6-Pad6)*%
X146730000Y-123825000D03*
%TO.P,CN2,7,Pin_7*%
%TO.N,unconnected-(CN2-Pin_7-Pad7)*%
X142830000Y-122555000D03*
%TO.P,CN2,8,Pin_8*%
%TO.N,unconnected-(CN2-Pin_8-Pad8)*%
X146730000Y-122555000D03*
%TO.P,CN2,9,Pin_9*%
%TO.N,unconnected-(CN2-Pin_9-Pad9)*%
X142830000Y-121285000D03*
%TO.P,CN2,10,Pin_10*%
%TO.N,unconnected-(CN2-Pin_10-Pad10)*%
X146730000Y-121285000D03*
%TO.P,CN2,11,Pin_11*%
%TO.N,unconnected-(CN2-Pin_11-Pad11)*%
X142830000Y-120015000D03*
%TO.P,CN2,12,Pin_12*%
%TO.N,unconnected-(CN2-Pin_12-Pad12)*%
X146730000Y-120015000D03*
%TO.P,CN2,13,Pin_13*%
%TO.N,unconnected-(CN2-Pin_13-Pad13)*%
X142830000Y-118745000D03*
%TO.P,CN2,14,Pin_14*%
%TO.N,unconnected-(CN2-Pin_14-Pad14)*%
X146730000Y-118745000D03*
%TO.P,CN2,15,Pin_15*%
%TO.N,unconnected-(CN2-Pin_15-Pad15)*%
X142830000Y-117475000D03*
%TO.P,CN2,16,Pin_16*%
%TO.N,unconnected-(CN2-Pin_16-Pad16)*%
X146730000Y-117475000D03*
%TO.P,CN2,17,Pin_17*%
%TO.N,unconnected-(CN2-Pin_17-Pad17)*%
X142830000Y-116205000D03*
%TO.P,CN2,18,Pin_18*%
%TO.N,unconnected-(CN2-Pin_18-Pad18)*%
X146730000Y-116205000D03*
%TO.P,CN2,19,Pin_19*%
%TO.N,unconnected-(CN2-Pin_19-Pad19)*%
X142830000Y-114935000D03*
%TO.P,CN2,20,Pin_20*%
%TO.N,GND*%
X146730000Y-114935000D03*
%TO.P,CN2,21,Pin_21*%
X142830000Y-113665000D03*
%TO.P,CN2,22,Pin_22*%
%TO.N,SLOTC10P*%
X146730000Y-113665000D03*
%TO.P,CN2,23,Pin_23*%
%TO.N,SLOTC9P*%
X142830000Y-112395000D03*
%TO.P,CN2,24,Pin_24*%
%TO.N,SLOTC10N*%
X146730000Y-112395000D03*
%TO.P,CN2,25,Pin_25*%
%TO.N,SLOTC9N*%
X142830000Y-111125000D03*
%TO.P,CN2,26,Pin_26*%
%TO.N,SLOTC11P*%
X146730000Y-111125000D03*
%TO.P,CN2,27,Pin_27*%
%TO.N,SLOTC8P*%
X142830000Y-109855000D03*
%TO.P,CN2,28,Pin_28*%
%TO.N,SLOTC11N*%
X146730000Y-109855000D03*
%TO.P,CN2,29,Pin_29*%
%TO.N,SLOTC8N*%
X142830000Y-108585000D03*
%TO.P,CN2,30,Pin_30*%
%TO.N,GND*%
X146730000Y-108585000D03*
%TO.P,CN2,31,Pin_31*%
X142830000Y-107315000D03*
%TO.P,CN2,32,Pin_32*%
%TO.N,SLOTC5P*%
X146730000Y-107315000D03*
%TO.P,CN2,33,Pin_33*%
%TO.N,SLOTC7P*%
X142830000Y-106045000D03*
%TO.P,CN2,34,Pin_34*%
%TO.N,SLOTC5N*%
X146730000Y-106045000D03*
%TO.P,CN2,35,Pin_35*%
%TO.N,SLOTC7N*%
X142830000Y-104775000D03*
%TO.P,CN2,36,Pin_36*%
%TO.N,SLOTC4P*%
X146730000Y-104775000D03*
%TO.P,CN2,37,Pin_37*%
%TO.N,SLOTC6P*%
X142830000Y-103505000D03*
%TO.P,CN2,38,Pin_38*%
%TO.N,SLOTC4N*%
X146730000Y-103505000D03*
%TO.P,CN2,39,Pin_39*%
%TO.N,SLOTC6N*%
X142830000Y-102235000D03*
%TO.P,CN2,40,Pin_40*%
%TO.N,GND*%
X146730000Y-102235000D03*
%TO.P,CN2,41,Pin_41*%
X142830000Y-100965000D03*
%TO.P,CN2,42,Pin_42*%
%TO.N,SLOTC3P*%
X146730000Y-100965000D03*
%TO.P,CN2,43,Pin_43*%
%TO.N,SLOTD11P*%
X142830000Y-99695000D03*
%TO.P,CN2,44,Pin_44*%
%TO.N,SLOTC3N*%
X146730000Y-99695000D03*
%TO.P,CN2,45,Pin_45*%
%TO.N,SLOTD11N*%
X142830000Y-98425000D03*
%TO.P,CN2,46,Pin_46*%
%TO.N,SLOTC2P*%
X146730000Y-98425000D03*
%TO.P,CN2,47,Pin_47*%
%TO.N,SLOTD10P*%
X142830000Y-97155000D03*
%TO.P,CN2,48,Pin_48*%
%TO.N,SLOTC2N*%
X146730000Y-97155000D03*
%TO.P,CN2,49,Pin_49*%
%TO.N,SLOTD10N*%
X142830000Y-95885000D03*
%TO.P,CN2,50,Pin_50*%
%TO.N,GND*%
X146730000Y-95885000D03*
%TO.P,CN2,51,Pin_51*%
%TO.N,unconnected-(CN2-Pin_51-Pad51)*%
X142830000Y-94615000D03*
%TO.P,CN2,52,Pin_52*%
%TO.N,SLOTC1P*%
X146730000Y-94615000D03*
%TO.P,CN2,53,Pin_53*%
%TO.N,SLOTD9P*%
X142830000Y-93345000D03*
%TO.P,CN2,54,Pin_54*%
%TO.N,SLOTC1N*%
X146730000Y-93345000D03*
%TO.P,CN2,55,Pin_55*%
%TO.N,SLOTD9N*%
X142830000Y-92075000D03*
%TO.P,CN2,56,Pin_56*%
%TO.N,SLOTB11P*%
X146730000Y-92075000D03*
%TO.P,CN2,57,Pin_57*%
%TO.N,SLOTD8P*%
X142830000Y-90805000D03*
%TO.P,CN2,58,Pin_58*%
%TO.N,SLOTB11N*%
X146730000Y-90805000D03*
%TO.P,CN2,59,Pin_59*%
%TO.N,SLOTD8N*%
X142830000Y-89535000D03*
%TO.P,CN2,60,Pin_60*%
%TO.N,GND*%
X146730000Y-89535000D03*
%TO.P,CN2,61,Pin_61*%
X142830000Y-88265000D03*
%TO.P,CN2,62,Pin_62*%
%TO.N,SLOTD7P*%
X146730000Y-88265000D03*
%TO.P,CN2,63,Pin_63*%
%TO.N,SLOTD6P*%
X142830000Y-86995000D03*
%TO.P,CN2,64,Pin_64*%
%TO.N,SLOTD7N*%
X146730000Y-86995000D03*
%TO.P,CN2,65,Pin_65*%
%TO.N,SLOTD6N*%
X142830000Y-85725000D03*
%TO.P,CN2,66,Pin_66*%
%TO.N,unconnected-(CN2-Pin_66-Pad66)*%
X146730000Y-85725000D03*
%TO.P,CN2,67,Pin_67*%
%TO.N,unconnected-(CN2-Pin_67-Pad67)*%
X142830000Y-84455000D03*
%TO.P,CN2,68,Pin_68*%
%TO.N,unconnected-(CN2-Pin_68-Pad68)*%
X146730000Y-84455000D03*
%TO.P,CN2,69,Pin_69*%
%TO.N,unconnected-(CN2-Pin_69-Pad69)*%
X142830000Y-83185000D03*
%TO.P,CN2,70,Pin_70*%
%TO.N,GND*%
X146730000Y-83185000D03*
%TO.P,CN2,71,Pin_71*%
X142830000Y-81915000D03*
%TO.P,CN2,72,Pin_72*%
%TO.N,unconnected-(CN2-Pin_72-Pad72)*%
X146730000Y-81915000D03*
%TO.P,CN2,73,Pin_73*%
%TO.N,unconnected-(CN2-Pin_73-Pad73)*%
X142830000Y-80645000D03*
%TO.P,CN2,74,Pin_74*%
%TO.N,unconnected-(CN2-Pin_74-Pad74)*%
X146730000Y-80645000D03*
%TO.P,CN2,75,Pin_75*%
%TO.N,unconnected-(CN2-Pin_75-Pad75)*%
X142830000Y-79375000D03*
%TO.P,CN2,76,Pin_76*%
%TO.N,unconnected-(CN2-Pin_76-Pad76)*%
X146730000Y-79375000D03*
%TO.P,CN2,77,Pin_77*%
%TO.N,SLOTA11P*%
X142830000Y-78105000D03*
%TO.P,CN2,78,Pin_78*%
%TO.N,unconnected-(CN2-Pin_78-Pad78)*%
X146730000Y-78105000D03*
%TO.P,CN2,79,Pin_79*%
%TO.N,SLOTA11N*%
X142830000Y-76835000D03*
%TO.P,CN2,80,Pin_80*%
%TO.N,GND*%
X146730000Y-76835000D03*
%TD*%
D17*
%TO.P,C31,1*%
%TO.N,+3.3VP*%
X176009000Y-62484000D03*
%TO.P,C31,2*%
%TO.N,Net-(U26-FB)*%
X177559000Y-62484000D03*
%TD*%
%TO.P,C35,1*%
%TO.N,+3.3V*%
X163055000Y-226822000D03*
%TO.P,C35,2*%
%TO.N,GND*%
X164605000Y-226822000D03*
%TD*%
D20*
%TO.P,C18,1*%
%TO.N,Net-(U24-EN)*%
X172212000Y-63500000D03*
%TO.P,C18,2*%
%TO.N,GND*%
X172212000Y-60550000D03*
%TD*%
%TO.P,C33,1*%
%TO.N,+3.3VP*%
X179070000Y-68785000D03*
%TO.P,C33,2*%
%TO.N,GND*%
X179070000Y-65835000D03*
%TD*%
D31*
%TO.P,U2,1,IN*%
%TO.N,+24V*%
X146742752Y-62103000D03*
%TO.P,U2,2,IN*%
X146742752Y-60833000D03*
%TO.P,U2,3,GND*%
%TO.N,GND*%
X146742752Y-59563000D03*
%TO.P,U2,4,SS*%
%TO.N,Net-(U2-SS)*%
X146742752Y-58293000D03*
%TO.P,U2,5,EN*%
%TO.N,+24V*%
X141293248Y-58293000D03*
%TO.P,U2,6,SET*%
%TO.N,Net-(U2-SET)*%
X141293248Y-59563000D03*
%TO.P,U2,7,OUT*%
%TO.N,Net-(U1-EN)*%
X141293248Y-60833000D03*
%TO.P,U2,8,OUT*%
X141293248Y-62103000D03*
%TD*%
D14*
%TO.P,L3,1,1*%
%TO.N,Net-(U26-SW)*%
X181124000Y-72644000D03*
%TO.P,L3,2,2*%
%TO.N,+3.3VP*%
X177524000Y-72644000D03*
%TD*%
D17*
%TO.P,C17,1*%
%TO.N,+3.3V*%
X163055000Y-191516000D03*
%TO.P,C17,2*%
%TO.N,GND*%
X164605000Y-191516000D03*
%TD*%
D22*
%TO.P,U26,1,FB*%
%TO.N,Net-(U26-FB)*%
X183322000Y-65918500D03*
%TO.P,U26,2,EN*%
%TO.N,Net-(U24-EN)*%
X182372000Y-65918500D03*
%TO.P,U26,3,IN*%
X181422000Y-65918500D03*
%TO.P,U26,4,GND*%
%TO.N,GND*%
X181422000Y-68193500D03*
%TO.P,U26,5,SW*%
%TO.N,Net-(U26-SW)*%
X182372000Y-68193500D03*
%TO.P,U26,6,BST*%
%TO.N,Net-(U26-BST)*%
X183322000Y-68193500D03*
%TD*%
D32*
%TO.P,C14,1*%
%TO.N,+24V*%
X157021000Y-71374000D03*
%TO.P,C14,2*%
%TO.N,GND*%
X159971000Y-71374000D03*
%TD*%
D17*
%TO.P,C34,1*%
%TO.N,+3.3V*%
X163055000Y-179832000D03*
%TO.P,C34,2*%
%TO.N,GND*%
X164605000Y-179832000D03*
%TD*%
D20*
%TO.P,C1,1*%
%TO.N,+24V*%
X195580000Y-57609000D03*
%TO.P,C1,2*%
%TO.N,GND*%
X195580000Y-54659000D03*
%TD*%
D13*
%TO.P,U23,1,IN*%
%TO.N,+24V*%
X157607000Y-68510752D03*
%TO.P,U23,2,IN*%
X158877000Y-68510752D03*
%TO.P,U23,3,GND*%
%TO.N,GND*%
X160147000Y-68510752D03*
%TO.P,U23,4,SS*%
%TO.N,Net-(U23-SS)*%
X161417000Y-68510752D03*
%TO.P,U23,5,EN*%
%TO.N,+24V*%
X161417000Y-63061248D03*
%TO.P,U23,6,SET*%
%TO.N,Net-(U23-SET)*%
X160147000Y-63061248D03*
%TO.P,U23,7,OUT*%
%TO.N,Net-(U24-EN)*%
X158877000Y-63061248D03*
%TO.P,U23,8,OUT*%
X157607000Y-63061248D03*
%TD*%
D17*
%TO.P,C24,1*%
%TO.N,+3.3V*%
X163055000Y-132842000D03*
%TO.P,C24,2*%
%TO.N,GND*%
X164605000Y-132842000D03*
%TD*%
D15*
%TO.P,R5,1*%
%TO.N,Net-(U24-FB)*%
X166687000Y-63803000D03*
%TO.P,R5,2*%
%TO.N,+5VP*%
X165037000Y-63803000D03*
%TD*%
D20*
%TO.P,C29,1*%
%TO.N,Net-(U24-EN)*%
X182880000Y-63705000D03*
%TO.P,C29,2*%
%TO.N,GND*%
X182880000Y-60755000D03*
%TD*%
D17*
%TO.P,C23,1*%
%TO.N,+3.3V*%
X163055000Y-144526000D03*
%TO.P,C23,2*%
%TO.N,GND*%
X164605000Y-144526000D03*
%TD*%
D33*
%TO.P,L1,1,1*%
%TO.N,Net-(U1-SW)*%
X149606000Y-67796000D03*
%TO.P,L1,2,2*%
%TO.N,+5V*%
X149606000Y-71396000D03*
%TD*%
D18*
%TO.P,C15,1*%
%TO.N,Net-(U23-SS)*%
X161798000Y-70345000D03*
%TO.P,C15,2*%
%TO.N,GND*%
X161798000Y-71895000D03*
%TD*%
D34*
%TO.P,J5,1,Pin_1*%
%TO.N,Net-(J5-Pin_1)*%
X206248000Y-58420000D03*
D35*
%TO.P,J5,2,Pin_2*%
%TO.N,GND*%
X201248000Y-58420000D03*
%TD*%
D36*
%TO.N,+3.3V*%
X170180000Y-227076000D03*
X162052000Y-144018000D03*
X166624000Y-122428000D03*
X153924000Y-98298000D03*
X159004000Y-122428000D03*
X162814000Y-125476000D03*
X140778500Y-124968000D03*
X170194942Y-190924422D03*
X170073314Y-84951930D03*
X164084000Y-125476000D03*
X159004000Y-125476000D03*
X154178000Y-226822000D03*
X157734000Y-125476000D03*
X162052000Y-180340000D03*
X161929659Y-190849502D03*
X154178000Y-132842000D03*
X160274000Y-125476000D03*
X170052088Y-133450498D03*
X164084000Y-122428000D03*
X170194942Y-180169578D03*
X154178000Y-238506000D03*
X161916119Y-84944500D03*
X169969621Y-98254379D03*
X153924000Y-85344000D03*
X170010209Y-144128965D03*
X161544000Y-122428000D03*
X162169652Y-133154826D03*
X162814000Y-122428000D03*
X154178000Y-144526000D03*
X161544000Y-125476000D03*
X162169652Y-227134826D03*
X157734000Y-122428000D03*
X160274000Y-122428000D03*
X194056000Y-124968000D03*
X154178000Y-179832000D03*
X162052000Y-237998000D03*
X170180000Y-237998000D03*
X162102011Y-98424170D03*
X165354000Y-122428000D03*
X154178000Y-191770000D03*
%TO.N,SLOT A 24V*%
X187908003Y-136662816D03*
X185910611Y-187580045D03*
X187895328Y-140595453D03*
X185910611Y-140590045D03*
X187908003Y-183652816D03*
X184912000Y-136652000D03*
X186859822Y-93612021D03*
X186896717Y-183647408D03*
X187883783Y-89684792D03*
X187887489Y-230694099D03*
X184899325Y-140584637D03*
X185899066Y-89679384D03*
X186884042Y-140590045D03*
X185886391Y-93612021D03*
X184878811Y-234615920D03*
X185890097Y-234621328D03*
X184899325Y-187574637D03*
X187874814Y-234626736D03*
X186872497Y-89679384D03*
X184875105Y-93606613D03*
X184891486Y-230683283D03*
X185902772Y-230688691D03*
X185923286Y-136657408D03*
X187871108Y-93617429D03*
X185923286Y-183647408D03*
X186896717Y-136657408D03*
X186876203Y-230688691D03*
X184912000Y-183642000D03*
X186884042Y-187580045D03*
X184887780Y-89673976D03*
X186863528Y-234621328D03*
X187895328Y-187585453D03*
%TO.N,+3.3VP*%
X178884082Y-230735126D03*
X178900090Y-234636410D03*
X178904596Y-136703843D03*
X178920604Y-187595127D03*
X178896384Y-93627103D03*
X178920604Y-140605127D03*
X178904596Y-183693843D03*
X178880376Y-89725819D03*
%TO.N,+5VP*%
X177910832Y-183684726D03*
X177926840Y-140596010D03*
X177886612Y-89716702D03*
X177910832Y-136694726D03*
X177926840Y-187586010D03*
X177800000Y-230726009D03*
X177906326Y-234627293D03*
X177902620Y-93617986D03*
%TO.N,Net-(U24-EN)*%
X155702000Y-60960000D03*
X172974000Y-62230000D03*
X158750000Y-60960000D03*
X157734000Y-60960000D03*
X183642000Y-62484000D03*
X156718000Y-60960000D03*
X182118000Y-62484000D03*
X171450000Y-62230000D03*
%TO.N,SLOTA1P*%
X197866000Y-88646000D03*
%TO.N,SLOTA3P*%
X197629502Y-85660500D03*
%TO.N,SLOTA4N*%
X193802000Y-82866500D03*
%TO.N,SLOTA7P*%
X194247500Y-92202000D03*
%TO.N,SLOTA5P*%
X193802000Y-81788000D03*
%TO.N,SLOTA8N*%
X197866000Y-90932000D03*
%TO.N,SLOTA6N*%
X194056000Y-88646000D03*
%TO.N,SLOTA9P*%
X201422000Y-96012000D03*
%TO.N,SLOTA10N*%
X197866000Y-94679500D03*
%TO.N,SLOTA11P*%
X144526000Y-77978000D03*
%TO.N,SLOTA1N*%
X197866000Y-87630000D03*
%TO.N,GND*%
X178308000Y-67056000D03*
X163899216Y-187632645D03*
X148590000Y-123952000D03*
X159888127Y-93590975D03*
X159895617Y-234620462D03*
X157593500Y-133182208D03*
X155886510Y-136592513D03*
X167894840Y-230669682D03*
X167896457Y-234658144D03*
X180903703Y-190885588D03*
X161798000Y-65786000D03*
X165887478Y-136619726D03*
X203962000Y-60706000D03*
X167887350Y-89640195D03*
X140970000Y-81788000D03*
X145288000Y-58166000D03*
X157593500Y-144185812D03*
X169418000Y-62738000D03*
X163889095Y-93618188D03*
X148590000Y-115062000D03*
X171887350Y-89640195D03*
X169672000Y-67818000D03*
X157894000Y-230632000D03*
X182880000Y-136652000D03*
X176276000Y-67056000D03*
X140856378Y-100216378D03*
X169887350Y-136630195D03*
X173893926Y-234652909D03*
X168402000Y-66802000D03*
X160782000Y-67056000D03*
X189230000Y-66294000D03*
X163896585Y-234647675D03*
X163894968Y-230659213D03*
X157888127Y-93590975D03*
X148590000Y-83058000D03*
X202946000Y-61214000D03*
X181868714Y-136646592D03*
X182881617Y-93650462D03*
X173886436Y-93623422D03*
X180917378Y-237903940D03*
X144018000Y-69596000D03*
X170434000Y-60452000D03*
X148590000Y-108458000D03*
X165354000Y-66802000D03*
X173884819Y-89634960D03*
X155896631Y-183616970D03*
X202946000Y-60198000D03*
X180901649Y-86443189D03*
X171897471Y-183654652D03*
X155888127Y-93590975D03*
X167888967Y-93628657D03*
X160782000Y-65786000D03*
X173894940Y-183649417D03*
X177292000Y-67056000D03*
X144018000Y-71628000D03*
X161887478Y-89629726D03*
X182881617Y-140640462D03*
X201676000Y-84328000D03*
X197612000Y-105156000D03*
X144272000Y-58166000D03*
X173884819Y-136624960D03*
X201676000Y-99822000D03*
X157734000Y-180086000D03*
X140208000Y-88138000D03*
X137668000Y-64008000D03*
X180928415Y-96914826D03*
X182880000Y-89662000D03*
X159898248Y-187605432D03*
X161896585Y-234647675D03*
X157593500Y-237911792D03*
X171888967Y-93628657D03*
X203962000Y-62738000D03*
X181880452Y-187659511D03*
X165889095Y-93618188D03*
X180910540Y-143892752D03*
X182890121Y-183676457D03*
X201676000Y-93218000D03*
X165608000Y-133096000D03*
X165593113Y-237912643D03*
X165889095Y-140608188D03*
X181878835Y-183671049D03*
X173622378Y-180199622D03*
X179883997Y-89651184D03*
X157886510Y-89602513D03*
X165608000Y-191008000D03*
X201676000Y-105918000D03*
X201930000Y-60706000D03*
X157535501Y-191233766D03*
X202946000Y-63246000D03*
X167888967Y-140618657D03*
X150368000Y-60452000D03*
X179883997Y-136641184D03*
X157734000Y-85344000D03*
X165894968Y-230659213D03*
X137668000Y-67564000D03*
X201930000Y-61722000D03*
X169897471Y-183654652D03*
X181876204Y-230686079D03*
X173651791Y-227219035D03*
X169894840Y-230669682D03*
X157886510Y-136592513D03*
X180871514Y-227389035D03*
X173593500Y-143933781D03*
X197866000Y-111506000D03*
X161887478Y-136619726D03*
X201930000Y-62738000D03*
X165862000Y-98552000D03*
X182891738Y-187664919D03*
X181870331Y-140635054D03*
X167386000Y-66802000D03*
X145288000Y-59436000D03*
X169899088Y-187643114D03*
X159894000Y-230632000D03*
X179324000Y-67056000D03*
X159886510Y-136592513D03*
X187706000Y-72644000D03*
X148590000Y-96012000D03*
X163889095Y-140608188D03*
X180340000Y-62992000D03*
X167897471Y-183654652D03*
X157895617Y-234620462D03*
X150368000Y-59182000D03*
X180896282Y-180421967D03*
X173892309Y-230664447D03*
X157734000Y-98189500D03*
X179891487Y-230680671D03*
X167899088Y-187643114D03*
X173896557Y-187637879D03*
X201676000Y-112268000D03*
X161894968Y-230659213D03*
X184404000Y-60706000D03*
X161889095Y-93618188D03*
X173736000Y-85060500D03*
X181356000Y-60706000D03*
X171888967Y-140618657D03*
X203391500Y-126492000D03*
X192786000Y-53594000D03*
X179885614Y-93639646D03*
X194056000Y-53594000D03*
X189230000Y-62230000D03*
X180594000Y-68072000D03*
X186436000Y-74168000D03*
X195326000Y-53594000D03*
X148844000Y-76454000D03*
X139954000Y-67818000D03*
X169888967Y-140618657D03*
X166370000Y-66802000D03*
X161798000Y-59436000D03*
X186436000Y-71628000D03*
X165608000Y-84836000D03*
X165593058Y-180296578D03*
X167887350Y-136630195D03*
X140778500Y-107442000D03*
X169888967Y-93628657D03*
X181868714Y-89656592D03*
X189230000Y-65278000D03*
X159896631Y-183616970D03*
X161897599Y-183644183D03*
X159886510Y-89602513D03*
X145034000Y-68326000D03*
X140778500Y-113792000D03*
X182889107Y-234679949D03*
X137414000Y-61722000D03*
X193531702Y-84301549D03*
X169887350Y-89640195D03*
X173736000Y-237998000D03*
X171899088Y-187643114D03*
X171887350Y-136630195D03*
X182887490Y-230691487D03*
X181877821Y-234674541D03*
X173651791Y-133239035D03*
X157593500Y-227162066D03*
X165608000Y-227076000D03*
X163897599Y-183644183D03*
X163887478Y-136619726D03*
X155888127Y-140580975D03*
X171896457Y-234658144D03*
X179894118Y-183665641D03*
X196342000Y-53594000D03*
X169896457Y-234658144D03*
X171894840Y-230669682D03*
X161899216Y-187632645D03*
X173865858Y-98327500D03*
X144018000Y-70612000D03*
X159766000Y-67056000D03*
X165887478Y-89629726D03*
X180895283Y-133350000D03*
X160020000Y-69850000D03*
X156718000Y-64516000D03*
X144272000Y-59436000D03*
X148590000Y-89408000D03*
X161889095Y-140608188D03*
X165899216Y-187632645D03*
X143256000Y-58166000D03*
X179893104Y-234669133D03*
X203962000Y-61722000D03*
X191770000Y-53594000D03*
X181870331Y-93645054D03*
X173886436Y-140613422D03*
X157896631Y-183616970D03*
X165896585Y-234647675D03*
X173990000Y-60452000D03*
X155895617Y-234620462D03*
X155886510Y-89602513D03*
X193802000Y-71882000D03*
X165897599Y-183644183D03*
X157898248Y-187605432D03*
X202946000Y-62230000D03*
X165608000Y-144018000D03*
X155894000Y-230632000D03*
X163887478Y-89629726D03*
X179885614Y-140629646D03*
X155898248Y-187605432D03*
X157888127Y-140580975D03*
X179895735Y-187654103D03*
X161798000Y-67056000D03*
X203391500Y-124968000D03*
X159888127Y-140580975D03*
X144018000Y-72644000D03*
X173593500Y-190923781D03*
X148590000Y-102108000D03*
%TO.N,SLOTA2P*%
X201422000Y-86868000D03*
%TO.N,SLOTA2N*%
X201422000Y-85852000D03*
%TO.N,SLOTA4P*%
X197866000Y-83312000D03*
%TO.N,+5V*%
X140716000Y-123190000D03*
X149098000Y-72898000D03*
X151130000Y-72898000D03*
X140716000Y-122174000D03*
X194056000Y-126492000D03*
X148082000Y-72898000D03*
X150114000Y-72898000D03*
%TO.N,+24V*%
X147066000Y-62992000D03*
X145034000Y-62992000D03*
X156718000Y-68580000D03*
X156718000Y-67564000D03*
X191008000Y-57658000D03*
X146050000Y-62992000D03*
X148082000Y-62992000D03*
X156718000Y-66548000D03*
X156718000Y-69596000D03*
%TO.N,SLOTA3N*%
X194056000Y-85152500D03*
%TO.N,SLOTA5N*%
X197866000Y-81788000D03*
%TO.N,SLOTA6P*%
X193548000Y-89594211D03*
%TO.N,SLOTA7N*%
X194247500Y-91045622D03*
%TO.N,SLOTA8P*%
X197866000Y-92202000D03*
%TO.N,SLOTA9N*%
X201466628Y-94759872D03*
%TO.N,SLOTA10P*%
X197629502Y-96193471D03*
%TO.N,SLOTB1P*%
X194056000Y-107758500D03*
%TO.N,SLOTB1N*%
X194056000Y-106680000D03*
%TO.N,SLOTB2P*%
X201422000Y-104902000D03*
%TO.N,SLOTB3P*%
X194030498Y-104648000D03*
%TO.N,SLOTB2N*%
X201422000Y-103632000D03*
%TO.N,SLOTB3N*%
X193957127Y-103558629D03*
%TO.N,SLOTB6P*%
X201422000Y-108458000D03*
%TO.N,SLOTB5P*%
X194056000Y-101346000D03*
%TO.N,SLOTB6N*%
X197866000Y-108204000D03*
%TO.N,SLOTB5N*%
X194056000Y-100330000D03*
%TO.N,SLOTB8P*%
X197866000Y-110490000D03*
%TO.N,SLOTB4P*%
X197866000Y-102616000D03*
%TO.N,SLOTB8N*%
X201422000Y-109982000D03*
%TO.N,SLOTB4N*%
X197866000Y-101346000D03*
%TO.N,SLOTB7P*%
X197612000Y-109474000D03*
%TO.N,SLOTB10P*%
X201422000Y-114808000D03*
%TO.N,SLOTB7N*%
X194030609Y-110743513D03*
%TO.N,SLOTB10N*%
X197866000Y-114300000D03*
%TO.N,SLOTB9P*%
X193338628Y-114282128D03*
%TO.N,SLOTD2P*%
X201867500Y-117602000D03*
%TO.N,SLOTB9N*%
X194056000Y-113030000D03*
%TO.N,SLOTD2N*%
X201422000Y-116332000D03*
%TO.N,SLOTD1P*%
X197981031Y-99035905D03*
%TO.N,SLOTD4P*%
X197612000Y-119888000D03*
%TO.N,SLOTD1N*%
X197629502Y-97847427D03*
%TO.N,SLOTD4N*%
X197612000Y-118872000D03*
%TO.N,SLOTD3N*%
X197612000Y-115316000D03*
%TO.N,SLOTD3P*%
X197612000Y-116332000D03*
%TO.N,SLOTD5P*%
X197866000Y-122682000D03*
%TO.N,SLOTD5N*%
X197580706Y-121504903D03*
%TO.N,SLOTC2P*%
X148429641Y-97856885D03*
%TO.N,SLOTC1P*%
X148844000Y-94234000D03*
%TO.N,SLOTC2N*%
X148844000Y-98806000D03*
%TO.N,SLOTC1N*%
X148590000Y-93218000D03*
%TO.N,SLOTC4P*%
X149860000Y-102932500D03*
%TO.N,SLOTC3P*%
X148590000Y-100838000D03*
%TO.N,SLOTC4N*%
X148590000Y-103632000D03*
%TO.N,SLOTC3N*%
X149588128Y-101047372D03*
%TO.N,SLOTC6P*%
X144526000Y-103378000D03*
%TO.N,SLOTC5P*%
X148590000Y-107188000D03*
%TO.N,SLOTC6N*%
X144526000Y-102362000D03*
%TO.N,SLOTC8P*%
X144500652Y-109728000D03*
%TO.N,SLOTC7P*%
X144526000Y-106172000D03*
%TO.N,SLOTC8N*%
X144780000Y-108737348D03*
%TO.N,SLOTC7N*%
X144526000Y-104902000D03*
%TO.N,SLOTC10P*%
X148844000Y-113411000D03*
%TO.N,SLOTC9P*%
X144588500Y-112547348D03*
%TO.N,SLOTC10N*%
X148844000Y-112141000D03*
%TO.N,SLOTC9N*%
X144930498Y-111277348D03*
%TO.N,SLOTD7P*%
X144780000Y-88392000D03*
%TO.N,SLOTD6P*%
X140970000Y-87122000D03*
%TO.N,SLOTD7N*%
X144780000Y-87122000D03*
%TO.N,SLOTD6N*%
X144526000Y-85852000D03*
%TO.N,SLOTD9P*%
X144588500Y-93815294D03*
%TO.N,SLOTD8P*%
X144526500Y-90856372D03*
%TO.N,SLOTD9N*%
X144893622Y-92823622D03*
%TO.N,SLOTD8N*%
X144526000Y-89791500D03*
%TO.N,SLOTD10N*%
X144809451Y-96209793D03*
%TO.N,SLOTA11N*%
X140970000Y-76962000D03*
%TO.N,SLOTC11P*%
X150114000Y-110871000D03*
%TO.N,SLOTB11P*%
X149606000Y-91186000D03*
%TO.N,SLOTC11N*%
X149098000Y-109855000D03*
%TO.N,SLOTB11N*%
X148590000Y-90932000D03*
%TO.N,SLOTD11P*%
X144694954Y-100134289D03*
%TO.N,SLOTD11N*%
X144677734Y-99134935D03*
%TO.N,SLOTC5N*%
X149352000Y-106172000D03*
%TO.N,SLOTD10P*%
X144588500Y-97322878D03*
%TD*%
D37*
%TO.N,+3.3V*%
X195830000Y-125095000D02*
X194183000Y-125095000D01*
X194183000Y-125095000D02*
X194056000Y-124968000D01*
X162482478Y-226822000D02*
X162169652Y-227134826D01*
X162482478Y-132842000D02*
X162169652Y-133154826D01*
X163055000Y-179832000D02*
X162560000Y-179832000D01*
X140905500Y-125095000D02*
X140778500Y-124968000D01*
X163055000Y-144526000D02*
X162560000Y-144526000D01*
X163055000Y-238506000D02*
X162560000Y-238506000D01*
X162228181Y-98298000D02*
X162102011Y-98424170D01*
X163055000Y-132842000D02*
X162482478Y-132842000D01*
X162061619Y-85090000D02*
X161916119Y-84944500D01*
X162596157Y-191516000D02*
X163055000Y-191516000D01*
X163055000Y-85090000D02*
X162061619Y-85090000D01*
X142830000Y-125095000D02*
X140905500Y-125095000D01*
X163309000Y-98298000D02*
X162228181Y-98298000D01*
X162560000Y-144526000D02*
X162052000Y-144018000D01*
X161929659Y-190849502D02*
X162596157Y-191516000D01*
X162560000Y-238506000D02*
X162052000Y-237998000D01*
X163055000Y-226822000D02*
X162482478Y-226822000D01*
X162560000Y-179832000D02*
X162052000Y-180340000D01*
%TO.N,+3.3VP*%
X175230000Y-64737000D02*
X175230000Y-67485000D01*
X175959000Y-64008000D02*
X175230000Y-64737000D01*
X175230000Y-67485000D02*
X176530000Y-68785000D01*
X176009000Y-62484000D02*
X176009000Y-63958000D01*
%TO.N,+5VP*%
X164308000Y-67231000D02*
X165608000Y-68531000D01*
X165037000Y-63754000D02*
X164308000Y-64483000D01*
X165087000Y-62230000D02*
X165087000Y-63704000D01*
X164308000Y-64483000D02*
X164308000Y-67231000D01*
%TO.N,Net-(U1-FB)*%
X143370817Y-65598000D02*
X142880500Y-65598000D01*
X140970000Y-71311000D02*
X140970000Y-69913000D01*
X142431000Y-68198000D02*
X143620817Y-68198000D01*
X139446000Y-71361000D02*
X140920000Y-71361000D01*
X143943000Y-66170183D02*
X143370817Y-65598000D01*
X143620817Y-68198000D02*
X143943000Y-67875817D01*
X140970000Y-69659000D02*
X142431000Y-68198000D01*
X143943000Y-67875817D02*
X143943000Y-66170183D01*
D38*
%TO.N,Net-(U1-EN)*%
X140667000Y-62729248D02*
X141293248Y-62103000D01*
X140667000Y-65786000D02*
X140667000Y-62729248D01*
D37*
%TO.N,Net-(U1-BST)*%
X147307000Y-65532000D02*
X145221500Y-65532000D01*
%TO.N,Net-(U2-SS)*%
X147193000Y-58293000D02*
X147841000Y-57645000D01*
X147841000Y-57645000D02*
X149098000Y-57645000D01*
%TO.N,Net-(U2-SET)*%
X141293248Y-59563000D02*
X139636000Y-59563000D01*
X139636000Y-59563000D02*
X139001000Y-58928000D01*
%TO.N,Net-(U23-SS)*%
X161798000Y-70345000D02*
X161798000Y-68891752D01*
X161798000Y-68891752D02*
X161417000Y-68510752D01*
%TO.N,Net-(U23-SET)*%
X160211000Y-60706000D02*
X160211000Y-62997248D01*
%TO.N,Net-(U24-FB)*%
X166687000Y-63803000D02*
X168339000Y-63803000D01*
X170100000Y-66875500D02*
X171884500Y-66875500D01*
X172400000Y-66360000D02*
X172400000Y-65813000D01*
X171884500Y-66875500D02*
X172400000Y-66360000D01*
X169800000Y-65264000D02*
X169800000Y-66575500D01*
X166637000Y-62279000D02*
X166637000Y-63753000D01*
X169800000Y-66575500D02*
X170100000Y-66875500D01*
X168339000Y-63803000D02*
X169800000Y-65264000D01*
%TO.N,Net-(U24-BST)*%
X172466000Y-70091000D02*
X172466000Y-68005500D01*
%TO.N,Net-(U25-SS)*%
X188341000Y-63754000D02*
X187338000Y-63754000D01*
X187338000Y-63754000D02*
X186309000Y-62725000D01*
%TO.N,Net-(U25-SET)*%
X188931600Y-70334354D02*
X189611000Y-69654954D01*
X186436000Y-68955752D02*
X187814602Y-70334354D01*
X187814602Y-70334354D02*
X188931600Y-70334354D01*
X186309000Y-67373000D02*
X186309000Y-68828752D01*
%TO.N,Net-(U26-FB)*%
X177559000Y-62484000D02*
X177559000Y-63958000D01*
X180722000Y-66658817D02*
X181044183Y-66981000D01*
X180722000Y-65592761D02*
X180722000Y-66658817D01*
X181044183Y-66981000D02*
X182749817Y-66981000D01*
X182749817Y-66981000D02*
X183322000Y-66408817D01*
X179137239Y-64008000D02*
X180722000Y-65592761D01*
X177609000Y-64008000D02*
X179007000Y-64008000D01*
X183322000Y-66408817D02*
X183322000Y-65918500D01*
%TO.N,Net-(U26-BST)*%
X183388000Y-70345000D02*
X183388000Y-68259500D01*
D39*
%TO.N,SLOTA1P*%
X198755000Y-89535000D02*
X197866000Y-88646000D01*
%TO.N,SLOTA3P*%
X197629502Y-86025498D02*
X196660000Y-86995000D01*
X197629502Y-85660500D02*
X197629502Y-86025498D01*
%TO.N,SLOTA4N*%
X193802000Y-82866500D02*
X194120500Y-83185000D01*
X194120500Y-83185000D02*
X195830000Y-83185000D01*
%TO.N,SLOTA7P*%
X194247500Y-92202000D02*
X195703000Y-92202000D01*
%TO.N,SLOTA5P*%
X193802000Y-81788000D02*
X193929000Y-81915000D01*
X193929000Y-81915000D02*
X195830000Y-81915000D01*
%TO.N,SLOTA8N*%
X197866000Y-90932000D02*
X199603000Y-90932000D01*
%TO.N,SLOTA6N*%
X195830000Y-88265000D02*
X194437000Y-88265000D01*
X194437000Y-88265000D02*
X194056000Y-88646000D01*
%TO.N,SLOTA9P*%
X201422000Y-96012000D02*
X201295000Y-95885000D01*
X201295000Y-95885000D02*
X199730000Y-95885000D01*
%TO.N,SLOTA10N*%
X196660000Y-93345000D02*
X197866000Y-94551000D01*
X197866000Y-94551000D02*
X197866000Y-94679500D01*
%TO.N,SLOTA11P*%
X144526000Y-77978000D02*
X142957000Y-77978000D01*
%TO.N,SLOTA1N*%
X198501000Y-88265000D02*
X199730000Y-88265000D01*
X197866000Y-87630000D02*
X198501000Y-88265000D01*
D37*
%TO.N,GND*%
X160492000Y-71895000D02*
X159971000Y-71374000D01*
X141605000Y-100965000D02*
X140856378Y-100216378D01*
X180657000Y-64008000D02*
X180657000Y-63309000D01*
X199730000Y-84455000D02*
X201549000Y-84455000D01*
X164605000Y-238506000D02*
X164999756Y-238506000D01*
D38*
X187755000Y-72693000D02*
X187706000Y-72644000D01*
X137401000Y-61709000D02*
X137414000Y-61722000D01*
X182880000Y-60755000D02*
X184355000Y-60755000D01*
X187755000Y-74168000D02*
X186436000Y-74168000D01*
D37*
X142830000Y-113665000D02*
X140905500Y-113665000D01*
X164605000Y-179832000D02*
X165128480Y-179832000D01*
X199730000Y-112395000D02*
X201549000Y-112395000D01*
X164605000Y-85090000D02*
X165354000Y-85090000D01*
X197750629Y-111506000D02*
X197866000Y-111506000D01*
X164999756Y-238506000D02*
X165593113Y-237912643D01*
X161861000Y-59499000D02*
X161798000Y-59436000D01*
X146730000Y-125095000D02*
X147830000Y-125095000D01*
X146730000Y-114935000D02*
X148463000Y-114935000D01*
X201549000Y-112395000D02*
X201676000Y-112268000D01*
D38*
X173990000Y-60452000D02*
X173941000Y-60501000D01*
D37*
X146730000Y-108585000D02*
X148463000Y-108585000D01*
X201549000Y-93345000D02*
X199730000Y-93345000D01*
X201549000Y-84455000D02*
X201676000Y-84328000D01*
X165354000Y-85090000D02*
X165608000Y-84836000D01*
X201676000Y-93218000D02*
X201549000Y-93345000D01*
X146730000Y-89535000D02*
X148463000Y-89535000D01*
X148463000Y-83185000D02*
X148590000Y-83058000D01*
X142830000Y-100965000D02*
X141605000Y-100965000D01*
X197369629Y-111125000D02*
X197750629Y-111506000D01*
X188785000Y-65723000D02*
X189230000Y-65278000D01*
D38*
X187755000Y-74168000D02*
X187755000Y-72693000D01*
D37*
X148590000Y-102108000D02*
X146857000Y-102108000D01*
X148463000Y-95885000D02*
X148590000Y-96012000D01*
X195676549Y-84301549D02*
X193531702Y-84301549D01*
D38*
X173941000Y-60501000D02*
X170483000Y-60501000D01*
D37*
X161861000Y-60706000D02*
X161861000Y-59499000D01*
X180657000Y-63309000D02*
X180340000Y-62992000D01*
D38*
X181405000Y-60755000D02*
X181356000Y-60706000D01*
D37*
X165354000Y-132842000D02*
X165608000Y-133096000D01*
X148463000Y-114935000D02*
X148590000Y-115062000D01*
X148590000Y-124335000D02*
X148590000Y-123952000D01*
X146730000Y-126365000D02*
X146730000Y-125095000D01*
X165354000Y-226822000D02*
X165608000Y-227076000D01*
X165100000Y-191516000D02*
X165608000Y-191008000D01*
X199730000Y-125095000D02*
X203264500Y-125095000D01*
X141097000Y-81915000D02*
X140970000Y-81788000D01*
X164605000Y-191516000D02*
X165100000Y-191516000D01*
D38*
X137351000Y-58928000D02*
X137351000Y-60656000D01*
D37*
X146730000Y-76835000D02*
X148463000Y-76835000D01*
X201549000Y-99695000D02*
X201676000Y-99822000D01*
X142830000Y-88265000D02*
X140335000Y-88265000D01*
X140905500Y-113665000D02*
X140778500Y-113792000D01*
X146730000Y-83185000D02*
X148463000Y-83185000D01*
D38*
X155448000Y-64529000D02*
X156705000Y-64529000D01*
D37*
X201549000Y-106045000D02*
X201676000Y-105918000D01*
X148463000Y-76835000D02*
X148844000Y-76454000D01*
X164859000Y-98298000D02*
X165608000Y-98298000D01*
X199730000Y-126365000D02*
X203264500Y-126365000D01*
X169989000Y-63803000D02*
X169989000Y-63309000D01*
X148463000Y-89535000D02*
X148590000Y-89408000D01*
X147830000Y-125095000D02*
X148590000Y-124335000D01*
D38*
X170483000Y-60501000D02*
X170434000Y-60452000D01*
D37*
X140970000Y-68009000D02*
X140145000Y-68009000D01*
D38*
X137668000Y-64008000D02*
X137717000Y-64057000D01*
D37*
X195830000Y-111125000D02*
X197369629Y-111125000D01*
X169989000Y-63309000D02*
X169418000Y-62738000D01*
D38*
X137717000Y-67515000D02*
X137668000Y-67564000D01*
D37*
X197231000Y-104775000D02*
X197612000Y-105156000D01*
D38*
X182880000Y-60755000D02*
X181405000Y-60755000D01*
D37*
X165608000Y-98298000D02*
X165862000Y-98552000D01*
X164605000Y-226822000D02*
X165354000Y-226822000D01*
D38*
X184355000Y-60755000D02*
X184404000Y-60706000D01*
D37*
X146730000Y-95885000D02*
X148463000Y-95885000D01*
D38*
X137717000Y-64057000D02*
X137717000Y-67515000D01*
X192545000Y-71882000D02*
X193802000Y-71882000D01*
D37*
X195830000Y-104775000D02*
X197231000Y-104775000D01*
X140145000Y-68009000D02*
X139954000Y-67818000D01*
X165100000Y-144526000D02*
X165608000Y-144018000D01*
X142830000Y-81915000D02*
X141097000Y-81915000D01*
D38*
X137351000Y-60656000D02*
X137401000Y-60706000D01*
D37*
X161798000Y-71895000D02*
X160492000Y-71895000D01*
X165128480Y-179832000D02*
X165593058Y-180296578D01*
X203264500Y-126365000D02*
X203391500Y-126492000D01*
X164605000Y-144526000D02*
X165100000Y-144526000D01*
D38*
X137401000Y-60706000D02*
X137401000Y-61709000D01*
X156705000Y-64529000D02*
X156718000Y-64516000D01*
D37*
X203264500Y-125095000D02*
X203391500Y-124968000D01*
X199730000Y-99695000D02*
X201549000Y-99695000D01*
X148463000Y-108585000D02*
X148590000Y-108458000D01*
X186309000Y-65723000D02*
X188785000Y-65723000D01*
X164605000Y-132842000D02*
X165354000Y-132842000D01*
X140905500Y-107315000D02*
X140778500Y-107442000D01*
X186436000Y-70605752D02*
X186436000Y-71628000D01*
X140335000Y-88265000D02*
X140208000Y-88138000D01*
X142830000Y-107315000D02*
X140905500Y-107315000D01*
X199730000Y-106045000D02*
X201549000Y-106045000D01*
X186309000Y-64275000D02*
X186309000Y-65723000D01*
D39*
%TO.N,SLOTA2P*%
X201422000Y-86868000D02*
X199857000Y-86868000D01*
%TO.N,SLOTA2N*%
X201422000Y-85852000D02*
X199857000Y-85852000D01*
%TO.N,SLOTA4P*%
X197866000Y-83312000D02*
X199603000Y-83312000D01*
D38*
%TO.N,+5V*%
X194310000Y-126492000D02*
X194056000Y-126492000D01*
X140716000Y-122174000D02*
X140716000Y-123444000D01*
X195830000Y-126365000D02*
X194437000Y-126365000D01*
D37*
X141699000Y-73690000D02*
X144447000Y-73690000D01*
D38*
X140619865Y-126365000D02*
X142830000Y-126365000D01*
X140716000Y-123444000D02*
X139678500Y-124481500D01*
X139678500Y-125423635D02*
X140619865Y-126365000D01*
D37*
X144447000Y-73690000D02*
X145747000Y-72390000D01*
D38*
X194437000Y-126365000D02*
X194310000Y-126492000D01*
D37*
X139446000Y-72911000D02*
X140920000Y-72911000D01*
D38*
X139678500Y-124481500D02*
X139678500Y-125423635D01*
D37*
X140970000Y-72961000D02*
X141699000Y-73690000D01*
%TO.N,+24V*%
X188341000Y-68752054D02*
X190881000Y-66212054D01*
D40*
X208534000Y-67948000D02*
X205514000Y-67948000D01*
D37*
X161417000Y-63512698D02*
X158877000Y-66052698D01*
X190881000Y-66212054D02*
X190881000Y-63754000D01*
D40*
X199747000Y-66905000D02*
X193802000Y-60960000D01*
X205514000Y-67948000D02*
X204471000Y-66905000D01*
X201421000Y-66905000D02*
X199747000Y-66905000D01*
D37*
X158877000Y-66052698D02*
X158877000Y-68510752D01*
X141744698Y-58293000D02*
X144284698Y-60833000D01*
X144284698Y-60833000D02*
X146742752Y-60833000D01*
D39*
%TO.N,SLOTA3N*%
X194056000Y-85152500D02*
X194628500Y-85725000D01*
X194628500Y-85725000D02*
X195830000Y-85725000D01*
%TO.N,SLOTA5N*%
X197866000Y-81788000D02*
X199603000Y-81788000D01*
%TO.N,SLOTA6P*%
X193548000Y-89594211D02*
X193607211Y-89535000D01*
X193607211Y-89535000D02*
X195830000Y-89535000D01*
%TO.N,SLOTA7N*%
X194247500Y-91045622D02*
X195589378Y-91045622D01*
%TO.N,SLOTA8P*%
X197866000Y-92202000D02*
X199603000Y-92202000D01*
%TO.N,SLOTA9N*%
X201321756Y-94615000D02*
X199730000Y-94615000D01*
X201466628Y-94759872D02*
X201321756Y-94615000D01*
%TO.N,SLOTA10P*%
X197629502Y-96029502D02*
X197629502Y-96193471D01*
X197330000Y-95215000D02*
X197330000Y-95730000D01*
X197330000Y-95730000D02*
X197629502Y-96029502D01*
X196730000Y-94615000D02*
X197330000Y-95215000D01*
%TO.N,SLOTB1P*%
X195830000Y-107315000D02*
X194499500Y-107315000D01*
X194499500Y-107315000D02*
X194056000Y-107758500D01*
%TO.N,SLOTB1N*%
X194056000Y-106680000D02*
X194691000Y-106045000D01*
X194691000Y-106045000D02*
X195830000Y-106045000D01*
%TO.N,SLOTB2P*%
X201422000Y-104902000D02*
X199857000Y-104902000D01*
%TO.N,SLOTB3P*%
X194030498Y-104648000D02*
X194030498Y-104474502D01*
X194030498Y-104474502D02*
X195000000Y-103505000D01*
%TO.N,SLOTB2N*%
X201422000Y-103632000D02*
X199857000Y-103632000D01*
%TO.N,SLOTB3N*%
X193957127Y-103277873D02*
X193957127Y-103558629D01*
X195000000Y-102235000D02*
X193957127Y-103277873D01*
%TO.N,SLOTB6P*%
X201422000Y-108458000D02*
X199857000Y-108458000D01*
%TO.N,SLOTB5P*%
X194437000Y-100965000D02*
X195830000Y-100965000D01*
X194056000Y-101346000D02*
X194437000Y-100965000D01*
%TO.N,SLOTB6N*%
X198755000Y-107315000D02*
X197866000Y-108204000D01*
%TO.N,SLOTB5N*%
X194691000Y-99695000D02*
X195830000Y-99695000D01*
X194056000Y-100330000D02*
X194691000Y-99695000D01*
%TO.N,SLOTB8P*%
X197866000Y-110490000D02*
X198501000Y-111125000D01*
X198501000Y-111125000D02*
X199730000Y-111125000D01*
%TO.N,SLOTB4P*%
X198247000Y-102235000D02*
X199730000Y-102235000D01*
X197866000Y-102616000D02*
X198247000Y-102235000D01*
%TO.N,SLOTB8N*%
X201422000Y-109982000D02*
X199857000Y-109982000D01*
%TO.N,SLOTB4N*%
X198247000Y-100965000D02*
X199730000Y-100965000D01*
X197866000Y-101346000D02*
X198247000Y-100965000D01*
%TO.N,SLOTB7P*%
X195830000Y-109855000D02*
X197231000Y-109855000D01*
X197231000Y-109855000D02*
X197612000Y-109474000D01*
%TO.N,SLOTB10P*%
X201422000Y-114808000D02*
X199857000Y-114808000D01*
%TO.N,SLOTB7N*%
X194030609Y-110743513D02*
X194030609Y-109554391D01*
X194030609Y-109554391D02*
X195000000Y-108585000D01*
%TO.N,SLOTB10N*%
X198501000Y-113665000D02*
X199730000Y-113665000D01*
X197866000Y-114300000D02*
X198501000Y-113665000D01*
%TO.N,SLOTB9P*%
X193338628Y-114282128D02*
X193819872Y-114282128D01*
X193819872Y-114282128D02*
X194437000Y-113665000D01*
X194437000Y-113665000D02*
X195830000Y-113665000D01*
%TO.N,SLOTD2P*%
X201867500Y-117602000D02*
X201740500Y-117475000D01*
X201740500Y-117475000D02*
X199730000Y-117475000D01*
%TO.N,SLOTB9N*%
X194691000Y-112395000D02*
X195830000Y-112395000D01*
X194056000Y-113030000D02*
X194691000Y-112395000D01*
%TO.N,SLOTD2N*%
X201422000Y-116332000D02*
X199857000Y-116332000D01*
%TO.N,SLOTD1P*%
X196430000Y-99025000D02*
X195830000Y-98425000D01*
X197970126Y-99025000D02*
X196430000Y-99025000D01*
X197981031Y-99035905D02*
X197970126Y-99025000D01*
%TO.N,SLOTD4P*%
X197612000Y-119888000D02*
X195957000Y-119888000D01*
%TO.N,SLOTD1N*%
X197629502Y-97847427D02*
X196937075Y-97155000D01*
X196937075Y-97155000D02*
X196683901Y-97155000D01*
%TO.N,SLOTD4N*%
X197612000Y-118872000D02*
X195957000Y-118872000D01*
%TO.N,SLOTD3N*%
X197231000Y-114935000D02*
X195830000Y-114935000D01*
X197612000Y-115316000D02*
X197231000Y-114935000D01*
%TO.N,SLOTD3P*%
X197612000Y-116332000D02*
X195957000Y-116332000D01*
%TO.N,SLOTD5P*%
X197866000Y-122682000D02*
X197739000Y-122555000D01*
X197739000Y-122555000D02*
X195830000Y-122555000D01*
%TO.N,SLOTD5N*%
X197580706Y-121504903D02*
X196049903Y-121504903D01*
%TO.N,SLOTC2P*%
X147861526Y-98425000D02*
X146730000Y-98425000D01*
X148429641Y-97856885D02*
X147861526Y-98425000D01*
%TO.N,SLOTC1P*%
X148463000Y-94615000D02*
X146730000Y-94615000D01*
X148844000Y-94234000D02*
X148463000Y-94615000D01*
%TO.N,SLOTC2N*%
X148717000Y-97155000D02*
X146730000Y-97155000D01*
X149290000Y-97728000D02*
X148717000Y-97155000D01*
X149290000Y-98360000D02*
X149290000Y-97728000D01*
X148844000Y-98806000D02*
X149290000Y-98360000D01*
%TO.N,SLOTC1N*%
X148463000Y-93345000D02*
X148590000Y-93218000D01*
X146730000Y-93345000D02*
X148463000Y-93345000D01*
%TO.N,SLOTC4P*%
X149352000Y-103440500D02*
X149352000Y-103859950D01*
X149860000Y-102932500D02*
X149352000Y-103440500D01*
X148436950Y-104775000D02*
X146730000Y-104775000D01*
X149352000Y-103859950D02*
X148436950Y-104775000D01*
%TO.N,SLOTC3P*%
X148590000Y-100838000D02*
X146857000Y-100838000D01*
%TO.N,SLOTC4N*%
X148590000Y-103632000D02*
X146857000Y-103632000D01*
%TO.N,SLOTC3N*%
X149588128Y-101047372D02*
X149588128Y-100846178D01*
X149588128Y-100846178D02*
X148436950Y-99695000D01*
X148436950Y-99695000D02*
X146730000Y-99695000D01*
%TO.N,SLOTC6P*%
X144526000Y-103378000D02*
X142957000Y-103378000D01*
%TO.N,SLOTC5P*%
X148590000Y-107188000D02*
X146857000Y-107188000D01*
%TO.N,SLOTC6N*%
X144526000Y-102362000D02*
X142957000Y-102362000D01*
%TO.N,SLOTC8P*%
X142830000Y-109880348D02*
X144348304Y-109880348D01*
X144348304Y-109880348D02*
X144500652Y-109728000D01*
%TO.N,SLOTC7P*%
X144526000Y-106172000D02*
X142957000Y-106172000D01*
%TO.N,SLOTC8N*%
X144653000Y-108610348D02*
X142830000Y-108610348D01*
X144780000Y-108737348D02*
X144653000Y-108610348D01*
%TO.N,SLOTC7N*%
X144526000Y-104902000D02*
X142957000Y-104902000D01*
%TO.N,SLOTC10P*%
X148844000Y-113411000D02*
X148717000Y-113538000D01*
X148717000Y-113538000D02*
X146730000Y-113538000D01*
%TO.N,SLOTC9P*%
X144588500Y-112547348D02*
X142957000Y-112547348D01*
%TO.N,SLOTC10N*%
X148844000Y-112141000D02*
X148717000Y-112268000D01*
X148717000Y-112268000D02*
X146730000Y-112268000D01*
%TO.N,SLOTC9N*%
X144803498Y-111150348D02*
X142830000Y-111150348D01*
X144930498Y-111277348D02*
X144803498Y-111150348D01*
%TO.N,SLOTD7P*%
X144907000Y-88265000D02*
X146730000Y-88265000D01*
X144780000Y-88392000D02*
X144907000Y-88265000D01*
%TO.N,SLOTD6P*%
X140970000Y-87122000D02*
X142703000Y-87122000D01*
%TO.N,SLOTD7N*%
X144907000Y-86995000D02*
X146730000Y-86995000D01*
X144780000Y-87122000D02*
X144907000Y-86995000D01*
%TO.N,SLOTD6N*%
X144526000Y-85852000D02*
X142957000Y-85852000D01*
%TO.N,SLOTD9P*%
X142830000Y-93345000D02*
X144118206Y-93345000D01*
X144118206Y-93345000D02*
X144588500Y-93815294D01*
%TO.N,SLOTD8P*%
X144526500Y-90856372D02*
X142881372Y-90856372D01*
%TO.N,SLOTD9N*%
X144145000Y-92075000D02*
X142830000Y-92075000D01*
X144893622Y-92823622D02*
X144145000Y-92075000D01*
%TO.N,SLOTD8N*%
X144526000Y-89791500D02*
X143086500Y-89791500D01*
%TO.N,SLOTD10N*%
X144809451Y-96209793D02*
X144484658Y-95885000D01*
X144484658Y-95885000D02*
X142830000Y-95885000D01*
%TO.N,SLOTA11N*%
X140970000Y-76962000D02*
X142703000Y-76962000D01*
%TO.N,SLOTC11P*%
X150114000Y-110871000D02*
X149987000Y-110998000D01*
X149987000Y-110998000D02*
X146730000Y-110998000D01*
%TO.N,SLOTB11P*%
X149606000Y-91186000D02*
X148717000Y-92075000D01*
X148717000Y-92075000D02*
X146730000Y-92075000D01*
%TO.N,SLOTC11N*%
X149098000Y-109855000D02*
X148971000Y-109728000D01*
X148971000Y-109728000D02*
X146730000Y-109728000D01*
%TO.N,SLOTB11N*%
X148590000Y-90932000D02*
X146857000Y-90932000D01*
%TO.N,SLOTD11P*%
X144255665Y-99695000D02*
X142830000Y-99695000D01*
X144694954Y-100134289D02*
X144255665Y-99695000D01*
%TO.N,SLOTD11N*%
X143967799Y-98425000D02*
X142830000Y-98425000D01*
X144677734Y-99134935D02*
X143967799Y-98425000D01*
%TO.N,SLOTC5N*%
X149352000Y-106172000D02*
X149225000Y-106045000D01*
X149225000Y-106045000D02*
X146730000Y-106045000D01*
%TO.N,SLOTD10P*%
X142830000Y-97155000D02*
X144420622Y-97155000D01*
X144420622Y-97155000D02*
X144588500Y-97322878D01*
D40*
%TO.N,Net-(J5-Pin_1)*%
X208534000Y-60706000D02*
X208534000Y-65148000D01*
X206248000Y-58420000D02*
X208534000Y-60706000D01*
%TD*%
%TA.AperFunction,Conductor*%
%TO.N,Net-(U1-SW)*%
G36*
X152343039Y-64789685D02*
G01*
X152388794Y-64842489D01*
X152400000Y-64894000D01*
X152400000Y-69472000D01*
X152380315Y-69539039D01*
X152327511Y-69584794D01*
X152276000Y-69596000D01*
X151384000Y-69596000D01*
X147190000Y-69596000D01*
X147122961Y-69576315D01*
X147077206Y-69523511D01*
X147066000Y-69472000D01*
X147066000Y-68580000D01*
X146379500Y-68580000D01*
X146312461Y-68560315D01*
X146266706Y-68507511D01*
X146255500Y-68456000D01*
X146255500Y-67434008D01*
X146255499Y-67433992D01*
X146250803Y-67390316D01*
X146246535Y-67370701D01*
X146239598Y-67338807D01*
X146237110Y-67328629D01*
X146237110Y-67328627D01*
X146194100Y-67247915D01*
X146148345Y-67195111D01*
X146130756Y-67177159D01*
X146130755Y-67177158D01*
X146130754Y-67177157D01*
X146113462Y-67167484D01*
X146064566Y-67117577D01*
X146050000Y-67059266D01*
X146050000Y-67056000D01*
X145897439Y-67056000D01*
X145842979Y-67043401D01*
X145769393Y-67007427D01*
X145769391Y-67007426D01*
X145701261Y-66997500D01*
X145701260Y-66997500D01*
X144609740Y-66997500D01*
X144609739Y-66997500D01*
X144541607Y-67007426D01*
X144541605Y-67007427D01*
X144521957Y-67017032D01*
X144453084Y-67028789D01*
X144388787Y-67001444D01*
X144349482Y-66943679D01*
X144343500Y-66905630D01*
X144343500Y-66190369D01*
X144363185Y-66123330D01*
X144415989Y-66077575D01*
X144485147Y-66067631D01*
X144521958Y-66078967D01*
X144541607Y-66088573D01*
X144575673Y-66093536D01*
X144609739Y-66098500D01*
X144609740Y-66098500D01*
X145701261Y-66098500D01*
X145723971Y-66095190D01*
X145769393Y-66088573D01*
X145842979Y-66052598D01*
X145897439Y-66040000D01*
X146686890Y-66040000D01*
X146753929Y-66059685D01*
X146774566Y-66076314D01*
X146828780Y-66130528D01*
X146948874Y-66191719D01*
X146948876Y-66191719D01*
X146948878Y-66191720D01*
X147048507Y-66207500D01*
X147048512Y-66207500D01*
X147565493Y-66207500D01*
X147665121Y-66191720D01*
X147665121Y-66191719D01*
X147665126Y-66191719D01*
X147785220Y-66130528D01*
X147839430Y-66076317D01*
X147900751Y-66042834D01*
X147927110Y-66040000D01*
X148082000Y-66040000D01*
X148082000Y-64894000D01*
X148101685Y-64826961D01*
X148154489Y-64781206D01*
X148206000Y-64770000D01*
X152276000Y-64770000D01*
X152343039Y-64789685D01*
G37*
%TD.AperFunction*%
%TD*%
%TA.AperFunction,Conductor*%
%TO.N,+3.3VP*%
G36*
X180377113Y-86746030D02*
G01*
X180473367Y-86871471D01*
X180598808Y-86967725D01*
X180744887Y-87028233D01*
X180823267Y-87038551D01*
X180901648Y-87048871D01*
X180901649Y-87048871D01*
X180901650Y-87048871D01*
X180953903Y-87041991D01*
X181058411Y-87028233D01*
X181184549Y-86975984D01*
X181254015Y-86968516D01*
X181316494Y-86999791D01*
X181352147Y-87059879D01*
X181355999Y-87090546D01*
X181355999Y-89300548D01*
X181346560Y-89348001D01*
X181283670Y-89499829D01*
X181283669Y-89499831D01*
X181263032Y-89656590D01*
X181263032Y-89656593D01*
X181283669Y-89813352D01*
X181283670Y-89813354D01*
X181318621Y-89897734D01*
X181346560Y-89965183D01*
X181355999Y-90012636D01*
X181355999Y-93292911D01*
X181346560Y-93340363D01*
X181285288Y-93488288D01*
X181285286Y-93488293D01*
X181264649Y-93645052D01*
X181264649Y-93645055D01*
X181285286Y-93801814D01*
X181285287Y-93801816D01*
X181346560Y-93949741D01*
X181355999Y-93997194D01*
X181355999Y-96256381D01*
X181336314Y-96323420D01*
X181283510Y-96369175D01*
X181214352Y-96379119D01*
X181184547Y-96370942D01*
X181085180Y-96329783D01*
X181085175Y-96329781D01*
X180928416Y-96309144D01*
X180928414Y-96309144D01*
X180771654Y-96329781D01*
X180771652Y-96329782D01*
X180625575Y-96390289D01*
X180500133Y-96486544D01*
X180403878Y-96611986D01*
X180343371Y-96758063D01*
X180343370Y-96758065D01*
X180322733Y-96914824D01*
X180322733Y-96914827D01*
X180343370Y-97071586D01*
X180343371Y-97071588D01*
X180403879Y-97217667D01*
X180500133Y-97343108D01*
X180625574Y-97439362D01*
X180771653Y-97499870D01*
X180850034Y-97510189D01*
X180928414Y-97520508D01*
X180928415Y-97520508D01*
X180928416Y-97520508D01*
X180980669Y-97513628D01*
X181085177Y-97499870D01*
X181184549Y-97458708D01*
X181254015Y-97451240D01*
X181316494Y-97482515D01*
X181352147Y-97542603D01*
X181355999Y-97573270D01*
X181355999Y-132705278D01*
X181336314Y-132772317D01*
X181283510Y-132818072D01*
X181214352Y-132828016D01*
X181184547Y-132819839D01*
X181052048Y-132764957D01*
X181052043Y-132764955D01*
X180895284Y-132744318D01*
X180895282Y-132744318D01*
X180738522Y-132764955D01*
X180738520Y-132764956D01*
X180592443Y-132825463D01*
X180467001Y-132921718D01*
X180370746Y-133047160D01*
X180310239Y-133193237D01*
X180310238Y-133193239D01*
X180289601Y-133349998D01*
X180289601Y-133350001D01*
X180310238Y-133506760D01*
X180310239Y-133506762D01*
X180370747Y-133652841D01*
X180467001Y-133778282D01*
X180592442Y-133874536D01*
X180738521Y-133935044D01*
X180816902Y-133945363D01*
X180895282Y-133955682D01*
X180895283Y-133955682D01*
X180895284Y-133955682D01*
X180947537Y-133948802D01*
X181052045Y-133935044D01*
X181184546Y-133880159D01*
X181254016Y-133872691D01*
X181316495Y-133903966D01*
X181352147Y-133964055D01*
X181355999Y-133994721D01*
X181355999Y-136290548D01*
X181346560Y-136338001D01*
X181283670Y-136489829D01*
X181283669Y-136489831D01*
X181263032Y-136646590D01*
X181263032Y-136646593D01*
X181283669Y-136803352D01*
X181283670Y-136803354D01*
X181346560Y-136955183D01*
X181355999Y-137002636D01*
X181355999Y-140282911D01*
X181346560Y-140330363D01*
X181285288Y-140478288D01*
X181285286Y-140478293D01*
X181264649Y-140635052D01*
X181264649Y-140635055D01*
X181285286Y-140791814D01*
X181285287Y-140791816D01*
X181346560Y-140939741D01*
X181355999Y-140987194D01*
X181355998Y-143241711D01*
X181336313Y-143308751D01*
X181283509Y-143354505D01*
X181214351Y-143364449D01*
X181184547Y-143356272D01*
X181067302Y-143307708D01*
X181067300Y-143307707D01*
X180910541Y-143287070D01*
X180910539Y-143287070D01*
X180753779Y-143307707D01*
X180753777Y-143307708D01*
X180607700Y-143368215D01*
X180482258Y-143464470D01*
X180386003Y-143589912D01*
X180325496Y-143735989D01*
X180325495Y-143735991D01*
X180304858Y-143892750D01*
X180304858Y-143892753D01*
X180325495Y-144049512D01*
X180325496Y-144049514D01*
X180386004Y-144195593D01*
X180482258Y-144321034D01*
X180607699Y-144417288D01*
X180753778Y-144477796D01*
X180832158Y-144488115D01*
X180910539Y-144498434D01*
X180910540Y-144498434D01*
X180910541Y-144498434D01*
X180962793Y-144491554D01*
X181067302Y-144477796D01*
X181184548Y-144429230D01*
X181254015Y-144421762D01*
X181316494Y-144453037D01*
X181352147Y-144513125D01*
X181355999Y-144543792D01*
X181355999Y-179776832D01*
X181336314Y-179843871D01*
X181283510Y-179889626D01*
X181214352Y-179899570D01*
X181184546Y-179891393D01*
X181053044Y-179836923D01*
X181053042Y-179836922D01*
X180896283Y-179816285D01*
X180896281Y-179816285D01*
X180739521Y-179836922D01*
X180739519Y-179836923D01*
X180593442Y-179897430D01*
X180468000Y-179993685D01*
X180371745Y-180119127D01*
X180311238Y-180265204D01*
X180311237Y-180265206D01*
X180290600Y-180421965D01*
X180290600Y-180421968D01*
X180311237Y-180578727D01*
X180311238Y-180578729D01*
X180371746Y-180724808D01*
X180468000Y-180850249D01*
X180593441Y-180946503D01*
X180739520Y-181007011D01*
X180817900Y-181017330D01*
X180896281Y-181027649D01*
X180896282Y-181027649D01*
X180896283Y-181027649D01*
X180948535Y-181020769D01*
X181053044Y-181007011D01*
X181184549Y-180952539D01*
X181254015Y-180945071D01*
X181316494Y-180976346D01*
X181352147Y-181036434D01*
X181355999Y-181067101D01*
X181355999Y-183339438D01*
X181346560Y-183386890D01*
X181293792Y-183514283D01*
X181293790Y-183514288D01*
X181273153Y-183671047D01*
X181273153Y-183671050D01*
X181293790Y-183827809D01*
X181293791Y-183827811D01*
X181346560Y-183955207D01*
X181355999Y-184002658D01*
X181355998Y-187331804D01*
X181346559Y-187379256D01*
X181295409Y-187502745D01*
X181295407Y-187502750D01*
X181274770Y-187659509D01*
X181274770Y-187659512D01*
X181295407Y-187816271D01*
X181295408Y-187816273D01*
X181346560Y-187939764D01*
X181355999Y-187987217D01*
X181355999Y-190237379D01*
X181336314Y-190304418D01*
X181283510Y-190350173D01*
X181214352Y-190360117D01*
X181184547Y-190351940D01*
X181060468Y-190300545D01*
X181060463Y-190300543D01*
X180903704Y-190279906D01*
X180903702Y-190279906D01*
X180746942Y-190300543D01*
X180746940Y-190300544D01*
X180600863Y-190361051D01*
X180475421Y-190457306D01*
X180379166Y-190582748D01*
X180318659Y-190728825D01*
X180318658Y-190728827D01*
X180298021Y-190885586D01*
X180298021Y-190885589D01*
X180318658Y-191042348D01*
X180318659Y-191042350D01*
X180379167Y-191188429D01*
X180475421Y-191313870D01*
X180600862Y-191410124D01*
X180746941Y-191470632D01*
X180825321Y-191480951D01*
X180903702Y-191491270D01*
X180903703Y-191491270D01*
X180903704Y-191491270D01*
X180955956Y-191484390D01*
X181060465Y-191470632D01*
X181184548Y-191419234D01*
X181254015Y-191411766D01*
X181316494Y-191443041D01*
X181352147Y-191503129D01*
X181355999Y-191533796D01*
X181355999Y-226754596D01*
X181336314Y-226821635D01*
X181283510Y-226867390D01*
X181214352Y-226877334D01*
X181182411Y-226866284D01*
X181181863Y-226867609D01*
X181174352Y-226864498D01*
X181028276Y-226803991D01*
X181028274Y-226803990D01*
X180871515Y-226783353D01*
X180871513Y-226783353D01*
X180714753Y-226803990D01*
X180714751Y-226803991D01*
X180568674Y-226864498D01*
X180443232Y-226960753D01*
X180346977Y-227086195D01*
X180286470Y-227232272D01*
X180286469Y-227232274D01*
X180265832Y-227389033D01*
X180265832Y-227389036D01*
X180286469Y-227545795D01*
X180286470Y-227545797D01*
X180346978Y-227691876D01*
X180443232Y-227817317D01*
X180568673Y-227913571D01*
X180714752Y-227974079D01*
X180793133Y-227984398D01*
X180871513Y-227994717D01*
X180871514Y-227994717D01*
X180871515Y-227994717D01*
X180923767Y-227987837D01*
X181028276Y-227974079D01*
X181174355Y-227913571D01*
X181174355Y-227913570D01*
X181181863Y-227910461D01*
X181182896Y-227912956D01*
X181237900Y-227899614D01*
X181303927Y-227922466D01*
X181347117Y-227977388D01*
X181355999Y-228023473D01*
X181355999Y-230348116D01*
X181346560Y-230395568D01*
X181291161Y-230529313D01*
X181291159Y-230529318D01*
X181270522Y-230686077D01*
X181270522Y-230686080D01*
X181291159Y-230842838D01*
X181346560Y-230976590D01*
X181355998Y-231024042D01*
X181355998Y-234340483D01*
X181346559Y-234387935D01*
X181292778Y-234517775D01*
X181292776Y-234517780D01*
X181272139Y-234674539D01*
X181272139Y-234674542D01*
X181292776Y-234831301D01*
X181292777Y-234831303D01*
X181346560Y-234961146D01*
X181355999Y-235008599D01*
X181355999Y-237250066D01*
X181336314Y-237317105D01*
X181283510Y-237362860D01*
X181214352Y-237372804D01*
X181184547Y-237364627D01*
X181074143Y-237318897D01*
X181074138Y-237318895D01*
X180917379Y-237298258D01*
X180917377Y-237298258D01*
X180760617Y-237318895D01*
X180760615Y-237318896D01*
X180614535Y-237379404D01*
X180503799Y-237464376D01*
X180438630Y-237489570D01*
X180428313Y-237490000D01*
X178686000Y-237490000D01*
X178618961Y-237470315D01*
X178573206Y-237417511D01*
X178562000Y-237366000D01*
X178562000Y-234669134D01*
X179287422Y-234669134D01*
X179308059Y-234825893D01*
X179308060Y-234825895D01*
X179368568Y-234971974D01*
X179464822Y-235097415D01*
X179590263Y-235193669D01*
X179736342Y-235254177D01*
X179814723Y-235264495D01*
X179893103Y-235274815D01*
X179893104Y-235274815D01*
X179893105Y-235274815D01*
X179945357Y-235267935D01*
X180049866Y-235254177D01*
X180195945Y-235193669D01*
X180321386Y-235097415D01*
X180417640Y-234971974D01*
X180478148Y-234825895D01*
X180498786Y-234669133D01*
X180478148Y-234512371D01*
X180417640Y-234366292D01*
X180321386Y-234240851D01*
X180195945Y-234144597D01*
X180049866Y-234084089D01*
X180049864Y-234084088D01*
X179893105Y-234063451D01*
X179893103Y-234063451D01*
X179736343Y-234084088D01*
X179736341Y-234084089D01*
X179590264Y-234144596D01*
X179464822Y-234240851D01*
X179368567Y-234366293D01*
X179308060Y-234512370D01*
X179308059Y-234512372D01*
X179287422Y-234669131D01*
X179287422Y-234669134D01*
X178562000Y-234669134D01*
X178562000Y-230680672D01*
X179285805Y-230680672D01*
X179306442Y-230837431D01*
X179306443Y-230837433D01*
X179366951Y-230983512D01*
X179463205Y-231108953D01*
X179588646Y-231205207D01*
X179734725Y-231265715D01*
X179813106Y-231276034D01*
X179891486Y-231286353D01*
X179891487Y-231286353D01*
X179891488Y-231286353D01*
X179943741Y-231279473D01*
X180048249Y-231265715D01*
X180194328Y-231205207D01*
X180319769Y-231108953D01*
X180416023Y-230983512D01*
X180476531Y-230837433D01*
X180497169Y-230680671D01*
X180476531Y-230523909D01*
X180416023Y-230377830D01*
X180319769Y-230252389D01*
X180194328Y-230156135D01*
X180048249Y-230095627D01*
X180048247Y-230095626D01*
X179891488Y-230074989D01*
X179891486Y-230074989D01*
X179734726Y-230095626D01*
X179734724Y-230095627D01*
X179588647Y-230156134D01*
X179463205Y-230252389D01*
X179366950Y-230377831D01*
X179306443Y-230523908D01*
X179306442Y-230523910D01*
X179285805Y-230680669D01*
X179285805Y-230680672D01*
X178562000Y-230680672D01*
X178562000Y-187654104D01*
X179290053Y-187654104D01*
X179310690Y-187810863D01*
X179310691Y-187810865D01*
X179371199Y-187956944D01*
X179467453Y-188082385D01*
X179592894Y-188178639D01*
X179738973Y-188239147D01*
X179817354Y-188249465D01*
X179895734Y-188259785D01*
X179895735Y-188259785D01*
X179895736Y-188259785D01*
X179947988Y-188252905D01*
X180052497Y-188239147D01*
X180198576Y-188178639D01*
X180324017Y-188082385D01*
X180420271Y-187956944D01*
X180480779Y-187810865D01*
X180501417Y-187654103D01*
X180492452Y-187586010D01*
X180480779Y-187497342D01*
X180480779Y-187497341D01*
X180420271Y-187351262D01*
X180324017Y-187225821D01*
X180198576Y-187129567D01*
X180052497Y-187069059D01*
X180052495Y-187069058D01*
X179895736Y-187048421D01*
X179895734Y-187048421D01*
X179738974Y-187069058D01*
X179738972Y-187069059D01*
X179592895Y-187129566D01*
X179467453Y-187225821D01*
X179371198Y-187351263D01*
X179310691Y-187497340D01*
X179310690Y-187497342D01*
X179290053Y-187654101D01*
X179290053Y-187654104D01*
X178562000Y-187654104D01*
X178562000Y-183665642D01*
X179288436Y-183665642D01*
X179309073Y-183822401D01*
X179309074Y-183822403D01*
X179369582Y-183968482D01*
X179465836Y-184093923D01*
X179591277Y-184190177D01*
X179737356Y-184250685D01*
X179815736Y-184261004D01*
X179894117Y-184271323D01*
X179894118Y-184271323D01*
X179894119Y-184271323D01*
X179946371Y-184264443D01*
X180050880Y-184250685D01*
X180196959Y-184190177D01*
X180322400Y-184093923D01*
X180418654Y-183968482D01*
X180479162Y-183822403D01*
X180492920Y-183717894D01*
X180499800Y-183665642D01*
X180499800Y-183665639D01*
X180479162Y-183508880D01*
X180479162Y-183508879D01*
X180418654Y-183362800D01*
X180322400Y-183237359D01*
X180196959Y-183141105D01*
X180050880Y-183080597D01*
X180050878Y-183080596D01*
X179894119Y-183059959D01*
X179894117Y-183059959D01*
X179737357Y-183080596D01*
X179737355Y-183080597D01*
X179591278Y-183141104D01*
X179465836Y-183237359D01*
X179369581Y-183362801D01*
X179309074Y-183508878D01*
X179309073Y-183508880D01*
X179288436Y-183665639D01*
X179288436Y-183665642D01*
X178562000Y-183665642D01*
X178562000Y-140629647D01*
X179279932Y-140629647D01*
X179300569Y-140786406D01*
X179300570Y-140786408D01*
X179361078Y-140932487D01*
X179457332Y-141057928D01*
X179582773Y-141154182D01*
X179728852Y-141214690D01*
X179807233Y-141225009D01*
X179885613Y-141235328D01*
X179885614Y-141235328D01*
X179885615Y-141235328D01*
X179937868Y-141228448D01*
X180042376Y-141214690D01*
X180188455Y-141154182D01*
X180313896Y-141057928D01*
X180410150Y-140932487D01*
X180470658Y-140786408D01*
X180491296Y-140629646D01*
X180470658Y-140472884D01*
X180410150Y-140326805D01*
X180313896Y-140201364D01*
X180188455Y-140105110D01*
X180042376Y-140044602D01*
X180042374Y-140044601D01*
X179885615Y-140023964D01*
X179885613Y-140023964D01*
X179728853Y-140044601D01*
X179728851Y-140044602D01*
X179582774Y-140105109D01*
X179457332Y-140201364D01*
X179361077Y-140326806D01*
X179300570Y-140472883D01*
X179300569Y-140472885D01*
X179279932Y-140629644D01*
X179279932Y-140629647D01*
X178562000Y-140629647D01*
X178562000Y-136641185D01*
X179278315Y-136641185D01*
X179298952Y-136797944D01*
X179298953Y-136797946D01*
X179359461Y-136944025D01*
X179455715Y-137069466D01*
X179581156Y-137165720D01*
X179727235Y-137226228D01*
X179805616Y-137236547D01*
X179883996Y-137246866D01*
X179883997Y-137246866D01*
X179883998Y-137246866D01*
X179936250Y-137239986D01*
X180040759Y-137226228D01*
X180186838Y-137165720D01*
X180312279Y-137069466D01*
X180408533Y-136944025D01*
X180469041Y-136797946D01*
X180489679Y-136641184D01*
X180488749Y-136634123D01*
X180469041Y-136484423D01*
X180469041Y-136484422D01*
X180408533Y-136338343D01*
X180312279Y-136212902D01*
X180186838Y-136116648D01*
X180040759Y-136056140D01*
X180040757Y-136056139D01*
X179883998Y-136035502D01*
X179883996Y-136035502D01*
X179727236Y-136056139D01*
X179727234Y-136056140D01*
X179581157Y-136116647D01*
X179455715Y-136212902D01*
X179359460Y-136338344D01*
X179298953Y-136484421D01*
X179298952Y-136484423D01*
X179278315Y-136641182D01*
X179278315Y-136641185D01*
X178562000Y-136641185D01*
X178562000Y-93639647D01*
X179279932Y-93639647D01*
X179300569Y-93796406D01*
X179300570Y-93796408D01*
X179361078Y-93942487D01*
X179457332Y-94067928D01*
X179582773Y-94164182D01*
X179728852Y-94224690D01*
X179807233Y-94235009D01*
X179885613Y-94245328D01*
X179885614Y-94245328D01*
X179885615Y-94245328D01*
X179937867Y-94238448D01*
X180042376Y-94224690D01*
X180188455Y-94164182D01*
X180313896Y-94067928D01*
X180410150Y-93942487D01*
X180470658Y-93796408D01*
X180491296Y-93639646D01*
X180488444Y-93617986D01*
X180470658Y-93482885D01*
X180470658Y-93482884D01*
X180410150Y-93336805D01*
X180313896Y-93211364D01*
X180188455Y-93115110D01*
X180042376Y-93054602D01*
X180042374Y-93054601D01*
X179885615Y-93033964D01*
X179885613Y-93033964D01*
X179728853Y-93054601D01*
X179728851Y-93054602D01*
X179582774Y-93115109D01*
X179457332Y-93211364D01*
X179361077Y-93336806D01*
X179300570Y-93482883D01*
X179300569Y-93482885D01*
X179279932Y-93639644D01*
X179279932Y-93639647D01*
X178562000Y-93639647D01*
X178562000Y-89651185D01*
X179278315Y-89651185D01*
X179298952Y-89807944D01*
X179298953Y-89807946D01*
X179359461Y-89954025D01*
X179455715Y-90079466D01*
X179581156Y-90175720D01*
X179727235Y-90236228D01*
X179805615Y-90246546D01*
X179883996Y-90256866D01*
X179883997Y-90256866D01*
X179883998Y-90256866D01*
X179936250Y-90249986D01*
X180040759Y-90236228D01*
X180186838Y-90175720D01*
X180312279Y-90079466D01*
X180408533Y-89954025D01*
X180469041Y-89807946D01*
X180489679Y-89651184D01*
X180469041Y-89494422D01*
X180408533Y-89348343D01*
X180312279Y-89222902D01*
X180186838Y-89126648D01*
X180040759Y-89066140D01*
X180040757Y-89066139D01*
X179883998Y-89045502D01*
X179883996Y-89045502D01*
X179727236Y-89066139D01*
X179727234Y-89066140D01*
X179581157Y-89126647D01*
X179455715Y-89222902D01*
X179359460Y-89348344D01*
X179298953Y-89494421D01*
X179298952Y-89494423D01*
X179278315Y-89651182D01*
X179278315Y-89651185D01*
X178562000Y-89651185D01*
X178562000Y-86614000D01*
X180322424Y-86614000D01*
X180377113Y-86746030D01*
G37*
%TD.AperFunction*%
%TD*%
%TA.AperFunction,Conductor*%
%TO.N,+24V*%
G36*
X148025039Y-60217685D02*
G01*
X148070794Y-60270489D01*
X148082000Y-60322000D01*
X148082000Y-61468000D01*
X150498000Y-61468000D01*
X150565039Y-61487685D01*
X150610794Y-61540489D01*
X150622000Y-61592000D01*
X150622000Y-63376000D01*
X150602315Y-63443039D01*
X150549511Y-63488794D01*
X150498000Y-63500000D01*
X144396000Y-63500000D01*
X144328961Y-63480315D01*
X144283206Y-63427511D01*
X144272000Y-63376000D01*
X144272000Y-60322000D01*
X144291685Y-60254961D01*
X144344489Y-60209206D01*
X144396000Y-60198000D01*
X147958000Y-60198000D01*
X148025039Y-60217685D01*
G37*
%TD.AperFunction*%
%TD*%
%TA.AperFunction,Conductor*%
%TO.N,+5VP*%
G36*
X165186449Y-67837685D02*
G01*
X165207087Y-67854315D01*
X165227733Y-67874961D01*
X165270151Y-67917380D01*
X165270150Y-67917378D01*
X165270155Y-67917383D01*
X165278345Y-67924740D01*
X165290808Y-67934783D01*
X165303270Y-67944825D01*
X165303269Y-67944825D01*
X165374317Y-67981990D01*
X165441349Y-68001673D01*
X165441351Y-68001673D01*
X165441357Y-68001675D01*
X165499255Y-68010000D01*
X166288976Y-68010000D01*
X166319958Y-68013933D01*
X166318827Y-68013640D01*
X166359771Y-68020597D01*
X166366655Y-68021177D01*
X166394189Y-68023500D01*
X166394193Y-68023500D01*
X167361811Y-68023500D01*
X167389344Y-68021177D01*
X167396229Y-68020597D01*
X167437182Y-68013639D01*
X167437178Y-68013640D01*
X167436039Y-68013934D01*
X167467026Y-68010000D01*
X168828976Y-68010000D01*
X168859958Y-68013933D01*
X168858827Y-68013640D01*
X168899771Y-68020597D01*
X168906655Y-68021177D01*
X168934189Y-68023500D01*
X168934193Y-68023500D01*
X169024290Y-68023500D01*
X169091329Y-68043185D01*
X169137084Y-68095989D01*
X169138852Y-68100049D01*
X169147463Y-68120840D01*
X169147464Y-68120841D01*
X169186876Y-68172204D01*
X169212070Y-68237373D01*
X169212500Y-68247690D01*
X169212500Y-68710007D01*
X169217197Y-68753686D01*
X169228402Y-68805193D01*
X169230889Y-68815370D01*
X169230892Y-68815379D01*
X169264648Y-68878724D01*
X169278803Y-68947145D01*
X169263437Y-68997570D01*
X169240509Y-69038560D01*
X169240507Y-69038565D01*
X169220825Y-69105596D01*
X169220822Y-69105608D01*
X169212500Y-69163495D01*
X169212500Y-69520500D01*
X169192815Y-69587539D01*
X169140011Y-69633294D01*
X169088500Y-69644500D01*
X168525992Y-69644500D01*
X168482313Y-69649197D01*
X168430807Y-69660402D01*
X168420629Y-69662889D01*
X168420624Y-69662891D01*
X168339916Y-69705899D01*
X168339913Y-69705901D01*
X168295244Y-69744607D01*
X168287111Y-69751655D01*
X168269159Y-69769243D01*
X168269154Y-69769249D01*
X168224511Y-69849059D01*
X168224509Y-69849064D01*
X168204826Y-69916096D01*
X168196500Y-69974003D01*
X168196500Y-74130381D01*
X168196957Y-74143049D01*
X168196958Y-74143052D01*
X168209846Y-74207613D01*
X168234322Y-74273055D01*
X168262400Y-74324366D01*
X168377200Y-74477433D01*
X168401676Y-74542874D01*
X168402000Y-74551831D01*
X168402000Y-75184000D01*
X176847778Y-78164862D01*
X176904443Y-78205737D01*
X176908845Y-78211772D01*
X178286338Y-80225029D01*
X178307948Y-80291473D01*
X178308000Y-80295050D01*
X178308000Y-86614000D01*
X175768000Y-86614000D01*
X175768000Y-81533999D01*
X164415948Y-76993179D01*
X164361014Y-76950005D01*
X164338142Y-76883984D01*
X164338000Y-76878048D01*
X164338000Y-67942000D01*
X164357685Y-67874961D01*
X164410489Y-67829206D01*
X164462000Y-67818000D01*
X165119410Y-67818000D01*
X165186449Y-67837685D01*
G37*
%TD.AperFunction*%
%TD*%
%TA.AperFunction,Conductor*%
%TO.N,SLOT A 24V*%
G36*
X188468000Y-86614001D02*
G01*
X188468000Y-237366000D01*
X188448315Y-237433039D01*
X188395511Y-237478794D01*
X188344000Y-237490000D01*
X182750000Y-237490000D01*
X182682961Y-237470315D01*
X182637206Y-237417511D01*
X182626000Y-237366000D01*
X182626000Y-235392387D01*
X182645685Y-235325348D01*
X182698489Y-235279593D01*
X182766184Y-235269448D01*
X182818339Y-235276314D01*
X182889106Y-235285631D01*
X182889107Y-235285631D01*
X182889108Y-235285631D01*
X182941361Y-235278751D01*
X183045869Y-235264993D01*
X183191948Y-235204485D01*
X183317389Y-235108231D01*
X183413643Y-234982790D01*
X183474151Y-234836711D01*
X183494789Y-234679949D01*
X183474151Y-234523187D01*
X183413643Y-234377108D01*
X183317389Y-234251667D01*
X183191948Y-234155413D01*
X183045869Y-234094905D01*
X183045867Y-234094904D01*
X182889108Y-234074267D01*
X182889105Y-234074267D01*
X182766184Y-234090449D01*
X182697149Y-234079683D01*
X182644894Y-234033303D01*
X182626000Y-233967510D01*
X182626000Y-231404137D01*
X182645685Y-231337098D01*
X182698489Y-231291343D01*
X182766182Y-231281198D01*
X182887490Y-231297169D01*
X182887491Y-231297169D01*
X182939743Y-231290289D01*
X183044252Y-231276531D01*
X183190331Y-231216023D01*
X183315772Y-231119769D01*
X183412026Y-230994328D01*
X183472534Y-230848249D01*
X183493172Y-230691487D01*
X183472534Y-230534725D01*
X183412026Y-230388646D01*
X183315772Y-230263205D01*
X183190331Y-230166951D01*
X183044252Y-230106443D01*
X183044250Y-230106442D01*
X182887491Y-230085805D01*
X182887489Y-230085805D01*
X182766185Y-230101775D01*
X182697150Y-230091009D01*
X182644894Y-230044629D01*
X182626000Y-229978836D01*
X182626000Y-188377010D01*
X182645685Y-188309971D01*
X182698489Y-188264216D01*
X182766182Y-188254071D01*
X182891738Y-188270601D01*
X182891739Y-188270601D01*
X182943992Y-188263721D01*
X183048500Y-188249963D01*
X183194579Y-188189455D01*
X183320020Y-188093201D01*
X183416274Y-187967760D01*
X183476782Y-187821681D01*
X183497420Y-187664919D01*
X183476782Y-187508157D01*
X183416274Y-187362078D01*
X183320020Y-187236637D01*
X183194579Y-187140383D01*
X183048500Y-187079875D01*
X183048498Y-187079874D01*
X182891739Y-187059237D01*
X182891737Y-187059237D01*
X182766185Y-187075766D01*
X182697150Y-187065000D01*
X182644894Y-187018620D01*
X182626000Y-186952827D01*
X182626000Y-184388761D01*
X182645685Y-184321722D01*
X182698489Y-184275967D01*
X182766183Y-184265822D01*
X182890121Y-184282139D01*
X182890122Y-184282139D01*
X182942374Y-184275259D01*
X183046883Y-184261501D01*
X183192962Y-184200993D01*
X183318403Y-184104739D01*
X183414657Y-183979298D01*
X183475165Y-183833219D01*
X183495803Y-183676457D01*
X183475165Y-183519695D01*
X183414657Y-183373616D01*
X183318403Y-183248175D01*
X183192962Y-183151921D01*
X183046883Y-183091413D01*
X183046881Y-183091412D01*
X182890122Y-183070775D01*
X182890120Y-183070775D01*
X182766185Y-183087091D01*
X182697150Y-183076325D01*
X182644894Y-183029945D01*
X182626000Y-182964152D01*
X182626000Y-141353886D01*
X182645685Y-141286847D01*
X182698489Y-141241092D01*
X182766184Y-141230947D01*
X182831075Y-141239490D01*
X182881616Y-141246144D01*
X182881617Y-141246144D01*
X182881618Y-141246144D01*
X182933871Y-141239264D01*
X183038379Y-141225506D01*
X183184458Y-141164998D01*
X183309899Y-141068744D01*
X183406153Y-140943303D01*
X183466661Y-140797224D01*
X183487299Y-140640462D01*
X183466661Y-140483700D01*
X183406153Y-140337621D01*
X183309899Y-140212180D01*
X183184458Y-140115926D01*
X183038379Y-140055418D01*
X183038377Y-140055417D01*
X182881618Y-140034780D01*
X182881615Y-140034780D01*
X182766184Y-140049976D01*
X182697149Y-140039210D01*
X182644894Y-139992830D01*
X182626000Y-139927037D01*
X182626000Y-137365636D01*
X182645685Y-137298597D01*
X182698489Y-137252842D01*
X182766181Y-137242697D01*
X182880000Y-137257682D01*
X182880001Y-137257682D01*
X182932253Y-137250802D01*
X183036762Y-137237044D01*
X183182841Y-137176536D01*
X183308282Y-137080282D01*
X183404536Y-136954841D01*
X183465044Y-136808762D01*
X183485682Y-136652000D01*
X183465044Y-136495238D01*
X183404536Y-136349159D01*
X183308282Y-136223718D01*
X183182841Y-136127464D01*
X183036762Y-136066956D01*
X183036760Y-136066955D01*
X182880001Y-136046318D01*
X182879999Y-136046318D01*
X182766185Y-136061302D01*
X182697150Y-136050536D01*
X182644894Y-136004156D01*
X182626000Y-135938363D01*
X182626000Y-94363886D01*
X182645685Y-94296847D01*
X182698489Y-94251092D01*
X182766184Y-94240947D01*
X182831075Y-94249490D01*
X182881616Y-94256144D01*
X182881617Y-94256144D01*
X182881618Y-94256144D01*
X182933871Y-94249264D01*
X183038379Y-94235506D01*
X183184458Y-94174998D01*
X183309899Y-94078744D01*
X183406153Y-93953303D01*
X183466661Y-93807224D01*
X183487299Y-93650462D01*
X183466661Y-93493700D01*
X183406153Y-93347621D01*
X183309899Y-93222180D01*
X183184458Y-93125926D01*
X183038379Y-93065418D01*
X183038377Y-93065417D01*
X182881618Y-93044780D01*
X182881615Y-93044780D01*
X182766184Y-93059976D01*
X182697149Y-93049210D01*
X182644894Y-93002830D01*
X182626000Y-92937037D01*
X182626000Y-90375636D01*
X182645685Y-90308597D01*
X182698489Y-90262842D01*
X182766181Y-90252697D01*
X182880000Y-90267682D01*
X182880001Y-90267682D01*
X182932254Y-90260802D01*
X183036762Y-90247044D01*
X183182841Y-90186536D01*
X183308282Y-90090282D01*
X183404536Y-89964841D01*
X183465044Y-89818762D01*
X183485682Y-89662000D01*
X183465044Y-89505238D01*
X183404536Y-89359159D01*
X183308282Y-89233718D01*
X183182841Y-89137464D01*
X183036762Y-89076956D01*
X183036760Y-89076955D01*
X182880001Y-89056318D01*
X182879999Y-89056318D01*
X182766185Y-89071302D01*
X182697150Y-89060536D01*
X182644894Y-89014156D01*
X182626000Y-88948363D01*
X182626000Y-86645619D01*
X182634063Y-86614000D01*
X188468000Y-86614000D01*
X188468000Y-86614001D01*
G37*
%TD.AperFunction*%
%TD*%
%TA.AperFunction,Conductor*%
%TO.N,+5VP*%
G36*
X178308000Y-89513808D02*
G01*
X178298561Y-89561261D01*
X178295332Y-89569055D01*
X178274694Y-89725817D01*
X178274694Y-89725820D01*
X178295331Y-89882579D01*
X178295332Y-89882581D01*
X178298560Y-89890373D01*
X178308000Y-89937828D01*
X178308000Y-93491643D01*
X178307469Y-93499745D01*
X178290702Y-93627101D01*
X178290702Y-93627103D01*
X178307469Y-93754459D01*
X178308000Y-93762561D01*
X178307999Y-136630760D01*
X178307468Y-136638860D01*
X178298914Y-136703840D01*
X178298914Y-136703843D01*
X178307469Y-136768823D01*
X178308000Y-136776925D01*
X178308000Y-183620760D01*
X178307469Y-183628862D01*
X178298914Y-183693842D01*
X178298914Y-183693843D01*
X178307469Y-183758823D01*
X178308000Y-183766925D01*
X178308000Y-230532061D01*
X178300393Y-230570308D01*
X178301142Y-230570509D01*
X178299038Y-230578360D01*
X178278400Y-230735124D01*
X178278400Y-230735127D01*
X178299037Y-230891886D01*
X178301142Y-230899739D01*
X178300391Y-230899940D01*
X178308000Y-230938188D01*
X178308000Y-234529100D01*
X178307469Y-234537202D01*
X178294408Y-234636408D01*
X178294408Y-234636410D01*
X178307469Y-234735616D01*
X178308000Y-234743718D01*
X178308000Y-237366000D01*
X178288315Y-237433039D01*
X178235511Y-237478794D01*
X178184000Y-237490000D01*
X175892000Y-237490000D01*
X175824961Y-237470315D01*
X175779206Y-237417511D01*
X175768000Y-237366000D01*
X175768000Y-86614000D01*
X178308000Y-86614000D01*
X178308000Y-89513808D01*
G37*
%TD.AperFunction*%
%TD*%
%TA.AperFunction,Conductor*%
%TO.N,+3.3VP*%
G36*
X176108448Y-68091685D02*
G01*
X176129090Y-68108319D01*
X176143151Y-68122380D01*
X176143150Y-68122378D01*
X176143155Y-68122383D01*
X176151345Y-68129740D01*
X176163808Y-68139783D01*
X176176270Y-68149825D01*
X176176269Y-68149825D01*
X176247317Y-68186990D01*
X176314349Y-68206673D01*
X176314351Y-68206673D01*
X176314357Y-68206675D01*
X176372255Y-68215000D01*
X177200558Y-68215000D01*
X177241511Y-68221958D01*
X177265946Y-68230508D01*
X177311478Y-68246440D01*
X177316863Y-68250302D01*
X177333466Y-68254420D01*
X177339022Y-68256077D01*
X177350777Y-68260190D01*
X177352092Y-68259974D01*
X177366829Y-68262696D01*
X177402148Y-68271456D01*
X177402153Y-68271457D01*
X177409036Y-68272297D01*
X177451624Y-68277500D01*
X177451625Y-68277500D01*
X178148376Y-68277500D01*
X178197847Y-68271456D01*
X178233177Y-68262693D01*
X178241111Y-68263029D01*
X178260998Y-68256071D01*
X178266552Y-68254415D01*
X178274475Y-68252449D01*
X178274711Y-68252233D01*
X178288537Y-68246434D01*
X178308186Y-68239558D01*
X178358489Y-68221958D01*
X178399442Y-68215000D01*
X179740558Y-68215000D01*
X179781511Y-68221958D01*
X179805946Y-68230508D01*
X179851478Y-68246440D01*
X179856863Y-68250302D01*
X179873466Y-68254420D01*
X179879022Y-68256077D01*
X179890777Y-68260190D01*
X179892092Y-68259974D01*
X179906829Y-68262696D01*
X179942145Y-68271455D01*
X179942146Y-68271455D01*
X179942154Y-68271457D01*
X179959309Y-68273552D01*
X180023465Y-68301217D01*
X180058836Y-68349184D01*
X180069462Y-68374838D01*
X180069464Y-68374841D01*
X180108876Y-68426204D01*
X180134070Y-68491373D01*
X180134500Y-68501690D01*
X180134500Y-68964007D01*
X180139197Y-69007686D01*
X180150402Y-69059193D01*
X180152889Y-69069370D01*
X180152892Y-69069379D01*
X180186649Y-69132726D01*
X180200804Y-69201147D01*
X180185438Y-69251573D01*
X180162511Y-69292562D01*
X180162509Y-69292564D01*
X180142826Y-69359596D01*
X180134500Y-69417503D01*
X180134500Y-69774500D01*
X180114815Y-69841539D01*
X180062011Y-69887294D01*
X180010500Y-69898500D01*
X179447992Y-69898500D01*
X179404313Y-69903197D01*
X179352807Y-69914402D01*
X179342629Y-69916889D01*
X179342624Y-69916891D01*
X179261916Y-69959899D01*
X179261913Y-69959901D01*
X179228250Y-69989071D01*
X179209111Y-70005655D01*
X179191159Y-70023243D01*
X179191154Y-70023249D01*
X179146511Y-70103059D01*
X179146509Y-70103064D01*
X179126826Y-70170096D01*
X179118500Y-70228003D01*
X179118500Y-74639338D01*
X179118526Y-74642316D01*
X179118526Y-74642325D01*
X179127842Y-74701737D01*
X179148651Y-74768440D01*
X179173838Y-74821227D01*
X179561830Y-75403215D01*
X179624203Y-75496774D01*
X179651106Y-75529311D01*
X179687241Y-75564843D01*
X179693609Y-75570843D01*
X179773426Y-75615490D01*
X179795362Y-75621931D01*
X179854138Y-75659703D01*
X179860701Y-75667964D01*
X181332283Y-77691389D01*
X181355794Y-77757184D01*
X181356000Y-77764322D01*
X181356000Y-85795831D01*
X181336315Y-85862870D01*
X181283511Y-85908625D01*
X181214353Y-85918569D01*
X181184548Y-85910392D01*
X181058414Y-85858146D01*
X181058409Y-85858144D01*
X180901650Y-85837507D01*
X180901648Y-85837507D01*
X180744888Y-85858144D01*
X180744886Y-85858145D01*
X180598809Y-85918652D01*
X180473367Y-86014907D01*
X180377112Y-86140349D01*
X180316605Y-86286426D01*
X180316604Y-86286428D01*
X180295967Y-86443187D01*
X180295967Y-86443190D01*
X180316604Y-86599949D01*
X180316605Y-86599951D01*
X180322424Y-86614000D01*
X178562000Y-86614000D01*
X178562000Y-80263999D01*
X175281662Y-75469659D01*
X175260052Y-75403215D01*
X175260000Y-75399638D01*
X175260000Y-68196000D01*
X175279685Y-68128961D01*
X175332489Y-68083206D01*
X175384000Y-68072000D01*
X176041409Y-68072000D01*
X176108448Y-68091685D01*
G37*
%TD.AperFunction*%
%TD*%
%TA.AperFunction,Conductor*%
%TO.N,SLOT A 24V*%
G36*
X197809039Y-67075685D02*
G01*
X197854794Y-67128489D01*
X197866000Y-67180000D01*
X197866000Y-73282000D01*
X197846315Y-73349039D01*
X197793511Y-73394794D01*
X197742000Y-73406000D01*
X192532000Y-73406000D01*
X192532000Y-78203524D01*
X192519577Y-78257622D01*
X188468000Y-86613998D01*
X188468000Y-86614000D01*
X182634063Y-86614000D01*
X182641141Y-86586241D01*
X188722000Y-75438000D01*
X188722000Y-71967055D01*
X191844500Y-71967055D01*
X191885210Y-72132226D01*
X191887583Y-72138483D01*
X191894113Y-72163053D01*
X191910279Y-72265122D01*
X191910280Y-72265125D01*
X191910281Y-72265126D01*
X191955765Y-72354394D01*
X191971473Y-72385221D01*
X191971476Y-72385225D01*
X192066774Y-72480523D01*
X192066778Y-72480526D01*
X192066780Y-72480528D01*
X192186874Y-72541719D01*
X192186876Y-72541719D01*
X192186878Y-72541720D01*
X192286507Y-72557500D01*
X192286512Y-72557500D01*
X192327986Y-72557500D01*
X192371955Y-72565557D01*
X192376128Y-72567140D01*
X192452028Y-72576356D01*
X192502626Y-72582500D01*
X192502628Y-72582500D01*
X193844374Y-72582500D01*
X193886538Y-72577380D01*
X193970872Y-72567140D01*
X194129930Y-72506818D01*
X194269929Y-72410183D01*
X194382734Y-72282852D01*
X194392038Y-72265126D01*
X194450630Y-72153488D01*
X194461790Y-72132225D01*
X194502500Y-71967056D01*
X194502500Y-71796944D01*
X194461790Y-71631775D01*
X194392040Y-71498878D01*
X194382736Y-71481150D01*
X194325709Y-71416780D01*
X194269929Y-71353817D01*
X194220177Y-71319475D01*
X194129931Y-71257182D01*
X193970874Y-71196860D01*
X193970868Y-71196859D01*
X193844374Y-71181500D01*
X193844372Y-71181500D01*
X192502628Y-71181500D01*
X192502626Y-71181500D01*
X192376131Y-71196859D01*
X192376128Y-71196860D01*
X192371955Y-71198442D01*
X192327986Y-71206500D01*
X192286507Y-71206500D01*
X192186878Y-71222279D01*
X192066778Y-71283473D01*
X192066774Y-71283476D01*
X191971476Y-71378774D01*
X191971473Y-71378778D01*
X191910279Y-71498878D01*
X191894113Y-71600945D01*
X191887586Y-71625506D01*
X191885212Y-71631767D01*
X191844500Y-71796944D01*
X191844500Y-71967055D01*
X188722000Y-71967055D01*
X188722000Y-71243999D01*
X188741685Y-71176961D01*
X188794489Y-71131206D01*
X188846000Y-71120000D01*
X190246000Y-71120000D01*
X190246000Y-67464808D01*
X190265685Y-67397769D01*
X190282316Y-67377129D01*
X190567127Y-67092318D01*
X190628450Y-67058834D01*
X190654808Y-67056000D01*
X197742000Y-67056000D01*
X197809039Y-67075685D01*
G37*
%TD.AperFunction*%
%TD*%
%TA.AperFunction,Conductor*%
%TO.N,+3.3V*%
G36*
X167329039Y-121685685D02*
G01*
X167374794Y-121738489D01*
X167386000Y-121790000D01*
X167386000Y-123392638D01*
X167366315Y-123459677D01*
X167349681Y-123480319D01*
X164628319Y-126201681D01*
X164566996Y-126235166D01*
X164540638Y-126238000D01*
X157096000Y-126238000D01*
X157028961Y-126218315D01*
X156983206Y-126165511D01*
X156972000Y-126114000D01*
X156972000Y-121790000D01*
X156991685Y-121722961D01*
X157044489Y-121677206D01*
X157096000Y-121666000D01*
X167262000Y-121666000D01*
X167329039Y-121685685D01*
G37*
%TD.AperFunction*%
%TD*%
%TA.AperFunction,Conductor*%
%TO.N,Net-(U26-SW)*%
G36*
X182796670Y-67401185D02*
G01*
X182842425Y-67453989D01*
X182852369Y-67523147D01*
X182841032Y-67559959D01*
X182831428Y-67579604D01*
X182831425Y-67579611D01*
X182821500Y-67647739D01*
X182821500Y-68739260D01*
X182831426Y-68807391D01*
X182867401Y-68880979D01*
X182880000Y-68935439D01*
X182880000Y-69724889D01*
X182860315Y-69791928D01*
X182843681Y-69812570D01*
X182789476Y-69866774D01*
X182789473Y-69866778D01*
X182728279Y-69986878D01*
X182712500Y-70086506D01*
X182712500Y-70603493D01*
X182728279Y-70703121D01*
X182728280Y-70703124D01*
X182728281Y-70703126D01*
X182789472Y-70823220D01*
X182843682Y-70877430D01*
X182877166Y-70938751D01*
X182880000Y-70965110D01*
X182880000Y-71120000D01*
X184026000Y-71120000D01*
X184093039Y-71139685D01*
X184138794Y-71192489D01*
X184150000Y-71244000D01*
X184150000Y-75314000D01*
X184130315Y-75381039D01*
X184077511Y-75426794D01*
X184026000Y-75438000D01*
X179898363Y-75438000D01*
X179831324Y-75418315D01*
X179795189Y-75382783D01*
X179344826Y-74707238D01*
X179324018Y-74640539D01*
X179324000Y-74638455D01*
X179324000Y-70228000D01*
X179343685Y-70160961D01*
X179396489Y-70115206D01*
X179448000Y-70104000D01*
X180340000Y-70104000D01*
X180340000Y-69417500D01*
X180359685Y-69350461D01*
X180412489Y-69304706D01*
X180464000Y-69293500D01*
X181485991Y-69293500D01*
X181486000Y-69293500D01*
X181529684Y-69288803D01*
X181555439Y-69283200D01*
X181581193Y-69277598D01*
X181585374Y-69276575D01*
X181591373Y-69275110D01*
X181672085Y-69232100D01*
X181724889Y-69186345D01*
X181742843Y-69168754D01*
X181752515Y-69151462D01*
X181802423Y-69102566D01*
X181860734Y-69088000D01*
X181864000Y-69088000D01*
X181864000Y-68935439D01*
X181876599Y-68880979D01*
X181888500Y-68856635D01*
X181912573Y-68807393D01*
X181922500Y-68739260D01*
X181922500Y-67647740D01*
X181912573Y-67579607D01*
X181902968Y-67559959D01*
X181891210Y-67491085D01*
X181918554Y-67426789D01*
X181976319Y-67387482D01*
X182014369Y-67381500D01*
X182729631Y-67381500D01*
X182796670Y-67401185D01*
G37*
%TD.AperFunction*%
%TD*%
%TA.AperFunction,Conductor*%
%TO.N,GND*%
G36*
X196793039Y-53105685D02*
G01*
X196838794Y-53158489D01*
X196850000Y-53210000D01*
X196850000Y-55248000D01*
X196830315Y-55315039D01*
X196777511Y-55360794D01*
X196726000Y-55372000D01*
X191386000Y-55372000D01*
X191318961Y-55352315D01*
X191273206Y-55299511D01*
X191262000Y-55248000D01*
X191262000Y-53210000D01*
X191281685Y-53142961D01*
X191334489Y-53097206D01*
X191386000Y-53086000D01*
X196726000Y-53086000D01*
X196793039Y-53105685D01*
G37*
%TD.AperFunction*%
%TD*%
%TA.AperFunction,Conductor*%
%TO.N,Net-(U24-EN)*%
G36*
X159455039Y-59963685D02*
G01*
X159500794Y-60016489D01*
X159512000Y-60068000D01*
X159512000Y-63678500D01*
X159492315Y-63745539D01*
X159439511Y-63791294D01*
X159388000Y-63802500D01*
X159127992Y-63802500D01*
X159084313Y-63807197D01*
X159032807Y-63818402D01*
X159022629Y-63820889D01*
X159022624Y-63820891D01*
X158941916Y-63863899D01*
X158941913Y-63863901D01*
X158897244Y-63902607D01*
X158889111Y-63909655D01*
X158871159Y-63927243D01*
X158871154Y-63927249D01*
X158826511Y-64007059D01*
X158826509Y-64007064D01*
X158806826Y-64074096D01*
X158806825Y-64074101D01*
X158806825Y-64074102D01*
X158805861Y-64080811D01*
X158798500Y-64132003D01*
X158798500Y-64948500D01*
X158778815Y-65015539D01*
X158726011Y-65061294D01*
X158674500Y-65072500D01*
X157426004Y-65072500D01*
X157358965Y-65052815D01*
X157313210Y-65000011D01*
X157303266Y-64930853D01*
X157319887Y-64884351D01*
X157321877Y-64881058D01*
X157391693Y-64725935D01*
X157391695Y-64725930D01*
X157412197Y-64614056D01*
X157422358Y-64558606D01*
X157412086Y-64388804D01*
X157361478Y-64226394D01*
X157273472Y-64080815D01*
X157273470Y-64080813D01*
X157273469Y-64080811D01*
X157262319Y-64069661D01*
X157228834Y-64008338D01*
X157226000Y-63981980D01*
X157226000Y-63754000D01*
X155064000Y-63754000D01*
X154996961Y-63734315D01*
X154951206Y-63681511D01*
X154940000Y-63630000D01*
X154940000Y-60068000D01*
X154959685Y-60000961D01*
X155012489Y-59955206D01*
X155064000Y-59944000D01*
X159388000Y-59944000D01*
X159455039Y-59963685D01*
G37*
%TD.AperFunction*%
%TD*%
%TA.AperFunction,Conductor*%
%TO.N,GND*%
G36*
X189983539Y-59455685D02*
G01*
X190029294Y-59508489D01*
X190040500Y-59560000D01*
X190040500Y-59715128D01*
X190046542Y-59764590D01*
X190048232Y-59771406D01*
X190048228Y-59771477D01*
X190055293Y-59799918D01*
X190054959Y-59807835D01*
X190061918Y-59827724D01*
X190063575Y-59833280D01*
X190065547Y-59841231D01*
X190065771Y-59841475D01*
X190071564Y-59855294D01*
X190082999Y-59887981D01*
X190083013Y-59888008D01*
X190096040Y-59925234D01*
X190103000Y-59966192D01*
X190103000Y-61307309D01*
X190096041Y-61348265D01*
X190083009Y-61385507D01*
X190082994Y-61385527D01*
X190071553Y-61418238D01*
X190067696Y-61423616D01*
X190063580Y-61440215D01*
X190061923Y-61445770D01*
X190057802Y-61457547D01*
X190058015Y-61458841D01*
X190055277Y-61473625D01*
X190048296Y-61501690D01*
X190048252Y-61502017D01*
X190046542Y-61508910D01*
X190040500Y-61558375D01*
X190040500Y-66423991D01*
X190040678Y-66427308D01*
X190040500Y-66427317D01*
X190040500Y-66427321D01*
X190040436Y-66427321D01*
X190039091Y-66427393D01*
X190027736Y-66490002D01*
X190004584Y-66522076D01*
X188290826Y-68235835D01*
X188229503Y-68269320D01*
X188203145Y-68272154D01*
X188041847Y-68272154D01*
X187983370Y-68283785D01*
X187983369Y-68283786D01*
X187951469Y-68305102D01*
X187884792Y-68325980D01*
X187882578Y-68326000D01*
X187576000Y-68326000D01*
X187508961Y-68306315D01*
X187463206Y-68253511D01*
X187452000Y-68202000D01*
X187452000Y-64894000D01*
X187471685Y-64826961D01*
X187524489Y-64781206D01*
X187576000Y-64770000D01*
X188722000Y-64770000D01*
X188722000Y-64723716D01*
X188741685Y-64656677D01*
X188758322Y-64636032D01*
X188764948Y-64629404D01*
X188764952Y-64629402D01*
X188809267Y-64563081D01*
X188809267Y-64563079D01*
X188809268Y-64563079D01*
X188820899Y-64504602D01*
X188820900Y-64504598D01*
X188820900Y-63003402D01*
X188820820Y-63003002D01*
X188809268Y-62944920D01*
X188809267Y-62944918D01*
X188764951Y-62878596D01*
X188758316Y-62871961D01*
X188724833Y-62810637D01*
X188722000Y-62784283D01*
X188722000Y-59560000D01*
X188741685Y-59492961D01*
X188794489Y-59447206D01*
X188846000Y-59436000D01*
X189916500Y-59436000D01*
X189983539Y-59455685D01*
G37*
%TD.AperFunction*%
%TD*%
%TA.AperFunction,Conductor*%
%TO.N,GND*%
G36*
X203651039Y-56661685D02*
G01*
X203696794Y-56714489D01*
X203708000Y-56766000D01*
X203708000Y-59944000D01*
X204724000Y-60960000D01*
X205870000Y-60960000D01*
X205937039Y-60979685D01*
X205982794Y-61032489D01*
X205994000Y-61084000D01*
X205994000Y-63630000D01*
X205974315Y-63697039D01*
X205921511Y-63742794D01*
X205870000Y-63754000D01*
X199898000Y-63754000D01*
X199514000Y-63754000D01*
X199446961Y-63734315D01*
X199401206Y-63681511D01*
X199390000Y-63630000D01*
X199390000Y-56766000D01*
X199409685Y-56698961D01*
X199462489Y-56653206D01*
X199514000Y-56642000D01*
X203584000Y-56642000D01*
X203651039Y-56661685D01*
G37*
%TD.AperFunction*%
%TD*%
%TA.AperFunction,Conductor*%
%TO.N,GND*%
G36*
X145739039Y-57169685D02*
G01*
X145784794Y-57222489D01*
X145796000Y-57274000D01*
X145796000Y-58928000D01*
X148082000Y-58928000D01*
X148082000Y-58544000D01*
X148101685Y-58476961D01*
X148154489Y-58431206D01*
X148206000Y-58420000D01*
X150498000Y-58420000D01*
X150565039Y-58439685D01*
X150610794Y-58492489D01*
X150622000Y-58544000D01*
X150622000Y-61090000D01*
X150602315Y-61157039D01*
X150549511Y-61202794D01*
X150498000Y-61214000D01*
X148460000Y-61214000D01*
X148392961Y-61194315D01*
X148347206Y-61141511D01*
X148336000Y-61090000D01*
X148336000Y-59944000D01*
X144013452Y-59944000D01*
X143946413Y-59924315D01*
X143925771Y-59907681D01*
X143281942Y-59263852D01*
X142276319Y-58258228D01*
X142242834Y-58196905D01*
X142240000Y-58170547D01*
X142240000Y-57274000D01*
X142259685Y-57206961D01*
X142312489Y-57161206D01*
X142364000Y-57150000D01*
X145672000Y-57150000D01*
X145739039Y-57169685D01*
G37*
%TD.AperFunction*%
%TD*%
%TA.AperFunction,Conductor*%
%TO.N,+24V*%
G36*
X198063039Y-56915685D02*
G01*
X198108794Y-56968489D01*
X198120000Y-57020000D01*
X198120000Y-66424000D01*
X198100315Y-66491039D01*
X198047511Y-66536794D01*
X197996000Y-66548000D01*
X190370000Y-66548000D01*
X190302961Y-66528315D01*
X190257206Y-66475511D01*
X190246000Y-66424000D01*
X190246000Y-61558375D01*
X190258340Y-61508620D01*
X190257724Y-61508405D01*
X190260024Y-61501829D01*
X190260372Y-61500430D01*
X190260787Y-61499641D01*
X190260793Y-61499634D01*
X190287704Y-61422724D01*
X190305646Y-61371453D01*
X190305646Y-61371451D01*
X190308500Y-61341021D01*
X190308500Y-59932482D01*
X190305646Y-59902055D01*
X190305646Y-59902053D01*
X190260793Y-59773870D01*
X190260791Y-59773868D01*
X190260791Y-59773866D01*
X190260369Y-59773067D01*
X190260021Y-59771666D01*
X190257724Y-59765100D01*
X190258339Y-59764884D01*
X190246000Y-59715127D01*
X190246000Y-57020000D01*
X190265685Y-56952961D01*
X190318489Y-56907206D01*
X190370000Y-56896000D01*
X197996000Y-56896000D01*
X198063039Y-56915685D01*
G37*
%TD.AperFunction*%
%TD*%
%TA.AperFunction,Conductor*%
%TO.N,Net-(U1-EN)*%
G36*
X139500944Y-59947830D02*
G01*
X139501057Y-59947119D01*
X139510694Y-59948645D01*
X139510696Y-59948646D01*
X139532582Y-59952112D01*
X139551497Y-59956653D01*
X139572567Y-59963500D01*
X139604481Y-59963500D01*
X140345132Y-59963500D01*
X140412171Y-59983185D01*
X140414023Y-59984398D01*
X140484167Y-60031267D01*
X140484168Y-60031268D01*
X140542645Y-60042899D01*
X140542648Y-60042900D01*
X140542650Y-60042900D01*
X142043848Y-60042900D01*
X142043849Y-60042899D01*
X142058666Y-60039952D01*
X142102327Y-60031268D01*
X142102327Y-60031267D01*
X142102329Y-60031267D01*
X142168650Y-59986952D01*
X142168650Y-59986951D01*
X142175284Y-59980319D01*
X142236607Y-59946834D01*
X142262965Y-59944000D01*
X142777944Y-59944000D01*
X142844983Y-59963685D01*
X142865625Y-59980318D01*
X143956648Y-61071342D01*
X143981680Y-61096374D01*
X144015166Y-61157694D01*
X144018000Y-61184055D01*
X144018000Y-63376000D01*
X143998315Y-63443039D01*
X143945511Y-63488794D01*
X143894000Y-63500000D01*
X138300000Y-63500000D01*
X138232961Y-63480315D01*
X138187206Y-63427511D01*
X138176000Y-63376000D01*
X138176000Y-60068000D01*
X138195685Y-60000961D01*
X138248489Y-59955206D01*
X138300000Y-59944000D01*
X139476757Y-59944000D01*
X139500944Y-59947830D01*
G37*
%TD.AperFunction*%
%TD*%
%TA.AperFunction,Conductor*%
%TO.N,Net-(U24-SW)*%
G36*
X171874670Y-67295685D02*
G01*
X171920425Y-67348489D01*
X171930369Y-67417647D01*
X171919032Y-67454459D01*
X171909428Y-67474104D01*
X171909425Y-67474111D01*
X171899500Y-67542239D01*
X171899500Y-68633760D01*
X171909426Y-68701891D01*
X171945401Y-68775479D01*
X171958000Y-68829939D01*
X171958000Y-69519889D01*
X171938315Y-69586928D01*
X171921681Y-69607570D01*
X171867476Y-69661774D01*
X171867473Y-69661778D01*
X171806279Y-69781878D01*
X171790500Y-69881506D01*
X171790500Y-70398493D01*
X171806279Y-70498121D01*
X171806280Y-70498124D01*
X171806281Y-70498126D01*
X171867472Y-70618220D01*
X171921682Y-70672430D01*
X171955166Y-70733751D01*
X171958000Y-70760109D01*
X171958000Y-70866000D01*
X173104000Y-70866000D01*
X173171039Y-70885685D01*
X173216794Y-70938489D01*
X173228000Y-70990000D01*
X173228000Y-75060000D01*
X173208315Y-75127039D01*
X173155511Y-75172794D01*
X173104000Y-75184000D01*
X169226000Y-75184000D01*
X169158961Y-75164315D01*
X169126800Y-75134400D01*
X168426800Y-74201066D01*
X168402324Y-74135624D01*
X168402000Y-74126666D01*
X168402000Y-69974000D01*
X168421685Y-69906961D01*
X168474489Y-69861206D01*
X168526000Y-69850000D01*
X169417999Y-69850000D01*
X169418000Y-69850000D01*
X169418000Y-69163496D01*
X169437683Y-69096461D01*
X169490487Y-69050706D01*
X169541999Y-69039500D01*
X170563991Y-69039500D01*
X170564000Y-69039500D01*
X170607684Y-69034803D01*
X170633439Y-69029200D01*
X170659193Y-69023598D01*
X170663374Y-69022575D01*
X170669373Y-69021110D01*
X170750085Y-68978100D01*
X170802889Y-68932345D01*
X170820843Y-68914754D01*
X170820843Y-68914752D01*
X170822071Y-68913550D01*
X170854403Y-68890715D01*
X170856479Y-68889700D01*
X170856479Y-68889699D01*
X170856483Y-68889698D01*
X170875862Y-68870319D01*
X170937185Y-68836834D01*
X170939404Y-68836595D01*
X170941999Y-68834000D01*
X170942000Y-68834000D01*
X170942000Y-68829939D01*
X170954599Y-68775479D01*
X170966500Y-68751135D01*
X170990573Y-68701893D01*
X171000500Y-68633760D01*
X171000500Y-67542240D01*
X170990573Y-67474107D01*
X170980968Y-67454459D01*
X170969210Y-67385585D01*
X170996554Y-67321289D01*
X171054319Y-67281982D01*
X171092369Y-67276000D01*
X171807631Y-67276000D01*
X171874670Y-67295685D01*
G37*
%TD.AperFunction*%
%TD*%
%TA.AperFunction,Conductor*%
%TO.N,Net-(U24-EN)*%
G36*
X173171039Y-61995685D02*
G01*
X173216794Y-62048489D01*
X173228000Y-62100000D01*
X173228000Y-64392000D01*
X173208315Y-64459039D01*
X173155511Y-64504794D01*
X173104000Y-64516000D01*
X171958000Y-64516000D01*
X171958000Y-65071060D01*
X171945401Y-65125519D01*
X171909428Y-65199104D01*
X171909425Y-65199111D01*
X171899500Y-65267239D01*
X171899500Y-66170000D01*
X171879815Y-66237039D01*
X171827011Y-66282794D01*
X171775500Y-66294000D01*
X170324500Y-66294000D01*
X170257461Y-66274315D01*
X170211706Y-66221511D01*
X170200500Y-66170000D01*
X170200500Y-65200568D01*
X170200500Y-65200567D01*
X170193652Y-65179491D01*
X170189111Y-65160578D01*
X170185646Y-65138696D01*
X170185645Y-65138695D01*
X170184119Y-65129055D01*
X170184330Y-65129021D01*
X170180000Y-65101680D01*
X170180000Y-64590823D01*
X170199685Y-64523784D01*
X170252489Y-64478029D01*
X170284601Y-64468349D01*
X170314304Y-64463646D01*
X170427342Y-64406050D01*
X170517050Y-64316342D01*
X170574646Y-64203304D01*
X170574646Y-64203302D01*
X170574647Y-64203301D01*
X170589499Y-64109524D01*
X170589500Y-64109519D01*
X170589499Y-63496482D01*
X170574646Y-63402696D01*
X170517050Y-63289658D01*
X170517046Y-63289654D01*
X170517045Y-63289652D01*
X170427347Y-63199954D01*
X170427343Y-63199951D01*
X170427342Y-63199950D01*
X170409991Y-63191109D01*
X170359197Y-63143137D01*
X170354890Y-63133522D01*
X170354727Y-63133606D01*
X170350297Y-63124911D01*
X170337271Y-63106982D01*
X170327106Y-63090394D01*
X170317050Y-63070658D01*
X170296398Y-63050006D01*
X170296380Y-63049986D01*
X170216319Y-62969925D01*
X170182834Y-62908602D01*
X170180000Y-62882244D01*
X170180000Y-62100000D01*
X170199685Y-62032961D01*
X170252489Y-61987206D01*
X170304000Y-61976000D01*
X173104000Y-61976000D01*
X173171039Y-61995685D01*
G37*
%TD.AperFunction*%
%TD*%
%TA.AperFunction,Conductor*%
%TO.N,GND*%
G36*
X168755284Y-64789685D02*
G01*
X168775926Y-64806319D01*
X169363182Y-65393575D01*
X169396666Y-65454896D01*
X169399500Y-65481254D01*
X169399500Y-66638929D01*
X169399501Y-66638939D01*
X169406346Y-66660007D01*
X169410887Y-66678918D01*
X169414354Y-66700804D01*
X169414355Y-66700807D01*
X169424412Y-66720545D01*
X169431857Y-66738518D01*
X169438704Y-66759590D01*
X169451726Y-66777514D01*
X169461890Y-66794100D01*
X169471950Y-66813842D01*
X169492864Y-66834756D01*
X169492893Y-66834787D01*
X169840986Y-67182880D01*
X169841006Y-67182898D01*
X169861658Y-67203550D01*
X169881394Y-67213606D01*
X169897982Y-67223771D01*
X169915910Y-67236796D01*
X169936979Y-67243641D01*
X169954958Y-67251088D01*
X169974696Y-67261146D01*
X169996578Y-67264611D01*
X170015491Y-67269152D01*
X170036567Y-67276000D01*
X170068481Y-67276000D01*
X170564000Y-67276000D01*
X170631039Y-67295685D01*
X170676794Y-67348489D01*
X170688000Y-67400000D01*
X170688000Y-68710000D01*
X170668315Y-68777039D01*
X170615511Y-68822794D01*
X170564000Y-68834000D01*
X169542000Y-68834000D01*
X169474961Y-68814315D01*
X169429206Y-68761511D01*
X169418000Y-68710000D01*
X169418000Y-67818000D01*
X168934193Y-67818000D01*
X168893240Y-67811042D01*
X168882701Y-67807354D01*
X168882694Y-67807353D01*
X168852270Y-67804500D01*
X168852266Y-67804500D01*
X167443734Y-67804500D01*
X167443730Y-67804500D01*
X167413305Y-67807353D01*
X167413298Y-67807354D01*
X167402760Y-67811042D01*
X167361807Y-67818000D01*
X166394193Y-67818000D01*
X166353240Y-67811042D01*
X166342701Y-67807354D01*
X166342694Y-67807353D01*
X166312270Y-67804500D01*
X166312266Y-67804500D01*
X165499255Y-67804500D01*
X165432216Y-67784815D01*
X165411574Y-67768181D01*
X164744819Y-67101425D01*
X164711334Y-67040102D01*
X164708500Y-67013744D01*
X164708500Y-64894000D01*
X164728185Y-64826961D01*
X164780989Y-64781206D01*
X164832500Y-64770000D01*
X168688245Y-64770000D01*
X168755284Y-64789685D01*
G37*
%TD.AperFunction*%
%TD*%
%TA.AperFunction,Conductor*%
%TO.N,Net-(U24-EN)*%
G36*
X184093039Y-62249685D02*
G01*
X184138794Y-62302489D01*
X184150000Y-62354000D01*
X184150000Y-64646000D01*
X184130315Y-64713039D01*
X184077511Y-64758794D01*
X184026000Y-64770000D01*
X182880000Y-64770000D01*
X182880000Y-65176560D01*
X182867401Y-65231019D01*
X182831428Y-65304604D01*
X182831425Y-65304611D01*
X182821500Y-65372739D01*
X182821500Y-66291562D01*
X182801815Y-66358601D01*
X182785181Y-66379243D01*
X182652743Y-66511681D01*
X182591420Y-66545166D01*
X182565062Y-66548000D01*
X181246500Y-66548000D01*
X181179461Y-66528315D01*
X181133706Y-66475511D01*
X181122500Y-66424000D01*
X181122500Y-65558920D01*
X181122499Y-65558890D01*
X181122499Y-65529329D01*
X181122499Y-65529328D01*
X181115653Y-65508262D01*
X181111111Y-65489341D01*
X181107646Y-65467457D01*
X181107645Y-65467455D01*
X181106119Y-65457818D01*
X181106330Y-65457784D01*
X181102000Y-65430441D01*
X181102000Y-64655754D01*
X181121685Y-64588715D01*
X181138320Y-64568072D01*
X181185046Y-64521346D01*
X181185050Y-64521342D01*
X181242646Y-64408304D01*
X181242646Y-64408302D01*
X181242647Y-64408301D01*
X181257499Y-64314524D01*
X181257500Y-64314519D01*
X181257499Y-63701482D01*
X181242646Y-63607696D01*
X181185050Y-63494658D01*
X181161682Y-63471290D01*
X181138317Y-63447924D01*
X181104833Y-63386600D01*
X181102000Y-63360244D01*
X181102000Y-62354000D01*
X181121685Y-62286961D01*
X181174489Y-62241206D01*
X181226000Y-62230000D01*
X184026000Y-62230000D01*
X184093039Y-62249685D01*
G37*
%TD.AperFunction*%
%TD*%
%TA.AperFunction,Conductor*%
%TO.N,+5V*%
G36*
X146213573Y-68734561D02*
G01*
X146254563Y-68757490D01*
X146321602Y-68777175D01*
X146379500Y-68785500D01*
X146736500Y-68785500D01*
X146803539Y-68805185D01*
X146849294Y-68857989D01*
X146860500Y-68909500D01*
X146860500Y-69472007D01*
X146865197Y-69515686D01*
X146876402Y-69567193D01*
X146878889Y-69577370D01*
X146878890Y-69577373D01*
X146921900Y-69658085D01*
X146967655Y-69710889D01*
X146985246Y-69728843D01*
X146985247Y-69728844D01*
X146985249Y-69728845D01*
X147065059Y-69773488D01*
X147065063Y-69773490D01*
X147132102Y-69793175D01*
X147190000Y-69801500D01*
X147190004Y-69801500D01*
X152276000Y-69801500D01*
X152343039Y-69821185D01*
X152388794Y-69873989D01*
X152400000Y-69925500D01*
X152400000Y-73536000D01*
X152380315Y-73603039D01*
X152327511Y-73648794D01*
X152276000Y-73660000D01*
X145158000Y-73660000D01*
X145090961Y-73640315D01*
X145045206Y-73587511D01*
X145034000Y-73536000D01*
X145034000Y-72878589D01*
X145053685Y-72811550D01*
X145070319Y-72790908D01*
X145084386Y-72776841D01*
X145084388Y-72776838D01*
X145091737Y-72768659D01*
X145091736Y-72768661D01*
X145111825Y-72743730D01*
X145148990Y-72672682D01*
X145168673Y-72605650D01*
X145168673Y-72605649D01*
X145168675Y-72605643D01*
X145177000Y-72547745D01*
X145177000Y-71719439D01*
X145183958Y-71678487D01*
X145192785Y-71653259D01*
X145208417Y-71608583D01*
X145212293Y-71603179D01*
X145216424Y-71586525D01*
X145218081Y-71580967D01*
X145222194Y-71569211D01*
X145221976Y-71567883D01*
X145224690Y-71553192D01*
X145233458Y-71517842D01*
X145239500Y-71468375D01*
X145239500Y-70771623D01*
X145233456Y-70722151D01*
X145224691Y-70686813D01*
X145225029Y-70678881D01*
X145218068Y-70658987D01*
X145216411Y-70653432D01*
X145214442Y-70645497D01*
X145214212Y-70645246D01*
X145208438Y-70631469D01*
X145183959Y-70561514D01*
X145177000Y-70520558D01*
X145177000Y-69179440D01*
X145183958Y-69138487D01*
X145192785Y-69113259D01*
X145208417Y-69068583D01*
X145212293Y-69063179D01*
X145216424Y-69046525D01*
X145218081Y-69040967D01*
X145222194Y-69029211D01*
X145221976Y-69027883D01*
X145224690Y-69013192D01*
X145233458Y-68977842D01*
X145235552Y-68960690D01*
X145263220Y-68896532D01*
X145311185Y-68861163D01*
X145336841Y-68850536D01*
X145388203Y-68811124D01*
X145453373Y-68785930D01*
X145463690Y-68785500D01*
X145925991Y-68785500D01*
X145926000Y-68785500D01*
X145969684Y-68780803D01*
X145995439Y-68775200D01*
X146021193Y-68769598D01*
X146025374Y-68768575D01*
X146031373Y-68767110D01*
X146094727Y-68733349D01*
X146163145Y-68719194D01*
X146213573Y-68734561D01*
G37*
%TD.AperFunction*%
%TD*%
%TA.AperFunction,Conductor*%
%TO.N,GND*%
G36*
X179602524Y-65043685D02*
G01*
X179623166Y-65060319D01*
X180285181Y-65722334D01*
X180318666Y-65783657D01*
X180321500Y-65810015D01*
X180321500Y-66722246D01*
X180321501Y-66722256D01*
X180328346Y-66743324D01*
X180332887Y-66762235D01*
X180336354Y-66784121D01*
X180336355Y-66784124D01*
X180346412Y-66803862D01*
X180353857Y-66821835D01*
X180360704Y-66842907D01*
X180373726Y-66860831D01*
X180383890Y-66877417D01*
X180393950Y-66897159D01*
X180414864Y-66918073D01*
X180414893Y-66918104D01*
X180785408Y-67288619D01*
X180785430Y-67288639D01*
X180805841Y-67309050D01*
X180825572Y-67319103D01*
X180842159Y-67329266D01*
X180860094Y-67342297D01*
X180881168Y-67349144D01*
X180899136Y-67356586D01*
X180918879Y-67366646D01*
X180940765Y-67370112D01*
X180959672Y-67374651D01*
X180980750Y-67381500D01*
X181012664Y-67381500D01*
X181486000Y-67381500D01*
X181553039Y-67401185D01*
X181598794Y-67453989D01*
X181610000Y-67505500D01*
X181610000Y-68964000D01*
X181590315Y-69031039D01*
X181537511Y-69076794D01*
X181486000Y-69088000D01*
X180464000Y-69088000D01*
X180396961Y-69068315D01*
X180351206Y-69015511D01*
X180340000Y-68964000D01*
X180340000Y-68072000D01*
X179991624Y-68072000D01*
X179941867Y-68059659D01*
X179941652Y-68060276D01*
X179935071Y-68057973D01*
X179933679Y-68057628D01*
X179932884Y-68057208D01*
X179932882Y-68057207D01*
X179804699Y-68012354D01*
X179804698Y-68012353D01*
X179804696Y-68012353D01*
X179774270Y-68009500D01*
X179774266Y-68009500D01*
X178365734Y-68009500D01*
X178365730Y-68009500D01*
X178335303Y-68012353D01*
X178207115Y-68057208D01*
X178206321Y-68057628D01*
X178204928Y-68057973D01*
X178198348Y-68060276D01*
X178198132Y-68059659D01*
X178148376Y-68072000D01*
X177451624Y-68072000D01*
X177401867Y-68059659D01*
X177401652Y-68060276D01*
X177395071Y-68057973D01*
X177393679Y-68057628D01*
X177392884Y-68057208D01*
X177392882Y-68057207D01*
X177264699Y-68012354D01*
X177264698Y-68012353D01*
X177264696Y-68012353D01*
X177234270Y-68009500D01*
X177234266Y-68009500D01*
X176372255Y-68009500D01*
X176305216Y-67989815D01*
X176284574Y-67973181D01*
X175666819Y-67355425D01*
X175633334Y-67294102D01*
X175630500Y-67267744D01*
X175630500Y-65148000D01*
X175650185Y-65080961D01*
X175702989Y-65035206D01*
X175754500Y-65024000D01*
X179535485Y-65024000D01*
X179602524Y-65043685D01*
G37*
%TD.AperFunction*%
%TD*%
%TA.AperFunction,Conductor*%
%TO.N,GND*%
G36*
X162503039Y-64027685D02*
G01*
X162548794Y-64080489D01*
X162560000Y-64132000D01*
X162560000Y-67440000D01*
X162540315Y-67507039D01*
X162487511Y-67552794D01*
X162436000Y-67564000D01*
X161036000Y-67564000D01*
X161026453Y-67573546D01*
X161016315Y-67608074D01*
X160999684Y-67628713D01*
X160993048Y-67635348D01*
X160948732Y-67701670D01*
X160948731Y-67701672D01*
X160937100Y-67760149D01*
X160937100Y-69261354D01*
X160948731Y-69319831D01*
X160948732Y-69319832D01*
X160993048Y-69386155D01*
X160999681Y-69392788D01*
X161033166Y-69454111D01*
X161036000Y-69480469D01*
X161036000Y-72266000D01*
X161016315Y-72333039D01*
X160963511Y-72378794D01*
X160912000Y-72390000D01*
X159128000Y-72390000D01*
X159060961Y-72370315D01*
X159015206Y-72317511D01*
X159004000Y-72266000D01*
X159004000Y-69566102D01*
X159023685Y-69499063D01*
X159076489Y-69453308D01*
X159128000Y-69442102D01*
X159176150Y-69442102D01*
X159176151Y-69442101D01*
X159190968Y-69439154D01*
X159234629Y-69430470D01*
X159234629Y-69430469D01*
X159234631Y-69430469D01*
X159300952Y-69386154D01*
X159345267Y-69319833D01*
X159345267Y-69319831D01*
X159345268Y-69319831D01*
X159356899Y-69261354D01*
X159356900Y-69261352D01*
X159356900Y-67760151D01*
X159356899Y-67760149D01*
X159345268Y-67701672D01*
X159345267Y-67701671D01*
X159298398Y-67631527D01*
X159277520Y-67564850D01*
X159277500Y-67562636D01*
X159277500Y-66269952D01*
X159297185Y-66202913D01*
X159313819Y-66182271D01*
X161451771Y-64044319D01*
X161513094Y-64010834D01*
X161539452Y-64008000D01*
X162436000Y-64008000D01*
X162503039Y-64027685D01*
G37*
%TD.AperFunction*%
%TD*%
%TA.AperFunction,Conductor*%
%TO.N,Net-(U1-EN)*%
G36*
X141675039Y-64789685D02*
G01*
X141720794Y-64842489D01*
X141732000Y-64893999D01*
X141732000Y-66040000D01*
X142138561Y-66040000D01*
X142193020Y-66052598D01*
X142266607Y-66088573D01*
X142300673Y-66093536D01*
X142334739Y-66098500D01*
X142334740Y-66098500D01*
X143253562Y-66098500D01*
X143320601Y-66118185D01*
X143341238Y-66134814D01*
X143473682Y-66267257D01*
X143507166Y-66328578D01*
X143510000Y-66354937D01*
X143510000Y-67673500D01*
X143490315Y-67740539D01*
X143437511Y-67786294D01*
X143386000Y-67797500D01*
X142367567Y-67797500D01*
X142346491Y-67804347D01*
X142327582Y-67808886D01*
X142305696Y-67812354D01*
X142305694Y-67812354D01*
X142296060Y-67813881D01*
X142296026Y-67813668D01*
X142268680Y-67818000D01*
X141757823Y-67818000D01*
X141690784Y-67798315D01*
X141645029Y-67745511D01*
X141635349Y-67713395D01*
X141634799Y-67709924D01*
X141630646Y-67683696D01*
X141573050Y-67570658D01*
X141573046Y-67570654D01*
X141573045Y-67570652D01*
X141483347Y-67480954D01*
X141483344Y-67480952D01*
X141483342Y-67480950D01*
X141391198Y-67434000D01*
X141370301Y-67423352D01*
X141276524Y-67408500D01*
X140663482Y-67408500D01*
X140569694Y-67423354D01*
X140545401Y-67435732D01*
X140476731Y-67448627D01*
X140411991Y-67422348D01*
X140390733Y-67400732D01*
X140382283Y-67389719D01*
X140382282Y-67389718D01*
X140256841Y-67293464D01*
X140110762Y-67232956D01*
X140110760Y-67232955D01*
X139954001Y-67212318D01*
X139953999Y-67212318D01*
X139797239Y-67232955D01*
X139797237Y-67232956D01*
X139651160Y-67293463D01*
X139525718Y-67389718D01*
X139429460Y-67515163D01*
X139425401Y-67522196D01*
X139423596Y-67521154D01*
X139386714Y-67566917D01*
X139320419Y-67588978D01*
X139252720Y-67571695D01*
X139205113Y-67520555D01*
X139192000Y-67465057D01*
X139192000Y-64894000D01*
X139211685Y-64826961D01*
X139264489Y-64781206D01*
X139316000Y-64770000D01*
X141608000Y-64770000D01*
X141675039Y-64789685D01*
G37*
%TD.AperFunction*%
%TD*%
%TA.AperFunction,Conductor*%
%TO.N,+24V*%
G36*
X158903611Y-65297685D02*
G01*
X158910877Y-65302729D01*
X158927885Y-65315462D01*
X158961507Y-65340632D01*
X158961507Y-65340631D01*
X158961512Y-65340635D01*
X158982523Y-65354442D01*
X159070007Y-65381102D01*
X159139699Y-65386086D01*
X159164834Y-65386342D01*
X159216593Y-65371715D01*
X159252838Y-65361474D01*
X159252839Y-65361473D01*
X159252844Y-65361472D01*
X159314167Y-65327987D01*
X159314182Y-65327975D01*
X159317887Y-65325596D01*
X159318501Y-65326551D01*
X159379146Y-65303928D01*
X159447420Y-65318775D01*
X159496828Y-65368177D01*
X159512000Y-65427611D01*
X159512000Y-65642107D01*
X159492315Y-65709146D01*
X159475681Y-65729788D01*
X159164614Y-66040856D01*
X159164612Y-66040859D01*
X159157263Y-66049038D01*
X159157264Y-66049036D01*
X159137174Y-66073966D01*
X159100009Y-66145014D01*
X159080326Y-66212046D01*
X159072000Y-66269955D01*
X159072000Y-67563562D01*
X159072028Y-67566711D01*
X159081408Y-67626255D01*
X159081409Y-67626261D01*
X159102285Y-67692928D01*
X159102287Y-67692934D01*
X159127531Y-67745697D01*
X159127532Y-67745698D01*
X159127535Y-67745704D01*
X159130499Y-67750139D01*
X159151379Y-67816816D01*
X159151399Y-67819033D01*
X159151399Y-69126780D01*
X159131714Y-69193819D01*
X159078910Y-69239574D01*
X159053760Y-69247946D01*
X159032809Y-69252504D01*
X159022627Y-69254992D01*
X159022624Y-69254993D01*
X158941916Y-69298001D01*
X158941913Y-69298003D01*
X158897244Y-69336709D01*
X158889111Y-69343757D01*
X158871159Y-69361345D01*
X158871154Y-69361351D01*
X158826511Y-69441161D01*
X158826509Y-69441166D01*
X158806826Y-69508198D01*
X158798500Y-69566105D01*
X158798500Y-72266000D01*
X158778815Y-72333039D01*
X158726011Y-72378794D01*
X158674500Y-72390000D01*
X156334000Y-72390000D01*
X156266961Y-72370315D01*
X156221206Y-72317511D01*
X156210000Y-72266000D01*
X156210000Y-65402000D01*
X156229685Y-65334961D01*
X156282489Y-65289206D01*
X156334000Y-65278000D01*
X158836572Y-65278000D01*
X158903611Y-65297685D01*
G37*
%TD.AperFunction*%
%TD*%
%TA.AperFunction,Conductor*%
%TO.N,GND*%
G36*
X145993039Y-67329685D02*
G01*
X146038794Y-67382489D01*
X146050000Y-67434000D01*
X146050000Y-68456000D01*
X146030315Y-68523039D01*
X145977511Y-68568794D01*
X145926000Y-68580000D01*
X145034000Y-68580000D01*
X145034000Y-68928375D01*
X145021660Y-68978132D01*
X145022276Y-68978348D01*
X145019978Y-68984914D01*
X145019631Y-68986315D01*
X145019208Y-68987114D01*
X144974353Y-69115303D01*
X144971500Y-69145730D01*
X144971500Y-70554269D01*
X144974353Y-70584699D01*
X144974353Y-70584701D01*
X145017930Y-70709234D01*
X145019207Y-70712882D01*
X145019209Y-70712884D01*
X145019628Y-70713678D01*
X145019975Y-70715077D01*
X145022276Y-70721653D01*
X145021659Y-70721868D01*
X145034000Y-70771623D01*
X145034000Y-71468375D01*
X145021660Y-71518132D01*
X145022276Y-71518348D01*
X145019978Y-71524914D01*
X145019631Y-71526315D01*
X145019208Y-71527114D01*
X144974353Y-71655303D01*
X144971500Y-71685730D01*
X144971500Y-72547745D01*
X144951815Y-72614784D01*
X144935181Y-72635426D01*
X144317426Y-73253181D01*
X144256103Y-73286666D01*
X144229745Y-73289500D01*
X142110000Y-73289500D01*
X142042961Y-73269815D01*
X141997206Y-73217011D01*
X141986000Y-73165500D01*
X141986000Y-69260755D01*
X142005685Y-69193716D01*
X142022319Y-69173074D01*
X142560574Y-68634819D01*
X142621897Y-68601334D01*
X142648255Y-68598500D01*
X143684248Y-68598500D01*
X143684250Y-68598500D01*
X143705318Y-68591654D01*
X143724234Y-68587112D01*
X143746121Y-68583646D01*
X143765861Y-68573586D01*
X143783828Y-68566144D01*
X143804907Y-68559296D01*
X143822843Y-68546263D01*
X143839405Y-68536114D01*
X143859159Y-68526050D01*
X143874651Y-68510557D01*
X143874658Y-68510552D01*
X144255552Y-68129658D01*
X144255557Y-68129651D01*
X144271050Y-68114159D01*
X144281109Y-68094415D01*
X144291272Y-68077832D01*
X144304297Y-68059906D01*
X144311144Y-68038831D01*
X144318589Y-68020857D01*
X144328646Y-68001121D01*
X144332111Y-67979238D01*
X144336654Y-67960319D01*
X144343499Y-67939252D01*
X144343500Y-67939250D01*
X144343500Y-67812384D01*
X144343500Y-67433999D01*
X144363185Y-67366961D01*
X144415989Y-67321206D01*
X144467500Y-67310000D01*
X145926000Y-67310000D01*
X145993039Y-67329685D01*
G37*
%TD.AperFunction*%
%TD*%
M02*
