%TF.GenerationSoftware,KiCad,Pcbnew,7.0.7*%
%TF.CreationDate,2023-10-22T19:03:09-04:00*%
%TF.ProjectId,Motion controller MiYR interface,4d6f7469-6f6e-4206-936f-6e74726f6c6c,rev?*%
%TF.SameCoordinates,Original*%
%TF.FileFunction,Paste,Top*%
%TF.FilePolarity,Positive*%
%FSLAX46Y46*%
G04 Gerber Fmt 4.6, Leading zero omitted, Abs format (unit mm)*
G04 Created by KiCad (PCBNEW 7.0.7) date 2023-10-22 19:03:09*
%MOMM*%
%LPD*%
G01*
G04 APERTURE LIST*
G04 Aperture macros list*
%AMRoundRect*
0 Rectangle with rounded corners*
0 $1 Rounding radius*
0 $2 $3 $4 $5 $6 $7 $8 $9 X,Y pos of 4 corners*
0 Add a 4 corners polygon primitive as box body*
4,1,4,$2,$3,$4,$5,$6,$7,$8,$9,$2,$3,0*
0 Add four circle primitives for the rounded corners*
1,1,$1+$1,$2,$3*
1,1,$1+$1,$4,$5*
1,1,$1+$1,$6,$7*
1,1,$1+$1,$8,$9*
0 Add four rect primitives between the rounded corners*
20,1,$1+$1,$2,$3,$4,$5,0*
20,1,$1+$1,$4,$5,$6,$7,0*
20,1,$1+$1,$6,$7,$8,$9,0*
20,1,$1+$1,$8,$9,$2,$3,0*%
G04 Aperture macros list end*
%ADD10RoundRect,0.250000X0.325000X0.650000X-0.325000X0.650000X-0.325000X-0.650000X0.325000X-0.650000X0*%
%ADD11R,0.558800X1.461700*%
%ADD12R,1.500000X4.200000*%
%ADD13RoundRect,0.200000X0.200000X0.275000X-0.200000X0.275000X-0.200000X-0.275000X0.200000X-0.275000X0*%
%ADD14R,2.400000X0.740000*%
%ADD15RoundRect,0.225000X-0.225000X-0.250000X0.225000X-0.250000X0.225000X0.250000X-0.225000X0.250000X0*%
%ADD16RoundRect,0.225000X-0.250000X0.225000X-0.250000X-0.225000X0.250000X-0.225000X0.250000X0.225000X0*%
%ADD17RoundRect,0.225000X0.225000X0.250000X-0.225000X0.250000X-0.225000X-0.250000X0.225000X-0.250000X0*%
%ADD18RoundRect,0.250000X0.650000X-0.325000X0.650000X0.325000X-0.650000X0.325000X-0.650000X-0.325000X0*%
%ADD19RoundRect,0.225000X0.250000X-0.225000X0.250000X0.225000X-0.250000X0.225000X-0.250000X-0.225000X0*%
%ADD20RoundRect,0.150000X-0.150000X0.512500X-0.150000X-0.512500X0.150000X-0.512500X0.150000X0.512500X0*%
%ADD21RoundRect,0.200000X-0.275000X0.200000X-0.275000X-0.200000X0.275000X-0.200000X0.275000X0.200000X0*%
%ADD22RoundRect,0.250000X-1.125000X1.275000X-1.125000X-1.275000X1.125000X-1.275000X1.125000X1.275000X0*%
%ADD23RoundRect,0.250000X-0.350000X0.850000X-0.350000X-0.850000X0.350000X-0.850000X0.350000X0.850000X0*%
%ADD24RoundRect,0.200000X-0.200000X-0.275000X0.200000X-0.275000X0.200000X0.275000X-0.200000X0.275000X0*%
%ADD25RoundRect,0.150000X-0.512500X-0.150000X0.512500X-0.150000X0.512500X0.150000X-0.512500X0.150000X0*%
%ADD26RoundRect,0.200000X0.275000X-0.200000X0.275000X0.200000X-0.275000X0.200000X-0.275000X-0.200000X0*%
%ADD27RoundRect,0.250000X-0.625000X0.375000X-0.625000X-0.375000X0.625000X-0.375000X0.625000X0.375000X0*%
%ADD28R,1.461700X0.558800*%
%ADD29RoundRect,0.250000X-0.325000X-0.650000X0.325000X-0.650000X0.325000X0.650000X-0.325000X0.650000X0*%
%ADD30R,4.200000X1.500000*%
G04 APERTURE END LIST*
D10*
%TO.C,C4*%
X140667000Y-65786000D03*
X137717000Y-65786000D03*
%TD*%
D11*
%TO.C,U25*%
X192151000Y-63754000D03*
X190881000Y-63754000D03*
X189611000Y-63754000D03*
X188341000Y-63754000D03*
X188341000Y-69203504D03*
X189611000Y-69203504D03*
X190881000Y-69203504D03*
X192151000Y-69203504D03*
%TD*%
D12*
%TO.C,L2*%
X170202000Y-72439000D03*
X166602000Y-72439000D03*
%TD*%
D13*
%TO.C,R6*%
X169989000Y-63803000D03*
X168339000Y-63803000D03*
%TD*%
D14*
%TO.C,CN1*%
X195830000Y-126365000D03*
X199730000Y-126365000D03*
X195830000Y-125095000D03*
X199730000Y-125095000D03*
X195830000Y-123825000D03*
X199730000Y-123825000D03*
X195830000Y-122555000D03*
X199730000Y-122555000D03*
X195830000Y-121285000D03*
X199730000Y-121285000D03*
X195830000Y-120015000D03*
X199730000Y-120015000D03*
X195830000Y-118745000D03*
X199730000Y-118745000D03*
X195830000Y-117475000D03*
X199730000Y-117475000D03*
X195830000Y-116205000D03*
X199730000Y-116205000D03*
X195830000Y-114935000D03*
X199730000Y-114935000D03*
X195830000Y-113665000D03*
X199730000Y-113665000D03*
X195830000Y-112395000D03*
X199730000Y-112395000D03*
X195830000Y-111125000D03*
X199730000Y-111125000D03*
X195830000Y-109855000D03*
X199730000Y-109855000D03*
X195830000Y-108585000D03*
X199730000Y-108585000D03*
X195830000Y-107315000D03*
X199730000Y-107315000D03*
X195830000Y-106045000D03*
X199730000Y-106045000D03*
X195830000Y-104775000D03*
X199730000Y-104775000D03*
X195830000Y-103505000D03*
X199730000Y-103505000D03*
X195830000Y-102235000D03*
X199730000Y-102235000D03*
X195830000Y-100965000D03*
X199730000Y-100965000D03*
X195830000Y-99695000D03*
X199730000Y-99695000D03*
X195830000Y-98425000D03*
X199730000Y-98425000D03*
X195830000Y-97155000D03*
X199730000Y-97155000D03*
X195830000Y-95885000D03*
X199730000Y-95885000D03*
X195830000Y-94615000D03*
X199730000Y-94615000D03*
X195830000Y-93345000D03*
X199730000Y-93345000D03*
X195830000Y-92075000D03*
X199730000Y-92075000D03*
X195830000Y-90805000D03*
X199730000Y-90805000D03*
X195830000Y-89535000D03*
X199730000Y-89535000D03*
X195830000Y-88265000D03*
X199730000Y-88265000D03*
X195830000Y-86995000D03*
X199730000Y-86995000D03*
X195830000Y-85725000D03*
X199730000Y-85725000D03*
X195830000Y-84455000D03*
X199730000Y-84455000D03*
X195830000Y-83185000D03*
X199730000Y-83185000D03*
X195830000Y-81915000D03*
X199730000Y-81915000D03*
X195830000Y-80645000D03*
X199730000Y-80645000D03*
X195830000Y-79375000D03*
X199730000Y-79375000D03*
X195830000Y-78105000D03*
X199730000Y-78105000D03*
X195830000Y-76835000D03*
X199730000Y-76835000D03*
%TD*%
D15*
%TO.C,C12*%
X163055000Y-85090000D03*
X164605000Y-85090000D03*
%TD*%
%TO.C,C3*%
X163309000Y-98298000D03*
X164859000Y-98298000D03*
%TD*%
D10*
%TO.C,C28*%
X190705000Y-74168000D03*
X187755000Y-74168000D03*
%TD*%
D16*
%TO.C,C16*%
X155448000Y-62979000D03*
X155448000Y-64529000D03*
%TD*%
D17*
%TO.C,C5*%
X138951000Y-60706000D03*
X137401000Y-60706000D03*
%TD*%
D18*
%TO.C,C32*%
X176530000Y-68785000D03*
X176530000Y-65835000D03*
%TD*%
D10*
%TO.C,C11*%
X145747000Y-69850000D03*
X142797000Y-69850000D03*
%TD*%
D19*
%TO.C,C19*%
X172466000Y-71690000D03*
X172466000Y-70140000D03*
%TD*%
D20*
%TO.C,U24*%
X172400000Y-65813000D03*
X171450000Y-65813000D03*
X170500000Y-65813000D03*
X170500000Y-68088000D03*
X171450000Y-68088000D03*
X172400000Y-68088000D03*
%TD*%
D17*
%TO.C,C8*%
X148857000Y-65532000D03*
X147307000Y-65532000D03*
%TD*%
D21*
%TO.C,R3*%
X140970000Y-68009000D03*
X140970000Y-69659000D03*
%TD*%
D15*
%TO.C,C13*%
X163055000Y-238506000D03*
X164605000Y-238506000D03*
%TD*%
D19*
%TO.C,C9*%
X139446000Y-72911000D03*
X139446000Y-71361000D03*
%TD*%
D21*
%TO.C,R2*%
X140970000Y-71311000D03*
X140970000Y-72961000D03*
%TD*%
D18*
%TO.C,C22*%
X168148000Y-68580000D03*
X168148000Y-65630000D03*
%TD*%
D13*
%TO.C,R1*%
X139001000Y-58928000D03*
X137351000Y-58928000D03*
%TD*%
D10*
%TO.C,C25*%
X192483000Y-60636752D03*
X189533000Y-60636752D03*
%TD*%
D15*
%TO.C,C27*%
X190995000Y-71882000D03*
X192545000Y-71882000D03*
%TD*%
D13*
%TO.C,R8*%
X177609000Y-64008000D03*
X175959000Y-64008000D03*
%TD*%
D22*
%TO.C,D1*%
X204471000Y-66905000D03*
X201421000Y-66905000D03*
X204471000Y-70255000D03*
X201421000Y-70255000D03*
D23*
X205226000Y-62280000D03*
X200666000Y-62280000D03*
%TD*%
D16*
%TO.C,C7*%
X149098000Y-57645000D03*
X149098000Y-59195000D03*
%TD*%
D24*
%TO.C,R4*%
X160211000Y-60706000D03*
X161861000Y-60706000D03*
%TD*%
D15*
%TO.C,C20*%
X165087000Y-62279000D03*
X166637000Y-62279000D03*
%TD*%
D25*
%TO.C,U1*%
X142880500Y-65598000D03*
X142880500Y-66548000D03*
X142880500Y-67498000D03*
X145155500Y-67498000D03*
X145155500Y-66548000D03*
X145155500Y-65598000D03*
%TD*%
D18*
%TO.C,C21*%
X165608000Y-68580000D03*
X165608000Y-65630000D03*
%TD*%
D21*
%TO.C,R15*%
X186436000Y-68955752D03*
X186436000Y-70605752D03*
%TD*%
D19*
%TO.C,C30*%
X183388000Y-71895000D03*
X183388000Y-70345000D03*
%TD*%
D18*
%TO.C,C2*%
X192532000Y-57609000D03*
X192532000Y-54659000D03*
%TD*%
D13*
%TO.C,R9*%
X180657000Y-64008000D03*
X179007000Y-64008000D03*
%TD*%
D16*
%TO.C,C26*%
X186309000Y-62725000D03*
X186309000Y-64275000D03*
%TD*%
D10*
%TO.C,C10*%
X145747000Y-72390000D03*
X142797000Y-72390000D03*
%TD*%
D26*
%TO.C,R7*%
X186309000Y-67373000D03*
X186309000Y-65723000D03*
%TD*%
D27*
%TO.C,F1*%
X208534000Y-65148000D03*
X208534000Y-67948000D03*
%TD*%
D19*
%TO.C,C6*%
X149098000Y-62243000D03*
X149098000Y-60693000D03*
%TD*%
D14*
%TO.C,CN2*%
X142830000Y-126365000D03*
X146730000Y-126365000D03*
X142830000Y-125095000D03*
X146730000Y-125095000D03*
X142830000Y-123825000D03*
X146730000Y-123825000D03*
X142830000Y-122555000D03*
X146730000Y-122555000D03*
X142830000Y-121285000D03*
X146730000Y-121285000D03*
X142830000Y-120015000D03*
X146730000Y-120015000D03*
X142830000Y-118745000D03*
X146730000Y-118745000D03*
X142830000Y-117475000D03*
X146730000Y-117475000D03*
X142830000Y-116205000D03*
X146730000Y-116205000D03*
X142830000Y-114935000D03*
X146730000Y-114935000D03*
X142830000Y-113665000D03*
X146730000Y-113665000D03*
X142830000Y-112395000D03*
X146730000Y-112395000D03*
X142830000Y-111125000D03*
X146730000Y-111125000D03*
X142830000Y-109855000D03*
X146730000Y-109855000D03*
X142830000Y-108585000D03*
X146730000Y-108585000D03*
X142830000Y-107315000D03*
X146730000Y-107315000D03*
X142830000Y-106045000D03*
X146730000Y-106045000D03*
X142830000Y-104775000D03*
X146730000Y-104775000D03*
X142830000Y-103505000D03*
X146730000Y-103505000D03*
X142830000Y-102235000D03*
X146730000Y-102235000D03*
X142830000Y-100965000D03*
X146730000Y-100965000D03*
X142830000Y-99695000D03*
X146730000Y-99695000D03*
X142830000Y-98425000D03*
X146730000Y-98425000D03*
X142830000Y-97155000D03*
X146730000Y-97155000D03*
X142830000Y-95885000D03*
X146730000Y-95885000D03*
X142830000Y-94615000D03*
X146730000Y-94615000D03*
X142830000Y-93345000D03*
X146730000Y-93345000D03*
X142830000Y-92075000D03*
X146730000Y-92075000D03*
X142830000Y-90805000D03*
X146730000Y-90805000D03*
X142830000Y-89535000D03*
X146730000Y-89535000D03*
X142830000Y-88265000D03*
X146730000Y-88265000D03*
X142830000Y-86995000D03*
X146730000Y-86995000D03*
X142830000Y-85725000D03*
X146730000Y-85725000D03*
X142830000Y-84455000D03*
X146730000Y-84455000D03*
X142830000Y-83185000D03*
X146730000Y-83185000D03*
X142830000Y-81915000D03*
X146730000Y-81915000D03*
X142830000Y-80645000D03*
X146730000Y-80645000D03*
X142830000Y-79375000D03*
X146730000Y-79375000D03*
X142830000Y-78105000D03*
X146730000Y-78105000D03*
X142830000Y-76835000D03*
X146730000Y-76835000D03*
%TD*%
D15*
%TO.C,C31*%
X176009000Y-62484000D03*
X177559000Y-62484000D03*
%TD*%
%TO.C,C35*%
X163055000Y-226822000D03*
X164605000Y-226822000D03*
%TD*%
D18*
%TO.C,C18*%
X172212000Y-63500000D03*
X172212000Y-60550000D03*
%TD*%
%TO.C,C33*%
X179070000Y-68785000D03*
X179070000Y-65835000D03*
%TD*%
D28*
%TO.C,U2*%
X146742752Y-62103000D03*
X146742752Y-60833000D03*
X146742752Y-59563000D03*
X146742752Y-58293000D03*
X141293248Y-58293000D03*
X141293248Y-59563000D03*
X141293248Y-60833000D03*
X141293248Y-62103000D03*
%TD*%
D12*
%TO.C,L3*%
X181124000Y-72644000D03*
X177524000Y-72644000D03*
%TD*%
D15*
%TO.C,C17*%
X163055000Y-191516000D03*
X164605000Y-191516000D03*
%TD*%
D20*
%TO.C,U26*%
X183322000Y-65918500D03*
X182372000Y-65918500D03*
X181422000Y-65918500D03*
X181422000Y-68193500D03*
X182372000Y-68193500D03*
X183322000Y-68193500D03*
%TD*%
D29*
%TO.C,C14*%
X157021000Y-71374000D03*
X159971000Y-71374000D03*
%TD*%
D15*
%TO.C,C34*%
X163055000Y-179832000D03*
X164605000Y-179832000D03*
%TD*%
D18*
%TO.C,C1*%
X195580000Y-57609000D03*
X195580000Y-54659000D03*
%TD*%
D11*
%TO.C,U23*%
X157607000Y-68510752D03*
X158877000Y-68510752D03*
X160147000Y-68510752D03*
X161417000Y-68510752D03*
X161417000Y-63061248D03*
X160147000Y-63061248D03*
X158877000Y-63061248D03*
X157607000Y-63061248D03*
%TD*%
D15*
%TO.C,C24*%
X163055000Y-132842000D03*
X164605000Y-132842000D03*
%TD*%
D13*
%TO.C,R5*%
X166687000Y-63803000D03*
X165037000Y-63803000D03*
%TD*%
D18*
%TO.C,C29*%
X182880000Y-63705000D03*
X182880000Y-60755000D03*
%TD*%
D15*
%TO.C,C23*%
X163055000Y-144526000D03*
X164605000Y-144526000D03*
%TD*%
D30*
%TO.C,L1*%
X149606000Y-67796000D03*
X149606000Y-71396000D03*
%TD*%
D16*
%TO.C,C15*%
X161798000Y-70345000D03*
X161798000Y-71895000D03*
%TD*%
M02*
