M48
; DRILL file {KiCad 7.0.7} date Sun Oct 22 18:45:25 2023
; FORMAT={-:-/ absolute / inch / decimal}
; #@! TF.CreationDate,2023-10-22T18:45:25-04:00
; #@! TF.GenerationSoftware,Kicad,Pcbnew,7.0.7
; #@! TF.FileFunction,Plated,1,4,PTH
FMAT,2
INCH
; #@! TA.AperFunction,Plated,PTH,ViaDrill
T1C0.0157
; #@! TA.AperFunction,Plated,PTH,ComponentDrill
T2C0.0394
; #@! TA.AperFunction,Plated,PTH,ComponentDrill
T3C0.0430
; #@! TA.AperFunction,Plated,PTH,ComponentDrill
T4C0.1260
%
G90
G05
T1
X2.5197Y-4.6929
X2.5197Y-5.7283
X2.5394Y-5.8465
X2.5591Y-5.7283
X2.5689Y-2.4803
X2.5689Y-5.0197
X2.5689Y-5.0591
X2.5689Y-5.1181
X2.5689Y-5.1575
X2.5748Y-4.6929
X2.5787Y-5.8465
X2.5984Y-5.7283
X2.6063Y-4.4252
X2.6063Y-4.5669
X2.6083Y-4.3012
X2.6266Y-3.6084
X2.6299Y-3.4567
X2.6378Y-4.3858
X2.6397Y-4.5878
X2.6673Y-2.5787
X2.6673Y-5.689
X2.6693Y-4.4252
X2.6693Y-4.4823
X2.6737Y-4.5214
X2.687Y-5.5217
X2.6969Y-4.0748
X2.7047Y-3.2353
X2.7163Y-3.8581
X2.7264Y-5.5217
X2.7323Y-4.2362
X2.7348Y-3.6281
X2.7559Y-3.8583
X2.7559Y-4.0748
X2.7854Y-5.0295
X2.7854Y-5.0689
X2.7854Y-5.1083
X2.7854Y-5.5217
X2.8248Y-3.4252
X2.8248Y-5.0689
X2.8248Y-5.1083
X2.8248Y-5.5217
X2.8268Y-4.6929
X2.8333Y-3.569
X2.8346Y-5.2165
X2.8346Y-5.2559
X2.8346Y-5.2953
X2.8346Y-5.3346
X2.8346Y-5.374
X2.8425Y-3.2353
X2.8642Y-3.4252
X2.8642Y-5.1083
X2.8819Y-4.6929
X2.9016Y-3.6097
X2.9104Y-4.4244
X2.9104Y-4.5661
X2.9134Y-4.3012
X2.9232Y-5.1378
X2.9232Y-5.187
X2.9291Y-3.4252
X2.9419Y-4.385
X2.9429Y-5.2559
X2.9498Y-4.5768
X2.9734Y-4.4244
X2.9734Y-4.4815
X2.9779Y-4.5206
X2.9803Y-3.2353
X3.0098Y-3.6294
X3.0315Y-5.122
X3.0394Y-4.2362
X3.0472Y-5.2087
X3.0551Y-3.8425
X3.0559Y-4.1095
X3.0709Y-5.4429
X3.0906Y-5.315
X3.1004Y-3.9961
X3.107Y-3.426
X3.1083Y-3.5704
X3.1181Y-3.2353
X3.1339Y-4.6929
X3.1463Y-3.4251
X3.1496Y-3.9961
X3.1496Y-4.9173
X3.1496Y-5.1772
X3.1595Y-3.7992
X3.1772Y-3.6097
X3.189Y-4.6929
X3.189Y-5.7185
X3.1988Y-3.7992
X3.1988Y-5.6496
X3.2085Y-3.4293
X3.2153Y-4.2946
X3.2156Y-4.4244
X3.2156Y-4.5661
X3.247Y-4.385
X3.247Y-4.5965
X3.248Y-3.9272
X3.252Y-3.9921
X3.2559Y-3.2353
X3.2579Y-5.1969
X3.2676Y-5.7184
X3.2785Y-4.4244
X3.2785Y-4.4815
X3.283Y-4.5206
X3.2854Y-3.6294
X3.2933Y-3.9862
X3.2992Y-3.9291
X3.3169Y-5.7874
X3.3465Y-4.2362
X3.3563Y-3.9961
X3.3563Y-4.1339
X3.3661Y-5.1969
X3.376Y-3.4252
X3.3839Y-3.5704
X3.3858Y-6.0138
X3.3943Y-3.2343
X3.3957Y-5.7874
X3.4055Y-3.7992
X3.4055Y-3.9961
X3.4154Y-3.4252
X3.435Y-5.7874
X3.4409Y-4.6929
X3.4429Y-5.6496
X3.444Y-5.7092
X3.4528Y-3.6097
X3.4533Y-3.4522
X3.4547Y-3.7992
X3.4626Y-5.6102
X3.4646Y-6.0138
X3.4764Y-5.7874
X3.4882Y-4.6929
X3.5118Y-3.9528
X3.5118Y-4.1102
X3.5207Y-4.4244
X3.5207Y-4.5661
X3.5236Y-4.3406
X3.5236Y-5.4035
X3.5315Y-3.2353
X3.5433Y-6.0138
X3.5522Y-4.385
X3.5522Y-4.5965
X3.561Y-3.6294
X3.5728Y-5.7874
X3.5837Y-4.4244
X3.5837Y-4.4815
X3.5881Y-4.5206
X3.6122Y-5.7874
X3.6201Y-5.6496
X3.6201Y-5.7087
X3.622Y-6.0138
X3.6397Y-5.6102
X3.6417Y-3.0709
X3.653Y-3.4252
X3.6535Y-4.2362
X3.6536Y-5.7874
X3.6594Y-3.5704
X3.6693Y-3.2353
X3.6909Y-5.4626
X3.6923Y-3.4252
X3.7008Y-3.0709
X3.7008Y-6.0138
X3.7283Y-3.6097
X3.7323Y-3.4488
X3.7402Y-4.6929
X3.748Y-5.7874
X3.7795Y-3.0709
X3.7795Y-6.0138
X3.7894Y-5.7874
X3.7953Y-4.6929
X3.7972Y-5.6496
X3.7984Y-5.7092
X3.8071Y-3.2353
X3.8189Y-5.6102
X3.8258Y-4.4244
X3.8258Y-4.5661
X3.8287Y-4.311
X3.8307Y-5.7874
X3.8366Y-3.6294
X3.8386Y-3.0709
X3.8563Y-4.5977
X3.8573Y-4.385
X3.8583Y-5.4035
X3.8583Y-6.0138
X3.8878Y-5.0787
X3.8888Y-4.4244
X3.8888Y-4.4815
X3.8932Y-4.5206
X3.9173Y-3.0709
X3.9272Y-5.7874
X3.9272Y-3.4252
X3.935Y-3.5704
X3.937Y-6.0138
X3.9455Y-3.2343
X3.9528Y-4.2362
X3.9665Y-3.4252
X3.9665Y-5.7874
X3.9744Y-5.6496
X3.9755Y-5.7092
X3.9764Y-3.0709
X3.9941Y-5.6102
X4.0039Y-3.6097
X4.0059Y-5.7874
X4.0079Y-3.4488
X4.0157Y-6.0138
X4.0472Y-4.6929
X4.0551Y-3.0709
X4.0827Y-3.2353
X4.0945Y-6.0138
X4.1023Y-5.7874
X4.1024Y-4.6929
X4.1122Y-3.6294
X4.1142Y-3.0709
X4.122Y-5.6496
X4.1309Y-4.4244
X4.1309Y-4.5661
X4.1339Y-4.3012
X4.1417Y-5.6102
X4.1437Y-5.7874
X4.1474Y-5.6884
X4.1516Y-5.1181
X4.1624Y-4.385
X4.1624Y-4.5965
X4.1732Y-4.1339
X4.1732Y-5.2559
X4.1811Y-3.8504
X4.1831Y-5.7874
X4.1929Y-3.0709
X4.1939Y-4.4244
X4.1939Y-4.4815
X4.2028Y-4.5276
X4.2041Y-3.4266
X4.2106Y-3.5704
X4.2211Y-3.2531
X4.2224Y-3.9961
X4.2454Y-3.4233
X4.252Y-3.0709
X4.252Y-6.0138
X4.2598Y-4.2362
X4.2717Y-3.7992
X4.2717Y-3.9961
X4.2717Y-5.0787
X4.2776Y-5.2067
X4.2795Y-3.6097
X4.2913Y-6.0138
X4.3109Y-3.4293
X4.3209Y-3.7992
X4.3209Y-5.3051
X4.3307Y-3.0709
X4.3307Y-6.0138
X4.3543Y-4.6929
X4.3602Y-3.2353
X4.3701Y-3.9272
X4.3701Y-3.9921
X4.3701Y-6.0138
X4.3799Y-4.9154
X4.3799Y-5.1752
X4.3878Y-3.6294
X4.3898Y-3.0709
X4.4016Y-4.6929
X4.4094Y-6.0138
X4.4154Y-3.9862
X4.4173Y-3.9291
X4.4193Y-5.6988
X4.436Y-4.4244
X4.436Y-4.5661
X4.439Y-4.3504
X4.4488Y-6.0138
X4.4675Y-4.385
X4.4675Y-4.5965
X4.4685Y-3.0709
X4.4685Y-5.9252
X4.4783Y-3.9961
X4.4797Y-3.4252
X4.4862Y-3.5704
X4.4882Y-5.1969
X4.498Y-3.2353
X4.498Y-4.1339
X4.499Y-4.4244
X4.499Y-4.4815
X4.5034Y-4.5206
X4.5177Y-5.1181
X4.5191Y-3.4252
X4.5276Y-3.0709
X4.5276Y-3.7992
X4.5276Y-3.9961
X4.5276Y-6.0138
X4.5551Y-3.6097
X4.5591Y-3.4488
X4.5669Y-4.2362
X4.5669Y-6.0138
X4.5768Y-3.7992
X4.5768Y-5.4331
X4.6063Y-3.0709
X4.6063Y-6.0138
X4.6161Y-5.4331
X4.6299Y-3.9528
X4.6299Y-4.1102
X4.6338Y-3.2353
X4.6457Y-6.0138
X4.6555Y-5.4331
X4.6614Y-4.6929
X4.6634Y-3.6294
X4.6654Y-3.0709
X4.6752Y-5.2539
X4.7087Y-4.6929
X4.7411Y-4.4244
X4.7411Y-4.5661
X4.7441Y-3.0709
X4.7441Y-4.3504
X4.7553Y-3.4252
X4.7618Y-3.5704
X4.7638Y-5.1201
X4.7726Y-4.385
X4.7736Y-3.2353
X4.7736Y-4.5965
X4.7736Y-4.9271
X4.7795Y-5.2067
X4.7947Y-3.4252
X4.8031Y-3.0709
X4.8041Y-4.4244
X4.8041Y-4.4815
X4.813Y-3.8583
X4.813Y-4.0748
X4.813Y-4.5276
X4.813Y-4.9705
X4.813Y-5.0886
X4.813Y-5.3642
X4.813Y-5.7087
X4.813Y-5.7579
X4.8257Y-5.0255
X4.8307Y-3.6097
X4.8346Y-3.4488
X4.8622Y-4.998
X4.872Y-3.8583
X4.872Y-4.0748
X4.872Y-5.0531
X4.874Y-4.2362
X4.8809Y-5.1482
X4.8819Y-3.0709
X4.8819Y-4.9154
X4.8819Y-5.1909
X4.8937Y-4.6949
X4.8939Y-4.8421
X4.9095Y-3.2353
X4.939Y-3.6294
X4.9409Y-3.0709
X4.9606Y-4.6929
X4.9803Y-5.2953
X4.9902Y-5.8366
X5.0157Y-4.6929
X5.0197Y-3.0709
X5.0295Y-5.8366
X5.0295Y-3.4252
X5.0315Y-3.9291
X5.0374Y-3.5704
X5.0463Y-4.4244
X5.0463Y-4.5661
X5.0492Y-4.3012
X5.0492Y-3.2353
X5.0689Y-3.4252
X5.0689Y-5.8366
X5.0778Y-4.385
X5.0787Y-3.0709
X5.0787Y-3.7992
X5.0787Y-4.5965
X5.1063Y-3.6097
X5.1083Y-5.8366
X5.1093Y-4.4244
X5.1093Y-4.4815
X5.1181Y-4.5276
X5.128Y-3.7992
X5.1377Y-3.4293
X5.1476Y-5.8366
X5.1575Y-3.0709
X5.1732Y-4.2362
X5.1772Y-3.9272
X5.1811Y-3.9921
X5.185Y-3.2353
X5.187Y-5.8366
X5.1969Y-2.378
X5.2146Y-3.6294
X5.2165Y-3.0709
X5.2264Y-5.8366
X5.2283Y-3.9291
X5.2362Y-5.0197
X5.2362Y-5.0591
X5.2362Y-5.1181
X5.2362Y-5.1575
X5.2559Y-4.9409
X5.2677Y-4.6929
X5.2854Y-3.937
X5.2953Y-3.0709
X5.3051Y-3.4252
X5.313Y-3.5704
X5.315Y-5.689
X5.3228Y-4.6929
X5.3248Y-3.2353
X5.3346Y-3.7992
X5.3346Y-5.5217
X5.3458Y-3.4252
X5.3514Y-4.4244
X5.3514Y-4.5661
X5.3543Y-3.0709
X5.3642Y-4.3012
X5.374Y-5.5217
X5.3829Y-4.385
X5.3829Y-4.5965
X5.3839Y-2.4409
X5.3839Y-3.7992
X5.4144Y-4.4244
X5.4144Y-4.4815
X5.4206Y-4.5254
X5.4331Y-4.2618
X5.4331Y-5.5217
X5.4409Y-3.9528
X5.4409Y-4.1102
X5.4626Y-5.0787
X5.4626Y-5.1181
X5.4626Y-5.1575
X5.4626Y-5.1969
X5.4724Y-5.5217
X5.4823Y-5.2362
X5.4823Y-5.2756
X5.4823Y-5.315
X5.4823Y-5.3543
X5.4823Y-5.3937
X5.4921Y-2.4016
X5.502Y-5.1181
X5.502Y-5.1575
X5.502Y-5.1969
X5.5118Y-2.5689
X5.5118Y-3.4449
T2
X2.5876Y-2.7264
X2.6876Y-2.7264
X2.7876Y-2.7264
X5.2451Y-2.7264
X5.3451Y-2.7264
X5.4451Y-2.7264
T3
X3.3675Y-2.6674
X3.4126Y-2.5674
X3.4126Y-2.7674
X3.4577Y-2.6674
X3.5028Y-2.5674
X3.5028Y-2.7674
X3.5478Y-2.6674
X3.5929Y-2.5674
X3.5929Y-2.7674
X3.638Y-2.6674
X3.6831Y-2.5674
X3.6831Y-2.7674
X3.7281Y-2.6674
X3.7732Y-2.5674
X3.7732Y-2.7674
X3.8183Y-2.6674
X3.8634Y-2.5674
X3.8634Y-2.7674
X3.9085Y-2.6674
X3.9535Y-2.5674
X3.9535Y-2.7674
X3.9986Y-2.6674
X4.0437Y-2.5674
X4.0437Y-2.7674
X4.0888Y-2.6674
X4.1339Y-2.5674
X4.1339Y-2.7674
X4.1789Y-2.6674
X4.224Y-2.5674
X4.224Y-2.7674
X4.2691Y-2.6674
X4.3142Y-2.5674
X4.3142Y-2.7674
X4.3593Y-2.6674
X4.4043Y-2.5674
X4.4043Y-2.7674
X4.4494Y-2.6674
X4.4945Y-2.5674
X4.4945Y-2.7674
X4.5396Y-2.6674
X4.5846Y-2.5674
X4.5846Y-2.7674
X4.6297Y-2.6674
X4.6748Y-2.7674
T4
X3.0976Y-2.6674
X4.9496Y-2.6674
T0
M30
