%TF.GenerationSoftware,KiCad,Pcbnew,7.0.7*%
%TF.CreationDate,2023-10-22T18:45:22-04:00*%
%TF.ProjectId,DB25 encoder card,44423235-2065-46e6-936f-646572206361,rev?*%
%TF.SameCoordinates,Original*%
%TF.FileFunction,Legend,Top*%
%TF.FilePolarity,Positive*%
%FSLAX46Y46*%
G04 Gerber Fmt 4.6, Leading zero omitted, Abs format (unit mm)*
G04 Created by KiCad (PCBNEW 7.0.7) date 2023-10-22 18:45:22*
%MOMM*%
%LPD*%
G01*
G04 APERTURE LIST*
%ADD10C,0.150000*%
%ADD11C,0.200000*%
%ADD12C,0.006250*%
%ADD13C,0.120000*%
%ADD14C,0.152400*%
%ADD15C,0.010000*%
G04 APERTURE END LIST*
D10*
X71960839Y-67034942D02*
X71913220Y-67082561D01*
X71913220Y-67082561D02*
X71817982Y-67130180D01*
X71817982Y-67130180D02*
X71579887Y-67130180D01*
X71579887Y-67130180D02*
X71484649Y-67082561D01*
X71484649Y-67082561D02*
X71437030Y-67034942D01*
X71437030Y-67034942D02*
X71389411Y-66939704D01*
X71389411Y-66939704D02*
X71389411Y-66844466D01*
X71389411Y-66844466D02*
X71437030Y-66701609D01*
X71437030Y-66701609D02*
X72008458Y-66130180D01*
X72008458Y-66130180D02*
X71389411Y-66130180D01*
X70532268Y-66796847D02*
X70532268Y-66130180D01*
X70770363Y-67177800D02*
X71008458Y-66463514D01*
X71008458Y-66463514D02*
X70389411Y-66463514D01*
X70151315Y-67130180D02*
X69817982Y-66130180D01*
X69817982Y-66130180D02*
X69484649Y-67130180D01*
X65937030Y-67130180D02*
X66413220Y-67130180D01*
X66413220Y-67130180D02*
X66460839Y-66653990D01*
X66460839Y-66653990D02*
X66413220Y-66701609D01*
X66413220Y-66701609D02*
X66317982Y-66749228D01*
X66317982Y-66749228D02*
X66079887Y-66749228D01*
X66079887Y-66749228D02*
X65984649Y-66701609D01*
X65984649Y-66701609D02*
X65937030Y-66653990D01*
X65937030Y-66653990D02*
X65889411Y-66558752D01*
X65889411Y-66558752D02*
X65889411Y-66320657D01*
X65889411Y-66320657D02*
X65937030Y-66225419D01*
X65937030Y-66225419D02*
X65984649Y-66177800D01*
X65984649Y-66177800D02*
X66079887Y-66130180D01*
X66079887Y-66130180D02*
X66317982Y-66130180D01*
X66317982Y-66130180D02*
X66413220Y-66177800D01*
X66413220Y-66177800D02*
X66460839Y-66225419D01*
X65603696Y-67130180D02*
X65270363Y-66130180D01*
X65270363Y-66130180D02*
X64937030Y-67130180D01*
X133437030Y-67130180D02*
X133913220Y-67130180D01*
X133913220Y-67130180D02*
X133960839Y-66653990D01*
X133960839Y-66653990D02*
X133913220Y-66701609D01*
X133913220Y-66701609D02*
X133817982Y-66749228D01*
X133817982Y-66749228D02*
X133579887Y-66749228D01*
X133579887Y-66749228D02*
X133484649Y-66701609D01*
X133484649Y-66701609D02*
X133437030Y-66653990D01*
X133437030Y-66653990D02*
X133389411Y-66558752D01*
X133389411Y-66558752D02*
X133389411Y-66320657D01*
X133389411Y-66320657D02*
X133437030Y-66225419D01*
X133437030Y-66225419D02*
X133484649Y-66177800D01*
X133484649Y-66177800D02*
X133579887Y-66130180D01*
X133579887Y-66130180D02*
X133817982Y-66130180D01*
X133817982Y-66130180D02*
X133913220Y-66177800D01*
X133913220Y-66177800D02*
X133960839Y-66225419D01*
X133103696Y-67130180D02*
X132770363Y-66130180D01*
X132770363Y-66130180D02*
X132437030Y-67130180D01*
X139460839Y-67034942D02*
X139413220Y-67082561D01*
X139413220Y-67082561D02*
X139317982Y-67130180D01*
X139317982Y-67130180D02*
X139079887Y-67130180D01*
X139079887Y-67130180D02*
X138984649Y-67082561D01*
X138984649Y-67082561D02*
X138937030Y-67034942D01*
X138937030Y-67034942D02*
X138889411Y-66939704D01*
X138889411Y-66939704D02*
X138889411Y-66844466D01*
X138889411Y-66844466D02*
X138937030Y-66701609D01*
X138937030Y-66701609D02*
X139508458Y-66130180D01*
X139508458Y-66130180D02*
X138889411Y-66130180D01*
X138032268Y-66796847D02*
X138032268Y-66130180D01*
X138270363Y-67177800D02*
X138508458Y-66463514D01*
X138508458Y-66463514D02*
X137889411Y-66463514D01*
X137651315Y-67130180D02*
X137317982Y-66130180D01*
X137317982Y-66130180D02*
X136984649Y-67130180D01*
X139008458Y-60880180D02*
X138389411Y-60880180D01*
X138389411Y-60880180D02*
X138722744Y-60499228D01*
X138722744Y-60499228D02*
X138579887Y-60499228D01*
X138579887Y-60499228D02*
X138484649Y-60451609D01*
X138484649Y-60451609D02*
X138437030Y-60403990D01*
X138437030Y-60403990D02*
X138389411Y-60308752D01*
X138389411Y-60308752D02*
X138389411Y-60070657D01*
X138389411Y-60070657D02*
X138437030Y-59975419D01*
X138437030Y-59975419D02*
X138484649Y-59927800D01*
X138484649Y-59927800D02*
X138579887Y-59880180D01*
X138579887Y-59880180D02*
X138865601Y-59880180D01*
X138865601Y-59880180D02*
X138960839Y-59927800D01*
X138960839Y-59927800D02*
X139008458Y-59975419D01*
X135210839Y-60784942D02*
X135163220Y-60832561D01*
X135163220Y-60832561D02*
X135067982Y-60880180D01*
X135067982Y-60880180D02*
X134829887Y-60880180D01*
X134829887Y-60880180D02*
X134734649Y-60832561D01*
X134734649Y-60832561D02*
X134687030Y-60784942D01*
X134687030Y-60784942D02*
X134639411Y-60689704D01*
X134639411Y-60689704D02*
X134639411Y-60594466D01*
X134639411Y-60594466D02*
X134687030Y-60451609D01*
X134687030Y-60451609D02*
X135258458Y-59880180D01*
X135258458Y-59880180D02*
X134639411Y-59880180D01*
X130889411Y-59880180D02*
X131460839Y-59880180D01*
X131175125Y-59880180D02*
X131175125Y-60880180D01*
X131175125Y-60880180D02*
X131270363Y-60737323D01*
X131270363Y-60737323D02*
X131365601Y-60642085D01*
X131365601Y-60642085D02*
X131460839Y-60594466D01*
X113521249Y-139848019D02*
X113521249Y-140086114D01*
X113283154Y-139990876D02*
X113521249Y-140086114D01*
X113521249Y-140086114D02*
X113759344Y-139990876D01*
X113378392Y-140276590D02*
X113521249Y-140086114D01*
X113521249Y-140086114D02*
X113664106Y-140276590D01*
X113521249Y-139848019D02*
X113521249Y-140086114D01*
X113283154Y-139990876D02*
X113521249Y-140086114D01*
X113521249Y-140086114D02*
X113759344Y-139990876D01*
X113378392Y-140276590D02*
X113521249Y-140086114D01*
X113521249Y-140086114D02*
X113664106Y-140276590D01*
D11*
%TO.C,REF\u002A\u002A*%
X72273975Y-62750000D02*
G75*
G03*
X72273975Y-62750000I-1523975J0D01*
G01*
D12*
X71806260Y-63510246D02*
X71479094Y-63510246D01*
X71479094Y-61966121D01*
X71806260Y-61966121D01*
X71806260Y-63510246D01*
G36*
X71806260Y-63510246D02*
G01*
X71479094Y-63510246D01*
X71479094Y-61966121D01*
X71806260Y-61966121D01*
X71806260Y-63510246D01*
G37*
X71381192Y-63510246D02*
X70833436Y-63510246D01*
X70821044Y-63250000D01*
X71381192Y-63250000D01*
X71381192Y-63510246D01*
G36*
X71381192Y-63510246D02*
G01*
X70833436Y-63510246D01*
X70821044Y-63250000D01*
X71381192Y-63250000D01*
X71381192Y-63510246D01*
G37*
X71381192Y-62858392D02*
X70941252Y-62858392D01*
X70941252Y-62619214D01*
X71381192Y-62619214D01*
X71381192Y-62858392D01*
G36*
X71381192Y-62858392D02*
G01*
X70941252Y-62858392D01*
X70941252Y-62619214D01*
X71381192Y-62619214D01*
X71381192Y-62858392D01*
G37*
X71381192Y-62227606D02*
X70821044Y-62227606D01*
X70833436Y-61966121D01*
X71381192Y-61966121D01*
X71381192Y-62227606D01*
G36*
X71381192Y-62227606D02*
G01*
X70821044Y-62227606D01*
X70833436Y-61966121D01*
X71381192Y-61966121D01*
X71381192Y-62227606D01*
G37*
X70319571Y-61967088D02*
X70351342Y-61969907D01*
X70381065Y-61974454D01*
X70408807Y-61980605D01*
X70434636Y-61988238D01*
X70458622Y-61997229D01*
X70480831Y-62007454D01*
X70501333Y-62018790D01*
X70520196Y-62031114D01*
X70537488Y-62044302D01*
X70553277Y-62058230D01*
X70567631Y-62072776D01*
X70580620Y-62087815D01*
X70592311Y-62103225D01*
X70602773Y-62118881D01*
X70612073Y-62134661D01*
X70620281Y-62150442D01*
X70627464Y-62166098D01*
X70633691Y-62181508D01*
X70639030Y-62196547D01*
X70643549Y-62211093D01*
X70647317Y-62225021D01*
X70650402Y-62238209D01*
X70652872Y-62250533D01*
X70654796Y-62261869D01*
X70656242Y-62272094D01*
X70657278Y-62281085D01*
X70657972Y-62288718D01*
X70658609Y-62299416D01*
X70658700Y-62303201D01*
X70658700Y-63173166D01*
X70657630Y-63203789D01*
X70654511Y-63232500D01*
X70649480Y-63259359D01*
X70642672Y-63284428D01*
X70634226Y-63307769D01*
X70624276Y-63329444D01*
X70612961Y-63349513D01*
X70600416Y-63368040D01*
X70586779Y-63385085D01*
X70572185Y-63400711D01*
X70556771Y-63414979D01*
X70540675Y-63427951D01*
X70524032Y-63439688D01*
X70506979Y-63450253D01*
X70489653Y-63459706D01*
X70472191Y-63468111D01*
X70454729Y-63475527D01*
X70437403Y-63482018D01*
X70420350Y-63487645D01*
X70403707Y-63492470D01*
X70387611Y-63496554D01*
X70372197Y-63499959D01*
X70357603Y-63502746D01*
X70343966Y-63504979D01*
X70331421Y-63506717D01*
X70320106Y-63508024D01*
X70310156Y-63508960D01*
X70301710Y-63509587D01*
X70294902Y-63509968D01*
X70286752Y-63510235D01*
X70285681Y-63510246D01*
X70156797Y-63510246D01*
X70156797Y-63250000D01*
X70226196Y-63250000D01*
X70235766Y-63249719D01*
X70244738Y-63248900D01*
X70253132Y-63247579D01*
X70260966Y-63245793D01*
X70268260Y-63243576D01*
X70275033Y-63240965D01*
X70281305Y-63237995D01*
X70287094Y-63234702D01*
X70292421Y-63231123D01*
X70301763Y-63223247D01*
X70309484Y-63214655D01*
X70315740Y-63205632D01*
X70320684Y-63196465D01*
X70324471Y-63187442D01*
X70327255Y-63178850D01*
X70329190Y-63170974D01*
X70330431Y-63164102D01*
X70331328Y-63156304D01*
X70331533Y-63152098D01*
X70331533Y-62325508D01*
X70331231Y-62316614D01*
X70330351Y-62308275D01*
X70328930Y-62300474D01*
X70327007Y-62293193D01*
X70324622Y-62286414D01*
X70321812Y-62280119D01*
X70318617Y-62274290D01*
X70315075Y-62268909D01*
X70311223Y-62263958D01*
X70302750Y-62255276D01*
X70293504Y-62248099D01*
X70283796Y-62242285D01*
X70273934Y-62237690D01*
X70264226Y-62234171D01*
X70254980Y-62231583D01*
X70246507Y-62229785D01*
X70239113Y-62228631D01*
X70230723Y-62227798D01*
X70226196Y-62227606D01*
X70156797Y-62227606D01*
X70156797Y-61966121D01*
X70285681Y-61966121D01*
X70319571Y-61967088D01*
G36*
X70319571Y-61967088D02*
G01*
X70351342Y-61969907D01*
X70381065Y-61974454D01*
X70408807Y-61980605D01*
X70434636Y-61988238D01*
X70458622Y-61997229D01*
X70480831Y-62007454D01*
X70501333Y-62018790D01*
X70520196Y-62031114D01*
X70537488Y-62044302D01*
X70553277Y-62058230D01*
X70567631Y-62072776D01*
X70580620Y-62087815D01*
X70592311Y-62103225D01*
X70602773Y-62118881D01*
X70612073Y-62134661D01*
X70620281Y-62150442D01*
X70627464Y-62166098D01*
X70633691Y-62181508D01*
X70639030Y-62196547D01*
X70643549Y-62211093D01*
X70647317Y-62225021D01*
X70650402Y-62238209D01*
X70652872Y-62250533D01*
X70654796Y-62261869D01*
X70656242Y-62272094D01*
X70657278Y-62281085D01*
X70657972Y-62288718D01*
X70658609Y-62299416D01*
X70658700Y-62303201D01*
X70658700Y-63173166D01*
X70657630Y-63203789D01*
X70654511Y-63232500D01*
X70649480Y-63259359D01*
X70642672Y-63284428D01*
X70634226Y-63307769D01*
X70624276Y-63329444D01*
X70612961Y-63349513D01*
X70600416Y-63368040D01*
X70586779Y-63385085D01*
X70572185Y-63400711D01*
X70556771Y-63414979D01*
X70540675Y-63427951D01*
X70524032Y-63439688D01*
X70506979Y-63450253D01*
X70489653Y-63459706D01*
X70472191Y-63468111D01*
X70454729Y-63475527D01*
X70437403Y-63482018D01*
X70420350Y-63487645D01*
X70403707Y-63492470D01*
X70387611Y-63496554D01*
X70372197Y-63499959D01*
X70357603Y-63502746D01*
X70343966Y-63504979D01*
X70331421Y-63506717D01*
X70320106Y-63508024D01*
X70310156Y-63508960D01*
X70301710Y-63509587D01*
X70294902Y-63509968D01*
X70286752Y-63510235D01*
X70285681Y-63510246D01*
X70156797Y-63510246D01*
X70156797Y-63250000D01*
X70226196Y-63250000D01*
X70235766Y-63249719D01*
X70244738Y-63248900D01*
X70253132Y-63247579D01*
X70260966Y-63245793D01*
X70268260Y-63243576D01*
X70275033Y-63240965D01*
X70281305Y-63237995D01*
X70287094Y-63234702D01*
X70292421Y-63231123D01*
X70301763Y-63223247D01*
X70309484Y-63214655D01*
X70315740Y-63205632D01*
X70320684Y-63196465D01*
X70324471Y-63187442D01*
X70327255Y-63178850D01*
X70329190Y-63170974D01*
X70330431Y-63164102D01*
X70331328Y-63156304D01*
X70331533Y-63152098D01*
X70331533Y-62325508D01*
X70331231Y-62316614D01*
X70330351Y-62308275D01*
X70328930Y-62300474D01*
X70327007Y-62293193D01*
X70324622Y-62286414D01*
X70321812Y-62280119D01*
X70318617Y-62274290D01*
X70315075Y-62268909D01*
X70311223Y-62263958D01*
X70302750Y-62255276D01*
X70293504Y-62248099D01*
X70283796Y-62242285D01*
X70273934Y-62237690D01*
X70264226Y-62234171D01*
X70254980Y-62231583D01*
X70246507Y-62229785D01*
X70239113Y-62228631D01*
X70230723Y-62227798D01*
X70226196Y-62227606D01*
X70156797Y-62227606D01*
X70156797Y-61966121D01*
X70285681Y-61966121D01*
X70319571Y-61967088D01*
G37*
X70060134Y-62227606D02*
X69987017Y-62227606D01*
X69977448Y-62227887D01*
X69968476Y-62228706D01*
X69960082Y-62230027D01*
X69952248Y-62231813D01*
X69944954Y-62234030D01*
X69938181Y-62236641D01*
X69931909Y-62239611D01*
X69926120Y-62242904D01*
X69920793Y-62246483D01*
X69911451Y-62254359D01*
X69903730Y-62262951D01*
X69897474Y-62271974D01*
X69892530Y-62281141D01*
X69888743Y-62290164D01*
X69885959Y-62298756D01*
X69884024Y-62306632D01*
X69882783Y-62313504D01*
X69881886Y-62321302D01*
X69881680Y-62325508D01*
X69881680Y-63152098D01*
X69881983Y-63160992D01*
X69882863Y-63169331D01*
X69884284Y-63177132D01*
X69886207Y-63184413D01*
X69888592Y-63191192D01*
X69891402Y-63197487D01*
X69894597Y-63203316D01*
X69898139Y-63208697D01*
X69901991Y-63213648D01*
X69910464Y-63222330D01*
X69919710Y-63229507D01*
X69929418Y-63235321D01*
X69939280Y-63239916D01*
X69948988Y-63243435D01*
X69958234Y-63246023D01*
X69966707Y-63247821D01*
X69974101Y-63248975D01*
X69982491Y-63249808D01*
X69987017Y-63250000D01*
X70060134Y-63250000D01*
X70060134Y-63510246D01*
X69927533Y-63510246D01*
X69893644Y-63509279D01*
X69861873Y-63506460D01*
X69832150Y-63501913D01*
X69804408Y-63495762D01*
X69778579Y-63488129D01*
X69754593Y-63479138D01*
X69732384Y-63468913D01*
X69711882Y-63457577D01*
X69693019Y-63445253D01*
X69675727Y-63432065D01*
X69659938Y-63418137D01*
X69645584Y-63403591D01*
X69632595Y-63388552D01*
X69620904Y-63373142D01*
X69610442Y-63357486D01*
X69601142Y-63341706D01*
X69592934Y-63325925D01*
X69585751Y-63310269D01*
X69579524Y-63294859D01*
X69574185Y-63279820D01*
X69569666Y-63265274D01*
X69565898Y-63251346D01*
X69562813Y-63238158D01*
X69560343Y-63225834D01*
X69558419Y-63214498D01*
X69556973Y-63204273D01*
X69555937Y-63195282D01*
X69555243Y-63187649D01*
X69554606Y-63176951D01*
X69554514Y-63173166D01*
X69554514Y-62303201D01*
X69555585Y-62272578D01*
X69558704Y-62243867D01*
X69563735Y-62217008D01*
X69570543Y-62191939D01*
X69578989Y-62168598D01*
X69588939Y-62146923D01*
X69600254Y-62126854D01*
X69612799Y-62108327D01*
X69626436Y-62091282D01*
X69641030Y-62075656D01*
X69656444Y-62061388D01*
X69672540Y-62048416D01*
X69689183Y-62036679D01*
X69706236Y-62026114D01*
X69723562Y-62016661D01*
X69741024Y-62008256D01*
X69758486Y-62000840D01*
X69775812Y-61994349D01*
X69792865Y-61988722D01*
X69809508Y-61983897D01*
X69825604Y-61979813D01*
X69841018Y-61976408D01*
X69855612Y-61973621D01*
X69869249Y-61971388D01*
X69881794Y-61969650D01*
X69893109Y-61968343D01*
X69903059Y-61967407D01*
X69911505Y-61966780D01*
X69918313Y-61966399D01*
X69926463Y-61966132D01*
X69927533Y-61966121D01*
X70060134Y-61966121D01*
X70060134Y-62227606D01*
G36*
X70060134Y-62227606D02*
G01*
X69987017Y-62227606D01*
X69977448Y-62227887D01*
X69968476Y-62228706D01*
X69960082Y-62230027D01*
X69952248Y-62231813D01*
X69944954Y-62234030D01*
X69938181Y-62236641D01*
X69931909Y-62239611D01*
X69926120Y-62242904D01*
X69920793Y-62246483D01*
X69911451Y-62254359D01*
X69903730Y-62262951D01*
X69897474Y-62271974D01*
X69892530Y-62281141D01*
X69888743Y-62290164D01*
X69885959Y-62298756D01*
X69884024Y-62306632D01*
X69882783Y-62313504D01*
X69881886Y-62321302D01*
X69881680Y-62325508D01*
X69881680Y-63152098D01*
X69881983Y-63160992D01*
X69882863Y-63169331D01*
X69884284Y-63177132D01*
X69886207Y-63184413D01*
X69888592Y-63191192D01*
X69891402Y-63197487D01*
X69894597Y-63203316D01*
X69898139Y-63208697D01*
X69901991Y-63213648D01*
X69910464Y-63222330D01*
X69919710Y-63229507D01*
X69929418Y-63235321D01*
X69939280Y-63239916D01*
X69948988Y-63243435D01*
X69958234Y-63246023D01*
X69966707Y-63247821D01*
X69974101Y-63248975D01*
X69982491Y-63249808D01*
X69987017Y-63250000D01*
X70060134Y-63250000D01*
X70060134Y-63510246D01*
X69927533Y-63510246D01*
X69893644Y-63509279D01*
X69861873Y-63506460D01*
X69832150Y-63501913D01*
X69804408Y-63495762D01*
X69778579Y-63488129D01*
X69754593Y-63479138D01*
X69732384Y-63468913D01*
X69711882Y-63457577D01*
X69693019Y-63445253D01*
X69675727Y-63432065D01*
X69659938Y-63418137D01*
X69645584Y-63403591D01*
X69632595Y-63388552D01*
X69620904Y-63373142D01*
X69610442Y-63357486D01*
X69601142Y-63341706D01*
X69592934Y-63325925D01*
X69585751Y-63310269D01*
X69579524Y-63294859D01*
X69574185Y-63279820D01*
X69569666Y-63265274D01*
X69565898Y-63251346D01*
X69562813Y-63238158D01*
X69560343Y-63225834D01*
X69558419Y-63214498D01*
X69556973Y-63204273D01*
X69555937Y-63195282D01*
X69555243Y-63187649D01*
X69554606Y-63176951D01*
X69554514Y-63173166D01*
X69554514Y-62303201D01*
X69555585Y-62272578D01*
X69558704Y-62243867D01*
X69563735Y-62217008D01*
X69570543Y-62191939D01*
X69578989Y-62168598D01*
X69588939Y-62146923D01*
X69600254Y-62126854D01*
X69612799Y-62108327D01*
X69626436Y-62091282D01*
X69641030Y-62075656D01*
X69656444Y-62061388D01*
X69672540Y-62048416D01*
X69689183Y-62036679D01*
X69706236Y-62026114D01*
X69723562Y-62016661D01*
X69741024Y-62008256D01*
X69758486Y-62000840D01*
X69775812Y-61994349D01*
X69792865Y-61988722D01*
X69809508Y-61983897D01*
X69825604Y-61979813D01*
X69841018Y-61976408D01*
X69855612Y-61973621D01*
X69869249Y-61971388D01*
X69881794Y-61969650D01*
X69893109Y-61968343D01*
X69903059Y-61967407D01*
X69911505Y-61966780D01*
X69918313Y-61966399D01*
X69926463Y-61966132D01*
X69927533Y-61966121D01*
X70060134Y-61966121D01*
X70060134Y-62227606D01*
G37*
D13*
%TO.C,C32*%
X138390580Y-144061252D02*
X138109420Y-144061252D01*
X138390580Y-143041252D02*
X138109420Y-143041252D01*
%TO.C,R74*%
X75262742Y-139227500D02*
X75737258Y-139227500D01*
X75262742Y-140272500D02*
X75737258Y-140272500D01*
%TO.C,R10*%
X91772500Y-121262742D02*
X91772500Y-121737258D01*
X90727500Y-121262742D02*
X90727500Y-121737258D01*
%TO.C,R97*%
X103937258Y-83472500D02*
X103462742Y-83472500D01*
X103937258Y-82427500D02*
X103462742Y-82427500D01*
%TO.C,D17*%
X129775000Y-80250000D02*
X129775000Y-78575000D01*
X129775000Y-80250000D02*
X129775000Y-80900000D01*
X126655000Y-80250000D02*
X126655000Y-79600000D01*
X126655000Y-80250000D02*
X126655000Y-80900000D01*
%TO.C,R41*%
X100442500Y-85487258D02*
X100442500Y-85012742D01*
X101487500Y-85487258D02*
X101487500Y-85012742D01*
%TO.C,R58*%
X138272500Y-121262742D02*
X138272500Y-121737258D01*
X137227500Y-121262742D02*
X137227500Y-121737258D01*
%TO.C,R73*%
X135737258Y-126022500D02*
X135262742Y-126022500D01*
X135737258Y-124977500D02*
X135262742Y-124977500D01*
%TO.C,D5*%
X91275000Y-80250000D02*
X91275000Y-78575000D01*
X91275000Y-80250000D02*
X91275000Y-80900000D01*
X88155000Y-80250000D02*
X88155000Y-79600000D01*
X88155000Y-80250000D02*
X88155000Y-80900000D01*
%TO.C,R34*%
X72442500Y-85487258D02*
X72442500Y-85012742D01*
X73487500Y-85487258D02*
X73487500Y-85012742D01*
%TO.C,D3*%
X77275000Y-80250000D02*
X77275000Y-78575000D01*
X77275000Y-80250000D02*
X77275000Y-80900000D01*
X74155000Y-80250000D02*
X74155000Y-79600000D01*
X74155000Y-80250000D02*
X74155000Y-80900000D01*
%TO.C,C19*%
X103359420Y-117490000D02*
X103640580Y-117490000D01*
X103359420Y-118510000D02*
X103640580Y-118510000D01*
%TO.C,U8*%
X81655000Y-91402500D02*
X81655000Y-94852500D01*
X81655000Y-91402500D02*
X81655000Y-89452500D01*
X86775000Y-91402500D02*
X86775000Y-93352500D01*
X86775000Y-91402500D02*
X86775000Y-89452500D01*
%TO.C,C12*%
X76459420Y-132990000D02*
X76740580Y-132990000D01*
X76459420Y-134010000D02*
X76740580Y-134010000D01*
%TO.C,R9*%
X84022500Y-121262742D02*
X84022500Y-121737258D01*
X82977500Y-121262742D02*
X82977500Y-121737258D01*
%TO.C,U4*%
X74750000Y-116935000D02*
X78200000Y-116935000D01*
X74750000Y-116935000D02*
X72800000Y-116935000D01*
X74750000Y-108065000D02*
X76700000Y-108065000D01*
X74750000Y-108065000D02*
X72800000Y-108065000D01*
%TO.C,D1*%
X70275000Y-80250000D02*
X70275000Y-78575000D01*
X70275000Y-80250000D02*
X70275000Y-80900000D01*
X67155000Y-80250000D02*
X67155000Y-79600000D01*
X67155000Y-80250000D02*
X67155000Y-80900000D01*
%TO.C,R81*%
X68937258Y-83472500D02*
X68462742Y-83472500D01*
X68937258Y-82427500D02*
X68462742Y-82427500D01*
%TO.C,C27*%
X130660000Y-144788748D02*
X130660000Y-146211252D01*
X128840000Y-144788748D02*
X128840000Y-146211252D01*
%TO.C,D15*%
X115775000Y-80250000D02*
X115775000Y-78575000D01*
X115775000Y-80250000D02*
X115775000Y-80900000D01*
X112655000Y-80250000D02*
X112655000Y-79600000D01*
X112655000Y-80250000D02*
X112655000Y-80900000D01*
%TO.C,L1*%
X132950000Y-132201252D02*
X138050000Y-132201252D01*
X132950000Y-137401252D02*
X138050000Y-137401252D01*
%TO.C,R65*%
X123442500Y-85487258D02*
X123442500Y-85012742D01*
X124487500Y-85487258D02*
X124487500Y-85012742D01*
%TO.C,R38*%
X84942500Y-85487258D02*
X84942500Y-85012742D01*
X85987500Y-85487258D02*
X85987500Y-85012742D01*
%TO.C,C14*%
X120459420Y-132940000D02*
X120740580Y-132940000D01*
X120459420Y-133960000D02*
X120740580Y-133960000D01*
%TO.C,D16*%
X122775000Y-80250000D02*
X122775000Y-78575000D01*
X122775000Y-80250000D02*
X122775000Y-80900000D01*
X119655000Y-80250000D02*
X119655000Y-79600000D01*
X119655000Y-80250000D02*
X119655000Y-80900000D01*
%TO.C,R59*%
X96477500Y-135487258D02*
X96477500Y-135012742D01*
X97522500Y-135487258D02*
X97522500Y-135012742D01*
%TO.C,R28*%
X103927500Y-85487258D02*
X103927500Y-85012742D01*
X104972500Y-85487258D02*
X104972500Y-85012742D01*
%TO.C,C46*%
X122090000Y-101461252D02*
X122090000Y-100038748D01*
X123910000Y-101461252D02*
X123910000Y-100038748D01*
%TO.C,C26*%
X137705000Y-102543080D02*
X137705000Y-102261920D01*
X138725000Y-102543080D02*
X138725000Y-102261920D01*
%TO.C,U23*%
X109750000Y-132535000D02*
X113350000Y-132535000D01*
X109750000Y-132535000D02*
X107550000Y-132535000D01*
X109750000Y-124465000D02*
X111950000Y-124465000D01*
X109750000Y-124465000D02*
X107550000Y-124465000D01*
D14*
%TO.C,U29*%
X97092000Y-143985000D02*
X95488000Y-143985000D01*
X95488000Y-146439000D02*
X97092000Y-146439000D01*
D13*
%TO.C,C45*%
X68711252Y-131410000D02*
X67288748Y-131410000D01*
X68711252Y-129590000D02*
X67288748Y-129590000D01*
%TO.C,C43*%
X136910000Y-139340000D02*
X136910000Y-140762504D01*
X135090000Y-139340000D02*
X135090000Y-140762504D01*
%TO.C,R51*%
X135477500Y-85487258D02*
X135477500Y-85012742D01*
X136522500Y-85487258D02*
X136522500Y-85012742D01*
%TO.C,D23*%
X140235000Y-62735000D02*
X140235000Y-61265000D01*
X140235000Y-61265000D02*
X137950000Y-61265000D01*
X137950000Y-62735000D02*
X140235000Y-62735000D01*
%TO.C,C31*%
X132010000Y-136410672D02*
X132010000Y-136691832D01*
X130990000Y-136410672D02*
X130990000Y-136691832D01*
%TO.C,R47*%
X121477500Y-85487258D02*
X121477500Y-85012742D01*
X122522500Y-85487258D02*
X122522500Y-85012742D01*
%TO.C,R20*%
X122772500Y-121262742D02*
X122772500Y-121737258D01*
X121727500Y-121262742D02*
X121727500Y-121737258D01*
%TO.C,R83*%
X86437258Y-83472500D02*
X85962742Y-83472500D01*
X86437258Y-82427500D02*
X85962742Y-82427500D01*
%TO.C,R4*%
X66772500Y-121262742D02*
X66772500Y-121737258D01*
X65727500Y-121262742D02*
X65727500Y-121737258D01*
%TO.C,U21*%
X136750000Y-116935000D02*
X140200000Y-116935000D01*
X136750000Y-116935000D02*
X134800000Y-116935000D01*
X136750000Y-108065000D02*
X138700000Y-108065000D01*
X136750000Y-108065000D02*
X134800000Y-108065000D01*
%TO.C,R25*%
X95442500Y-85487258D02*
X95442500Y-85012742D01*
X96487500Y-85487258D02*
X96487500Y-85012742D01*
%TO.C,U18*%
X116655000Y-91377500D02*
X116655000Y-94827500D01*
X116655000Y-91377500D02*
X116655000Y-89427500D01*
X121775000Y-91377500D02*
X121775000Y-93327500D01*
X121775000Y-91377500D02*
X121775000Y-89427500D01*
%TO.C,D2*%
X73775000Y-80250000D02*
X73775000Y-78575000D01*
X73775000Y-80250000D02*
X73775000Y-80900000D01*
X70655000Y-80250000D02*
X70655000Y-79600000D01*
X70655000Y-80250000D02*
X70655000Y-80900000D01*
%TO.C,R42*%
X98942500Y-85487258D02*
X98942500Y-85012742D01*
X99987500Y-85487258D02*
X99987500Y-85012742D01*
%TO.C,R72*%
X67762742Y-142977500D02*
X68237258Y-142977500D01*
X67762742Y-144022500D02*
X68237258Y-144022500D01*
D14*
%TO.C,U28*%
X101592000Y-143985000D02*
X99988000Y-143985000D01*
X99988000Y-146439000D02*
X101592000Y-146439000D01*
D13*
%TO.C,U26*%
X122500000Y-132535000D02*
X126100000Y-132535000D01*
X122500000Y-132535000D02*
X120300000Y-132535000D01*
X122500000Y-124465000D02*
X124700000Y-124465000D01*
X122500000Y-124465000D02*
X120300000Y-124465000D01*
%TO.C,C23*%
X134359420Y-117490000D02*
X134640580Y-117490000D01*
X134359420Y-118510000D02*
X134640580Y-118510000D01*
%TO.C,C11*%
X130225000Y-89486920D02*
X130225000Y-89768080D01*
X129205000Y-89486920D02*
X129205000Y-89768080D01*
%TO.C,C21*%
X118859420Y-117490000D02*
X119140580Y-117490000D01*
X118859420Y-118510000D02*
X119140580Y-118510000D01*
%TO.C,R86*%
X93437258Y-83472500D02*
X92962742Y-83472500D01*
X93437258Y-82427500D02*
X92962742Y-82427500D01*
%TO.C,R90*%
X121487258Y-83472500D02*
X121012742Y-83472500D01*
X121487258Y-82427500D02*
X121012742Y-82427500D01*
%TO.C,D10*%
X80775000Y-80250000D02*
X80775000Y-78575000D01*
X80775000Y-80250000D02*
X80775000Y-80900000D01*
X77655000Y-80250000D02*
X77655000Y-79600000D01*
X77655000Y-80250000D02*
X77655000Y-80900000D01*
%TO.C,C30*%
X133160000Y-144788748D02*
X133160000Y-146211252D01*
X131340000Y-144788748D02*
X131340000Y-146211252D01*
%TO.C,R31*%
X116442500Y-85487258D02*
X116442500Y-85012742D01*
X117487500Y-85487258D02*
X117487500Y-85012742D01*
%TO.C,C13*%
X107709420Y-132940000D02*
X107990580Y-132940000D01*
X107709420Y-133960000D02*
X107990580Y-133960000D01*
%TO.C,D6*%
X98275000Y-80250000D02*
X98275000Y-78575000D01*
X98275000Y-80250000D02*
X98275000Y-80900000D01*
X95155000Y-80250000D02*
X95155000Y-79600000D01*
X95155000Y-80250000D02*
X95155000Y-80900000D01*
%TO.C,R11*%
X82252500Y-121262742D02*
X82252500Y-121737258D01*
X81207500Y-121262742D02*
X81207500Y-121737258D01*
%TO.C,C28*%
X114010000Y-148359420D02*
X114010000Y-148640580D01*
X112990000Y-148359420D02*
X112990000Y-148640580D01*
%TO.C,U35*%
X63690000Y-140500000D02*
X63690000Y-142300000D01*
X63690000Y-140500000D02*
X63690000Y-139700000D01*
X66810000Y-140500000D02*
X66810000Y-141300000D01*
X66810000Y-140500000D02*
X66810000Y-139700000D01*
%TO.C,C4*%
X81225000Y-89511920D02*
X81225000Y-89793080D01*
X80205000Y-89511920D02*
X80205000Y-89793080D01*
%TO.C,C38*%
X64760000Y-136359420D02*
X64760000Y-136640580D01*
X63740000Y-136359420D02*
X63740000Y-136640580D01*
D14*
%TO.C,U31*%
X88092000Y-143985000D02*
X86488000Y-143985000D01*
X86488000Y-146439000D02*
X88092000Y-146439000D01*
D13*
%TO.C,R36*%
X77942500Y-85487258D02*
X77942500Y-85012742D01*
X78987500Y-85487258D02*
X78987500Y-85012742D01*
%TO.C,U16*%
X102655000Y-91402500D02*
X102655000Y-94852500D01*
X102655000Y-91402500D02*
X102655000Y-89452500D01*
X107775000Y-91402500D02*
X107775000Y-93352500D01*
X107775000Y-91402500D02*
X107775000Y-89452500D01*
D14*
%TO.C,U30*%
X92592000Y-143985000D02*
X90988000Y-143985000D01*
X90988000Y-146439000D02*
X92592000Y-146439000D01*
D13*
%TO.C,R13*%
X81442500Y-85487258D02*
X81442500Y-85012742D01*
X82487500Y-85487258D02*
X82487500Y-85012742D01*
%TO.C,R12*%
X90002500Y-121262742D02*
X90002500Y-121737258D01*
X88957500Y-121262742D02*
X88957500Y-121737258D01*
%TO.C,R84*%
X79437258Y-83472500D02*
X78962742Y-83472500D01*
X79437258Y-82427500D02*
X78962742Y-82427500D01*
%TO.C,D7*%
X105275000Y-80250000D02*
X105275000Y-78575000D01*
X105275000Y-80250000D02*
X105275000Y-80900000D01*
X102155000Y-80250000D02*
X102155000Y-79600000D01*
X102155000Y-80250000D02*
X102155000Y-80900000D01*
%TO.C,R67*%
X130442500Y-85487258D02*
X130442500Y-85012742D01*
X131487500Y-85487258D02*
X131487500Y-85012742D01*
%TO.C,R50*%
X126977500Y-85487258D02*
X126977500Y-85012742D01*
X128022500Y-85487258D02*
X128022500Y-85012742D01*
%TO.C,D13*%
X101775000Y-80250000D02*
X101775000Y-78575000D01*
X101775000Y-80250000D02*
X101775000Y-80900000D01*
X98655000Y-80250000D02*
X98655000Y-79600000D01*
X98655000Y-80250000D02*
X98655000Y-80900000D01*
%TO.C,REF\u002A\u002A*%
D15*
X92732384Y-96139178D02*
X92736201Y-96215380D01*
X92739101Y-96330459D01*
X92740809Y-96474659D01*
X92741149Y-96580186D01*
X92739412Y-96784387D01*
X92732618Y-96939303D01*
X92718393Y-97053976D01*
X92694362Y-97137449D01*
X92658152Y-97198764D01*
X92607388Y-97246966D01*
X92557261Y-97280607D01*
X92436725Y-97325381D01*
X92296443Y-97335479D01*
X92164310Y-97309982D01*
X92129415Y-97294731D01*
X92046123Y-97228765D01*
X91974897Y-97133382D01*
X91930847Y-97031594D01*
X91923678Y-96981413D01*
X91947715Y-96911353D01*
X92000439Y-96874283D01*
X92056969Y-96851836D01*
X92082854Y-96847700D01*
X92095458Y-96877717D01*
X92120346Y-96943039D01*
X92131265Y-96972555D01*
X92192492Y-97074652D01*
X92281139Y-97125577D01*
X92394807Y-97124011D01*
X92403226Y-97122006D01*
X92463912Y-97093233D01*
X92508526Y-97037141D01*
X92538998Y-96946837D01*
X92557256Y-96815429D01*
X92565229Y-96636026D01*
X92565977Y-96540567D01*
X92566348Y-96390087D01*
X92568777Y-96287505D01*
X92575240Y-96222328D01*
X92587712Y-96184062D01*
X92608167Y-96162215D01*
X92638581Y-96146293D01*
X92640339Y-96145491D01*
X92698909Y-96120728D01*
X92727925Y-96111609D01*
X92732384Y-96139178D01*
G36*
X92732384Y-96139178D02*
G01*
X92736201Y-96215380D01*
X92739101Y-96330459D01*
X92740809Y-96474659D01*
X92741149Y-96580186D01*
X92739412Y-96784387D01*
X92732618Y-96939303D01*
X92718393Y-97053976D01*
X92694362Y-97137449D01*
X92658152Y-97198764D01*
X92607388Y-97246966D01*
X92557261Y-97280607D01*
X92436725Y-97325381D01*
X92296443Y-97335479D01*
X92164310Y-97309982D01*
X92129415Y-97294731D01*
X92046123Y-97228765D01*
X91974897Y-97133382D01*
X91930847Y-97031594D01*
X91923678Y-96981413D01*
X91947715Y-96911353D01*
X92000439Y-96874283D01*
X92056969Y-96851836D01*
X92082854Y-96847700D01*
X92095458Y-96877717D01*
X92120346Y-96943039D01*
X92131265Y-96972555D01*
X92192492Y-97074652D01*
X92281139Y-97125577D01*
X92394807Y-97124011D01*
X92403226Y-97122006D01*
X92463912Y-97093233D01*
X92508526Y-97037141D01*
X92538998Y-96946837D01*
X92557256Y-96815429D01*
X92565229Y-96636026D01*
X92565977Y-96540567D01*
X92566348Y-96390087D01*
X92568777Y-96287505D01*
X92575240Y-96222328D01*
X92587712Y-96184062D01*
X92608167Y-96162215D01*
X92638581Y-96146293D01*
X92640339Y-96145491D01*
X92698909Y-96120728D01*
X92727925Y-96111609D01*
X92732384Y-96139178D01*
G37*
X100706038Y-96600654D02*
X100702357Y-96787461D01*
X100698050Y-96925510D01*
X100691877Y-97024432D01*
X100682598Y-97093855D01*
X100668973Y-97143410D01*
X100649761Y-97182727D01*
X100626598Y-97217416D01*
X100514848Y-97328230D01*
X100378487Y-97392311D01*
X100230175Y-97407661D01*
X100082571Y-97372281D01*
X99988877Y-97318086D01*
X99923736Y-97264293D01*
X99876093Y-97207934D01*
X99843272Y-97139013D01*
X99822594Y-97047532D01*
X99811380Y-96923494D01*
X99806951Y-96756902D01*
X99806437Y-96637149D01*
X99806437Y-96196341D01*
X99930517Y-96140717D01*
X100054598Y-96085093D01*
X100069195Y-96567905D01*
X100075227Y-96748221D01*
X100081555Y-96879099D01*
X100089394Y-96969489D01*
X100099963Y-97028336D01*
X100114477Y-97064587D01*
X100134152Y-97087190D01*
X100140465Y-97092083D01*
X100236112Y-97130294D01*
X100332793Y-97115173D01*
X100390345Y-97075057D01*
X100413755Y-97046630D01*
X100429961Y-97009328D01*
X100440259Y-96952777D01*
X100445951Y-96866606D01*
X100448336Y-96740442D01*
X100448736Y-96608958D01*
X100448814Y-96444001D01*
X100451639Y-96327239D01*
X100461093Y-96248490D01*
X100481060Y-96197569D01*
X100515424Y-96164294D01*
X100568068Y-96138480D01*
X100638383Y-96111656D01*
X100715180Y-96082458D01*
X100706038Y-96600654D01*
G36*
X100706038Y-96600654D02*
G01*
X100702357Y-96787461D01*
X100698050Y-96925510D01*
X100691877Y-97024432D01*
X100682598Y-97093855D01*
X100668973Y-97143410D01*
X100649761Y-97182727D01*
X100626598Y-97217416D01*
X100514848Y-97328230D01*
X100378487Y-97392311D01*
X100230175Y-97407661D01*
X100082571Y-97372281D01*
X99988877Y-97318086D01*
X99923736Y-97264293D01*
X99876093Y-97207934D01*
X99843272Y-97139013D01*
X99822594Y-97047532D01*
X99811380Y-96923494D01*
X99806951Y-96756902D01*
X99806437Y-96637149D01*
X99806437Y-96196341D01*
X99930517Y-96140717D01*
X100054598Y-96085093D01*
X100069195Y-96567905D01*
X100075227Y-96748221D01*
X100081555Y-96879099D01*
X100089394Y-96969489D01*
X100099963Y-97028336D01*
X100114477Y-97064587D01*
X100134152Y-97087190D01*
X100140465Y-97092083D01*
X100236112Y-97130294D01*
X100332793Y-97115173D01*
X100390345Y-97075057D01*
X100413755Y-97046630D01*
X100429961Y-97009328D01*
X100440259Y-96952777D01*
X100445951Y-96866606D01*
X100448336Y-96740442D01*
X100448736Y-96608958D01*
X100448814Y-96444001D01*
X100451639Y-96327239D01*
X100461093Y-96248490D01*
X100481060Y-96197569D01*
X100515424Y-96164294D01*
X100568068Y-96138480D01*
X100638383Y-96111656D01*
X100715180Y-96082458D01*
X100706038Y-96600654D01*
G37*
X96933088Y-96138897D02*
X96940792Y-96221397D01*
X96943620Y-96360059D01*
X96941614Y-96555838D01*
X96940989Y-96586035D01*
X96936579Y-96764651D01*
X96931365Y-96895077D01*
X96923945Y-96987508D01*
X96912918Y-97052142D01*
X96896883Y-97099175D01*
X96874439Y-97138804D01*
X96862698Y-97155785D01*
X96795381Y-97230920D01*
X96720090Y-97289362D01*
X96710872Y-97294464D01*
X96575867Y-97334740D01*
X96434057Y-97328080D01*
X96301435Y-97279141D01*
X96193990Y-97192581D01*
X96151968Y-97131648D01*
X96106157Y-97019839D01*
X96107109Y-96938994D01*
X96155192Y-96884622D01*
X96172983Y-96875376D01*
X96249796Y-96846550D01*
X96289024Y-96853935D01*
X96302311Y-96902342D01*
X96302988Y-96929080D01*
X96327314Y-97027452D01*
X96390719Y-97096266D01*
X96478846Y-97129502D01*
X96577337Y-97121139D01*
X96657398Y-97077704D01*
X96684439Y-97052928D01*
X96703606Y-97022871D01*
X96716554Y-96977435D01*
X96724936Y-96906524D01*
X96730407Y-96800040D01*
X96734622Y-96647888D01*
X96735713Y-96599713D01*
X96739693Y-96434905D01*
X96744219Y-96318912D01*
X96751005Y-96242167D01*
X96761769Y-96195107D01*
X96778227Y-96168165D01*
X96802094Y-96151777D01*
X96817374Y-96144537D01*
X96882267Y-96119780D01*
X96920466Y-96111609D01*
X96933088Y-96138897D01*
G36*
X96933088Y-96138897D02*
G01*
X96940792Y-96221397D01*
X96943620Y-96360059D01*
X96941614Y-96555838D01*
X96940989Y-96586035D01*
X96936579Y-96764651D01*
X96931365Y-96895077D01*
X96923945Y-96987508D01*
X96912918Y-97052142D01*
X96896883Y-97099175D01*
X96874439Y-97138804D01*
X96862698Y-97155785D01*
X96795381Y-97230920D01*
X96720090Y-97289362D01*
X96710872Y-97294464D01*
X96575867Y-97334740D01*
X96434057Y-97328080D01*
X96301435Y-97279141D01*
X96193990Y-97192581D01*
X96151968Y-97131648D01*
X96106157Y-97019839D01*
X96107109Y-96938994D01*
X96155192Y-96884622D01*
X96172983Y-96875376D01*
X96249796Y-96846550D01*
X96289024Y-96853935D01*
X96302311Y-96902342D01*
X96302988Y-96929080D01*
X96327314Y-97027452D01*
X96390719Y-97096266D01*
X96478846Y-97129502D01*
X96577337Y-97121139D01*
X96657398Y-97077704D01*
X96684439Y-97052928D01*
X96703606Y-97022871D01*
X96716554Y-96977435D01*
X96724936Y-96906524D01*
X96730407Y-96800040D01*
X96734622Y-96647888D01*
X96735713Y-96599713D01*
X96739693Y-96434905D01*
X96744219Y-96318912D01*
X96751005Y-96242167D01*
X96761769Y-96195107D01*
X96778227Y-96168165D01*
X96802094Y-96151777D01*
X96817374Y-96144537D01*
X96882267Y-96119780D01*
X96920466Y-96111609D01*
X96933088Y-96138897D01*
G37*
X94758847Y-96132115D02*
X94817310Y-96178165D01*
X94838415Y-96198883D01*
X94930805Y-96291273D01*
X94930805Y-97270053D01*
X94856442Y-97303934D01*
X94792410Y-97329030D01*
X94754948Y-97337816D01*
X94745343Y-97310050D01*
X94736365Y-97232470D01*
X94728614Y-97113652D01*
X94722686Y-96962172D01*
X94719827Y-96834195D01*
X94711839Y-96330575D01*
X94642152Y-96320722D01*
X94578771Y-96327611D01*
X94547714Y-96349917D01*
X94539033Y-96391621D01*
X94531622Y-96480456D01*
X94526069Y-96605166D01*
X94522964Y-96754493D01*
X94522516Y-96831339D01*
X94522069Y-97273713D01*
X94430126Y-97305765D01*
X94365051Y-97327557D01*
X94329653Y-97337719D01*
X94328632Y-97337816D01*
X94325080Y-97310191D01*
X94321177Y-97233589D01*
X94317249Y-97117421D01*
X94313624Y-96971096D01*
X94311092Y-96834195D01*
X94303103Y-96330575D01*
X94127931Y-96330575D01*
X94119893Y-96790035D01*
X94111854Y-97249495D01*
X94026457Y-97293656D01*
X93963407Y-97323981D01*
X93926090Y-97337742D01*
X93925013Y-97337816D01*
X93919876Y-97310160D01*
X93915421Y-97233347D01*
X93911929Y-97116609D01*
X93909685Y-96969179D01*
X93908965Y-96814545D01*
X93908965Y-96291273D01*
X94001355Y-96198883D01*
X94065022Y-96141953D01*
X94120911Y-96118893D01*
X94197298Y-96120353D01*
X94227620Y-96124066D01*
X94322390Y-96134874D01*
X94400778Y-96141067D01*
X94419885Y-96141639D01*
X94484301Y-96137898D01*
X94576429Y-96128506D01*
X94612150Y-96124066D01*
X94699886Y-96117199D01*
X94758847Y-96132115D01*
G36*
X94758847Y-96132115D02*
G01*
X94817310Y-96178165D01*
X94838415Y-96198883D01*
X94930805Y-96291273D01*
X94930805Y-97270053D01*
X94856442Y-97303934D01*
X94792410Y-97329030D01*
X94754948Y-97337816D01*
X94745343Y-97310050D01*
X94736365Y-97232470D01*
X94728614Y-97113652D01*
X94722686Y-96962172D01*
X94719827Y-96834195D01*
X94711839Y-96330575D01*
X94642152Y-96320722D01*
X94578771Y-96327611D01*
X94547714Y-96349917D01*
X94539033Y-96391621D01*
X94531622Y-96480456D01*
X94526069Y-96605166D01*
X94522964Y-96754493D01*
X94522516Y-96831339D01*
X94522069Y-97273713D01*
X94430126Y-97305765D01*
X94365051Y-97327557D01*
X94329653Y-97337719D01*
X94328632Y-97337816D01*
X94325080Y-97310191D01*
X94321177Y-97233589D01*
X94317249Y-97117421D01*
X94313624Y-96971096D01*
X94311092Y-96834195D01*
X94303103Y-96330575D01*
X94127931Y-96330575D01*
X94119893Y-96790035D01*
X94111854Y-97249495D01*
X94026457Y-97293656D01*
X93963407Y-97323981D01*
X93926090Y-97337742D01*
X93925013Y-97337816D01*
X93919876Y-97310160D01*
X93915421Y-97233347D01*
X93911929Y-97116609D01*
X93909685Y-96969179D01*
X93908965Y-96814545D01*
X93908965Y-96291273D01*
X94001355Y-96198883D01*
X94065022Y-96141953D01*
X94120911Y-96118893D01*
X94197298Y-96120353D01*
X94227620Y-96124066D01*
X94322390Y-96134874D01*
X94400778Y-96141067D01*
X94419885Y-96141639D01*
X94484301Y-96137898D01*
X94576429Y-96128506D01*
X94612150Y-96124066D01*
X94699886Y-96117199D01*
X94758847Y-96132115D01*
G37*
X98952225Y-96139552D02*
X98954655Y-96218370D01*
X98956722Y-96340547D01*
X98958329Y-96498568D01*
X98959377Y-96684917D01*
X98959769Y-96892080D01*
X98959770Y-96901294D01*
X98959770Y-97690980D01*
X98864885Y-97731003D01*
X98770000Y-97771027D01*
X98755402Y-97526143D01*
X98746846Y-97406812D01*
X98737019Y-97336494D01*
X98723401Y-97305821D01*
X98703473Y-97305429D01*
X98697011Y-97309090D01*
X98611060Y-97335602D01*
X98499255Y-97334054D01*
X98385586Y-97306801D01*
X98314490Y-97271545D01*
X98241595Y-97215222D01*
X98188307Y-97151481D01*
X98151725Y-97070490D01*
X98128950Y-96962414D01*
X98117081Y-96817420D01*
X98113218Y-96625674D01*
X98113149Y-96588891D01*
X98113103Y-96175712D01*
X98205046Y-96143661D01*
X98270348Y-96121856D01*
X98306176Y-96111703D01*
X98307230Y-96111609D01*
X98310758Y-96139140D01*
X98313761Y-96215077D01*
X98316010Y-96329435D01*
X98317276Y-96472231D01*
X98317471Y-96559049D01*
X98317877Y-96730227D01*
X98319968Y-96852912D01*
X98325053Y-96937000D01*
X98334440Y-96992386D01*
X98349439Y-97028968D01*
X98371358Y-97056641D01*
X98385043Y-97069968D01*
X98479051Y-97123672D01*
X98581636Y-97127693D01*
X98674710Y-97082275D01*
X98691922Y-97065877D01*
X98717168Y-97035043D01*
X98734680Y-96998469D01*
X98745858Y-96945585D01*
X98752104Y-96865823D01*
X98754818Y-96748615D01*
X98755402Y-96587009D01*
X98755402Y-96175712D01*
X98847345Y-96143661D01*
X98912647Y-96121856D01*
X98948475Y-96111703D01*
X98949529Y-96111609D01*
X98952225Y-96139552D01*
G36*
X98952225Y-96139552D02*
G01*
X98954655Y-96218370D01*
X98956722Y-96340547D01*
X98958329Y-96498568D01*
X98959377Y-96684917D01*
X98959769Y-96892080D01*
X98959770Y-96901294D01*
X98959770Y-97690980D01*
X98864885Y-97731003D01*
X98770000Y-97771027D01*
X98755402Y-97526143D01*
X98746846Y-97406812D01*
X98737019Y-97336494D01*
X98723401Y-97305821D01*
X98703473Y-97305429D01*
X98697011Y-97309090D01*
X98611060Y-97335602D01*
X98499255Y-97334054D01*
X98385586Y-97306801D01*
X98314490Y-97271545D01*
X98241595Y-97215222D01*
X98188307Y-97151481D01*
X98151725Y-97070490D01*
X98128950Y-96962414D01*
X98117081Y-96817420D01*
X98113218Y-96625674D01*
X98113149Y-96588891D01*
X98113103Y-96175712D01*
X98205046Y-96143661D01*
X98270348Y-96121856D01*
X98306176Y-96111703D01*
X98307230Y-96111609D01*
X98310758Y-96139140D01*
X98313761Y-96215077D01*
X98316010Y-96329435D01*
X98317276Y-96472231D01*
X98317471Y-96559049D01*
X98317877Y-96730227D01*
X98319968Y-96852912D01*
X98325053Y-96937000D01*
X98334440Y-96992386D01*
X98349439Y-97028968D01*
X98371358Y-97056641D01*
X98385043Y-97069968D01*
X98479051Y-97123672D01*
X98581636Y-97127693D01*
X98674710Y-97082275D01*
X98691922Y-97065877D01*
X98717168Y-97035043D01*
X98734680Y-96998469D01*
X98745858Y-96945585D01*
X98752104Y-96865823D01*
X98754818Y-96748615D01*
X98755402Y-96587009D01*
X98755402Y-96175712D01*
X98847345Y-96143661D01*
X98912647Y-96121856D01*
X98948475Y-96111703D01*
X98949529Y-96111609D01*
X98952225Y-96139552D01*
G37*
X104067878Y-96904341D02*
X104063312Y-97009451D01*
X104053312Y-97082286D01*
X104035921Y-97135892D01*
X104009184Y-97183319D01*
X104003276Y-97192136D01*
X103903968Y-97310993D01*
X103795758Y-97379992D01*
X103664019Y-97407381D01*
X103619283Y-97408719D01*
X103451779Y-97383985D01*
X103314939Y-97312032D01*
X103213949Y-97196234D01*
X103178075Y-97121787D01*
X103150161Y-97010008D01*
X103135871Y-96868773D01*
X103135740Y-96853853D01*
X103430384Y-96853853D01*
X103454650Y-96997100D01*
X103505176Y-97089840D01*
X103581632Y-97131193D01*
X103608924Y-97133448D01*
X103680589Y-97122107D01*
X103729610Y-97082816D01*
X103759582Y-97007674D01*
X103774101Y-96888778D01*
X103777011Y-96763981D01*
X103775313Y-96630744D01*
X103768628Y-96542326D01*
X103754575Y-96485215D01*
X103730771Y-96445898D01*
X103718621Y-96432759D01*
X103648764Y-96382828D01*
X103580941Y-96385105D01*
X103512365Y-96428416D01*
X103471465Y-96474654D01*
X103447242Y-96542143D01*
X103433639Y-96648567D01*
X103432706Y-96660980D01*
X103430384Y-96853853D01*
X103135740Y-96853853D01*
X103134516Y-96714629D01*
X103145405Y-96564121D01*
X103167847Y-96433795D01*
X103201150Y-96340197D01*
X103211385Y-96324078D01*
X103332618Y-96203751D01*
X103476613Y-96131683D01*
X103632861Y-96110592D01*
X103790852Y-96143198D01*
X103834820Y-96162747D01*
X103920444Y-96222988D01*
X103995592Y-96302865D01*
X104002694Y-96312996D01*
X104031561Y-96361819D01*
X104050643Y-96414010D01*
X104061916Y-96482715D01*
X104067355Y-96581082D01*
X104068938Y-96722256D01*
X104068965Y-96753908D01*
X104068893Y-96763981D01*
X104067878Y-96904341D01*
G36*
X104067878Y-96904341D02*
G01*
X104063312Y-97009451D01*
X104053312Y-97082286D01*
X104035921Y-97135892D01*
X104009184Y-97183319D01*
X104003276Y-97192136D01*
X103903968Y-97310993D01*
X103795758Y-97379992D01*
X103664019Y-97407381D01*
X103619283Y-97408719D01*
X103451779Y-97383985D01*
X103314939Y-97312032D01*
X103213949Y-97196234D01*
X103178075Y-97121787D01*
X103150161Y-97010008D01*
X103135871Y-96868773D01*
X103135740Y-96853853D01*
X103430384Y-96853853D01*
X103454650Y-96997100D01*
X103505176Y-97089840D01*
X103581632Y-97131193D01*
X103608924Y-97133448D01*
X103680589Y-97122107D01*
X103729610Y-97082816D01*
X103759582Y-97007674D01*
X103774101Y-96888778D01*
X103777011Y-96763981D01*
X103775313Y-96630744D01*
X103768628Y-96542326D01*
X103754575Y-96485215D01*
X103730771Y-96445898D01*
X103718621Y-96432759D01*
X103648764Y-96382828D01*
X103580941Y-96385105D01*
X103512365Y-96428416D01*
X103471465Y-96474654D01*
X103447242Y-96542143D01*
X103433639Y-96648567D01*
X103432706Y-96660980D01*
X103430384Y-96853853D01*
X103135740Y-96853853D01*
X103134516Y-96714629D01*
X103145405Y-96564121D01*
X103167847Y-96433795D01*
X103201150Y-96340197D01*
X103211385Y-96324078D01*
X103332618Y-96203751D01*
X103476613Y-96131683D01*
X103632861Y-96110592D01*
X103790852Y-96143198D01*
X103834820Y-96162747D01*
X103920444Y-96222988D01*
X103995592Y-96302865D01*
X104002694Y-96312996D01*
X104031561Y-96361819D01*
X104050643Y-96414010D01*
X104061916Y-96482715D01*
X104067355Y-96581082D01*
X104068938Y-96722256D01*
X104068965Y-96753908D01*
X104068893Y-96763981D01*
X104067878Y-96904341D01*
G37*
X91744541Y-96900649D02*
X91730641Y-97035147D01*
X91703106Y-97133084D01*
X91658428Y-97205189D01*
X91593099Y-97262187D01*
X91564617Y-97280607D01*
X91435237Y-97328578D01*
X91293588Y-97331597D01*
X91156561Y-97293460D01*
X91041050Y-97217966D01*
X90985336Y-97150383D01*
X90941196Y-97027745D01*
X90940676Y-97013351D01*
X91135652Y-97013351D01*
X91171053Y-97065124D01*
X91200289Y-97088000D01*
X91305784Y-97133750D01*
X91404524Y-97126192D01*
X91487188Y-97070349D01*
X91544452Y-96971247D01*
X91562812Y-96892586D01*
X91570101Y-96812147D01*
X91568056Y-96762104D01*
X91562961Y-96753908D01*
X91529334Y-96765042D01*
X91456970Y-96794507D01*
X91360253Y-96836399D01*
X91340027Y-96845403D01*
X91217797Y-96907558D01*
X91150453Y-96962185D01*
X91135652Y-97013351D01*
X90940676Y-97013351D01*
X90937691Y-96930702D01*
X90945632Y-96800944D01*
X91244885Y-96669961D01*
X91390389Y-96603042D01*
X91485463Y-96549210D01*
X91534899Y-96502584D01*
X91543489Y-96457280D01*
X91516028Y-96407418D01*
X91485747Y-96374368D01*
X91397637Y-96321367D01*
X91301804Y-96317653D01*
X91213788Y-96358959D01*
X91149131Y-96441017D01*
X91137567Y-96469992D01*
X91082175Y-96560491D01*
X91018447Y-96599060D01*
X90931034Y-96632054D01*
X90931034Y-96506966D01*
X90938762Y-96421844D01*
X90969034Y-96350062D01*
X91032482Y-96267644D01*
X91041912Y-96256934D01*
X91112487Y-96183609D01*
X91173153Y-96144258D01*
X91249050Y-96126155D01*
X91311970Y-96120226D01*
X91424513Y-96118749D01*
X91504630Y-96137465D01*
X91554610Y-96165253D01*
X91633162Y-96226359D01*
X91687537Y-96292446D01*
X91721948Y-96375559D01*
X91740612Y-96487746D01*
X91747744Y-96641054D01*
X91748313Y-96718864D01*
X91746378Y-96812147D01*
X91744541Y-96900649D01*
G36*
X91744541Y-96900649D02*
G01*
X91730641Y-97035147D01*
X91703106Y-97133084D01*
X91658428Y-97205189D01*
X91593099Y-97262187D01*
X91564617Y-97280607D01*
X91435237Y-97328578D01*
X91293588Y-97331597D01*
X91156561Y-97293460D01*
X91041050Y-97217966D01*
X90985336Y-97150383D01*
X90941196Y-97027745D01*
X90940676Y-97013351D01*
X91135652Y-97013351D01*
X91171053Y-97065124D01*
X91200289Y-97088000D01*
X91305784Y-97133750D01*
X91404524Y-97126192D01*
X91487188Y-97070349D01*
X91544452Y-96971247D01*
X91562812Y-96892586D01*
X91570101Y-96812147D01*
X91568056Y-96762104D01*
X91562961Y-96753908D01*
X91529334Y-96765042D01*
X91456970Y-96794507D01*
X91360253Y-96836399D01*
X91340027Y-96845403D01*
X91217797Y-96907558D01*
X91150453Y-96962185D01*
X91135652Y-97013351D01*
X90940676Y-97013351D01*
X90937691Y-96930702D01*
X90945632Y-96800944D01*
X91244885Y-96669961D01*
X91390389Y-96603042D01*
X91485463Y-96549210D01*
X91534899Y-96502584D01*
X91543489Y-96457280D01*
X91516028Y-96407418D01*
X91485747Y-96374368D01*
X91397637Y-96321367D01*
X91301804Y-96317653D01*
X91213788Y-96358959D01*
X91149131Y-96441017D01*
X91137567Y-96469992D01*
X91082175Y-96560491D01*
X91018447Y-96599060D01*
X90931034Y-96632054D01*
X90931034Y-96506966D01*
X90938762Y-96421844D01*
X90969034Y-96350062D01*
X91032482Y-96267644D01*
X91041912Y-96256934D01*
X91112487Y-96183609D01*
X91173153Y-96144258D01*
X91249050Y-96126155D01*
X91311970Y-96120226D01*
X91424513Y-96118749D01*
X91504630Y-96137465D01*
X91554610Y-96165253D01*
X91633162Y-96226359D01*
X91687537Y-96292446D01*
X91721948Y-96375559D01*
X91740612Y-96487746D01*
X91747744Y-96641054D01*
X91748313Y-96718864D01*
X91746378Y-96812147D01*
X91744541Y-96900649D01*
G37*
X95945496Y-96908053D02*
X95921528Y-97045805D01*
X95876452Y-97149368D01*
X95806072Y-97230144D01*
X95751257Y-97271545D01*
X95651624Y-97316272D01*
X95536145Y-97337033D01*
X95428801Y-97331475D01*
X95368736Y-97309057D01*
X95345165Y-97302677D01*
X95329523Y-97326465D01*
X95318605Y-97390212D01*
X95310345Y-97487313D01*
X95301301Y-97595459D01*
X95288739Y-97660525D01*
X95265881Y-97697732D01*
X95225949Y-97722301D01*
X95200862Y-97733181D01*
X95105977Y-97772928D01*
X95106086Y-97095545D01*
X95106457Y-96877339D01*
X95107797Y-96720621D01*
X95310345Y-96720621D01*
X95311841Y-96854120D01*
X95318036Y-96943178D01*
X95331486Y-97001707D01*
X95354749Y-97043618D01*
X95373825Y-97065877D01*
X95462437Y-97122015D01*
X95564492Y-97128765D01*
X95661905Y-97085886D01*
X95680704Y-97069968D01*
X95712707Y-97034618D01*
X95732682Y-96992498D01*
X95743407Y-96929749D01*
X95747661Y-96832513D01*
X95748276Y-96732894D01*
X95747030Y-96602343D01*
X95741322Y-96515920D01*
X95728196Y-96459382D01*
X95704694Y-96418486D01*
X95676614Y-96387638D01*
X95582312Y-96328095D01*
X95481060Y-96323008D01*
X95385364Y-96372721D01*
X95377916Y-96379457D01*
X95346126Y-96414498D01*
X95326192Y-96456189D01*
X95315400Y-96518238D01*
X95311035Y-96614356D01*
X95310345Y-96720621D01*
X95107797Y-96720621D01*
X95107892Y-96709481D01*
X95110998Y-96583930D01*
X95116378Y-96492645D01*
X95124638Y-96427585D01*
X95136384Y-96380709D01*
X95152219Y-96343976D01*
X95164210Y-96323009D01*
X95263510Y-96209306D01*
X95389412Y-96138035D01*
X95528709Y-96112462D01*
X95668195Y-96135850D01*
X95751257Y-96177881D01*
X95838455Y-96250589D01*
X95897883Y-96339388D01*
X95933739Y-96455680D01*
X95950219Y-96610865D01*
X95952553Y-96724713D01*
X95952239Y-96732894D01*
X95945496Y-96908053D01*
G36*
X95945496Y-96908053D02*
G01*
X95921528Y-97045805D01*
X95876452Y-97149368D01*
X95806072Y-97230144D01*
X95751257Y-97271545D01*
X95651624Y-97316272D01*
X95536145Y-97337033D01*
X95428801Y-97331475D01*
X95368736Y-97309057D01*
X95345165Y-97302677D01*
X95329523Y-97326465D01*
X95318605Y-97390212D01*
X95310345Y-97487313D01*
X95301301Y-97595459D01*
X95288739Y-97660525D01*
X95265881Y-97697732D01*
X95225949Y-97722301D01*
X95200862Y-97733181D01*
X95105977Y-97772928D01*
X95106086Y-97095545D01*
X95106457Y-96877339D01*
X95107797Y-96720621D01*
X95310345Y-96720621D01*
X95311841Y-96854120D01*
X95318036Y-96943178D01*
X95331486Y-97001707D01*
X95354749Y-97043618D01*
X95373825Y-97065877D01*
X95462437Y-97122015D01*
X95564492Y-97128765D01*
X95661905Y-97085886D01*
X95680704Y-97069968D01*
X95712707Y-97034618D01*
X95732682Y-96992498D01*
X95743407Y-96929749D01*
X95747661Y-96832513D01*
X95748276Y-96732894D01*
X95747030Y-96602343D01*
X95741322Y-96515920D01*
X95728196Y-96459382D01*
X95704694Y-96418486D01*
X95676614Y-96387638D01*
X95582312Y-96328095D01*
X95481060Y-96323008D01*
X95385364Y-96372721D01*
X95377916Y-96379457D01*
X95346126Y-96414498D01*
X95326192Y-96456189D01*
X95315400Y-96518238D01*
X95311035Y-96614356D01*
X95310345Y-96720621D01*
X95107797Y-96720621D01*
X95107892Y-96709481D01*
X95110998Y-96583930D01*
X95116378Y-96492645D01*
X95124638Y-96427585D01*
X95136384Y-96380709D01*
X95152219Y-96343976D01*
X95164210Y-96323009D01*
X95263510Y-96209306D01*
X95389412Y-96138035D01*
X95528709Y-96112462D01*
X95668195Y-96135850D01*
X95751257Y-96177881D01*
X95838455Y-96250589D01*
X95897883Y-96339388D01*
X95933739Y-96455680D01*
X95950219Y-96610865D01*
X95952553Y-96724713D01*
X95952239Y-96732894D01*
X95945496Y-96908053D01*
G37*
X101830356Y-97013739D02*
X101781366Y-97154171D01*
X101713164Y-97252553D01*
X101590065Y-97351970D01*
X101454472Y-97401289D01*
X101316045Y-97404432D01*
X101184448Y-97365324D01*
X101069342Y-97287889D01*
X100980389Y-97176051D01*
X100927251Y-97033735D01*
X100924996Y-97011756D01*
X101213219Y-97011756D01*
X101220555Y-97039035D01*
X101251447Y-97074879D01*
X101330040Y-97126749D01*
X101414677Y-97130561D01*
X101490597Y-97092811D01*
X101543035Y-97019999D01*
X101558161Y-96939876D01*
X101554521Y-96875497D01*
X101534611Y-96856709D01*
X101484974Y-96870765D01*
X101406733Y-96903991D01*
X101319274Y-96945641D01*
X101317101Y-96946744D01*
X101242970Y-96985735D01*
X101213219Y-97011756D01*
X100924996Y-97011756D01*
X100916503Y-96928985D01*
X100917724Y-96885274D01*
X100927944Y-96851806D01*
X100956039Y-96821821D01*
X101010884Y-96788560D01*
X101101355Y-96745262D01*
X101236328Y-96685167D01*
X101237011Y-96684866D01*
X101361249Y-96627963D01*
X101463127Y-96577435D01*
X101532233Y-96538720D01*
X101558154Y-96517260D01*
X101558161Y-96517087D01*
X101535315Y-96470356D01*
X101481891Y-96418846D01*
X101420558Y-96381739D01*
X101389485Y-96374368D01*
X101304711Y-96399862D01*
X101231707Y-96463709D01*
X101196087Y-96533906D01*
X101161820Y-96585657D01*
X101094697Y-96644591D01*
X101015792Y-96695504D01*
X100946179Y-96723191D01*
X100931623Y-96724713D01*
X100915237Y-96699679D01*
X100914250Y-96635689D01*
X100926292Y-96549407D01*
X100948993Y-96457499D01*
X100979986Y-96376631D01*
X100981552Y-96373491D01*
X101074819Y-96243266D01*
X101195696Y-96154689D01*
X101332973Y-96111214D01*
X101475440Y-96116294D01*
X101611888Y-96173384D01*
X101617955Y-96177398D01*
X101725290Y-96274674D01*
X101795868Y-96401591D01*
X101834926Y-96568474D01*
X101840168Y-96615361D01*
X101849452Y-96836671D01*
X101838322Y-96939876D01*
X101830356Y-97013739D01*
G36*
X101830356Y-97013739D02*
G01*
X101781366Y-97154171D01*
X101713164Y-97252553D01*
X101590065Y-97351970D01*
X101454472Y-97401289D01*
X101316045Y-97404432D01*
X101184448Y-97365324D01*
X101069342Y-97287889D01*
X100980389Y-97176051D01*
X100927251Y-97033735D01*
X100924996Y-97011756D01*
X101213219Y-97011756D01*
X101220555Y-97039035D01*
X101251447Y-97074879D01*
X101330040Y-97126749D01*
X101414677Y-97130561D01*
X101490597Y-97092811D01*
X101543035Y-97019999D01*
X101558161Y-96939876D01*
X101554521Y-96875497D01*
X101534611Y-96856709D01*
X101484974Y-96870765D01*
X101406733Y-96903991D01*
X101319274Y-96945641D01*
X101317101Y-96946744D01*
X101242970Y-96985735D01*
X101213219Y-97011756D01*
X100924996Y-97011756D01*
X100916503Y-96928985D01*
X100917724Y-96885274D01*
X100927944Y-96851806D01*
X100956039Y-96821821D01*
X101010884Y-96788560D01*
X101101355Y-96745262D01*
X101236328Y-96685167D01*
X101237011Y-96684866D01*
X101361249Y-96627963D01*
X101463127Y-96577435D01*
X101532233Y-96538720D01*
X101558154Y-96517260D01*
X101558161Y-96517087D01*
X101535315Y-96470356D01*
X101481891Y-96418846D01*
X101420558Y-96381739D01*
X101389485Y-96374368D01*
X101304711Y-96399862D01*
X101231707Y-96463709D01*
X101196087Y-96533906D01*
X101161820Y-96585657D01*
X101094697Y-96644591D01*
X101015792Y-96695504D01*
X100946179Y-96723191D01*
X100931623Y-96724713D01*
X100915237Y-96699679D01*
X100914250Y-96635689D01*
X100926292Y-96549407D01*
X100948993Y-96457499D01*
X100979986Y-96376631D01*
X100981552Y-96373491D01*
X101074819Y-96243266D01*
X101195696Y-96154689D01*
X101332973Y-96111214D01*
X101475440Y-96116294D01*
X101611888Y-96173384D01*
X101617955Y-96177398D01*
X101725290Y-96274674D01*
X101795868Y-96401591D01*
X101834926Y-96568474D01*
X101840168Y-96615361D01*
X101849452Y-96836671D01*
X101838322Y-96939876D01*
X101830356Y-97013739D01*
G37*
X97286300Y-96138750D02*
X97291635Y-96211959D01*
X97294917Y-96318919D01*
X97295632Y-96405531D01*
X97295649Y-96545838D01*
X97302063Y-96633949D01*
X97324420Y-96675975D01*
X97372268Y-96678025D01*
X97455151Y-96646210D01*
X97580287Y-96587728D01*
X97672303Y-96539155D01*
X97719629Y-96497014D01*
X97733542Y-96451084D01*
X97733563Y-96448811D01*
X97710605Y-96369689D01*
X97642630Y-96326945D01*
X97538602Y-96320754D01*
X97463670Y-96321828D01*
X97424161Y-96300247D01*
X97399522Y-96248409D01*
X97385341Y-96182368D01*
X97405777Y-96144896D01*
X97413472Y-96139533D01*
X97485917Y-96117994D01*
X97587367Y-96114945D01*
X97691843Y-96129222D01*
X97765875Y-96155312D01*
X97868228Y-96242215D01*
X97926409Y-96363184D01*
X97937931Y-96457692D01*
X97929138Y-96542938D01*
X97897320Y-96612524D01*
X97834316Y-96674328D01*
X97731969Y-96736228D01*
X97582118Y-96806103D01*
X97572988Y-96810052D01*
X97438003Y-96872412D01*
X97354706Y-96923554D01*
X97319003Y-96969512D01*
X97326797Y-97016317D01*
X97373993Y-97070002D01*
X97388106Y-97082356D01*
X97482641Y-97130259D01*
X97580594Y-97128242D01*
X97665903Y-97081276D01*
X97722504Y-96994331D01*
X97727763Y-96977266D01*
X97778977Y-96894496D01*
X97843963Y-96854628D01*
X97937931Y-96815118D01*
X97937931Y-96917342D01*
X97909347Y-97065928D01*
X97824505Y-97202216D01*
X97780355Y-97247809D01*
X97679995Y-97306326D01*
X97552365Y-97332816D01*
X97420056Y-97325640D01*
X97305657Y-97283158D01*
X97304348Y-97282342D01*
X97233597Y-97230270D01*
X97181364Y-97169416D01*
X97144629Y-97090113D01*
X97120366Y-96982691D01*
X97105555Y-96837483D01*
X97097171Y-96644821D01*
X97096436Y-96617372D01*
X97085880Y-96203479D01*
X97174709Y-96157544D01*
X97238982Y-96126502D01*
X97277790Y-96111794D01*
X97279585Y-96111609D01*
X97286300Y-96138750D01*
G36*
X97286300Y-96138750D02*
G01*
X97291635Y-96211959D01*
X97294917Y-96318919D01*
X97295632Y-96405531D01*
X97295649Y-96545838D01*
X97302063Y-96633949D01*
X97324420Y-96675975D01*
X97372268Y-96678025D01*
X97455151Y-96646210D01*
X97580287Y-96587728D01*
X97672303Y-96539155D01*
X97719629Y-96497014D01*
X97733542Y-96451084D01*
X97733563Y-96448811D01*
X97710605Y-96369689D01*
X97642630Y-96326945D01*
X97538602Y-96320754D01*
X97463670Y-96321828D01*
X97424161Y-96300247D01*
X97399522Y-96248409D01*
X97385341Y-96182368D01*
X97405777Y-96144896D01*
X97413472Y-96139533D01*
X97485917Y-96117994D01*
X97587367Y-96114945D01*
X97691843Y-96129222D01*
X97765875Y-96155312D01*
X97868228Y-96242215D01*
X97926409Y-96363184D01*
X97937931Y-96457692D01*
X97929138Y-96542938D01*
X97897320Y-96612524D01*
X97834316Y-96674328D01*
X97731969Y-96736228D01*
X97582118Y-96806103D01*
X97572988Y-96810052D01*
X97438003Y-96872412D01*
X97354706Y-96923554D01*
X97319003Y-96969512D01*
X97326797Y-97016317D01*
X97373993Y-97070002D01*
X97388106Y-97082356D01*
X97482641Y-97130259D01*
X97580594Y-97128242D01*
X97665903Y-97081276D01*
X97722504Y-96994331D01*
X97727763Y-96977266D01*
X97778977Y-96894496D01*
X97843963Y-96854628D01*
X97937931Y-96815118D01*
X97937931Y-96917342D01*
X97909347Y-97065928D01*
X97824505Y-97202216D01*
X97780355Y-97247809D01*
X97679995Y-97306326D01*
X97552365Y-97332816D01*
X97420056Y-97325640D01*
X97305657Y-97283158D01*
X97304348Y-97282342D01*
X97233597Y-97230270D01*
X97181364Y-97169416D01*
X97144629Y-97090113D01*
X97120366Y-96982691D01*
X97105555Y-96837483D01*
X97097171Y-96644821D01*
X97096436Y-96617372D01*
X97085880Y-96203479D01*
X97174709Y-96157544D01*
X97238982Y-96126502D01*
X97277790Y-96111794D01*
X97279585Y-96111609D01*
X97286300Y-96138750D01*
G37*
X102947713Y-96794048D02*
X102943753Y-96924618D01*
X102938174Y-97019913D01*
X102930254Y-97087636D01*
X102919269Y-97135493D01*
X102904499Y-97171187D01*
X102885218Y-97202422D01*
X102876951Y-97214176D01*
X102767288Y-97325203D01*
X102628635Y-97388153D01*
X102468246Y-97405703D01*
X102328100Y-97388097D01*
X102216550Y-97332478D01*
X102118092Y-97230069D01*
X102090977Y-97192136D01*
X102061438Y-97142500D01*
X102042272Y-97088588D01*
X102031307Y-97016636D01*
X102026371Y-96912878D01*
X102025287Y-96775899D01*
X102026030Y-96747412D01*
X102317241Y-96747412D01*
X102323942Y-96913417D01*
X102345752Y-97028495D01*
X102385235Y-97098746D01*
X102444956Y-97130271D01*
X102479472Y-97133448D01*
X102561389Y-97118540D01*
X102617579Y-97069452D01*
X102651402Y-96979638D01*
X102666220Y-96842555D01*
X102667586Y-96767179D01*
X102666009Y-96642674D01*
X102659000Y-96561213D01*
X102643142Y-96507485D01*
X102615019Y-96466177D01*
X102595925Y-96446029D01*
X102517865Y-96387079D01*
X102448753Y-96382280D01*
X102377440Y-96430962D01*
X102375632Y-96432759D01*
X102346617Y-96470382D01*
X102328967Y-96521516D01*
X102320064Y-96600262D01*
X102317291Y-96720724D01*
X102317241Y-96747412D01*
X102026030Y-96747412D01*
X102030182Y-96588185D01*
X102047196Y-96447242D01*
X102079823Y-96342092D01*
X102131558Y-96261757D01*
X102205896Y-96195259D01*
X102211358Y-96191322D01*
X102284620Y-96151047D01*
X102372840Y-96131120D01*
X102485038Y-96126207D01*
X102667433Y-96126207D01*
X102667509Y-95949143D01*
X102669207Y-95850530D01*
X102679550Y-95792686D01*
X102706578Y-95757994D01*
X102758332Y-95728836D01*
X102770761Y-95722879D01*
X102828923Y-95694961D01*
X102873956Y-95677328D01*
X102907441Y-95675806D01*
X102930962Y-95696219D01*
X102946100Y-95744393D01*
X102954437Y-95826154D01*
X102957556Y-95947328D01*
X102957040Y-96113740D01*
X102954471Y-96331215D01*
X102953668Y-96396264D01*
X102950778Y-96620498D01*
X102948188Y-96767179D01*
X102947713Y-96794048D01*
G36*
X102947713Y-96794048D02*
G01*
X102943753Y-96924618D01*
X102938174Y-97019913D01*
X102930254Y-97087636D01*
X102919269Y-97135493D01*
X102904499Y-97171187D01*
X102885218Y-97202422D01*
X102876951Y-97214176D01*
X102767288Y-97325203D01*
X102628635Y-97388153D01*
X102468246Y-97405703D01*
X102328100Y-97388097D01*
X102216550Y-97332478D01*
X102118092Y-97230069D01*
X102090977Y-97192136D01*
X102061438Y-97142500D01*
X102042272Y-97088588D01*
X102031307Y-97016636D01*
X102026371Y-96912878D01*
X102025287Y-96775899D01*
X102026030Y-96747412D01*
X102317241Y-96747412D01*
X102323942Y-96913417D01*
X102345752Y-97028495D01*
X102385235Y-97098746D01*
X102444956Y-97130271D01*
X102479472Y-97133448D01*
X102561389Y-97118540D01*
X102617579Y-97069452D01*
X102651402Y-96979638D01*
X102666220Y-96842555D01*
X102667586Y-96767179D01*
X102666009Y-96642674D01*
X102659000Y-96561213D01*
X102643142Y-96507485D01*
X102615019Y-96466177D01*
X102595925Y-96446029D01*
X102517865Y-96387079D01*
X102448753Y-96382280D01*
X102377440Y-96430962D01*
X102375632Y-96432759D01*
X102346617Y-96470382D01*
X102328967Y-96521516D01*
X102320064Y-96600262D01*
X102317291Y-96720724D01*
X102317241Y-96747412D01*
X102026030Y-96747412D01*
X102030182Y-96588185D01*
X102047196Y-96447242D01*
X102079823Y-96342092D01*
X102131558Y-96261757D01*
X102205896Y-96195259D01*
X102211358Y-96191322D01*
X102284620Y-96151047D01*
X102372840Y-96131120D01*
X102485038Y-96126207D01*
X102667433Y-96126207D01*
X102667509Y-95949143D01*
X102669207Y-95850530D01*
X102679550Y-95792686D01*
X102706578Y-95757994D01*
X102758332Y-95728836D01*
X102770761Y-95722879D01*
X102828923Y-95694961D01*
X102873956Y-95677328D01*
X102907441Y-95675806D01*
X102930962Y-95696219D01*
X102946100Y-95744393D01*
X102954437Y-95826154D01*
X102957556Y-95947328D01*
X102957040Y-96113740D01*
X102954471Y-96331215D01*
X102953668Y-96396264D01*
X102950778Y-96620498D01*
X102948188Y-96767179D01*
X102947713Y-96794048D01*
G37*
X93083821Y-96138743D02*
X93088225Y-96211906D01*
X93090922Y-96318737D01*
X93091494Y-96403563D01*
X93093954Y-96526113D01*
X93100588Y-96623332D01*
X93110274Y-96682866D01*
X93117968Y-96695517D01*
X93169689Y-96682598D01*
X93250883Y-96649461D01*
X93344898Y-96604539D01*
X93435083Y-96556265D01*
X93504785Y-96513072D01*
X93537352Y-96483392D01*
X93537481Y-96483071D01*
X93534680Y-96428143D01*
X93509561Y-96375708D01*
X93465459Y-96333119D01*
X93401091Y-96318874D01*
X93346079Y-96320534D01*
X93268165Y-96321755D01*
X93227268Y-96303502D01*
X93202705Y-96255274D01*
X93199608Y-96246180D01*
X93188960Y-96177402D01*
X93217435Y-96135640D01*
X93291656Y-96115737D01*
X93371832Y-96112056D01*
X93516110Y-96139342D01*
X93590797Y-96178310D01*
X93683037Y-96269852D01*
X93731957Y-96382218D01*
X93736346Y-96500949D01*
X93694999Y-96611589D01*
X93632803Y-96680920D01*
X93570706Y-96719735D01*
X93473105Y-96768875D01*
X93359368Y-96818708D01*
X93340410Y-96826323D01*
X93215479Y-96881455D01*
X93143461Y-96930046D01*
X93120300Y-96978353D01*
X93141936Y-97032630D01*
X93179080Y-97075057D01*
X93266873Y-97127298D01*
X93363470Y-97131216D01*
X93452056Y-97090959D01*
X93515814Y-97010674D01*
X93524183Y-96989960D01*
X93572904Y-96913775D01*
X93644035Y-96857215D01*
X93733793Y-96810799D01*
X93733793Y-96942416D01*
X93728510Y-97022832D01*
X93705858Y-97086214D01*
X93655633Y-97153837D01*
X93607418Y-97205924D01*
X93532446Y-97279678D01*
X93474194Y-97319298D01*
X93411628Y-97335190D01*
X93340807Y-97337816D01*
X93185594Y-97314844D01*
X93101531Y-97276607D01*
X93035550Y-97230274D01*
X92987206Y-97178468D01*
X92953828Y-97111637D01*
X92932747Y-97020231D01*
X92921293Y-96894699D01*
X92916797Y-96725492D01*
X92916322Y-96614067D01*
X92916322Y-96179373D01*
X92990684Y-96145491D01*
X93049254Y-96120728D01*
X93078270Y-96111609D01*
X93083821Y-96138743D01*
G36*
X93083821Y-96138743D02*
G01*
X93088225Y-96211906D01*
X93090922Y-96318737D01*
X93091494Y-96403563D01*
X93093954Y-96526113D01*
X93100588Y-96623332D01*
X93110274Y-96682866D01*
X93117968Y-96695517D01*
X93169689Y-96682598D01*
X93250883Y-96649461D01*
X93344898Y-96604539D01*
X93435083Y-96556265D01*
X93504785Y-96513072D01*
X93537352Y-96483392D01*
X93537481Y-96483071D01*
X93534680Y-96428143D01*
X93509561Y-96375708D01*
X93465459Y-96333119D01*
X93401091Y-96318874D01*
X93346079Y-96320534D01*
X93268165Y-96321755D01*
X93227268Y-96303502D01*
X93202705Y-96255274D01*
X93199608Y-96246180D01*
X93188960Y-96177402D01*
X93217435Y-96135640D01*
X93291656Y-96115737D01*
X93371832Y-96112056D01*
X93516110Y-96139342D01*
X93590797Y-96178310D01*
X93683037Y-96269852D01*
X93731957Y-96382218D01*
X93736346Y-96500949D01*
X93694999Y-96611589D01*
X93632803Y-96680920D01*
X93570706Y-96719735D01*
X93473105Y-96768875D01*
X93359368Y-96818708D01*
X93340410Y-96826323D01*
X93215479Y-96881455D01*
X93143461Y-96930046D01*
X93120300Y-96978353D01*
X93141936Y-97032630D01*
X93179080Y-97075057D01*
X93266873Y-97127298D01*
X93363470Y-97131216D01*
X93452056Y-97090959D01*
X93515814Y-97010674D01*
X93524183Y-96989960D01*
X93572904Y-96913775D01*
X93644035Y-96857215D01*
X93733793Y-96810799D01*
X93733793Y-96942416D01*
X93728510Y-97022832D01*
X93705858Y-97086214D01*
X93655633Y-97153837D01*
X93607418Y-97205924D01*
X93532446Y-97279678D01*
X93474194Y-97319298D01*
X93411628Y-97335190D01*
X93340807Y-97337816D01*
X93185594Y-97314844D01*
X93101531Y-97276607D01*
X93035550Y-97230274D01*
X92987206Y-97178468D01*
X92953828Y-97111637D01*
X92932747Y-97020231D01*
X92921293Y-96894699D01*
X92916797Y-96725492D01*
X92916322Y-96614067D01*
X92916322Y-96179373D01*
X92990684Y-96145491D01*
X93049254Y-96120728D01*
X93078270Y-96111609D01*
X93083821Y-96138743D01*
G37*
X100334582Y-98525518D02*
X100402224Y-98581097D01*
X100497107Y-98666246D01*
X100612470Y-98774847D01*
X100741555Y-98900779D01*
X100783771Y-98942851D01*
X101220261Y-99380069D01*
X100888023Y-99867660D01*
X100787054Y-100017395D01*
X100698438Y-100151780D01*
X100627146Y-100263031D01*
X100578150Y-100343361D01*
X100556422Y-100384986D01*
X100555785Y-100387947D01*
X100567240Y-100427182D01*
X100598051Y-100506105D01*
X100642884Y-100611491D01*
X100674353Y-100682046D01*
X100733192Y-100817124D01*
X100788604Y-100953591D01*
X100831564Y-101068897D01*
X100843234Y-101104023D01*
X100876389Y-101197826D01*
X100908799Y-101270306D01*
X100926601Y-101297699D01*
X100965886Y-101314464D01*
X101051626Y-101338230D01*
X101172697Y-101366303D01*
X101317973Y-101395991D01*
X101382988Y-101408194D01*
X101548087Y-101438532D01*
X101706448Y-101467907D01*
X101842596Y-101493431D01*
X101941057Y-101512215D01*
X101959598Y-101515840D01*
X102112873Y-101546094D01*
X102112873Y-102184355D01*
X102112529Y-102394230D01*
X102111116Y-102553020D01*
X102108064Y-102668027D01*
X102102803Y-102746554D01*
X102094763Y-102795904D01*
X102083373Y-102823381D01*
X102068063Y-102836287D01*
X102061782Y-102838680D01*
X102023896Y-102847167D01*
X101940195Y-102864100D01*
X101821433Y-102887434D01*
X101678361Y-102915125D01*
X101521732Y-102945127D01*
X101362297Y-102975396D01*
X101210809Y-103003885D01*
X101078019Y-103028551D01*
X100974681Y-103047349D01*
X100911545Y-103058233D01*
X100897497Y-103060115D01*
X100884770Y-103085296D01*
X100856600Y-103152378D01*
X100818252Y-103248667D01*
X100803609Y-103286379D01*
X100744548Y-103432079D01*
X100675000Y-103593049D01*
X100612712Y-103728709D01*
X100566879Y-103832439D01*
X100536387Y-103917674D01*
X100526208Y-103969874D01*
X100527831Y-103976870D01*
X100549343Y-104009898D01*
X100598465Y-104083357D01*
X100669923Y-104189423D01*
X100758445Y-104320274D01*
X100858759Y-104468088D01*
X100878594Y-104497266D01*
X100994988Y-104670137D01*
X101080548Y-104801774D01*
X101138684Y-104898239D01*
X101172808Y-104965592D01*
X101186331Y-105009894D01*
X101182664Y-105037206D01*
X101182570Y-105037380D01*
X101153707Y-105073254D01*
X101089867Y-105142609D01*
X100997969Y-105238255D01*
X100884933Y-105353001D01*
X100757679Y-105479659D01*
X100743328Y-105493795D01*
X100582957Y-105649097D01*
X100459195Y-105763130D01*
X100369555Y-105837998D01*
X100311552Y-105875804D01*
X100286004Y-105880683D01*
X100248718Y-105859397D01*
X100171343Y-105810227D01*
X100061867Y-105738425D01*
X99928280Y-105649245D01*
X99778570Y-105547937D01*
X99743618Y-105524103D01*
X99247390Y-105185235D01*
X99023293Y-105286944D01*
X98887011Y-105346217D01*
X98740724Y-105405830D01*
X98614965Y-105453360D01*
X98609425Y-105455315D01*
X98511057Y-105491323D01*
X98435229Y-105521771D01*
X98398282Y-105540095D01*
X98398220Y-105540148D01*
X98386496Y-105573271D01*
X98366568Y-105654733D01*
X98340413Y-105775375D01*
X98310010Y-105926041D01*
X98277337Y-106097572D01*
X98274664Y-106112033D01*
X98241890Y-106288765D01*
X98211802Y-106449190D01*
X98186339Y-106583112D01*
X98167441Y-106680337D01*
X98157047Y-106730668D01*
X98156865Y-106731437D01*
X98150539Y-106752847D01*
X98138239Y-106769012D01*
X98112594Y-106780669D01*
X98066235Y-106788555D01*
X97991792Y-106793407D01*
X97881895Y-106795961D01*
X97729175Y-106796955D01*
X97526262Y-106797126D01*
X97500000Y-106797126D01*
X97290986Y-106797002D01*
X97132994Y-106796137D01*
X97018653Y-106793795D01*
X96940593Y-106789238D01*
X96891446Y-106781730D01*
X96863841Y-106770534D01*
X96850408Y-106754912D01*
X96843779Y-106734127D01*
X96843135Y-106731437D01*
X96833065Y-106682887D01*
X96814425Y-106587095D01*
X96789155Y-106454257D01*
X96759193Y-106294569D01*
X96726478Y-106118226D01*
X96725336Y-106112033D01*
X96692567Y-105939218D01*
X96661907Y-105786531D01*
X96635336Y-105663129D01*
X96614833Y-105578169D01*
X96602374Y-105540810D01*
X96601780Y-105540148D01*
X96565081Y-105521905D01*
X96489414Y-105491503D01*
X96391122Y-105455507D01*
X96390575Y-105455315D01*
X96266767Y-105408778D01*
X96120804Y-105349496D01*
X95983219Y-105289891D01*
X95976707Y-105286944D01*
X95752610Y-105185235D01*
X95256381Y-105524103D01*
X95104154Y-105627408D01*
X94966259Y-105719763D01*
X94850685Y-105795916D01*
X94765421Y-105850615D01*
X94718456Y-105878607D01*
X94713996Y-105880683D01*
X94679866Y-105871440D01*
X94616119Y-105826844D01*
X94520269Y-105744791D01*
X94389831Y-105623179D01*
X94256672Y-105493795D01*
X94128306Y-105366298D01*
X94013419Y-105249954D01*
X93918927Y-105151948D01*
X93851747Y-105079464D01*
X93818794Y-105039687D01*
X93817568Y-105037639D01*
X93813926Y-105010344D01*
X93827650Y-104965766D01*
X93862131Y-104897888D01*
X93920761Y-104800689D01*
X94006930Y-104668149D01*
X94121800Y-104497524D01*
X94223746Y-104347345D01*
X94314877Y-104212650D01*
X94389927Y-104101260D01*
X94443631Y-104020995D01*
X94470720Y-103979675D01*
X94472426Y-103976870D01*
X94469118Y-103937279D01*
X94444047Y-103860331D01*
X94402202Y-103760568D01*
X94387288Y-103728709D01*
X94322214Y-103586774D01*
X94252788Y-103425727D01*
X94196391Y-103286379D01*
X94155753Y-103182956D01*
X94123474Y-103104358D01*
X94104822Y-103063280D01*
X94102503Y-103060115D01*
X94068197Y-103054872D01*
X93987331Y-103040506D01*
X93870657Y-103019063D01*
X93728925Y-102992587D01*
X93572890Y-102963123D01*
X93413302Y-102932717D01*
X93260915Y-102903412D01*
X93126479Y-102877255D01*
X93020748Y-102856290D01*
X92954474Y-102842561D01*
X92938218Y-102838680D01*
X92921427Y-102829100D01*
X92908751Y-102807464D01*
X92899622Y-102766469D01*
X92893469Y-102698811D01*
X92889720Y-102597188D01*
X92887808Y-102454297D01*
X92887160Y-102262835D01*
X92887126Y-102184355D01*
X92887126Y-101546094D01*
X93040402Y-101515840D01*
X93125678Y-101499436D01*
X93252930Y-101475491D01*
X93406685Y-101446893D01*
X93571466Y-101416533D01*
X93617011Y-101408194D01*
X93769068Y-101378630D01*
X93901532Y-101349558D01*
X94003286Y-101323671D01*
X94063212Y-101303663D01*
X94073195Y-101297699D01*
X94097707Y-101255466D01*
X94132852Y-101173630D01*
X94171827Y-101068317D01*
X94179558Y-101045632D01*
X94230640Y-100904982D01*
X94294046Y-100746286D01*
X94356096Y-100603775D01*
X94356402Y-100603114D01*
X94459733Y-100379560D01*
X93780039Y-99379768D01*
X94216379Y-98942700D01*
X94348351Y-98812619D01*
X94468721Y-98697952D01*
X94570727Y-98604819D01*
X94647609Y-98539342D01*
X94692607Y-98507643D01*
X94699062Y-98505632D01*
X94736960Y-98521471D01*
X94814292Y-98565504D01*
X94922611Y-98632510D01*
X95053468Y-98717266D01*
X95194948Y-98812184D01*
X95338539Y-98909002D01*
X95466565Y-98993249D01*
X95570895Y-99059742D01*
X95643400Y-99103298D01*
X95675842Y-99118736D01*
X95715424Y-99105672D01*
X95790481Y-99071250D01*
X95885532Y-99022620D01*
X95895608Y-99017215D01*
X96023609Y-98953020D01*
X96111382Y-98921537D01*
X96165972Y-98921202D01*
X96194425Y-98950452D01*
X96194590Y-98950862D01*
X96208812Y-98985502D01*
X96242731Y-99067731D01*
X96293716Y-99191186D01*
X96359138Y-99349502D01*
X96436366Y-99536314D01*
X96522771Y-99745258D01*
X96606449Y-99947554D01*
X96698412Y-100170800D01*
X96782850Y-100377608D01*
X96857231Y-100561638D01*
X96919026Y-100716549D01*
X96965703Y-100836004D01*
X96994732Y-100913661D01*
X97003678Y-100942644D01*
X96981244Y-100975890D01*
X96922561Y-101028877D01*
X96844311Y-101087296D01*
X96621466Y-101272048D01*
X96447282Y-101483818D01*
X96323846Y-101718144D01*
X96253246Y-101970566D01*
X96237569Y-102236623D01*
X96248964Y-102359425D01*
X96311050Y-102614207D01*
X96417977Y-102839199D01*
X96563111Y-103032183D01*
X96739822Y-103190939D01*
X96941478Y-103313250D01*
X97161446Y-103396895D01*
X97393094Y-103439656D01*
X97629791Y-103439313D01*
X97864905Y-103393648D01*
X98091804Y-103300441D01*
X98303856Y-103157473D01*
X98392364Y-103076617D01*
X98562111Y-102868993D01*
X98680301Y-102642105D01*
X98747722Y-102402567D01*
X98765160Y-102156993D01*
X98733402Y-101911997D01*
X98653235Y-101674192D01*
X98525445Y-101450193D01*
X98350820Y-101246613D01*
X98155688Y-101087296D01*
X98074409Y-101026398D01*
X98016991Y-100973985D01*
X97996322Y-100942594D01*
X98007144Y-100908361D01*
X98037923Y-100826581D01*
X98086126Y-100703593D01*
X98149222Y-100545737D01*
X98224678Y-100359351D01*
X98309962Y-100150774D01*
X98393781Y-99947504D01*
X98486255Y-99724067D01*
X98571911Y-99517016D01*
X98648118Y-99332714D01*
X98712247Y-99177525D01*
X98761668Y-99057812D01*
X98793752Y-98979939D01*
X98805641Y-98950862D01*
X98833726Y-98921323D01*
X98888051Y-98921409D01*
X98975605Y-98952674D01*
X99103381Y-99016671D01*
X99104392Y-99017215D01*
X99200598Y-99066879D01*
X99278369Y-99103055D01*
X99322223Y-99118592D01*
X99324158Y-99118736D01*
X99357171Y-99102976D01*
X99430054Y-99059150D01*
X99534678Y-98992443D01*
X99662910Y-98908036D01*
X99805052Y-98812184D01*
X99949767Y-98715133D01*
X100080196Y-98630730D01*
X100187890Y-98564199D01*
X100264402Y-98520762D01*
X100300938Y-98505632D01*
X100334582Y-98525518D01*
G36*
X100334582Y-98525518D02*
G01*
X100402224Y-98581097D01*
X100497107Y-98666246D01*
X100612470Y-98774847D01*
X100741555Y-98900779D01*
X100783771Y-98942851D01*
X101220261Y-99380069D01*
X100888023Y-99867660D01*
X100787054Y-100017395D01*
X100698438Y-100151780D01*
X100627146Y-100263031D01*
X100578150Y-100343361D01*
X100556422Y-100384986D01*
X100555785Y-100387947D01*
X100567240Y-100427182D01*
X100598051Y-100506105D01*
X100642884Y-100611491D01*
X100674353Y-100682046D01*
X100733192Y-100817124D01*
X100788604Y-100953591D01*
X100831564Y-101068897D01*
X100843234Y-101104023D01*
X100876389Y-101197826D01*
X100908799Y-101270306D01*
X100926601Y-101297699D01*
X100965886Y-101314464D01*
X101051626Y-101338230D01*
X101172697Y-101366303D01*
X101317973Y-101395991D01*
X101382988Y-101408194D01*
X101548087Y-101438532D01*
X101706448Y-101467907D01*
X101842596Y-101493431D01*
X101941057Y-101512215D01*
X101959598Y-101515840D01*
X102112873Y-101546094D01*
X102112873Y-102184355D01*
X102112529Y-102394230D01*
X102111116Y-102553020D01*
X102108064Y-102668027D01*
X102102803Y-102746554D01*
X102094763Y-102795904D01*
X102083373Y-102823381D01*
X102068063Y-102836287D01*
X102061782Y-102838680D01*
X102023896Y-102847167D01*
X101940195Y-102864100D01*
X101821433Y-102887434D01*
X101678361Y-102915125D01*
X101521732Y-102945127D01*
X101362297Y-102975396D01*
X101210809Y-103003885D01*
X101078019Y-103028551D01*
X100974681Y-103047349D01*
X100911545Y-103058233D01*
X100897497Y-103060115D01*
X100884770Y-103085296D01*
X100856600Y-103152378D01*
X100818252Y-103248667D01*
X100803609Y-103286379D01*
X100744548Y-103432079D01*
X100675000Y-103593049D01*
X100612712Y-103728709D01*
X100566879Y-103832439D01*
X100536387Y-103917674D01*
X100526208Y-103969874D01*
X100527831Y-103976870D01*
X100549343Y-104009898D01*
X100598465Y-104083357D01*
X100669923Y-104189423D01*
X100758445Y-104320274D01*
X100858759Y-104468088D01*
X100878594Y-104497266D01*
X100994988Y-104670137D01*
X101080548Y-104801774D01*
X101138684Y-104898239D01*
X101172808Y-104965592D01*
X101186331Y-105009894D01*
X101182664Y-105037206D01*
X101182570Y-105037380D01*
X101153707Y-105073254D01*
X101089867Y-105142609D01*
X100997969Y-105238255D01*
X100884933Y-105353001D01*
X100757679Y-105479659D01*
X100743328Y-105493795D01*
X100582957Y-105649097D01*
X100459195Y-105763130D01*
X100369555Y-105837998D01*
X100311552Y-105875804D01*
X100286004Y-105880683D01*
X100248718Y-105859397D01*
X100171343Y-105810227D01*
X100061867Y-105738425D01*
X99928280Y-105649245D01*
X99778570Y-105547937D01*
X99743618Y-105524103D01*
X99247390Y-105185235D01*
X99023293Y-105286944D01*
X98887011Y-105346217D01*
X98740724Y-105405830D01*
X98614965Y-105453360D01*
X98609425Y-105455315D01*
X98511057Y-105491323D01*
X98435229Y-105521771D01*
X98398282Y-105540095D01*
X98398220Y-105540148D01*
X98386496Y-105573271D01*
X98366568Y-105654733D01*
X98340413Y-105775375D01*
X98310010Y-105926041D01*
X98277337Y-106097572D01*
X98274664Y-106112033D01*
X98241890Y-106288765D01*
X98211802Y-106449190D01*
X98186339Y-106583112D01*
X98167441Y-106680337D01*
X98157047Y-106730668D01*
X98156865Y-106731437D01*
X98150539Y-106752847D01*
X98138239Y-106769012D01*
X98112594Y-106780669D01*
X98066235Y-106788555D01*
X97991792Y-106793407D01*
X97881895Y-106795961D01*
X97729175Y-106796955D01*
X97526262Y-106797126D01*
X97500000Y-106797126D01*
X97290986Y-106797002D01*
X97132994Y-106796137D01*
X97018653Y-106793795D01*
X96940593Y-106789238D01*
X96891446Y-106781730D01*
X96863841Y-106770534D01*
X96850408Y-106754912D01*
X96843779Y-106734127D01*
X96843135Y-106731437D01*
X96833065Y-106682887D01*
X96814425Y-106587095D01*
X96789155Y-106454257D01*
X96759193Y-106294569D01*
X96726478Y-106118226D01*
X96725336Y-106112033D01*
X96692567Y-105939218D01*
X96661907Y-105786531D01*
X96635336Y-105663129D01*
X96614833Y-105578169D01*
X96602374Y-105540810D01*
X96601780Y-105540148D01*
X96565081Y-105521905D01*
X96489414Y-105491503D01*
X96391122Y-105455507D01*
X96390575Y-105455315D01*
X96266767Y-105408778D01*
X96120804Y-105349496D01*
X95983219Y-105289891D01*
X95976707Y-105286944D01*
X95752610Y-105185235D01*
X95256381Y-105524103D01*
X95104154Y-105627408D01*
X94966259Y-105719763D01*
X94850685Y-105795916D01*
X94765421Y-105850615D01*
X94718456Y-105878607D01*
X94713996Y-105880683D01*
X94679866Y-105871440D01*
X94616119Y-105826844D01*
X94520269Y-105744791D01*
X94389831Y-105623179D01*
X94256672Y-105493795D01*
X94128306Y-105366298D01*
X94013419Y-105249954D01*
X93918927Y-105151948D01*
X93851747Y-105079464D01*
X93818794Y-105039687D01*
X93817568Y-105037639D01*
X93813926Y-105010344D01*
X93827650Y-104965766D01*
X93862131Y-104897888D01*
X93920761Y-104800689D01*
X94006930Y-104668149D01*
X94121800Y-104497524D01*
X94223746Y-104347345D01*
X94314877Y-104212650D01*
X94389927Y-104101260D01*
X94443631Y-104020995D01*
X94470720Y-103979675D01*
X94472426Y-103976870D01*
X94469118Y-103937279D01*
X94444047Y-103860331D01*
X94402202Y-103760568D01*
X94387288Y-103728709D01*
X94322214Y-103586774D01*
X94252788Y-103425727D01*
X94196391Y-103286379D01*
X94155753Y-103182956D01*
X94123474Y-103104358D01*
X94104822Y-103063280D01*
X94102503Y-103060115D01*
X94068197Y-103054872D01*
X93987331Y-103040506D01*
X93870657Y-103019063D01*
X93728925Y-102992587D01*
X93572890Y-102963123D01*
X93413302Y-102932717D01*
X93260915Y-102903412D01*
X93126479Y-102877255D01*
X93020748Y-102856290D01*
X92954474Y-102842561D01*
X92938218Y-102838680D01*
X92921427Y-102829100D01*
X92908751Y-102807464D01*
X92899622Y-102766469D01*
X92893469Y-102698811D01*
X92889720Y-102597188D01*
X92887808Y-102454297D01*
X92887160Y-102262835D01*
X92887126Y-102184355D01*
X92887126Y-101546094D01*
X93040402Y-101515840D01*
X93125678Y-101499436D01*
X93252930Y-101475491D01*
X93406685Y-101446893D01*
X93571466Y-101416533D01*
X93617011Y-101408194D01*
X93769068Y-101378630D01*
X93901532Y-101349558D01*
X94003286Y-101323671D01*
X94063212Y-101303663D01*
X94073195Y-101297699D01*
X94097707Y-101255466D01*
X94132852Y-101173630D01*
X94171827Y-101068317D01*
X94179558Y-101045632D01*
X94230640Y-100904982D01*
X94294046Y-100746286D01*
X94356096Y-100603775D01*
X94356402Y-100603114D01*
X94459733Y-100379560D01*
X93780039Y-99379768D01*
X94216379Y-98942700D01*
X94348351Y-98812619D01*
X94468721Y-98697952D01*
X94570727Y-98604819D01*
X94647609Y-98539342D01*
X94692607Y-98507643D01*
X94699062Y-98505632D01*
X94736960Y-98521471D01*
X94814292Y-98565504D01*
X94922611Y-98632510D01*
X95053468Y-98717266D01*
X95194948Y-98812184D01*
X95338539Y-98909002D01*
X95466565Y-98993249D01*
X95570895Y-99059742D01*
X95643400Y-99103298D01*
X95675842Y-99118736D01*
X95715424Y-99105672D01*
X95790481Y-99071250D01*
X95885532Y-99022620D01*
X95895608Y-99017215D01*
X96023609Y-98953020D01*
X96111382Y-98921537D01*
X96165972Y-98921202D01*
X96194425Y-98950452D01*
X96194590Y-98950862D01*
X96208812Y-98985502D01*
X96242731Y-99067731D01*
X96293716Y-99191186D01*
X96359138Y-99349502D01*
X96436366Y-99536314D01*
X96522771Y-99745258D01*
X96606449Y-99947554D01*
X96698412Y-100170800D01*
X96782850Y-100377608D01*
X96857231Y-100561638D01*
X96919026Y-100716549D01*
X96965703Y-100836004D01*
X96994732Y-100913661D01*
X97003678Y-100942644D01*
X96981244Y-100975890D01*
X96922561Y-101028877D01*
X96844311Y-101087296D01*
X96621466Y-101272048D01*
X96447282Y-101483818D01*
X96323846Y-101718144D01*
X96253246Y-101970566D01*
X96237569Y-102236623D01*
X96248964Y-102359425D01*
X96311050Y-102614207D01*
X96417977Y-102839199D01*
X96563111Y-103032183D01*
X96739822Y-103190939D01*
X96941478Y-103313250D01*
X97161446Y-103396895D01*
X97393094Y-103439656D01*
X97629791Y-103439313D01*
X97864905Y-103393648D01*
X98091804Y-103300441D01*
X98303856Y-103157473D01*
X98392364Y-103076617D01*
X98562111Y-102868993D01*
X98680301Y-102642105D01*
X98747722Y-102402567D01*
X98765160Y-102156993D01*
X98733402Y-101911997D01*
X98653235Y-101674192D01*
X98525445Y-101450193D01*
X98350820Y-101246613D01*
X98155688Y-101087296D01*
X98074409Y-101026398D01*
X98016991Y-100973985D01*
X97996322Y-100942594D01*
X98007144Y-100908361D01*
X98037923Y-100826581D01*
X98086126Y-100703593D01*
X98149222Y-100545737D01*
X98224678Y-100359351D01*
X98309962Y-100150774D01*
X98393781Y-99947504D01*
X98486255Y-99724067D01*
X98571911Y-99517016D01*
X98648118Y-99332714D01*
X98712247Y-99177525D01*
X98761668Y-99057812D01*
X98793752Y-98979939D01*
X98805641Y-98950862D01*
X98833726Y-98921323D01*
X98888051Y-98921409D01*
X98975605Y-98952674D01*
X99103381Y-99016671D01*
X99104392Y-99017215D01*
X99200598Y-99066879D01*
X99278369Y-99103055D01*
X99322223Y-99118592D01*
X99324158Y-99118736D01*
X99357171Y-99102976D01*
X99430054Y-99059150D01*
X99534678Y-98992443D01*
X99662910Y-98908036D01*
X99805052Y-98812184D01*
X99949767Y-98715133D01*
X100080196Y-98630730D01*
X100187890Y-98564199D01*
X100264402Y-98520762D01*
X100300938Y-98505632D01*
X100334582Y-98525518D01*
G37*
D13*
%TO.C,R69*%
X138012742Y-144727500D02*
X138487258Y-144727500D01*
X138012742Y-145772500D02*
X138487258Y-145772500D01*
%TO.C,R57*%
X130522500Y-121262742D02*
X130522500Y-121737258D01*
X129477500Y-121262742D02*
X129477500Y-121737258D01*
%TO.C,R32*%
X117942500Y-85487258D02*
X117942500Y-85012742D01*
X118987500Y-85487258D02*
X118987500Y-85012742D01*
%TO.C,D22*%
X133275000Y-80250000D02*
X133275000Y-78575000D01*
X133275000Y-80250000D02*
X133275000Y-80900000D01*
X130155000Y-80250000D02*
X130155000Y-79600000D01*
X130155000Y-80250000D02*
X130155000Y-80900000D01*
%TO.C,R2*%
X68942500Y-85487258D02*
X68942500Y-85012742D01*
X69987500Y-85487258D02*
X69987500Y-85012742D01*
%TO.C,U11*%
X98000000Y-116935000D02*
X101450000Y-116935000D01*
X98000000Y-116935000D02*
X96050000Y-116935000D01*
X98000000Y-108065000D02*
X99950000Y-108065000D01*
X98000000Y-108065000D02*
X96050000Y-108065000D01*
%TO.C,R37*%
X86442500Y-85487258D02*
X86442500Y-85012742D01*
X87487500Y-85487258D02*
X87487500Y-85012742D01*
%TO.C,U15*%
X95655000Y-91402500D02*
X95655000Y-94852500D01*
X95655000Y-91402500D02*
X95655000Y-89452500D01*
X100775000Y-91402500D02*
X100775000Y-93352500D01*
X100775000Y-91402500D02*
X100775000Y-89452500D01*
D14*
%TO.C,U27*%
X106092000Y-143985000D02*
X104488000Y-143985000D01*
X104488000Y-146439000D02*
X106092000Y-146439000D01*
D13*
%TO.C,R78*%
X131012742Y-63477500D02*
X131487258Y-63477500D01*
X131012742Y-64522500D02*
X131487258Y-64522500D01*
%TO.C,R44*%
X105942500Y-85487258D02*
X105942500Y-85012742D01*
X106987500Y-85487258D02*
X106987500Y-85012742D01*
D14*
%TO.C,U33*%
X114379100Y-146628900D02*
X118620900Y-146628900D01*
X118620900Y-141371100D02*
X114379100Y-141371100D01*
D13*
%TO.C,R88*%
X107437258Y-83472500D02*
X106962742Y-83472500D01*
X107437258Y-82427500D02*
X106962742Y-82427500D01*
%TO.C,R79*%
X134762742Y-63477500D02*
X135237258Y-63477500D01*
X134762742Y-64522500D02*
X135237258Y-64522500D01*
%TO.C,C35*%
X128160000Y-144788748D02*
X128160000Y-146211252D01*
X126340000Y-144788748D02*
X126340000Y-146211252D01*
%TO.C,U6*%
X82500000Y-116935000D02*
X85950000Y-116935000D01*
X82500000Y-116935000D02*
X80550000Y-116935000D01*
X82500000Y-108065000D02*
X84450000Y-108065000D01*
X82500000Y-108065000D02*
X80550000Y-108065000D01*
%TO.C,JP2*%
X64395000Y-70580000D02*
X64395000Y-69250000D01*
X65725000Y-70580000D02*
X64395000Y-70580000D01*
X66995000Y-70580000D02*
X72135000Y-70580000D01*
X66995000Y-70580000D02*
X66995000Y-67920000D01*
X72135000Y-70580000D02*
X72135000Y-67920000D01*
X66995000Y-67920000D02*
X72135000Y-67920000D01*
%TO.C,R15*%
X88442500Y-85487258D02*
X88442500Y-85012742D01*
X89487500Y-85487258D02*
X89487500Y-85012742D01*
%TO.C,C29*%
X119140580Y-140260000D02*
X118859420Y-140260000D01*
X119140580Y-139240000D02*
X118859420Y-139240000D01*
%TO.C,R92*%
X135487258Y-83472500D02*
X135012742Y-83472500D01*
X135487258Y-82427500D02*
X135012742Y-82427500D01*
%TO.C,R94*%
X124937258Y-83472500D02*
X124462742Y-83472500D01*
X124937258Y-82427500D02*
X124462742Y-82427500D01*
%TO.C,D14*%
X108775000Y-80250000D02*
X108775000Y-78575000D01*
X108775000Y-80250000D02*
X108775000Y-80900000D01*
X105655000Y-80250000D02*
X105655000Y-79600000D01*
X105655000Y-80250000D02*
X105655000Y-80900000D01*
%TO.C,R60*%
X107612742Y-134427500D02*
X108087258Y-134427500D01*
X107612742Y-135472500D02*
X108087258Y-135472500D01*
%TO.C,R87*%
X114487258Y-83472500D02*
X114012742Y-83472500D01*
X114487258Y-82427500D02*
X114012742Y-82427500D01*
%TO.C,R63*%
X120362742Y-134427500D02*
X120837258Y-134427500D01*
X120362742Y-135472500D02*
X120837258Y-135472500D01*
%TO.C,R21*%
X97677500Y-121262742D02*
X97677500Y-121737258D01*
X96632500Y-121262742D02*
X96632500Y-121737258D01*
%TO.C,R68*%
X131942500Y-85487258D02*
X131942500Y-85012742D01*
X132987500Y-85487258D02*
X132987500Y-85012742D01*
%TO.C,JP1*%
X131895000Y-70580000D02*
X131895000Y-69250000D01*
X133225000Y-70580000D02*
X131895000Y-70580000D01*
X134495000Y-70580000D02*
X139635000Y-70580000D01*
X134495000Y-70580000D02*
X134495000Y-67920000D01*
X139635000Y-70580000D02*
X139635000Y-67920000D01*
X134495000Y-67920000D02*
X139635000Y-67920000D01*
%TO.C,R40*%
X91942500Y-85487258D02*
X91942500Y-85012742D01*
X92987500Y-85487258D02*
X92987500Y-85012742D01*
%TO.C,R75*%
X127022500Y-136512742D02*
X127022500Y-136987258D01*
X125977500Y-136512742D02*
X125977500Y-136987258D01*
%TO.C,U17*%
X109655000Y-91377500D02*
X109655000Y-94827500D01*
X109655000Y-91377500D02*
X109655000Y-89427500D01*
X114775000Y-91377500D02*
X114775000Y-93327500D01*
X114775000Y-91377500D02*
X114775000Y-89427500D01*
%TO.C,R6*%
X74512500Y-121262742D02*
X74512500Y-121737258D01*
X73467500Y-121262742D02*
X73467500Y-121737258D01*
%TO.C,C33*%
X136461252Y-131410000D02*
X135038748Y-131410000D01*
X136461252Y-129590000D02*
X135038748Y-129590000D01*
%TO.C,U24*%
X123655000Y-91377500D02*
X123655000Y-94827500D01*
X123655000Y-91377500D02*
X123655000Y-89427500D01*
X128775000Y-91377500D02*
X128775000Y-93327500D01*
X128775000Y-91377500D02*
X128775000Y-89427500D01*
%TO.C,R56*%
X98227500Y-135487258D02*
X98227500Y-135012742D01*
X99272500Y-135487258D02*
X99272500Y-135012742D01*
%TO.C,C15*%
X72359420Y-117490000D02*
X72640580Y-117490000D01*
X72359420Y-118510000D02*
X72640580Y-118510000D01*
%TO.C,R22*%
X105522500Y-121262742D02*
X105522500Y-121737258D01*
X104477500Y-121262742D02*
X104477500Y-121737258D01*
%TO.C,R49*%
X128477500Y-85487258D02*
X128477500Y-85012742D01*
X129522500Y-85487258D02*
X129522500Y-85012742D01*
%TO.C,R48*%
X119977500Y-85487258D02*
X119977500Y-85012742D01*
X121022500Y-85487258D02*
X121022500Y-85012742D01*
%TO.C,C37*%
X65910000Y-145038748D02*
X65910000Y-146461252D01*
X64090000Y-145038748D02*
X64090000Y-146461252D01*
%TO.C,R85*%
X72437258Y-83472500D02*
X71962742Y-83472500D01*
X72437258Y-82427500D02*
X71962742Y-82427500D01*
%TO.C,R99*%
X89937258Y-83472500D02*
X89462742Y-83472500D01*
X89937258Y-82427500D02*
X89462742Y-82427500D01*
%TO.C,R27*%
X102442500Y-85487258D02*
X102442500Y-85012742D01*
X103487500Y-85487258D02*
X103487500Y-85012742D01*
%TO.C,C10*%
X123225000Y-89486920D02*
X123225000Y-89768080D01*
X122205000Y-89486920D02*
X122205000Y-89768080D01*
%TO.C,R91*%
X128487258Y-83472500D02*
X128012742Y-83472500D01*
X128487258Y-82427500D02*
X128012742Y-82427500D01*
%TO.C,R82*%
X75937258Y-83472500D02*
X75462742Y-83472500D01*
X75937258Y-82427500D02*
X75462742Y-82427500D01*
%TO.C,R54*%
X97522500Y-130762742D02*
X97522500Y-131237258D01*
X96477500Y-130762742D02*
X96477500Y-131237258D01*
D14*
%TO.C,U32*%
X83592000Y-143985000D02*
X81988000Y-143985000D01*
X81988000Y-146439000D02*
X83592000Y-146439000D01*
D13*
%TO.C,U20*%
X129000000Y-116935000D02*
X132450000Y-116935000D01*
X129000000Y-116935000D02*
X127050000Y-116935000D01*
X129000000Y-108065000D02*
X130950000Y-108065000D01*
X129000000Y-108065000D02*
X127050000Y-108065000D01*
%TO.C,U13*%
X113500000Y-116935000D02*
X116950000Y-116935000D01*
X113500000Y-116935000D02*
X111550000Y-116935000D01*
X113500000Y-108065000D02*
X115450000Y-108065000D01*
X113500000Y-108065000D02*
X111550000Y-108065000D01*
%TO.C,D4*%
X84275000Y-80250000D02*
X84275000Y-78575000D01*
X84275000Y-80250000D02*
X84275000Y-80900000D01*
X81155000Y-80250000D02*
X81155000Y-79600000D01*
X81155000Y-80250000D02*
X81155000Y-80900000D01*
%TO.C,C5*%
X88225000Y-89511920D02*
X88225000Y-89793080D01*
X87205000Y-89511920D02*
X87205000Y-89793080D01*
%TO.C,C2*%
X64609420Y-117490000D02*
X64890580Y-117490000D01*
X64609420Y-118510000D02*
X64890580Y-118510000D01*
%TO.C,R71*%
X70762742Y-144477500D02*
X71237258Y-144477500D01*
X70762742Y-145522500D02*
X71237258Y-145522500D01*
%TO.C,C48*%
X90288748Y-137840000D02*
X91711252Y-137840000D01*
X90288748Y-139660000D02*
X91711252Y-139660000D01*
%TO.C,C6*%
X95225000Y-89511920D02*
X95225000Y-89793080D01*
X94205000Y-89511920D02*
X94205000Y-89793080D01*
%TO.C,U12*%
X105750000Y-116935000D02*
X109200000Y-116935000D01*
X105750000Y-116935000D02*
X103800000Y-116935000D01*
X105750000Y-108065000D02*
X107700000Y-108065000D01*
X105750000Y-108065000D02*
X103800000Y-108065000D01*
%TO.C,D9*%
X119275000Y-80250000D02*
X119275000Y-78575000D01*
X119275000Y-80250000D02*
X119275000Y-80900000D01*
X116155000Y-80250000D02*
X116155000Y-79600000D01*
X116155000Y-80250000D02*
X116155000Y-80900000D01*
%TO.C,R29*%
X109477500Y-85487258D02*
X109477500Y-85012742D01*
X110522500Y-85487258D02*
X110522500Y-85012742D01*
%TO.C,C22*%
X126609420Y-117490000D02*
X126890580Y-117490000D01*
X126609420Y-118510000D02*
X126890580Y-118510000D01*
%TO.C,U7*%
X90250000Y-116935000D02*
X93700000Y-116935000D01*
X90250000Y-116935000D02*
X88300000Y-116935000D01*
X90250000Y-108065000D02*
X92200000Y-108065000D01*
X90250000Y-108065000D02*
X88300000Y-108065000D01*
%TO.C,R76*%
X124477500Y-135237258D02*
X124477500Y-134762742D01*
X125522500Y-135237258D02*
X125522500Y-134762742D01*
%TO.C,R93*%
X131937258Y-83472500D02*
X131462742Y-83472500D01*
X131937258Y-82427500D02*
X131462742Y-82427500D01*
D14*
%TO.C,J2*%
X75555400Y-56195000D02*
X75555400Y-72552600D01*
X75555400Y-72552600D02*
X128844600Y-72552600D01*
X76952400Y-50200600D02*
X80406800Y-50200600D01*
X76952400Y-56195000D02*
X76952400Y-50200600D01*
X80406800Y-50200600D02*
X80406800Y-56195000D01*
X82883300Y-50200600D02*
X82883300Y-56449000D01*
X82883300Y-56449000D02*
X121516700Y-56449000D01*
X121516700Y-50200600D02*
X82883300Y-50200600D01*
X121516700Y-56449000D02*
X121516700Y-50200600D01*
X123993200Y-50200600D02*
X127447600Y-50200600D01*
X123993200Y-56195000D02*
X123993200Y-50200600D01*
X127447600Y-50200600D02*
X127447600Y-56195000D01*
X128844600Y-56195000D02*
X75555400Y-56195000D01*
X128844600Y-72552600D02*
X128844600Y-56195000D01*
D13*
%TO.C,R1*%
X67442500Y-85487258D02*
X67442500Y-85012742D01*
X68487500Y-85487258D02*
X68487500Y-85012742D01*
%TO.C,R7*%
X74442500Y-85487258D02*
X74442500Y-85012742D01*
X75487500Y-85487258D02*
X75487500Y-85012742D01*
%TO.C,C7*%
X102225000Y-89511920D02*
X102225000Y-89793080D01*
X101205000Y-89511920D02*
X101205000Y-89793080D01*
%TO.C,C39*%
X71140580Y-144010000D02*
X70859420Y-144010000D01*
X71140580Y-142990000D02*
X70859420Y-142990000D01*
%TO.C,R39*%
X93442500Y-85487258D02*
X93442500Y-85012742D01*
X94487500Y-85487258D02*
X94487500Y-85012742D01*
%TO.C,U10*%
X116775000Y-100652500D02*
X116775000Y-97202500D01*
X116775000Y-100652500D02*
X116775000Y-102602500D01*
X106655000Y-100652500D02*
X106655000Y-98702500D01*
X106655000Y-100652500D02*
X106655000Y-102602500D01*
%TO.C,R24*%
X121022500Y-121262742D02*
X121022500Y-121737258D01*
X119977500Y-121262742D02*
X119977500Y-121737258D01*
%TO.C,C34*%
X136461252Y-128910000D02*
X135038748Y-128910000D01*
X136461252Y-127090000D02*
X135038748Y-127090000D01*
%TO.C,R30*%
X110977500Y-85487258D02*
X110977500Y-85012742D01*
X112022500Y-85487258D02*
X112022500Y-85012742D01*
%TO.C,R62*%
X136482500Y-121262742D02*
X136482500Y-121737258D01*
X135437500Y-121262742D02*
X135437500Y-121737258D01*
%TO.C,U34*%
X130940000Y-140551252D02*
X130940000Y-142351252D01*
X130940000Y-140551252D02*
X130940000Y-139751252D01*
X134060000Y-140551252D02*
X134060000Y-141351252D01*
X134060000Y-140551252D02*
X134060000Y-139751252D01*
%TO.C,R8*%
X75942500Y-85487258D02*
X75942500Y-85012742D01*
X76987500Y-85487258D02*
X76987500Y-85012742D01*
%TO.C,R70*%
X135012742Y-143028752D02*
X135487258Y-143028752D01*
X135012742Y-144073752D02*
X135487258Y-144073752D01*
%TO.C,R64*%
X121522500Y-145262742D02*
X121522500Y-145737258D01*
X120477500Y-145262742D02*
X120477500Y-145737258D01*
%TO.C,D11*%
X87775000Y-80250000D02*
X87775000Y-78575000D01*
X87775000Y-80250000D02*
X87775000Y-80900000D01*
X84655000Y-80250000D02*
X84655000Y-79600000D01*
X84655000Y-80250000D02*
X84655000Y-80900000D01*
%TO.C,C1*%
X67225000Y-89511920D02*
X67225000Y-89793080D01*
X66205000Y-89511920D02*
X66205000Y-89793080D01*
%TO.C,R26*%
X96942500Y-85487258D02*
X96942500Y-85012742D01*
X97987500Y-85487258D02*
X97987500Y-85012742D01*
%TO.C,C47*%
X68340000Y-101461252D02*
X68340000Y-100038748D01*
X70160000Y-101461252D02*
X70160000Y-100038748D01*
%TO.C,R33*%
X70942500Y-85487258D02*
X70942500Y-85012742D01*
X71987500Y-85487258D02*
X71987500Y-85012742D01*
%TO.C,R100*%
X82937258Y-83472500D02*
X82462742Y-83472500D01*
X82937258Y-82427500D02*
X82462742Y-82427500D01*
%TO.C,U9*%
X88655000Y-91402500D02*
X88655000Y-94852500D01*
X88655000Y-91402500D02*
X88655000Y-89452500D01*
X93775000Y-91402500D02*
X93775000Y-93352500D01*
X93775000Y-91402500D02*
X93775000Y-89452500D01*
%TO.C,C17*%
X87859420Y-117490000D02*
X88140580Y-117490000D01*
X87859420Y-118510000D02*
X88140580Y-118510000D01*
%TO.C,U14*%
X121250000Y-116935000D02*
X124700000Y-116935000D01*
X121250000Y-116935000D02*
X119300000Y-116935000D01*
X121250000Y-108065000D02*
X123200000Y-108065000D01*
X121250000Y-108065000D02*
X119300000Y-108065000D01*
%TO.C,R3*%
X68522500Y-121262742D02*
X68522500Y-121737258D01*
X67477500Y-121262742D02*
X67477500Y-121737258D01*
%TO.C,D20*%
X136485000Y-62735000D02*
X136485000Y-61265000D01*
X136485000Y-61265000D02*
X134200000Y-61265000D01*
X134200000Y-62735000D02*
X136485000Y-62735000D01*
%TO.C,C18*%
X95609420Y-117490000D02*
X95890580Y-117490000D01*
X95609420Y-118510000D02*
X95890580Y-118510000D01*
%TO.C,C25*%
X117205000Y-102543080D02*
X117205000Y-102261920D01*
X118225000Y-102543080D02*
X118225000Y-102261920D01*
%TO.C,R98*%
X96937258Y-83472500D02*
X96462742Y-83472500D01*
X96937258Y-82427500D02*
X96462742Y-82427500D01*
%TO.C,C16*%
X80109420Y-117490000D02*
X80390580Y-117490000D01*
X80109420Y-118510000D02*
X80390580Y-118510000D01*
%TO.C,C3*%
X74225000Y-89511920D02*
X74225000Y-89793080D01*
X73205000Y-89511920D02*
X73205000Y-89793080D01*
%TO.C,R89*%
X100437258Y-83472500D02*
X99962742Y-83472500D01*
X100437258Y-82427500D02*
X99962742Y-82427500D01*
%TO.C,D19*%
X132735000Y-62735000D02*
X132735000Y-61265000D01*
X132735000Y-61265000D02*
X130450000Y-61265000D01*
X130450000Y-62735000D02*
X132735000Y-62735000D01*
%TO.C,U19*%
X137275000Y-100652500D02*
X137275000Y-97202500D01*
X137275000Y-100652500D02*
X137275000Y-102602500D01*
X127155000Y-100652500D02*
X127155000Y-98702500D01*
X127155000Y-100652500D02*
X127155000Y-102602500D01*
%TO.C,R96*%
X110987258Y-83472500D02*
X110512742Y-83472500D01*
X110987258Y-82427500D02*
X110512742Y-82427500D01*
%TO.C,C24*%
X88705000Y-102543080D02*
X88705000Y-102261920D01*
X89725000Y-102543080D02*
X89725000Y-102261920D01*
%TO.C,C40*%
X68711252Y-128910000D02*
X67288748Y-128910000D01*
X68711252Y-127090000D02*
X67288748Y-127090000D01*
%TO.C,R18*%
X107272500Y-121262742D02*
X107272500Y-121737258D01*
X106227500Y-121262742D02*
X106227500Y-121737258D01*
%TO.C,R35*%
X79442500Y-85487258D02*
X79442500Y-85012742D01*
X80487500Y-85487258D02*
X80487500Y-85012742D01*
%TO.C,D21*%
X126275000Y-80250000D02*
X126275000Y-78575000D01*
X126275000Y-80250000D02*
X126275000Y-80900000D01*
X123155000Y-80250000D02*
X123155000Y-79600000D01*
X123155000Y-80250000D02*
X123155000Y-80900000D01*
%TO.C,C20*%
X111109420Y-117490000D02*
X111390580Y-117490000D01*
X111109420Y-118510000D02*
X111390580Y-118510000D01*
%TO.C,R53*%
X76362742Y-134577500D02*
X76837258Y-134577500D01*
X76362742Y-135622500D02*
X76837258Y-135622500D01*
%TO.C,R80*%
X138512742Y-63477500D02*
X138987258Y-63477500D01*
X138512742Y-64522500D02*
X138987258Y-64522500D01*
%TO.C,U25*%
X130655000Y-91377500D02*
X130655000Y-94827500D01*
X130655000Y-91377500D02*
X130655000Y-89427500D01*
X135775000Y-91377500D02*
X135775000Y-93327500D01*
X135775000Y-91377500D02*
X135775000Y-89427500D01*
%TO.C,R19*%
X115002500Y-121262742D02*
X115002500Y-121737258D01*
X113957500Y-121262742D02*
X113957500Y-121737258D01*
%TO.C,R17*%
X99427500Y-121262742D02*
X99427500Y-121737258D01*
X98382500Y-121262742D02*
X98382500Y-121737258D01*
%TO.C,C41*%
X72160000Y-139288748D02*
X72160000Y-140711252D01*
X70340000Y-139288748D02*
X70340000Y-140711252D01*
%TO.C,U5*%
X74655000Y-91402500D02*
X74655000Y-94852500D01*
X74655000Y-91402500D02*
X74655000Y-89452500D01*
X79775000Y-91402500D02*
X79775000Y-93352500D01*
X79775000Y-91402500D02*
X79775000Y-89452500D01*
%TO.C,R66*%
X124942500Y-85487258D02*
X124942500Y-85012742D01*
X125987500Y-85487258D02*
X125987500Y-85012742D01*
%TO.C,U3*%
X67655000Y-91442500D02*
X67655000Y-94892500D01*
X67655000Y-91442500D02*
X67655000Y-89492500D01*
X72775000Y-91442500D02*
X72775000Y-93392500D01*
X72775000Y-91442500D02*
X72775000Y-89492500D01*
%TO.C,C49*%
X97211252Y-139660000D02*
X95788748Y-139660000D01*
X97211252Y-137840000D02*
X95788748Y-137840000D01*
%TO.C,U1*%
X67000000Y-116935000D02*
X70450000Y-116935000D01*
X67000000Y-116935000D02*
X65050000Y-116935000D01*
X67000000Y-108065000D02*
X68950000Y-108065000D01*
X67000000Y-108065000D02*
X65050000Y-108065000D01*
%TO.C,R46*%
X112977500Y-85487258D02*
X112977500Y-85012742D01*
X114022500Y-85487258D02*
X114022500Y-85012742D01*
%TO.C,C44*%
X69660000Y-139288748D02*
X69660000Y-140711252D01*
X67840000Y-139288748D02*
X67840000Y-140711252D01*
%TO.C,L2*%
X65700000Y-132150000D02*
X70800000Y-132150000D01*
X65700000Y-137350000D02*
X70800000Y-137350000D01*
%TO.C,R23*%
X113252500Y-121262742D02*
X113252500Y-121737258D01*
X112207500Y-121262742D02*
X112207500Y-121737258D01*
%TO.C,C8*%
X109225000Y-89511920D02*
X109225000Y-89793080D01*
X108205000Y-89511920D02*
X108205000Y-89793080D01*
%TO.C,R61*%
X128772500Y-121262742D02*
X128772500Y-121737258D01*
X127727500Y-121262742D02*
X127727500Y-121737258D01*
%TO.C,R14*%
X82942500Y-85487258D02*
X82942500Y-85012742D01*
X83987500Y-85487258D02*
X83987500Y-85012742D01*
%TO.C,R77*%
X124022500Y-134762742D02*
X124022500Y-135237258D01*
X122977500Y-134762742D02*
X122977500Y-135237258D01*
%TO.C,C9*%
X116225000Y-89486920D02*
X116225000Y-89768080D01*
X115205000Y-89486920D02*
X115205000Y-89768080D01*
%TO.C,R55*%
X99272500Y-130762742D02*
X99272500Y-131237258D01*
X98227500Y-130762742D02*
X98227500Y-131237258D01*
%TO.C,R45*%
X114477500Y-85487258D02*
X114477500Y-85012742D01*
X115522500Y-85487258D02*
X115522500Y-85012742D01*
%TO.C,U2*%
X88275000Y-100652500D02*
X88275000Y-97202500D01*
X88275000Y-100652500D02*
X88275000Y-102602500D01*
X78155000Y-100652500D02*
X78155000Y-98702500D01*
X78155000Y-100652500D02*
X78155000Y-102602500D01*
%TO.C,D12*%
X94775000Y-80250000D02*
X94775000Y-78575000D01*
X94775000Y-80250000D02*
X94775000Y-80900000D01*
X91655000Y-80250000D02*
X91655000Y-79600000D01*
X91655000Y-80250000D02*
X91655000Y-80900000D01*
%TO.C,R5*%
X76272500Y-121262742D02*
X76272500Y-121737258D01*
X75227500Y-121262742D02*
X75227500Y-121737258D01*
%TO.C,R16*%
X89942500Y-85487258D02*
X89942500Y-85012742D01*
X90987500Y-85487258D02*
X90987500Y-85012742D01*
%TO.C,R95*%
X117937258Y-83472500D02*
X117462742Y-83472500D01*
X117937258Y-82427500D02*
X117462742Y-82427500D01*
%TO.C,C36*%
X114288748Y-138840000D02*
X115711252Y-138840000D01*
X114288748Y-140660000D02*
X115711252Y-140660000D01*
%TO.C,U22*%
X78500000Y-132535000D02*
X82100000Y-132535000D01*
X78500000Y-132535000D02*
X76300000Y-132535000D01*
X78500000Y-124465000D02*
X80700000Y-124465000D01*
X78500000Y-124465000D02*
X76300000Y-124465000D01*
%TO.C,R52*%
X133977500Y-85487258D02*
X133977500Y-85012742D01*
X135022500Y-85487258D02*
X135022500Y-85012742D01*
%TO.C,C42*%
X139410000Y-139340000D02*
X139410000Y-140762504D01*
X137590000Y-139340000D02*
X137590000Y-140762504D01*
%TO.C,R43*%
X107442500Y-85487258D02*
X107442500Y-85012742D01*
X108487500Y-85487258D02*
X108487500Y-85012742D01*
%TO.C,D8*%
X112275000Y-80250000D02*
X112275000Y-78575000D01*
X112275000Y-80250000D02*
X112275000Y-80900000D01*
X109155000Y-80250000D02*
X109155000Y-79600000D01*
X109155000Y-80250000D02*
X109155000Y-80900000D01*
%TO.C,D18*%
X136775000Y-80250000D02*
X136775000Y-78575000D01*
X136775000Y-80250000D02*
X136775000Y-80900000D01*
X133655000Y-80250000D02*
X133655000Y-79600000D01*
X133655000Y-80250000D02*
X133655000Y-80900000D01*
%TD*%
M02*
