%TF.GenerationSoftware,KiCad,Pcbnew,7.0.7*%
%TF.CreationDate,2023-10-22T18:45:22-04:00*%
%TF.ProjectId,DB25 encoder card,44423235-2065-46e6-936f-646572206361,rev?*%
%TF.SameCoordinates,Original*%
%TF.FileFunction,Legend,Bot*%
%TF.FilePolarity,Positive*%
%FSLAX46Y46*%
G04 Gerber Fmt 4.6, Leading zero omitted, Abs format (unit mm)*
G04 Created by KiCad (PCBNEW 7.0.7) date 2023-10-22 18:45:22*
%MOMM*%
%LPD*%
G01*
G04 APERTURE LIST*
%ADD10C,0.200000*%
%ADD11C,0.006250*%
%ADD12C,0.010000*%
G04 APERTURE END LIST*
D10*
%TO.C,REF\u002A\u002A*%
X72273975Y-62750000D02*
G75*
G03*
X72273975Y-62750000I-1523975J0D01*
G01*
D11*
X70020906Y-63510246D02*
X69693740Y-63510246D01*
X69693740Y-61966121D01*
X70020906Y-61966121D01*
X70020906Y-63510246D01*
G36*
X70020906Y-63510246D02*
G01*
X69693740Y-63510246D01*
X69693740Y-61966121D01*
X70020906Y-61966121D01*
X70020906Y-63510246D01*
G37*
X70666564Y-63510246D02*
X70118808Y-63510246D01*
X70118808Y-63250000D01*
X70678956Y-63250000D01*
X70666564Y-63510246D01*
G36*
X70666564Y-63510246D02*
G01*
X70118808Y-63510246D01*
X70118808Y-63250000D01*
X70678956Y-63250000D01*
X70666564Y-63510246D01*
G37*
X70558748Y-62858392D02*
X70118808Y-62858392D01*
X70118808Y-62619214D01*
X70558748Y-62619214D01*
X70558748Y-62858392D01*
G36*
X70558748Y-62858392D02*
G01*
X70118808Y-62858392D01*
X70118808Y-62619214D01*
X70558748Y-62619214D01*
X70558748Y-62858392D01*
G37*
X70678956Y-62227606D02*
X70118808Y-62227606D01*
X70118808Y-61966121D01*
X70666564Y-61966121D01*
X70678956Y-62227606D01*
G36*
X70678956Y-62227606D02*
G01*
X70118808Y-62227606D01*
X70118808Y-61966121D01*
X70666564Y-61966121D01*
X70678956Y-62227606D01*
G37*
X71343203Y-62227606D02*
X71273804Y-62227606D01*
X71269277Y-62227798D01*
X71260887Y-62228631D01*
X71253493Y-62229785D01*
X71245020Y-62231583D01*
X71235774Y-62234171D01*
X71226066Y-62237690D01*
X71216204Y-62242285D01*
X71206496Y-62248099D01*
X71197250Y-62255276D01*
X71188777Y-62263958D01*
X71184925Y-62268909D01*
X71181383Y-62274290D01*
X71178188Y-62280119D01*
X71175378Y-62286414D01*
X71172993Y-62293193D01*
X71171070Y-62300474D01*
X71169649Y-62308275D01*
X71168769Y-62316614D01*
X71168467Y-62325508D01*
X71168467Y-63152098D01*
X71168672Y-63156304D01*
X71169569Y-63164102D01*
X71170810Y-63170974D01*
X71172745Y-63178850D01*
X71175529Y-63187442D01*
X71179316Y-63196465D01*
X71184260Y-63205632D01*
X71190516Y-63214655D01*
X71198237Y-63223247D01*
X71207579Y-63231123D01*
X71212906Y-63234702D01*
X71218695Y-63237995D01*
X71224967Y-63240965D01*
X71231740Y-63243576D01*
X71239034Y-63245793D01*
X71246868Y-63247579D01*
X71255262Y-63248900D01*
X71264234Y-63249719D01*
X71273804Y-63250000D01*
X71343203Y-63250000D01*
X71343203Y-63510246D01*
X71214319Y-63510246D01*
X71213248Y-63510235D01*
X71205098Y-63509968D01*
X71198290Y-63509587D01*
X71189844Y-63508960D01*
X71179894Y-63508024D01*
X71168579Y-63506717D01*
X71156034Y-63504979D01*
X71142397Y-63502746D01*
X71127803Y-63499959D01*
X71112389Y-63496554D01*
X71096293Y-63492470D01*
X71079650Y-63487645D01*
X71062597Y-63482018D01*
X71045271Y-63475527D01*
X71027809Y-63468111D01*
X71010347Y-63459706D01*
X70993021Y-63450253D01*
X70975968Y-63439688D01*
X70959325Y-63427951D01*
X70943229Y-63414979D01*
X70927815Y-63400711D01*
X70913221Y-63385085D01*
X70899584Y-63368040D01*
X70887039Y-63349513D01*
X70875724Y-63329444D01*
X70865774Y-63307769D01*
X70857328Y-63284428D01*
X70850520Y-63259359D01*
X70845489Y-63232500D01*
X70842370Y-63203789D01*
X70841300Y-63173166D01*
X70841300Y-62303201D01*
X70841391Y-62299416D01*
X70842028Y-62288718D01*
X70842722Y-62281085D01*
X70843758Y-62272094D01*
X70845204Y-62261869D01*
X70847128Y-62250533D01*
X70849598Y-62238209D01*
X70852683Y-62225021D01*
X70856451Y-62211093D01*
X70860970Y-62196547D01*
X70866309Y-62181508D01*
X70872536Y-62166098D01*
X70879719Y-62150442D01*
X70887927Y-62134661D01*
X70897227Y-62118881D01*
X70907689Y-62103225D01*
X70919380Y-62087815D01*
X70932369Y-62072776D01*
X70946723Y-62058230D01*
X70962512Y-62044302D01*
X70979804Y-62031114D01*
X70998667Y-62018790D01*
X71019169Y-62007454D01*
X71041378Y-61997229D01*
X71065364Y-61988238D01*
X71091193Y-61980605D01*
X71118935Y-61974454D01*
X71148658Y-61969907D01*
X71180429Y-61967088D01*
X71214319Y-61966121D01*
X71343203Y-61966121D01*
X71343203Y-62227606D01*
G36*
X71343203Y-62227606D02*
G01*
X71273804Y-62227606D01*
X71269277Y-62227798D01*
X71260887Y-62228631D01*
X71253493Y-62229785D01*
X71245020Y-62231583D01*
X71235774Y-62234171D01*
X71226066Y-62237690D01*
X71216204Y-62242285D01*
X71206496Y-62248099D01*
X71197250Y-62255276D01*
X71188777Y-62263958D01*
X71184925Y-62268909D01*
X71181383Y-62274290D01*
X71178188Y-62280119D01*
X71175378Y-62286414D01*
X71172993Y-62293193D01*
X71171070Y-62300474D01*
X71169649Y-62308275D01*
X71168769Y-62316614D01*
X71168467Y-62325508D01*
X71168467Y-63152098D01*
X71168672Y-63156304D01*
X71169569Y-63164102D01*
X71170810Y-63170974D01*
X71172745Y-63178850D01*
X71175529Y-63187442D01*
X71179316Y-63196465D01*
X71184260Y-63205632D01*
X71190516Y-63214655D01*
X71198237Y-63223247D01*
X71207579Y-63231123D01*
X71212906Y-63234702D01*
X71218695Y-63237995D01*
X71224967Y-63240965D01*
X71231740Y-63243576D01*
X71239034Y-63245793D01*
X71246868Y-63247579D01*
X71255262Y-63248900D01*
X71264234Y-63249719D01*
X71273804Y-63250000D01*
X71343203Y-63250000D01*
X71343203Y-63510246D01*
X71214319Y-63510246D01*
X71213248Y-63510235D01*
X71205098Y-63509968D01*
X71198290Y-63509587D01*
X71189844Y-63508960D01*
X71179894Y-63508024D01*
X71168579Y-63506717D01*
X71156034Y-63504979D01*
X71142397Y-63502746D01*
X71127803Y-63499959D01*
X71112389Y-63496554D01*
X71096293Y-63492470D01*
X71079650Y-63487645D01*
X71062597Y-63482018D01*
X71045271Y-63475527D01*
X71027809Y-63468111D01*
X71010347Y-63459706D01*
X70993021Y-63450253D01*
X70975968Y-63439688D01*
X70959325Y-63427951D01*
X70943229Y-63414979D01*
X70927815Y-63400711D01*
X70913221Y-63385085D01*
X70899584Y-63368040D01*
X70887039Y-63349513D01*
X70875724Y-63329444D01*
X70865774Y-63307769D01*
X70857328Y-63284428D01*
X70850520Y-63259359D01*
X70845489Y-63232500D01*
X70842370Y-63203789D01*
X70841300Y-63173166D01*
X70841300Y-62303201D01*
X70841391Y-62299416D01*
X70842028Y-62288718D01*
X70842722Y-62281085D01*
X70843758Y-62272094D01*
X70845204Y-62261869D01*
X70847128Y-62250533D01*
X70849598Y-62238209D01*
X70852683Y-62225021D01*
X70856451Y-62211093D01*
X70860970Y-62196547D01*
X70866309Y-62181508D01*
X70872536Y-62166098D01*
X70879719Y-62150442D01*
X70887927Y-62134661D01*
X70897227Y-62118881D01*
X70907689Y-62103225D01*
X70919380Y-62087815D01*
X70932369Y-62072776D01*
X70946723Y-62058230D01*
X70962512Y-62044302D01*
X70979804Y-62031114D01*
X70998667Y-62018790D01*
X71019169Y-62007454D01*
X71041378Y-61997229D01*
X71065364Y-61988238D01*
X71091193Y-61980605D01*
X71118935Y-61974454D01*
X71148658Y-61969907D01*
X71180429Y-61967088D01*
X71214319Y-61966121D01*
X71343203Y-61966121D01*
X71343203Y-62227606D01*
G37*
X71573537Y-61966132D02*
X71581687Y-61966399D01*
X71588495Y-61966780D01*
X71596941Y-61967407D01*
X71606891Y-61968343D01*
X71618206Y-61969650D01*
X71630751Y-61971388D01*
X71644388Y-61973621D01*
X71658982Y-61976408D01*
X71674396Y-61979813D01*
X71690492Y-61983897D01*
X71707135Y-61988722D01*
X71724188Y-61994349D01*
X71741514Y-62000840D01*
X71758976Y-62008256D01*
X71776438Y-62016661D01*
X71793764Y-62026114D01*
X71810817Y-62036679D01*
X71827460Y-62048416D01*
X71843556Y-62061388D01*
X71858970Y-62075656D01*
X71873564Y-62091282D01*
X71887201Y-62108327D01*
X71899746Y-62126854D01*
X71911061Y-62146923D01*
X71921011Y-62168598D01*
X71929457Y-62191939D01*
X71936265Y-62217008D01*
X71941296Y-62243867D01*
X71944415Y-62272578D01*
X71945486Y-62303201D01*
X71945486Y-63173166D01*
X71945394Y-63176951D01*
X71944757Y-63187649D01*
X71944063Y-63195282D01*
X71943027Y-63204273D01*
X71941581Y-63214498D01*
X71939657Y-63225834D01*
X71937187Y-63238158D01*
X71934102Y-63251346D01*
X71930334Y-63265274D01*
X71925815Y-63279820D01*
X71920476Y-63294859D01*
X71914249Y-63310269D01*
X71907066Y-63325925D01*
X71898858Y-63341706D01*
X71889558Y-63357486D01*
X71879096Y-63373142D01*
X71867405Y-63388552D01*
X71854416Y-63403591D01*
X71840062Y-63418137D01*
X71824273Y-63432065D01*
X71806981Y-63445253D01*
X71788118Y-63457577D01*
X71767616Y-63468913D01*
X71745407Y-63479138D01*
X71721421Y-63488129D01*
X71695592Y-63495762D01*
X71667850Y-63501913D01*
X71638127Y-63506460D01*
X71606356Y-63509279D01*
X71572467Y-63510246D01*
X71439866Y-63510246D01*
X71439866Y-63250000D01*
X71512983Y-63250000D01*
X71517509Y-63249808D01*
X71525899Y-63248975D01*
X71533293Y-63247821D01*
X71541766Y-63246023D01*
X71551012Y-63243435D01*
X71560720Y-63239916D01*
X71570582Y-63235321D01*
X71580290Y-63229507D01*
X71589536Y-63222330D01*
X71598009Y-63213648D01*
X71601861Y-63208697D01*
X71605403Y-63203316D01*
X71608598Y-63197487D01*
X71611408Y-63191192D01*
X71613793Y-63184413D01*
X71615716Y-63177132D01*
X71617137Y-63169331D01*
X71618017Y-63160992D01*
X71618320Y-63152098D01*
X71618320Y-62325508D01*
X71618114Y-62321302D01*
X71617217Y-62313504D01*
X71615976Y-62306632D01*
X71614041Y-62298756D01*
X71611257Y-62290164D01*
X71607470Y-62281141D01*
X71602526Y-62271974D01*
X71596270Y-62262951D01*
X71588549Y-62254359D01*
X71579207Y-62246483D01*
X71573880Y-62242904D01*
X71568091Y-62239611D01*
X71561819Y-62236641D01*
X71555046Y-62234030D01*
X71547752Y-62231813D01*
X71539918Y-62230027D01*
X71531524Y-62228706D01*
X71522552Y-62227887D01*
X71512983Y-62227606D01*
X71439866Y-62227606D01*
X71439866Y-61966121D01*
X71572467Y-61966121D01*
X71573537Y-61966132D01*
G36*
X71573537Y-61966132D02*
G01*
X71581687Y-61966399D01*
X71588495Y-61966780D01*
X71596941Y-61967407D01*
X71606891Y-61968343D01*
X71618206Y-61969650D01*
X71630751Y-61971388D01*
X71644388Y-61973621D01*
X71658982Y-61976408D01*
X71674396Y-61979813D01*
X71690492Y-61983897D01*
X71707135Y-61988722D01*
X71724188Y-61994349D01*
X71741514Y-62000840D01*
X71758976Y-62008256D01*
X71776438Y-62016661D01*
X71793764Y-62026114D01*
X71810817Y-62036679D01*
X71827460Y-62048416D01*
X71843556Y-62061388D01*
X71858970Y-62075656D01*
X71873564Y-62091282D01*
X71887201Y-62108327D01*
X71899746Y-62126854D01*
X71911061Y-62146923D01*
X71921011Y-62168598D01*
X71929457Y-62191939D01*
X71936265Y-62217008D01*
X71941296Y-62243867D01*
X71944415Y-62272578D01*
X71945486Y-62303201D01*
X71945486Y-63173166D01*
X71945394Y-63176951D01*
X71944757Y-63187649D01*
X71944063Y-63195282D01*
X71943027Y-63204273D01*
X71941581Y-63214498D01*
X71939657Y-63225834D01*
X71937187Y-63238158D01*
X71934102Y-63251346D01*
X71930334Y-63265274D01*
X71925815Y-63279820D01*
X71920476Y-63294859D01*
X71914249Y-63310269D01*
X71907066Y-63325925D01*
X71898858Y-63341706D01*
X71889558Y-63357486D01*
X71879096Y-63373142D01*
X71867405Y-63388552D01*
X71854416Y-63403591D01*
X71840062Y-63418137D01*
X71824273Y-63432065D01*
X71806981Y-63445253D01*
X71788118Y-63457577D01*
X71767616Y-63468913D01*
X71745407Y-63479138D01*
X71721421Y-63488129D01*
X71695592Y-63495762D01*
X71667850Y-63501913D01*
X71638127Y-63506460D01*
X71606356Y-63509279D01*
X71572467Y-63510246D01*
X71439866Y-63510246D01*
X71439866Y-63250000D01*
X71512983Y-63250000D01*
X71517509Y-63249808D01*
X71525899Y-63248975D01*
X71533293Y-63247821D01*
X71541766Y-63246023D01*
X71551012Y-63243435D01*
X71560720Y-63239916D01*
X71570582Y-63235321D01*
X71580290Y-63229507D01*
X71589536Y-63222330D01*
X71598009Y-63213648D01*
X71601861Y-63208697D01*
X71605403Y-63203316D01*
X71608598Y-63197487D01*
X71611408Y-63191192D01*
X71613793Y-63184413D01*
X71615716Y-63177132D01*
X71617137Y-63169331D01*
X71618017Y-63160992D01*
X71618320Y-63152098D01*
X71618320Y-62325508D01*
X71618114Y-62321302D01*
X71617217Y-62313504D01*
X71615976Y-62306632D01*
X71614041Y-62298756D01*
X71611257Y-62290164D01*
X71607470Y-62281141D01*
X71602526Y-62271974D01*
X71596270Y-62262951D01*
X71588549Y-62254359D01*
X71579207Y-62246483D01*
X71573880Y-62242904D01*
X71568091Y-62239611D01*
X71561819Y-62236641D01*
X71555046Y-62234030D01*
X71547752Y-62231813D01*
X71539918Y-62230027D01*
X71531524Y-62228706D01*
X71522552Y-62227887D01*
X71512983Y-62227606D01*
X71439866Y-62227606D01*
X71439866Y-61966121D01*
X71572467Y-61966121D01*
X71573537Y-61966132D01*
G37*
D12*
X106801091Y-130370728D02*
X106859661Y-130395491D01*
X106861419Y-130396293D01*
X106891833Y-130412215D01*
X106912288Y-130434062D01*
X106924760Y-130472328D01*
X106931223Y-130537505D01*
X106933652Y-130640087D01*
X106934023Y-130790567D01*
X106934771Y-130886026D01*
X106942744Y-131065429D01*
X106961002Y-131196837D01*
X106991474Y-131287141D01*
X107036088Y-131343233D01*
X107096774Y-131372006D01*
X107105193Y-131374011D01*
X107218861Y-131375577D01*
X107307508Y-131324652D01*
X107368735Y-131222555D01*
X107379654Y-131193039D01*
X107404542Y-131127717D01*
X107417146Y-131097700D01*
X107443031Y-131101836D01*
X107499561Y-131124283D01*
X107552285Y-131161353D01*
X107576322Y-131231413D01*
X107569153Y-131281594D01*
X107525103Y-131383382D01*
X107453877Y-131478765D01*
X107370585Y-131544731D01*
X107335690Y-131559982D01*
X107203557Y-131585479D01*
X107063275Y-131575381D01*
X106942739Y-131530607D01*
X106892612Y-131496966D01*
X106841848Y-131448764D01*
X106805638Y-131387449D01*
X106781607Y-131303976D01*
X106767382Y-131189303D01*
X106760588Y-131034387D01*
X106758851Y-130830186D01*
X106759191Y-130724659D01*
X106760899Y-130580459D01*
X106763799Y-130465380D01*
X106767616Y-130389178D01*
X106772075Y-130361609D01*
X106801091Y-130370728D01*
G36*
X106801091Y-130370728D02*
G01*
X106859661Y-130395491D01*
X106861419Y-130396293D01*
X106891833Y-130412215D01*
X106912288Y-130434062D01*
X106924760Y-130472328D01*
X106931223Y-130537505D01*
X106933652Y-130640087D01*
X106934023Y-130790567D01*
X106934771Y-130886026D01*
X106942744Y-131065429D01*
X106961002Y-131196837D01*
X106991474Y-131287141D01*
X107036088Y-131343233D01*
X107096774Y-131372006D01*
X107105193Y-131374011D01*
X107218861Y-131375577D01*
X107307508Y-131324652D01*
X107368735Y-131222555D01*
X107379654Y-131193039D01*
X107404542Y-131127717D01*
X107417146Y-131097700D01*
X107443031Y-131101836D01*
X107499561Y-131124283D01*
X107552285Y-131161353D01*
X107576322Y-131231413D01*
X107569153Y-131281594D01*
X107525103Y-131383382D01*
X107453877Y-131478765D01*
X107370585Y-131544731D01*
X107335690Y-131559982D01*
X107203557Y-131585479D01*
X107063275Y-131575381D01*
X106942739Y-131530607D01*
X106892612Y-131496966D01*
X106841848Y-131448764D01*
X106805638Y-131387449D01*
X106781607Y-131303976D01*
X106767382Y-131189303D01*
X106760588Y-131034387D01*
X106758851Y-130830186D01*
X106759191Y-130724659D01*
X106760899Y-130580459D01*
X106763799Y-130465380D01*
X106767616Y-130389178D01*
X106772075Y-130361609D01*
X106801091Y-130370728D01*
G37*
X98861617Y-130361656D02*
X98931932Y-130388480D01*
X98984576Y-130414294D01*
X99018940Y-130447569D01*
X99038907Y-130498490D01*
X99048361Y-130577239D01*
X99051186Y-130694001D01*
X99051264Y-130858958D01*
X99051664Y-130990442D01*
X99054049Y-131116606D01*
X99059741Y-131202777D01*
X99070039Y-131259328D01*
X99086245Y-131296630D01*
X99109655Y-131325057D01*
X99167207Y-131365173D01*
X99263888Y-131380294D01*
X99359535Y-131342083D01*
X99365848Y-131337190D01*
X99385523Y-131314587D01*
X99400037Y-131278336D01*
X99410606Y-131219489D01*
X99418445Y-131129099D01*
X99424773Y-130998221D01*
X99430805Y-130817905D01*
X99445402Y-130335093D01*
X99569483Y-130390717D01*
X99693563Y-130446341D01*
X99693563Y-130887149D01*
X99693049Y-131006902D01*
X99688620Y-131173494D01*
X99677406Y-131297532D01*
X99656728Y-131389013D01*
X99623907Y-131457934D01*
X99576264Y-131514293D01*
X99511123Y-131568086D01*
X99417429Y-131622281D01*
X99269825Y-131657661D01*
X99121513Y-131642311D01*
X98985152Y-131578230D01*
X98873402Y-131467416D01*
X98850239Y-131432727D01*
X98831027Y-131393410D01*
X98817402Y-131343855D01*
X98808123Y-131274432D01*
X98801950Y-131175510D01*
X98797643Y-131037461D01*
X98793962Y-130850654D01*
X98784820Y-130332458D01*
X98861617Y-130361656D01*
G36*
X98861617Y-130361656D02*
G01*
X98931932Y-130388480D01*
X98984576Y-130414294D01*
X99018940Y-130447569D01*
X99038907Y-130498490D01*
X99048361Y-130577239D01*
X99051186Y-130694001D01*
X99051264Y-130858958D01*
X99051664Y-130990442D01*
X99054049Y-131116606D01*
X99059741Y-131202777D01*
X99070039Y-131259328D01*
X99086245Y-131296630D01*
X99109655Y-131325057D01*
X99167207Y-131365173D01*
X99263888Y-131380294D01*
X99359535Y-131342083D01*
X99365848Y-131337190D01*
X99385523Y-131314587D01*
X99400037Y-131278336D01*
X99410606Y-131219489D01*
X99418445Y-131129099D01*
X99424773Y-130998221D01*
X99430805Y-130817905D01*
X99445402Y-130335093D01*
X99569483Y-130390717D01*
X99693563Y-130446341D01*
X99693563Y-130887149D01*
X99693049Y-131006902D01*
X99688620Y-131173494D01*
X99677406Y-131297532D01*
X99656728Y-131389013D01*
X99623907Y-131457934D01*
X99576264Y-131514293D01*
X99511123Y-131568086D01*
X99417429Y-131622281D01*
X99269825Y-131657661D01*
X99121513Y-131642311D01*
X98985152Y-131578230D01*
X98873402Y-131467416D01*
X98850239Y-131432727D01*
X98831027Y-131393410D01*
X98817402Y-131343855D01*
X98808123Y-131274432D01*
X98801950Y-131175510D01*
X98797643Y-131037461D01*
X98793962Y-130850654D01*
X98784820Y-130332458D01*
X98861617Y-130361656D01*
G37*
X102617733Y-130369780D02*
X102682626Y-130394537D01*
X102697906Y-130401777D01*
X102721773Y-130418165D01*
X102738231Y-130445107D01*
X102748995Y-130492167D01*
X102755781Y-130568912D01*
X102760307Y-130684905D01*
X102764287Y-130849713D01*
X102765378Y-130897888D01*
X102769593Y-131050040D01*
X102775064Y-131156524D01*
X102783446Y-131227435D01*
X102796394Y-131272871D01*
X102815561Y-131302928D01*
X102842602Y-131327704D01*
X102922663Y-131371139D01*
X103021154Y-131379502D01*
X103109281Y-131346266D01*
X103172686Y-131277452D01*
X103197012Y-131179080D01*
X103197689Y-131152342D01*
X103210976Y-131103935D01*
X103250204Y-131096550D01*
X103327017Y-131125376D01*
X103344808Y-131134622D01*
X103392891Y-131188994D01*
X103393843Y-131269839D01*
X103348032Y-131381648D01*
X103306010Y-131442581D01*
X103198565Y-131529141D01*
X103065943Y-131578080D01*
X102924133Y-131584740D01*
X102789128Y-131544464D01*
X102779910Y-131539362D01*
X102704619Y-131480920D01*
X102637302Y-131405785D01*
X102625561Y-131388804D01*
X102603117Y-131349175D01*
X102587082Y-131302142D01*
X102576055Y-131237508D01*
X102568635Y-131145077D01*
X102563421Y-131014651D01*
X102559011Y-130836035D01*
X102558386Y-130805838D01*
X102556380Y-130610059D01*
X102559208Y-130471397D01*
X102566912Y-130388897D01*
X102579534Y-130361609D01*
X102617733Y-130369780D01*
G36*
X102617733Y-130369780D02*
G01*
X102682626Y-130394537D01*
X102697906Y-130401777D01*
X102721773Y-130418165D01*
X102738231Y-130445107D01*
X102748995Y-130492167D01*
X102755781Y-130568912D01*
X102760307Y-130684905D01*
X102764287Y-130849713D01*
X102765378Y-130897888D01*
X102769593Y-131050040D01*
X102775064Y-131156524D01*
X102783446Y-131227435D01*
X102796394Y-131272871D01*
X102815561Y-131302928D01*
X102842602Y-131327704D01*
X102922663Y-131371139D01*
X103021154Y-131379502D01*
X103109281Y-131346266D01*
X103172686Y-131277452D01*
X103197012Y-131179080D01*
X103197689Y-131152342D01*
X103210976Y-131103935D01*
X103250204Y-131096550D01*
X103327017Y-131125376D01*
X103344808Y-131134622D01*
X103392891Y-131188994D01*
X103393843Y-131269839D01*
X103348032Y-131381648D01*
X103306010Y-131442581D01*
X103198565Y-131529141D01*
X103065943Y-131578080D01*
X102924133Y-131584740D01*
X102789128Y-131544464D01*
X102779910Y-131539362D01*
X102704619Y-131480920D01*
X102637302Y-131405785D01*
X102625561Y-131388804D01*
X102603117Y-131349175D01*
X102587082Y-131302142D01*
X102576055Y-131237508D01*
X102568635Y-131145077D01*
X102563421Y-131014651D01*
X102559011Y-130836035D01*
X102558386Y-130805838D01*
X102556380Y-130610059D01*
X102559208Y-130471397D01*
X102566912Y-130388897D01*
X102579534Y-130361609D01*
X102617733Y-130369780D01*
G37*
X104887850Y-130374066D02*
X104923571Y-130378506D01*
X105015699Y-130387898D01*
X105080115Y-130391639D01*
X105099222Y-130391067D01*
X105177610Y-130384874D01*
X105272380Y-130374066D01*
X105302702Y-130370353D01*
X105379089Y-130368893D01*
X105434978Y-130391953D01*
X105498645Y-130448883D01*
X105591035Y-130541273D01*
X105591035Y-131064545D01*
X105590315Y-131219179D01*
X105588071Y-131366609D01*
X105584579Y-131483347D01*
X105580124Y-131560160D01*
X105574987Y-131587816D01*
X105573910Y-131587742D01*
X105536593Y-131573981D01*
X105473543Y-131543656D01*
X105388146Y-131499495D01*
X105380107Y-131040035D01*
X105372069Y-130580575D01*
X105196897Y-130580575D01*
X105188908Y-131084195D01*
X105186376Y-131221096D01*
X105182751Y-131367421D01*
X105178823Y-131483589D01*
X105174920Y-131560191D01*
X105171368Y-131587816D01*
X105170347Y-131587719D01*
X105134949Y-131577557D01*
X105069874Y-131555765D01*
X104977931Y-131523713D01*
X104977484Y-131081339D01*
X104977036Y-131004493D01*
X104973931Y-130855166D01*
X104968378Y-130730456D01*
X104960967Y-130641621D01*
X104952286Y-130599917D01*
X104921229Y-130577611D01*
X104857848Y-130570722D01*
X104788161Y-130580575D01*
X104780173Y-131084195D01*
X104777314Y-131212172D01*
X104771386Y-131363652D01*
X104763635Y-131482470D01*
X104754657Y-131560050D01*
X104745052Y-131587816D01*
X104707590Y-131579030D01*
X104643558Y-131553934D01*
X104569195Y-131520053D01*
X104569195Y-130541273D01*
X104661585Y-130448883D01*
X104682690Y-130428165D01*
X104741153Y-130382115D01*
X104800114Y-130367199D01*
X104887850Y-130374066D01*
G36*
X104887850Y-130374066D02*
G01*
X104923571Y-130378506D01*
X105015699Y-130387898D01*
X105080115Y-130391639D01*
X105099222Y-130391067D01*
X105177610Y-130384874D01*
X105272380Y-130374066D01*
X105302702Y-130370353D01*
X105379089Y-130368893D01*
X105434978Y-130391953D01*
X105498645Y-130448883D01*
X105591035Y-130541273D01*
X105591035Y-131064545D01*
X105590315Y-131219179D01*
X105588071Y-131366609D01*
X105584579Y-131483347D01*
X105580124Y-131560160D01*
X105574987Y-131587816D01*
X105573910Y-131587742D01*
X105536593Y-131573981D01*
X105473543Y-131543656D01*
X105388146Y-131499495D01*
X105380107Y-131040035D01*
X105372069Y-130580575D01*
X105196897Y-130580575D01*
X105188908Y-131084195D01*
X105186376Y-131221096D01*
X105182751Y-131367421D01*
X105178823Y-131483589D01*
X105174920Y-131560191D01*
X105171368Y-131587816D01*
X105170347Y-131587719D01*
X105134949Y-131577557D01*
X105069874Y-131555765D01*
X104977931Y-131523713D01*
X104977484Y-131081339D01*
X104977036Y-131004493D01*
X104973931Y-130855166D01*
X104968378Y-130730456D01*
X104960967Y-130641621D01*
X104952286Y-130599917D01*
X104921229Y-130577611D01*
X104857848Y-130570722D01*
X104788161Y-130580575D01*
X104780173Y-131084195D01*
X104777314Y-131212172D01*
X104771386Y-131363652D01*
X104763635Y-131482470D01*
X104754657Y-131560050D01*
X104745052Y-131587816D01*
X104707590Y-131579030D01*
X104643558Y-131553934D01*
X104569195Y-131520053D01*
X104569195Y-130541273D01*
X104661585Y-130448883D01*
X104682690Y-130428165D01*
X104741153Y-130382115D01*
X104800114Y-130367199D01*
X104887850Y-130374066D01*
G37*
X101193824Y-130361703D02*
X101229652Y-130371856D01*
X101294954Y-130393661D01*
X101386897Y-130425712D01*
X101386851Y-130838891D01*
X101386782Y-130875674D01*
X101382919Y-131067420D01*
X101371050Y-131212414D01*
X101348275Y-131320490D01*
X101311693Y-131401481D01*
X101258405Y-131465222D01*
X101185510Y-131521545D01*
X101114414Y-131556801D01*
X101000745Y-131584054D01*
X100888940Y-131585602D01*
X100802989Y-131559090D01*
X100796527Y-131555429D01*
X100776599Y-131555821D01*
X100762981Y-131586494D01*
X100753154Y-131656812D01*
X100744598Y-131776143D01*
X100730000Y-132021027D01*
X100635115Y-131981003D01*
X100540230Y-131940980D01*
X100540230Y-131151294D01*
X100540231Y-131142080D01*
X100540623Y-130934917D01*
X100541671Y-130748568D01*
X100543278Y-130590547D01*
X100545345Y-130468370D01*
X100547775Y-130389552D01*
X100550471Y-130361609D01*
X100551525Y-130361703D01*
X100587353Y-130371856D01*
X100652655Y-130393661D01*
X100744598Y-130425712D01*
X100744598Y-130837009D01*
X100745182Y-130998615D01*
X100747896Y-131115823D01*
X100754142Y-131195585D01*
X100765320Y-131248469D01*
X100782832Y-131285043D01*
X100808078Y-131315877D01*
X100825290Y-131332275D01*
X100918364Y-131377693D01*
X101020949Y-131373672D01*
X101114957Y-131319968D01*
X101128642Y-131306641D01*
X101150561Y-131278968D01*
X101165560Y-131242386D01*
X101174947Y-131187000D01*
X101180032Y-131102912D01*
X101182123Y-130980227D01*
X101182529Y-130809049D01*
X101182724Y-130722231D01*
X101183990Y-130579435D01*
X101186239Y-130465077D01*
X101189242Y-130389140D01*
X101192770Y-130361609D01*
X101193824Y-130361703D01*
G36*
X101193824Y-130361703D02*
G01*
X101229652Y-130371856D01*
X101294954Y-130393661D01*
X101386897Y-130425712D01*
X101386851Y-130838891D01*
X101386782Y-130875674D01*
X101382919Y-131067420D01*
X101371050Y-131212414D01*
X101348275Y-131320490D01*
X101311693Y-131401481D01*
X101258405Y-131465222D01*
X101185510Y-131521545D01*
X101114414Y-131556801D01*
X101000745Y-131584054D01*
X100888940Y-131585602D01*
X100802989Y-131559090D01*
X100796527Y-131555429D01*
X100776599Y-131555821D01*
X100762981Y-131586494D01*
X100753154Y-131656812D01*
X100744598Y-131776143D01*
X100730000Y-132021027D01*
X100635115Y-131981003D01*
X100540230Y-131940980D01*
X100540230Y-131151294D01*
X100540231Y-131142080D01*
X100540623Y-130934917D01*
X100541671Y-130748568D01*
X100543278Y-130590547D01*
X100545345Y-130468370D01*
X100547775Y-130389552D01*
X100550471Y-130361609D01*
X100551525Y-130361703D01*
X100587353Y-130371856D01*
X100652655Y-130393661D01*
X100744598Y-130425712D01*
X100744598Y-130837009D01*
X100745182Y-130998615D01*
X100747896Y-131115823D01*
X100754142Y-131195585D01*
X100765320Y-131248469D01*
X100782832Y-131285043D01*
X100808078Y-131315877D01*
X100825290Y-131332275D01*
X100918364Y-131377693D01*
X101020949Y-131373672D01*
X101114957Y-131319968D01*
X101128642Y-131306641D01*
X101150561Y-131278968D01*
X101165560Y-131242386D01*
X101174947Y-131187000D01*
X101180032Y-131102912D01*
X101182123Y-130980227D01*
X101182529Y-130809049D01*
X101182724Y-130722231D01*
X101183990Y-130579435D01*
X101186239Y-130465077D01*
X101189242Y-130389140D01*
X101192770Y-130361609D01*
X101193824Y-130361703D01*
G37*
X96023387Y-130381683D02*
X96167382Y-130453751D01*
X96288615Y-130574078D01*
X96298850Y-130590197D01*
X96332153Y-130683795D01*
X96354595Y-130814121D01*
X96365484Y-130964629D01*
X96364129Y-131118773D01*
X96349839Y-131260008D01*
X96321925Y-131371787D01*
X96286051Y-131446234D01*
X96185061Y-131562032D01*
X96048221Y-131633985D01*
X95880717Y-131658719D01*
X95835981Y-131657381D01*
X95704242Y-131629992D01*
X95596032Y-131560993D01*
X95496724Y-131442136D01*
X95490816Y-131433319D01*
X95464079Y-131385892D01*
X95446688Y-131332286D01*
X95436688Y-131259451D01*
X95432122Y-131154341D01*
X95431107Y-131013981D01*
X95722989Y-131013981D01*
X95725899Y-131138778D01*
X95740418Y-131257674D01*
X95770390Y-131332816D01*
X95819411Y-131372107D01*
X95891076Y-131383448D01*
X95918368Y-131381193D01*
X95994824Y-131339840D01*
X96045350Y-131247100D01*
X96069616Y-131103853D01*
X96067294Y-130910980D01*
X96066361Y-130898567D01*
X96052758Y-130792143D01*
X96028535Y-130724654D01*
X95987635Y-130678416D01*
X95919059Y-130635105D01*
X95851236Y-130632828D01*
X95781379Y-130682759D01*
X95769229Y-130695898D01*
X95745425Y-130735215D01*
X95731372Y-130792326D01*
X95724687Y-130880744D01*
X95722989Y-131013981D01*
X95431107Y-131013981D01*
X95431035Y-131003908D01*
X95431062Y-130972256D01*
X95432645Y-130831082D01*
X95438084Y-130732715D01*
X95449357Y-130664010D01*
X95468439Y-130611819D01*
X95497306Y-130562996D01*
X95504408Y-130552865D01*
X95579556Y-130472988D01*
X95665180Y-130412747D01*
X95709148Y-130393198D01*
X95867139Y-130360592D01*
X96023387Y-130381683D01*
G36*
X96023387Y-130381683D02*
G01*
X96167382Y-130453751D01*
X96288615Y-130574078D01*
X96298850Y-130590197D01*
X96332153Y-130683795D01*
X96354595Y-130814121D01*
X96365484Y-130964629D01*
X96364129Y-131118773D01*
X96349839Y-131260008D01*
X96321925Y-131371787D01*
X96286051Y-131446234D01*
X96185061Y-131562032D01*
X96048221Y-131633985D01*
X95880717Y-131658719D01*
X95835981Y-131657381D01*
X95704242Y-131629992D01*
X95596032Y-131560993D01*
X95496724Y-131442136D01*
X95490816Y-131433319D01*
X95464079Y-131385892D01*
X95446688Y-131332286D01*
X95436688Y-131259451D01*
X95432122Y-131154341D01*
X95431107Y-131013981D01*
X95722989Y-131013981D01*
X95725899Y-131138778D01*
X95740418Y-131257674D01*
X95770390Y-131332816D01*
X95819411Y-131372107D01*
X95891076Y-131383448D01*
X95918368Y-131381193D01*
X95994824Y-131339840D01*
X96045350Y-131247100D01*
X96069616Y-131103853D01*
X96067294Y-130910980D01*
X96066361Y-130898567D01*
X96052758Y-130792143D01*
X96028535Y-130724654D01*
X95987635Y-130678416D01*
X95919059Y-130635105D01*
X95851236Y-130632828D01*
X95781379Y-130682759D01*
X95769229Y-130695898D01*
X95745425Y-130735215D01*
X95731372Y-130792326D01*
X95724687Y-130880744D01*
X95722989Y-131013981D01*
X95431107Y-131013981D01*
X95431035Y-131003908D01*
X95431062Y-130972256D01*
X95432645Y-130831082D01*
X95438084Y-130732715D01*
X95449357Y-130664010D01*
X95468439Y-130611819D01*
X95497306Y-130562996D01*
X95504408Y-130552865D01*
X95579556Y-130472988D01*
X95665180Y-130412747D01*
X95709148Y-130393198D01*
X95867139Y-130360592D01*
X96023387Y-130381683D01*
G37*
X108188030Y-130370226D02*
X108250950Y-130376155D01*
X108326847Y-130394258D01*
X108387513Y-130433609D01*
X108458088Y-130506934D01*
X108467518Y-130517644D01*
X108530966Y-130600062D01*
X108561238Y-130671844D01*
X108568966Y-130756966D01*
X108568966Y-130882054D01*
X108481553Y-130849060D01*
X108417825Y-130810491D01*
X108362433Y-130719992D01*
X108350869Y-130691017D01*
X108286212Y-130608959D01*
X108198196Y-130567653D01*
X108102363Y-130571367D01*
X108014253Y-130624368D01*
X107983972Y-130657418D01*
X107956511Y-130707280D01*
X107965101Y-130752584D01*
X108014537Y-130799210D01*
X108109611Y-130853042D01*
X108255115Y-130919961D01*
X108554368Y-131050944D01*
X108562309Y-131180702D01*
X108558804Y-131277745D01*
X108514664Y-131400383D01*
X108458950Y-131467966D01*
X108343439Y-131543460D01*
X108206412Y-131581597D01*
X108064763Y-131578578D01*
X107935383Y-131530607D01*
X107906901Y-131512187D01*
X107841572Y-131455189D01*
X107796894Y-131383084D01*
X107769359Y-131285147D01*
X107755459Y-131150649D01*
X107753622Y-131062147D01*
X107929899Y-131062147D01*
X107937188Y-131142586D01*
X107955548Y-131221247D01*
X108012812Y-131320349D01*
X108095476Y-131376192D01*
X108194216Y-131383750D01*
X108299711Y-131338000D01*
X108328947Y-131315124D01*
X108364348Y-131263351D01*
X108349547Y-131212185D01*
X108282203Y-131157558D01*
X108159973Y-131095403D01*
X108139747Y-131086399D01*
X108043030Y-131044507D01*
X107970666Y-131015042D01*
X107937039Y-131003908D01*
X107931944Y-131012104D01*
X107929899Y-131062147D01*
X107753622Y-131062147D01*
X107751687Y-130968864D01*
X107752256Y-130891054D01*
X107759388Y-130737746D01*
X107778052Y-130625559D01*
X107812463Y-130542446D01*
X107866838Y-130476359D01*
X107945390Y-130415253D01*
X107995370Y-130387465D01*
X108075487Y-130368749D01*
X108188030Y-130370226D01*
G36*
X108188030Y-130370226D02*
G01*
X108250950Y-130376155D01*
X108326847Y-130394258D01*
X108387513Y-130433609D01*
X108458088Y-130506934D01*
X108467518Y-130517644D01*
X108530966Y-130600062D01*
X108561238Y-130671844D01*
X108568966Y-130756966D01*
X108568966Y-130882054D01*
X108481553Y-130849060D01*
X108417825Y-130810491D01*
X108362433Y-130719992D01*
X108350869Y-130691017D01*
X108286212Y-130608959D01*
X108198196Y-130567653D01*
X108102363Y-130571367D01*
X108014253Y-130624368D01*
X107983972Y-130657418D01*
X107956511Y-130707280D01*
X107965101Y-130752584D01*
X108014537Y-130799210D01*
X108109611Y-130853042D01*
X108255115Y-130919961D01*
X108554368Y-131050944D01*
X108562309Y-131180702D01*
X108558804Y-131277745D01*
X108514664Y-131400383D01*
X108458950Y-131467966D01*
X108343439Y-131543460D01*
X108206412Y-131581597D01*
X108064763Y-131578578D01*
X107935383Y-131530607D01*
X107906901Y-131512187D01*
X107841572Y-131455189D01*
X107796894Y-131383084D01*
X107769359Y-131285147D01*
X107755459Y-131150649D01*
X107753622Y-131062147D01*
X107929899Y-131062147D01*
X107937188Y-131142586D01*
X107955548Y-131221247D01*
X108012812Y-131320349D01*
X108095476Y-131376192D01*
X108194216Y-131383750D01*
X108299711Y-131338000D01*
X108328947Y-131315124D01*
X108364348Y-131263351D01*
X108349547Y-131212185D01*
X108282203Y-131157558D01*
X108159973Y-131095403D01*
X108139747Y-131086399D01*
X108043030Y-131044507D01*
X107970666Y-131015042D01*
X107937039Y-131003908D01*
X107931944Y-131012104D01*
X107929899Y-131062147D01*
X107753622Y-131062147D01*
X107751687Y-130968864D01*
X107752256Y-130891054D01*
X107759388Y-130737746D01*
X107778052Y-130625559D01*
X107812463Y-130542446D01*
X107866838Y-130476359D01*
X107945390Y-130415253D01*
X107995370Y-130387465D01*
X108075487Y-130368749D01*
X108188030Y-130370226D01*
G37*
X104110588Y-130388035D02*
X104236490Y-130459306D01*
X104335790Y-130573009D01*
X104347781Y-130593976D01*
X104363616Y-130630709D01*
X104375362Y-130677585D01*
X104383622Y-130742645D01*
X104389002Y-130833930D01*
X104392108Y-130959481D01*
X104393543Y-131127339D01*
X104393914Y-131345545D01*
X104394023Y-132022928D01*
X104299138Y-131983181D01*
X104274051Y-131972301D01*
X104234119Y-131947732D01*
X104211261Y-131910525D01*
X104198699Y-131845459D01*
X104189655Y-131737313D01*
X104181395Y-131640212D01*
X104170477Y-131576465D01*
X104154835Y-131552677D01*
X104131264Y-131559057D01*
X104071199Y-131581475D01*
X103963855Y-131587033D01*
X103848376Y-131566272D01*
X103748743Y-131521545D01*
X103693928Y-131480144D01*
X103623548Y-131399368D01*
X103578472Y-131295805D01*
X103554504Y-131158053D01*
X103547761Y-130982894D01*
X103751724Y-130982894D01*
X103752339Y-131082513D01*
X103756593Y-131179749D01*
X103767318Y-131242498D01*
X103787293Y-131284618D01*
X103819296Y-131319968D01*
X103838095Y-131335886D01*
X103935508Y-131378765D01*
X104037563Y-131372015D01*
X104126175Y-131315877D01*
X104145251Y-131293618D01*
X104168514Y-131251707D01*
X104181964Y-131193178D01*
X104188159Y-131104120D01*
X104189655Y-130970621D01*
X104188965Y-130864356D01*
X104184600Y-130768238D01*
X104173808Y-130706189D01*
X104153874Y-130664498D01*
X104122084Y-130629457D01*
X104114636Y-130622721D01*
X104018940Y-130573008D01*
X103917688Y-130578095D01*
X103823386Y-130637638D01*
X103795306Y-130668486D01*
X103771804Y-130709382D01*
X103758678Y-130765920D01*
X103752970Y-130852343D01*
X103751724Y-130982894D01*
X103547761Y-130982894D01*
X103547447Y-130974713D01*
X103549781Y-130860865D01*
X103566261Y-130705680D01*
X103602117Y-130589388D01*
X103661545Y-130500589D01*
X103748743Y-130427881D01*
X103831805Y-130385850D01*
X103971291Y-130362462D01*
X104110588Y-130388035D01*
G36*
X104110588Y-130388035D02*
G01*
X104236490Y-130459306D01*
X104335790Y-130573009D01*
X104347781Y-130593976D01*
X104363616Y-130630709D01*
X104375362Y-130677585D01*
X104383622Y-130742645D01*
X104389002Y-130833930D01*
X104392108Y-130959481D01*
X104393543Y-131127339D01*
X104393914Y-131345545D01*
X104394023Y-132022928D01*
X104299138Y-131983181D01*
X104274051Y-131972301D01*
X104234119Y-131947732D01*
X104211261Y-131910525D01*
X104198699Y-131845459D01*
X104189655Y-131737313D01*
X104181395Y-131640212D01*
X104170477Y-131576465D01*
X104154835Y-131552677D01*
X104131264Y-131559057D01*
X104071199Y-131581475D01*
X103963855Y-131587033D01*
X103848376Y-131566272D01*
X103748743Y-131521545D01*
X103693928Y-131480144D01*
X103623548Y-131399368D01*
X103578472Y-131295805D01*
X103554504Y-131158053D01*
X103547761Y-130982894D01*
X103751724Y-130982894D01*
X103752339Y-131082513D01*
X103756593Y-131179749D01*
X103767318Y-131242498D01*
X103787293Y-131284618D01*
X103819296Y-131319968D01*
X103838095Y-131335886D01*
X103935508Y-131378765D01*
X104037563Y-131372015D01*
X104126175Y-131315877D01*
X104145251Y-131293618D01*
X104168514Y-131251707D01*
X104181964Y-131193178D01*
X104188159Y-131104120D01*
X104189655Y-130970621D01*
X104188965Y-130864356D01*
X104184600Y-130768238D01*
X104173808Y-130706189D01*
X104153874Y-130664498D01*
X104122084Y-130629457D01*
X104114636Y-130622721D01*
X104018940Y-130573008D01*
X103917688Y-130578095D01*
X103823386Y-130637638D01*
X103795306Y-130668486D01*
X103771804Y-130709382D01*
X103758678Y-130765920D01*
X103752970Y-130852343D01*
X103751724Y-130982894D01*
X103547761Y-130982894D01*
X103547447Y-130974713D01*
X103549781Y-130860865D01*
X103566261Y-130705680D01*
X103602117Y-130589388D01*
X103661545Y-130500589D01*
X103748743Y-130427881D01*
X103831805Y-130385850D01*
X103971291Y-130362462D01*
X104110588Y-130388035D01*
G37*
X98304304Y-130404689D02*
X98425181Y-130493266D01*
X98518448Y-130623491D01*
X98520014Y-130626631D01*
X98551007Y-130707499D01*
X98573708Y-130799407D01*
X98585750Y-130885689D01*
X98584763Y-130949679D01*
X98568377Y-130974713D01*
X98553821Y-130973191D01*
X98484208Y-130945504D01*
X98405303Y-130894591D01*
X98338180Y-130835657D01*
X98303913Y-130783906D01*
X98268293Y-130713709D01*
X98195289Y-130649862D01*
X98110515Y-130624368D01*
X98079442Y-130631739D01*
X98018109Y-130668846D01*
X97964685Y-130720356D01*
X97941839Y-130767087D01*
X97941846Y-130767260D01*
X97967767Y-130788720D01*
X98036873Y-130827435D01*
X98138751Y-130877963D01*
X98262989Y-130934866D01*
X98263672Y-130935167D01*
X98398645Y-130995262D01*
X98489116Y-131038560D01*
X98543961Y-131071821D01*
X98572056Y-131101806D01*
X98582276Y-131135274D01*
X98583497Y-131178985D01*
X98572749Y-131283735D01*
X98519611Y-131426051D01*
X98430658Y-131537889D01*
X98315552Y-131615324D01*
X98183955Y-131654432D01*
X98045528Y-131651289D01*
X97909935Y-131601970D01*
X97786836Y-131502553D01*
X97718634Y-131404171D01*
X97669644Y-131263739D01*
X97661678Y-131189876D01*
X97941839Y-131189876D01*
X97956965Y-131269999D01*
X98009403Y-131342811D01*
X98085323Y-131380561D01*
X98169960Y-131376749D01*
X98248553Y-131324879D01*
X98279445Y-131289035D01*
X98286781Y-131261756D01*
X98257030Y-131235735D01*
X98182899Y-131196744D01*
X98180726Y-131195641D01*
X98093267Y-131153991D01*
X98015026Y-131120765D01*
X97965389Y-131106709D01*
X97945479Y-131125497D01*
X97941839Y-131189876D01*
X97661678Y-131189876D01*
X97650548Y-131086671D01*
X97659832Y-130865361D01*
X97665074Y-130818474D01*
X97704132Y-130651591D01*
X97774710Y-130524674D01*
X97882045Y-130427398D01*
X97888112Y-130423384D01*
X98024560Y-130366294D01*
X98167027Y-130361214D01*
X98304304Y-130404689D01*
G36*
X98304304Y-130404689D02*
G01*
X98425181Y-130493266D01*
X98518448Y-130623491D01*
X98520014Y-130626631D01*
X98551007Y-130707499D01*
X98573708Y-130799407D01*
X98585750Y-130885689D01*
X98584763Y-130949679D01*
X98568377Y-130974713D01*
X98553821Y-130973191D01*
X98484208Y-130945504D01*
X98405303Y-130894591D01*
X98338180Y-130835657D01*
X98303913Y-130783906D01*
X98268293Y-130713709D01*
X98195289Y-130649862D01*
X98110515Y-130624368D01*
X98079442Y-130631739D01*
X98018109Y-130668846D01*
X97964685Y-130720356D01*
X97941839Y-130767087D01*
X97941846Y-130767260D01*
X97967767Y-130788720D01*
X98036873Y-130827435D01*
X98138751Y-130877963D01*
X98262989Y-130934866D01*
X98263672Y-130935167D01*
X98398645Y-130995262D01*
X98489116Y-131038560D01*
X98543961Y-131071821D01*
X98572056Y-131101806D01*
X98582276Y-131135274D01*
X98583497Y-131178985D01*
X98572749Y-131283735D01*
X98519611Y-131426051D01*
X98430658Y-131537889D01*
X98315552Y-131615324D01*
X98183955Y-131654432D01*
X98045528Y-131651289D01*
X97909935Y-131601970D01*
X97786836Y-131502553D01*
X97718634Y-131404171D01*
X97669644Y-131263739D01*
X97661678Y-131189876D01*
X97941839Y-131189876D01*
X97956965Y-131269999D01*
X98009403Y-131342811D01*
X98085323Y-131380561D01*
X98169960Y-131376749D01*
X98248553Y-131324879D01*
X98279445Y-131289035D01*
X98286781Y-131261756D01*
X98257030Y-131235735D01*
X98182899Y-131196744D01*
X98180726Y-131195641D01*
X98093267Y-131153991D01*
X98015026Y-131120765D01*
X97965389Y-131106709D01*
X97945479Y-131125497D01*
X97941839Y-131189876D01*
X97661678Y-131189876D01*
X97650548Y-131086671D01*
X97659832Y-130865361D01*
X97665074Y-130818474D01*
X97704132Y-130651591D01*
X97774710Y-130524674D01*
X97882045Y-130427398D01*
X97888112Y-130423384D01*
X98024560Y-130366294D01*
X98167027Y-130361214D01*
X98304304Y-130404689D01*
G37*
X102222210Y-130361794D02*
X102261018Y-130376502D01*
X102325291Y-130407544D01*
X102414120Y-130453479D01*
X102403564Y-130867372D01*
X102402829Y-130894821D01*
X102394445Y-131087483D01*
X102379634Y-131232691D01*
X102355371Y-131340113D01*
X102318636Y-131419416D01*
X102266403Y-131480270D01*
X102195652Y-131532342D01*
X102194343Y-131533158D01*
X102079944Y-131575640D01*
X101947635Y-131582816D01*
X101820005Y-131556326D01*
X101719645Y-131497809D01*
X101675495Y-131452216D01*
X101590653Y-131315928D01*
X101562069Y-131167342D01*
X101562069Y-131065118D01*
X101656037Y-131104628D01*
X101721023Y-131144496D01*
X101772237Y-131227266D01*
X101777496Y-131244331D01*
X101834097Y-131331276D01*
X101919406Y-131378242D01*
X102017359Y-131380259D01*
X102111894Y-131332356D01*
X102126007Y-131320002D01*
X102173203Y-131266317D01*
X102180997Y-131219512D01*
X102145294Y-131173554D01*
X102061997Y-131122412D01*
X101927012Y-131060052D01*
X101917882Y-131056103D01*
X101768031Y-130986228D01*
X101665684Y-130924328D01*
X101602680Y-130862524D01*
X101570862Y-130792938D01*
X101562069Y-130707692D01*
X101573591Y-130613184D01*
X101631772Y-130492215D01*
X101734125Y-130405312D01*
X101808157Y-130379222D01*
X101912633Y-130364945D01*
X102014083Y-130367994D01*
X102086528Y-130389533D01*
X102094223Y-130394896D01*
X102114659Y-130432368D01*
X102100478Y-130498409D01*
X102075839Y-130550247D01*
X102036330Y-130571828D01*
X101961398Y-130570754D01*
X101857370Y-130576945D01*
X101789395Y-130619689D01*
X101766437Y-130698811D01*
X101766458Y-130701084D01*
X101780371Y-130747014D01*
X101827697Y-130789155D01*
X101919713Y-130837728D01*
X102044849Y-130896210D01*
X102127732Y-130928025D01*
X102175580Y-130925975D01*
X102197937Y-130883949D01*
X102204351Y-130795838D01*
X102204368Y-130655531D01*
X102205083Y-130568919D01*
X102208365Y-130461959D01*
X102213700Y-130388750D01*
X102220415Y-130361609D01*
X102222210Y-130361794D01*
G36*
X102222210Y-130361794D02*
G01*
X102261018Y-130376502D01*
X102325291Y-130407544D01*
X102414120Y-130453479D01*
X102403564Y-130867372D01*
X102402829Y-130894821D01*
X102394445Y-131087483D01*
X102379634Y-131232691D01*
X102355371Y-131340113D01*
X102318636Y-131419416D01*
X102266403Y-131480270D01*
X102195652Y-131532342D01*
X102194343Y-131533158D01*
X102079944Y-131575640D01*
X101947635Y-131582816D01*
X101820005Y-131556326D01*
X101719645Y-131497809D01*
X101675495Y-131452216D01*
X101590653Y-131315928D01*
X101562069Y-131167342D01*
X101562069Y-131065118D01*
X101656037Y-131104628D01*
X101721023Y-131144496D01*
X101772237Y-131227266D01*
X101777496Y-131244331D01*
X101834097Y-131331276D01*
X101919406Y-131378242D01*
X102017359Y-131380259D01*
X102111894Y-131332356D01*
X102126007Y-131320002D01*
X102173203Y-131266317D01*
X102180997Y-131219512D01*
X102145294Y-131173554D01*
X102061997Y-131122412D01*
X101927012Y-131060052D01*
X101917882Y-131056103D01*
X101768031Y-130986228D01*
X101665684Y-130924328D01*
X101602680Y-130862524D01*
X101570862Y-130792938D01*
X101562069Y-130707692D01*
X101573591Y-130613184D01*
X101631772Y-130492215D01*
X101734125Y-130405312D01*
X101808157Y-130379222D01*
X101912633Y-130364945D01*
X102014083Y-130367994D01*
X102086528Y-130389533D01*
X102094223Y-130394896D01*
X102114659Y-130432368D01*
X102100478Y-130498409D01*
X102075839Y-130550247D01*
X102036330Y-130571828D01*
X101961398Y-130570754D01*
X101857370Y-130576945D01*
X101789395Y-130619689D01*
X101766437Y-130698811D01*
X101766458Y-130701084D01*
X101780371Y-130747014D01*
X101827697Y-130789155D01*
X101919713Y-130837728D01*
X102044849Y-130896210D01*
X102127732Y-130928025D01*
X102175580Y-130925975D01*
X102197937Y-130883949D01*
X102204351Y-130795838D01*
X102204368Y-130655531D01*
X102205083Y-130568919D01*
X102208365Y-130461959D01*
X102213700Y-130388750D01*
X102220415Y-130361609D01*
X102222210Y-130361794D01*
G37*
X96626044Y-129927328D02*
X96671077Y-129944961D01*
X96729239Y-129972879D01*
X96741668Y-129978836D01*
X96793422Y-130007994D01*
X96820450Y-130042686D01*
X96830793Y-130100530D01*
X96832491Y-130199143D01*
X96832567Y-130376207D01*
X97014962Y-130376207D01*
X97127160Y-130381120D01*
X97215380Y-130401047D01*
X97288642Y-130441322D01*
X97294104Y-130445259D01*
X97368442Y-130511757D01*
X97420177Y-130592092D01*
X97452804Y-130697242D01*
X97469818Y-130838185D01*
X97474713Y-131025899D01*
X97473629Y-131162878D01*
X97468693Y-131266636D01*
X97457728Y-131338588D01*
X97438562Y-131392500D01*
X97409023Y-131442136D01*
X97381908Y-131480069D01*
X97283450Y-131582478D01*
X97171900Y-131638097D01*
X97031754Y-131655703D01*
X96871365Y-131638153D01*
X96732712Y-131575203D01*
X96623049Y-131464176D01*
X96614782Y-131452422D01*
X96595501Y-131421187D01*
X96580731Y-131385493D01*
X96569746Y-131337636D01*
X96561826Y-131269913D01*
X96556247Y-131174618D01*
X96552287Y-131044048D01*
X96551812Y-131017179D01*
X96832414Y-131017179D01*
X96833780Y-131092555D01*
X96848598Y-131229638D01*
X96882421Y-131319452D01*
X96938611Y-131368540D01*
X97020528Y-131383448D01*
X97055044Y-131380271D01*
X97114765Y-131348746D01*
X97154248Y-131278495D01*
X97176058Y-131163417D01*
X97182759Y-130997412D01*
X97182709Y-130970724D01*
X97179936Y-130850262D01*
X97171033Y-130771516D01*
X97153383Y-130720382D01*
X97124368Y-130682759D01*
X97122560Y-130680962D01*
X97051247Y-130632280D01*
X96982135Y-130637079D01*
X96904075Y-130696029D01*
X96884981Y-130716177D01*
X96856858Y-130757485D01*
X96841000Y-130811213D01*
X96833991Y-130892674D01*
X96832414Y-131017179D01*
X96551812Y-131017179D01*
X96549222Y-130870498D01*
X96546332Y-130646264D01*
X96545529Y-130581215D01*
X96542960Y-130363740D01*
X96542444Y-130197328D01*
X96545563Y-130076154D01*
X96553900Y-129994393D01*
X96569038Y-129946219D01*
X96592559Y-129925806D01*
X96626044Y-129927328D01*
G36*
X96626044Y-129927328D02*
G01*
X96671077Y-129944961D01*
X96729239Y-129972879D01*
X96741668Y-129978836D01*
X96793422Y-130007994D01*
X96820450Y-130042686D01*
X96830793Y-130100530D01*
X96832491Y-130199143D01*
X96832567Y-130376207D01*
X97014962Y-130376207D01*
X97127160Y-130381120D01*
X97215380Y-130401047D01*
X97288642Y-130441322D01*
X97294104Y-130445259D01*
X97368442Y-130511757D01*
X97420177Y-130592092D01*
X97452804Y-130697242D01*
X97469818Y-130838185D01*
X97474713Y-131025899D01*
X97473629Y-131162878D01*
X97468693Y-131266636D01*
X97457728Y-131338588D01*
X97438562Y-131392500D01*
X97409023Y-131442136D01*
X97381908Y-131480069D01*
X97283450Y-131582478D01*
X97171900Y-131638097D01*
X97031754Y-131655703D01*
X96871365Y-131638153D01*
X96732712Y-131575203D01*
X96623049Y-131464176D01*
X96614782Y-131452422D01*
X96595501Y-131421187D01*
X96580731Y-131385493D01*
X96569746Y-131337636D01*
X96561826Y-131269913D01*
X96556247Y-131174618D01*
X96552287Y-131044048D01*
X96551812Y-131017179D01*
X96832414Y-131017179D01*
X96833780Y-131092555D01*
X96848598Y-131229638D01*
X96882421Y-131319452D01*
X96938611Y-131368540D01*
X97020528Y-131383448D01*
X97055044Y-131380271D01*
X97114765Y-131348746D01*
X97154248Y-131278495D01*
X97176058Y-131163417D01*
X97182759Y-130997412D01*
X97182709Y-130970724D01*
X97179936Y-130850262D01*
X97171033Y-130771516D01*
X97153383Y-130720382D01*
X97124368Y-130682759D01*
X97122560Y-130680962D01*
X97051247Y-130632280D01*
X96982135Y-130637079D01*
X96904075Y-130696029D01*
X96884981Y-130716177D01*
X96856858Y-130757485D01*
X96841000Y-130811213D01*
X96833991Y-130892674D01*
X96832414Y-131017179D01*
X96551812Y-131017179D01*
X96549222Y-130870498D01*
X96546332Y-130646264D01*
X96545529Y-130581215D01*
X96542960Y-130363740D01*
X96542444Y-130197328D01*
X96545563Y-130076154D01*
X96553900Y-129994393D01*
X96569038Y-129946219D01*
X96592559Y-129925806D01*
X96626044Y-129927328D01*
G37*
X106450746Y-130370728D02*
X106509316Y-130395491D01*
X106583678Y-130429373D01*
X106583678Y-130864067D01*
X106583203Y-130975492D01*
X106578707Y-131144699D01*
X106567253Y-131270231D01*
X106546172Y-131361637D01*
X106512794Y-131428468D01*
X106464450Y-131480274D01*
X106398469Y-131526607D01*
X106314406Y-131564844D01*
X106159193Y-131587816D01*
X106088372Y-131585190D01*
X106025806Y-131569298D01*
X105967554Y-131529678D01*
X105892582Y-131455924D01*
X105844367Y-131403837D01*
X105794142Y-131336214D01*
X105771490Y-131272832D01*
X105766207Y-131192416D01*
X105766207Y-131060799D01*
X105855965Y-131107215D01*
X105927096Y-131163775D01*
X105975817Y-131239960D01*
X105984186Y-131260674D01*
X106047944Y-131340959D01*
X106136530Y-131381216D01*
X106233127Y-131377298D01*
X106320920Y-131325057D01*
X106358064Y-131282630D01*
X106379700Y-131228353D01*
X106356539Y-131180046D01*
X106284521Y-131131455D01*
X106159590Y-131076323D01*
X106140632Y-131068708D01*
X106026895Y-131018875D01*
X105929294Y-130969735D01*
X105867197Y-130930920D01*
X105805001Y-130861589D01*
X105763654Y-130750949D01*
X105768043Y-130632218D01*
X105816963Y-130519852D01*
X105909203Y-130428310D01*
X105983890Y-130389342D01*
X106128168Y-130362056D01*
X106208344Y-130365737D01*
X106282565Y-130385640D01*
X106311040Y-130427402D01*
X106300392Y-130496180D01*
X106297295Y-130505274D01*
X106272732Y-130553502D01*
X106231835Y-130571755D01*
X106153921Y-130570534D01*
X106098909Y-130568874D01*
X106034541Y-130583119D01*
X105990439Y-130625708D01*
X105965320Y-130678143D01*
X105962519Y-130733071D01*
X105962648Y-130733392D01*
X105995215Y-130763072D01*
X106064917Y-130806265D01*
X106155102Y-130854539D01*
X106249117Y-130899461D01*
X106330311Y-130932598D01*
X106382032Y-130945517D01*
X106389726Y-130932866D01*
X106399412Y-130873332D01*
X106406046Y-130776113D01*
X106408506Y-130653563D01*
X106409078Y-130568737D01*
X106411775Y-130461906D01*
X106416179Y-130388743D01*
X106421730Y-130361609D01*
X106450746Y-130370728D01*
G36*
X106450746Y-130370728D02*
G01*
X106509316Y-130395491D01*
X106583678Y-130429373D01*
X106583678Y-130864067D01*
X106583203Y-130975492D01*
X106578707Y-131144699D01*
X106567253Y-131270231D01*
X106546172Y-131361637D01*
X106512794Y-131428468D01*
X106464450Y-131480274D01*
X106398469Y-131526607D01*
X106314406Y-131564844D01*
X106159193Y-131587816D01*
X106088372Y-131585190D01*
X106025806Y-131569298D01*
X105967554Y-131529678D01*
X105892582Y-131455924D01*
X105844367Y-131403837D01*
X105794142Y-131336214D01*
X105771490Y-131272832D01*
X105766207Y-131192416D01*
X105766207Y-131060799D01*
X105855965Y-131107215D01*
X105927096Y-131163775D01*
X105975817Y-131239960D01*
X105984186Y-131260674D01*
X106047944Y-131340959D01*
X106136530Y-131381216D01*
X106233127Y-131377298D01*
X106320920Y-131325057D01*
X106358064Y-131282630D01*
X106379700Y-131228353D01*
X106356539Y-131180046D01*
X106284521Y-131131455D01*
X106159590Y-131076323D01*
X106140632Y-131068708D01*
X106026895Y-131018875D01*
X105929294Y-130969735D01*
X105867197Y-130930920D01*
X105805001Y-130861589D01*
X105763654Y-130750949D01*
X105768043Y-130632218D01*
X105816963Y-130519852D01*
X105909203Y-130428310D01*
X105983890Y-130389342D01*
X106128168Y-130362056D01*
X106208344Y-130365737D01*
X106282565Y-130385640D01*
X106311040Y-130427402D01*
X106300392Y-130496180D01*
X106297295Y-130505274D01*
X106272732Y-130553502D01*
X106231835Y-130571755D01*
X106153921Y-130570534D01*
X106098909Y-130568874D01*
X106034541Y-130583119D01*
X105990439Y-130625708D01*
X105965320Y-130678143D01*
X105962519Y-130733071D01*
X105962648Y-130733392D01*
X105995215Y-130763072D01*
X106064917Y-130806265D01*
X106155102Y-130854539D01*
X106249117Y-130899461D01*
X106330311Y-130932598D01*
X106382032Y-130945517D01*
X106389726Y-130932866D01*
X106399412Y-130873332D01*
X106406046Y-130776113D01*
X106408506Y-130653563D01*
X106409078Y-130568737D01*
X106411775Y-130461906D01*
X106416179Y-130388743D01*
X106421730Y-130361609D01*
X106450746Y-130370728D01*
G37*
X104807393Y-132757643D02*
X104852391Y-132789342D01*
X104929273Y-132854819D01*
X105031279Y-132947952D01*
X105151649Y-133062619D01*
X105283621Y-133192700D01*
X105719961Y-133629768D01*
X105040267Y-134629560D01*
X105143598Y-134853114D01*
X105143904Y-134853775D01*
X105205954Y-134996286D01*
X105269360Y-135154982D01*
X105320442Y-135295632D01*
X105328173Y-135318317D01*
X105367148Y-135423630D01*
X105402293Y-135505466D01*
X105426805Y-135547699D01*
X105436788Y-135553663D01*
X105496714Y-135573671D01*
X105598468Y-135599558D01*
X105730932Y-135628630D01*
X105882989Y-135658194D01*
X105928534Y-135666533D01*
X106093315Y-135696893D01*
X106247070Y-135725491D01*
X106374322Y-135749436D01*
X106459598Y-135765840D01*
X106612874Y-135796094D01*
X106612874Y-136434355D01*
X106612840Y-136512835D01*
X106612192Y-136704297D01*
X106610280Y-136847188D01*
X106606531Y-136948811D01*
X106600378Y-137016469D01*
X106591249Y-137057464D01*
X106578573Y-137079100D01*
X106561782Y-137088680D01*
X106545526Y-137092561D01*
X106479252Y-137106290D01*
X106373521Y-137127255D01*
X106239085Y-137153412D01*
X106086698Y-137182717D01*
X105927110Y-137213123D01*
X105771075Y-137242587D01*
X105629343Y-137269063D01*
X105512669Y-137290506D01*
X105431803Y-137304872D01*
X105397497Y-137310115D01*
X105395178Y-137313280D01*
X105376526Y-137354358D01*
X105344247Y-137432956D01*
X105303609Y-137536379D01*
X105247212Y-137675727D01*
X105177786Y-137836774D01*
X105112712Y-137978709D01*
X105097798Y-138010568D01*
X105055953Y-138110331D01*
X105030882Y-138187279D01*
X105027574Y-138226870D01*
X105029280Y-138229675D01*
X105056369Y-138270995D01*
X105110073Y-138351260D01*
X105185123Y-138462650D01*
X105276254Y-138597345D01*
X105378200Y-138747524D01*
X105493070Y-138918149D01*
X105579239Y-139050689D01*
X105637869Y-139147888D01*
X105672350Y-139215766D01*
X105686074Y-139260344D01*
X105682432Y-139287639D01*
X105681206Y-139289687D01*
X105648253Y-139329464D01*
X105581073Y-139401948D01*
X105486581Y-139499954D01*
X105371694Y-139616298D01*
X105243328Y-139743795D01*
X105110169Y-139873179D01*
X104979731Y-139994791D01*
X104883881Y-140076844D01*
X104820134Y-140121440D01*
X104786004Y-140130683D01*
X104781544Y-140128607D01*
X104734579Y-140100615D01*
X104649315Y-140045916D01*
X104533741Y-139969763D01*
X104395846Y-139877408D01*
X104243619Y-139774103D01*
X103747390Y-139435235D01*
X103523293Y-139536944D01*
X103516781Y-139539891D01*
X103379196Y-139599496D01*
X103233233Y-139658778D01*
X103109425Y-139705315D01*
X103108878Y-139705507D01*
X103010586Y-139741503D01*
X102934919Y-139771905D01*
X102898220Y-139790148D01*
X102897626Y-139790810D01*
X102885167Y-139828169D01*
X102864664Y-139913129D01*
X102838093Y-140036531D01*
X102807433Y-140189218D01*
X102774664Y-140362033D01*
X102773522Y-140368226D01*
X102740807Y-140544569D01*
X102710845Y-140704257D01*
X102685575Y-140837095D01*
X102666935Y-140932887D01*
X102656865Y-140981437D01*
X102656221Y-140984127D01*
X102649592Y-141004912D01*
X102636159Y-141020534D01*
X102608554Y-141031730D01*
X102559407Y-141039238D01*
X102481347Y-141043795D01*
X102367006Y-141046137D01*
X102209014Y-141047002D01*
X102000000Y-141047126D01*
X101973738Y-141047126D01*
X101770825Y-141046955D01*
X101618105Y-141045961D01*
X101508208Y-141043407D01*
X101433765Y-141038555D01*
X101387406Y-141030669D01*
X101361761Y-141019012D01*
X101349461Y-141002847D01*
X101343135Y-140981437D01*
X101342953Y-140980668D01*
X101332559Y-140930337D01*
X101313661Y-140833112D01*
X101288198Y-140699190D01*
X101258110Y-140538765D01*
X101225336Y-140362033D01*
X101222663Y-140347572D01*
X101189990Y-140176041D01*
X101159587Y-140025375D01*
X101133432Y-139904733D01*
X101113504Y-139823271D01*
X101101780Y-139790148D01*
X101101718Y-139790095D01*
X101064771Y-139771771D01*
X100988943Y-139741323D01*
X100890575Y-139705315D01*
X100885035Y-139703360D01*
X100759276Y-139655830D01*
X100612989Y-139596217D01*
X100476707Y-139536944D01*
X100252610Y-139435235D01*
X99756382Y-139774103D01*
X99721430Y-139797937D01*
X99571720Y-139899245D01*
X99438133Y-139988425D01*
X99328657Y-140060227D01*
X99251282Y-140109397D01*
X99213996Y-140130683D01*
X99188448Y-140125804D01*
X99130445Y-140087998D01*
X99040805Y-140013130D01*
X98917043Y-139899097D01*
X98756672Y-139743795D01*
X98742321Y-139729659D01*
X98615067Y-139603001D01*
X98502031Y-139488255D01*
X98410133Y-139392609D01*
X98346293Y-139323254D01*
X98317430Y-139287380D01*
X98317336Y-139287206D01*
X98313669Y-139259894D01*
X98327192Y-139215592D01*
X98361316Y-139148239D01*
X98419452Y-139051774D01*
X98505012Y-138920137D01*
X98621406Y-138747266D01*
X98641241Y-138718088D01*
X98741555Y-138570274D01*
X98830077Y-138439423D01*
X98901535Y-138333357D01*
X98950657Y-138259898D01*
X98972169Y-138226870D01*
X98973792Y-138219874D01*
X98963613Y-138167674D01*
X98933121Y-138082439D01*
X98887288Y-137978709D01*
X98825000Y-137843049D01*
X98755452Y-137682079D01*
X98696391Y-137536379D01*
X98681748Y-137498667D01*
X98643400Y-137402378D01*
X98615230Y-137335296D01*
X98602503Y-137310115D01*
X98588455Y-137308233D01*
X98525319Y-137297349D01*
X98421981Y-137278551D01*
X98289191Y-137253885D01*
X98137703Y-137225396D01*
X97978268Y-137195127D01*
X97821639Y-137165125D01*
X97678567Y-137137434D01*
X97559805Y-137114100D01*
X97476104Y-137097167D01*
X97438218Y-137088680D01*
X97431937Y-137086287D01*
X97416627Y-137073381D01*
X97405237Y-137045904D01*
X97397197Y-136996554D01*
X97391936Y-136918027D01*
X97388884Y-136803020D01*
X97387471Y-136644230D01*
X97387127Y-136434355D01*
X97387127Y-135796094D01*
X97540402Y-135765840D01*
X97558943Y-135762215D01*
X97657404Y-135743431D01*
X97793552Y-135717907D01*
X97951913Y-135688532D01*
X98117012Y-135658194D01*
X98182027Y-135645991D01*
X98327303Y-135616303D01*
X98448374Y-135588230D01*
X98534114Y-135564464D01*
X98573399Y-135547699D01*
X98591201Y-135520306D01*
X98623611Y-135447826D01*
X98656766Y-135354023D01*
X98668436Y-135318897D01*
X98711396Y-135203591D01*
X98766808Y-135067124D01*
X98825647Y-134932046D01*
X98857116Y-134861491D01*
X98901949Y-134756105D01*
X98932760Y-134677182D01*
X98944215Y-134637947D01*
X98943578Y-134634986D01*
X98921850Y-134593361D01*
X98872854Y-134513031D01*
X98801562Y-134401780D01*
X98712946Y-134267395D01*
X98611977Y-134117660D01*
X98279739Y-133630069D01*
X98716229Y-133192851D01*
X98758445Y-133150779D01*
X98887530Y-133024847D01*
X99002893Y-132916246D01*
X99097776Y-132831097D01*
X99165418Y-132775518D01*
X99199062Y-132755632D01*
X99235598Y-132770762D01*
X99312110Y-132814199D01*
X99419804Y-132880730D01*
X99550233Y-132965133D01*
X99694948Y-133062184D01*
X99837090Y-133158036D01*
X99965322Y-133242443D01*
X100069946Y-133309150D01*
X100142829Y-133352976D01*
X100175842Y-133368736D01*
X100177777Y-133368592D01*
X100221631Y-133353055D01*
X100299402Y-133316879D01*
X100395608Y-133267215D01*
X100396619Y-133266671D01*
X100524395Y-133202674D01*
X100611949Y-133171409D01*
X100666274Y-133171323D01*
X100694359Y-133200862D01*
X100706248Y-133229939D01*
X100738332Y-133307812D01*
X100787753Y-133427525D01*
X100851882Y-133582714D01*
X100928089Y-133767016D01*
X101013745Y-133974067D01*
X101106219Y-134197504D01*
X101190038Y-134400774D01*
X101275322Y-134609351D01*
X101350778Y-134795737D01*
X101413874Y-134953593D01*
X101462077Y-135076581D01*
X101492856Y-135158361D01*
X101503678Y-135192594D01*
X101483009Y-135223985D01*
X101425591Y-135276398D01*
X101344312Y-135337296D01*
X101149180Y-135496613D01*
X100974555Y-135700193D01*
X100846765Y-135924192D01*
X100766598Y-136161997D01*
X100734840Y-136406993D01*
X100752278Y-136652567D01*
X100819699Y-136892105D01*
X100937889Y-137118993D01*
X101107636Y-137326617D01*
X101196144Y-137407473D01*
X101408196Y-137550441D01*
X101635095Y-137643648D01*
X101870209Y-137689313D01*
X102106906Y-137689656D01*
X102338554Y-137646895D01*
X102558522Y-137563250D01*
X102760178Y-137440939D01*
X102936889Y-137282183D01*
X103082023Y-137089199D01*
X103188950Y-136864207D01*
X103251036Y-136609425D01*
X103262431Y-136486623D01*
X103246754Y-136220566D01*
X103176154Y-135968144D01*
X103052718Y-135733818D01*
X102878534Y-135522048D01*
X102655689Y-135337296D01*
X102577439Y-135278877D01*
X102518756Y-135225890D01*
X102496322Y-135192644D01*
X102505268Y-135163661D01*
X102534297Y-135086004D01*
X102580974Y-134966549D01*
X102642769Y-134811638D01*
X102717150Y-134627608D01*
X102801588Y-134420800D01*
X102893551Y-134197554D01*
X102977229Y-133995258D01*
X103063634Y-133786314D01*
X103140862Y-133599502D01*
X103206284Y-133441186D01*
X103257269Y-133317731D01*
X103291188Y-133235502D01*
X103305410Y-133200862D01*
X103305575Y-133200452D01*
X103334028Y-133171202D01*
X103388618Y-133171537D01*
X103476391Y-133203020D01*
X103604392Y-133267215D01*
X103614468Y-133272620D01*
X103709519Y-133321250D01*
X103784576Y-133355672D01*
X103824158Y-133368736D01*
X103856600Y-133353298D01*
X103929105Y-133309742D01*
X104033435Y-133243249D01*
X104161461Y-133159002D01*
X104305052Y-133062184D01*
X104446532Y-132967266D01*
X104577389Y-132882510D01*
X104685708Y-132815504D01*
X104763040Y-132771471D01*
X104800938Y-132755632D01*
X104807393Y-132757643D01*
G36*
X104807393Y-132757643D02*
G01*
X104852391Y-132789342D01*
X104929273Y-132854819D01*
X105031279Y-132947952D01*
X105151649Y-133062619D01*
X105283621Y-133192700D01*
X105719961Y-133629768D01*
X105040267Y-134629560D01*
X105143598Y-134853114D01*
X105143904Y-134853775D01*
X105205954Y-134996286D01*
X105269360Y-135154982D01*
X105320442Y-135295632D01*
X105328173Y-135318317D01*
X105367148Y-135423630D01*
X105402293Y-135505466D01*
X105426805Y-135547699D01*
X105436788Y-135553663D01*
X105496714Y-135573671D01*
X105598468Y-135599558D01*
X105730932Y-135628630D01*
X105882989Y-135658194D01*
X105928534Y-135666533D01*
X106093315Y-135696893D01*
X106247070Y-135725491D01*
X106374322Y-135749436D01*
X106459598Y-135765840D01*
X106612874Y-135796094D01*
X106612874Y-136434355D01*
X106612840Y-136512835D01*
X106612192Y-136704297D01*
X106610280Y-136847188D01*
X106606531Y-136948811D01*
X106600378Y-137016469D01*
X106591249Y-137057464D01*
X106578573Y-137079100D01*
X106561782Y-137088680D01*
X106545526Y-137092561D01*
X106479252Y-137106290D01*
X106373521Y-137127255D01*
X106239085Y-137153412D01*
X106086698Y-137182717D01*
X105927110Y-137213123D01*
X105771075Y-137242587D01*
X105629343Y-137269063D01*
X105512669Y-137290506D01*
X105431803Y-137304872D01*
X105397497Y-137310115D01*
X105395178Y-137313280D01*
X105376526Y-137354358D01*
X105344247Y-137432956D01*
X105303609Y-137536379D01*
X105247212Y-137675727D01*
X105177786Y-137836774D01*
X105112712Y-137978709D01*
X105097798Y-138010568D01*
X105055953Y-138110331D01*
X105030882Y-138187279D01*
X105027574Y-138226870D01*
X105029280Y-138229675D01*
X105056369Y-138270995D01*
X105110073Y-138351260D01*
X105185123Y-138462650D01*
X105276254Y-138597345D01*
X105378200Y-138747524D01*
X105493070Y-138918149D01*
X105579239Y-139050689D01*
X105637869Y-139147888D01*
X105672350Y-139215766D01*
X105686074Y-139260344D01*
X105682432Y-139287639D01*
X105681206Y-139289687D01*
X105648253Y-139329464D01*
X105581073Y-139401948D01*
X105486581Y-139499954D01*
X105371694Y-139616298D01*
X105243328Y-139743795D01*
X105110169Y-139873179D01*
X104979731Y-139994791D01*
X104883881Y-140076844D01*
X104820134Y-140121440D01*
X104786004Y-140130683D01*
X104781544Y-140128607D01*
X104734579Y-140100615D01*
X104649315Y-140045916D01*
X104533741Y-139969763D01*
X104395846Y-139877408D01*
X104243619Y-139774103D01*
X103747390Y-139435235D01*
X103523293Y-139536944D01*
X103516781Y-139539891D01*
X103379196Y-139599496D01*
X103233233Y-139658778D01*
X103109425Y-139705315D01*
X103108878Y-139705507D01*
X103010586Y-139741503D01*
X102934919Y-139771905D01*
X102898220Y-139790148D01*
X102897626Y-139790810D01*
X102885167Y-139828169D01*
X102864664Y-139913129D01*
X102838093Y-140036531D01*
X102807433Y-140189218D01*
X102774664Y-140362033D01*
X102773522Y-140368226D01*
X102740807Y-140544569D01*
X102710845Y-140704257D01*
X102685575Y-140837095D01*
X102666935Y-140932887D01*
X102656865Y-140981437D01*
X102656221Y-140984127D01*
X102649592Y-141004912D01*
X102636159Y-141020534D01*
X102608554Y-141031730D01*
X102559407Y-141039238D01*
X102481347Y-141043795D01*
X102367006Y-141046137D01*
X102209014Y-141047002D01*
X102000000Y-141047126D01*
X101973738Y-141047126D01*
X101770825Y-141046955D01*
X101618105Y-141045961D01*
X101508208Y-141043407D01*
X101433765Y-141038555D01*
X101387406Y-141030669D01*
X101361761Y-141019012D01*
X101349461Y-141002847D01*
X101343135Y-140981437D01*
X101342953Y-140980668D01*
X101332559Y-140930337D01*
X101313661Y-140833112D01*
X101288198Y-140699190D01*
X101258110Y-140538765D01*
X101225336Y-140362033D01*
X101222663Y-140347572D01*
X101189990Y-140176041D01*
X101159587Y-140025375D01*
X101133432Y-139904733D01*
X101113504Y-139823271D01*
X101101780Y-139790148D01*
X101101718Y-139790095D01*
X101064771Y-139771771D01*
X100988943Y-139741323D01*
X100890575Y-139705315D01*
X100885035Y-139703360D01*
X100759276Y-139655830D01*
X100612989Y-139596217D01*
X100476707Y-139536944D01*
X100252610Y-139435235D01*
X99756382Y-139774103D01*
X99721430Y-139797937D01*
X99571720Y-139899245D01*
X99438133Y-139988425D01*
X99328657Y-140060227D01*
X99251282Y-140109397D01*
X99213996Y-140130683D01*
X99188448Y-140125804D01*
X99130445Y-140087998D01*
X99040805Y-140013130D01*
X98917043Y-139899097D01*
X98756672Y-139743795D01*
X98742321Y-139729659D01*
X98615067Y-139603001D01*
X98502031Y-139488255D01*
X98410133Y-139392609D01*
X98346293Y-139323254D01*
X98317430Y-139287380D01*
X98317336Y-139287206D01*
X98313669Y-139259894D01*
X98327192Y-139215592D01*
X98361316Y-139148239D01*
X98419452Y-139051774D01*
X98505012Y-138920137D01*
X98621406Y-138747266D01*
X98641241Y-138718088D01*
X98741555Y-138570274D01*
X98830077Y-138439423D01*
X98901535Y-138333357D01*
X98950657Y-138259898D01*
X98972169Y-138226870D01*
X98973792Y-138219874D01*
X98963613Y-138167674D01*
X98933121Y-138082439D01*
X98887288Y-137978709D01*
X98825000Y-137843049D01*
X98755452Y-137682079D01*
X98696391Y-137536379D01*
X98681748Y-137498667D01*
X98643400Y-137402378D01*
X98615230Y-137335296D01*
X98602503Y-137310115D01*
X98588455Y-137308233D01*
X98525319Y-137297349D01*
X98421981Y-137278551D01*
X98289191Y-137253885D01*
X98137703Y-137225396D01*
X97978268Y-137195127D01*
X97821639Y-137165125D01*
X97678567Y-137137434D01*
X97559805Y-137114100D01*
X97476104Y-137097167D01*
X97438218Y-137088680D01*
X97431937Y-137086287D01*
X97416627Y-137073381D01*
X97405237Y-137045904D01*
X97397197Y-136996554D01*
X97391936Y-136918027D01*
X97388884Y-136803020D01*
X97387471Y-136644230D01*
X97387127Y-136434355D01*
X97387127Y-135796094D01*
X97540402Y-135765840D01*
X97558943Y-135762215D01*
X97657404Y-135743431D01*
X97793552Y-135717907D01*
X97951913Y-135688532D01*
X98117012Y-135658194D01*
X98182027Y-135645991D01*
X98327303Y-135616303D01*
X98448374Y-135588230D01*
X98534114Y-135564464D01*
X98573399Y-135547699D01*
X98591201Y-135520306D01*
X98623611Y-135447826D01*
X98656766Y-135354023D01*
X98668436Y-135318897D01*
X98711396Y-135203591D01*
X98766808Y-135067124D01*
X98825647Y-134932046D01*
X98857116Y-134861491D01*
X98901949Y-134756105D01*
X98932760Y-134677182D01*
X98944215Y-134637947D01*
X98943578Y-134634986D01*
X98921850Y-134593361D01*
X98872854Y-134513031D01*
X98801562Y-134401780D01*
X98712946Y-134267395D01*
X98611977Y-134117660D01*
X98279739Y-133630069D01*
X98716229Y-133192851D01*
X98758445Y-133150779D01*
X98887530Y-133024847D01*
X99002893Y-132916246D01*
X99097776Y-132831097D01*
X99165418Y-132775518D01*
X99199062Y-132755632D01*
X99235598Y-132770762D01*
X99312110Y-132814199D01*
X99419804Y-132880730D01*
X99550233Y-132965133D01*
X99694948Y-133062184D01*
X99837090Y-133158036D01*
X99965322Y-133242443D01*
X100069946Y-133309150D01*
X100142829Y-133352976D01*
X100175842Y-133368736D01*
X100177777Y-133368592D01*
X100221631Y-133353055D01*
X100299402Y-133316879D01*
X100395608Y-133267215D01*
X100396619Y-133266671D01*
X100524395Y-133202674D01*
X100611949Y-133171409D01*
X100666274Y-133171323D01*
X100694359Y-133200862D01*
X100706248Y-133229939D01*
X100738332Y-133307812D01*
X100787753Y-133427525D01*
X100851882Y-133582714D01*
X100928089Y-133767016D01*
X101013745Y-133974067D01*
X101106219Y-134197504D01*
X101190038Y-134400774D01*
X101275322Y-134609351D01*
X101350778Y-134795737D01*
X101413874Y-134953593D01*
X101462077Y-135076581D01*
X101492856Y-135158361D01*
X101503678Y-135192594D01*
X101483009Y-135223985D01*
X101425591Y-135276398D01*
X101344312Y-135337296D01*
X101149180Y-135496613D01*
X100974555Y-135700193D01*
X100846765Y-135924192D01*
X100766598Y-136161997D01*
X100734840Y-136406993D01*
X100752278Y-136652567D01*
X100819699Y-136892105D01*
X100937889Y-137118993D01*
X101107636Y-137326617D01*
X101196144Y-137407473D01*
X101408196Y-137550441D01*
X101635095Y-137643648D01*
X101870209Y-137689313D01*
X102106906Y-137689656D01*
X102338554Y-137646895D01*
X102558522Y-137563250D01*
X102760178Y-137440939D01*
X102936889Y-137282183D01*
X103082023Y-137089199D01*
X103188950Y-136864207D01*
X103251036Y-136609425D01*
X103262431Y-136486623D01*
X103246754Y-136220566D01*
X103176154Y-135968144D01*
X103052718Y-135733818D01*
X102878534Y-135522048D01*
X102655689Y-135337296D01*
X102577439Y-135278877D01*
X102518756Y-135225890D01*
X102496322Y-135192644D01*
X102505268Y-135163661D01*
X102534297Y-135086004D01*
X102580974Y-134966549D01*
X102642769Y-134811638D01*
X102717150Y-134627608D01*
X102801588Y-134420800D01*
X102893551Y-134197554D01*
X102977229Y-133995258D01*
X103063634Y-133786314D01*
X103140862Y-133599502D01*
X103206284Y-133441186D01*
X103257269Y-133317731D01*
X103291188Y-133235502D01*
X103305410Y-133200862D01*
X103305575Y-133200452D01*
X103334028Y-133171202D01*
X103388618Y-133171537D01*
X103476391Y-133203020D01*
X103604392Y-133267215D01*
X103614468Y-133272620D01*
X103709519Y-133321250D01*
X103784576Y-133355672D01*
X103824158Y-133368736D01*
X103856600Y-133353298D01*
X103929105Y-133309742D01*
X104033435Y-133243249D01*
X104161461Y-133159002D01*
X104305052Y-133062184D01*
X104446532Y-132967266D01*
X104577389Y-132882510D01*
X104685708Y-132815504D01*
X104763040Y-132771471D01*
X104800938Y-132755632D01*
X104807393Y-132757643D01*
G37*
%TD*%
M02*
